G04*
G04 #@! TF.GenerationSoftware,Altium Limited,Altium Designer,18.1.9 (240)*
G04*
G04 Layer_Color=8421504*
%FSLAX43Y43*%
%MOMM*%
G71*
G01*
G75*
%ADD10R,1.000X0.640*%
%ADD11R,0.640X1.000*%
%ADD12C,0.100*%
%ADD13R,1.700X3.700*%
%ADD14R,0.600X1.300*%
%ADD15R,0.700X0.510*%
%ADD16R,1.400X1.000*%
%ADD17R,1.100X1.500*%
%ADD18R,0.800X0.800*%
%ADD19R,0.800X0.800*%
%ADD20O,0.300X0.750*%
%ADD21O,0.750X0.300*%
%ADD22R,3.700X3.700*%
%ADD23R,0.500X1.200*%
%ADD24R,1.200X0.500*%
%ADD25R,2.500X1.700*%
%ADD26R,0.450X0.500*%
%ADD27R,0.425X0.330*%
%ADD28R,0.540X1.060*%
%ADD29R,1.000X1.800*%
%ADD30R,1.500X1.900*%
%ADD31R,0.400X1.350*%
%ADD32R,0.560X0.510*%
%ADD33R,0.510X0.700*%
%ADD34R,0.510X0.560*%
G36*
X-18876Y-16932D02*
X-18857Y-16935D01*
X-18815Y-16940D01*
X-18765Y-16952D01*
X-18712Y-16968D01*
X-18660Y-16993D01*
X-18607Y-17024D01*
X-18604D01*
X-18601Y-17029D01*
X-18585Y-17040D01*
X-18560Y-17063D01*
X-18529Y-17090D01*
X-18496Y-17126D01*
X-18463Y-17171D01*
X-18429Y-17224D01*
X-18401Y-17282D01*
Y-17285D01*
X-18399Y-17290D01*
X-18396Y-17299D01*
X-18390Y-17310D01*
X-18385Y-17326D01*
X-18379Y-17346D01*
X-18365Y-17390D01*
X-18351Y-17446D01*
X-18340Y-17507D01*
X-18332Y-17576D01*
X-18329Y-17648D01*
Y-17651D01*
Y-17657D01*
Y-17668D01*
Y-17684D01*
X-18332Y-17704D01*
Y-17726D01*
X-18338Y-17776D01*
X-18349Y-17837D01*
X-18363Y-17901D01*
X-18382Y-17968D01*
X-18407Y-18034D01*
Y-18037D01*
X-18410Y-18043D01*
X-18415Y-18051D01*
X-18421Y-18062D01*
X-18440Y-18093D01*
X-18465Y-18131D01*
X-18496Y-18173D01*
X-18535Y-18215D01*
X-18579Y-18256D01*
X-18632Y-18295D01*
X-18635D01*
X-18637Y-18298D01*
X-18646Y-18304D01*
X-18657Y-18309D01*
X-18685Y-18323D01*
X-18723Y-18340D01*
X-18771Y-18356D01*
X-18821Y-18370D01*
X-18879Y-18381D01*
X-18937Y-18384D01*
X-18957D01*
X-18979Y-18381D01*
X-19007Y-18379D01*
X-19040Y-18373D01*
X-19076Y-18365D01*
X-19112Y-18354D01*
X-19148Y-18337D01*
X-19151Y-18334D01*
X-19165Y-18329D01*
X-19182Y-18317D01*
X-19204Y-18301D01*
X-19226Y-18284D01*
X-19254Y-18262D01*
X-19279Y-18237D01*
X-19301Y-18209D01*
Y-18887D01*
X-19537D01*
Y-16960D01*
X-19323D01*
Y-17143D01*
X-19320Y-17138D01*
X-19309Y-17126D01*
X-19295Y-17107D01*
X-19273Y-17085D01*
X-19248Y-17057D01*
X-19220Y-17032D01*
X-19187Y-17007D01*
X-19154Y-16985D01*
X-19148Y-16982D01*
X-19137Y-16977D01*
X-19115Y-16968D01*
X-19087Y-16957D01*
X-19054Y-16946D01*
X-19015Y-16938D01*
X-18971Y-16932D01*
X-18921Y-16929D01*
X-18890D01*
X-18876Y-16932D01*
D02*
G37*
G36*
X-13499D02*
X-13457Y-16935D01*
X-13413Y-16940D01*
X-13365Y-16952D01*
X-13315Y-16963D01*
X-13268Y-16979D01*
X-13265D01*
X-13263Y-16982D01*
X-13249Y-16988D01*
X-13227Y-16999D01*
X-13199Y-17013D01*
X-13168Y-17032D01*
X-13138Y-17054D01*
X-13110Y-17079D01*
X-13085Y-17107D01*
X-13082Y-17110D01*
X-13077Y-17121D01*
X-13066Y-17140D01*
X-13052Y-17163D01*
X-13038Y-17196D01*
X-13024Y-17232D01*
X-13013Y-17274D01*
X-13002Y-17321D01*
X-13232Y-17351D01*
Y-17346D01*
X-13235Y-17335D01*
X-13240Y-17315D01*
X-13249Y-17290D01*
X-13263Y-17265D01*
X-13279Y-17238D01*
X-13299Y-17210D01*
X-13327Y-17185D01*
X-13329Y-17182D01*
X-13340Y-17176D01*
X-13357Y-17165D01*
X-13382Y-17154D01*
X-13410Y-17143D01*
X-13446Y-17132D01*
X-13490Y-17126D01*
X-13538Y-17124D01*
X-13565D01*
X-13593Y-17126D01*
X-13629Y-17129D01*
X-13665Y-17138D01*
X-13704Y-17146D01*
X-13740Y-17160D01*
X-13771Y-17179D01*
X-13774Y-17182D01*
X-13782Y-17188D01*
X-13793Y-17199D01*
X-13804Y-17215D01*
X-13818Y-17232D01*
X-13829Y-17254D01*
X-13837Y-17279D01*
X-13840Y-17304D01*
Y-17307D01*
Y-17312D01*
X-13837Y-17321D01*
Y-17332D01*
X-13829Y-17360D01*
X-13812Y-17387D01*
X-13810Y-17390D01*
X-13807Y-17393D01*
X-13801Y-17401D01*
X-13790Y-17410D01*
X-13779Y-17418D01*
X-13762Y-17429D01*
X-13743Y-17437D01*
X-13721Y-17449D01*
X-13718D01*
X-13712Y-17451D01*
X-13701Y-17454D01*
X-13682Y-17462D01*
X-13654Y-17471D01*
X-13618Y-17479D01*
X-13596Y-17487D01*
X-13571Y-17493D01*
X-13543Y-17501D01*
X-13513Y-17510D01*
X-13510D01*
X-13501Y-17512D01*
X-13488Y-17515D01*
X-13471Y-17521D01*
X-13451Y-17526D01*
X-13426Y-17532D01*
X-13374Y-17548D01*
X-13315Y-17565D01*
X-13257Y-17585D01*
X-13204Y-17604D01*
X-13182Y-17612D01*
X-13163Y-17621D01*
X-13157Y-17623D01*
X-13146Y-17629D01*
X-13129Y-17637D01*
X-13104Y-17651D01*
X-13079Y-17668D01*
X-13054Y-17690D01*
X-13029Y-17715D01*
X-13007Y-17743D01*
X-13004Y-17746D01*
X-12999Y-17757D01*
X-12988Y-17773D01*
X-12977Y-17798D01*
X-12968Y-17829D01*
X-12957Y-17862D01*
X-12952Y-17901D01*
X-12949Y-17945D01*
Y-17951D01*
Y-17965D01*
X-12952Y-17987D01*
X-12957Y-18018D01*
X-12966Y-18051D01*
X-12979Y-18087D01*
X-12996Y-18129D01*
X-13018Y-18168D01*
X-13021Y-18173D01*
X-13032Y-18184D01*
X-13046Y-18204D01*
X-13068Y-18226D01*
X-13099Y-18251D01*
X-13132Y-18279D01*
X-13171Y-18304D01*
X-13218Y-18329D01*
X-13221D01*
X-13224Y-18331D01*
X-13240Y-18337D01*
X-13268Y-18345D01*
X-13304Y-18356D01*
X-13349Y-18367D01*
X-13399Y-18376D01*
X-13451Y-18381D01*
X-13513Y-18384D01*
X-13538D01*
X-13557Y-18381D01*
X-13579D01*
X-13607Y-18379D01*
X-13635Y-18376D01*
X-13665Y-18370D01*
X-13732Y-18356D01*
X-13801Y-18337D01*
X-13868Y-18309D01*
X-13898Y-18292D01*
X-13926Y-18273D01*
X-13929Y-18270D01*
X-13932Y-18268D01*
X-13948Y-18251D01*
X-13973Y-18226D01*
X-14001Y-18187D01*
X-14032Y-18140D01*
X-14062Y-18084D01*
X-14087Y-18015D01*
X-14107Y-17937D01*
X-13873Y-17901D01*
Y-17904D01*
Y-17907D01*
X-13868Y-17923D01*
X-13862Y-17951D01*
X-13851Y-17982D01*
X-13837Y-18015D01*
X-13821Y-18051D01*
X-13796Y-18087D01*
X-13765Y-18118D01*
X-13760Y-18120D01*
X-13749Y-18129D01*
X-13726Y-18140D01*
X-13699Y-18154D01*
X-13662Y-18168D01*
X-13621Y-18179D01*
X-13571Y-18187D01*
X-13513Y-18190D01*
X-13485D01*
X-13457Y-18187D01*
X-13421Y-18181D01*
X-13382Y-18173D01*
X-13340Y-18162D01*
X-13304Y-18148D01*
X-13271Y-18126D01*
X-13268Y-18123D01*
X-13257Y-18115D01*
X-13246Y-18101D01*
X-13229Y-18081D01*
X-13215Y-18059D01*
X-13202Y-18032D01*
X-13193Y-18004D01*
X-13190Y-17970D01*
Y-17968D01*
Y-17957D01*
X-13193Y-17943D01*
X-13199Y-17923D01*
X-13207Y-17904D01*
X-13221Y-17884D01*
X-13238Y-17862D01*
X-13263Y-17846D01*
X-13265Y-17843D01*
X-13274Y-17840D01*
X-13288Y-17832D01*
X-13310Y-17823D01*
X-13343Y-17812D01*
X-13363Y-17804D01*
X-13385Y-17798D01*
X-13410Y-17790D01*
X-13438Y-17782D01*
X-13468Y-17773D01*
X-13504Y-17765D01*
X-13507D01*
X-13515Y-17762D01*
X-13529Y-17759D01*
X-13546Y-17754D01*
X-13568Y-17748D01*
X-13593Y-17740D01*
X-13646Y-17726D01*
X-13707Y-17707D01*
X-13765Y-17690D01*
X-13821Y-17671D01*
X-13846Y-17660D01*
X-13865Y-17651D01*
X-13871Y-17648D01*
X-13882Y-17643D01*
X-13898Y-17632D01*
X-13921Y-17618D01*
X-13946Y-17598D01*
X-13971Y-17576D01*
X-13996Y-17551D01*
X-14018Y-17521D01*
X-14021Y-17518D01*
X-14026Y-17507D01*
X-14034Y-17487D01*
X-14043Y-17465D01*
X-14051Y-17437D01*
X-14059Y-17404D01*
X-14065Y-17371D01*
X-14068Y-17332D01*
Y-17326D01*
Y-17315D01*
X-14065Y-17299D01*
X-14062Y-17274D01*
X-14057Y-17249D01*
X-14051Y-17218D01*
X-14040Y-17190D01*
X-14026Y-17160D01*
X-14023Y-17157D01*
X-14018Y-17146D01*
X-14009Y-17132D01*
X-13996Y-17113D01*
X-13979Y-17093D01*
X-13960Y-17068D01*
X-13937Y-17046D01*
X-13910Y-17027D01*
X-13907Y-17024D01*
X-13898Y-17021D01*
X-13887Y-17013D01*
X-13871Y-17004D01*
X-13848Y-16993D01*
X-13823Y-16982D01*
X-13793Y-16971D01*
X-13760Y-16960D01*
X-13754Y-16957D01*
X-13743Y-16954D01*
X-13724Y-16949D01*
X-13699Y-16943D01*
X-13668Y-16938D01*
X-13635Y-16935D01*
X-13596Y-16929D01*
X-13529D01*
X-13499Y-16932D01*
D02*
G37*
G36*
X-14856D02*
X-14815Y-16935D01*
X-14767Y-16940D01*
X-14720Y-16949D01*
X-14673Y-16960D01*
X-14629Y-16974D01*
X-14623Y-16977D01*
X-14609Y-16982D01*
X-14590Y-16990D01*
X-14565Y-17002D01*
X-14537Y-17018D01*
X-14509Y-17035D01*
X-14484Y-17057D01*
X-14462Y-17079D01*
X-14459Y-17082D01*
X-14454Y-17090D01*
X-14445Y-17104D01*
X-14434Y-17121D01*
X-14420Y-17146D01*
X-14409Y-17171D01*
X-14398Y-17201D01*
X-14390Y-17238D01*
Y-17240D01*
X-14387Y-17249D01*
X-14384Y-17265D01*
X-14381Y-17288D01*
Y-17318D01*
X-14379Y-17354D01*
X-14376Y-17401D01*
Y-17454D01*
Y-17771D01*
Y-17773D01*
Y-17784D01*
Y-17801D01*
Y-17823D01*
Y-17848D01*
Y-17879D01*
X-14373Y-17945D01*
Y-18015D01*
X-14370Y-18084D01*
X-14368Y-18115D01*
Y-18143D01*
X-14365Y-18168D01*
X-14362Y-18187D01*
Y-18190D01*
X-14359Y-18201D01*
X-14356Y-18218D01*
X-14348Y-18240D01*
X-14343Y-18265D01*
X-14332Y-18292D01*
X-14318Y-18323D01*
X-14304Y-18354D01*
X-14551D01*
X-14554Y-18351D01*
X-14556Y-18340D01*
X-14562Y-18326D01*
X-14570Y-18304D01*
X-14579Y-18279D01*
X-14584Y-18248D01*
X-14590Y-18215D01*
X-14595Y-18179D01*
X-14598D01*
X-14601Y-18184D01*
X-14617Y-18198D01*
X-14642Y-18218D01*
X-14676Y-18243D01*
X-14717Y-18268D01*
X-14759Y-18295D01*
X-14803Y-18320D01*
X-14851Y-18340D01*
X-14856Y-18342D01*
X-14873Y-18345D01*
X-14898Y-18354D01*
X-14928Y-18362D01*
X-14967Y-18370D01*
X-15012Y-18376D01*
X-15062Y-18381D01*
X-15112Y-18384D01*
X-15134D01*
X-15151Y-18381D01*
X-15170D01*
X-15192Y-18379D01*
X-15242Y-18370D01*
X-15298Y-18356D01*
X-15359Y-18337D01*
X-15414Y-18309D01*
X-15464Y-18273D01*
X-15470Y-18268D01*
X-15484Y-18254D01*
X-15503Y-18229D01*
X-15525Y-18195D01*
X-15547Y-18154D01*
X-15567Y-18106D01*
X-15581Y-18048D01*
X-15584Y-18020D01*
X-15586Y-17987D01*
Y-17982D01*
Y-17970D01*
X-15584Y-17951D01*
X-15581Y-17926D01*
X-15575Y-17895D01*
X-15567Y-17865D01*
X-15556Y-17832D01*
X-15542Y-17801D01*
X-15539Y-17798D01*
X-15534Y-17787D01*
X-15523Y-17771D01*
X-15509Y-17751D01*
X-15492Y-17729D01*
X-15470Y-17707D01*
X-15448Y-17684D01*
X-15420Y-17665D01*
X-15417Y-17662D01*
X-15406Y-17657D01*
X-15392Y-17646D01*
X-15370Y-17635D01*
X-15345Y-17623D01*
X-15314Y-17610D01*
X-15284Y-17598D01*
X-15248Y-17587D01*
X-15245D01*
X-15234Y-17585D01*
X-15217Y-17579D01*
X-15195Y-17576D01*
X-15167Y-17571D01*
X-15131Y-17565D01*
X-15089Y-17557D01*
X-15039Y-17551D01*
X-15037D01*
X-15026Y-17548D01*
X-15012D01*
X-14992Y-17546D01*
X-14970Y-17543D01*
X-14942Y-17537D01*
X-14912Y-17535D01*
X-14878Y-17529D01*
X-14812Y-17515D01*
X-14740Y-17501D01*
X-14676Y-17485D01*
X-14645Y-17476D01*
X-14617Y-17468D01*
Y-17465D01*
Y-17460D01*
X-14615Y-17443D01*
Y-17424D01*
Y-17412D01*
Y-17407D01*
Y-17404D01*
Y-17401D01*
Y-17385D01*
X-14617Y-17357D01*
X-14623Y-17326D01*
X-14631Y-17293D01*
X-14645Y-17260D01*
X-14662Y-17229D01*
X-14684Y-17204D01*
X-14687Y-17201D01*
X-14701Y-17190D01*
X-14723Y-17179D01*
X-14751Y-17163D01*
X-14790Y-17149D01*
X-14834Y-17135D01*
X-14890Y-17126D01*
X-14953Y-17124D01*
X-14981D01*
X-15009Y-17126D01*
X-15048Y-17132D01*
X-15087Y-17138D01*
X-15128Y-17149D01*
X-15167Y-17163D01*
X-15200Y-17182D01*
X-15203Y-17185D01*
X-15214Y-17193D01*
X-15228Y-17207D01*
X-15245Y-17229D01*
X-15262Y-17257D01*
X-15281Y-17293D01*
X-15298Y-17337D01*
X-15314Y-17387D01*
X-15545Y-17357D01*
Y-17354D01*
X-15542Y-17351D01*
Y-17343D01*
X-15539Y-17332D01*
X-15531Y-17307D01*
X-15520Y-17271D01*
X-15506Y-17235D01*
X-15489Y-17196D01*
X-15467Y-17157D01*
X-15442Y-17121D01*
X-15439Y-17118D01*
X-15428Y-17107D01*
X-15411Y-17090D01*
X-15389Y-17068D01*
X-15359Y-17046D01*
X-15323Y-17024D01*
X-15281Y-16999D01*
X-15234Y-16979D01*
X-15231D01*
X-15228Y-16977D01*
X-15220Y-16974D01*
X-15209Y-16971D01*
X-15181Y-16963D01*
X-15142Y-16954D01*
X-15098Y-16946D01*
X-15042Y-16938D01*
X-14984Y-16932D01*
X-14917Y-16929D01*
X-14887D01*
X-14856Y-16932D01*
D02*
G37*
G36*
X-16436Y-16435D02*
X-16389Y-16438D01*
X-16339Y-16441D01*
X-16292Y-16446D01*
X-16250Y-16452D01*
X-16244D01*
X-16225Y-16457D01*
X-16200Y-16463D01*
X-16167Y-16471D01*
X-16131Y-16485D01*
X-16092Y-16502D01*
X-16050Y-16521D01*
X-16014Y-16543D01*
X-16008Y-16546D01*
X-15997Y-16555D01*
X-15981Y-16571D01*
X-15958Y-16591D01*
X-15933Y-16616D01*
X-15908Y-16649D01*
X-15881Y-16685D01*
X-15858Y-16727D01*
X-15856Y-16732D01*
X-15850Y-16746D01*
X-15839Y-16771D01*
X-15828Y-16804D01*
X-15820Y-16843D01*
X-15808Y-16888D01*
X-15803Y-16938D01*
X-15800Y-16990D01*
Y-16993D01*
Y-17002D01*
Y-17013D01*
X-15803Y-17032D01*
X-15806Y-17052D01*
X-15808Y-17077D01*
X-15814Y-17104D01*
X-15820Y-17135D01*
X-15839Y-17199D01*
X-15850Y-17232D01*
X-15867Y-17268D01*
X-15886Y-17304D01*
X-15906Y-17337D01*
X-15931Y-17371D01*
X-15958Y-17404D01*
X-15961Y-17407D01*
X-15967Y-17412D01*
X-15975Y-17421D01*
X-15989Y-17429D01*
X-16006Y-17443D01*
X-16028Y-17457D01*
X-16056Y-17474D01*
X-16086Y-17487D01*
X-16122Y-17504D01*
X-16164Y-17521D01*
X-16208Y-17535D01*
X-16261Y-17546D01*
X-16317Y-17557D01*
X-16378Y-17565D01*
X-16447Y-17571D01*
X-16519Y-17573D01*
X-17011D01*
Y-18354D01*
X-17266D01*
Y-16432D01*
X-16478D01*
X-16436Y-16435D01*
D02*
G37*
G36*
X-21264Y-16660D02*
X-21897D01*
Y-18354D01*
X-22152D01*
Y-16660D01*
X-22785D01*
Y-16432D01*
X-21264D01*
Y-16660D01*
D02*
G37*
G36*
X-12394Y-16960D02*
X-12155D01*
Y-17143D01*
X-12394D01*
Y-17962D01*
Y-17968D01*
Y-17979D01*
Y-17995D01*
X-12391Y-18015D01*
X-12388Y-18059D01*
X-12385Y-18079D01*
X-12383Y-18093D01*
X-12380Y-18098D01*
X-12372Y-18109D01*
X-12360Y-18123D01*
X-12341Y-18137D01*
X-12335Y-18140D01*
X-12322Y-18145D01*
X-12297Y-18151D01*
X-12260Y-18154D01*
X-12233D01*
X-12219Y-18151D01*
X-12199D01*
X-12177Y-18148D01*
X-12155Y-18145D01*
X-12124Y-18354D01*
X-12130D01*
X-12141Y-18356D01*
X-12161Y-18359D01*
X-12186Y-18362D01*
X-12213Y-18367D01*
X-12244Y-18370D01*
X-12305Y-18373D01*
X-12327D01*
X-12349Y-18370D01*
X-12377Y-18367D01*
X-12410Y-18365D01*
X-12444Y-18356D01*
X-12474Y-18348D01*
X-12505Y-18334D01*
X-12508Y-18331D01*
X-12516Y-18326D01*
X-12527Y-18317D01*
X-12544Y-18304D01*
X-12558Y-18290D01*
X-12574Y-18270D01*
X-12591Y-18251D01*
X-12602Y-18226D01*
Y-18223D01*
X-12607Y-18212D01*
X-12610Y-18193D01*
X-12616Y-18165D01*
X-12621Y-18129D01*
X-12624Y-18106D01*
Y-18081D01*
X-12627Y-18051D01*
X-12630Y-18020D01*
Y-17987D01*
Y-17948D01*
Y-17143D01*
X-12805D01*
Y-16960D01*
X-12630D01*
Y-16616D01*
X-12394Y-16474D01*
Y-16960D01*
D02*
G37*
G36*
X-11305Y-16932D02*
X-11283Y-16935D01*
X-11255Y-16940D01*
X-11225Y-16946D01*
X-11189Y-16954D01*
X-11156Y-16963D01*
X-11117Y-16977D01*
X-11081Y-16990D01*
X-11042Y-17010D01*
X-11003Y-17032D01*
X-10964Y-17057D01*
X-10928Y-17088D01*
X-10895Y-17121D01*
X-10892Y-17124D01*
X-10886Y-17129D01*
X-10878Y-17140D01*
X-10867Y-17157D01*
X-10853Y-17176D01*
X-10839Y-17199D01*
X-10822Y-17226D01*
X-10806Y-17260D01*
X-10789Y-17296D01*
X-10772Y-17335D01*
X-10759Y-17379D01*
X-10745Y-17426D01*
X-10734Y-17479D01*
X-10725Y-17535D01*
X-10720Y-17593D01*
X-10717Y-17657D01*
Y-17660D01*
Y-17671D01*
Y-17690D01*
X-10720Y-17718D01*
X-11761D01*
Y-17721D01*
Y-17729D01*
X-11758Y-17740D01*
Y-17757D01*
X-11755Y-17776D01*
X-11750Y-17798D01*
X-11741Y-17848D01*
X-11725Y-17904D01*
X-11702Y-17965D01*
X-11672Y-18020D01*
X-11633Y-18070D01*
X-11630D01*
X-11627Y-18076D01*
X-11611Y-18090D01*
X-11586Y-18109D01*
X-11553Y-18129D01*
X-11508Y-18151D01*
X-11458Y-18170D01*
X-11403Y-18184D01*
X-11372Y-18187D01*
X-11339Y-18190D01*
X-11317D01*
X-11292Y-18187D01*
X-11261Y-18181D01*
X-11228Y-18173D01*
X-11189Y-18162D01*
X-11153Y-18145D01*
X-11117Y-18123D01*
X-11114Y-18120D01*
X-11100Y-18109D01*
X-11083Y-18093D01*
X-11064Y-18070D01*
X-11042Y-18040D01*
X-11017Y-18001D01*
X-10992Y-17957D01*
X-10970Y-17904D01*
X-10725Y-17934D01*
Y-17937D01*
X-10728Y-17943D01*
X-10731Y-17954D01*
X-10736Y-17970D01*
X-10745Y-17987D01*
X-10753Y-18009D01*
X-10775Y-18057D01*
X-10803Y-18109D01*
X-10842Y-18165D01*
X-10886Y-18218D01*
X-10942Y-18268D01*
X-10945D01*
X-10950Y-18273D01*
X-10958Y-18279D01*
X-10970Y-18287D01*
X-10986Y-18295D01*
X-11003Y-18304D01*
X-11025Y-18315D01*
X-11050Y-18326D01*
X-11078Y-18337D01*
X-11106Y-18348D01*
X-11175Y-18365D01*
X-11253Y-18379D01*
X-11339Y-18384D01*
X-11369D01*
X-11389Y-18381D01*
X-11414Y-18379D01*
X-11444Y-18373D01*
X-11478Y-18367D01*
X-11514Y-18362D01*
X-11591Y-18340D01*
X-11633Y-18323D01*
X-11672Y-18306D01*
X-11714Y-18284D01*
X-11752Y-18259D01*
X-11788Y-18231D01*
X-11825Y-18198D01*
X-11827Y-18195D01*
X-11833Y-18190D01*
X-11841Y-18179D01*
X-11852Y-18162D01*
X-11866Y-18143D01*
X-11880Y-18120D01*
X-11897Y-18093D01*
X-11913Y-18062D01*
X-11930Y-18026D01*
X-11947Y-17987D01*
X-11961Y-17943D01*
X-11974Y-17895D01*
X-11986Y-17846D01*
X-11994Y-17790D01*
X-11999Y-17732D01*
X-12002Y-17671D01*
Y-17668D01*
Y-17654D01*
Y-17637D01*
X-11999Y-17612D01*
X-11997Y-17582D01*
X-11994Y-17548D01*
X-11988Y-17510D01*
X-11980Y-17471D01*
X-11958Y-17382D01*
X-11944Y-17337D01*
X-11927Y-17290D01*
X-11905Y-17246D01*
X-11880Y-17204D01*
X-11852Y-17163D01*
X-11822Y-17124D01*
X-11819Y-17121D01*
X-11813Y-17115D01*
X-11802Y-17107D01*
X-11788Y-17093D01*
X-11772Y-17079D01*
X-11750Y-17063D01*
X-11725Y-17043D01*
X-11694Y-17027D01*
X-11664Y-17007D01*
X-11627Y-16990D01*
X-11589Y-16974D01*
X-11547Y-16960D01*
X-11503Y-16946D01*
X-11455Y-16938D01*
X-11405Y-16932D01*
X-11353Y-16929D01*
X-11325D01*
X-11305Y-16932D01*
D02*
G37*
G36*
X-20420D02*
X-20395Y-16935D01*
X-20367Y-16940D01*
X-20336Y-16946D01*
X-20300Y-16952D01*
X-20225Y-16977D01*
X-20187Y-16990D01*
X-20148Y-17010D01*
X-20109Y-17029D01*
X-20070Y-17057D01*
X-20034Y-17085D01*
X-19998Y-17118D01*
X-19995Y-17121D01*
X-19989Y-17126D01*
X-19981Y-17138D01*
X-19970Y-17151D01*
X-19956Y-17171D01*
X-19939Y-17196D01*
X-19923Y-17224D01*
X-19906Y-17254D01*
X-19890Y-17288D01*
X-19873Y-17329D01*
X-19856Y-17371D01*
X-19842Y-17418D01*
X-19831Y-17468D01*
X-19823Y-17521D01*
X-19817Y-17576D01*
X-19815Y-17637D01*
Y-17640D01*
Y-17648D01*
Y-17662D01*
Y-17682D01*
X-19817Y-17704D01*
X-19820Y-17732D01*
Y-17759D01*
X-19826Y-17790D01*
X-19834Y-17859D01*
X-19851Y-17929D01*
X-19870Y-17998D01*
X-19898Y-18062D01*
Y-18065D01*
X-19901Y-18068D01*
X-19906Y-18076D01*
X-19912Y-18087D01*
X-19931Y-18115D01*
X-19956Y-18148D01*
X-19989Y-18187D01*
X-20031Y-18226D01*
X-20078Y-18265D01*
X-20134Y-18301D01*
X-20137D01*
X-20139Y-18304D01*
X-20148Y-18309D01*
X-20162Y-18315D01*
X-20175Y-18320D01*
X-20192Y-18326D01*
X-20234Y-18342D01*
X-20281Y-18356D01*
X-20339Y-18370D01*
X-20400Y-18381D01*
X-20467Y-18384D01*
X-20495D01*
X-20517Y-18381D01*
X-20542Y-18379D01*
X-20570Y-18373D01*
X-20603Y-18367D01*
X-20636Y-18362D01*
X-20711Y-18340D01*
X-20753Y-18323D01*
X-20792Y-18306D01*
X-20831Y-18284D01*
X-20870Y-18259D01*
X-20906Y-18231D01*
X-20942Y-18198D01*
X-20944Y-18195D01*
X-20950Y-18190D01*
X-20958Y-18179D01*
X-20969Y-18162D01*
X-20983Y-18143D01*
X-20997Y-18120D01*
X-21014Y-18093D01*
X-21031Y-18059D01*
X-21047Y-18023D01*
X-21064Y-17982D01*
X-21078Y-17937D01*
X-21092Y-17890D01*
X-21103Y-17837D01*
X-21111Y-17782D01*
X-21117Y-17721D01*
X-21119Y-17657D01*
Y-17651D01*
Y-17640D01*
X-21117Y-17621D01*
Y-17593D01*
X-21114Y-17562D01*
X-21108Y-17523D01*
X-21103Y-17485D01*
X-21092Y-17440D01*
X-21081Y-17396D01*
X-21067Y-17349D01*
X-21050Y-17299D01*
X-21028Y-17251D01*
X-21006Y-17207D01*
X-20975Y-17163D01*
X-20944Y-17121D01*
X-20906Y-17085D01*
X-20903Y-17082D01*
X-20897Y-17079D01*
X-20886Y-17071D01*
X-20872Y-17060D01*
X-20856Y-17049D01*
X-20833Y-17035D01*
X-20811Y-17021D01*
X-20783Y-17007D01*
X-20753Y-16993D01*
X-20720Y-16979D01*
X-20645Y-16954D01*
X-20559Y-16935D01*
X-20514Y-16932D01*
X-20467Y-16929D01*
X-20439D01*
X-20420Y-16932D01*
D02*
G37*
G36*
X20567Y-16402D02*
X20589D01*
X20642Y-16407D01*
X20700Y-16416D01*
X20761Y-16430D01*
X20828Y-16446D01*
X20892Y-16469D01*
X20895D01*
X20900Y-16471D01*
X20909Y-16474D01*
X20920Y-16480D01*
X20950Y-16496D01*
X20989Y-16516D01*
X21031Y-16543D01*
X21075Y-16577D01*
X21117Y-16613D01*
X21156Y-16657D01*
X21161Y-16663D01*
X21172Y-16680D01*
X21189Y-16705D01*
X21211Y-16741D01*
X21233Y-16785D01*
X21258Y-16841D01*
X21283Y-16902D01*
X21303Y-16971D01*
X21072Y-17032D01*
Y-17029D01*
X21070Y-17027D01*
X21067Y-17018D01*
X21064Y-17007D01*
X21056Y-16982D01*
X21045Y-16949D01*
X21028Y-16910D01*
X21008Y-16874D01*
X20989Y-16835D01*
X20964Y-16802D01*
X20961Y-16799D01*
X20953Y-16788D01*
X20936Y-16774D01*
X20917Y-16754D01*
X20892Y-16732D01*
X20859Y-16710D01*
X20822Y-16688D01*
X20781Y-16668D01*
X20775Y-16666D01*
X20761Y-16660D01*
X20736Y-16652D01*
X20703Y-16641D01*
X20664Y-16632D01*
X20620Y-16624D01*
X20570Y-16618D01*
X20517Y-16616D01*
X20487D01*
X20473Y-16618D01*
X20456D01*
X20414Y-16621D01*
X20367Y-16630D01*
X20314Y-16638D01*
X20264Y-16652D01*
X20215Y-16671D01*
X20209Y-16674D01*
X20192Y-16680D01*
X20170Y-16693D01*
X20142Y-16707D01*
X20109Y-16729D01*
X20073Y-16752D01*
X20040Y-16779D01*
X20009Y-16810D01*
X20006Y-16813D01*
X19995Y-16824D01*
X19981Y-16843D01*
X19965Y-16866D01*
X19945Y-16893D01*
X19926Y-16927D01*
X19906Y-16963D01*
X19887Y-17002D01*
Y-17004D01*
X19884Y-17010D01*
X19881Y-17018D01*
X19876Y-17032D01*
X19870Y-17049D01*
X19865Y-17068D01*
X19856Y-17090D01*
X19851Y-17115D01*
X19837Y-17174D01*
X19826Y-17240D01*
X19817Y-17310D01*
X19815Y-17387D01*
Y-17390D01*
Y-17399D01*
Y-17412D01*
X19817Y-17429D01*
Y-17451D01*
X19820Y-17479D01*
X19823Y-17507D01*
X19826Y-17537D01*
X19837Y-17607D01*
X19851Y-17679D01*
X19873Y-17751D01*
X19901Y-17821D01*
Y-17823D01*
X19906Y-17829D01*
X19909Y-17837D01*
X19917Y-17848D01*
X19937Y-17879D01*
X19967Y-17918D01*
X20004Y-17959D01*
X20048Y-18001D01*
X20101Y-18040D01*
X20159Y-18076D01*
X20162D01*
X20167Y-18079D01*
X20176Y-18084D01*
X20190Y-18090D01*
X20203Y-18095D01*
X20223Y-18101D01*
X20267Y-18118D01*
X20323Y-18131D01*
X20384Y-18145D01*
X20450Y-18156D01*
X20520Y-18159D01*
X20548D01*
X20564Y-18156D01*
X20581D01*
X20623Y-18151D01*
X20673Y-18145D01*
X20725Y-18134D01*
X20784Y-18118D01*
X20842Y-18098D01*
X20845D01*
X20850Y-18095D01*
X20856Y-18093D01*
X20867Y-18087D01*
X20897Y-18073D01*
X20931Y-18057D01*
X20970Y-18037D01*
X21011Y-18015D01*
X21050Y-17990D01*
X21083Y-17962D01*
Y-17601D01*
X20517D01*
Y-17374D01*
X21333D01*
Y-18087D01*
X21331Y-18090D01*
X21325Y-18093D01*
X21314Y-18101D01*
X21300Y-18112D01*
X21283Y-18123D01*
X21264Y-18137D01*
X21239Y-18154D01*
X21214Y-18170D01*
X21156Y-18206D01*
X21089Y-18245D01*
X21020Y-18281D01*
X20945Y-18312D01*
X20942D01*
X20936Y-18315D01*
X20925Y-18317D01*
X20911Y-18323D01*
X20892Y-18329D01*
X20870Y-18337D01*
X20845Y-18342D01*
X20820Y-18348D01*
X20759Y-18362D01*
X20689Y-18376D01*
X20614Y-18384D01*
X20537Y-18387D01*
X20509D01*
X20489Y-18384D01*
X20464D01*
X20434Y-18381D01*
X20401Y-18376D01*
X20364Y-18373D01*
X20284Y-18356D01*
X20198Y-18337D01*
X20109Y-18306D01*
X20065Y-18290D01*
X20020Y-18268D01*
X20017Y-18265D01*
X20009Y-18262D01*
X19998Y-18254D01*
X19981Y-18245D01*
X19962Y-18231D01*
X19942Y-18218D01*
X19890Y-18179D01*
X19834Y-18129D01*
X19776Y-18068D01*
X19720Y-17998D01*
X19670Y-17918D01*
Y-17915D01*
X19665Y-17907D01*
X19659Y-17895D01*
X19651Y-17876D01*
X19643Y-17857D01*
X19634Y-17829D01*
X19623Y-17801D01*
X19612Y-17768D01*
X19601Y-17732D01*
X19590Y-17690D01*
X19582Y-17648D01*
X19573Y-17604D01*
X19559Y-17507D01*
X19554Y-17404D01*
Y-17401D01*
Y-17390D01*
Y-17376D01*
X19557Y-17357D01*
Y-17332D01*
X19559Y-17301D01*
X19565Y-17271D01*
X19568Y-17235D01*
X19576Y-17196D01*
X19582Y-17154D01*
X19604Y-17065D01*
X19631Y-16974D01*
X19670Y-16882D01*
X19673Y-16879D01*
X19676Y-16871D01*
X19681Y-16860D01*
X19693Y-16843D01*
X19704Y-16821D01*
X19718Y-16799D01*
X19756Y-16746D01*
X19804Y-16685D01*
X19862Y-16627D01*
X19929Y-16568D01*
X19967Y-16543D01*
X20006Y-16518D01*
X20009Y-16516D01*
X20017Y-16513D01*
X20028Y-16507D01*
X20045Y-16499D01*
X20067Y-16491D01*
X20092Y-16480D01*
X20120Y-16469D01*
X20153Y-16457D01*
X20190Y-16446D01*
X20228Y-16438D01*
X20270Y-16427D01*
X20314Y-16419D01*
X20412Y-16405D01*
X20462Y-16399D01*
X20550D01*
X20567Y-16402D01*
D02*
G37*
G36*
X24179Y-16435D02*
X24226Y-16438D01*
X24276Y-16441D01*
X24323Y-16446D01*
X24365Y-16452D01*
X24371D01*
X24390Y-16457D01*
X24415Y-16463D01*
X24448Y-16471D01*
X24484Y-16485D01*
X24523Y-16502D01*
X24565Y-16521D01*
X24601Y-16543D01*
X24606Y-16546D01*
X24618Y-16555D01*
X24634Y-16571D01*
X24656Y-16591D01*
X24681Y-16616D01*
X24706Y-16649D01*
X24734Y-16685D01*
X24756Y-16727D01*
X24759Y-16732D01*
X24765Y-16746D01*
X24776Y-16771D01*
X24787Y-16804D01*
X24795Y-16843D01*
X24806Y-16888D01*
X24812Y-16938D01*
X24815Y-16990D01*
Y-16993D01*
Y-17002D01*
Y-17013D01*
X24812Y-17032D01*
X24809Y-17052D01*
X24806Y-17077D01*
X24801Y-17104D01*
X24795Y-17135D01*
X24776Y-17199D01*
X24765Y-17232D01*
X24748Y-17268D01*
X24729Y-17304D01*
X24709Y-17337D01*
X24684Y-17371D01*
X24656Y-17404D01*
X24654Y-17407D01*
X24648Y-17412D01*
X24640Y-17421D01*
X24626Y-17429D01*
X24609Y-17443D01*
X24587Y-17457D01*
X24559Y-17474D01*
X24529Y-17487D01*
X24493Y-17504D01*
X24451Y-17521D01*
X24407Y-17535D01*
X24354Y-17546D01*
X24298Y-17557D01*
X24237Y-17565D01*
X24168Y-17571D01*
X24096Y-17573D01*
X23604D01*
Y-18354D01*
X23349D01*
Y-16432D01*
X24137D01*
X24179Y-16435D01*
D02*
G37*
G36*
X23085Y-16660D02*
X22452D01*
Y-18354D01*
X22197D01*
Y-16660D01*
X21564D01*
Y-16432D01*
X23085D01*
Y-16660D01*
D02*
G37*
G36*
X19179Y-18354D02*
X18910D01*
Y-18084D01*
X19179D01*
Y-18354D01*
D02*
G37*
%LPC*%
G36*
X-18943Y-17115D02*
X-18957D01*
X-18968Y-17118D01*
X-18996Y-17124D01*
X-19032Y-17132D01*
X-19073Y-17149D01*
X-19118Y-17174D01*
X-19143Y-17190D01*
X-19165Y-17210D01*
X-19187Y-17232D01*
X-19209Y-17257D01*
Y-17260D01*
X-19215Y-17263D01*
X-19220Y-17271D01*
X-19226Y-17282D01*
X-19234Y-17299D01*
X-19245Y-17315D01*
X-19257Y-17337D01*
X-19265Y-17360D01*
X-19276Y-17387D01*
X-19287Y-17418D01*
X-19295Y-17451D01*
X-19306Y-17487D01*
X-19312Y-17529D01*
X-19318Y-17571D01*
X-19323Y-17615D01*
Y-17665D01*
Y-17668D01*
Y-17676D01*
Y-17690D01*
X-19320Y-17709D01*
Y-17732D01*
X-19318Y-17757D01*
X-19309Y-17815D01*
X-19295Y-17882D01*
X-19279Y-17945D01*
X-19251Y-18009D01*
X-19234Y-18037D01*
X-19215Y-18062D01*
X-19209Y-18068D01*
X-19195Y-18081D01*
X-19173Y-18104D01*
X-19143Y-18126D01*
X-19104Y-18148D01*
X-19059Y-18170D01*
X-19009Y-18184D01*
X-18982Y-18187D01*
X-18954Y-18190D01*
X-18937D01*
X-18926Y-18187D01*
X-18898Y-18181D01*
X-18860Y-18173D01*
X-18818Y-18156D01*
X-18773Y-18134D01*
X-18729Y-18101D01*
X-18707Y-18081D01*
X-18685Y-18059D01*
Y-18057D01*
X-18679Y-18054D01*
X-18674Y-18045D01*
X-18668Y-18034D01*
X-18657Y-18020D01*
X-18649Y-18001D01*
X-18637Y-17982D01*
X-18626Y-17957D01*
X-18618Y-17932D01*
X-18607Y-17898D01*
X-18596Y-17865D01*
X-18587Y-17829D01*
X-18582Y-17787D01*
X-18576Y-17743D01*
X-18571Y-17696D01*
Y-17646D01*
Y-17643D01*
Y-17635D01*
Y-17621D01*
X-18574Y-17601D01*
Y-17579D01*
X-18576Y-17554D01*
X-18585Y-17496D01*
X-18599Y-17432D01*
X-18618Y-17368D01*
X-18646Y-17304D01*
X-18662Y-17274D01*
X-18682Y-17249D01*
Y-17246D01*
X-18687Y-17243D01*
X-18701Y-17226D01*
X-18723Y-17207D01*
X-18754Y-17182D01*
X-18793Y-17157D01*
X-18837Y-17135D01*
X-18887Y-17121D01*
X-18915Y-17118D01*
X-18943Y-17115D01*
D02*
G37*
G36*
X-14615Y-17654D02*
X-14617D01*
X-14620Y-17657D01*
X-14629Y-17660D01*
X-14640Y-17662D01*
X-14654Y-17668D01*
X-14670Y-17673D01*
X-14690Y-17679D01*
X-14712Y-17684D01*
X-14737Y-17693D01*
X-14767Y-17698D01*
X-14798Y-17707D01*
X-14834Y-17715D01*
X-14873Y-17723D01*
X-14912Y-17732D01*
X-14956Y-17737D01*
X-15003Y-17746D01*
X-15009D01*
X-15026Y-17748D01*
X-15053Y-17754D01*
X-15084Y-17759D01*
X-15117Y-17765D01*
X-15151Y-17773D01*
X-15181Y-17782D01*
X-15209Y-17793D01*
X-15212D01*
X-15220Y-17798D01*
X-15231Y-17804D01*
X-15242Y-17812D01*
X-15275Y-17834D01*
X-15303Y-17868D01*
Y-17871D01*
X-15309Y-17876D01*
X-15312Y-17887D01*
X-15317Y-17901D01*
X-15323Y-17918D01*
X-15328Y-17934D01*
X-15331Y-17957D01*
X-15334Y-17979D01*
Y-17982D01*
Y-17995D01*
X-15331Y-18012D01*
X-15325Y-18034D01*
X-15317Y-18059D01*
X-15303Y-18084D01*
X-15287Y-18112D01*
X-15264Y-18137D01*
X-15262Y-18140D01*
X-15250Y-18145D01*
X-15234Y-18156D01*
X-15212Y-18168D01*
X-15181Y-18179D01*
X-15145Y-18190D01*
X-15103Y-18195D01*
X-15053Y-18198D01*
X-15031D01*
X-15003Y-18195D01*
X-14973Y-18190D01*
X-14934Y-18184D01*
X-14895Y-18173D01*
X-14853Y-18159D01*
X-14812Y-18140D01*
X-14806Y-18137D01*
X-14795Y-18129D01*
X-14776Y-18115D01*
X-14753Y-18095D01*
X-14729Y-18073D01*
X-14701Y-18045D01*
X-14679Y-18012D01*
X-14656Y-17976D01*
X-14654Y-17973D01*
X-14651Y-17962D01*
X-14645Y-17943D01*
X-14637Y-17918D01*
X-14629Y-17884D01*
X-14623Y-17846D01*
X-14620Y-17798D01*
X-14617Y-17743D01*
X-14615Y-17654D01*
D02*
G37*
G36*
X-16461Y-16660D02*
X-17011D01*
Y-17346D01*
X-16494D01*
X-16475Y-17343D01*
X-16455D01*
X-16433Y-17340D01*
X-16380Y-17335D01*
X-16322Y-17324D01*
X-16264Y-17307D01*
X-16211Y-17285D01*
X-16186Y-17271D01*
X-16167Y-17254D01*
X-16161Y-17249D01*
X-16150Y-17238D01*
X-16133Y-17215D01*
X-16114Y-17188D01*
X-16094Y-17151D01*
X-16078Y-17107D01*
X-16067Y-17057D01*
X-16061Y-16999D01*
Y-16996D01*
Y-16993D01*
Y-16979D01*
X-16064Y-16954D01*
X-16069Y-16927D01*
X-16075Y-16896D01*
X-16086Y-16860D01*
X-16103Y-16827D01*
X-16122Y-16793D01*
X-16125Y-16791D01*
X-16133Y-16779D01*
X-16147Y-16766D01*
X-16164Y-16746D01*
X-16189Y-16727D01*
X-16217Y-16710D01*
X-16247Y-16693D01*
X-16283Y-16680D01*
X-16286D01*
X-16297Y-16677D01*
X-16314Y-16674D01*
X-16336Y-16668D01*
X-16369Y-16666D01*
X-16411Y-16663D01*
X-16461Y-16660D01*
D02*
G37*
G36*
X-11350Y-17124D02*
X-11367D01*
X-11378Y-17126D01*
X-11408Y-17129D01*
X-11444Y-17138D01*
X-11489Y-17151D01*
X-11536Y-17171D01*
X-11580Y-17199D01*
X-11625Y-17235D01*
X-11630Y-17240D01*
X-11641Y-17254D01*
X-11661Y-17279D01*
X-11680Y-17312D01*
X-11702Y-17351D01*
X-11722Y-17401D01*
X-11739Y-17460D01*
X-11747Y-17523D01*
X-10967D01*
Y-17521D01*
Y-17515D01*
X-10970Y-17507D01*
Y-17496D01*
X-10975Y-17462D01*
X-10983Y-17426D01*
X-10997Y-17382D01*
X-11011Y-17340D01*
X-11033Y-17299D01*
X-11058Y-17263D01*
Y-17260D01*
X-11064Y-17257D01*
X-11078Y-17240D01*
X-11103Y-17218D01*
X-11136Y-17193D01*
X-11178Y-17168D01*
X-11228Y-17146D01*
X-11286Y-17129D01*
X-11317Y-17126D01*
X-11350Y-17124D01*
D02*
G37*
G36*
X-20467D02*
X-20484D01*
X-20497Y-17126D01*
X-20528Y-17129D01*
X-20570Y-17140D01*
X-20617Y-17157D01*
X-20667Y-17179D01*
X-20714Y-17213D01*
X-20739Y-17235D01*
X-20761Y-17257D01*
Y-17260D01*
X-20767Y-17263D01*
X-20772Y-17271D01*
X-20781Y-17282D01*
X-20789Y-17296D01*
X-20797Y-17312D01*
X-20808Y-17335D01*
X-20820Y-17357D01*
X-20831Y-17385D01*
X-20842Y-17412D01*
X-20850Y-17446D01*
X-20858Y-17482D01*
X-20867Y-17521D01*
X-20872Y-17562D01*
X-20875Y-17610D01*
X-20878Y-17657D01*
Y-17660D01*
Y-17668D01*
Y-17682D01*
X-20875Y-17701D01*
Y-17723D01*
X-20872Y-17748D01*
X-20864Y-17807D01*
X-20850Y-17873D01*
X-20828Y-17940D01*
X-20800Y-18004D01*
X-20781Y-18032D01*
X-20761Y-18059D01*
X-20758D01*
X-20756Y-18065D01*
X-20739Y-18079D01*
X-20714Y-18101D01*
X-20681Y-18123D01*
X-20639Y-18148D01*
X-20589Y-18170D01*
X-20531Y-18184D01*
X-20500Y-18187D01*
X-20467Y-18190D01*
X-20450D01*
X-20436Y-18187D01*
X-20406Y-18181D01*
X-20364Y-18173D01*
X-20320Y-18156D01*
X-20270Y-18134D01*
X-20223Y-18101D01*
X-20198Y-18079D01*
X-20175Y-18057D01*
X-20173Y-18054D01*
X-20170Y-18051D01*
X-20164Y-18043D01*
X-20156Y-18032D01*
X-20148Y-18018D01*
X-20137Y-18001D01*
X-20125Y-17979D01*
X-20114Y-17957D01*
X-20103Y-17929D01*
X-20095Y-17898D01*
X-20084Y-17865D01*
X-20076Y-17829D01*
X-20067Y-17787D01*
X-20062Y-17746D01*
X-20056Y-17698D01*
Y-17648D01*
Y-17646D01*
Y-17637D01*
Y-17623D01*
X-20059Y-17607D01*
Y-17585D01*
X-20062Y-17560D01*
X-20070Y-17501D01*
X-20084Y-17440D01*
X-20106Y-17374D01*
X-20137Y-17312D01*
X-20153Y-17282D01*
X-20175Y-17257D01*
Y-17254D01*
X-20181Y-17251D01*
X-20198Y-17235D01*
X-20223Y-17215D01*
X-20256Y-17190D01*
X-20298Y-17165D01*
X-20348Y-17143D01*
X-20403Y-17129D01*
X-20434Y-17126D01*
X-20467Y-17124D01*
D02*
G37*
G36*
X24154Y-16660D02*
X23604D01*
Y-17346D01*
X24121D01*
X24140Y-17343D01*
X24160D01*
X24182Y-17340D01*
X24234Y-17335D01*
X24293Y-17324D01*
X24351Y-17307D01*
X24404Y-17285D01*
X24429Y-17271D01*
X24448Y-17254D01*
X24454Y-17249D01*
X24465Y-17238D01*
X24482Y-17215D01*
X24501Y-17188D01*
X24520Y-17151D01*
X24537Y-17107D01*
X24548Y-17057D01*
X24554Y-16999D01*
Y-16996D01*
Y-16993D01*
Y-16979D01*
X24551Y-16954D01*
X24545Y-16927D01*
X24540Y-16896D01*
X24529Y-16860D01*
X24512Y-16827D01*
X24493Y-16793D01*
X24490Y-16791D01*
X24482Y-16779D01*
X24468Y-16766D01*
X24451Y-16746D01*
X24426Y-16727D01*
X24398Y-16710D01*
X24368Y-16693D01*
X24332Y-16680D01*
X24329D01*
X24318Y-16677D01*
X24301Y-16674D01*
X24279Y-16668D01*
X24246Y-16666D01*
X24204Y-16663D01*
X24154Y-16660D01*
D02*
G37*
%LPD*%
D10*
X5680Y11090D02*
D03*
Y12490D02*
D03*
X5100Y27700D02*
D03*
X5100Y26300D02*
D03*
X6521Y27700D02*
D03*
X6521Y26300D02*
D03*
X8343Y31180D02*
D03*
X8343Y32580D02*
D03*
X13017Y35800D02*
D03*
X13017Y37200D02*
D03*
X8500Y12500D02*
D03*
X8500Y11100D02*
D03*
X5200Y23400D02*
D03*
Y24800D02*
D03*
X3960Y23400D02*
D03*
Y24800D02*
D03*
X7100Y12500D02*
D03*
X7100Y11100D02*
D03*
D11*
X13200Y13075D02*
D03*
X14600Y13075D02*
D03*
D12*
X0Y0D02*
X18540D01*
Y50290D01*
X0D02*
X18540D01*
X0Y0D02*
Y50290D01*
D13*
X12297Y2032D02*
D03*
X6397D02*
D03*
D14*
X10450Y25050D02*
D03*
X11400D02*
D03*
X12350D02*
D03*
Y27250D02*
D03*
X10450D02*
D03*
D15*
X7240Y36170D02*
D03*
Y35270D02*
D03*
X14300Y40250D02*
D03*
Y39350D02*
D03*
X13260Y41940D02*
D03*
Y41040D02*
D03*
X14313Y41060D02*
D03*
Y41960D02*
D03*
X11700Y44750D02*
D03*
Y43850D02*
D03*
X12800D02*
D03*
Y44750D02*
D03*
X6000Y32250D02*
D03*
Y31350D02*
D03*
X7100Y32250D02*
D03*
Y31350D02*
D03*
X10643Y31450D02*
D03*
Y32350D02*
D03*
X11800Y32050D02*
D03*
Y31150D02*
D03*
X13000Y31950D02*
D03*
Y32850D02*
D03*
X14600Y34650D02*
D03*
Y33750D02*
D03*
X13017Y33700D02*
D03*
Y34600D02*
D03*
X6600Y24250D02*
D03*
Y25150D02*
D03*
D16*
X9500Y41402D02*
D03*
X11700Y42352D02*
D03*
Y40452D02*
D03*
D17*
X1155Y48363D02*
D03*
X2655Y45363D02*
D03*
X1155D02*
D03*
X2655Y48363D02*
D03*
D18*
X5100Y44300D02*
D03*
X6600D02*
D03*
D19*
X14326Y3112D02*
D03*
Y1612D02*
D03*
X4369D02*
D03*
Y3112D02*
D03*
D20*
X7597Y16244D02*
D03*
X8097D02*
D03*
X8597D02*
D03*
X9097D02*
D03*
X9597D02*
D03*
X10097D02*
D03*
X10597D02*
D03*
X11097D02*
D03*
Y21094D02*
D03*
X10597D02*
D03*
X10097D02*
D03*
X9597D02*
D03*
X9097D02*
D03*
X8597D02*
D03*
X8097D02*
D03*
X7597D02*
D03*
D21*
X11772Y16919D02*
D03*
Y17419D02*
D03*
Y17919D02*
D03*
Y18419D02*
D03*
Y18919D02*
D03*
Y19419D02*
D03*
Y19919D02*
D03*
Y20419D02*
D03*
X6922D02*
D03*
Y19919D02*
D03*
Y19419D02*
D03*
Y18919D02*
D03*
Y18419D02*
D03*
Y17919D02*
D03*
Y17419D02*
D03*
Y16919D02*
D03*
D22*
X9347Y18669D02*
D03*
D23*
X6547Y14419D02*
D03*
X7347D02*
D03*
X8147D02*
D03*
X8947D02*
D03*
X9747D02*
D03*
X10547D02*
D03*
X11347D02*
D03*
X12147D02*
D03*
Y22919D02*
D03*
X11347D02*
D03*
X10547D02*
D03*
X9747D02*
D03*
X8947D02*
D03*
X8147D02*
D03*
X7347D02*
D03*
X6547D02*
D03*
D24*
X13597Y15869D02*
D03*
Y17469D02*
D03*
Y16669D02*
D03*
Y18269D02*
D03*
Y19069D02*
D03*
Y19869D02*
D03*
Y20669D02*
D03*
Y21469D02*
D03*
X5097D02*
D03*
Y20669D02*
D03*
Y19869D02*
D03*
Y19069D02*
D03*
Y18269D02*
D03*
Y17469D02*
D03*
Y16669D02*
D03*
Y15869D02*
D03*
D25*
X13500Y9090D02*
D03*
D26*
X12550Y10390D02*
D03*
X13500D02*
D03*
X14450D02*
D03*
Y7790D02*
D03*
X13500D02*
D03*
X12550D02*
D03*
D27*
X6387Y4600D02*
D03*
X7012D02*
D03*
D28*
X14400Y32570D02*
D03*
Y30430D02*
D03*
D29*
X6550Y9200D02*
D03*
X9050D02*
D03*
D30*
X8017Y48842D02*
D03*
X10017D02*
D03*
D31*
X7717Y46142D02*
D03*
X8367D02*
D03*
X9017D02*
D03*
X9667D02*
D03*
X10317D02*
D03*
D32*
X8190Y36150D02*
D03*
Y35250D02*
D03*
X11100Y8000D02*
D03*
Y7100D02*
D03*
X8900Y27900D02*
D03*
Y27000D02*
D03*
Y25850D02*
D03*
Y24950D02*
D03*
X13926Y25798D02*
D03*
Y26698D02*
D03*
X13900Y23682D02*
D03*
Y24582D02*
D03*
X9400Y32150D02*
D03*
Y31250D02*
D03*
X13000Y31084D02*
D03*
Y30184D02*
D03*
X8300Y29830D02*
D03*
Y28930D02*
D03*
X11800Y38250D02*
D03*
Y37350D02*
D03*
D33*
X6350Y43100D02*
D03*
X5450D02*
D03*
D34*
X11020Y11190D02*
D03*
X11920D02*
D03*
Y12060D02*
D03*
X11020D02*
D03*
X10850Y6000D02*
D03*
X9950D02*
D03*
X11400Y28600D02*
D03*
X12300D02*
D03*
X5550Y36100D02*
D03*
X4650D02*
D03*
X13750Y11900D02*
D03*
X14650D02*
D03*
X8250Y7600D02*
D03*
X9150D02*
D03*
X7371D02*
D03*
X6471D02*
D03*
X7250Y5500D02*
D03*
X6350D02*
D03*
M02*
