G04*
G04 #@! TF.GenerationSoftware,Altium Limited,Altium Designer,18.1.9 (240)*
G04*
G04 Layer_Color=128*
%FSLAX43Y43*%
%MOMM*%
G71*
G01*
G75*
%ADD10R,1.000X0.640*%
%ADD11R,0.640X1.000*%
%ADD12C,0.100*%
%ADD14R,0.600X1.300*%
%ADD15R,0.700X0.510*%
%ADD16R,1.400X1.000*%
%ADD28R,0.540X1.060*%
%ADD32R,0.560X0.510*%
%ADD33R,0.510X0.700*%
%ADD34R,0.510X0.560*%
%ADD35R,3.500X1.650*%
%ADD36R,1.500X1.650*%
%ADD37R,1.200X0.300*%
%ADD38R,0.300X1.200*%
%ADD39R,0.300X0.990*%
%ADD40R,1.400X1.640*%
%ADD41R,1.500X2.700*%
%ADD42R,0.900X1.400*%
G36*
X6205Y-16437D02*
X6302Y-16451D01*
X6346Y-16459D01*
X6388Y-16470D01*
X6427Y-16478D01*
X6463Y-16489D01*
X6496Y-16501D01*
X6524Y-16512D01*
X6549Y-16523D01*
X6571Y-16531D01*
X6588Y-16539D01*
X6599Y-16545D01*
X6607Y-16548D01*
X6610Y-16550D01*
X6649Y-16575D01*
X6688Y-16600D01*
X6754Y-16659D01*
X6813Y-16717D01*
X6860Y-16778D01*
X6899Y-16831D01*
X6912Y-16853D01*
X6924Y-16875D01*
X6935Y-16892D01*
X6940Y-16903D01*
X6943Y-16911D01*
X6946Y-16914D01*
X6985Y-17006D01*
X7012Y-17097D01*
X7035Y-17186D01*
X7040Y-17228D01*
X7048Y-17267D01*
X7051Y-17303D01*
X7057Y-17333D01*
X7060Y-17364D01*
Y-17389D01*
X7062Y-17408D01*
Y-17422D01*
Y-17433D01*
Y-17436D01*
X7057Y-17539D01*
X7043Y-17636D01*
X7035Y-17680D01*
X7026Y-17722D01*
X7015Y-17764D01*
X7004Y-17800D01*
X6993Y-17833D01*
X6982Y-17861D01*
X6974Y-17889D01*
X6965Y-17908D01*
X6957Y-17927D01*
X6951Y-17939D01*
X6946Y-17947D01*
Y-17950D01*
X6896Y-18030D01*
X6840Y-18100D01*
X6782Y-18161D01*
X6726Y-18211D01*
X6674Y-18250D01*
X6654Y-18263D01*
X6635Y-18277D01*
X6618Y-18286D01*
X6607Y-18294D01*
X6599Y-18297D01*
X6596Y-18299D01*
X6552Y-18322D01*
X6507Y-18338D01*
X6418Y-18369D01*
X6332Y-18388D01*
X6252Y-18405D01*
X6216Y-18408D01*
X6182Y-18413D01*
X6152Y-18416D01*
X6127D01*
X6107Y-18419D01*
X6080D01*
X6002Y-18416D01*
X5927Y-18408D01*
X5857Y-18394D01*
X5796Y-18380D01*
X5771Y-18374D01*
X5746Y-18369D01*
X5724Y-18361D01*
X5705Y-18355D01*
X5691Y-18349D01*
X5680Y-18347D01*
X5674Y-18344D01*
X5671D01*
X5597Y-18313D01*
X5527Y-18277D01*
X5460Y-18238D01*
X5402Y-18202D01*
X5377Y-18186D01*
X5352Y-18169D01*
X5333Y-18155D01*
X5316Y-18144D01*
X5302Y-18133D01*
X5291Y-18125D01*
X5286Y-18122D01*
X5283Y-18119D01*
Y-17406D01*
X6099D01*
Y-17633D01*
X5533D01*
Y-17994D01*
X5566Y-18022D01*
X5605Y-18047D01*
X5647Y-18069D01*
X5685Y-18089D01*
X5719Y-18105D01*
X5749Y-18119D01*
X5760Y-18125D01*
X5766Y-18127D01*
X5771Y-18130D01*
X5774D01*
X5833Y-18150D01*
X5891Y-18166D01*
X5944Y-18177D01*
X5994Y-18183D01*
X6035Y-18188D01*
X6052D01*
X6068Y-18191D01*
X6096D01*
X6166Y-18188D01*
X6232Y-18177D01*
X6293Y-18163D01*
X6349Y-18150D01*
X6393Y-18133D01*
X6413Y-18127D01*
X6427Y-18122D01*
X6440Y-18116D01*
X6449Y-18111D01*
X6454Y-18108D01*
X6457D01*
X6515Y-18072D01*
X6568Y-18033D01*
X6613Y-17991D01*
X6649Y-17950D01*
X6679Y-17911D01*
X6699Y-17880D01*
X6707Y-17869D01*
X6710Y-17861D01*
X6715Y-17855D01*
Y-17853D01*
X6743Y-17783D01*
X6765Y-17711D01*
X6779Y-17639D01*
X6790Y-17569D01*
X6793Y-17539D01*
X6796Y-17511D01*
X6799Y-17483D01*
Y-17461D01*
X6801Y-17444D01*
Y-17431D01*
Y-17422D01*
Y-17419D01*
X6799Y-17342D01*
X6790Y-17272D01*
X6779Y-17206D01*
X6765Y-17147D01*
X6760Y-17122D01*
X6751Y-17100D01*
X6746Y-17081D01*
X6740Y-17064D01*
X6735Y-17050D01*
X6732Y-17042D01*
X6729Y-17036D01*
Y-17034D01*
X6710Y-16995D01*
X6690Y-16959D01*
X6671Y-16925D01*
X6651Y-16898D01*
X6635Y-16875D01*
X6621Y-16856D01*
X6610Y-16845D01*
X6607Y-16842D01*
X6577Y-16811D01*
X6543Y-16784D01*
X6507Y-16761D01*
X6474Y-16739D01*
X6446Y-16725D01*
X6424Y-16712D01*
X6407Y-16706D01*
X6402Y-16703D01*
X6352Y-16684D01*
X6302Y-16670D01*
X6249Y-16662D01*
X6202Y-16653D01*
X6160Y-16650D01*
X6143D01*
X6130Y-16648D01*
X6099D01*
X6046Y-16650D01*
X5996Y-16656D01*
X5952Y-16664D01*
X5913Y-16673D01*
X5880Y-16684D01*
X5855Y-16692D01*
X5841Y-16698D01*
X5835Y-16700D01*
X5794Y-16720D01*
X5758Y-16742D01*
X5724Y-16764D01*
X5699Y-16786D01*
X5680Y-16806D01*
X5663Y-16820D01*
X5655Y-16831D01*
X5652Y-16834D01*
X5627Y-16867D01*
X5608Y-16906D01*
X5588Y-16942D01*
X5572Y-16981D01*
X5560Y-17014D01*
X5552Y-17039D01*
X5549Y-17050D01*
X5547Y-17059D01*
X5544Y-17061D01*
Y-17064D01*
X5313Y-17003D01*
X5333Y-16934D01*
X5358Y-16873D01*
X5383Y-16817D01*
X5405Y-16773D01*
X5427Y-16736D01*
X5444Y-16712D01*
X5455Y-16695D01*
X5460Y-16689D01*
X5499Y-16645D01*
X5541Y-16609D01*
X5585Y-16575D01*
X5627Y-16548D01*
X5666Y-16528D01*
X5696Y-16512D01*
X5708Y-16506D01*
X5716Y-16503D01*
X5721Y-16501D01*
X5724D01*
X5788Y-16478D01*
X5855Y-16462D01*
X5916Y-16448D01*
X5974Y-16439D01*
X6027Y-16434D01*
X6049D01*
X6066Y-16431D01*
X6155D01*
X6205Y-16437D01*
D02*
G37*
G36*
X7706Y-18386D02*
X7437D01*
Y-18116D01*
X7706D01*
Y-18386D01*
D02*
G37*
G36*
X4919D02*
X4186D01*
X4120Y-18383D01*
X4061Y-18380D01*
X4009Y-18374D01*
X3964Y-18369D01*
X3928Y-18363D01*
X3900Y-18361D01*
X3884Y-18355D01*
X3878D01*
X3831Y-18341D01*
X3792Y-18327D01*
X3756Y-18311D01*
X3725Y-18294D01*
X3700Y-18283D01*
X3681Y-18272D01*
X3670Y-18263D01*
X3667Y-18261D01*
X3637Y-18236D01*
X3609Y-18205D01*
X3587Y-18175D01*
X3564Y-18147D01*
X3548Y-18119D01*
X3537Y-18100D01*
X3528Y-18086D01*
X3525Y-18080D01*
X3506Y-18036D01*
X3492Y-17991D01*
X3481Y-17950D01*
X3475Y-17911D01*
X3470Y-17878D01*
X3467Y-17850D01*
Y-17833D01*
Y-17830D01*
Y-17828D01*
X3470Y-17766D01*
X3481Y-17711D01*
X3498Y-17664D01*
X3514Y-17619D01*
X3531Y-17586D01*
X3548Y-17561D01*
X3559Y-17544D01*
X3562Y-17539D01*
X3600Y-17494D01*
X3642Y-17458D01*
X3689Y-17428D01*
X3731Y-17403D01*
X3770Y-17383D01*
X3803Y-17372D01*
X3814Y-17367D01*
X3823Y-17364D01*
X3828Y-17361D01*
X3831D01*
X3784Y-17333D01*
X3742Y-17306D01*
X3709Y-17275D01*
X3681Y-17247D01*
X3659Y-17225D01*
X3642Y-17203D01*
X3634Y-17192D01*
X3631Y-17186D01*
X3609Y-17145D01*
X3592Y-17106D01*
X3578Y-17067D01*
X3570Y-17031D01*
X3564Y-17000D01*
X3562Y-16975D01*
Y-16961D01*
Y-16956D01*
X3564Y-16909D01*
X3573Y-16861D01*
X3587Y-16820D01*
X3600Y-16781D01*
X3614Y-16748D01*
X3628Y-16725D01*
X3637Y-16709D01*
X3639Y-16703D01*
X3670Y-16662D01*
X3703Y-16623D01*
X3739Y-16592D01*
X3773Y-16567D01*
X3800Y-16548D01*
X3825Y-16534D01*
X3842Y-16525D01*
X3845Y-16523D01*
X3848D01*
X3900Y-16503D01*
X3959Y-16489D01*
X4017Y-16478D01*
X4072Y-16473D01*
X4122Y-16467D01*
X4145D01*
X4164Y-16464D01*
X4919D01*
Y-18386D01*
D02*
G37*
G36*
X3117D02*
X2862D01*
Y-17605D01*
X2371D01*
X2298Y-17603D01*
X2229Y-17597D01*
X2168Y-17589D01*
X2112Y-17578D01*
X2060Y-17567D01*
X2015Y-17553D01*
X1974Y-17536D01*
X1937Y-17519D01*
X1907Y-17506D01*
X1879Y-17489D01*
X1857Y-17475D01*
X1840Y-17461D01*
X1826Y-17453D01*
X1818Y-17444D01*
X1813Y-17439D01*
X1810Y-17436D01*
X1782Y-17403D01*
X1757Y-17369D01*
X1738Y-17336D01*
X1718Y-17300D01*
X1701Y-17264D01*
X1690Y-17231D01*
X1671Y-17167D01*
X1665Y-17136D01*
X1660Y-17109D01*
X1657Y-17084D01*
X1654Y-17064D01*
X1652Y-17045D01*
Y-17034D01*
Y-17025D01*
Y-17022D01*
X1654Y-16970D01*
X1660Y-16920D01*
X1671Y-16875D01*
X1679Y-16836D01*
X1690Y-16803D01*
X1701Y-16778D01*
X1707Y-16764D01*
X1710Y-16759D01*
X1732Y-16717D01*
X1760Y-16681D01*
X1785Y-16648D01*
X1810Y-16623D01*
X1832Y-16603D01*
X1849Y-16587D01*
X1860Y-16578D01*
X1865Y-16575D01*
X1901Y-16553D01*
X1943Y-16534D01*
X1982Y-16517D01*
X2018Y-16503D01*
X2051Y-16495D01*
X2076Y-16489D01*
X2096Y-16484D01*
X2101D01*
X2143Y-16478D01*
X2190Y-16473D01*
X2240Y-16470D01*
X2287Y-16467D01*
X2329Y-16464D01*
X3117D01*
Y-18386D01*
D02*
G37*
G36*
X42188Y-16964D02*
X42235Y-16972D01*
X42277Y-16981D01*
X42313Y-16992D01*
X42344Y-17006D01*
X42366Y-17014D01*
X42380Y-17022D01*
X42385Y-17025D01*
X42424Y-17050D01*
X42457Y-17078D01*
X42488Y-17106D01*
X42513Y-17133D01*
X42532Y-17156D01*
X42549Y-17175D01*
X42557Y-17186D01*
X42560Y-17192D01*
Y-16992D01*
X42771D01*
Y-18386D01*
X42535D01*
Y-17664D01*
X42532Y-17597D01*
X42530Y-17539D01*
X42524Y-17489D01*
X42516Y-17447D01*
X42507Y-17417D01*
X42502Y-17394D01*
X42499Y-17381D01*
X42496Y-17375D01*
X42480Y-17339D01*
X42460Y-17308D01*
X42441Y-17281D01*
X42421Y-17258D01*
X42402Y-17242D01*
X42388Y-17231D01*
X42377Y-17222D01*
X42374Y-17220D01*
X42341Y-17203D01*
X42310Y-17189D01*
X42277Y-17181D01*
X42249Y-17172D01*
X42227Y-17170D01*
X42208Y-17167D01*
X42191D01*
X42144Y-17170D01*
X42105Y-17178D01*
X42072Y-17192D01*
X42047Y-17206D01*
X42027Y-17222D01*
X42013Y-17233D01*
X42005Y-17245D01*
X42002Y-17247D01*
X41983Y-17281D01*
X41969Y-17317D01*
X41958Y-17356D01*
X41952Y-17394D01*
X41947Y-17428D01*
X41944Y-17458D01*
Y-17469D01*
Y-17475D01*
Y-17481D01*
Y-17483D01*
Y-18386D01*
X41708Y-18386D01*
Y-17578D01*
X41702Y-17503D01*
X41691Y-17439D01*
X41677Y-17386D01*
X41658Y-17342D01*
X41641Y-17308D01*
X41625Y-17286D01*
X41613Y-17272D01*
X41611Y-17267D01*
X41572Y-17233D01*
X41530Y-17208D01*
X41489Y-17192D01*
X41450Y-17178D01*
X41416Y-17172D01*
X41389Y-17170D01*
X41378Y-17167D01*
X41364D01*
X41333Y-17170D01*
X41308Y-17172D01*
X41283Y-17178D01*
X41264Y-17186D01*
X41244Y-17195D01*
X41233Y-17200D01*
X41225Y-17203D01*
X41222Y-17206D01*
X41200Y-17222D01*
X41183Y-17239D01*
X41169Y-17256D01*
X41158Y-17272D01*
X41150Y-17286D01*
X41144Y-17297D01*
X41139Y-17306D01*
Y-17308D01*
X41130Y-17333D01*
X41125Y-17367D01*
X41122Y-17400D01*
X41119Y-17433D01*
X41117Y-17464D01*
Y-17489D01*
Y-17506D01*
Y-17508D01*
Y-17511D01*
Y-18386D01*
X40881D01*
Y-17431D01*
Y-17386D01*
X40886Y-17347D01*
X40892Y-17308D01*
X40897Y-17275D01*
X40906Y-17242D01*
X40917Y-17214D01*
X40925Y-17189D01*
X40936Y-17164D01*
X40947Y-17145D01*
X40956Y-17125D01*
X40975Y-17100D01*
X40986Y-17084D01*
X40992Y-17078D01*
X41036Y-17039D01*
X41089Y-17011D01*
X41142Y-16989D01*
X41192Y-16975D01*
X41239Y-16967D01*
X41258Y-16964D01*
X41278D01*
X41291Y-16961D01*
X41311D01*
X41361Y-16964D01*
X41405Y-16972D01*
X41450Y-16984D01*
X41491Y-17000D01*
X41530Y-17020D01*
X41566Y-17039D01*
X41597Y-17061D01*
X41627Y-17084D01*
X41655Y-17109D01*
X41677Y-17131D01*
X41697Y-17150D01*
X41713Y-17170D01*
X41727Y-17186D01*
X41736Y-17197D01*
X41741Y-17206D01*
X41744Y-17208D01*
X41761Y-17167D01*
X41783Y-17131D01*
X41808Y-17100D01*
X41830Y-17075D01*
X41852Y-17053D01*
X41869Y-17039D01*
X41880Y-17031D01*
X41886Y-17028D01*
X41924Y-17006D01*
X41966Y-16989D01*
X42008Y-16978D01*
X42049Y-16970D01*
X42083Y-16964D01*
X42113Y-16961D01*
X42138D01*
X42188Y-16964D01*
D02*
G37*
G36*
X37471Y-16964D02*
X37530Y-16970D01*
X37585Y-16978D01*
X37630Y-16986D01*
X37668Y-16995D01*
X37696Y-17003D01*
X37707Y-17006D01*
X37716Y-17009D01*
X37718Y-17011D01*
X37721D01*
X37768Y-17031D01*
X37810Y-17056D01*
X37846Y-17078D01*
X37877Y-17100D01*
X37899Y-17122D01*
X37916Y-17139D01*
X37927Y-17150D01*
X37929Y-17153D01*
X37954Y-17189D01*
X37977Y-17228D01*
X37993Y-17267D01*
X38007Y-17303D01*
X38018Y-17339D01*
X38027Y-17364D01*
X38029Y-17375D01*
Y-17383D01*
X38032Y-17386D01*
Y-17389D01*
X37802Y-17419D01*
X37785Y-17369D01*
X37768Y-17325D01*
X37749Y-17289D01*
X37732Y-17261D01*
X37716Y-17239D01*
X37702Y-17225D01*
X37691Y-17217D01*
X37688Y-17214D01*
X37655Y-17195D01*
X37616Y-17181D01*
X37574Y-17170D01*
X37535Y-17164D01*
X37496Y-17158D01*
X37469Y-17156D01*
X37441D01*
X37377Y-17158D01*
X37321Y-17167D01*
X37277Y-17181D01*
X37238Y-17195D01*
X37210Y-17211D01*
X37188Y-17222D01*
X37174Y-17233D01*
X37172Y-17236D01*
X37149Y-17261D01*
X37133Y-17292D01*
X37119Y-17325D01*
X37110Y-17358D01*
X37105Y-17389D01*
X37102Y-17417D01*
Y-17433D01*
Y-17436D01*
Y-17439D01*
Y-17444D01*
Y-17456D01*
Y-17475D01*
X37105Y-17492D01*
Y-17497D01*
Y-17500D01*
X37133Y-17508D01*
X37163Y-17517D01*
X37227Y-17533D01*
X37299Y-17547D01*
X37366Y-17561D01*
X37399Y-17567D01*
X37430Y-17569D01*
X37458Y-17575D01*
X37480Y-17578D01*
X37499Y-17580D01*
X37513D01*
X37524Y-17583D01*
X37527D01*
X37577Y-17589D01*
X37619Y-17597D01*
X37655Y-17603D01*
X37682Y-17608D01*
X37705Y-17611D01*
X37721Y-17617D01*
X37732Y-17619D01*
X37735D01*
X37771Y-17630D01*
X37802Y-17642D01*
X37832Y-17655D01*
X37857Y-17667D01*
X37879Y-17678D01*
X37893Y-17689D01*
X37904Y-17694D01*
X37907Y-17697D01*
X37935Y-17716D01*
X37957Y-17739D01*
X37979Y-17761D01*
X37996Y-17783D01*
X38010Y-17803D01*
X38021Y-17819D01*
X38027Y-17830D01*
X38029Y-17833D01*
X38043Y-17864D01*
X38054Y-17897D01*
X38063Y-17927D01*
X38068Y-17958D01*
X38071Y-17983D01*
X38074Y-18002D01*
Y-18014D01*
Y-18019D01*
X38071Y-18052D01*
X38068Y-18080D01*
X38054Y-18138D01*
X38035Y-18186D01*
X38013Y-18227D01*
X37991Y-18261D01*
X37971Y-18286D01*
X37957Y-18300D01*
X37952Y-18305D01*
X37902Y-18341D01*
X37846Y-18369D01*
X37785Y-18388D01*
X37730Y-18402D01*
X37680Y-18411D01*
X37657Y-18413D01*
X37638D01*
X37621Y-18416D01*
X37599D01*
X37549Y-18413D01*
X37499Y-18408D01*
X37455Y-18402D01*
X37416Y-18394D01*
X37385Y-18386D01*
X37360Y-18377D01*
X37344Y-18374D01*
X37338Y-18372D01*
X37291Y-18352D01*
X37247Y-18327D01*
X37205Y-18300D01*
X37163Y-18275D01*
X37130Y-18250D01*
X37105Y-18230D01*
X37088Y-18216D01*
X37085Y-18211D01*
X37083D01*
X37077Y-18247D01*
X37072Y-18280D01*
X37066Y-18311D01*
X37058Y-18336D01*
X37049Y-18358D01*
X37044Y-18372D01*
X37041Y-18383D01*
X37038Y-18386D01*
X36791D01*
X36805Y-18355D01*
X36819Y-18324D01*
X36830Y-18297D01*
X36836Y-18272D01*
X36844Y-18250D01*
X36847Y-18233D01*
X36850Y-18222D01*
Y-18219D01*
X36852Y-18200D01*
X36855Y-18175D01*
Y-18147D01*
X36858Y-18116D01*
X36861Y-18047D01*
Y-17977D01*
X36863Y-17911D01*
Y-17880D01*
Y-17855D01*
Y-17833D01*
Y-17816D01*
Y-17805D01*
Y-17803D01*
Y-17486D01*
Y-17433D01*
X36866Y-17386D01*
X36869Y-17350D01*
Y-17319D01*
X36872Y-17297D01*
X36874Y-17281D01*
X36877Y-17272D01*
Y-17270D01*
X36886Y-17233D01*
X36897Y-17203D01*
X36908Y-17178D01*
X36922Y-17153D01*
X36933Y-17136D01*
X36941Y-17122D01*
X36947Y-17114D01*
X36949Y-17111D01*
X36972Y-17089D01*
X36997Y-17067D01*
X37024Y-17050D01*
X37052Y-17034D01*
X37077Y-17022D01*
X37097Y-17014D01*
X37110Y-17009D01*
X37116Y-17006D01*
X37160Y-16992D01*
X37208Y-16981D01*
X37255Y-16972D01*
X37302Y-16967D01*
X37344Y-16964D01*
X37374Y-16961D01*
X37405D01*
X37471Y-16964D01*
D02*
G37*
G36*
X45717Y-16648D02*
Y-16992D01*
X45892D01*
Y-17175D01*
X45717D01*
Y-17980D01*
Y-18019D01*
Y-18052D01*
X45714Y-18083D01*
X45711Y-18114D01*
Y-18138D01*
X45708Y-18161D01*
X45703Y-18197D01*
X45697Y-18225D01*
X45695Y-18244D01*
X45689Y-18255D01*
Y-18258D01*
X45678Y-18283D01*
X45661Y-18302D01*
X45645Y-18322D01*
X45631Y-18336D01*
X45614Y-18349D01*
X45603Y-18358D01*
X45595Y-18363D01*
X45592Y-18366D01*
X45561Y-18380D01*
X45531Y-18388D01*
X45497Y-18397D01*
X45464Y-18399D01*
X45436Y-18402D01*
X45414Y-18405D01*
X45392D01*
X45331Y-18402D01*
X45300Y-18399D01*
X45273Y-18394D01*
X45248Y-18391D01*
X45228Y-18388D01*
X45217Y-18386D01*
X45211D01*
X45242Y-18177D01*
X45264Y-18180D01*
X45286Y-18183D01*
X45306D01*
X45320Y-18186D01*
X45348D01*
X45384Y-18183D01*
X45409Y-18177D01*
X45422Y-18172D01*
X45428Y-18169D01*
X45447Y-18155D01*
X45459Y-18141D01*
X45467Y-18130D01*
X45470Y-18125D01*
X45472Y-18111D01*
X45475Y-18091D01*
X45478Y-18047D01*
X45481Y-18027D01*
Y-18011D01*
Y-18000D01*
Y-17994D01*
Y-17175D01*
X45242D01*
Y-16992D01*
X45481D01*
Y-16506D01*
X45717Y-16648D01*
D02*
G37*
G36*
X44970D02*
Y-16992D01*
X45145D01*
Y-17175D01*
X44970D01*
Y-17980D01*
Y-18019D01*
Y-18052D01*
X44967Y-18083D01*
X44964Y-18114D01*
Y-18138D01*
X44962Y-18161D01*
X44956Y-18197D01*
X44951Y-18225D01*
X44948Y-18244D01*
X44942Y-18255D01*
Y-18258D01*
X44931Y-18283D01*
X44914Y-18302D01*
X44898Y-18322D01*
X44884Y-18336D01*
X44867Y-18349D01*
X44856Y-18358D01*
X44848Y-18363D01*
X44845Y-18366D01*
X44814Y-18380D01*
X44784Y-18388D01*
X44751Y-18397D01*
X44717Y-18399D01*
X44690Y-18402D01*
X44667Y-18405D01*
X44645D01*
X44584Y-18402D01*
X44554Y-18399D01*
X44526Y-18394D01*
X44501Y-18391D01*
X44481Y-18388D01*
X44470Y-18386D01*
X44465D01*
X44495Y-18177D01*
X44517Y-18180D01*
X44540Y-18183D01*
X44559D01*
X44573Y-18186D01*
X44601D01*
X44637Y-18183D01*
X44662Y-18177D01*
X44676Y-18172D01*
X44681Y-18169D01*
X44701Y-18155D01*
X44712Y-18141D01*
X44720Y-18130D01*
X44723Y-18125D01*
X44726Y-18111D01*
X44728Y-18091D01*
X44731Y-18047D01*
X44734Y-18027D01*
Y-18011D01*
Y-18000D01*
Y-17994D01*
Y-17175D01*
X44495D01*
Y-16992D01*
X44734D01*
Y-16506D01*
X44970Y-16648D01*
D02*
G37*
G36*
X35117Y-16648D02*
Y-16992D01*
X35292D01*
Y-17175D01*
X35117D01*
Y-17980D01*
Y-18019D01*
Y-18052D01*
X35114Y-18083D01*
X35112Y-18114D01*
Y-18138D01*
X35109Y-18161D01*
X35103Y-18197D01*
X35098Y-18225D01*
X35095Y-18244D01*
X35089Y-18255D01*
Y-18258D01*
X35078Y-18283D01*
X35062Y-18302D01*
X35045Y-18322D01*
X35031Y-18336D01*
X35014Y-18349D01*
X35003Y-18358D01*
X34995Y-18363D01*
X34992Y-18366D01*
X34962Y-18380D01*
X34931Y-18388D01*
X34898Y-18397D01*
X34865Y-18399D01*
X34837Y-18402D01*
X34815Y-18405D01*
X34792D01*
X34731Y-18402D01*
X34701Y-18399D01*
X34673Y-18394D01*
X34648Y-18391D01*
X34629Y-18388D01*
X34617Y-18386D01*
X34612D01*
X34642Y-18177D01*
X34665Y-18180D01*
X34687Y-18183D01*
X34706D01*
X34720Y-18186D01*
X34748D01*
X34784Y-18183D01*
X34809Y-18177D01*
X34823Y-18172D01*
X34828Y-18169D01*
X34848Y-18155D01*
X34859Y-18141D01*
X34867Y-18130D01*
X34870Y-18125D01*
X34873Y-18111D01*
X34876Y-18091D01*
X34878Y-18047D01*
X34881Y-18027D01*
Y-18011D01*
Y-18000D01*
Y-17994D01*
Y-17175D01*
X34642D01*
Y-16992D01*
X34881D01*
Y-16506D01*
X35117Y-16648D01*
D02*
G37*
G36*
X33893Y-16964D02*
X33943Y-16970D01*
X33990Y-16978D01*
X34034Y-16992D01*
X34076Y-17006D01*
X34115Y-17022D01*
X34151Y-17039D01*
X34182Y-17059D01*
X34212Y-17075D01*
X34237Y-17095D01*
X34259Y-17111D01*
X34276Y-17125D01*
X34290Y-17139D01*
X34301Y-17147D01*
X34306Y-17153D01*
X34309Y-17156D01*
X34340Y-17195D01*
X34368Y-17236D01*
X34393Y-17278D01*
X34415Y-17322D01*
X34431Y-17369D01*
X34445Y-17414D01*
X34468Y-17503D01*
X34476Y-17542D01*
X34481Y-17580D01*
X34484Y-17614D01*
X34487Y-17644D01*
X34490Y-17669D01*
Y-17686D01*
Y-17700D01*
Y-17703D01*
X34487Y-17764D01*
X34481Y-17822D01*
X34473Y-17878D01*
X34462Y-17927D01*
X34448Y-17975D01*
X34434Y-18019D01*
X34418Y-18058D01*
X34401Y-18094D01*
X34384Y-18125D01*
X34368Y-18152D01*
X34354Y-18175D01*
X34340Y-18194D01*
X34329Y-18211D01*
X34320Y-18222D01*
X34315Y-18227D01*
X34312Y-18230D01*
X34276Y-18263D01*
X34240Y-18291D01*
X34201Y-18316D01*
X34159Y-18338D01*
X34120Y-18355D01*
X34079Y-18372D01*
X34001Y-18394D01*
X33965Y-18399D01*
X33932Y-18405D01*
X33901Y-18411D01*
X33876Y-18413D01*
X33857Y-18416D01*
X33826D01*
X33740Y-18411D01*
X33662Y-18397D01*
X33593Y-18380D01*
X33565Y-18369D01*
X33537Y-18358D01*
X33512Y-18347D01*
X33490Y-18336D01*
X33474Y-18327D01*
X33457Y-18319D01*
X33446Y-18311D01*
X33438Y-18305D01*
X33432Y-18300D01*
X33429D01*
X33374Y-18250D01*
X33329Y-18197D01*
X33290Y-18141D01*
X33263Y-18089D01*
X33240Y-18041D01*
X33232Y-18019D01*
X33224Y-18002D01*
X33218Y-17986D01*
X33215Y-17975D01*
X33213Y-17969D01*
Y-17966D01*
X33457Y-17936D01*
X33479Y-17989D01*
X33504Y-18033D01*
X33529Y-18072D01*
X33551Y-18102D01*
X33571Y-18125D01*
X33587Y-18141D01*
X33601Y-18152D01*
X33604Y-18155D01*
X33640Y-18177D01*
X33676Y-18194D01*
X33715Y-18205D01*
X33748Y-18213D01*
X33779Y-18219D01*
X33804Y-18222D01*
X33826D01*
X33860Y-18219D01*
X33890Y-18216D01*
X33946Y-18202D01*
X33996Y-18183D01*
X34040Y-18161D01*
X34073Y-18141D01*
X34098Y-18122D01*
X34115Y-18108D01*
X34118Y-18102D01*
X34120D01*
X34159Y-18052D01*
X34190Y-17997D01*
X34212Y-17936D01*
X34229Y-17880D01*
X34237Y-17830D01*
X34243Y-17808D01*
X34245Y-17789D01*
Y-17772D01*
X34248Y-17761D01*
Y-17753D01*
Y-17750D01*
X33207D01*
X33204Y-17722D01*
Y-17703D01*
Y-17692D01*
Y-17689D01*
X33207Y-17625D01*
X33213Y-17567D01*
X33221Y-17511D01*
X33232Y-17458D01*
X33246Y-17411D01*
X33260Y-17367D01*
X33277Y-17328D01*
X33293Y-17292D01*
X33310Y-17258D01*
X33326Y-17231D01*
X33340Y-17208D01*
X33354Y-17189D01*
X33365Y-17172D01*
X33374Y-17161D01*
X33379Y-17156D01*
X33382Y-17153D01*
X33415Y-17120D01*
X33451Y-17089D01*
X33490Y-17064D01*
X33529Y-17042D01*
X33568Y-17022D01*
X33604Y-17009D01*
X33643Y-16995D01*
X33676Y-16986D01*
X33712Y-16978D01*
X33743Y-16972D01*
X33771Y-16967D01*
X33793Y-16964D01*
X33812Y-16961D01*
X33840D01*
X33893Y-16964D01*
D02*
G37*
G36*
X49020Y-18386D02*
X48288D01*
X48221Y-18383D01*
X48163Y-18380D01*
X48110Y-18374D01*
X48065Y-18369D01*
X48029Y-18363D01*
X48002Y-18361D01*
X47985Y-18355D01*
X47979D01*
X47932Y-18341D01*
X47893Y-18327D01*
X47857Y-18311D01*
X47827Y-18294D01*
X47802Y-18283D01*
X47782Y-18272D01*
X47771Y-18263D01*
X47768Y-18261D01*
X47738Y-18236D01*
X47710Y-18205D01*
X47688Y-18175D01*
X47666Y-18147D01*
X47649Y-18119D01*
X47638Y-18100D01*
X47630Y-18086D01*
X47627Y-18080D01*
X47607Y-18036D01*
X47593Y-17991D01*
X47582Y-17950D01*
X47577Y-17911D01*
X47571Y-17878D01*
X47568Y-17850D01*
Y-17833D01*
Y-17830D01*
Y-17828D01*
X47571Y-17766D01*
X47582Y-17711D01*
X47599Y-17664D01*
X47616Y-17619D01*
X47632Y-17586D01*
X47649Y-17561D01*
X47660Y-17544D01*
X47663Y-17539D01*
X47702Y-17494D01*
X47743Y-17458D01*
X47791Y-17428D01*
X47832Y-17403D01*
X47871Y-17383D01*
X47904Y-17372D01*
X47916Y-17367D01*
X47924Y-17364D01*
X47929Y-17361D01*
X47932D01*
X47885Y-17333D01*
X47843Y-17306D01*
X47810Y-17275D01*
X47782Y-17247D01*
X47760Y-17225D01*
X47743Y-17203D01*
X47735Y-17192D01*
X47732Y-17186D01*
X47710Y-17145D01*
X47693Y-17106D01*
X47680Y-17067D01*
X47671Y-17031D01*
X47666Y-17000D01*
X47663Y-16975D01*
Y-16961D01*
Y-16956D01*
X47666Y-16909D01*
X47674Y-16861D01*
X47688Y-16820D01*
X47702Y-16781D01*
X47716Y-16748D01*
X47730Y-16725D01*
X47738Y-16709D01*
X47741Y-16703D01*
X47771Y-16662D01*
X47804Y-16623D01*
X47841Y-16592D01*
X47874Y-16567D01*
X47902Y-16548D01*
X47927Y-16534D01*
X47943Y-16525D01*
X47946Y-16523D01*
X47949D01*
X48002Y-16503D01*
X48060Y-16489D01*
X48118Y-16478D01*
X48174Y-16473D01*
X48224Y-16467D01*
X48246D01*
X48265Y-16464D01*
X49020D01*
Y-18386D01*
D02*
G37*
G36*
X39753Y-18386D02*
X39498D01*
Y-17605D01*
X39007D01*
X38934Y-17603D01*
X38865Y-17597D01*
X38804Y-17589D01*
X38748Y-17578D01*
X38696Y-17567D01*
X38651Y-17553D01*
X38610Y-17536D01*
X38574Y-17519D01*
X38543Y-17506D01*
X38515Y-17489D01*
X38493Y-17475D01*
X38476Y-17461D01*
X38462Y-17453D01*
X38454Y-17444D01*
X38449Y-17439D01*
X38446Y-17436D01*
X38418Y-17403D01*
X38393Y-17369D01*
X38374Y-17336D01*
X38354Y-17300D01*
X38338Y-17264D01*
X38326Y-17231D01*
X38307Y-17167D01*
X38301Y-17136D01*
X38296Y-17109D01*
X38293Y-17084D01*
X38290Y-17064D01*
X38288Y-17045D01*
Y-17034D01*
Y-17025D01*
Y-17022D01*
X38290Y-16970D01*
X38296Y-16920D01*
X38307Y-16875D01*
X38315Y-16836D01*
X38326Y-16803D01*
X38338Y-16778D01*
X38343Y-16764D01*
X38346Y-16759D01*
X38368Y-16717D01*
X38396Y-16681D01*
X38421Y-16648D01*
X38446Y-16623D01*
X38468Y-16603D01*
X38485Y-16587D01*
X38496Y-16578D01*
X38501Y-16575D01*
X38537Y-16553D01*
X38579Y-16534D01*
X38618Y-16517D01*
X38654Y-16503D01*
X38687Y-16495D01*
X38712Y-16489D01*
X38732Y-16484D01*
X38737D01*
X38779Y-16478D01*
X38826Y-16473D01*
X38876Y-16470D01*
X38923Y-16467D01*
X38965Y-16464D01*
X39753D01*
Y-18386D01*
D02*
G37*
G36*
X46733Y-16964D02*
X46777Y-16967D01*
X46863Y-16986D01*
X46938Y-17011D01*
X46972Y-17025D01*
X47002Y-17039D01*
X47030Y-17053D01*
X47052Y-17067D01*
X47074Y-17081D01*
X47091Y-17092D01*
X47105Y-17103D01*
X47116Y-17111D01*
X47122Y-17114D01*
X47124Y-17117D01*
X47163Y-17153D01*
X47194Y-17195D01*
X47224Y-17239D01*
X47246Y-17283D01*
X47269Y-17331D01*
X47285Y-17381D01*
X47299Y-17428D01*
X47310Y-17472D01*
X47321Y-17517D01*
X47327Y-17555D01*
X47333Y-17594D01*
X47335Y-17625D01*
Y-17653D01*
X47338Y-17672D01*
Y-17683D01*
Y-17689D01*
X47335Y-17753D01*
X47330Y-17814D01*
X47321Y-17869D01*
X47310Y-17922D01*
X47296Y-17969D01*
X47283Y-18014D01*
X47266Y-18055D01*
X47249Y-18091D01*
X47233Y-18125D01*
X47216Y-18152D01*
X47202Y-18175D01*
X47188Y-18194D01*
X47177Y-18211D01*
X47169Y-18222D01*
X47163Y-18227D01*
X47160Y-18230D01*
X47124Y-18263D01*
X47088Y-18291D01*
X47049Y-18316D01*
X47010Y-18338D01*
X46972Y-18355D01*
X46930Y-18372D01*
X46855Y-18394D01*
X46822Y-18399D01*
X46788Y-18405D01*
X46761Y-18411D01*
X46736Y-18413D01*
X46713Y-18416D01*
X46686D01*
X46619Y-18413D01*
X46558Y-18402D01*
X46500Y-18388D01*
X46452Y-18374D01*
X46411Y-18358D01*
X46394Y-18352D01*
X46380Y-18347D01*
X46366Y-18341D01*
X46358Y-18336D01*
X46355Y-18333D01*
X46353D01*
X46297Y-18297D01*
X46250Y-18258D01*
X46208Y-18219D01*
X46175Y-18180D01*
X46150Y-18147D01*
X46130Y-18119D01*
X46125Y-18108D01*
X46119Y-18100D01*
X46117Y-18097D01*
Y-18094D01*
X46089Y-18030D01*
X46069Y-17961D01*
X46053Y-17891D01*
X46044Y-17822D01*
X46039Y-17791D01*
Y-17764D01*
X46036Y-17736D01*
X46033Y-17714D01*
Y-17694D01*
Y-17680D01*
Y-17672D01*
Y-17669D01*
X46036Y-17608D01*
X46042Y-17553D01*
X46050Y-17500D01*
X46061Y-17450D01*
X46075Y-17403D01*
X46092Y-17361D01*
X46108Y-17319D01*
X46125Y-17286D01*
X46142Y-17256D01*
X46158Y-17228D01*
X46175Y-17203D01*
X46189Y-17183D01*
X46200Y-17170D01*
X46208Y-17158D01*
X46214Y-17153D01*
X46216Y-17150D01*
X46253Y-17117D01*
X46289Y-17089D01*
X46328Y-17061D01*
X46366Y-17042D01*
X46405Y-17022D01*
X46444Y-17009D01*
X46519Y-16984D01*
X46555Y-16978D01*
X46586Y-16972D01*
X46613Y-16967D01*
X46638Y-16964D01*
X46658Y-16961D01*
X46686D01*
X46733Y-16964D01*
D02*
G37*
G36*
X43746D02*
X43790Y-16967D01*
X43876Y-16986D01*
X43951Y-17011D01*
X43984Y-17025D01*
X44015Y-17039D01*
X44043Y-17053D01*
X44065Y-17067D01*
X44087Y-17081D01*
X44104Y-17092D01*
X44118Y-17103D01*
X44129Y-17111D01*
X44134Y-17114D01*
X44137Y-17117D01*
X44176Y-17153D01*
X44206Y-17195D01*
X44237Y-17239D01*
X44259Y-17283D01*
X44281Y-17331D01*
X44298Y-17381D01*
X44312Y-17428D01*
X44323Y-17472D01*
X44334Y-17517D01*
X44340Y-17555D01*
X44345Y-17594D01*
X44348Y-17625D01*
Y-17653D01*
X44351Y-17672D01*
Y-17683D01*
Y-17689D01*
X44348Y-17753D01*
X44343Y-17814D01*
X44334Y-17869D01*
X44323Y-17922D01*
X44309Y-17969D01*
X44295Y-18014D01*
X44279Y-18055D01*
X44262Y-18091D01*
X44245Y-18125D01*
X44229Y-18152D01*
X44215Y-18175D01*
X44201Y-18194D01*
X44190Y-18211D01*
X44181Y-18222D01*
X44176Y-18227D01*
X44173Y-18230D01*
X44137Y-18263D01*
X44101Y-18291D01*
X44062Y-18316D01*
X44023Y-18338D01*
X43984Y-18355D01*
X43943Y-18372D01*
X43868Y-18394D01*
X43834Y-18399D01*
X43801Y-18405D01*
X43773Y-18411D01*
X43748Y-18413D01*
X43726Y-18416D01*
X43698D01*
X43632Y-18413D01*
X43571Y-18402D01*
X43512Y-18388D01*
X43465Y-18374D01*
X43424Y-18358D01*
X43407Y-18352D01*
X43393Y-18347D01*
X43379Y-18341D01*
X43371Y-18336D01*
X43368Y-18333D01*
X43365D01*
X43310Y-18297D01*
X43263Y-18258D01*
X43221Y-18219D01*
X43188Y-18180D01*
X43163Y-18147D01*
X43143Y-18119D01*
X43138Y-18108D01*
X43132Y-18100D01*
X43129Y-18097D01*
Y-18094D01*
X43102Y-18030D01*
X43082Y-17961D01*
X43065Y-17891D01*
X43057Y-17822D01*
X43052Y-17791D01*
Y-17764D01*
X43049Y-17736D01*
X43046Y-17714D01*
Y-17694D01*
Y-17680D01*
Y-17672D01*
Y-17669D01*
X43049Y-17608D01*
X43054Y-17553D01*
X43063Y-17500D01*
X43074Y-17450D01*
X43088Y-17403D01*
X43104Y-17361D01*
X43121Y-17319D01*
X43138Y-17286D01*
X43154Y-17256D01*
X43171Y-17228D01*
X43188Y-17203D01*
X43201Y-17183D01*
X43213Y-17170D01*
X43221Y-17158D01*
X43226Y-17153D01*
X43229Y-17150D01*
X43265Y-17117D01*
X43301Y-17089D01*
X43340Y-17061D01*
X43379Y-17042D01*
X43418Y-17022D01*
X43457Y-17009D01*
X43532Y-16984D01*
X43568Y-16978D01*
X43598Y-16972D01*
X43626Y-16967D01*
X43651Y-16964D01*
X43671Y-16961D01*
X43698D01*
X43746Y-16964D01*
D02*
G37*
G36*
X36122Y-16967D02*
X36155Y-16970D01*
X36186Y-16975D01*
X36211Y-16981D01*
X36230Y-16986D01*
X36242Y-16989D01*
X36247Y-16992D01*
X36280Y-17003D01*
X36311Y-17014D01*
X36336Y-17025D01*
X36358Y-17036D01*
X36375Y-17045D01*
X36386Y-17053D01*
X36394Y-17056D01*
X36397Y-17059D01*
X36425Y-17078D01*
X36447Y-17100D01*
X36466Y-17125D01*
X36483Y-17145D01*
X36497Y-17164D01*
X36505Y-17178D01*
X36511Y-17189D01*
X36514Y-17192D01*
X36527Y-17222D01*
X36539Y-17250D01*
X36544Y-17281D01*
X36550Y-17306D01*
X36552Y-17331D01*
X36555Y-17347D01*
Y-17358D01*
Y-17364D01*
X36552Y-17403D01*
X36547Y-17436D01*
X36539Y-17469D01*
X36530Y-17497D01*
X36522Y-17519D01*
X36514Y-17539D01*
X36508Y-17550D01*
X36505Y-17553D01*
X36483Y-17583D01*
X36458Y-17608D01*
X36433Y-17630D01*
X36408Y-17650D01*
X36386Y-17664D01*
X36369Y-17675D01*
X36358Y-17680D01*
X36353Y-17683D01*
X36333Y-17692D01*
X36308Y-17703D01*
X36253Y-17722D01*
X36194Y-17739D01*
X36133Y-17758D01*
X36080Y-17772D01*
X36056Y-17780D01*
X36033Y-17786D01*
X36017Y-17791D01*
X36003Y-17794D01*
X35994Y-17797D01*
X35992D01*
X35956Y-17805D01*
X35925Y-17814D01*
X35897Y-17822D01*
X35872Y-17830D01*
X35850Y-17836D01*
X35831Y-17844D01*
X35797Y-17855D01*
X35775Y-17864D01*
X35761Y-17872D01*
X35753Y-17875D01*
X35750Y-17878D01*
X35725Y-17894D01*
X35708Y-17916D01*
X35695Y-17936D01*
X35686Y-17955D01*
X35681Y-17975D01*
X35678Y-17989D01*
Y-18000D01*
Y-18002D01*
X35681Y-18036D01*
X35689Y-18064D01*
X35703Y-18091D01*
X35717Y-18114D01*
X35733Y-18133D01*
X35745Y-18147D01*
X35756Y-18155D01*
X35758Y-18158D01*
X35792Y-18180D01*
X35828Y-18194D01*
X35869Y-18205D01*
X35908Y-18213D01*
X35944Y-18219D01*
X35972Y-18222D01*
X36000D01*
X36058Y-18219D01*
X36108Y-18211D01*
X36150Y-18200D01*
X36186Y-18186D01*
X36214Y-18172D01*
X36236Y-18161D01*
X36247Y-18152D01*
X36253Y-18150D01*
X36283Y-18119D01*
X36308Y-18083D01*
X36325Y-18047D01*
X36339Y-18014D01*
X36350Y-17983D01*
X36355Y-17955D01*
X36361Y-17939D01*
Y-17936D01*
Y-17933D01*
X36594Y-17969D01*
X36575Y-18047D01*
X36550Y-18116D01*
X36519Y-18172D01*
X36489Y-18219D01*
X36461Y-18258D01*
X36436Y-18283D01*
X36419Y-18300D01*
X36416Y-18302D01*
X36414Y-18305D01*
X36386Y-18324D01*
X36355Y-18341D01*
X36289Y-18369D01*
X36219Y-18388D01*
X36153Y-18402D01*
X36122Y-18408D01*
X36094Y-18411D01*
X36067Y-18413D01*
X36044D01*
X36025Y-18416D01*
X36000D01*
X35939Y-18413D01*
X35886Y-18408D01*
X35836Y-18399D01*
X35792Y-18388D01*
X35756Y-18377D01*
X35728Y-18369D01*
X35711Y-18363D01*
X35708Y-18361D01*
X35706D01*
X35659Y-18336D01*
X35620Y-18311D01*
X35586Y-18283D01*
X35556Y-18258D01*
X35534Y-18236D01*
X35520Y-18216D01*
X35509Y-18205D01*
X35506Y-18200D01*
X35484Y-18161D01*
X35467Y-18119D01*
X35453Y-18083D01*
X35445Y-18050D01*
X35439Y-18019D01*
X35436Y-17997D01*
Y-17983D01*
Y-17977D01*
X35439Y-17933D01*
X35445Y-17894D01*
X35456Y-17861D01*
X35464Y-17830D01*
X35475Y-17805D01*
X35486Y-17789D01*
X35492Y-17778D01*
X35495Y-17775D01*
X35517Y-17747D01*
X35542Y-17722D01*
X35567Y-17700D01*
X35592Y-17683D01*
X35617Y-17669D01*
X35634Y-17661D01*
X35645Y-17655D01*
X35650Y-17653D01*
X35670Y-17644D01*
X35692Y-17636D01*
X35745Y-17617D01*
X35803Y-17597D01*
X35861Y-17580D01*
X35914Y-17564D01*
X35939Y-17558D01*
X35958Y-17553D01*
X35975Y-17547D01*
X35989Y-17544D01*
X35997Y-17542D01*
X36000D01*
X36031Y-17533D01*
X36058Y-17525D01*
X36083Y-17519D01*
X36105Y-17511D01*
X36142Y-17503D01*
X36169Y-17494D01*
X36189Y-17486D01*
X36200Y-17483D01*
X36205Y-17481D01*
X36208D01*
X36230Y-17469D01*
X36250Y-17461D01*
X36266Y-17450D01*
X36278Y-17442D01*
X36289Y-17433D01*
X36294Y-17425D01*
X36297Y-17422D01*
X36300Y-17419D01*
X36316Y-17392D01*
X36325Y-17364D01*
Y-17353D01*
X36328Y-17344D01*
Y-17339D01*
Y-17336D01*
X36325Y-17311D01*
X36316Y-17286D01*
X36305Y-17264D01*
X36291Y-17247D01*
X36280Y-17231D01*
X36269Y-17220D01*
X36261Y-17214D01*
X36258Y-17211D01*
X36228Y-17192D01*
X36192Y-17178D01*
X36153Y-17170D01*
X36117Y-17161D01*
X36080Y-17158D01*
X36053Y-17156D01*
X36025D01*
X35978Y-17158D01*
X35933Y-17164D01*
X35897Y-17175D01*
X35869Y-17186D01*
X35845Y-17197D01*
X35828Y-17208D01*
X35817Y-17214D01*
X35814Y-17217D01*
X35786Y-17242D01*
X35767Y-17270D01*
X35750Y-17297D01*
X35736Y-17322D01*
X35728Y-17347D01*
X35722Y-17367D01*
X35720Y-17378D01*
Y-17383D01*
X35489Y-17353D01*
X35500Y-17306D01*
X35511Y-17264D01*
X35525Y-17228D01*
X35539Y-17195D01*
X35553Y-17172D01*
X35564Y-17153D01*
X35570Y-17142D01*
X35572Y-17139D01*
X35597Y-17111D01*
X35625Y-17086D01*
X35656Y-17064D01*
X35686Y-17045D01*
X35714Y-17031D01*
X35736Y-17020D01*
X35750Y-17014D01*
X35753Y-17011D01*
X35756D01*
X35803Y-16995D01*
X35853Y-16984D01*
X35900Y-16972D01*
X35944Y-16967D01*
X35986Y-16964D01*
X36017Y-16961D01*
X36083D01*
X36122Y-16967D01*
D02*
G37*
%LPC*%
G36*
X4664Y-16692D02*
X4208D01*
X4147Y-16698D01*
X4100Y-16700D01*
X4058Y-16706D01*
X4028Y-16712D01*
X4009Y-16714D01*
X3995Y-16720D01*
X3992D01*
X3961Y-16731D01*
X3934Y-16748D01*
X3911Y-16764D01*
X3892Y-16781D01*
X3878Y-16795D01*
X3867Y-16809D01*
X3861Y-16817D01*
X3859Y-16820D01*
X3842Y-16848D01*
X3831Y-16875D01*
X3823Y-16903D01*
X3817Y-16931D01*
X3814Y-16953D01*
X3811Y-16970D01*
Y-16981D01*
Y-16986D01*
X3814Y-17022D01*
X3820Y-17056D01*
X3828Y-17084D01*
X3836Y-17106D01*
X3845Y-17125D01*
X3853Y-17142D01*
X3859Y-17150D01*
X3861Y-17153D01*
X3881Y-17175D01*
X3906Y-17197D01*
X3931Y-17214D01*
X3953Y-17225D01*
X3975Y-17236D01*
X3992Y-17245D01*
X4003Y-17247D01*
X4009Y-17250D01*
X4039Y-17256D01*
X4078Y-17261D01*
X4117Y-17264D01*
X4156Y-17267D01*
X4192Y-17270D01*
X4664D01*
Y-16692D01*
D02*
G37*
G36*
Y-17497D02*
X4158D01*
X4100Y-17503D01*
X4053Y-17508D01*
X4014Y-17514D01*
X3984Y-17519D01*
X3959Y-17525D01*
X3947Y-17528D01*
X3942Y-17530D01*
X3906Y-17544D01*
X3875Y-17561D01*
X3848Y-17580D01*
X3825Y-17600D01*
X3809Y-17617D01*
X3798Y-17630D01*
X3789Y-17642D01*
X3786Y-17644D01*
X3767Y-17675D01*
X3753Y-17705D01*
X3742Y-17736D01*
X3736Y-17764D01*
X3731Y-17789D01*
X3728Y-17811D01*
Y-17822D01*
Y-17828D01*
X3731Y-17861D01*
X3734Y-17894D01*
X3739Y-17922D01*
X3748Y-17944D01*
X3756Y-17964D01*
X3761Y-17980D01*
X3764Y-17989D01*
X3767Y-17991D01*
X3784Y-18016D01*
X3798Y-18039D01*
X3817Y-18055D01*
X3831Y-18072D01*
X3845Y-18083D01*
X3856Y-18091D01*
X3864Y-18097D01*
X3867Y-18100D01*
X3914Y-18122D01*
X3961Y-18138D01*
X3981Y-18144D01*
X3997Y-18147D01*
X4009Y-18150D01*
X4011D01*
X4034Y-18152D01*
X4058Y-18155D01*
X4117Y-18158D01*
X4664D01*
Y-17497D01*
D02*
G37*
G36*
X2862Y-16692D02*
X2312D01*
X2262Y-16695D01*
X2221Y-16698D01*
X2187Y-16700D01*
X2165Y-16706D01*
X2148Y-16709D01*
X2137Y-16712D01*
X2135D01*
X2098Y-16725D01*
X2068Y-16742D01*
X2040Y-16759D01*
X2015Y-16778D01*
X1999Y-16798D01*
X1985Y-16811D01*
X1976Y-16823D01*
X1974Y-16825D01*
X1954Y-16859D01*
X1937Y-16892D01*
X1926Y-16928D01*
X1921Y-16959D01*
X1915Y-16986D01*
X1912Y-17011D01*
Y-17025D01*
Y-17028D01*
Y-17031D01*
X1918Y-17089D01*
X1929Y-17139D01*
X1946Y-17183D01*
X1965Y-17220D01*
X1985Y-17247D01*
X2001Y-17270D01*
X2012Y-17281D01*
X2018Y-17286D01*
X2037Y-17303D01*
X2062Y-17317D01*
X2115Y-17339D01*
X2173Y-17356D01*
X2232Y-17367D01*
X2284Y-17372D01*
X2307Y-17375D01*
X2326D01*
X2346Y-17378D01*
X2862D01*
Y-16692D01*
D02*
G37*
G36*
X37105Y-17686D02*
X37102D01*
X37105Y-17775D01*
X37108Y-17830D01*
X37110Y-17878D01*
X37116Y-17916D01*
X37124Y-17950D01*
X37133Y-17975D01*
X37138Y-17994D01*
X37141Y-18005D01*
X37144Y-18008D01*
X37166Y-18044D01*
X37188Y-18077D01*
X37216Y-18105D01*
X37241Y-18127D01*
X37263Y-18147D01*
X37283Y-18161D01*
X37294Y-18169D01*
X37299Y-18172D01*
X37341Y-18191D01*
X37383Y-18205D01*
X37421Y-18216D01*
X37460Y-18222D01*
X37491Y-18227D01*
X37519Y-18230D01*
X37541D01*
X37591Y-18227D01*
X37632Y-18222D01*
X37668Y-18211D01*
X37699Y-18200D01*
X37721Y-18188D01*
X37738Y-18177D01*
X37749Y-18172D01*
X37752Y-18169D01*
X37774Y-18144D01*
X37791Y-18116D01*
X37805Y-18091D01*
X37813Y-18066D01*
X37818Y-18044D01*
X37821Y-18027D01*
Y-18014D01*
Y-18011D01*
X37818Y-17989D01*
X37816Y-17966D01*
X37810Y-17950D01*
X37805Y-17933D01*
X37799Y-17919D01*
X37796Y-17908D01*
X37791Y-17903D01*
Y-17900D01*
X37763Y-17866D01*
X37730Y-17844D01*
X37718Y-17836D01*
X37707Y-17830D01*
X37699Y-17825D01*
X37696D01*
X37668Y-17814D01*
X37638Y-17805D01*
X37605Y-17797D01*
X37571Y-17791D01*
X37541Y-17786D01*
X37513Y-17780D01*
X37496Y-17778D01*
X37491D01*
X37444Y-17769D01*
X37399Y-17764D01*
X37360Y-17755D01*
X37321Y-17747D01*
X37285Y-17739D01*
X37255Y-17730D01*
X37224Y-17725D01*
X37199Y-17716D01*
X37177Y-17711D01*
X37158Y-17705D01*
X37141Y-17700D01*
X37127Y-17694D01*
X37116Y-17692D01*
X37108Y-17689D01*
X37105Y-17686D01*
D02*
G37*
G36*
X33854Y-17156D02*
X33837D01*
X33804Y-17158D01*
X33773Y-17161D01*
X33715Y-17178D01*
X33665Y-17200D01*
X33624Y-17225D01*
X33590Y-17250D01*
X33565Y-17272D01*
X33551Y-17289D01*
X33546Y-17292D01*
Y-17295D01*
X33521Y-17331D01*
X33499Y-17372D01*
X33485Y-17414D01*
X33471Y-17458D01*
X33463Y-17494D01*
X33457Y-17528D01*
Y-17539D01*
X33454Y-17547D01*
Y-17553D01*
Y-17555D01*
X34234D01*
X34226Y-17492D01*
X34209Y-17433D01*
X34190Y-17383D01*
X34168Y-17344D01*
X34148Y-17311D01*
X34129Y-17286D01*
X34118Y-17272D01*
X34112Y-17267D01*
X34068Y-17231D01*
X34023Y-17203D01*
X33976Y-17183D01*
X33932Y-17170D01*
X33896Y-17161D01*
X33865Y-17158D01*
X33854Y-17156D01*
D02*
G37*
G36*
X48765Y-16692D02*
X48310D01*
X48249Y-16698D01*
X48201Y-16700D01*
X48160Y-16706D01*
X48129Y-16712D01*
X48110Y-16714D01*
X48096Y-16720D01*
X48093D01*
X48063Y-16731D01*
X48035Y-16748D01*
X48013Y-16764D01*
X47993Y-16781D01*
X47979Y-16795D01*
X47968Y-16809D01*
X47963Y-16817D01*
X47960Y-16820D01*
X47943Y-16848D01*
X47932Y-16875D01*
X47924Y-16903D01*
X47918Y-16931D01*
X47916Y-16953D01*
X47913Y-16970D01*
Y-16981D01*
Y-16986D01*
X47916Y-17022D01*
X47921Y-17056D01*
X47929Y-17084D01*
X47938Y-17106D01*
X47946Y-17125D01*
X47954Y-17142D01*
X47960Y-17150D01*
X47963Y-17153D01*
X47982Y-17175D01*
X48007Y-17197D01*
X48032Y-17214D01*
X48054Y-17225D01*
X48077Y-17236D01*
X48093Y-17245D01*
X48104Y-17247D01*
X48110Y-17250D01*
X48140Y-17256D01*
X48179Y-17261D01*
X48218Y-17264D01*
X48257Y-17267D01*
X48293Y-17270D01*
X48765D01*
Y-16692D01*
D02*
G37*
G36*
Y-17497D02*
X48260D01*
X48201Y-17503D01*
X48154Y-17508D01*
X48115Y-17514D01*
X48085Y-17519D01*
X48060Y-17525D01*
X48049Y-17528D01*
X48043Y-17530D01*
X48007Y-17544D01*
X47977Y-17561D01*
X47949Y-17580D01*
X47927Y-17600D01*
X47910Y-17617D01*
X47899Y-17630D01*
X47891Y-17642D01*
X47888Y-17644D01*
X47868Y-17675D01*
X47854Y-17705D01*
X47843Y-17736D01*
X47838Y-17764D01*
X47832Y-17789D01*
X47829Y-17811D01*
Y-17822D01*
Y-17828D01*
X47832Y-17861D01*
X47835Y-17894D01*
X47841Y-17922D01*
X47849Y-17944D01*
X47857Y-17964D01*
X47863Y-17980D01*
X47866Y-17989D01*
X47868Y-17991D01*
X47885Y-18016D01*
X47899Y-18039D01*
X47918Y-18055D01*
X47932Y-18072D01*
X47946Y-18083D01*
X47957Y-18091D01*
X47965Y-18097D01*
X47968Y-18100D01*
X48015Y-18122D01*
X48063Y-18138D01*
X48082Y-18144D01*
X48099Y-18147D01*
X48110Y-18150D01*
X48113D01*
X48135Y-18152D01*
X48160Y-18155D01*
X48218Y-18158D01*
X48765D01*
Y-17497D01*
D02*
G37*
G36*
X39498Y-16692D02*
X38948D01*
X38898Y-16695D01*
X38857Y-16698D01*
X38823Y-16700D01*
X38801Y-16706D01*
X38785Y-16709D01*
X38773Y-16712D01*
X38771D01*
X38735Y-16725D01*
X38704Y-16742D01*
X38676Y-16759D01*
X38651Y-16778D01*
X38635Y-16798D01*
X38621Y-16811D01*
X38612Y-16823D01*
X38610Y-16825D01*
X38590Y-16859D01*
X38574Y-16892D01*
X38562Y-16928D01*
X38557Y-16959D01*
X38551Y-16986D01*
X38549Y-17011D01*
Y-17025D01*
Y-17028D01*
Y-17031D01*
X38554Y-17089D01*
X38565Y-17139D01*
X38582Y-17183D01*
X38601Y-17220D01*
X38621Y-17247D01*
X38637Y-17270D01*
X38648Y-17281D01*
X38654Y-17286D01*
X38673Y-17303D01*
X38698Y-17317D01*
X38751Y-17339D01*
X38810Y-17356D01*
X38868Y-17367D01*
X38921Y-17372D01*
X38943Y-17375D01*
X38962D01*
X38982Y-17378D01*
X39498D01*
Y-16692D01*
D02*
G37*
G36*
X46702Y-17156D02*
X46686D01*
X46652Y-17158D01*
X46622Y-17161D01*
X46566Y-17175D01*
X46516Y-17197D01*
X46475Y-17222D01*
X46441Y-17247D01*
X46416Y-17267D01*
X46400Y-17283D01*
X46394Y-17286D01*
Y-17289D01*
X46372Y-17314D01*
X46355Y-17344D01*
X46325Y-17406D01*
X46303Y-17472D01*
X46289Y-17533D01*
X46280Y-17592D01*
X46278Y-17617D01*
Y-17639D01*
X46275Y-17655D01*
Y-17669D01*
Y-17678D01*
Y-17680D01*
Y-17730D01*
X46280Y-17778D01*
X46286Y-17819D01*
X46294Y-17861D01*
X46303Y-17897D01*
X46314Y-17930D01*
X46322Y-17961D01*
X46333Y-17989D01*
X46344Y-18011D01*
X46355Y-18033D01*
X46366Y-18050D01*
X46375Y-18064D01*
X46383Y-18075D01*
X46389Y-18083D01*
X46391Y-18086D01*
X46394Y-18089D01*
X46416Y-18111D01*
X46441Y-18133D01*
X46489Y-18166D01*
X46539Y-18188D01*
X46583Y-18205D01*
X46625Y-18213D01*
X46655Y-18219D01*
X46669Y-18222D01*
X46686D01*
X46719Y-18219D01*
X46750Y-18216D01*
X46808Y-18202D01*
X46858Y-18180D01*
X46899Y-18155D01*
X46933Y-18133D01*
X46958Y-18111D01*
X46974Y-18097D01*
X46977Y-18091D01*
X46980D01*
X46999Y-18064D01*
X47019Y-18036D01*
X47047Y-17972D01*
X47069Y-17905D01*
X47083Y-17839D01*
X47091Y-17780D01*
X47094Y-17755D01*
Y-17733D01*
X47097Y-17714D01*
Y-17700D01*
Y-17692D01*
Y-17689D01*
X47094Y-17642D01*
X47091Y-17594D01*
X47085Y-17553D01*
X47077Y-17514D01*
X47069Y-17478D01*
X47060Y-17444D01*
X47049Y-17417D01*
X47038Y-17389D01*
X47027Y-17367D01*
X47016Y-17344D01*
X47008Y-17328D01*
X46999Y-17314D01*
X46991Y-17303D01*
X46985Y-17295D01*
X46980Y-17292D01*
Y-17289D01*
X46958Y-17267D01*
X46933Y-17245D01*
X46886Y-17211D01*
X46836Y-17189D01*
X46788Y-17172D01*
X46747Y-17161D01*
X46716Y-17158D01*
X46702Y-17156D01*
D02*
G37*
G36*
X43715D02*
X43698D01*
X43665Y-17158D01*
X43635Y-17161D01*
X43579Y-17175D01*
X43529Y-17197D01*
X43487Y-17222D01*
X43454Y-17247D01*
X43429Y-17267D01*
X43412Y-17283D01*
X43407Y-17286D01*
Y-17289D01*
X43385Y-17314D01*
X43368Y-17344D01*
X43338Y-17406D01*
X43315Y-17472D01*
X43301Y-17533D01*
X43293Y-17592D01*
X43290Y-17617D01*
Y-17639D01*
X43288Y-17655D01*
Y-17669D01*
Y-17678D01*
Y-17680D01*
Y-17730D01*
X43293Y-17778D01*
X43299Y-17819D01*
X43307Y-17861D01*
X43315Y-17897D01*
X43326Y-17930D01*
X43335Y-17961D01*
X43346Y-17989D01*
X43357Y-18011D01*
X43368Y-18033D01*
X43379Y-18050D01*
X43388Y-18064D01*
X43396Y-18075D01*
X43401Y-18083D01*
X43404Y-18086D01*
X43407Y-18089D01*
X43429Y-18111D01*
X43454Y-18133D01*
X43501Y-18166D01*
X43551Y-18188D01*
X43596Y-18205D01*
X43637Y-18213D01*
X43668Y-18219D01*
X43682Y-18222D01*
X43698D01*
X43732Y-18219D01*
X43762Y-18216D01*
X43821Y-18202D01*
X43871Y-18180D01*
X43912Y-18155D01*
X43946Y-18133D01*
X43971Y-18111D01*
X43987Y-18097D01*
X43990Y-18091D01*
X43993D01*
X44012Y-18064D01*
X44032Y-18036D01*
X44059Y-17972D01*
X44082Y-17905D01*
X44095Y-17839D01*
X44104Y-17780D01*
X44107Y-17755D01*
Y-17733D01*
X44109Y-17714D01*
Y-17700D01*
Y-17692D01*
Y-17689D01*
X44107Y-17642D01*
X44104Y-17594D01*
X44098Y-17553D01*
X44090Y-17514D01*
X44082Y-17478D01*
X44073Y-17444D01*
X44062Y-17417D01*
X44051Y-17389D01*
X44040Y-17367D01*
X44029Y-17344D01*
X44020Y-17328D01*
X44012Y-17314D01*
X44004Y-17303D01*
X43998Y-17295D01*
X43993Y-17292D01*
Y-17289D01*
X43971Y-17267D01*
X43946Y-17245D01*
X43898Y-17211D01*
X43848Y-17189D01*
X43801Y-17172D01*
X43760Y-17161D01*
X43729Y-17158D01*
X43715Y-17156D01*
D02*
G37*
%LPD*%
D10*
X16100Y2300D02*
D03*
X16100Y3700D02*
D03*
X17500Y2300D02*
D03*
X17500Y3700D02*
D03*
D11*
X11600Y5842D02*
D03*
X10200Y5842D02*
D03*
D12*
X0Y0D02*
X18540D01*
Y50290D01*
X0D02*
X18540D01*
X0Y0D02*
Y50290D01*
D14*
X10050Y46800D02*
D03*
X9100D02*
D03*
X8150D02*
D03*
Y49000D02*
D03*
X10050D02*
D03*
D15*
X6800Y48350D02*
D03*
Y47450D02*
D03*
X2700Y44950D02*
D03*
Y45850D02*
D03*
X1200Y44950D02*
D03*
Y45850D02*
D03*
D16*
X9100Y1250D02*
D03*
Y3150D02*
D03*
X11300Y2200D02*
D03*
D28*
X11710Y40510D02*
D03*
Y42650D02*
D03*
X14600Y25030D02*
D03*
Y27170D02*
D03*
X12800Y25030D02*
D03*
Y27170D02*
D03*
D32*
X13100Y46950D02*
D03*
Y46050D02*
D03*
D33*
X7421Y2475D02*
D03*
X6521D02*
D03*
X7421Y1250D02*
D03*
X6521D02*
D03*
X3150Y1800D02*
D03*
X2250D02*
D03*
X6571Y39400D02*
D03*
X7471D02*
D03*
X11100Y4500D02*
D03*
X10200D02*
D03*
D34*
X11750Y44800D02*
D03*
X10850D02*
D03*
X9350Y24600D02*
D03*
X8450D02*
D03*
X10350D02*
D03*
X11250D02*
D03*
X9850Y16600D02*
D03*
X8950D02*
D03*
X7172D02*
D03*
X6272D02*
D03*
D35*
X10643Y8204D02*
D03*
D36*
X12943Y14554D02*
D03*
X10643D02*
D03*
X8343D02*
D03*
D37*
X13521Y30880D02*
D03*
Y31380D02*
D03*
Y31880D02*
D03*
Y32380D02*
D03*
Y32880D02*
D03*
Y33380D02*
D03*
Y33880D02*
D03*
Y34380D02*
D03*
Y34880D02*
D03*
Y35380D02*
D03*
Y35880D02*
D03*
Y36380D02*
D03*
X5021D02*
D03*
Y35880D02*
D03*
Y35380D02*
D03*
Y34880D02*
D03*
Y34380D02*
D03*
Y33880D02*
D03*
Y33380D02*
D03*
Y32880D02*
D03*
Y32380D02*
D03*
Y31880D02*
D03*
Y31380D02*
D03*
Y30880D02*
D03*
D38*
X12021Y37880D02*
D03*
X11521D02*
D03*
X11021D02*
D03*
X10521D02*
D03*
X10021D02*
D03*
X9521D02*
D03*
X9021D02*
D03*
X8521D02*
D03*
X8021D02*
D03*
X7521D02*
D03*
X7021D02*
D03*
X6521D02*
D03*
Y29380D02*
D03*
X7021D02*
D03*
X7521D02*
D03*
X8021D02*
D03*
X8521D02*
D03*
X9021D02*
D03*
X9521D02*
D03*
X10021D02*
D03*
X10521D02*
D03*
X11021D02*
D03*
X11521D02*
D03*
X12021D02*
D03*
D39*
X8900Y44105D02*
D03*
X9900D02*
D03*
Y42495D02*
D03*
X9400D02*
D03*
X8900D02*
D03*
X9400Y44105D02*
D03*
D40*
X8315Y5400D02*
D03*
X4285D02*
D03*
D41*
X10750Y26700D02*
D03*
X8850D02*
D03*
D42*
X11250Y16700D02*
D03*
X12950D02*
D03*
X5750Y8204D02*
D03*
X7450D02*
D03*
M02*
