G04*
G04 #@! TF.GenerationSoftware,Altium Limited,Altium Designer,18.1.9 (240)*
G04*
G04 Layer_Physical_Order=1*
G04 Layer_Color=255*
%FSLAX43Y43*%
%MOMM*%
G71*
G01*
G75*
%ADD10C,0.120*%
%ADD15C,0.100*%
%ADD26R,0.600X1.300*%
%ADD47R,1.700X3.700*%
%ADD48C,0.254*%
%ADD49R,0.700X0.510*%
%ADD50R,1.400X1.000*%
%ADD51R,1.100X1.500*%
%ADD52R,0.800X0.800*%
%ADD53R,0.800X0.800*%
%ADD54O,0.300X0.750*%
%ADD55O,0.750X0.300*%
%ADD56R,3.700X3.700*%
%ADD57R,0.500X1.200*%
%ADD58R,1.200X0.500*%
%ADD59R,2.500X1.700*%
%ADD60R,0.450X0.500*%
%ADD61R,0.425X0.330*%
%ADD62R,0.540X1.060*%
%ADD63R,1.000X1.800*%
%ADD64R,1.500X1.900*%
%ADD65R,0.400X1.350*%
%ADD66R,0.560X0.510*%
%ADD67R,0.510X0.700*%
%ADD68R,0.510X0.560*%
%ADD69C,0.200*%
%ADD70C,0.300*%
%ADD71C,0.500*%
%ADD72C,0.152*%
%ADD73C,0.250*%
%ADD74R,1.500X1.500*%
%ADD75C,1.500*%
%ADD76R,1.000X1.500*%
%ADD77O,1.000X1.500*%
%ADD78O,1.200X1.900*%
%ADD79C,1.850*%
%ADD80R,1.850X1.850*%
%ADD81C,0.400*%
G36*
X7067Y48992D02*
X8017D01*
Y48842D01*
X8167D01*
Y47692D01*
X8606D01*
X8652Y47581D01*
X8237Y47167D01*
X8197Y47107D01*
X8197Y47104D01*
X8117Y47017D01*
X7867D01*
Y46142D01*
Y45267D01*
X7903D01*
X7935Y45206D01*
X7951Y45147D01*
X7889Y45055D01*
X7864Y44930D01*
X7889Y44805D01*
X7960Y44699D01*
X8065Y44628D01*
X8190Y44603D01*
X8315Y44628D01*
X8421Y44699D01*
X8483Y44792D01*
X8549Y44807D01*
X8615Y44810D01*
X8649Y44759D01*
X8755Y44689D01*
X8880Y44664D01*
X8968Y44571D01*
Y44483D01*
X7939Y43454D01*
X7895Y43389D01*
X7880Y43312D01*
Y40440D01*
X7895Y40364D01*
X7939Y40299D01*
X9591Y38647D01*
X9656Y38603D01*
X9732Y38588D01*
X10336D01*
X10425Y38528D01*
X10529Y38508D01*
X10564Y38444D01*
X10577Y38387D01*
X9874Y37684D01*
X4532D01*
X4501Y37731D01*
X4395Y37801D01*
X4270Y37826D01*
X4145Y37801D01*
X4039Y37731D01*
X3969Y37625D01*
X3944Y37500D01*
X3969Y37375D01*
X4039Y37269D01*
X4145Y37199D01*
X4270Y37174D01*
X4395Y37199D01*
X4501Y37269D01*
X4532Y37316D01*
X8223D01*
X8277Y37196D01*
X8239Y37152D01*
X7508D01*
X7422Y37135D01*
X7349Y37087D01*
X7081Y36819D01*
X7033Y36746D01*
X7016Y36660D01*
Y36545D01*
X6770D01*
Y35795D01*
X7619D01*
X7629Y35783D01*
X7626Y35719D01*
X7556Y35645D01*
X6770D01*
Y34895D01*
X7056D01*
Y34450D01*
X7070Y34380D01*
X7110Y34320D01*
X7476Y33954D01*
Y33239D01*
X7399Y33202D01*
X7357Y33197D01*
X7234Y33279D01*
X7090Y33307D01*
X6946Y33279D01*
X6823Y33197D01*
X6741Y33074D01*
X6713Y32930D01*
X6723Y32880D01*
Y32710D01*
X6712Y32699D01*
X6603Y32656D01*
X6550Y32705D01*
X6543Y32705D01*
X6150D01*
Y32250D01*
X6000D01*
Y32100D01*
X5450D01*
Y31812D01*
X5450Y31795D01*
X5530Y31708D01*
X5530Y31675D01*
Y30975D01*
X6470D01*
Y31075D01*
X6630D01*
Y30975D01*
X6825D01*
Y30844D01*
X6799Y30805D01*
X6774Y30680D01*
X6799Y30555D01*
X6869Y30449D01*
X6975Y30379D01*
X7100Y30354D01*
X7225Y30379D01*
X7331Y30449D01*
X7356Y30488D01*
X7476Y30451D01*
Y30016D01*
X7300Y29840D01*
X7260Y29780D01*
X7246Y29710D01*
Y28283D01*
X7126Y28259D01*
X7113Y28292D01*
X7021Y28330D01*
X6918D01*
X6842Y28423D01*
X6847Y28450D01*
X6822Y28575D01*
X6752Y28681D01*
X6646Y28751D01*
X6521Y28776D01*
X6396Y28751D01*
X6290Y28681D01*
X6220Y28575D01*
X6195Y28450D01*
X6200Y28423D01*
X6124Y28330D01*
X6021D01*
X5929Y28292D01*
X5891Y28200D01*
Y26850D01*
X5929Y26758D01*
X5907Y26638D01*
X5891Y26600D01*
Y25800D01*
X5929Y25708D01*
X6021Y25670D01*
X6933D01*
X7018Y25550D01*
X7009Y25525D01*
X6130D01*
Y25334D01*
X5816D01*
X5792Y25392D01*
X5700Y25430D01*
X4700D01*
X4608Y25392D01*
X4552Y25392D01*
X4460Y25430D01*
X4184D01*
Y25690D01*
X4167Y25776D01*
X4119Y25849D01*
X3787Y26180D01*
X3796Y26221D01*
X3799Y26224D01*
X3930Y26266D01*
X3985Y26229D01*
X4110Y26204D01*
X4235Y26229D01*
X4341Y26299D01*
X4352Y26316D01*
X4470D01*
Y25800D01*
X4508Y25708D01*
X4600Y25670D01*
X5600D01*
X5692Y25708D01*
X5730Y25800D01*
Y26600D01*
X5714Y26638D01*
X5692Y26758D01*
X5730Y26850D01*
Y28200D01*
X5692Y28292D01*
X5600Y28330D01*
X5234D01*
Y30045D01*
X5241Y30049D01*
X5311Y30155D01*
X5336Y30280D01*
X5311Y30405D01*
X5241Y30511D01*
X5135Y30581D01*
X5010Y30606D01*
X4885Y30581D01*
X4779Y30511D01*
X4709Y30405D01*
X4684Y30280D01*
X4709Y30155D01*
X4779Y30049D01*
X4786Y30045D01*
Y28330D01*
X4600D01*
X4508Y28292D01*
X4470Y28200D01*
Y26850D01*
X4376Y26765D01*
X4345Y26761D01*
X4334Y26765D01*
X4235Y26831D01*
X4110Y26856D01*
X3985Y26831D01*
X3879Y26761D01*
X3860Y26732D01*
X3740Y26769D01*
Y30523D01*
X4239Y31021D01*
X4287Y31094D01*
X4304Y31180D01*
Y31615D01*
X4311Y31619D01*
X4381Y31725D01*
X4406Y31850D01*
X4381Y31975D01*
X4311Y32081D01*
X4205Y32151D01*
X4080Y32176D01*
X3955Y32151D01*
X3849Y32081D01*
X3779Y31975D01*
X3754Y31850D01*
X3779Y31725D01*
X3849Y31619D01*
X3856Y31615D01*
Y31367D01*
X3848Y31364D01*
X3721Y31385D01*
X3651Y31491D01*
X3545Y31561D01*
X3420Y31586D01*
X3300Y31562D01*
X3295Y31562D01*
X3180Y31628D01*
Y40057D01*
X3166Y40127D01*
X3126Y40187D01*
X2696Y40617D01*
Y42447D01*
X606D01*
Y40357D01*
X2436D01*
X2812Y39981D01*
Y38965D01*
X2692Y38957D01*
X2669Y39135D01*
X2564Y39389D01*
X2396Y39607D01*
X2178Y39775D01*
X1924Y39880D01*
X1651Y39916D01*
X1378Y39880D01*
X1124Y39775D01*
X906Y39607D01*
X738Y39389D01*
X633Y39135D01*
X597Y38862D01*
X633Y38589D01*
X738Y38335D01*
X906Y38117D01*
X1124Y37949D01*
X1378Y37844D01*
X1651Y37808D01*
X1924Y37844D01*
X2178Y37949D01*
X2249Y38004D01*
X2572Y37681D01*
Y37035D01*
X2452Y36994D01*
X2396Y37067D01*
X2178Y37235D01*
X1924Y37340D01*
X1651Y37376D01*
X1378Y37340D01*
X1124Y37235D01*
X906Y37067D01*
X738Y36849D01*
X633Y36595D01*
X597Y36322D01*
X633Y36049D01*
X738Y35795D01*
X906Y35577D01*
X1124Y35409D01*
X1378Y35304D01*
X1651Y35268D01*
X1924Y35304D01*
X2178Y35409D01*
X2396Y35577D01*
X2452Y35650D01*
X2572Y35609D01*
Y34766D01*
X2452Y34709D01*
X2335Y34805D01*
X2122Y34919D01*
X1891Y34989D01*
X1651Y35013D01*
X1411Y34989D01*
X1180Y34919D01*
X976Y34810D01*
X1828Y33959D01*
X1651Y33782D01*
X1828Y33605D01*
X976Y32754D01*
X1180Y32645D01*
X1411Y32575D01*
X1651Y32551D01*
X1891Y32575D01*
X2122Y32645D01*
X2335Y32759D01*
X2452Y32855D01*
X2572Y32798D01*
Y31955D01*
X2452Y31914D01*
X2396Y31987D01*
X2178Y32155D01*
X1924Y32260D01*
X1651Y32296D01*
X1378Y32260D01*
X1124Y32155D01*
X906Y31987D01*
X738Y31769D01*
X633Y31515D01*
X597Y31242D01*
X633Y30969D01*
X738Y30715D01*
X906Y30497D01*
X1124Y30329D01*
X1378Y30224D01*
X1651Y30188D01*
X1924Y30224D01*
X2178Y30329D01*
X2396Y30497D01*
X2452Y30570D01*
X2572Y30529D01*
Y29415D01*
X2452Y29374D01*
X2396Y29447D01*
X2178Y29615D01*
X1924Y29720D01*
X1651Y29756D01*
X1378Y29720D01*
X1124Y29615D01*
X906Y29447D01*
X738Y29229D01*
X633Y28975D01*
X597Y28702D01*
X633Y28429D01*
X738Y28175D01*
X906Y27957D01*
X1124Y27789D01*
X1378Y27684D01*
X1651Y27648D01*
X1924Y27684D01*
X2178Y27789D01*
X2396Y27957D01*
X2452Y28030D01*
X2572Y27989D01*
Y26875D01*
X2452Y26834D01*
X2396Y26907D01*
X2178Y27075D01*
X1924Y27180D01*
X1651Y27216D01*
X1378Y27180D01*
X1124Y27075D01*
X906Y26907D01*
X738Y26689D01*
X633Y26435D01*
X597Y26162D01*
X633Y25889D01*
X738Y25635D01*
X793Y25564D01*
X528Y25298D01*
X408Y25348D01*
Y33256D01*
X528Y33285D01*
X623Y33107D01*
X1297Y33782D01*
X623Y34457D01*
X528Y34279D01*
X408Y34308D01*
Y44405D01*
X485Y44493D01*
X528Y44493D01*
X1825D01*
Y46233D01*
X1521D01*
X1487Y46353D01*
X1501Y46375D01*
X1526Y46500D01*
X1501Y46625D01*
X1431Y46731D01*
X1325Y46801D01*
X1200Y46826D01*
X1075Y46801D01*
X969Y46731D01*
X899Y46625D01*
X874Y46500D01*
X899Y46375D01*
X913Y46353D01*
X879Y46233D01*
X528D01*
X485Y46233D01*
X408Y46321D01*
Y47405D01*
X485Y47493D01*
X528Y47493D01*
X1785D01*
X1818Y47493D01*
X1905Y47413D01*
X1912Y47413D01*
X2505D01*
Y48363D01*
Y49313D01*
X1905Y49313D01*
X1818Y49233D01*
X1785Y49233D01*
X1498D01*
X1452Y49353D01*
X1456Y49360D01*
X1481Y49485D01*
X1456Y49610D01*
X1386Y49716D01*
X1313Y49764D01*
X1350Y49884D01*
X4762D01*
X4822Y49764D01*
X4731Y49646D01*
X4640Y49427D01*
X4609Y49192D01*
Y48492D01*
X4640Y48257D01*
X4725Y48053D01*
X5340Y48669D01*
X5517Y48492D01*
Y49792D01*
X6226D01*
X6272Y49884D01*
X7067D01*
Y48992D01*
D02*
G37*
G36*
X16730Y49764D02*
X16614Y49613D01*
X16526Y49402D01*
X16496Y49174D01*
X16526Y48947D01*
X16614Y48736D01*
X16753Y48554D01*
X16935Y48414D01*
X17146Y48327D01*
X17374Y48297D01*
X17601Y48327D01*
X17812Y48414D01*
X17994Y48554D01*
X18014Y48580D01*
X18134Y48539D01*
Y47269D01*
X18014Y47229D01*
X17994Y47255D01*
X17812Y47394D01*
X17601Y47482D01*
X17374Y47512D01*
X17146Y47482D01*
X16935Y47394D01*
X16753Y47255D01*
X16614Y47073D01*
X16526Y46862D01*
X16496Y46634D01*
X16526Y46407D01*
X16614Y46196D01*
X16615Y46193D01*
X15851Y45429D01*
X15803Y45357D01*
X15786Y45271D01*
Y44776D01*
X15666Y44735D01*
X15582Y44843D01*
X15363Y45012D01*
X15108Y45117D01*
X14834Y45153D01*
X14559Y45117D01*
X14304Y45012D01*
X14285Y44997D01*
X15010Y44271D01*
X14834Y44094D01*
X15010Y43918D01*
X14247Y43154D01*
X14224Y43087D01*
X14150D01*
X14006Y43059D01*
X13883Y42977D01*
X13801Y42854D01*
X13773Y42710D01*
X13801Y42566D01*
X13845Y42500D01*
X13771Y42395D01*
X13747Y42395D01*
X13410D01*
Y41940D01*
X13260D01*
Y41790D01*
X12710D01*
Y41502D01*
X12710Y41485D01*
X12790Y41398D01*
X12790Y41365D01*
Y41029D01*
X12631Y40870D01*
X12520Y40916D01*
Y41072D01*
X10916D01*
X10876Y41149D01*
X10865Y41186D01*
X10931Y41285D01*
X10956Y41410D01*
X10931Y41535D01*
X10880Y41612D01*
X10916Y41710D01*
X10933Y41732D01*
X12520D01*
Y42972D01*
X11975D01*
Y43390D01*
X12060Y43475D01*
X12163Y43475D01*
X12250Y43395D01*
X12257Y43395D01*
X12650D01*
Y43850D01*
X12800D01*
Y44000D01*
X13350D01*
Y44288D01*
X13350Y44305D01*
X13270Y44392D01*
X13270Y44425D01*
Y45125D01*
X12904D01*
Y46861D01*
X12890Y46931D01*
X12850Y46990D01*
X12356Y47484D01*
X12412Y47598D01*
X12517Y47584D01*
X12752Y47615D01*
X12956Y47700D01*
X12517Y48138D01*
Y47892D01*
X11317D01*
Y49792D01*
X12517D01*
Y48492D01*
X12694Y48669D01*
X13309Y48053D01*
X13394Y48257D01*
X13425Y48492D01*
Y49192D01*
X13394Y49427D01*
X13303Y49646D01*
X13212Y49764D01*
X13272Y49884D01*
X16686D01*
X16730Y49764D01*
D02*
G37*
G36*
X18134Y45999D02*
Y44964D01*
X16504D01*
Y43224D01*
X18134D01*
Y39388D01*
X18014Y39359D01*
X17919Y39537D01*
X17245Y38862D01*
X17919Y38187D01*
X18014Y38365D01*
X18134Y38336D01*
Y9355D01*
X18014Y9305D01*
X17540Y9780D01*
X17480Y9820D01*
X17410Y9834D01*
X17307D01*
X17284Y9954D01*
X17418Y10009D01*
X17636Y10177D01*
X17804Y10395D01*
X17909Y10649D01*
X17945Y10922D01*
X17909Y11195D01*
X17804Y11449D01*
X17636Y11667D01*
X17418Y11835D01*
X17164Y11940D01*
X16891Y11976D01*
X16618Y11940D01*
X16366Y11836D01*
X16108Y12095D01*
X16018Y12154D01*
X15913Y12175D01*
X15025D01*
Y12300D01*
X14925D01*
Y12445D01*
X15100D01*
X15192Y12483D01*
X15230Y12575D01*
Y13575D01*
X15192Y13667D01*
X15100Y13705D01*
X14300D01*
X14262Y13689D01*
X14142Y13667D01*
X14050Y13705D01*
X12992D01*
X12946Y13816D01*
X13036Y13906D01*
X15836D01*
X15903Y13807D01*
X15873Y13735D01*
X15837Y13462D01*
X15873Y13189D01*
X15978Y12935D01*
X16146Y12717D01*
X16364Y12549D01*
X16618Y12444D01*
X16891Y12408D01*
X17164Y12444D01*
X17418Y12549D01*
X17636Y12717D01*
X17804Y12935D01*
X17909Y13189D01*
X17945Y13462D01*
X17909Y13735D01*
X17804Y13989D01*
X17636Y14207D01*
X17418Y14375D01*
X17164Y14480D01*
X16891Y14516D01*
X16618Y14480D01*
X16364Y14375D01*
X16232Y14274D01*
X15592D01*
X15542Y14394D01*
X16293Y15144D01*
X16364Y15089D01*
X16618Y14984D01*
X16891Y14948D01*
X17164Y14984D01*
X17418Y15089D01*
X17636Y15257D01*
X17804Y15475D01*
X17909Y15729D01*
X17945Y16002D01*
X17909Y16275D01*
X17804Y16529D01*
X17636Y16747D01*
X17418Y16915D01*
X17164Y17020D01*
X16891Y17056D01*
X16618Y17020D01*
X16364Y16915D01*
X16146Y16747D01*
X15978Y16529D01*
X15873Y16275D01*
X15837Y16002D01*
X15873Y15729D01*
X15978Y15475D01*
X16033Y15404D01*
X15825Y15195D01*
X15780Y15217D01*
X15726Y15266D01*
X15746Y15370D01*
X15721Y15495D01*
X15651Y15601D01*
X15545Y15671D01*
X15420Y15696D01*
X15295Y15671D01*
X15189Y15601D01*
X15119Y15495D01*
X15094Y15370D01*
X15110Y15288D01*
X14956Y15134D01*
X14492D01*
X14461Y15181D01*
X14355Y15251D01*
X14230Y15276D01*
X14105Y15251D01*
X13999Y15181D01*
X13929Y15075D01*
X13904Y14950D01*
X13929Y14825D01*
X13997Y14723D01*
X13993Y14702D01*
X13958Y14603D01*
X12517D01*
Y15139D01*
X12331D01*
Y15501D01*
X12317Y15572D01*
X12277Y15631D01*
X11459Y16449D01*
X11400Y16489D01*
X11399Y16500D01*
X11516Y16610D01*
X11528Y16608D01*
X11567Y16549D01*
X12377Y15739D01*
X12437Y15699D01*
X12507Y15685D01*
X12877D01*
Y15499D01*
X14317D01*
Y15685D01*
X14679D01*
X14749Y15699D01*
X14809Y15739D01*
X15850Y16780D01*
X15890Y16840D01*
X15898Y16884D01*
X15951Y16919D01*
X16021Y17025D01*
X16046Y17150D01*
X16021Y17275D01*
X15951Y17381D01*
X15845Y17451D01*
X15720Y17476D01*
X15595Y17451D01*
X15489Y17381D01*
X15419Y17275D01*
X15394Y17150D01*
X15419Y17025D01*
X15481Y16931D01*
X15334Y16784D01*
X15224Y16830D01*
Y17695D01*
X15327Y17784D01*
X15330Y17784D01*
X15455Y17809D01*
X15561Y17879D01*
X15631Y17985D01*
X15656Y18110D01*
X15631Y18235D01*
X15603Y18277D01*
X15667Y18397D01*
X15856D01*
X15873Y18269D01*
X15978Y18015D01*
X16146Y17797D01*
X16364Y17629D01*
X16618Y17524D01*
X16891Y17488D01*
X17164Y17524D01*
X17418Y17629D01*
X17636Y17797D01*
X17804Y18015D01*
X17909Y18269D01*
X17945Y18542D01*
X17909Y18815D01*
X17804Y19069D01*
X17636Y19287D01*
X17418Y19455D01*
X17164Y19560D01*
X16891Y19596D01*
X16618Y19560D01*
X16364Y19455D01*
X16146Y19287D01*
X15978Y19069D01*
X15873Y18815D01*
X15866Y18764D01*
X15071D01*
X15000Y18750D01*
X14941Y18710D01*
X14924Y18694D01*
X14814Y18740D01*
Y19003D01*
X15602Y19791D01*
X16405D01*
X16475Y19805D01*
X16535Y19845D01*
X16738Y20048D01*
X16891Y20028D01*
X17164Y20064D01*
X17418Y20169D01*
X17636Y20337D01*
X17804Y20555D01*
X17909Y20809D01*
X17945Y21082D01*
X17909Y21355D01*
X17804Y21609D01*
X17636Y21827D01*
X17418Y21995D01*
X17164Y22100D01*
X16891Y22136D01*
X16618Y22100D01*
X16364Y21995D01*
X16146Y21827D01*
X15978Y21609D01*
X15884Y21380D01*
X15764Y21404D01*
Y23300D01*
X15884Y23324D01*
X15978Y23095D01*
X16146Y22877D01*
X16364Y22709D01*
X16618Y22604D01*
X16891Y22568D01*
X17164Y22604D01*
X17418Y22709D01*
X17636Y22877D01*
X17804Y23095D01*
X17909Y23349D01*
X17945Y23622D01*
X17909Y23895D01*
X17804Y24149D01*
X17636Y24367D01*
X17418Y24535D01*
X17164Y24640D01*
X16891Y24676D01*
X16618Y24640D01*
X16364Y24535D01*
X16146Y24367D01*
X15978Y24149D01*
X15884Y23920D01*
X15764Y23944D01*
Y25840D01*
X15884Y25864D01*
X15978Y25635D01*
X16146Y25417D01*
X16364Y25249D01*
X16618Y25144D01*
X16891Y25108D01*
X17164Y25144D01*
X17418Y25249D01*
X17636Y25417D01*
X17804Y25635D01*
X17909Y25889D01*
X17945Y26162D01*
X17909Y26435D01*
X17804Y26689D01*
X17636Y26907D01*
X17418Y27075D01*
X17164Y27180D01*
X16891Y27216D01*
X16618Y27180D01*
X16364Y27075D01*
X16146Y26907D01*
X15978Y26689D01*
X15884Y26460D01*
X15764Y26484D01*
Y27315D01*
X16293Y27844D01*
X16364Y27789D01*
X16618Y27684D01*
X16891Y27648D01*
X17164Y27684D01*
X17418Y27789D01*
X17636Y27957D01*
X17804Y28175D01*
X17909Y28429D01*
X17945Y28702D01*
X17909Y28975D01*
X17804Y29229D01*
X17636Y29447D01*
X17418Y29615D01*
X17164Y29720D01*
X16891Y29756D01*
X16618Y29720D01*
X16364Y29615D01*
X16146Y29447D01*
X15978Y29229D01*
X15873Y28975D01*
X15837Y28702D01*
X15873Y28429D01*
X15978Y28175D01*
X16033Y28104D01*
X15634Y27705D01*
X15524Y27751D01*
Y29615D01*
X16293Y30384D01*
X16364Y30329D01*
X16618Y30224D01*
X16891Y30188D01*
X17164Y30224D01*
X17418Y30329D01*
X17636Y30497D01*
X17804Y30715D01*
X17909Y30969D01*
X17945Y31242D01*
X17909Y31515D01*
X17804Y31769D01*
X17636Y31987D01*
X17418Y32155D01*
X17164Y32260D01*
X16891Y32296D01*
X16618Y32260D01*
X16364Y32155D01*
X16146Y31987D01*
X15978Y31769D01*
X15873Y31515D01*
X15837Y31242D01*
X15873Y30969D01*
X15978Y30715D01*
X16033Y30644D01*
X15210Y29821D01*
X15170Y29761D01*
X15156Y29691D01*
Y23307D01*
X15036Y23250D01*
X14975Y23291D01*
X14850Y23316D01*
X14725Y23291D01*
X14619Y23221D01*
X14594Y23184D01*
X14482D01*
X14380Y23227D01*
Y23532D01*
X13900D01*
Y23832D01*
X14380D01*
Y24137D01*
X14380D01*
X14300Y24224D01*
Y24957D01*
X14277D01*
Y25165D01*
X14303Y25296D01*
X14303Y25296D01*
Y25423D01*
X14326D01*
X14326Y26156D01*
X14406Y26243D01*
X14406Y26259D01*
Y26548D01*
X13446D01*
Y26259D01*
X13446Y26243D01*
X13526Y26156D01*
X13526Y26123D01*
Y25557D01*
X13297D01*
X13153Y25529D01*
X13030Y25447D01*
X13030Y25447D01*
X13011Y25427D01*
X12770D01*
Y25820D01*
X11930D01*
X11900Y25900D01*
X11550D01*
Y25050D01*
X11250D01*
Y25900D01*
X10900D01*
X10870Y25820D01*
X10030D01*
Y24280D01*
X10157D01*
X10167Y24264D01*
X10099Y24144D01*
X7991D01*
X7954Y24189D01*
Y24323D01*
X8021Y24425D01*
X8046Y24550D01*
X8021Y24675D01*
X7951Y24781D01*
X7845Y24851D01*
X7720Y24876D01*
X7595Y24851D01*
X7593Y24850D01*
X7488Y24924D01*
X7494Y24950D01*
Y25449D01*
X7587Y25499D01*
X7614Y25500D01*
X7750Y25473D01*
X8328D01*
X8420Y25405D01*
X8420Y25353D01*
Y25100D01*
X9380D01*
Y25388D01*
X9380Y25405D01*
X9300Y25492D01*
X9300Y25525D01*
Y26225D01*
X9277D01*
Y26623D01*
X9490D01*
X9490Y26623D01*
X9634Y26651D01*
X9757Y26733D01*
X9896Y26873D01*
X10030D01*
Y26480D01*
X10870D01*
Y28020D01*
X10030D01*
Y27627D01*
X9740D01*
X9596Y27599D01*
X9500Y27535D01*
X9415Y27564D01*
X9380Y27593D01*
Y27750D01*
X8900D01*
Y27900D01*
X8750D01*
Y28355D01*
X8667D01*
X8598Y28458D01*
X8641Y28553D01*
X8689Y28555D01*
X8700D01*
Y29288D01*
X8780Y29375D01*
X8780Y29375D01*
X8780Y29375D01*
Y29680D01*
X8300D01*
Y29830D01*
X8150D01*
Y30285D01*
X7844D01*
Y30550D01*
X8843D01*
X8934Y30588D01*
X8950Y30624D01*
X9070Y30600D01*
X9089Y30505D01*
X9159Y30399D01*
X9265Y30329D01*
X9390Y30304D01*
X9515Y30329D01*
X9621Y30399D01*
X9691Y30505D01*
X9716Y30630D01*
X9691Y30755D01*
X9691Y30755D01*
X9744Y30875D01*
X9800D01*
Y31608D01*
X9880Y31695D01*
X9880Y31695D01*
X9880Y31695D01*
Y32000D01*
X9400D01*
Y32150D01*
X9250D01*
Y32605D01*
X8920D01*
Y32211D01*
X8843Y32159D01*
X8751Y32121D01*
X8343Y31713D01*
X7934Y32121D01*
X7844Y32159D01*
Y32279D01*
X7843Y32280D01*
Y33080D01*
X7844D01*
Y34030D01*
X7830Y34100D01*
X7790Y34160D01*
X7424Y34526D01*
Y34895D01*
X7710D01*
Y34895D01*
X7790Y34875D01*
X7790Y34875D01*
X7822Y34875D01*
X8590D01*
X8590Y35608D01*
X8670Y35695D01*
X8670Y35712D01*
Y36000D01*
X8190D01*
Y36300D01*
X8670D01*
Y36605D01*
X8746Y36694D01*
X8751Y36697D01*
X8821Y36803D01*
X8846Y36928D01*
X8821Y37053D01*
X8751Y37159D01*
X8694Y37196D01*
X8731Y37316D01*
X9950D01*
X10020Y37330D01*
X10080Y37370D01*
X11150Y38440D01*
X11190Y38500D01*
X11200Y38552D01*
X11320Y38540D01*
Y38400D01*
X11650D01*
Y38705D01*
X11324D01*
X11320Y38705D01*
X11204Y38714D01*
Y38854D01*
X11506Y39156D01*
X12291D01*
X12757Y38690D01*
X12817Y38650D01*
X12887Y38636D01*
X14536D01*
X14574Y38590D01*
X14599Y38465D01*
X14669Y38359D01*
X14775Y38289D01*
X14900Y38264D01*
X15025Y38289D01*
X15082Y38327D01*
X15202Y38266D01*
Y37669D01*
X14411Y36879D01*
X14363Y36806D01*
X14346Y36720D01*
Y36265D01*
X14339Y36261D01*
X14269Y36155D01*
X14244Y36030D01*
X14269Y35905D01*
X14339Y35799D01*
X14445Y35729D01*
X14570Y35704D01*
X14695Y35729D01*
X14801Y35799D01*
X14871Y35905D01*
X14896Y36030D01*
X14879Y36115D01*
X14946Y36203D01*
X14972Y36219D01*
X15000Y36214D01*
X15125Y36239D01*
X15231Y36309D01*
X15301Y36415D01*
X15326Y36540D01*
X15325Y36548D01*
X15905Y37127D01*
X15953Y37200D01*
X15970Y37286D01*
Y37878D01*
X16090Y37934D01*
X16207Y37839D01*
X16420Y37725D01*
X16651Y37655D01*
X16891Y37631D01*
X17131Y37655D01*
X17362Y37725D01*
X17566Y37834D01*
X16714Y38685D01*
X16891Y38862D01*
X16714Y39039D01*
X17566Y39890D01*
X17362Y39999D01*
X17131Y40069D01*
X16891Y40093D01*
X16651Y40069D01*
X16420Y39999D01*
X16207Y39885D01*
X16090Y39790D01*
X15970Y39846D01*
Y40357D01*
X17936D01*
Y42447D01*
X15970D01*
Y43283D01*
X16169Y43481D01*
X16217Y43554D01*
X16234Y43640D01*
Y45178D01*
X16933Y45876D01*
X16935Y45874D01*
X17146Y45787D01*
X17374Y45757D01*
X17601Y45787D01*
X17812Y45874D01*
X17994Y46014D01*
X18014Y46040D01*
X18134Y45999D01*
D02*
G37*
G36*
X10768Y45393D02*
X10987Y45225D01*
X11230Y45124D01*
Y44375D01*
X12149D01*
X12161Y44361D01*
X12164Y44337D01*
X12066Y44225D01*
X11230D01*
Y43475D01*
X11425D01*
Y42972D01*
X10880D01*
Y41772D01*
X10774Y41699D01*
X10755Y41711D01*
X10630Y41736D01*
X10505Y41711D01*
X10466Y41685D01*
X10320D01*
Y42022D01*
X8752D01*
X8680Y42022D01*
X8632Y42122D01*
Y43084D01*
X9661Y44113D01*
X9704Y44178D01*
X9719Y44254D01*
Y44574D01*
X9800Y44664D01*
X9925Y44689D01*
X10031Y44759D01*
X10101Y44865D01*
X10126Y44990D01*
X10101Y45115D01*
X10031Y45221D01*
X10021Y45227D01*
X10058Y45347D01*
X10637D01*
Y45377D01*
X10751Y45416D01*
X10768Y45393D01*
D02*
G37*
G36*
X10505Y41109D02*
X10630Y41084D01*
X10755Y41109D01*
X10783Y41127D01*
X10880Y41048D01*
Y39832D01*
X12520D01*
Y40177D01*
X12602D01*
X12707Y40198D01*
X12797Y40257D01*
X13204Y40665D01*
X13727D01*
X13743Y40658D01*
X13830Y40618D01*
Y39875D01*
X14770D01*
Y40625D01*
X14770D01*
X14783Y40685D01*
X14783Y40685D01*
X14783Y40740D01*
Y40799D01*
X14903Y40864D01*
X14966Y40821D01*
X15110Y40793D01*
X15254Y40821D01*
X15377Y40903D01*
X15402Y40941D01*
X15522Y40904D01*
Y39162D01*
X15411Y39116D01*
X15019Y39509D01*
X14946Y39557D01*
X14860Y39574D01*
X14770D01*
Y39725D01*
X13830D01*
Y39004D01*
X12963D01*
X12497Y39470D01*
X12437Y39510D01*
X12367Y39524D01*
X11430D01*
X11360Y39510D01*
X11300Y39470D01*
X10911Y39081D01*
X10781Y39061D01*
X10675Y39131D01*
X10550Y39156D01*
X10456Y39138D01*
X10376Y39194D01*
X10352Y39227D01*
X10356Y39250D01*
X10331Y39375D01*
X10261Y39481D01*
X10155Y39551D01*
X10030Y39576D01*
X9905Y39551D01*
X9812Y39489D01*
X8632Y40669D01*
Y40682D01*
X8680Y40782D01*
X8752Y40782D01*
X10320D01*
Y41135D01*
X10466D01*
X10505Y41109D01*
D02*
G37*
G36*
X8843Y30680D02*
X7843D01*
Y32030D01*
X8343Y31530D01*
X8843Y32030D01*
Y30680D01*
D02*
G37*
G36*
X7021Y26850D02*
X6521Y27350D01*
X6021Y26850D01*
Y28200D01*
X7021D01*
Y26850D01*
D02*
G37*
G36*
X5600D02*
X5100Y27350D01*
X4600Y26850D01*
Y28200D01*
X5600D01*
Y26850D01*
D02*
G37*
G36*
X7021Y26600D02*
Y25800D01*
X6021D01*
Y26600D01*
X6521Y27100D01*
X7021Y26600D01*
D02*
G37*
G36*
X5600D02*
Y25800D01*
X4600D01*
Y26600D01*
X5100Y27100D01*
X5600Y26600D01*
D02*
G37*
G36*
X5700Y24500D02*
X5200Y24000D01*
X4700Y24500D01*
Y25300D01*
X5700D01*
Y24500D01*
D02*
G37*
G36*
X4460D02*
X3960Y24000D01*
X3460Y24500D01*
Y25300D01*
X4460D01*
Y24500D01*
D02*
G37*
G36*
X5700Y22900D02*
X4700D01*
Y24250D01*
X5200Y23750D01*
X5700Y24250D01*
Y22900D01*
D02*
G37*
G36*
X4460D02*
X3460D01*
Y24250D01*
X3960Y23750D01*
X4460Y24250D01*
Y22900D01*
D02*
G37*
G36*
X1064Y22387D02*
X1123Y22347D01*
X1193Y22333D01*
X2109D01*
X2127Y22337D01*
X2139Y22319D01*
X2245Y22249D01*
X2370Y22224D01*
X2452Y22240D01*
X2572Y22167D01*
Y21795D01*
X2452Y21754D01*
X2396Y21827D01*
X2178Y21995D01*
X1924Y22100D01*
X1651Y22136D01*
X1378Y22100D01*
X1124Y21995D01*
X906Y21827D01*
X738Y21609D01*
X633Y21355D01*
X597Y21082D01*
X633Y20809D01*
X738Y20555D01*
X906Y20337D01*
X1124Y20169D01*
X1378Y20064D01*
X1651Y20028D01*
X1924Y20064D01*
X1955Y20077D01*
X2044Y20046D01*
X2093Y20004D01*
X2095Y19984D01*
X2029Y19885D01*
X2004Y19760D01*
X2026Y19648D01*
X1995Y19605D01*
X1938Y19554D01*
X1924Y19560D01*
X1651Y19596D01*
X1378Y19560D01*
X1124Y19455D01*
X906Y19287D01*
X738Y19069D01*
X633Y18815D01*
X597Y18542D01*
X633Y18269D01*
X738Y18015D01*
X906Y17797D01*
X1124Y17629D01*
X1378Y17524D01*
X1651Y17488D01*
X1924Y17524D01*
X2178Y17629D01*
X2396Y17797D01*
X2546Y17992D01*
X2640Y17975D01*
X2666Y17961D01*
Y16574D01*
X2546Y16552D01*
X2396Y16747D01*
X2178Y16915D01*
X1924Y17020D01*
X1651Y17056D01*
X1378Y17020D01*
X1124Y16915D01*
X906Y16747D01*
X738Y16529D01*
X633Y16275D01*
X597Y16002D01*
X633Y15729D01*
X738Y15475D01*
X906Y15257D01*
X1124Y15089D01*
X1378Y14984D01*
X1651Y14948D01*
X1924Y14984D01*
X2178Y15089D01*
X2396Y15257D01*
X2546Y15452D01*
X2666Y15430D01*
Y14737D01*
X2249Y14320D01*
X2178Y14375D01*
X1924Y14480D01*
X1651Y14516D01*
X1378Y14480D01*
X1124Y14375D01*
X906Y14207D01*
X738Y13989D01*
X633Y13735D01*
X597Y13462D01*
X633Y13189D01*
X738Y12935D01*
X906Y12717D01*
X1124Y12549D01*
X1378Y12444D01*
X1651Y12408D01*
X1924Y12444D01*
X2178Y12549D01*
X2396Y12717D01*
X2564Y12935D01*
X2669Y13189D01*
X2705Y13462D01*
X2669Y13735D01*
X2564Y13989D01*
X2509Y14060D01*
X2796Y14347D01*
X2906Y14301D01*
Y10236D01*
X2464Y9794D01*
X1971D01*
X1947Y9914D01*
X2178Y10009D01*
X2396Y10177D01*
X2564Y10395D01*
X2669Y10649D01*
X2705Y10922D01*
X2669Y11195D01*
X2564Y11449D01*
X2396Y11667D01*
X2178Y11835D01*
X1924Y11940D01*
X1651Y11976D01*
X1378Y11940D01*
X1124Y11835D01*
X906Y11667D01*
X738Y11449D01*
X633Y11195D01*
X597Y10922D01*
X633Y10649D01*
X738Y10395D01*
X906Y10177D01*
X1124Y10009D01*
X1355Y9914D01*
X1331Y9794D01*
X1316D01*
X1246Y9780D01*
X1187Y9740D01*
X528Y9081D01*
X408Y9131D01*
Y22873D01*
X528Y22923D01*
X1064Y22387D01*
D02*
G37*
G36*
X6592Y16665D02*
X6697Y16644D01*
X7147D01*
X7177Y16650D01*
X7297Y16619D01*
X7328Y16499D01*
X7322Y16469D01*
Y16019D01*
X7343Y15914D01*
X7361Y15886D01*
X7240Y15765D01*
X6766D01*
X6696Y15751D01*
X6636Y15712D01*
X6417Y15493D01*
X6378Y15433D01*
X6364Y15363D01*
Y15139D01*
X6177D01*
Y14684D01*
X6084Y14649D01*
X6057Y14644D01*
X5956Y14711D01*
X5831Y14736D01*
X5706Y14711D01*
X5600Y14641D01*
X5530Y14535D01*
X5505Y14410D01*
X5530Y14285D01*
X5600Y14179D01*
X5706Y14109D01*
X5831Y14084D01*
X5956Y14109D01*
X6057Y14176D01*
X6084Y14171D01*
X6177Y14136D01*
Y13699D01*
X6917D01*
Y13699D01*
X6977D01*
Y13699D01*
X7164D01*
Y13130D01*
X6600D01*
X6508Y13092D01*
X6470Y13000D01*
Y12584D01*
X6310D01*
Y12990D01*
X6272Y13082D01*
X6180Y13120D01*
X5180D01*
X5088Y13082D01*
X5050Y12990D01*
Y11640D01*
X5088Y11548D01*
X5066Y11428D01*
X5050Y11390D01*
Y10590D01*
X5088Y10498D01*
X5180Y10460D01*
X5212D01*
X5252Y10387D01*
X5266Y10340D01*
X5244Y10230D01*
X5269Y10105D01*
X5339Y9999D01*
X5445Y9929D01*
X5570Y9904D01*
X5695Y9929D01*
X5801Y9999D01*
X5810Y10013D01*
X5930Y9977D01*
Y8180D01*
X6247D01*
Y8000D01*
X6096D01*
Y7200D01*
X6829D01*
X6916Y7120D01*
X6916Y7120D01*
X6916Y7120D01*
X7221D01*
Y7600D01*
Y8080D01*
X7218D01*
X7170Y8180D01*
Y10220D01*
X7104D01*
Y10470D01*
X7600D01*
X7692Y10508D01*
X7730Y10600D01*
Y11400D01*
X7714Y11438D01*
X7692Y11558D01*
X7730Y11650D01*
Y13000D01*
X7692Y13092D01*
X7600Y13130D01*
X7531D01*
Y13699D01*
X7717D01*
Y13699D01*
X7777D01*
Y13699D01*
X7964D01*
Y13115D01*
X7908Y13092D01*
X7870Y13000D01*
Y11650D01*
X7908Y11558D01*
X7886Y11438D01*
X7870Y11400D01*
Y10600D01*
X7908Y10508D01*
X8000Y10470D01*
X8496D01*
Y10220D01*
X8430D01*
Y8180D01*
X8400Y8118D01*
Y7600D01*
X8100D01*
Y8080D01*
X7521D01*
Y7600D01*
Y7120D01*
X7874D01*
X7920Y7009D01*
X7680Y6770D01*
X7640Y6710D01*
X7626Y6640D01*
Y5980D01*
X7400D01*
Y5500D01*
X7100D01*
Y5980D01*
X6795D01*
Y5980D01*
X6725Y5900D01*
X5975D01*
Y5100D01*
X6112D01*
Y4885D01*
X6055D01*
Y4315D01*
X6112D01*
Y4002D01*
X5427D01*
Y408D01*
X408D01*
Y6656D01*
X528Y6706D01*
X793Y6440D01*
X738Y6369D01*
X633Y6115D01*
X597Y5842D01*
X633Y5569D01*
X738Y5315D01*
X906Y5097D01*
X1124Y4929D01*
X1378Y4824D01*
X1651Y4788D01*
X1924Y4824D01*
X2178Y4929D01*
X2396Y5097D01*
X2564Y5315D01*
X2669Y5569D01*
X2705Y5842D01*
X2669Y6115D01*
X2564Y6369D01*
X2396Y6587D01*
X2178Y6755D01*
X1924Y6860D01*
X1651Y6896D01*
X1378Y6860D01*
X1124Y6755D01*
X1053Y6700D01*
X730Y7023D01*
Y7669D01*
X850Y7710D01*
X906Y7637D01*
X1124Y7469D01*
X1378Y7364D01*
X1651Y7328D01*
X1924Y7364D01*
X2178Y7469D01*
X2396Y7637D01*
X2564Y7855D01*
X2669Y8109D01*
X2705Y8382D01*
X2669Y8655D01*
X2564Y8909D01*
X2509Y8980D01*
X3460Y9931D01*
X3500Y9991D01*
X3514Y10061D01*
Y16550D01*
X3634Y16621D01*
X3720Y16604D01*
X3734Y16606D01*
X3801Y16539D01*
X3861Y16499D01*
X3931Y16485D01*
X4377D01*
Y16299D01*
X4377D01*
Y16239D01*
X4377D01*
Y15499D01*
X4721D01*
X4789Y15379D01*
X4771Y15287D01*
X4796Y15162D01*
X4866Y15057D01*
X4972Y14986D01*
X5097Y14961D01*
X5222Y14986D01*
X5328Y15057D01*
X5399Y15162D01*
X5423Y15287D01*
X5405Y15379D01*
X5474Y15499D01*
X5817D01*
Y15685D01*
X5879D01*
X5949Y15699D01*
X6009Y15739D01*
X6230Y15960D01*
X6270Y16020D01*
X6284Y16090D01*
Y16424D01*
X6551Y16692D01*
X6592Y16665D01*
D02*
G37*
G36*
X15100Y12575D02*
X14300D01*
X13800Y13075D01*
X14300Y13575D01*
X15100D01*
Y12575D01*
D02*
G37*
G36*
X13550Y13075D02*
X14050Y12575D01*
X12700D01*
Y13575D01*
X14050D01*
X13550Y13075D01*
D02*
G37*
G36*
X9000Y11650D02*
X8500Y12150D01*
X8000Y11650D01*
Y13000D01*
X9000D01*
Y11650D01*
D02*
G37*
G36*
X7600D02*
X7100Y12150D01*
X6600Y11650D01*
Y13000D01*
X7600D01*
Y11650D01*
D02*
G37*
G36*
X6180Y11640D02*
X5680Y12140D01*
X5180Y11640D01*
Y12990D01*
X6180D01*
Y11640D01*
D02*
G37*
G36*
X10565Y12236D02*
Y12210D01*
X11020D01*
Y11910D01*
X10565D01*
Y11580D01*
Y11340D01*
X11020D01*
Y11190D01*
X11170D01*
Y10710D01*
X11475D01*
Y10710D01*
X11562Y10790D01*
X11727D01*
X11763Y10670D01*
X11743Y10657D01*
X11743Y10657D01*
X11543Y10457D01*
X11461Y10334D01*
X11433Y10190D01*
X11433Y10190D01*
Y8455D01*
X11250D01*
Y8000D01*
X11100D01*
Y7850D01*
X10620D01*
Y7545D01*
X10528Y7477D01*
X10440D01*
X10440Y7477D01*
X10296Y7449D01*
X10173Y7367D01*
X10173Y7367D01*
X9890Y7083D01*
X9858Y7089D01*
X9819Y7220D01*
X9860Y7261D01*
X9900Y7320D01*
X9914Y7390D01*
Y10175D01*
X9900Y10245D01*
X9860Y10304D01*
X9504Y10661D01*
Y10851D01*
X9624Y10905D01*
X9730Y10884D01*
X9855Y10909D01*
X9961Y10979D01*
X10031Y11085D01*
X10056Y11210D01*
X10031Y11335D01*
X9961Y11441D01*
X9914Y11472D01*
Y11754D01*
X10445Y12285D01*
X10565Y12236D01*
D02*
G37*
G36*
X9000Y11400D02*
Y10600D01*
X8000D01*
Y11400D01*
X8500Y11900D01*
X9000Y11400D01*
D02*
G37*
G36*
X7600D02*
Y10600D01*
X6600D01*
Y11400D01*
X7100Y11900D01*
X7600Y11400D01*
D02*
G37*
G36*
X6180Y11390D02*
Y10590D01*
X5180D01*
Y11390D01*
X5680Y11890D01*
X6180Y11390D01*
D02*
G37*
G36*
X15602Y11008D02*
Y10274D01*
X15616Y10204D01*
X15656Y10144D01*
X16280Y9520D01*
X16340Y9480D01*
X16410Y9466D01*
X16465D01*
X16489Y9346D01*
X16364Y9295D01*
X16146Y9127D01*
X15978Y8909D01*
X15873Y8655D01*
X15837Y8382D01*
X15873Y8109D01*
X15935Y7959D01*
X15523Y7547D01*
X14795D01*
Y8040D01*
X14950D01*
Y8940D01*
X13500D01*
Y9240D01*
X14950D01*
Y10140D01*
X14844D01*
X14819Y10198D01*
X14801Y10260D01*
X14827Y10390D01*
Y10800D01*
X14799Y10944D01*
X14717Y11067D01*
X14717Y11067D01*
X14638Y11146D01*
X14684Y11256D01*
X15354D01*
X15602Y11008D01*
D02*
G37*
G36*
X17812Y7669D02*
Y7023D01*
X17489Y6700D01*
X17418Y6755D01*
X17164Y6860D01*
X16891Y6896D01*
X16618Y6860D01*
X16364Y6755D01*
X16146Y6587D01*
X15978Y6369D01*
X15873Y6115D01*
X15837Y5842D01*
X15873Y5569D01*
X15978Y5315D01*
X16146Y5097D01*
X16364Y4929D01*
X16618Y4824D01*
X16891Y4788D01*
X17164Y4824D01*
X17418Y4929D01*
X17636Y5097D01*
X17804Y5315D01*
X17909Y5569D01*
X17945Y5842D01*
X17909Y6115D01*
X17804Y6369D01*
X17749Y6440D01*
X18014Y6706D01*
X18134Y6656D01*
Y408D01*
X13347D01*
Y1154D01*
X13467Y1250D01*
X13500Y1244D01*
X13625Y1269D01*
X13664Y1295D01*
X13806D01*
Y1092D01*
X14846D01*
Y2132D01*
X13806D01*
Y1845D01*
X13664D01*
X13625Y1871D01*
X13500Y1896D01*
X13467Y1890D01*
X13347Y1986D01*
Y3925D01*
X13816D01*
X13989Y3752D01*
X13939Y3632D01*
X13806D01*
Y2592D01*
X14846D01*
Y3632D01*
X14601D01*
Y3804D01*
X14601Y3804D01*
X14580Y3909D01*
X14521Y3999D01*
X14125Y4395D01*
X14035Y4454D01*
X13930Y4475D01*
X12274D01*
X12191Y4559D01*
X12181Y4605D01*
X12111Y4711D01*
X12005Y4781D01*
X11913Y4800D01*
X11869Y4892D01*
X11866Y4922D01*
X12217Y5273D01*
X12217Y5273D01*
X12299Y5396D01*
X12327Y5540D01*
X12327Y5540D01*
Y6214D01*
X12523Y6410D01*
X12637Y6353D01*
X12630Y6300D01*
Y5800D01*
X12651Y5638D01*
X12713Y5487D01*
X12813Y5358D01*
X12942Y5258D01*
X13093Y5196D01*
X13255Y5175D01*
X13417Y5196D01*
X13568Y5258D01*
X13697Y5358D01*
X13785Y5472D01*
X13839Y5468D01*
X13905Y5439D01*
Y5180D01*
X15145D01*
Y6793D01*
X15679D01*
X15679Y6793D01*
X15823Y6821D01*
X15946Y6903D01*
X16468Y7426D01*
X16618Y7364D01*
X16891Y7328D01*
X17164Y7364D01*
X17418Y7469D01*
X17636Y7637D01*
X17692Y7710D01*
X17812Y7669D01*
D02*
G37*
G36*
X11642Y6682D02*
X11670Y6616D01*
X11601Y6514D01*
X11573Y6370D01*
X11573Y6370D01*
Y5696D01*
X10824Y4947D01*
X9560D01*
X9416Y4919D01*
X9293Y4837D01*
X9211Y4714D01*
X9183Y4570D01*
X9211Y4426D01*
X9293Y4303D01*
X9416Y4221D01*
X9560Y4193D01*
X10980D01*
X10980Y4193D01*
X11124Y4221D01*
X11247Y4303D01*
X11438Y4494D01*
X11468Y4491D01*
X11560Y4447D01*
X11579Y4355D01*
X11649Y4249D01*
X11720Y4202D01*
X11684Y4082D01*
X11247D01*
Y2182D01*
X12297D01*
Y1882D01*
X11247D01*
Y408D01*
X10430D01*
X10394Y528D01*
X10404Y534D01*
X10649Y779D01*
X10695Y789D01*
X10801Y859D01*
X10871Y965D01*
X10896Y1090D01*
X10871Y1215D01*
X10801Y1321D01*
X10695Y1391D01*
X10570Y1416D01*
X10445Y1391D01*
X10339Y1321D01*
X10269Y1215D01*
X10259Y1169D01*
X10095Y1004D01*
X8164D01*
X8125Y1030D01*
X8000Y1055D01*
X7875Y1030D01*
X7769Y960D01*
X7699Y854D01*
X7674Y729D01*
X7699Y604D01*
X7750Y528D01*
X7713Y428D01*
X7696Y408D01*
X7367D01*
Y4002D01*
X6663D01*
Y4235D01*
X6863D01*
Y4600D01*
X7012D01*
Y4750D01*
X7425D01*
Y4826D01*
X7600D01*
X7670Y4840D01*
X7730Y4880D01*
X7940Y5090D01*
X7980Y5150D01*
X7994Y5220D01*
Y6291D01*
X8114Y6328D01*
X8123Y6313D01*
X8246Y6231D01*
X8390Y6203D01*
X8534Y6231D01*
X8596Y6273D01*
X9495D01*
Y6150D01*
X9950D01*
Y6000D01*
X10100D01*
Y5520D01*
X10405D01*
Y5520D01*
X10492Y5600D01*
X11225D01*
Y5989D01*
X11227Y6000D01*
Y6723D01*
X11590D01*
X11590Y6723D01*
X11602Y6725D01*
X11642Y6682D01*
D02*
G37*
G36*
X-18876Y-16932D02*
X-18857Y-16935D01*
X-18815Y-16940D01*
X-18765Y-16952D01*
X-18712Y-16968D01*
X-18660Y-16993D01*
X-18607Y-17024D01*
X-18604D01*
X-18601Y-17029D01*
X-18585Y-17040D01*
X-18560Y-17063D01*
X-18529Y-17090D01*
X-18496Y-17126D01*
X-18463Y-17171D01*
X-18429Y-17224D01*
X-18401Y-17282D01*
Y-17285D01*
X-18399Y-17290D01*
X-18396Y-17299D01*
X-18390Y-17310D01*
X-18385Y-17326D01*
X-18379Y-17346D01*
X-18365Y-17390D01*
X-18351Y-17446D01*
X-18340Y-17507D01*
X-18332Y-17576D01*
X-18329Y-17648D01*
Y-17651D01*
Y-17657D01*
Y-17668D01*
Y-17684D01*
X-18332Y-17704D01*
Y-17726D01*
X-18338Y-17776D01*
X-18349Y-17837D01*
X-18363Y-17901D01*
X-18382Y-17968D01*
X-18407Y-18034D01*
Y-18037D01*
X-18410Y-18043D01*
X-18415Y-18051D01*
X-18421Y-18062D01*
X-18440Y-18093D01*
X-18465Y-18131D01*
X-18496Y-18173D01*
X-18535Y-18215D01*
X-18579Y-18256D01*
X-18632Y-18295D01*
X-18635D01*
X-18637Y-18298D01*
X-18646Y-18304D01*
X-18657Y-18309D01*
X-18685Y-18323D01*
X-18723Y-18340D01*
X-18771Y-18356D01*
X-18821Y-18370D01*
X-18879Y-18381D01*
X-18937Y-18384D01*
X-18957D01*
X-18979Y-18381D01*
X-19007Y-18379D01*
X-19040Y-18373D01*
X-19076Y-18365D01*
X-19112Y-18354D01*
X-19148Y-18337D01*
X-19151Y-18334D01*
X-19165Y-18329D01*
X-19182Y-18317D01*
X-19204Y-18301D01*
X-19226Y-18284D01*
X-19254Y-18262D01*
X-19279Y-18237D01*
X-19301Y-18209D01*
Y-18887D01*
X-19537D01*
Y-16960D01*
X-19323D01*
Y-17143D01*
X-19320Y-17138D01*
X-19309Y-17126D01*
X-19295Y-17107D01*
X-19273Y-17085D01*
X-19248Y-17057D01*
X-19220Y-17032D01*
X-19187Y-17007D01*
X-19154Y-16985D01*
X-19148Y-16982D01*
X-19137Y-16977D01*
X-19115Y-16968D01*
X-19087Y-16957D01*
X-19054Y-16946D01*
X-19015Y-16938D01*
X-18971Y-16932D01*
X-18921Y-16929D01*
X-18890D01*
X-18876Y-16932D01*
D02*
G37*
G36*
X-10917D02*
X-10886Y-16938D01*
X-10850Y-16949D01*
X-10811Y-16963D01*
X-10767Y-16982D01*
X-10720Y-17007D01*
X-10806Y-17224D01*
X-10808Y-17221D01*
X-10820Y-17215D01*
X-10836Y-17207D01*
X-10858Y-17199D01*
X-10883Y-17190D01*
X-10914Y-17182D01*
X-10945Y-17176D01*
X-10975Y-17174D01*
X-10989D01*
X-11003Y-17176D01*
X-11022Y-17179D01*
X-11042Y-17185D01*
X-11067Y-17193D01*
X-11092Y-17204D01*
X-11114Y-17221D01*
X-11117Y-17224D01*
X-11125Y-17229D01*
X-11133Y-17240D01*
X-11147Y-17254D01*
X-11161Y-17274D01*
X-11175Y-17296D01*
X-11189Y-17321D01*
X-11200Y-17351D01*
X-11203Y-17357D01*
X-11205Y-17374D01*
X-11211Y-17399D01*
X-11219Y-17432D01*
X-11228Y-17474D01*
X-11233Y-17521D01*
X-11236Y-17571D01*
X-11239Y-17626D01*
Y-18354D01*
X-11475D01*
Y-16960D01*
X-11261D01*
Y-17171D01*
X-11258Y-17168D01*
X-11247Y-17149D01*
X-11233Y-17124D01*
X-11211Y-17093D01*
X-11189Y-17063D01*
X-11164Y-17029D01*
X-11139Y-17002D01*
X-11114Y-16979D01*
X-11111Y-16977D01*
X-11103Y-16971D01*
X-11086Y-16963D01*
X-11069Y-16954D01*
X-11047Y-16946D01*
X-11019Y-16938D01*
X-10992Y-16932D01*
X-10961Y-16929D01*
X-10942D01*
X-10917Y-16932D01*
D02*
G37*
G36*
X-13699Y-18376D02*
Y-18379D01*
X-13701Y-18387D01*
X-13707Y-18398D01*
X-13712Y-18412D01*
X-13721Y-18431D01*
X-13729Y-18454D01*
X-13749Y-18501D01*
X-13768Y-18553D01*
X-13790Y-18606D01*
X-13812Y-18653D01*
X-13823Y-18673D01*
X-13832Y-18692D01*
X-13835Y-18698D01*
X-13843Y-18712D01*
X-13857Y-18731D01*
X-13873Y-18756D01*
X-13896Y-18784D01*
X-13921Y-18812D01*
X-13946Y-18839D01*
X-13976Y-18862D01*
X-13979Y-18864D01*
X-13990Y-18870D01*
X-14007Y-18878D01*
X-14032Y-18889D01*
X-14059Y-18900D01*
X-14093Y-18909D01*
X-14129Y-18914D01*
X-14170Y-18917D01*
X-14182D01*
X-14195Y-18914D01*
X-14215D01*
X-14237Y-18909D01*
X-14262Y-18903D01*
X-14290Y-18898D01*
X-14320Y-18887D01*
X-14345Y-18667D01*
X-14343D01*
X-14332Y-18670D01*
X-14318Y-18673D01*
X-14301Y-18678D01*
X-14257Y-18687D01*
X-14212Y-18689D01*
X-14198D01*
X-14184Y-18687D01*
X-14168D01*
X-14126Y-18678D01*
X-14107Y-18670D01*
X-14087Y-18662D01*
X-14084D01*
X-14079Y-18656D01*
X-14071Y-18651D01*
X-14059Y-18642D01*
X-14034Y-18620D01*
X-14012Y-18590D01*
Y-18587D01*
X-14007Y-18581D01*
X-14001Y-18570D01*
X-13996Y-18553D01*
X-13984Y-18531D01*
X-13973Y-18498D01*
X-13957Y-18459D01*
X-13940Y-18412D01*
Y-18409D01*
X-13935Y-18398D01*
X-13929Y-18379D01*
X-13918Y-18354D01*
X-14445Y-16960D01*
X-14195D01*
X-13904Y-17768D01*
Y-17771D01*
X-13901Y-17773D01*
X-13898Y-17782D01*
X-13896Y-17796D01*
X-13890Y-17809D01*
X-13885Y-17826D01*
X-13871Y-17865D01*
X-13854Y-17912D01*
X-13837Y-17968D01*
X-13821Y-18026D01*
X-13804Y-18090D01*
Y-18087D01*
X-13801Y-18081D01*
X-13798Y-18073D01*
X-13796Y-18062D01*
X-13793Y-18048D01*
X-13787Y-18032D01*
X-13776Y-17990D01*
X-13762Y-17943D01*
X-13743Y-17887D01*
X-13726Y-17832D01*
X-13704Y-17773D01*
X-13404Y-16960D01*
X-13168D01*
X-13699Y-18376D01*
D02*
G37*
G36*
X-15153Y-16932D02*
X-15112Y-16935D01*
X-15064Y-16940D01*
X-15017Y-16949D01*
X-14970Y-16960D01*
X-14926Y-16974D01*
X-14920Y-16977D01*
X-14906Y-16982D01*
X-14887Y-16990D01*
X-14862Y-17002D01*
X-14834Y-17018D01*
X-14806Y-17035D01*
X-14781Y-17057D01*
X-14759Y-17079D01*
X-14756Y-17082D01*
X-14751Y-17090D01*
X-14742Y-17104D01*
X-14731Y-17121D01*
X-14717Y-17146D01*
X-14706Y-17171D01*
X-14695Y-17201D01*
X-14687Y-17238D01*
Y-17240D01*
X-14684Y-17249D01*
X-14681Y-17265D01*
X-14679Y-17288D01*
Y-17318D01*
X-14676Y-17354D01*
X-14673Y-17401D01*
Y-17454D01*
Y-17771D01*
Y-17773D01*
Y-17784D01*
Y-17801D01*
Y-17823D01*
Y-17848D01*
Y-17879D01*
X-14670Y-17945D01*
Y-18015D01*
X-14667Y-18084D01*
X-14665Y-18115D01*
Y-18143D01*
X-14662Y-18168D01*
X-14659Y-18187D01*
Y-18190D01*
X-14656Y-18201D01*
X-14654Y-18218D01*
X-14645Y-18240D01*
X-14640Y-18265D01*
X-14629Y-18292D01*
X-14615Y-18323D01*
X-14601Y-18354D01*
X-14848D01*
X-14851Y-18351D01*
X-14853Y-18340D01*
X-14859Y-18326D01*
X-14867Y-18304D01*
X-14876Y-18279D01*
X-14881Y-18248D01*
X-14887Y-18215D01*
X-14892Y-18179D01*
X-14895D01*
X-14898Y-18184D01*
X-14915Y-18198D01*
X-14940Y-18218D01*
X-14973Y-18243D01*
X-15014Y-18268D01*
X-15056Y-18295D01*
X-15101Y-18320D01*
X-15148Y-18340D01*
X-15153Y-18342D01*
X-15170Y-18345D01*
X-15195Y-18354D01*
X-15225Y-18362D01*
X-15264Y-18370D01*
X-15309Y-18376D01*
X-15359Y-18381D01*
X-15409Y-18384D01*
X-15431D01*
X-15448Y-18381D01*
X-15467D01*
X-15489Y-18379D01*
X-15539Y-18370D01*
X-15595Y-18356D01*
X-15656Y-18337D01*
X-15711Y-18309D01*
X-15761Y-18273D01*
X-15767Y-18268D01*
X-15781Y-18254D01*
X-15800Y-18229D01*
X-15822Y-18195D01*
X-15845Y-18154D01*
X-15864Y-18106D01*
X-15878Y-18048D01*
X-15881Y-18020D01*
X-15883Y-17987D01*
Y-17982D01*
Y-17970D01*
X-15881Y-17951D01*
X-15878Y-17926D01*
X-15872Y-17895D01*
X-15864Y-17865D01*
X-15853Y-17832D01*
X-15839Y-17801D01*
X-15836Y-17798D01*
X-15831Y-17787D01*
X-15820Y-17771D01*
X-15806Y-17751D01*
X-15789Y-17729D01*
X-15767Y-17707D01*
X-15745Y-17684D01*
X-15717Y-17665D01*
X-15714Y-17662D01*
X-15703Y-17657D01*
X-15689Y-17646D01*
X-15667Y-17635D01*
X-15642Y-17623D01*
X-15611Y-17610D01*
X-15581Y-17598D01*
X-15545Y-17587D01*
X-15542D01*
X-15531Y-17585D01*
X-15514Y-17579D01*
X-15492Y-17576D01*
X-15464Y-17571D01*
X-15428Y-17565D01*
X-15386Y-17557D01*
X-15337Y-17551D01*
X-15334D01*
X-15323Y-17548D01*
X-15309D01*
X-15289Y-17546D01*
X-15267Y-17543D01*
X-15239Y-17537D01*
X-15209Y-17535D01*
X-15175Y-17529D01*
X-15109Y-17515D01*
X-15037Y-17501D01*
X-14973Y-17485D01*
X-14942Y-17476D01*
X-14915Y-17468D01*
Y-17465D01*
Y-17460D01*
X-14912Y-17443D01*
Y-17424D01*
Y-17412D01*
Y-17407D01*
Y-17404D01*
Y-17401D01*
Y-17385D01*
X-14915Y-17357D01*
X-14920Y-17326D01*
X-14928Y-17293D01*
X-14942Y-17260D01*
X-14959Y-17229D01*
X-14981Y-17204D01*
X-14984Y-17201D01*
X-14998Y-17190D01*
X-15020Y-17179D01*
X-15048Y-17163D01*
X-15087Y-17149D01*
X-15131Y-17135D01*
X-15187Y-17126D01*
X-15250Y-17124D01*
X-15278D01*
X-15306Y-17126D01*
X-15345Y-17132D01*
X-15384Y-17138D01*
X-15425Y-17149D01*
X-15464Y-17163D01*
X-15498Y-17182D01*
X-15500Y-17185D01*
X-15511Y-17193D01*
X-15525Y-17207D01*
X-15542Y-17229D01*
X-15559Y-17257D01*
X-15578Y-17293D01*
X-15595Y-17337D01*
X-15611Y-17387D01*
X-15842Y-17357D01*
Y-17354D01*
X-15839Y-17351D01*
Y-17343D01*
X-15836Y-17332D01*
X-15828Y-17307D01*
X-15817Y-17271D01*
X-15803Y-17235D01*
X-15786Y-17196D01*
X-15764Y-17157D01*
X-15739Y-17121D01*
X-15736Y-17118D01*
X-15725Y-17107D01*
X-15709Y-17090D01*
X-15686Y-17068D01*
X-15656Y-17046D01*
X-15620Y-17024D01*
X-15578Y-16999D01*
X-15531Y-16979D01*
X-15528D01*
X-15525Y-16977D01*
X-15517Y-16974D01*
X-15506Y-16971D01*
X-15478Y-16963D01*
X-15439Y-16954D01*
X-15395Y-16946D01*
X-15339Y-16938D01*
X-15281Y-16932D01*
X-15214Y-16929D01*
X-15184D01*
X-15153Y-16932D01*
D02*
G37*
G36*
X-17022Y-18126D02*
X-16075D01*
Y-18354D01*
X-17277D01*
Y-16432D01*
X-17022D01*
Y-18126D01*
D02*
G37*
G36*
X-21264Y-16660D02*
X-21897D01*
Y-18354D01*
X-22152D01*
Y-16660D01*
X-22785D01*
Y-16432D01*
X-21264D01*
Y-16660D01*
D02*
G37*
G36*
X-12349Y-16932D02*
X-12327Y-16935D01*
X-12299Y-16940D01*
X-12269Y-16946D01*
X-12233Y-16954D01*
X-12199Y-16963D01*
X-12161Y-16977D01*
X-12124Y-16990D01*
X-12086Y-17010D01*
X-12047Y-17032D01*
X-12008Y-17057D01*
X-11972Y-17088D01*
X-11938Y-17121D01*
X-11936Y-17124D01*
X-11930Y-17129D01*
X-11922Y-17140D01*
X-11911Y-17157D01*
X-11897Y-17176D01*
X-11883Y-17199D01*
X-11866Y-17226D01*
X-11850Y-17260D01*
X-11833Y-17296D01*
X-11816Y-17335D01*
X-11802Y-17379D01*
X-11788Y-17426D01*
X-11777Y-17479D01*
X-11769Y-17535D01*
X-11764Y-17593D01*
X-11761Y-17657D01*
Y-17660D01*
Y-17671D01*
Y-17690D01*
X-11764Y-17718D01*
X-12805D01*
Y-17721D01*
Y-17729D01*
X-12802Y-17740D01*
Y-17757D01*
X-12799Y-17776D01*
X-12793Y-17798D01*
X-12785Y-17848D01*
X-12769Y-17904D01*
X-12746Y-17965D01*
X-12716Y-18020D01*
X-12677Y-18070D01*
X-12674D01*
X-12671Y-18076D01*
X-12655Y-18090D01*
X-12630Y-18109D01*
X-12596Y-18129D01*
X-12552Y-18151D01*
X-12502Y-18170D01*
X-12446Y-18184D01*
X-12416Y-18187D01*
X-12383Y-18190D01*
X-12360D01*
X-12335Y-18187D01*
X-12305Y-18181D01*
X-12272Y-18173D01*
X-12233Y-18162D01*
X-12197Y-18145D01*
X-12161Y-18123D01*
X-12158Y-18120D01*
X-12144Y-18109D01*
X-12127Y-18093D01*
X-12108Y-18070D01*
X-12086Y-18040D01*
X-12061Y-18001D01*
X-12036Y-17957D01*
X-12013Y-17904D01*
X-11769Y-17934D01*
Y-17937D01*
X-11772Y-17943D01*
X-11775Y-17954D01*
X-11780Y-17970D01*
X-11788Y-17987D01*
X-11797Y-18009D01*
X-11819Y-18057D01*
X-11847Y-18109D01*
X-11886Y-18165D01*
X-11930Y-18218D01*
X-11986Y-18268D01*
X-11988D01*
X-11994Y-18273D01*
X-12002Y-18279D01*
X-12013Y-18287D01*
X-12030Y-18295D01*
X-12047Y-18304D01*
X-12069Y-18315D01*
X-12094Y-18326D01*
X-12122Y-18337D01*
X-12149Y-18348D01*
X-12219Y-18365D01*
X-12297Y-18379D01*
X-12383Y-18384D01*
X-12413D01*
X-12433Y-18381D01*
X-12458Y-18379D01*
X-12488Y-18373D01*
X-12521Y-18367D01*
X-12558Y-18362D01*
X-12635Y-18340D01*
X-12677Y-18323D01*
X-12716Y-18306D01*
X-12757Y-18284D01*
X-12796Y-18259D01*
X-12832Y-18231D01*
X-12868Y-18198D01*
X-12871Y-18195D01*
X-12877Y-18190D01*
X-12885Y-18179D01*
X-12896Y-18162D01*
X-12910Y-18143D01*
X-12924Y-18120D01*
X-12941Y-18093D01*
X-12957Y-18062D01*
X-12974Y-18026D01*
X-12991Y-17987D01*
X-13004Y-17943D01*
X-13018Y-17895D01*
X-13029Y-17846D01*
X-13038Y-17790D01*
X-13043Y-17732D01*
X-13046Y-17671D01*
Y-17668D01*
Y-17654D01*
Y-17637D01*
X-13043Y-17612D01*
X-13041Y-17582D01*
X-13038Y-17548D01*
X-13032Y-17510D01*
X-13024Y-17471D01*
X-13002Y-17382D01*
X-12988Y-17337D01*
X-12971Y-17290D01*
X-12949Y-17246D01*
X-12924Y-17204D01*
X-12896Y-17163D01*
X-12866Y-17124D01*
X-12863Y-17121D01*
X-12857Y-17115D01*
X-12846Y-17107D01*
X-12832Y-17093D01*
X-12816Y-17079D01*
X-12793Y-17063D01*
X-12769Y-17043D01*
X-12738Y-17027D01*
X-12707Y-17007D01*
X-12671Y-16990D01*
X-12632Y-16974D01*
X-12591Y-16960D01*
X-12546Y-16946D01*
X-12499Y-16938D01*
X-12449Y-16932D01*
X-12396Y-16929D01*
X-12369D01*
X-12349Y-16932D01*
D02*
G37*
G36*
X-20420D02*
X-20395Y-16935D01*
X-20367Y-16940D01*
X-20336Y-16946D01*
X-20300Y-16952D01*
X-20225Y-16977D01*
X-20187Y-16990D01*
X-20148Y-17010D01*
X-20109Y-17029D01*
X-20070Y-17057D01*
X-20034Y-17085D01*
X-19998Y-17118D01*
X-19995Y-17121D01*
X-19989Y-17126D01*
X-19981Y-17138D01*
X-19970Y-17151D01*
X-19956Y-17171D01*
X-19939Y-17196D01*
X-19923Y-17224D01*
X-19906Y-17254D01*
X-19890Y-17288D01*
X-19873Y-17329D01*
X-19856Y-17371D01*
X-19842Y-17418D01*
X-19831Y-17468D01*
X-19823Y-17521D01*
X-19817Y-17576D01*
X-19815Y-17637D01*
Y-17640D01*
Y-17648D01*
Y-17662D01*
Y-17682D01*
X-19817Y-17704D01*
X-19820Y-17732D01*
Y-17759D01*
X-19826Y-17790D01*
X-19834Y-17859D01*
X-19851Y-17929D01*
X-19870Y-17998D01*
X-19898Y-18062D01*
Y-18065D01*
X-19901Y-18068D01*
X-19906Y-18076D01*
X-19912Y-18087D01*
X-19931Y-18115D01*
X-19956Y-18148D01*
X-19989Y-18187D01*
X-20031Y-18226D01*
X-20078Y-18265D01*
X-20134Y-18301D01*
X-20137D01*
X-20139Y-18304D01*
X-20148Y-18309D01*
X-20162Y-18315D01*
X-20175Y-18320D01*
X-20192Y-18326D01*
X-20234Y-18342D01*
X-20281Y-18356D01*
X-20339Y-18370D01*
X-20400Y-18381D01*
X-20467Y-18384D01*
X-20495D01*
X-20517Y-18381D01*
X-20542Y-18379D01*
X-20570Y-18373D01*
X-20603Y-18367D01*
X-20636Y-18362D01*
X-20711Y-18340D01*
X-20753Y-18323D01*
X-20792Y-18306D01*
X-20831Y-18284D01*
X-20870Y-18259D01*
X-20906Y-18231D01*
X-20942Y-18198D01*
X-20944Y-18195D01*
X-20950Y-18190D01*
X-20958Y-18179D01*
X-20969Y-18162D01*
X-20983Y-18143D01*
X-20997Y-18120D01*
X-21014Y-18093D01*
X-21031Y-18059D01*
X-21047Y-18023D01*
X-21064Y-17982D01*
X-21078Y-17937D01*
X-21092Y-17890D01*
X-21103Y-17837D01*
X-21111Y-17782D01*
X-21117Y-17721D01*
X-21119Y-17657D01*
Y-17651D01*
Y-17640D01*
X-21117Y-17621D01*
Y-17593D01*
X-21114Y-17562D01*
X-21108Y-17523D01*
X-21103Y-17485D01*
X-21092Y-17440D01*
X-21081Y-17396D01*
X-21067Y-17349D01*
X-21050Y-17299D01*
X-21028Y-17251D01*
X-21006Y-17207D01*
X-20975Y-17163D01*
X-20944Y-17121D01*
X-20906Y-17085D01*
X-20903Y-17082D01*
X-20897Y-17079D01*
X-20886Y-17071D01*
X-20872Y-17060D01*
X-20856Y-17049D01*
X-20833Y-17035D01*
X-20811Y-17021D01*
X-20783Y-17007D01*
X-20753Y-16993D01*
X-20720Y-16979D01*
X-20645Y-16954D01*
X-20559Y-16935D01*
X-20514Y-16932D01*
X-20467Y-16929D01*
X-20439D01*
X-20420Y-16932D01*
D02*
G37*
G36*
X20567Y-16402D02*
X20589D01*
X20642Y-16407D01*
X20700Y-16416D01*
X20761Y-16430D01*
X20828Y-16446D01*
X20892Y-16469D01*
X20895D01*
X20900Y-16471D01*
X20909Y-16474D01*
X20920Y-16480D01*
X20950Y-16496D01*
X20989Y-16516D01*
X21031Y-16543D01*
X21075Y-16577D01*
X21117Y-16613D01*
X21156Y-16657D01*
X21161Y-16663D01*
X21172Y-16680D01*
X21189Y-16705D01*
X21211Y-16741D01*
X21233Y-16785D01*
X21258Y-16841D01*
X21283Y-16902D01*
X21303Y-16971D01*
X21072Y-17032D01*
Y-17029D01*
X21070Y-17027D01*
X21067Y-17018D01*
X21064Y-17007D01*
X21056Y-16982D01*
X21045Y-16949D01*
X21028Y-16910D01*
X21008Y-16874D01*
X20989Y-16835D01*
X20964Y-16802D01*
X20961Y-16799D01*
X20953Y-16788D01*
X20936Y-16774D01*
X20917Y-16754D01*
X20892Y-16732D01*
X20859Y-16710D01*
X20822Y-16688D01*
X20781Y-16668D01*
X20775Y-16666D01*
X20761Y-16660D01*
X20736Y-16652D01*
X20703Y-16641D01*
X20664Y-16632D01*
X20620Y-16624D01*
X20570Y-16618D01*
X20517Y-16616D01*
X20487D01*
X20473Y-16618D01*
X20456D01*
X20414Y-16621D01*
X20367Y-16630D01*
X20314Y-16638D01*
X20264Y-16652D01*
X20215Y-16671D01*
X20209Y-16674D01*
X20192Y-16680D01*
X20170Y-16693D01*
X20142Y-16707D01*
X20109Y-16729D01*
X20073Y-16752D01*
X20040Y-16779D01*
X20009Y-16810D01*
X20006Y-16813D01*
X19995Y-16824D01*
X19981Y-16843D01*
X19965Y-16866D01*
X19945Y-16893D01*
X19926Y-16927D01*
X19906Y-16963D01*
X19887Y-17002D01*
Y-17004D01*
X19884Y-17010D01*
X19881Y-17018D01*
X19876Y-17032D01*
X19870Y-17049D01*
X19865Y-17068D01*
X19856Y-17090D01*
X19851Y-17115D01*
X19837Y-17174D01*
X19826Y-17240D01*
X19817Y-17310D01*
X19815Y-17387D01*
Y-17390D01*
Y-17399D01*
Y-17412D01*
X19817Y-17429D01*
Y-17451D01*
X19820Y-17479D01*
X19823Y-17507D01*
X19826Y-17537D01*
X19837Y-17607D01*
X19851Y-17679D01*
X19873Y-17751D01*
X19901Y-17821D01*
Y-17823D01*
X19906Y-17829D01*
X19909Y-17837D01*
X19917Y-17848D01*
X19937Y-17879D01*
X19967Y-17918D01*
X20004Y-17959D01*
X20048Y-18001D01*
X20101Y-18040D01*
X20159Y-18076D01*
X20162D01*
X20167Y-18079D01*
X20176Y-18084D01*
X20190Y-18090D01*
X20203Y-18095D01*
X20223Y-18101D01*
X20267Y-18118D01*
X20323Y-18131D01*
X20384Y-18145D01*
X20450Y-18156D01*
X20520Y-18159D01*
X20548D01*
X20564Y-18156D01*
X20581D01*
X20623Y-18151D01*
X20673Y-18145D01*
X20725Y-18134D01*
X20784Y-18118D01*
X20842Y-18098D01*
X20845D01*
X20850Y-18095D01*
X20856Y-18093D01*
X20867Y-18087D01*
X20897Y-18073D01*
X20931Y-18057D01*
X20970Y-18037D01*
X21011Y-18015D01*
X21050Y-17990D01*
X21083Y-17962D01*
Y-17601D01*
X20517D01*
Y-17374D01*
X21333D01*
Y-18087D01*
X21331Y-18090D01*
X21325Y-18093D01*
X21314Y-18101D01*
X21300Y-18112D01*
X21283Y-18123D01*
X21264Y-18137D01*
X21239Y-18154D01*
X21214Y-18170D01*
X21156Y-18206D01*
X21089Y-18245D01*
X21020Y-18281D01*
X20945Y-18312D01*
X20942D01*
X20936Y-18315D01*
X20925Y-18317D01*
X20911Y-18323D01*
X20892Y-18329D01*
X20870Y-18337D01*
X20845Y-18342D01*
X20820Y-18348D01*
X20759Y-18362D01*
X20689Y-18376D01*
X20614Y-18384D01*
X20537Y-18387D01*
X20509D01*
X20489Y-18384D01*
X20464D01*
X20434Y-18381D01*
X20401Y-18376D01*
X20364Y-18373D01*
X20284Y-18356D01*
X20198Y-18337D01*
X20109Y-18306D01*
X20065Y-18290D01*
X20020Y-18268D01*
X20017Y-18265D01*
X20009Y-18262D01*
X19998Y-18254D01*
X19981Y-18245D01*
X19962Y-18231D01*
X19942Y-18218D01*
X19890Y-18179D01*
X19834Y-18129D01*
X19776Y-18068D01*
X19720Y-17998D01*
X19670Y-17918D01*
Y-17915D01*
X19665Y-17907D01*
X19659Y-17895D01*
X19651Y-17876D01*
X19643Y-17857D01*
X19634Y-17829D01*
X19623Y-17801D01*
X19612Y-17768D01*
X19601Y-17732D01*
X19590Y-17690D01*
X19582Y-17648D01*
X19573Y-17604D01*
X19559Y-17507D01*
X19554Y-17404D01*
Y-17401D01*
Y-17390D01*
Y-17376D01*
X19557Y-17357D01*
Y-17332D01*
X19559Y-17301D01*
X19565Y-17271D01*
X19568Y-17235D01*
X19576Y-17196D01*
X19582Y-17154D01*
X19604Y-17065D01*
X19631Y-16974D01*
X19670Y-16882D01*
X19673Y-16879D01*
X19676Y-16871D01*
X19681Y-16860D01*
X19693Y-16843D01*
X19704Y-16821D01*
X19718Y-16799D01*
X19756Y-16746D01*
X19804Y-16685D01*
X19862Y-16627D01*
X19929Y-16568D01*
X19967Y-16543D01*
X20006Y-16518D01*
X20009Y-16516D01*
X20017Y-16513D01*
X20028Y-16507D01*
X20045Y-16499D01*
X20067Y-16491D01*
X20092Y-16480D01*
X20120Y-16469D01*
X20153Y-16457D01*
X20190Y-16446D01*
X20228Y-16438D01*
X20270Y-16427D01*
X20314Y-16419D01*
X20412Y-16405D01*
X20462Y-16399D01*
X20550D01*
X20567Y-16402D01*
D02*
G37*
G36*
X23593Y-18126D02*
X24540D01*
Y-18354D01*
X23338D01*
Y-16432D01*
X23593D01*
Y-18126D01*
D02*
G37*
G36*
X23085Y-16660D02*
X22452D01*
Y-18354D01*
X22197D01*
Y-16660D01*
X21564D01*
Y-16432D01*
X23085D01*
Y-16660D01*
D02*
G37*
G36*
X19179Y-18354D02*
X18910D01*
Y-18084D01*
X19179D01*
Y-18354D01*
D02*
G37*
%LPC*%
G36*
X2805Y49313D02*
Y48513D01*
X3405D01*
Y49313D01*
X2805D01*
D02*
G37*
G36*
X7867Y48692D02*
X7067D01*
Y47692D01*
X7867D01*
Y48692D01*
D02*
G37*
G36*
X5517Y48138D02*
X5078Y47700D01*
X5282Y47615D01*
X5517Y47584D01*
X5752Y47615D01*
X5956Y47700D01*
X5763Y47892D01*
X5517D01*
Y48138D01*
D02*
G37*
G36*
X3405Y48213D02*
X2805D01*
Y47413D01*
X3405D01*
Y48213D01*
D02*
G37*
G36*
X5615Y46691D02*
X5600Y46672D01*
X5494Y46416D01*
X5458Y46142D01*
X5494Y45868D01*
X5600Y45612D01*
X5615Y45593D01*
X6163Y46142D01*
X5615Y46691D01*
D02*
G37*
G36*
X6517Y47201D02*
X6243Y47165D01*
X5987Y47059D01*
X5968Y47044D01*
X6694Y46319D01*
X6517Y46142D01*
X6694Y45965D01*
X5968Y45240D01*
X5987Y45225D01*
X6243Y45119D01*
X6517Y45083D01*
X6791Y45119D01*
X7047Y45225D01*
X7197Y45340D01*
X7317Y45281D01*
Y45267D01*
X7567D01*
Y46142D01*
Y47017D01*
X7317D01*
Y47003D01*
X7197Y46944D01*
X7047Y47059D01*
X6791Y47165D01*
X6517Y47201D01*
D02*
G37*
G36*
X7120Y44820D02*
X6080D01*
Y43780D01*
X7120D01*
Y43923D01*
X7440D01*
X7440Y43923D01*
X7584Y43951D01*
X7707Y44033D01*
X7727Y44053D01*
X7809Y44176D01*
X7837Y44320D01*
X7809Y44464D01*
X7727Y44587D01*
X7604Y44669D01*
X7460Y44697D01*
X7359Y44677D01*
X7120D01*
Y44820D01*
D02*
G37*
G36*
X2650Y46806D02*
X2525Y46781D01*
X2419Y46711D01*
X2349Y46605D01*
X2324Y46480D01*
X2349Y46355D01*
X2350Y46353D01*
X2293Y46233D01*
X1985D01*
Y44493D01*
X3325D01*
Y44493D01*
X3445Y44547D01*
X3446Y44546D01*
Y43120D01*
X3460Y43050D01*
X3500Y42990D01*
X4280Y42210D01*
X4340Y42170D01*
X4410Y42156D01*
X6158D01*
X6189Y42109D01*
X6295Y42039D01*
X6420Y42014D01*
X6545Y42039D01*
X6651Y42109D01*
X6721Y42215D01*
X6746Y42340D01*
X6721Y42465D01*
X6691Y42510D01*
X6725Y42630D01*
X6725D01*
X6725Y42630D01*
Y42758D01*
X6830Y42825D01*
X6845Y42827D01*
X6960Y42804D01*
X7085Y42829D01*
X7191Y42899D01*
X7261Y43005D01*
X7286Y43130D01*
X7261Y43255D01*
X7191Y43361D01*
X7085Y43431D01*
X6960Y43456D01*
X6845Y43433D01*
X6830Y43435D01*
X6725Y43502D01*
Y43570D01*
X5975D01*
Y42705D01*
X5872Y42590D01*
X5837D01*
X5825Y42630D01*
X5825Y42644D01*
Y43570D01*
X5559D01*
X5469Y43660D01*
X5519Y43780D01*
X5620D01*
Y44820D01*
X4580D01*
Y43780D01*
X4825D01*
Y43640D01*
X4846Y43535D01*
X4905Y43445D01*
X5075Y43276D01*
Y42644D01*
X5075Y42630D01*
X5042Y42524D01*
X4486D01*
X3814Y43196D01*
Y44678D01*
X3861Y44709D01*
X3931Y44815D01*
X3956Y44940D01*
X3931Y45065D01*
X3861Y45171D01*
X3755Y45241D01*
X3630Y45266D01*
X3505Y45241D01*
X3445Y45201D01*
X3325Y45259D01*
Y46233D01*
X2994D01*
X2950Y46353D01*
X2951Y46355D01*
X2976Y46480D01*
X2951Y46605D01*
X2881Y46711D01*
X2775Y46781D01*
X2650Y46806D01*
D02*
G37*
G36*
X5095Y36580D02*
X5008Y36500D01*
X4975Y36500D01*
X4275D01*
Y36335D01*
X4094D01*
X4055Y36361D01*
X3930Y36386D01*
X3805Y36361D01*
X3699Y36291D01*
X3629Y36185D01*
X3604Y36060D01*
X3629Y35935D01*
X3699Y35829D01*
X3805Y35759D01*
X3930Y35734D01*
X4055Y35759D01*
X4094Y35785D01*
X4275D01*
Y35700D01*
X5008Y35700D01*
X5095Y35620D01*
X5112Y35620D01*
X5400D01*
Y36100D01*
Y36580D01*
X5095D01*
D02*
G37*
G36*
X5700Y36580D02*
Y36250D01*
X6005D01*
Y36580D01*
X5700D01*
D02*
G37*
G36*
X6005Y35950D02*
X5700D01*
Y35620D01*
X6005D01*
Y35950D01*
D02*
G37*
G36*
X5850Y32705D02*
X5450D01*
Y32400D01*
X5850D01*
Y32705D01*
D02*
G37*
G36*
X14834Y47512D02*
X14606Y47482D01*
X14395Y47394D01*
X14213Y47255D01*
X14074Y47073D01*
X13986Y46862D01*
X13956Y46634D01*
X13986Y46407D01*
X14074Y46196D01*
X14213Y46014D01*
X14395Y45874D01*
X14606Y45787D01*
X14834Y45757D01*
X15061Y45787D01*
X15272Y45874D01*
X15454Y46014D01*
X15594Y46196D01*
X15681Y46407D01*
X15711Y46634D01*
X15681Y46862D01*
X15594Y47073D01*
X15454Y47255D01*
X15272Y47394D01*
X15061Y47482D01*
X14834Y47512D01*
D02*
G37*
G36*
X13931Y44643D02*
X13916Y44624D01*
X13811Y44368D01*
X13775Y44094D01*
X13811Y43820D01*
X13916Y43565D01*
X13931Y43546D01*
X14480Y44094D01*
X13931Y44643D01*
D02*
G37*
G36*
X13350Y43700D02*
X12950D01*
Y43395D01*
X13350D01*
Y43700D01*
D02*
G37*
G36*
X13110Y42395D02*
X12710D01*
Y42090D01*
X13110D01*
Y42395D01*
D02*
G37*
G36*
X11950Y38705D02*
Y38400D01*
X12280D01*
Y38705D01*
X11950D01*
D02*
G37*
G36*
X12280Y38100D02*
X11320D01*
Y37812D01*
X11320Y37795D01*
X11400Y37708D01*
X11400Y37675D01*
Y36975D01*
X11461D01*
X11498Y36928D01*
X11535Y36855D01*
X11514Y36750D01*
X11539Y36625D01*
X11609Y36519D01*
X11715Y36449D01*
X11840Y36424D01*
X11965Y36449D01*
X12071Y36519D01*
X12141Y36625D01*
X12166Y36750D01*
X12145Y36855D01*
X12200Y36975D01*
D01*
X12249Y37075D01*
X12387D01*
Y36900D01*
X12403Y36862D01*
X12425Y36742D01*
X12387Y36650D01*
Y35945D01*
X12154D01*
X12115Y35971D01*
X11990Y35996D01*
X11865Y35971D01*
X11759Y35901D01*
X11689Y35795D01*
X11664Y35670D01*
X11689Y35545D01*
X11759Y35439D01*
X11865Y35369D01*
X11990Y35344D01*
X12115Y35369D01*
X12154Y35395D01*
X12387D01*
Y35300D01*
X12425Y35208D01*
X12517Y35170D01*
X12742D01*
Y34975D01*
X12547D01*
Y34225D01*
X13487D01*
Y34325D01*
X14049D01*
X14050Y34205D01*
X14050Y34188D01*
Y33783D01*
X13930Y33747D01*
X13925Y33755D01*
X13785Y33895D01*
X13695Y33954D01*
X13590Y33975D01*
X13487D01*
Y34075D01*
X12547D01*
Y33325D01*
X12547D01*
X12530Y33225D01*
X12410Y33172D01*
X12340Y33186D01*
X12215Y33161D01*
X12109Y33091D01*
X12039Y32985D01*
X12014Y32860D01*
X12039Y32735D01*
X12109Y32629D01*
X12116Y32625D01*
X12079Y32505D01*
X11950D01*
Y32050D01*
X11650D01*
Y32505D01*
X11313D01*
X11250Y32505D01*
X11193Y32601D01*
Y32805D01*
X10793D01*
Y32350D01*
X10643D01*
Y32200D01*
X10093D01*
Y31912D01*
X10093Y31895D01*
X10173Y31808D01*
X10173Y31775D01*
Y31075D01*
X10367D01*
Y30807D01*
X10388Y30702D01*
X10448Y30613D01*
X10699Y30361D01*
X10709Y30315D01*
X10779Y30209D01*
X10885Y30139D01*
X11010Y30114D01*
X11135Y30139D01*
X11241Y30209D01*
X11311Y30315D01*
X11336Y30440D01*
X11311Y30565D01*
X11241Y30671D01*
X11135Y30741D01*
X11089Y30751D01*
X10918Y30921D01*
Y31075D01*
X11113D01*
X11113Y31709D01*
X11164Y31768D01*
X11233Y31793D01*
X11250Y31780D01*
X11250Y31595D01*
X11330Y31508D01*
X11330Y31475D01*
Y30775D01*
X11481D01*
X11509Y30655D01*
X11489Y30625D01*
X11464Y30500D01*
X11489Y30375D01*
X11559Y30269D01*
X11665Y30199D01*
X11790Y30174D01*
X11915Y30199D01*
X12021Y30269D01*
X12091Y30375D01*
X12116Y30500D01*
X12091Y30625D01*
X12071Y30655D01*
X12099Y30775D01*
X12270D01*
X12270Y31508D01*
X12350Y31595D01*
X12450Y31546D01*
Y31495D01*
X12520D01*
Y31234D01*
X13480D01*
Y31495D01*
X13550D01*
Y31800D01*
X13000D01*
Y32100D01*
X13550D01*
Y32361D01*
X13666Y32415D01*
X13705Y32375D01*
X13795Y32316D01*
X13900Y32295D01*
X14010Y32279D01*
Y31920D01*
X14790D01*
Y33175D01*
X14790Y33220D01*
X14879Y33295D01*
X15150D01*
Y33600D01*
X14600D01*
Y33900D01*
X15150D01*
Y34188D01*
X15150Y34205D01*
X15070Y34292D01*
X15070Y34325D01*
Y35025D01*
X14130D01*
Y34875D01*
X13487D01*
Y34975D01*
X13292D01*
Y35170D01*
X13517D01*
X13609Y35208D01*
X13647Y35300D01*
Y36650D01*
X13609Y36742D01*
X13631Y36862D01*
X13647Y36900D01*
Y37700D01*
X13609Y37792D01*
X13517Y37830D01*
X12517D01*
X12425Y37792D01*
X12387Y37700D01*
Y37692D01*
X12267Y37667D01*
X12234Y37745D01*
X12280Y37795D01*
X12280Y37812D01*
Y38100D01*
D02*
G37*
G36*
X16891Y37376D02*
X16618Y37340D01*
X16364Y37235D01*
X16146Y37067D01*
X15978Y36849D01*
X15873Y36595D01*
X15837Y36322D01*
X15873Y36049D01*
X15978Y35795D01*
X16146Y35577D01*
X16364Y35409D01*
X16618Y35304D01*
X16891Y35268D01*
X17164Y35304D01*
X17418Y35409D01*
X17636Y35577D01*
X17804Y35795D01*
X17909Y36049D01*
X17945Y36322D01*
X17909Y36595D01*
X17804Y36849D01*
X17636Y37067D01*
X17418Y37235D01*
X17164Y37340D01*
X16891Y37376D01*
D02*
G37*
G36*
Y34836D02*
X16618Y34800D01*
X16364Y34695D01*
X16146Y34527D01*
X15978Y34309D01*
X15873Y34055D01*
X15837Y33782D01*
X15873Y33509D01*
X15978Y33255D01*
X16146Y33037D01*
X16364Y32869D01*
X16618Y32764D01*
X16891Y32728D01*
X17164Y32764D01*
X17418Y32869D01*
X17636Y33037D01*
X17804Y33255D01*
X17909Y33509D01*
X17945Y33782D01*
X17909Y34055D01*
X17804Y34309D01*
X17636Y34527D01*
X17418Y34695D01*
X17164Y34800D01*
X16891Y34836D01*
D02*
G37*
G36*
X10493Y32805D02*
X10093D01*
Y32500D01*
X10493D01*
Y32805D01*
D02*
G37*
G36*
X9880Y32605D02*
X9550D01*
Y32300D01*
X9880D01*
Y32605D01*
D02*
G37*
G36*
X14790Y31080D02*
X14010D01*
Y30513D01*
X13941Y30480D01*
X13890Y30468D01*
X13795Y30531D01*
X13670Y30556D01*
X13555Y30533D01*
X13531Y30552D01*
X13480Y30629D01*
X13480Y30646D01*
Y30934D01*
X12520D01*
Y30646D01*
X12520Y30629D01*
X12600Y30542D01*
X12600Y30509D01*
Y29809D01*
X13400D01*
Y29909D01*
X13624D01*
X13634Y29911D01*
X13670Y29904D01*
X13795Y29929D01*
X13890Y29992D01*
X13941Y29980D01*
X14010Y29947D01*
Y29794D01*
X13383Y29167D01*
X13301Y29044D01*
X13273Y28900D01*
X13301Y28756D01*
X13383Y28633D01*
X13506Y28551D01*
X13650Y28523D01*
X13794Y28551D01*
X13917Y28633D01*
X14667Y29383D01*
X14749Y29506D01*
X14777Y29650D01*
X14777Y29650D01*
Y29780D01*
X14790D01*
Y31080D01*
D02*
G37*
G36*
X8780Y30285D02*
X8450D01*
Y29980D01*
X8780D01*
Y30285D01*
D02*
G37*
G36*
X11250Y29080D02*
X10945D01*
Y28750D01*
X11250D01*
Y29080D01*
D02*
G37*
G36*
Y28450D02*
X10945D01*
Y28120D01*
X11250D01*
Y28450D01*
D02*
G37*
G36*
X9380Y28355D02*
X9050D01*
Y28050D01*
X9380D01*
Y28355D01*
D02*
G37*
G36*
X14406Y27153D02*
X14076D01*
Y26848D01*
X14406D01*
Y27153D01*
D02*
G37*
G36*
X13776D02*
X13446D01*
Y26848D01*
X13776D01*
Y27153D01*
D02*
G37*
G36*
X11855Y29080D02*
X11838Y29080D01*
X11550D01*
Y28600D01*
Y28120D01*
X11838D01*
X11855Y28120D01*
X11942Y28200D01*
X11955Y28200D01*
X12075Y28151D01*
Y28020D01*
X11930D01*
Y26480D01*
X12770D01*
Y28020D01*
X12625D01*
Y28200D01*
X12675D01*
Y29000D01*
X11942Y29000D01*
X11855Y29080D01*
D02*
G37*
G36*
X9380Y24800D02*
X9050D01*
Y24495D01*
X9380D01*
Y24800D01*
D02*
G37*
G36*
X8750D02*
X8420D01*
Y24495D01*
X8750D01*
Y24800D01*
D02*
G37*
%LPD*%
G36*
X13517Y36900D02*
X13017Y36400D01*
X12517Y36900D01*
Y37700D01*
X13517D01*
Y36900D01*
D02*
G37*
G36*
Y35300D02*
X12517D01*
Y36650D01*
X13017Y36150D01*
X13517Y36650D01*
Y35300D01*
D02*
G37*
%LPC*%
G36*
X13004Y40126D02*
X12879Y40101D01*
X12773Y40031D01*
X12703Y39925D01*
X12678Y39800D01*
X12703Y39675D01*
X12773Y39569D01*
X12879Y39499D01*
X13004Y39474D01*
X13129Y39499D01*
X13235Y39569D01*
X13305Y39675D01*
X13330Y39800D01*
X13305Y39925D01*
X13235Y40031D01*
X13129Y40101D01*
X13004Y40126D01*
D02*
G37*
G36*
X4620Y7321D02*
X4495Y7296D01*
X4389Y7226D01*
X4319Y7120D01*
X4294Y6995D01*
X4319Y6870D01*
X4389Y6764D01*
X4495Y6694D01*
X4620Y6669D01*
X4745Y6694D01*
X4851Y6764D01*
X4921Y6870D01*
X4946Y6995D01*
X4921Y7120D01*
X4851Y7226D01*
X4745Y7296D01*
X4620Y7321D01*
D02*
G37*
G36*
X4889Y3632D02*
X3849D01*
Y3387D01*
X3582D01*
X3477Y3366D01*
X3387Y3307D01*
X3387Y3307D01*
X2965Y2885D01*
X2906Y2795D01*
X2885Y2690D01*
Y1274D01*
X2859Y1235D01*
X2834Y1110D01*
X2859Y985D01*
X2929Y879D01*
X3035Y809D01*
X3160Y784D01*
X3285Y809D01*
X3391Y879D01*
X3461Y985D01*
X3486Y1110D01*
X3461Y1235D01*
X3435Y1274D01*
Y2576D01*
X3696Y2837D01*
X3849D01*
Y2592D01*
X4889D01*
Y3632D01*
D02*
G37*
G36*
X1730Y2646D02*
X1605Y2621D01*
X1499Y2551D01*
X1429Y2445D01*
X1404Y2320D01*
X1429Y2195D01*
X1499Y2089D01*
X1605Y2019D01*
X1730Y1994D01*
X1855Y2019D01*
X1961Y2089D01*
X2031Y2195D01*
X2056Y2320D01*
X2031Y2445D01*
X1961Y2551D01*
X1855Y2621D01*
X1730Y2646D01*
D02*
G37*
G36*
X4969Y2212D02*
X4519D01*
Y1762D01*
X4969D01*
Y2212D01*
D02*
G37*
G36*
X4219D02*
X3769D01*
Y1762D01*
X4219D01*
Y2212D01*
D02*
G37*
G36*
X4969Y1462D02*
X4519D01*
Y1012D01*
X4969D01*
Y1462D01*
D02*
G37*
G36*
X4219D02*
X3769D01*
Y1012D01*
X4219D01*
Y1462D01*
D02*
G37*
G36*
X10870Y11040D02*
X10565D01*
Y10710D01*
X10870D01*
Y11040D01*
D02*
G37*
G36*
X10950Y8455D02*
X10620D01*
Y8150D01*
X10950D01*
Y8455D01*
D02*
G37*
G36*
X9800Y5850D02*
X9495D01*
Y5520D01*
X9800D01*
Y5850D01*
D02*
G37*
G36*
X7425Y4450D02*
X7162D01*
Y4235D01*
X7425D01*
Y4450D01*
D02*
G37*
G36*
X-18943Y-17115D02*
X-18957D01*
X-18968Y-17118D01*
X-18996Y-17124D01*
X-19032Y-17132D01*
X-19073Y-17149D01*
X-19118Y-17174D01*
X-19143Y-17190D01*
X-19165Y-17210D01*
X-19187Y-17232D01*
X-19209Y-17257D01*
Y-17260D01*
X-19215Y-17263D01*
X-19220Y-17271D01*
X-19226Y-17282D01*
X-19234Y-17299D01*
X-19245Y-17315D01*
X-19257Y-17337D01*
X-19265Y-17360D01*
X-19276Y-17387D01*
X-19287Y-17418D01*
X-19295Y-17451D01*
X-19306Y-17487D01*
X-19312Y-17529D01*
X-19318Y-17571D01*
X-19323Y-17615D01*
Y-17665D01*
Y-17668D01*
Y-17676D01*
Y-17690D01*
X-19320Y-17709D01*
Y-17732D01*
X-19318Y-17757D01*
X-19309Y-17815D01*
X-19295Y-17882D01*
X-19279Y-17945D01*
X-19251Y-18009D01*
X-19234Y-18037D01*
X-19215Y-18062D01*
X-19209Y-18068D01*
X-19195Y-18081D01*
X-19173Y-18104D01*
X-19143Y-18126D01*
X-19104Y-18148D01*
X-19059Y-18170D01*
X-19009Y-18184D01*
X-18982Y-18187D01*
X-18954Y-18190D01*
X-18937D01*
X-18926Y-18187D01*
X-18898Y-18181D01*
X-18860Y-18173D01*
X-18818Y-18156D01*
X-18773Y-18134D01*
X-18729Y-18101D01*
X-18707Y-18081D01*
X-18685Y-18059D01*
Y-18057D01*
X-18679Y-18054D01*
X-18674Y-18045D01*
X-18668Y-18034D01*
X-18657Y-18020D01*
X-18649Y-18001D01*
X-18637Y-17982D01*
X-18626Y-17957D01*
X-18618Y-17932D01*
X-18607Y-17898D01*
X-18596Y-17865D01*
X-18587Y-17829D01*
X-18582Y-17787D01*
X-18576Y-17743D01*
X-18571Y-17696D01*
Y-17646D01*
Y-17643D01*
Y-17635D01*
Y-17621D01*
X-18574Y-17601D01*
Y-17579D01*
X-18576Y-17554D01*
X-18585Y-17496D01*
X-18599Y-17432D01*
X-18618Y-17368D01*
X-18646Y-17304D01*
X-18662Y-17274D01*
X-18682Y-17249D01*
Y-17246D01*
X-18687Y-17243D01*
X-18701Y-17226D01*
X-18723Y-17207D01*
X-18754Y-17182D01*
X-18793Y-17157D01*
X-18837Y-17135D01*
X-18887Y-17121D01*
X-18915Y-17118D01*
X-18943Y-17115D01*
D02*
G37*
G36*
X-14912Y-17654D02*
X-14915D01*
X-14917Y-17657D01*
X-14926Y-17660D01*
X-14937Y-17662D01*
X-14951Y-17668D01*
X-14967Y-17673D01*
X-14987Y-17679D01*
X-15009Y-17684D01*
X-15034Y-17693D01*
X-15064Y-17698D01*
X-15095Y-17707D01*
X-15131Y-17715D01*
X-15170Y-17723D01*
X-15209Y-17732D01*
X-15253Y-17737D01*
X-15300Y-17746D01*
X-15306D01*
X-15323Y-17748D01*
X-15350Y-17754D01*
X-15381Y-17759D01*
X-15414Y-17765D01*
X-15448Y-17773D01*
X-15478Y-17782D01*
X-15506Y-17793D01*
X-15509D01*
X-15517Y-17798D01*
X-15528Y-17804D01*
X-15539Y-17812D01*
X-15572Y-17834D01*
X-15600Y-17868D01*
Y-17871D01*
X-15606Y-17876D01*
X-15609Y-17887D01*
X-15614Y-17901D01*
X-15620Y-17918D01*
X-15625Y-17934D01*
X-15628Y-17957D01*
X-15631Y-17979D01*
Y-17982D01*
Y-17995D01*
X-15628Y-18012D01*
X-15622Y-18034D01*
X-15614Y-18059D01*
X-15600Y-18084D01*
X-15584Y-18112D01*
X-15561Y-18137D01*
X-15559Y-18140D01*
X-15547Y-18145D01*
X-15531Y-18156D01*
X-15509Y-18168D01*
X-15478Y-18179D01*
X-15442Y-18190D01*
X-15400Y-18195D01*
X-15350Y-18198D01*
X-15328D01*
X-15300Y-18195D01*
X-15270Y-18190D01*
X-15231Y-18184D01*
X-15192Y-18173D01*
X-15151Y-18159D01*
X-15109Y-18140D01*
X-15103Y-18137D01*
X-15092Y-18129D01*
X-15073Y-18115D01*
X-15051Y-18095D01*
X-15026Y-18073D01*
X-14998Y-18045D01*
X-14976Y-18012D01*
X-14953Y-17976D01*
X-14951Y-17973D01*
X-14948Y-17962D01*
X-14942Y-17943D01*
X-14934Y-17918D01*
X-14926Y-17884D01*
X-14920Y-17846D01*
X-14917Y-17798D01*
X-14915Y-17743D01*
X-14912Y-17654D01*
D02*
G37*
G36*
X-12394Y-17124D02*
X-12410D01*
X-12421Y-17126D01*
X-12452Y-17129D01*
X-12488Y-17138D01*
X-12533Y-17151D01*
X-12580Y-17171D01*
X-12624Y-17199D01*
X-12669Y-17235D01*
X-12674Y-17240D01*
X-12685Y-17254D01*
X-12705Y-17279D01*
X-12724Y-17312D01*
X-12746Y-17351D01*
X-12766Y-17401D01*
X-12782Y-17460D01*
X-12791Y-17523D01*
X-12011D01*
Y-17521D01*
Y-17515D01*
X-12013Y-17507D01*
Y-17496D01*
X-12019Y-17462D01*
X-12027Y-17426D01*
X-12041Y-17382D01*
X-12055Y-17340D01*
X-12077Y-17299D01*
X-12102Y-17263D01*
Y-17260D01*
X-12108Y-17257D01*
X-12122Y-17240D01*
X-12147Y-17218D01*
X-12180Y-17193D01*
X-12222Y-17168D01*
X-12272Y-17146D01*
X-12330Y-17129D01*
X-12360Y-17126D01*
X-12394Y-17124D01*
D02*
G37*
G36*
X-20467D02*
X-20484D01*
X-20497Y-17126D01*
X-20528Y-17129D01*
X-20570Y-17140D01*
X-20617Y-17157D01*
X-20667Y-17179D01*
X-20714Y-17213D01*
X-20739Y-17235D01*
X-20761Y-17257D01*
Y-17260D01*
X-20767Y-17263D01*
X-20772Y-17271D01*
X-20781Y-17282D01*
X-20789Y-17296D01*
X-20797Y-17312D01*
X-20808Y-17335D01*
X-20820Y-17357D01*
X-20831Y-17385D01*
X-20842Y-17412D01*
X-20850Y-17446D01*
X-20858Y-17482D01*
X-20867Y-17521D01*
X-20872Y-17562D01*
X-20875Y-17610D01*
X-20878Y-17657D01*
Y-17660D01*
Y-17668D01*
Y-17682D01*
X-20875Y-17701D01*
Y-17723D01*
X-20872Y-17748D01*
X-20864Y-17807D01*
X-20850Y-17873D01*
X-20828Y-17940D01*
X-20800Y-18004D01*
X-20781Y-18032D01*
X-20761Y-18059D01*
X-20758D01*
X-20756Y-18065D01*
X-20739Y-18079D01*
X-20714Y-18101D01*
X-20681Y-18123D01*
X-20639Y-18148D01*
X-20589Y-18170D01*
X-20531Y-18184D01*
X-20500Y-18187D01*
X-20467Y-18190D01*
X-20450D01*
X-20436Y-18187D01*
X-20406Y-18181D01*
X-20364Y-18173D01*
X-20320Y-18156D01*
X-20270Y-18134D01*
X-20223Y-18101D01*
X-20198Y-18079D01*
X-20175Y-18057D01*
X-20173Y-18054D01*
X-20170Y-18051D01*
X-20164Y-18043D01*
X-20156Y-18032D01*
X-20148Y-18018D01*
X-20137Y-18001D01*
X-20125Y-17979D01*
X-20114Y-17957D01*
X-20103Y-17929D01*
X-20095Y-17898D01*
X-20084Y-17865D01*
X-20076Y-17829D01*
X-20067Y-17787D01*
X-20062Y-17746D01*
X-20056Y-17698D01*
Y-17648D01*
Y-17646D01*
Y-17637D01*
Y-17623D01*
X-20059Y-17607D01*
Y-17585D01*
X-20062Y-17560D01*
X-20070Y-17501D01*
X-20084Y-17440D01*
X-20106Y-17374D01*
X-20137Y-17312D01*
X-20153Y-17282D01*
X-20175Y-17257D01*
Y-17254D01*
X-20181Y-17251D01*
X-20198Y-17235D01*
X-20223Y-17215D01*
X-20256Y-17190D01*
X-20298Y-17165D01*
X-20348Y-17143D01*
X-20403Y-17129D01*
X-20434Y-17126D01*
X-20467Y-17124D01*
D02*
G37*
%LPD*%
D10*
X5570Y11180D02*
X5680Y11290D01*
X5570Y10230D02*
Y11180D01*
X6790Y21050D02*
Y21295D01*
X6070Y22015D02*
X6790Y21295D01*
X6070Y22015D02*
Y24580D01*
X6175Y24685D01*
X7045D01*
X7310Y24950D01*
Y26038D01*
X7790Y26518D01*
Y27500D01*
X7430Y27860D02*
X7790Y27500D01*
X7430Y27860D02*
Y29710D01*
X7660Y29940D01*
Y34030D01*
X7240Y34450D02*
X7660Y34030D01*
X7240Y34450D02*
Y35270D01*
X7260Y35250D01*
X3236Y20064D02*
Y31076D01*
Y20064D02*
X3260Y20040D01*
X2880Y19730D02*
Y20197D01*
X2850Y19700D02*
X2880Y19730D01*
X2330Y19987D02*
X2756Y20413D01*
X2330Y19760D02*
Y19987D01*
X2756Y20413D02*
Y37757D01*
X2996Y20313D02*
Y40057D01*
X2880Y20197D02*
X2996Y20313D01*
X3920Y20960D02*
X3980D01*
X4077Y20863D01*
X4317Y19487D02*
Y21413D01*
X3033Y18542D02*
X4077Y19586D01*
Y20863D01*
X4150Y21580D02*
X4317Y21413D01*
X2850Y18019D02*
X4317Y19487D01*
X10097Y21094D02*
Y21574D01*
Y21019D02*
Y21094D01*
X9097D02*
Y21697D01*
Y21019D02*
Y21094D01*
X10597D02*
Y21455D01*
Y21019D02*
Y21094D01*
X11097Y21019D02*
X11649D01*
X10097Y16244D02*
Y16319D01*
Y15748D02*
Y16244D01*
X3630Y43120D02*
X4410Y42340D01*
X6420D01*
X5680Y12390D02*
X5690Y12400D01*
X7100D01*
X9730Y11830D02*
X10420Y12520D01*
X12320D01*
X12640Y12200D01*
X11143Y13153D02*
Y13229D01*
X11080Y13090D02*
X11143Y13153D01*
X10547Y13090D02*
X11080D01*
X12640Y11743D02*
X12943Y11440D01*
X15430D01*
X9730Y11210D02*
Y11830D01*
Y7390D02*
Y10175D01*
X9320Y10585D02*
X9730Y10175D01*
X9320Y10585D02*
Y11863D01*
X12640Y11743D02*
Y12200D01*
X6922Y19419D02*
X6997D01*
X6442D02*
X6922D01*
X7100Y12400D02*
X7347Y12647D01*
Y14419D01*
Y15167D01*
X8090Y15910D01*
Y16310D01*
X15720Y16910D02*
Y17150D01*
X14679Y15869D02*
X15720Y16910D01*
X13597Y15869D02*
X14679D01*
X15040Y17820D02*
X15330Y18110D01*
X15040Y16663D02*
Y17820D01*
X14757Y16380D02*
X15040Y16663D01*
X14870Y18060D02*
Y18380D01*
X14279Y17469D02*
X14870Y18060D01*
X13597Y17469D02*
X14279D01*
X9042Y47712D02*
X11869D01*
X8367Y47037D02*
X9042Y47712D01*
X8367Y46142D02*
Y47037D01*
X12720Y44830D02*
Y46861D01*
X11869Y47712D02*
X12720Y46861D01*
X12887Y38820D02*
X14670D01*
X12367Y39340D02*
X12887Y38820D01*
X11430Y39340D02*
X12367D01*
X9950Y37500D02*
X11020Y38570D01*
X4270Y37500D02*
X9950D01*
X3778Y18269D02*
X5097D01*
X3330Y17821D02*
X3778Y18269D01*
X3330Y10061D02*
Y17821D01*
X8250Y7080D02*
X9420D01*
X7810Y6640D02*
X8250Y7080D01*
X7810Y5220D02*
Y6640D01*
X9747Y22030D02*
Y22919D01*
X16410Y9650D02*
X17410D01*
X15786Y10274D02*
X16410Y9650D01*
X15786Y10274D02*
Y11084D01*
X15420Y15338D02*
Y15370D01*
X15032Y14950D02*
X15420Y15338D01*
X14230Y14950D02*
X15032D01*
X15526Y19975D02*
X16405D01*
X14630Y19079D02*
X15526Y19975D01*
X14630Y18499D02*
Y19079D01*
X15580Y20368D02*
Y27391D01*
X14281Y19069D02*
X15580Y20368D01*
X13597Y19069D02*
X14281D01*
X14840Y23000D02*
X14850Y22990D01*
X13710Y23000D02*
X14840D01*
X12750Y23960D02*
X13710Y23000D01*
X13900Y22470D02*
X14960D01*
X13391Y22979D02*
X13900Y22470D01*
X13391Y22979D02*
Y22980D01*
X7880Y23960D02*
X12750D01*
X7500Y23580D02*
X7880Y23960D01*
X7396Y23815D02*
X7770Y24189D01*
X6745Y23815D02*
X7396D01*
X6210Y20104D02*
Y20270D01*
X6130D02*
Y20486D01*
X5947Y20669D02*
X6130Y20486D01*
X5097Y20669D02*
X5947D01*
X6621Y20419D02*
X6997D01*
X6260Y20780D02*
X6621Y20419D01*
X6260Y20780D02*
Y21005D01*
X6395Y19919D02*
X6997D01*
X6210Y20104D02*
X6395Y19919D01*
X5796Y21469D02*
X6260Y21005D01*
X5097Y21469D02*
X5796D01*
X12507Y15869D02*
X13597D01*
X11697Y16679D02*
X12507Y15869D01*
X11697Y16679D02*
Y16919D01*
Y16930D01*
X11097Y16319D02*
X11330D01*
X12147Y15501D01*
Y14419D02*
Y15501D01*
X12470Y13600D02*
X12960Y14090D01*
X11493Y13600D02*
X12470D01*
X11347Y13746D02*
X11493Y13600D01*
X11347Y13746D02*
Y14419D01*
X5097Y19869D02*
X5992D01*
X6300Y18919D02*
X6997D01*
X6150Y19069D02*
X6300Y18919D01*
X5097Y19069D02*
X6150D01*
X6319Y18419D02*
X6997D01*
X5097Y18269D02*
X6169D01*
X6319Y18419D01*
X5097Y17469D02*
X5976D01*
X6426Y17919D01*
X6997D01*
X6509Y17419D02*
X6997D01*
X5759Y16669D02*
X6509Y17419D01*
X5097Y16669D02*
X5759D01*
X6519Y16919D02*
X6997D01*
X6100Y16500D02*
X6519Y16919D01*
X6100Y16090D02*
Y16500D01*
X5879Y15869D02*
X6100Y16090D01*
X5097Y15869D02*
X5879D01*
X11347Y14419D02*
Y15081D01*
X10597Y15831D02*
X11347Y15081D01*
X10597Y15831D02*
Y16319D01*
X10097Y15748D02*
X10547Y15298D01*
Y14419D02*
Y15298D01*
X8147Y14419D02*
Y15314D01*
X8597Y15764D01*
Y16319D01*
X6547Y15363D02*
X6766Y15582D01*
X7316D01*
X7597Y15863D01*
Y16319D01*
X6547Y14419D02*
Y15363D01*
X12815Y21469D02*
X13597D01*
X12935Y20669D02*
X13597D01*
X11697Y19919D02*
X12185D01*
X11697Y19419D02*
X12268D01*
X12718Y19869D01*
X13597D01*
X12375Y18919D02*
X12525Y19069D01*
X13597D01*
X11697Y18919D02*
X12375D01*
X12544Y18269D02*
X13597D01*
X12394Y18419D02*
X12544Y18269D01*
X11697Y18419D02*
X12394D01*
X12702Y17469D02*
X13597D01*
X12252Y17919D02*
X12702Y17469D01*
X11697Y17919D02*
X12252D01*
X11697Y17419D02*
X12133D01*
X12883Y16669D01*
X13597D01*
X6547Y22137D02*
Y22919D01*
Y22137D02*
X6768Y21916D01*
X7178D01*
X7597Y21497D01*
Y21019D02*
Y21497D01*
X7347Y22257D02*
Y22919D01*
Y22257D02*
X8097Y21507D01*
Y21019D02*
Y21507D01*
X8597Y21019D02*
Y21590D01*
X8147Y22040D02*
X8597Y21590D01*
X8147Y22040D02*
Y22919D01*
X8947Y21847D02*
X9097Y21697D01*
X8947Y21847D02*
Y22919D01*
X9597Y21716D02*
X9747Y21866D01*
X9597Y21019D02*
Y21716D01*
X10547Y22024D02*
Y22919D01*
X10097Y21574D02*
X10547Y22024D01*
X11347Y22205D02*
Y22919D01*
X5200Y21572D02*
Y23500D01*
X5097Y21469D02*
X5200Y21572D01*
X3800Y23500D02*
X5200D01*
X16891Y20461D02*
Y21082D01*
X16263Y14090D02*
X16891Y13462D01*
X12960Y14090D02*
X16263D01*
X12147Y14419D02*
X15308D01*
X16891Y16002D01*
X8147Y12753D02*
Y14419D01*
Y12753D02*
X8500Y12400D01*
X546Y6947D02*
X1651Y5842D01*
X546Y6947D02*
Y8840D01*
X1316Y9610D01*
X3090Y17920D02*
X4239Y19069D01*
X5097D01*
X1316Y9610D02*
X2540D01*
X5840Y14419D02*
X6547D01*
X5831Y14410D02*
X5840Y14419D01*
X5097Y15287D02*
Y15869D01*
X3090Y10160D02*
Y17920D01*
X2540Y9610D02*
X3090Y10160D01*
X1651Y8382D02*
X3330Y10061D01*
X15580Y27391D02*
X16891Y28702D01*
X13597Y19869D02*
X14737D01*
X15340Y20472D01*
Y29691D01*
X16891Y31242D01*
X10597Y21455D02*
X11071Y21929D01*
X11347Y22205D01*
X2850Y14661D02*
Y18019D01*
X1651Y13462D02*
X2850Y14661D01*
X1651Y18542D02*
X3033D01*
X11697Y20419D02*
Y20728D01*
X12588Y21242D02*
X12815Y21469D01*
X12185Y19919D02*
X12553Y20287D01*
X12935Y20669D01*
X11649Y21019D02*
X11890Y21260D01*
Y21520D01*
X12147Y21777D02*
Y22919D01*
X11890Y21520D02*
X12147Y21777D01*
X11697Y20728D02*
X12211Y21242D01*
X12588D01*
X4010Y17469D02*
X5097D01*
X5200Y24600D02*
Y24820D01*
X5530Y25150D01*
X6600D01*
X3931Y16669D02*
X5097D01*
X3720Y16880D02*
X3931Y16669D01*
X3720Y16880D02*
Y16930D01*
X1651Y38862D02*
X2756Y37757D01*
X1651Y41402D02*
X2996Y40057D01*
X6110Y20250D02*
X6130Y20270D01*
X3236Y31076D02*
X3420Y31260D01*
X546Y23164D02*
Y25057D01*
X1651Y26162D01*
X2370Y22550D02*
X2430D01*
X2142D02*
X2370D01*
X546Y23164D02*
X1193Y22517D01*
X2109D02*
X2142Y22550D01*
X1193Y22517D02*
X2109D01*
X8247Y23720D02*
X12650D01*
X8147Y23620D02*
X8247Y23720D01*
X8147Y22919D02*
Y23620D01*
X12650Y23720D02*
X13391Y22980D01*
X10450Y24340D02*
Y25050D01*
Y24340D02*
X10590Y24200D01*
X12240D01*
X12350Y24310D01*
Y25050D01*
X7600Y5010D02*
X7810Y5220D01*
X6387Y5010D02*
X7600D01*
X6521Y26500D02*
X7200D01*
X7410Y26710D01*
Y26720D01*
X4140Y26500D02*
X5100D01*
X4110Y26530D02*
X4140Y26500D01*
X9747Y22030D02*
X9760D01*
X9820Y22090D01*
X9747Y21866D02*
Y22030D01*
X14400Y18269D02*
X14630Y18499D01*
X16405Y19975D02*
X16891Y20461D01*
X13597Y18269D02*
X14400D01*
X16852Y18581D02*
X16891Y18542D01*
X14870Y18380D02*
X15071Y18581D01*
X16852D01*
X13597Y16669D02*
X13756Y16510D01*
X14313D01*
X14443Y16380D01*
X14757D01*
X10547Y13090D02*
Y14419D01*
X6230Y19470D02*
X6311Y19551D01*
X6230Y19470D02*
Y19470D01*
X5992Y19869D02*
X6311Y19551D01*
X9420Y7080D02*
X9730Y7390D01*
X9320Y11863D02*
X10547Y13090D01*
X15430Y11440D02*
X15786Y11084D01*
X17410Y9650D02*
X17996Y9064D01*
Y6947D02*
Y9064D01*
X16891Y5842D02*
X17996Y6947D01*
X12720Y44830D02*
X12800Y44750D01*
X3630Y43120D02*
Y44940D01*
X7347Y22919D02*
X7500Y23072D01*
Y23580D01*
X6547Y22919D02*
Y23617D01*
X6745Y23815D01*
X7770Y24189D02*
Y24520D01*
X7740Y24550D02*
X7770Y24520D01*
X7720Y24550D02*
X7740D01*
X11020Y38930D02*
X11430Y39340D01*
X11020Y38570D02*
Y38930D01*
X14670Y38820D02*
X14900Y38590D01*
D15*
X0Y0D02*
X18540D01*
Y50290D01*
X0D02*
X18540D01*
X0Y0D02*
Y50290D01*
D26*
X10450Y25050D02*
D03*
X11400D02*
D03*
X12350D02*
D03*
Y27250D02*
D03*
X10450D02*
D03*
D47*
X12297Y2032D02*
D03*
X6397D02*
D03*
D48*
X5680Y12390D02*
D03*
Y11290D02*
D03*
X5100Y26500D02*
D03*
Y27600D02*
D03*
X6521Y26500D02*
D03*
Y27600D02*
D03*
X8343Y32380D02*
D03*
Y31280D02*
D03*
X13017Y37000D02*
D03*
Y35900D02*
D03*
X14400Y13075D02*
D03*
X13300D02*
D03*
X8500Y11300D02*
D03*
Y12400D02*
D03*
X5200Y24600D02*
D03*
Y23500D02*
D03*
X3960Y24600D02*
D03*
Y23500D02*
D03*
X7100Y11300D02*
D03*
Y12400D02*
D03*
D49*
X7240Y36170D02*
D03*
Y35270D02*
D03*
X14300Y40250D02*
D03*
Y39350D02*
D03*
X13260Y41940D02*
D03*
Y41040D02*
D03*
X14313Y41060D02*
D03*
Y41960D02*
D03*
X11700Y44750D02*
D03*
Y43850D02*
D03*
X12800D02*
D03*
Y44750D02*
D03*
X6000Y32250D02*
D03*
Y31350D02*
D03*
X7100Y32250D02*
D03*
Y31350D02*
D03*
X10643Y31450D02*
D03*
Y32350D02*
D03*
X11800Y32050D02*
D03*
Y31150D02*
D03*
X13000Y31950D02*
D03*
Y32850D02*
D03*
X14600Y34650D02*
D03*
Y33750D02*
D03*
X13017Y33700D02*
D03*
Y34600D02*
D03*
X6600Y24250D02*
D03*
Y25150D02*
D03*
D50*
X9500Y41402D02*
D03*
X11700Y42352D02*
D03*
Y40452D02*
D03*
D51*
X1155Y48363D02*
D03*
X2655Y45363D02*
D03*
X1155D02*
D03*
X2655Y48363D02*
D03*
D52*
X5100Y44300D02*
D03*
X6600D02*
D03*
D53*
X14326Y3112D02*
D03*
Y1612D02*
D03*
X4369D02*
D03*
Y3112D02*
D03*
D54*
X7597Y16244D02*
D03*
X8097D02*
D03*
X8597D02*
D03*
X9097D02*
D03*
X9597D02*
D03*
X10097D02*
D03*
X10597D02*
D03*
X11097D02*
D03*
Y21094D02*
D03*
X10597D02*
D03*
X10097D02*
D03*
X9597D02*
D03*
X9097D02*
D03*
X8597D02*
D03*
X8097D02*
D03*
X7597D02*
D03*
D55*
X11772Y16919D02*
D03*
Y17419D02*
D03*
Y17919D02*
D03*
Y18419D02*
D03*
Y18919D02*
D03*
Y19419D02*
D03*
Y19919D02*
D03*
Y20419D02*
D03*
X6922D02*
D03*
Y19919D02*
D03*
Y19419D02*
D03*
Y18919D02*
D03*
Y18419D02*
D03*
Y17919D02*
D03*
Y17419D02*
D03*
Y16919D02*
D03*
D56*
X9347Y18669D02*
D03*
D57*
X6547Y14419D02*
D03*
X7347D02*
D03*
X8147D02*
D03*
X8947D02*
D03*
X9747D02*
D03*
X10547D02*
D03*
X11347D02*
D03*
X12147D02*
D03*
Y22919D02*
D03*
X11347D02*
D03*
X10547D02*
D03*
X9747D02*
D03*
X8947D02*
D03*
X8147D02*
D03*
X7347D02*
D03*
X6547D02*
D03*
D58*
X13597Y15869D02*
D03*
Y17469D02*
D03*
Y16669D02*
D03*
Y18269D02*
D03*
Y19069D02*
D03*
Y19869D02*
D03*
Y20669D02*
D03*
Y21469D02*
D03*
X5097D02*
D03*
Y20669D02*
D03*
Y19869D02*
D03*
Y19069D02*
D03*
Y18269D02*
D03*
Y17469D02*
D03*
Y16669D02*
D03*
Y15869D02*
D03*
D59*
X13500Y9090D02*
D03*
D60*
X12550Y10390D02*
D03*
X13500D02*
D03*
X14450D02*
D03*
Y7790D02*
D03*
X13500D02*
D03*
X12550D02*
D03*
D61*
X6387Y4600D02*
D03*
X7012D02*
D03*
D62*
X14400Y32570D02*
D03*
Y30430D02*
D03*
D63*
X6550Y9200D02*
D03*
X9050D02*
D03*
D64*
X8017Y48842D02*
D03*
X10017D02*
D03*
D65*
X7717Y46142D02*
D03*
X8367D02*
D03*
X9017D02*
D03*
X9667D02*
D03*
X10317D02*
D03*
D66*
X8190Y36150D02*
D03*
Y35250D02*
D03*
X11100Y8000D02*
D03*
Y7100D02*
D03*
X8900Y27900D02*
D03*
Y27000D02*
D03*
Y25850D02*
D03*
Y24950D02*
D03*
X13926Y25798D02*
D03*
Y26698D02*
D03*
X13900Y23682D02*
D03*
Y24582D02*
D03*
X9400Y32150D02*
D03*
Y31250D02*
D03*
X13000Y31084D02*
D03*
Y30184D02*
D03*
X8300Y29830D02*
D03*
Y28930D02*
D03*
X11800Y38250D02*
D03*
Y37350D02*
D03*
D67*
X6350Y43100D02*
D03*
X5450D02*
D03*
D68*
X11020Y11190D02*
D03*
X11920D02*
D03*
Y12060D02*
D03*
X11020D02*
D03*
X10850Y6000D02*
D03*
X9950D02*
D03*
X11400Y28600D02*
D03*
X12300D02*
D03*
X5550Y36100D02*
D03*
X4650D02*
D03*
X13750Y11900D02*
D03*
X14650D02*
D03*
X8250Y7600D02*
D03*
X9150D02*
D03*
X7371D02*
D03*
X6471D02*
D03*
X7250Y5500D02*
D03*
X6350D02*
D03*
D69*
X7260Y35250D02*
X8190D01*
X7240Y36170D02*
Y36660D01*
X7508Y36928D01*
X8520D01*
X16010Y43640D02*
Y45271D01*
X15746Y43376D02*
X16010Y43640D01*
X15746Y37286D02*
Y43376D01*
X15426Y37576D02*
Y38784D01*
X14860Y39350D02*
X15426Y38784D01*
X14300Y39350D02*
X14860D01*
X3516Y30616D02*
X4080Y31180D01*
Y31850D01*
X3516Y26134D02*
Y30616D01*
X6880Y9530D02*
Y11080D01*
X7100Y11300D01*
X8500Y10890D02*
Y11300D01*
Y10890D02*
X8500Y10890D01*
X8720Y10670D01*
Y9530D02*
Y10670D01*
Y9530D02*
X9050Y9200D01*
X6471Y7600D02*
Y9121D01*
X6550Y9200D02*
X6880Y9530D01*
X6471Y9121D02*
X6550Y9200D01*
X9150Y7600D02*
Y9100D01*
X9050Y9200D02*
X9150Y9100D01*
X5010Y27690D02*
Y30280D01*
Y27690D02*
X5100Y27600D01*
X6521Y28450D02*
Y28490D01*
Y27600D02*
Y28450D01*
X16010Y45271D02*
X17374Y46634D01*
X3516Y26134D02*
X3960Y25690D01*
Y24600D02*
Y25690D01*
X15000Y36540D02*
X15746Y37286D01*
X14570Y36720D02*
X15426Y37576D01*
X14570Y36030D02*
Y36720D01*
D70*
X8190Y36150D02*
X8940D01*
X13500Y7790D02*
Y9090D01*
X11020Y10410D02*
Y11930D01*
X10600Y2360D02*
Y3350D01*
Y2360D02*
X10928Y2032D01*
X12297D01*
X8947Y15499D02*
X9097Y15649D01*
X8947Y14419D02*
Y15499D01*
X9747Y14419D02*
Y15491D01*
X9597Y15641D02*
Y16319D01*
Y15641D02*
X9747Y15491D01*
X14650Y11900D02*
X15913D01*
X16891Y10922D01*
X14575Y13075D02*
X14650Y13150D01*
X14400Y13075D02*
X14575D01*
X14650Y11900D02*
Y13150D01*
X13020Y11900D02*
X13750D01*
X11100Y8000D02*
Y9430D01*
X11880Y4480D02*
X12160Y4200D01*
X13930D01*
X14326Y3804D01*
Y3112D02*
Y3804D01*
X7012Y4600D02*
X7320D01*
X7717Y4203D01*
Y4130D02*
Y4203D01*
X7250Y5500D02*
Y6210D01*
X9940Y6010D02*
X9950Y6000D01*
X9380Y6010D02*
X9940D01*
X6387Y2042D02*
Y4600D01*
Y2042D02*
X6397Y2032D01*
X6350Y5500D02*
X6387Y5463D01*
X14326Y1612D02*
X14368Y1570D01*
X13500D02*
X14368D01*
X3582Y3112D02*
X4369D01*
X3160Y2690D02*
X3582Y3112D01*
X3160Y1110D02*
Y2690D01*
X7371Y7600D02*
X8250D01*
X7371Y6331D02*
Y7600D01*
X7250Y6210D02*
X7371Y6331D01*
X5600Y36050D02*
X6180D01*
X5550Y36100D02*
X5600Y36050D01*
X3930Y36060D02*
X4610D01*
X4650Y36100D01*
X8343Y32380D02*
Y33387D01*
X8330Y33400D02*
X8343Y33387D01*
X5990Y32910D02*
X6000D01*
Y32250D02*
Y32910D01*
X9400Y32150D02*
Y32820D01*
X9410Y32830D01*
X10643Y32350D02*
Y32943D01*
X10650Y32950D01*
X11800Y32050D02*
Y32700D01*
X11900Y31950D02*
X13000D01*
X11800Y32050D02*
X11900Y31950D01*
X13000Y31084D02*
Y31950D01*
X14030Y31480D02*
X14570D01*
X13634Y31084D02*
X14030Y31480D01*
X13000Y31084D02*
X13634D01*
X13624Y30184D02*
X13670Y30230D01*
X13000Y30184D02*
X13624D01*
X11790Y30500D02*
Y31140D01*
X11800Y31150D01*
X10643Y30807D02*
Y31450D01*
Y30807D02*
X11010Y30440D01*
X9390Y30630D02*
Y31240D01*
X9400Y31250D01*
X8372D02*
X9400D01*
X8343Y31280D02*
X8372Y31250D01*
X6000Y31350D02*
X7100D01*
Y30680D02*
Y31350D01*
X8300Y30380D02*
X8300Y30380D01*
Y29830D02*
Y30380D01*
Y28550D02*
Y28930D01*
X10870Y28600D02*
X11400D01*
X10660Y28390D02*
X10870Y28600D01*
X12350Y27250D02*
Y28550D01*
X12300Y28600D02*
X12350Y28550D01*
X13926Y26698D02*
Y27374D01*
X13850Y27450D02*
X13926Y27374D01*
X13820Y27450D02*
X13850D01*
X11400Y25050D02*
Y25980D01*
X11600Y26180D01*
X12260D01*
X12340Y32860D02*
X12990D01*
X13000Y32850D01*
X13017Y33700D02*
X13590D01*
X13730Y33560D01*
Y32740D02*
Y33560D01*
Y32740D02*
X13900Y32570D01*
X14400D01*
X13017Y34600D02*
X14550D01*
X14600Y34650D01*
X13017Y34600D02*
Y35657D01*
X11990Y35670D02*
X13004D01*
X13017Y35657D01*
X11840Y36750D02*
Y37310D01*
X11800Y37350D02*
X11840Y37310D01*
X11720Y38960D02*
X11800Y38880D01*
Y38250D02*
Y38880D01*
X2650Y46480D02*
X2655Y46485D01*
Y45363D02*
Y46485D01*
X1155Y48363D02*
Y49485D01*
X2655Y48363D02*
Y49465D01*
X2650Y49470D02*
X2655Y49465D01*
X5100Y43640D02*
Y44300D01*
Y43640D02*
X5450Y43290D01*
Y43100D02*
Y43290D01*
X13200Y41050D02*
X14300D01*
Y40250D02*
Y41050D01*
X11700Y40452D02*
X12602D01*
X13200Y41050D01*
X11700Y42352D02*
Y43850D01*
X13900Y23682D02*
X14538D01*
X14570Y23650D01*
X6387Y4600D02*
Y5010D01*
Y5463D01*
X9500Y41402D02*
X9508Y41410D01*
X10630D01*
X6517Y46142D02*
X7717D01*
X12800Y43850D02*
X14589D01*
X14834Y44094D01*
X6610Y24240D02*
X7230D01*
X6600Y24250D02*
X6610Y24240D01*
X7790Y25150D02*
X7990Y24950D01*
X8900D01*
X4369Y720D02*
Y1612D01*
X9747Y13217D02*
Y14419D01*
X9580Y13050D02*
X9747Y13217D01*
X8900Y27900D02*
X9500D01*
X9990Y28390D01*
X10660D01*
X13260Y41940D02*
Y42590D01*
X13280Y42610D01*
X9097Y15649D02*
Y16319D01*
X11800Y37350D02*
X12780D01*
X13017Y37113D01*
Y37000D02*
Y37113D01*
X6162Y48842D02*
X8017D01*
X10017D01*
X12517D01*
X1200Y45408D02*
Y46500D01*
X1155Y45363D02*
X1200Y45408D01*
X7870Y28320D02*
X8070D01*
X8300Y28550D01*
X8300Y30350D02*
Y30380D01*
X8000Y729D02*
X10209D01*
X10570Y1090D01*
D71*
X12500Y11010D02*
X14240D01*
X12320Y11190D02*
X12500Y11010D01*
X11920Y11190D02*
Y11930D01*
Y11190D02*
X12320D01*
X12300Y12950D02*
X13300D01*
X14580Y6190D02*
Y7020D01*
X14530Y6140D02*
X14580Y6190D01*
X12750Y7170D02*
X15679D01*
X16891Y8382D01*
X14530Y5809D02*
Y6140D01*
X11950Y6370D02*
X12750Y7170D01*
X11950Y5540D02*
Y6370D01*
X9560Y4570D02*
X10980D01*
X11950Y5540D01*
X11810Y7320D02*
X11820Y7330D01*
X11810Y7320D02*
Y10190D01*
X11590Y7100D02*
X11810Y7320D01*
X11820Y7330D02*
Y7790D01*
X11100Y7100D02*
X11590D01*
X11820Y7790D02*
X12550D01*
X14450Y10390D02*
Y10800D01*
X12010Y10390D02*
X12550D01*
X11810Y10190D02*
X12010Y10390D01*
X14240Y11010D02*
X14450Y10800D01*
X10850Y6000D02*
Y6850D01*
X13926Y25296D02*
Y25798D01*
X12350Y25050D02*
X13167D01*
X13297Y25180D01*
X13810D01*
X13900Y24582D02*
Y25270D01*
X13810Y25180D02*
X13850Y25220D01*
X13900Y25270D01*
X13926Y25296D01*
X8900Y25850D02*
Y27000D01*
X9490D01*
X9740Y27250D01*
X10450D01*
X8390Y6580D02*
X8460Y6650D01*
X9990D02*
X10440Y7100D01*
X11100D01*
X8460Y6650D02*
X9990D01*
X7100Y32250D02*
Y32920D01*
X7090Y32930D02*
X7100Y32920D01*
X13300Y12950D02*
Y13075D01*
X7440Y44300D02*
X7460Y44320D01*
X6600Y44300D02*
X7440D01*
X7740Y25860D02*
X7750Y25850D01*
X8900D01*
X15110Y41170D02*
Y42490D01*
X14890Y42710D02*
X15110Y42490D01*
X14313Y41960D02*
Y42607D01*
X14250Y42670D02*
X14313Y42607D01*
X14150Y42710D02*
X14890D01*
X13650Y28900D02*
X14400Y29650D01*
Y30430D01*
D72*
X10495Y38788D02*
X10547Y38840D01*
X12464Y45514D02*
Y46755D01*
X11763Y47456D02*
X12464Y46755D01*
X9230Y47456D02*
X11763D01*
X9017Y45103D02*
Y46142D01*
X10547Y38830D02*
X10550D01*
X8080Y43312D02*
X9167Y44400D01*
X8432Y43167D02*
X9519Y44254D01*
X8080Y40440D02*
Y43312D01*
X8432Y40586D02*
Y43167D01*
X9768Y39250D02*
X10030D01*
X8432Y40586D02*
X9768Y39250D01*
X9732Y38788D02*
X10495D01*
X8080Y40440D02*
X9732Y38788D01*
X8904Y44990D02*
X9017Y45103D01*
X9667Y45103D02*
Y46142D01*
Y45103D02*
X9750Y45020D01*
X9519Y44692D02*
X9780Y44952D01*
X9519Y44254D02*
Y44692D01*
X9167Y44400D02*
Y44705D01*
X8920Y44952D02*
X9167Y44705D01*
X8880Y44990D02*
X8904D01*
X8920D01*
X9017Y46142D02*
Y47243D01*
X9230Y47456D01*
X11700Y44750D02*
X12464Y45514D01*
D73*
X6290Y43100D02*
X6320Y43130D01*
X6960D01*
X10317Y46142D02*
Y46647D01*
X10720Y47050D01*
D74*
X17374Y44094D02*
D03*
D75*
X14834D02*
D03*
Y46634D02*
D03*
X17374D02*
D03*
Y49174D02*
D03*
X6517Y46142D02*
D03*
X11517D02*
D03*
D76*
X14525Y6050D02*
D03*
D77*
X13255D02*
D03*
D78*
X5517Y48842D02*
D03*
X12517D02*
D03*
D79*
X1651Y38862D02*
D03*
Y36322D02*
D03*
Y33782D02*
D03*
Y31242D02*
D03*
Y28702D02*
D03*
Y26162D02*
D03*
Y23622D02*
D03*
Y21082D02*
D03*
Y18542D02*
D03*
Y16002D02*
D03*
Y13462D02*
D03*
Y10922D02*
D03*
Y8382D02*
D03*
Y5842D02*
D03*
X16891Y38862D02*
D03*
Y36322D02*
D03*
Y33782D02*
D03*
Y31242D02*
D03*
Y28702D02*
D03*
Y26162D02*
D03*
Y23622D02*
D03*
Y21082D02*
D03*
Y18542D02*
D03*
Y16002D02*
D03*
Y13462D02*
D03*
Y10922D02*
D03*
Y8382D02*
D03*
Y5842D02*
D03*
D80*
X1651Y41402D02*
D03*
X16891D02*
D03*
D81*
X5570Y10230D02*
D03*
X6790Y21050D02*
D03*
X8520Y36928D02*
D03*
X8940Y36150D02*
D03*
X3260Y20040D02*
D03*
X2850Y19700D02*
D03*
X2330Y19760D02*
D03*
X3920Y20960D02*
D03*
X4150Y21580D02*
D03*
X6420Y42340D02*
D03*
X5770Y40700D02*
D03*
X11143Y13229D02*
D03*
X12300Y12950D02*
D03*
X14490Y9610D02*
D03*
X12540Y9700D02*
D03*
X11020Y10410D02*
D03*
X12500Y11030D02*
D03*
X9730Y11210D02*
D03*
X7980Y17400D02*
D03*
X7920Y20090D02*
D03*
X10680Y20160D02*
D03*
X9347Y18669D02*
D03*
X10760Y17910D02*
D03*
X9090Y15700D02*
D03*
X9636Y15680D02*
D03*
X13020Y11900D02*
D03*
X15320Y10890D02*
D03*
X14460Y8480D02*
D03*
X12770Y8500D02*
D03*
X11100Y9430D02*
D03*
X11880Y4480D02*
D03*
X7730Y3400D02*
D03*
X7717Y4130D02*
D03*
X7240Y6220D02*
D03*
X9560Y4570D02*
D03*
X9380Y6010D02*
D03*
X13500Y1570D02*
D03*
X3160Y1110D02*
D03*
X4844Y8204D02*
D03*
X5831Y14410D02*
D03*
X5097Y15287D02*
D03*
X8947Y21847D02*
D03*
X10547Y22024D02*
D03*
X11071Y21929D02*
D03*
X12588Y21242D02*
D03*
X12553Y20287D02*
D03*
X11890Y21520D02*
D03*
X4010Y17469D02*
D03*
X3720Y16930D02*
D03*
X6110Y20250D02*
D03*
X3420Y31260D02*
D03*
X2370Y22550D02*
D03*
X5010Y30280D02*
D03*
X6521Y28450D02*
D03*
X4080Y31850D02*
D03*
X6040Y34380D02*
D03*
X6180Y36050D02*
D03*
X3930Y36060D02*
D03*
X8330Y33400D02*
D03*
X5990Y32910D02*
D03*
X9410Y32830D02*
D03*
X10650Y32950D02*
D03*
X11800Y32700D02*
D03*
X14570Y31480D02*
D03*
X13670Y30230D02*
D03*
X11790Y30500D02*
D03*
X11010Y30440D02*
D03*
X9390Y30630D02*
D03*
X7100Y30680D02*
D03*
X10660Y28390D02*
D03*
X13820Y27450D02*
D03*
X13850Y25220D02*
D03*
X12260Y26180D02*
D03*
X7740Y25860D02*
D03*
X12340Y32860D02*
D03*
X11990Y35670D02*
D03*
X14570Y36030D02*
D03*
X15000Y36540D02*
D03*
X11840Y36750D02*
D03*
X11720Y38960D02*
D03*
X2650Y46480D02*
D03*
X1155Y49485D02*
D03*
X2650Y49470D02*
D03*
X14570Y23650D02*
D03*
X14850Y22990D02*
D03*
X14960Y22470D02*
D03*
X8390Y6580D02*
D03*
X7090Y32930D02*
D03*
X7410Y26720D02*
D03*
X4110Y26530D02*
D03*
X9820Y22090D02*
D03*
X14600Y16760D02*
D03*
X15720Y17150D02*
D03*
X15330Y18110D02*
D03*
X14230Y14950D02*
D03*
X15420Y15370D02*
D03*
X6230Y19470D02*
D03*
X10030Y39250D02*
D03*
X10550Y38830D02*
D03*
X10630Y41410D02*
D03*
X8880Y44990D02*
D03*
X9800D02*
D03*
X6960Y43130D02*
D03*
X7460Y44320D02*
D03*
X13110Y45440D02*
D03*
X8190Y44930D02*
D03*
X3630Y44940D02*
D03*
X7230Y24240D02*
D03*
X7790Y25150D02*
D03*
X7720Y24550D02*
D03*
X15020Y32950D02*
D03*
X15110Y41170D02*
D03*
X4270Y37500D02*
D03*
X14900Y38590D02*
D03*
X4369Y720D02*
D03*
X9580Y13050D02*
D03*
X14150Y42710D02*
D03*
X13280Y42610D02*
D03*
X4620Y6995D02*
D03*
X1730Y2320D02*
D03*
X13650Y28900D02*
D03*
X13004Y39800D02*
D03*
X10600Y3350D02*
D03*
X1200Y46500D02*
D03*
X9530Y40370D02*
D03*
X10490Y43630D02*
D03*
X7870Y28320D02*
D03*
X8300Y30350D02*
D03*
X10720Y47050D02*
D03*
X8000Y729D02*
D03*
X10570Y1090D02*
D03*
X760Y47070D02*
D03*
X1790Y49640D02*
D03*
X4230Y49630D02*
D03*
X4960Y47220D02*
D03*
X700Y43750D02*
D03*
X4530Y43180D02*
D03*
X3550Y40520D02*
D03*
X700Y40000D02*
D03*
Y37490D02*
D03*
Y35030D02*
D03*
X3670Y34710D02*
D03*
X5660Y37080D02*
D03*
X3840Y38690D02*
D03*
X5860Y38490D02*
D03*
X680Y29910D02*
D03*
X660Y32310D02*
D03*
X4360Y28960D02*
D03*
X5590Y28920D02*
D03*
X6580Y30410D02*
D03*
X7110Y33730D02*
D03*
X670Y22260D02*
D03*
X650Y19820D02*
D03*
X590Y17210D02*
D03*
X2420Y17320D02*
D03*
X610Y14760D02*
D03*
X3880Y16050D02*
D03*
Y14610D02*
D03*
X5650Y13510D02*
D03*
X530Y12080D02*
D03*
X2630Y11810D02*
D03*
X740Y9710D02*
D03*
X3920Y12390D02*
D03*
X2550Y7160D02*
D03*
X700Y4860D02*
D03*
X5130Y3920D02*
D03*
X5097Y729D02*
D03*
X730Y680D02*
D03*
X5517Y6340D02*
D03*
X13550Y620D02*
D03*
X15940Y610D02*
D03*
X17830Y650D02*
D03*
X17850Y12060D02*
D03*
X17770Y14780D02*
D03*
X17800Y17270D02*
D03*
X17740Y19970D02*
D03*
X15970Y22040D02*
D03*
X15980Y24870D02*
D03*
X17890Y27650D02*
D03*
X17790Y32400D02*
D03*
X17820Y30000D02*
D03*
X17800Y35090D02*
D03*
X17860Y37540D02*
D03*
X9190Y36930D02*
D03*
X8130Y34310D02*
D03*
X12200Y33670D02*
D03*
X10040Y34200D02*
D03*
X10760Y36130D02*
D03*
X10360Y40010D02*
D03*
X10550Y42300D02*
D03*
X12840Y43140D02*
D03*
X13810Y49560D02*
D03*
X16050Y49610D02*
D03*
X16110Y47670D02*
D03*
X13530Y47660D02*
D03*
M02*
