G04*
G04 #@! TF.GenerationSoftware,Altium Limited,Altium Designer,18.1.9 (240)*
G04*
G04 Layer_Color=16711935*
%FSLAX43Y43*%
%MOMM*%
G71*
G01*
G75*
%ADD15C,0.100*%
%ADD17R,0.700X1.400*%
%ADD18R,0.800X0.610*%
%ADD19R,1.500X1.100*%
%ADD31R,0.640X1.160*%
%ADD35R,0.660X0.610*%
%ADD36R,0.610X0.800*%
%ADD37R,0.610X0.660*%
%ADD38R,1.703X1.703*%
%ADD39C,1.703*%
%ADD40R,1.100X1.600*%
%ADD41O,1.100X1.600*%
%ADD42O,1.300X2.000*%
%ADD43C,1.600*%
%ADD44C,1.950*%
%ADD45R,1.950X1.950*%
%ADD46C,0.300*%
%ADD76R,1.000X1.500*%
%ADD92R,3.600X1.750*%
%ADD93R,1.600X1.750*%
%ADD94R,1.300X0.400*%
%ADD95R,0.400X1.300*%
%ADD96R,0.400X1.090*%
%ADD97R,1.500X1.740*%
%ADD98R,1.600X2.800*%
G36*
X11975Y5292D02*
X11275D01*
X10725Y5842D01*
X11275Y6392D01*
X11975D01*
Y5292D01*
D02*
G37*
G36*
X10625Y5842D02*
X10625D01*
X11175Y5292D01*
X9825D01*
Y6392D01*
X11175D01*
X10625Y5842D01*
D02*
G37*
G36*
X18050Y3375D02*
X17500Y2825D01*
X16950Y3375D01*
Y4075D01*
X18050D01*
Y3375D01*
D02*
G37*
G36*
X16650D02*
X16100Y2825D01*
X15550Y3375D01*
Y4075D01*
X16650D01*
Y3375D01*
D02*
G37*
G36*
X18050Y1925D02*
X16950D01*
Y3275D01*
X17500Y2725D01*
Y2725D01*
X18050Y3275D01*
Y1925D01*
D02*
G37*
G36*
X16650D02*
X15550D01*
Y3275D01*
X16100Y2725D01*
Y2725D01*
X16650Y3275D01*
Y1925D01*
D02*
G37*
G36*
X6205Y-16437D02*
X6302Y-16451D01*
X6346Y-16459D01*
X6388Y-16470D01*
X6427Y-16478D01*
X6463Y-16489D01*
X6496Y-16501D01*
X6524Y-16512D01*
X6549Y-16523D01*
X6571Y-16531D01*
X6588Y-16539D01*
X6599Y-16545D01*
X6607Y-16548D01*
X6610Y-16550D01*
X6649Y-16575D01*
X6688Y-16600D01*
X6754Y-16659D01*
X6813Y-16717D01*
X6860Y-16778D01*
X6899Y-16831D01*
X6912Y-16853D01*
X6924Y-16875D01*
X6935Y-16892D01*
X6940Y-16903D01*
X6943Y-16911D01*
X6946Y-16914D01*
X6985Y-17006D01*
X7012Y-17097D01*
X7035Y-17186D01*
X7040Y-17228D01*
X7048Y-17267D01*
X7051Y-17303D01*
X7057Y-17333D01*
X7060Y-17364D01*
Y-17389D01*
X7062Y-17408D01*
Y-17422D01*
Y-17433D01*
Y-17436D01*
X7057Y-17539D01*
X7043Y-17636D01*
X7035Y-17680D01*
X7026Y-17722D01*
X7015Y-17764D01*
X7004Y-17800D01*
X6993Y-17833D01*
X6982Y-17861D01*
X6974Y-17889D01*
X6965Y-17908D01*
X6957Y-17927D01*
X6951Y-17939D01*
X6946Y-17947D01*
Y-17950D01*
X6896Y-18030D01*
X6840Y-18100D01*
X6782Y-18161D01*
X6726Y-18211D01*
X6674Y-18250D01*
X6654Y-18263D01*
X6635Y-18277D01*
X6618Y-18286D01*
X6607Y-18294D01*
X6599Y-18297D01*
X6596Y-18299D01*
X6552Y-18322D01*
X6507Y-18338D01*
X6418Y-18369D01*
X6332Y-18388D01*
X6252Y-18405D01*
X6216Y-18408D01*
X6182Y-18413D01*
X6152Y-18416D01*
X6127D01*
X6107Y-18419D01*
X6080D01*
X6002Y-18416D01*
X5927Y-18408D01*
X5857Y-18394D01*
X5796Y-18380D01*
X5771Y-18374D01*
X5746Y-18369D01*
X5724Y-18361D01*
X5705Y-18355D01*
X5691Y-18349D01*
X5680Y-18347D01*
X5674Y-18344D01*
X5671D01*
X5597Y-18313D01*
X5527Y-18277D01*
X5460Y-18238D01*
X5402Y-18202D01*
X5377Y-18186D01*
X5352Y-18169D01*
X5333Y-18155D01*
X5316Y-18144D01*
X5302Y-18133D01*
X5291Y-18125D01*
X5286Y-18122D01*
X5283Y-18119D01*
Y-17406D01*
X6099D01*
Y-17633D01*
X5533D01*
Y-17994D01*
X5566Y-18022D01*
X5605Y-18047D01*
X5647Y-18069D01*
X5685Y-18089D01*
X5719Y-18105D01*
X5749Y-18119D01*
X5760Y-18125D01*
X5766Y-18127D01*
X5771Y-18130D01*
X5774D01*
X5833Y-18150D01*
X5891Y-18166D01*
X5944Y-18177D01*
X5994Y-18183D01*
X6035Y-18188D01*
X6052D01*
X6068Y-18191D01*
X6096D01*
X6166Y-18188D01*
X6232Y-18177D01*
X6293Y-18163D01*
X6349Y-18150D01*
X6393Y-18133D01*
X6413Y-18127D01*
X6427Y-18122D01*
X6440Y-18116D01*
X6449Y-18111D01*
X6454Y-18108D01*
X6457D01*
X6515Y-18072D01*
X6568Y-18033D01*
X6613Y-17991D01*
X6649Y-17950D01*
X6679Y-17911D01*
X6699Y-17880D01*
X6707Y-17869D01*
X6710Y-17861D01*
X6715Y-17855D01*
Y-17853D01*
X6743Y-17783D01*
X6765Y-17711D01*
X6779Y-17639D01*
X6790Y-17569D01*
X6793Y-17539D01*
X6796Y-17511D01*
X6799Y-17483D01*
Y-17461D01*
X6801Y-17444D01*
Y-17431D01*
Y-17422D01*
Y-17419D01*
X6799Y-17342D01*
X6790Y-17272D01*
X6779Y-17206D01*
X6765Y-17147D01*
X6760Y-17122D01*
X6751Y-17100D01*
X6746Y-17081D01*
X6740Y-17064D01*
X6735Y-17050D01*
X6732Y-17042D01*
X6729Y-17036D01*
Y-17034D01*
X6710Y-16995D01*
X6690Y-16959D01*
X6671Y-16925D01*
X6651Y-16898D01*
X6635Y-16875D01*
X6621Y-16856D01*
X6610Y-16845D01*
X6607Y-16842D01*
X6577Y-16811D01*
X6543Y-16784D01*
X6507Y-16761D01*
X6474Y-16739D01*
X6446Y-16725D01*
X6424Y-16712D01*
X6407Y-16706D01*
X6402Y-16703D01*
X6352Y-16684D01*
X6302Y-16670D01*
X6249Y-16662D01*
X6202Y-16653D01*
X6160Y-16650D01*
X6143D01*
X6130Y-16648D01*
X6099D01*
X6046Y-16650D01*
X5996Y-16656D01*
X5952Y-16664D01*
X5913Y-16673D01*
X5880Y-16684D01*
X5855Y-16692D01*
X5841Y-16698D01*
X5835Y-16700D01*
X5794Y-16720D01*
X5758Y-16742D01*
X5724Y-16764D01*
X5699Y-16786D01*
X5680Y-16806D01*
X5663Y-16820D01*
X5655Y-16831D01*
X5652Y-16834D01*
X5627Y-16867D01*
X5608Y-16906D01*
X5588Y-16942D01*
X5572Y-16981D01*
X5560Y-17014D01*
X5552Y-17039D01*
X5549Y-17050D01*
X5547Y-17059D01*
X5544Y-17061D01*
Y-17064D01*
X5313Y-17003D01*
X5333Y-16934D01*
X5358Y-16873D01*
X5383Y-16817D01*
X5405Y-16773D01*
X5427Y-16736D01*
X5444Y-16712D01*
X5455Y-16695D01*
X5460Y-16689D01*
X5499Y-16645D01*
X5541Y-16609D01*
X5585Y-16575D01*
X5627Y-16548D01*
X5666Y-16528D01*
X5696Y-16512D01*
X5708Y-16506D01*
X5716Y-16503D01*
X5721Y-16501D01*
X5724D01*
X5788Y-16478D01*
X5855Y-16462D01*
X5916Y-16448D01*
X5974Y-16439D01*
X6027Y-16434D01*
X6049D01*
X6066Y-16431D01*
X6155D01*
X6205Y-16437D01*
D02*
G37*
G36*
X7706Y-18386D02*
X7437D01*
Y-18116D01*
X7706D01*
Y-18386D01*
D02*
G37*
G36*
X4919D02*
X4186D01*
X4120Y-18383D01*
X4061Y-18380D01*
X4009Y-18374D01*
X3964Y-18369D01*
X3928Y-18363D01*
X3900Y-18361D01*
X3884Y-18355D01*
X3878D01*
X3831Y-18341D01*
X3792Y-18327D01*
X3756Y-18311D01*
X3725Y-18294D01*
X3700Y-18283D01*
X3681Y-18272D01*
X3670Y-18263D01*
X3667Y-18261D01*
X3637Y-18236D01*
X3609Y-18205D01*
X3587Y-18175D01*
X3564Y-18147D01*
X3548Y-18119D01*
X3537Y-18100D01*
X3528Y-18086D01*
X3525Y-18080D01*
X3506Y-18036D01*
X3492Y-17991D01*
X3481Y-17950D01*
X3475Y-17911D01*
X3470Y-17878D01*
X3467Y-17850D01*
Y-17833D01*
Y-17830D01*
Y-17828D01*
X3470Y-17766D01*
X3481Y-17711D01*
X3498Y-17664D01*
X3514Y-17619D01*
X3531Y-17586D01*
X3548Y-17561D01*
X3559Y-17544D01*
X3562Y-17539D01*
X3600Y-17494D01*
X3642Y-17458D01*
X3689Y-17428D01*
X3731Y-17403D01*
X3770Y-17383D01*
X3803Y-17372D01*
X3814Y-17367D01*
X3823Y-17364D01*
X3828Y-17361D01*
X3831D01*
X3784Y-17333D01*
X3742Y-17306D01*
X3709Y-17275D01*
X3681Y-17247D01*
X3659Y-17225D01*
X3642Y-17203D01*
X3634Y-17192D01*
X3631Y-17186D01*
X3609Y-17145D01*
X3592Y-17106D01*
X3578Y-17067D01*
X3570Y-17031D01*
X3564Y-17000D01*
X3562Y-16975D01*
Y-16961D01*
Y-16956D01*
X3564Y-16909D01*
X3573Y-16861D01*
X3587Y-16820D01*
X3600Y-16781D01*
X3614Y-16748D01*
X3628Y-16725D01*
X3637Y-16709D01*
X3639Y-16703D01*
X3670Y-16662D01*
X3703Y-16623D01*
X3739Y-16592D01*
X3773Y-16567D01*
X3800Y-16548D01*
X3825Y-16534D01*
X3842Y-16525D01*
X3845Y-16523D01*
X3848D01*
X3900Y-16503D01*
X3959Y-16489D01*
X4017Y-16478D01*
X4072Y-16473D01*
X4122Y-16467D01*
X4145D01*
X4164Y-16464D01*
X4919D01*
Y-18386D01*
D02*
G37*
G36*
X2529Y-16434D02*
X2593Y-16442D01*
X2654Y-16453D01*
X2706Y-16464D01*
X2748Y-16476D01*
X2768Y-16481D01*
X2781Y-16487D01*
X2793Y-16492D01*
X2801Y-16495D01*
X2806Y-16498D01*
X2809D01*
X2865Y-16525D01*
X2915Y-16556D01*
X2956Y-16589D01*
X2990Y-16620D01*
X3015Y-16648D01*
X3034Y-16670D01*
X3048Y-16687D01*
X3051Y-16689D01*
Y-16692D01*
X3079Y-16739D01*
X3098Y-16786D01*
X3112Y-16834D01*
X3120Y-16875D01*
X3126Y-16911D01*
X3131Y-16939D01*
Y-16950D01*
Y-16959D01*
Y-16961D01*
Y-16964D01*
X3128Y-17011D01*
X3120Y-17056D01*
X3109Y-17097D01*
X3098Y-17133D01*
X3087Y-17161D01*
X3076Y-17183D01*
X3067Y-17197D01*
X3065Y-17203D01*
X3037Y-17242D01*
X3004Y-17278D01*
X2970Y-17308D01*
X2937Y-17333D01*
X2909Y-17356D01*
X2884Y-17369D01*
X2868Y-17381D01*
X2865Y-17383D01*
X2862D01*
X2840Y-17394D01*
X2815Y-17406D01*
X2759Y-17425D01*
X2695Y-17444D01*
X2634Y-17464D01*
X2579Y-17481D01*
X2554Y-17486D01*
X2532Y-17492D01*
X2515Y-17497D01*
X2501Y-17500D01*
X2493Y-17503D01*
X2490D01*
X2443Y-17514D01*
X2398Y-17525D01*
X2359Y-17536D01*
X2326Y-17544D01*
X2293Y-17553D01*
X2265Y-17561D01*
X2240Y-17567D01*
X2221Y-17575D01*
X2201Y-17580D01*
X2187Y-17583D01*
X2165Y-17592D01*
X2151Y-17594D01*
X2148Y-17597D01*
X2107Y-17614D01*
X2071Y-17633D01*
X2040Y-17653D01*
X2018Y-17669D01*
X1999Y-17686D01*
X1987Y-17697D01*
X1979Y-17705D01*
X1976Y-17708D01*
X1957Y-17733D01*
X1943Y-17761D01*
X1935Y-17789D01*
X1926Y-17811D01*
X1924Y-17833D01*
X1921Y-17850D01*
Y-17864D01*
Y-17866D01*
X1924Y-17900D01*
X1929Y-17930D01*
X1937Y-17958D01*
X1949Y-17980D01*
X1960Y-18002D01*
X1968Y-18016D01*
X1974Y-18027D01*
X1976Y-18030D01*
X1999Y-18058D01*
X2026Y-18080D01*
X2054Y-18100D01*
X2079Y-18119D01*
X2104Y-18130D01*
X2123Y-18141D01*
X2137Y-18147D01*
X2143Y-18150D01*
X2185Y-18163D01*
X2229Y-18175D01*
X2273Y-18180D01*
X2312Y-18186D01*
X2346Y-18188D01*
X2373Y-18191D01*
X2398D01*
X2459Y-18188D01*
X2515Y-18183D01*
X2565Y-18175D01*
X2609Y-18163D01*
X2645Y-18152D01*
X2673Y-18144D01*
X2681Y-18141D01*
X2690Y-18138D01*
X2693Y-18136D01*
X2695D01*
X2740Y-18114D01*
X2781Y-18089D01*
X2812Y-18064D01*
X2840Y-18039D01*
X2862Y-18019D01*
X2876Y-18000D01*
X2884Y-17989D01*
X2887Y-17986D01*
X2906Y-17950D01*
X2926Y-17911D01*
X2937Y-17869D01*
X2948Y-17833D01*
X2956Y-17797D01*
X2962Y-17772D01*
Y-17761D01*
X2965Y-17753D01*
Y-17750D01*
Y-17747D01*
X3203Y-17769D01*
X3198Y-17839D01*
X3187Y-17905D01*
X3170Y-17964D01*
X3151Y-18016D01*
X3131Y-18058D01*
X3123Y-18075D01*
X3117Y-18089D01*
X3109Y-18100D01*
X3106Y-18108D01*
X3101Y-18114D01*
Y-18116D01*
X3059Y-18169D01*
X3015Y-18216D01*
X2967Y-18255D01*
X2923Y-18288D01*
X2884Y-18313D01*
X2851Y-18330D01*
X2840Y-18336D01*
X2831Y-18341D01*
X2826Y-18344D01*
X2823D01*
X2754Y-18369D01*
X2681Y-18388D01*
X2609Y-18399D01*
X2540Y-18411D01*
X2507Y-18413D01*
X2479Y-18416D01*
X2454D01*
X2432Y-18419D01*
X2387D01*
X2312Y-18416D01*
X2243Y-18408D01*
X2179Y-18394D01*
X2126Y-18380D01*
X2082Y-18369D01*
X2062Y-18361D01*
X2046Y-18355D01*
X2035Y-18349D01*
X2026Y-18347D01*
X2021Y-18344D01*
X2018D01*
X1960Y-18313D01*
X1910Y-18280D01*
X1865Y-18244D01*
X1829Y-18211D01*
X1801Y-18183D01*
X1782Y-18158D01*
X1768Y-18141D01*
X1765Y-18138D01*
Y-18136D01*
X1735Y-18083D01*
X1713Y-18033D01*
X1699Y-17986D01*
X1688Y-17941D01*
X1682Y-17903D01*
X1676Y-17872D01*
Y-17861D01*
Y-17853D01*
Y-17850D01*
Y-17847D01*
X1679Y-17791D01*
X1688Y-17739D01*
X1701Y-17692D01*
X1715Y-17653D01*
X1732Y-17619D01*
X1743Y-17594D01*
X1754Y-17580D01*
X1757Y-17575D01*
X1790Y-17533D01*
X1829Y-17494D01*
X1871Y-17461D01*
X1912Y-17431D01*
X1949Y-17408D01*
X1979Y-17392D01*
X1990Y-17386D01*
X1999Y-17381D01*
X2004Y-17378D01*
X2007D01*
X2029Y-17367D01*
X2057Y-17358D01*
X2087Y-17347D01*
X2121Y-17336D01*
X2190Y-17317D01*
X2262Y-17297D01*
X2296Y-17289D01*
X2326Y-17281D01*
X2357Y-17272D01*
X2382Y-17267D01*
X2401Y-17261D01*
X2418Y-17258D01*
X2429Y-17256D01*
X2432D01*
X2487Y-17242D01*
X2537Y-17231D01*
X2582Y-17217D01*
X2620Y-17206D01*
X2657Y-17192D01*
X2687Y-17181D01*
X2715Y-17170D01*
X2740Y-17161D01*
X2759Y-17150D01*
X2776Y-17142D01*
X2787Y-17136D01*
X2798Y-17128D01*
X2812Y-17120D01*
X2815Y-17117D01*
X2840Y-17089D01*
X2856Y-17061D01*
X2870Y-17034D01*
X2879Y-17006D01*
X2884Y-16984D01*
X2887Y-16964D01*
Y-16953D01*
Y-16947D01*
X2881Y-16903D01*
X2870Y-16864D01*
X2854Y-16831D01*
X2834Y-16800D01*
X2818Y-16778D01*
X2801Y-16759D01*
X2790Y-16748D01*
X2784Y-16745D01*
X2762Y-16731D01*
X2740Y-16717D01*
X2687Y-16695D01*
X2632Y-16681D01*
X2576Y-16670D01*
X2526Y-16664D01*
X2504Y-16662D01*
X2487Y-16659D01*
X2448D01*
X2371Y-16662D01*
X2301Y-16673D01*
X2246Y-16689D01*
X2198Y-16706D01*
X2162Y-16723D01*
X2135Y-16739D01*
X2121Y-16750D01*
X2115Y-16753D01*
X2076Y-16792D01*
X2046Y-16834D01*
X2021Y-16878D01*
X2004Y-16923D01*
X1993Y-16964D01*
X1985Y-16995D01*
X1982Y-17009D01*
X1979Y-17017D01*
Y-17022D01*
Y-17025D01*
X1735Y-17006D01*
X1740Y-16945D01*
X1754Y-16889D01*
X1768Y-16836D01*
X1788Y-16792D01*
X1804Y-16756D01*
X1818Y-16728D01*
X1824Y-16720D01*
X1829Y-16712D01*
X1832Y-16709D01*
Y-16706D01*
X1868Y-16659D01*
X1907Y-16617D01*
X1949Y-16581D01*
X1990Y-16553D01*
X2026Y-16528D01*
X2054Y-16514D01*
X2065Y-16509D01*
X2073Y-16503D01*
X2079Y-16501D01*
X2082D01*
X2143Y-16478D01*
X2210Y-16462D01*
X2271Y-16448D01*
X2329Y-16439D01*
X2382Y-16434D01*
X2401D01*
X2421Y-16431D01*
X2457D01*
X2529Y-16434D01*
D02*
G37*
G36*
X42188Y-16964D02*
X42235Y-16972D01*
X42277Y-16981D01*
X42313Y-16992D01*
X42344Y-17006D01*
X42366Y-17014D01*
X42380Y-17022D01*
X42385Y-17025D01*
X42424Y-17050D01*
X42457Y-17078D01*
X42488Y-17106D01*
X42513Y-17133D01*
X42532Y-17156D01*
X42549Y-17175D01*
X42557Y-17186D01*
X42560Y-17192D01*
Y-16992D01*
X42771D01*
Y-18386D01*
X42535D01*
Y-17664D01*
X42532Y-17597D01*
X42530Y-17539D01*
X42524Y-17489D01*
X42516Y-17447D01*
X42507Y-17417D01*
X42502Y-17394D01*
X42499Y-17381D01*
X42496Y-17375D01*
X42480Y-17339D01*
X42460Y-17308D01*
X42441Y-17281D01*
X42421Y-17258D01*
X42402Y-17242D01*
X42388Y-17231D01*
X42377Y-17222D01*
X42374Y-17220D01*
X42341Y-17203D01*
X42310Y-17189D01*
X42277Y-17181D01*
X42249Y-17172D01*
X42227Y-17170D01*
X42208Y-17167D01*
X42191D01*
X42144Y-17170D01*
X42105Y-17178D01*
X42072Y-17192D01*
X42047Y-17206D01*
X42027Y-17222D01*
X42013Y-17233D01*
X42005Y-17245D01*
X42002Y-17247D01*
X41983Y-17281D01*
X41969Y-17317D01*
X41958Y-17356D01*
X41952Y-17394D01*
X41947Y-17428D01*
X41944Y-17458D01*
Y-17469D01*
Y-17475D01*
Y-17481D01*
Y-17483D01*
Y-18386D01*
X41708Y-18386D01*
Y-17578D01*
X41702Y-17503D01*
X41691Y-17439D01*
X41677Y-17386D01*
X41658Y-17342D01*
X41641Y-17308D01*
X41625Y-17286D01*
X41613Y-17272D01*
X41611Y-17267D01*
X41572Y-17233D01*
X41530Y-17208D01*
X41489Y-17192D01*
X41450Y-17178D01*
X41416Y-17172D01*
X41389Y-17170D01*
X41378Y-17167D01*
X41364D01*
X41333Y-17170D01*
X41308Y-17172D01*
X41283Y-17178D01*
X41264Y-17186D01*
X41244Y-17195D01*
X41233Y-17200D01*
X41225Y-17203D01*
X41222Y-17206D01*
X41200Y-17222D01*
X41183Y-17239D01*
X41169Y-17256D01*
X41158Y-17272D01*
X41150Y-17286D01*
X41144Y-17297D01*
X41139Y-17306D01*
Y-17308D01*
X41130Y-17333D01*
X41125Y-17367D01*
X41122Y-17400D01*
X41119Y-17433D01*
X41117Y-17464D01*
Y-17489D01*
Y-17506D01*
Y-17508D01*
Y-17511D01*
Y-18386D01*
X40881D01*
Y-17431D01*
Y-17386D01*
X40886Y-17347D01*
X40892Y-17308D01*
X40897Y-17275D01*
X40906Y-17242D01*
X40917Y-17214D01*
X40925Y-17189D01*
X40936Y-17164D01*
X40947Y-17145D01*
X40956Y-17125D01*
X40975Y-17100D01*
X40986Y-17084D01*
X40992Y-17078D01*
X41036Y-17039D01*
X41089Y-17011D01*
X41142Y-16989D01*
X41192Y-16975D01*
X41239Y-16967D01*
X41258Y-16964D01*
X41278D01*
X41291Y-16961D01*
X41311D01*
X41361Y-16964D01*
X41405Y-16972D01*
X41450Y-16984D01*
X41491Y-17000D01*
X41530Y-17020D01*
X41566Y-17039D01*
X41597Y-17061D01*
X41627Y-17084D01*
X41655Y-17109D01*
X41677Y-17131D01*
X41697Y-17150D01*
X41713Y-17170D01*
X41727Y-17186D01*
X41736Y-17197D01*
X41741Y-17206D01*
X41744Y-17208D01*
X41761Y-17167D01*
X41783Y-17131D01*
X41808Y-17100D01*
X41830Y-17075D01*
X41852Y-17053D01*
X41869Y-17039D01*
X41880Y-17031D01*
X41886Y-17028D01*
X41924Y-17006D01*
X41966Y-16989D01*
X42008Y-16978D01*
X42049Y-16970D01*
X42083Y-16964D01*
X42113Y-16961D01*
X42138D01*
X42188Y-16964D01*
D02*
G37*
G36*
X45717Y-16648D02*
Y-16992D01*
X45892D01*
Y-17175D01*
X45717D01*
Y-17980D01*
Y-18019D01*
Y-18052D01*
X45714Y-18083D01*
X45711Y-18114D01*
Y-18138D01*
X45708Y-18161D01*
X45703Y-18197D01*
X45697Y-18225D01*
X45695Y-18244D01*
X45689Y-18255D01*
Y-18258D01*
X45678Y-18283D01*
X45661Y-18302D01*
X45645Y-18322D01*
X45631Y-18336D01*
X45614Y-18349D01*
X45603Y-18358D01*
X45595Y-18363D01*
X45592Y-18366D01*
X45561Y-18380D01*
X45531Y-18388D01*
X45497Y-18397D01*
X45464Y-18399D01*
X45436Y-18402D01*
X45414Y-18405D01*
X45392D01*
X45331Y-18402D01*
X45300Y-18399D01*
X45273Y-18394D01*
X45248Y-18391D01*
X45228Y-18388D01*
X45217Y-18386D01*
X45211D01*
X45242Y-18177D01*
X45264Y-18180D01*
X45286Y-18183D01*
X45306D01*
X45320Y-18186D01*
X45348D01*
X45384Y-18183D01*
X45409Y-18177D01*
X45422Y-18172D01*
X45428Y-18169D01*
X45447Y-18155D01*
X45459Y-18141D01*
X45467Y-18130D01*
X45470Y-18125D01*
X45472Y-18111D01*
X45475Y-18091D01*
X45478Y-18047D01*
X45481Y-18027D01*
Y-18011D01*
Y-18000D01*
Y-17994D01*
Y-17175D01*
X45242D01*
Y-16992D01*
X45481D01*
Y-16506D01*
X45717Y-16648D01*
D02*
G37*
G36*
X44970D02*
Y-16992D01*
X45145D01*
Y-17175D01*
X44970D01*
Y-17980D01*
Y-18019D01*
Y-18052D01*
X44967Y-18083D01*
X44964Y-18114D01*
Y-18138D01*
X44962Y-18161D01*
X44956Y-18197D01*
X44951Y-18225D01*
X44948Y-18244D01*
X44942Y-18255D01*
Y-18258D01*
X44931Y-18283D01*
X44914Y-18302D01*
X44898Y-18322D01*
X44884Y-18336D01*
X44867Y-18349D01*
X44856Y-18358D01*
X44848Y-18363D01*
X44845Y-18366D01*
X44814Y-18380D01*
X44784Y-18388D01*
X44751Y-18397D01*
X44717Y-18399D01*
X44690Y-18402D01*
X44667Y-18405D01*
X44645D01*
X44584Y-18402D01*
X44554Y-18399D01*
X44526Y-18394D01*
X44501Y-18391D01*
X44481Y-18388D01*
X44470Y-18386D01*
X44465D01*
X44495Y-18177D01*
X44517Y-18180D01*
X44540Y-18183D01*
X44559D01*
X44573Y-18186D01*
X44601D01*
X44637Y-18183D01*
X44662Y-18177D01*
X44676Y-18172D01*
X44681Y-18169D01*
X44701Y-18155D01*
X44712Y-18141D01*
X44720Y-18130D01*
X44723Y-18125D01*
X44726Y-18111D01*
X44728Y-18091D01*
X44731Y-18047D01*
X44734Y-18027D01*
Y-18011D01*
Y-18000D01*
Y-17994D01*
Y-17175D01*
X44495D01*
Y-16992D01*
X44734D01*
Y-16506D01*
X44970Y-16648D01*
D02*
G37*
G36*
X33893Y-16964D02*
X33943Y-16970D01*
X33990Y-16978D01*
X34034Y-16992D01*
X34076Y-17006D01*
X34115Y-17022D01*
X34151Y-17039D01*
X34182Y-17059D01*
X34212Y-17075D01*
X34237Y-17095D01*
X34259Y-17111D01*
X34276Y-17125D01*
X34290Y-17139D01*
X34301Y-17147D01*
X34306Y-17153D01*
X34309Y-17156D01*
X34340Y-17195D01*
X34368Y-17236D01*
X34393Y-17278D01*
X34415Y-17322D01*
X34431Y-17369D01*
X34445Y-17414D01*
X34468Y-17503D01*
X34476Y-17542D01*
X34481Y-17580D01*
X34484Y-17614D01*
X34487Y-17644D01*
X34490Y-17669D01*
Y-17686D01*
Y-17700D01*
Y-17703D01*
X34487Y-17764D01*
X34481Y-17822D01*
X34473Y-17878D01*
X34462Y-17927D01*
X34448Y-17975D01*
X34434Y-18019D01*
X34418Y-18058D01*
X34401Y-18094D01*
X34384Y-18125D01*
X34368Y-18152D01*
X34354Y-18175D01*
X34340Y-18194D01*
X34329Y-18211D01*
X34320Y-18222D01*
X34315Y-18227D01*
X34312Y-18230D01*
X34276Y-18263D01*
X34240Y-18291D01*
X34201Y-18316D01*
X34159Y-18338D01*
X34120Y-18355D01*
X34079Y-18372D01*
X34001Y-18394D01*
X33965Y-18399D01*
X33932Y-18405D01*
X33901Y-18411D01*
X33876Y-18413D01*
X33857Y-18416D01*
X33826D01*
X33740Y-18411D01*
X33662Y-18397D01*
X33593Y-18380D01*
X33565Y-18369D01*
X33537Y-18358D01*
X33512Y-18347D01*
X33490Y-18336D01*
X33474Y-18327D01*
X33457Y-18319D01*
X33446Y-18311D01*
X33438Y-18305D01*
X33432Y-18300D01*
X33429D01*
X33374Y-18250D01*
X33329Y-18197D01*
X33290Y-18141D01*
X33263Y-18089D01*
X33240Y-18041D01*
X33232Y-18019D01*
X33224Y-18002D01*
X33218Y-17986D01*
X33215Y-17975D01*
X33213Y-17969D01*
Y-17966D01*
X33457Y-17936D01*
X33479Y-17989D01*
X33504Y-18033D01*
X33529Y-18072D01*
X33551Y-18102D01*
X33571Y-18125D01*
X33587Y-18141D01*
X33601Y-18152D01*
X33604Y-18155D01*
X33640Y-18177D01*
X33676Y-18194D01*
X33715Y-18205D01*
X33748Y-18213D01*
X33779Y-18219D01*
X33804Y-18222D01*
X33826D01*
X33860Y-18219D01*
X33890Y-18216D01*
X33946Y-18202D01*
X33996Y-18183D01*
X34040Y-18161D01*
X34073Y-18141D01*
X34098Y-18122D01*
X34115Y-18108D01*
X34118Y-18102D01*
X34120D01*
X34159Y-18052D01*
X34190Y-17997D01*
X34212Y-17936D01*
X34229Y-17880D01*
X34237Y-17830D01*
X34243Y-17808D01*
X34245Y-17789D01*
Y-17772D01*
X34248Y-17761D01*
Y-17753D01*
Y-17750D01*
X33207D01*
X33204Y-17722D01*
Y-17703D01*
Y-17692D01*
Y-17689D01*
X33207Y-17625D01*
X33213Y-17567D01*
X33221Y-17511D01*
X33232Y-17458D01*
X33246Y-17411D01*
X33260Y-17367D01*
X33277Y-17328D01*
X33293Y-17292D01*
X33310Y-17258D01*
X33326Y-17231D01*
X33340Y-17208D01*
X33354Y-17189D01*
X33365Y-17172D01*
X33374Y-17161D01*
X33379Y-17156D01*
X33382Y-17153D01*
X33415Y-17120D01*
X33451Y-17089D01*
X33490Y-17064D01*
X33529Y-17042D01*
X33568Y-17022D01*
X33604Y-17009D01*
X33643Y-16995D01*
X33676Y-16986D01*
X33712Y-16978D01*
X33743Y-16972D01*
X33771Y-16967D01*
X33793Y-16964D01*
X33812Y-16961D01*
X33840D01*
X33893Y-16964D01*
D02*
G37*
G36*
X49020Y-18386D02*
X48288D01*
X48221Y-18383D01*
X48163Y-18380D01*
X48110Y-18374D01*
X48065Y-18369D01*
X48029Y-18363D01*
X48002Y-18361D01*
X47985Y-18355D01*
X47979D01*
X47932Y-18341D01*
X47893Y-18327D01*
X47857Y-18311D01*
X47827Y-18294D01*
X47802Y-18283D01*
X47782Y-18272D01*
X47771Y-18263D01*
X47768Y-18261D01*
X47738Y-18236D01*
X47710Y-18205D01*
X47688Y-18175D01*
X47666Y-18147D01*
X47649Y-18119D01*
X47638Y-18100D01*
X47630Y-18086D01*
X47627Y-18080D01*
X47607Y-18036D01*
X47593Y-17991D01*
X47582Y-17950D01*
X47577Y-17911D01*
X47571Y-17878D01*
X47568Y-17850D01*
Y-17833D01*
Y-17830D01*
Y-17828D01*
X47571Y-17766D01*
X47582Y-17711D01*
X47599Y-17664D01*
X47616Y-17619D01*
X47632Y-17586D01*
X47649Y-17561D01*
X47660Y-17544D01*
X47663Y-17539D01*
X47702Y-17494D01*
X47743Y-17458D01*
X47791Y-17428D01*
X47832Y-17403D01*
X47871Y-17383D01*
X47904Y-17372D01*
X47916Y-17367D01*
X47924Y-17364D01*
X47929Y-17361D01*
X47932D01*
X47885Y-17333D01*
X47843Y-17306D01*
X47810Y-17275D01*
X47782Y-17247D01*
X47760Y-17225D01*
X47743Y-17203D01*
X47735Y-17192D01*
X47732Y-17186D01*
X47710Y-17145D01*
X47693Y-17106D01*
X47680Y-17067D01*
X47671Y-17031D01*
X47666Y-17000D01*
X47663Y-16975D01*
Y-16961D01*
Y-16956D01*
X47666Y-16909D01*
X47674Y-16861D01*
X47688Y-16820D01*
X47702Y-16781D01*
X47716Y-16748D01*
X47730Y-16725D01*
X47738Y-16709D01*
X47741Y-16703D01*
X47771Y-16662D01*
X47804Y-16623D01*
X47841Y-16592D01*
X47874Y-16567D01*
X47902Y-16548D01*
X47927Y-16534D01*
X47943Y-16525D01*
X47946Y-16523D01*
X47949D01*
X48002Y-16503D01*
X48060Y-16489D01*
X48118Y-16478D01*
X48174Y-16473D01*
X48224Y-16467D01*
X48246D01*
X48265Y-16464D01*
X49020D01*
Y-18386D01*
D02*
G37*
G36*
X36505Y-18386D02*
X36269D01*
Y-16464D01*
X36505D01*
Y-18386D01*
D02*
G37*
G36*
X32435Y-16964D02*
X32463Y-16970D01*
X32491Y-16978D01*
X32513Y-16986D01*
X32530Y-16995D01*
X32546Y-17003D01*
X32555Y-17009D01*
X32557Y-17011D01*
X32582Y-17034D01*
X32607Y-17061D01*
X32632Y-17095D01*
X32655Y-17125D01*
X32677Y-17156D01*
X32691Y-17181D01*
X32702Y-17200D01*
X32705Y-17203D01*
Y-16992D01*
X32918D01*
Y-18386D01*
X32682D01*
Y-17658D01*
X32680Y-17603D01*
X32677Y-17553D01*
X32671Y-17506D01*
X32663Y-17464D01*
X32655Y-17431D01*
X32649Y-17406D01*
X32646Y-17389D01*
X32644Y-17383D01*
X32632Y-17353D01*
X32619Y-17328D01*
X32605Y-17306D01*
X32591Y-17286D01*
X32577Y-17272D01*
X32569Y-17261D01*
X32560Y-17256D01*
X32557Y-17253D01*
X32535Y-17236D01*
X32510Y-17225D01*
X32485Y-17217D01*
X32466Y-17211D01*
X32446Y-17208D01*
X32433Y-17206D01*
X32419D01*
X32388Y-17208D01*
X32358Y-17214D01*
X32327Y-17222D01*
X32302Y-17231D01*
X32280Y-17239D01*
X32263Y-17247D01*
X32252Y-17253D01*
X32249Y-17256D01*
X32163Y-17039D01*
X32210Y-17014D01*
X32255Y-16995D01*
X32294Y-16981D01*
X32330Y-16970D01*
X32360Y-16964D01*
X32385Y-16961D01*
X32405D01*
X32435Y-16964D01*
D02*
G37*
G36*
X46733Y-16964D02*
X46777Y-16967D01*
X46863Y-16986D01*
X46938Y-17011D01*
X46972Y-17025D01*
X47002Y-17039D01*
X47030Y-17053D01*
X47052Y-17067D01*
X47074Y-17081D01*
X47091Y-17092D01*
X47105Y-17103D01*
X47116Y-17111D01*
X47122Y-17114D01*
X47124Y-17117D01*
X47163Y-17153D01*
X47194Y-17195D01*
X47224Y-17239D01*
X47246Y-17283D01*
X47269Y-17331D01*
X47285Y-17381D01*
X47299Y-17428D01*
X47310Y-17472D01*
X47321Y-17517D01*
X47327Y-17555D01*
X47333Y-17594D01*
X47335Y-17625D01*
Y-17653D01*
X47338Y-17672D01*
Y-17683D01*
Y-17689D01*
X47335Y-17753D01*
X47330Y-17814D01*
X47321Y-17869D01*
X47310Y-17922D01*
X47296Y-17969D01*
X47283Y-18014D01*
X47266Y-18055D01*
X47249Y-18091D01*
X47233Y-18125D01*
X47216Y-18152D01*
X47202Y-18175D01*
X47188Y-18194D01*
X47177Y-18211D01*
X47169Y-18222D01*
X47163Y-18227D01*
X47160Y-18230D01*
X47124Y-18263D01*
X47088Y-18291D01*
X47049Y-18316D01*
X47010Y-18338D01*
X46972Y-18355D01*
X46930Y-18372D01*
X46855Y-18394D01*
X46822Y-18399D01*
X46788Y-18405D01*
X46761Y-18411D01*
X46736Y-18413D01*
X46713Y-18416D01*
X46686D01*
X46619Y-18413D01*
X46558Y-18402D01*
X46500Y-18388D01*
X46452Y-18374D01*
X46411Y-18358D01*
X46394Y-18352D01*
X46380Y-18347D01*
X46366Y-18341D01*
X46358Y-18336D01*
X46355Y-18333D01*
X46353D01*
X46297Y-18297D01*
X46250Y-18258D01*
X46208Y-18219D01*
X46175Y-18180D01*
X46150Y-18147D01*
X46130Y-18119D01*
X46125Y-18108D01*
X46119Y-18100D01*
X46117Y-18097D01*
Y-18094D01*
X46089Y-18030D01*
X46069Y-17961D01*
X46053Y-17891D01*
X46044Y-17822D01*
X46039Y-17791D01*
Y-17764D01*
X46036Y-17736D01*
X46033Y-17714D01*
Y-17694D01*
Y-17680D01*
Y-17672D01*
Y-17669D01*
X46036Y-17608D01*
X46042Y-17553D01*
X46050Y-17500D01*
X46061Y-17450D01*
X46075Y-17403D01*
X46092Y-17361D01*
X46108Y-17319D01*
X46125Y-17286D01*
X46142Y-17256D01*
X46158Y-17228D01*
X46175Y-17203D01*
X46189Y-17183D01*
X46200Y-17170D01*
X46208Y-17158D01*
X46214Y-17153D01*
X46216Y-17150D01*
X46253Y-17117D01*
X46289Y-17089D01*
X46328Y-17061D01*
X46366Y-17042D01*
X46405Y-17022D01*
X46444Y-17009D01*
X46519Y-16984D01*
X46555Y-16978D01*
X46586Y-16972D01*
X46613Y-16967D01*
X46638Y-16964D01*
X46658Y-16961D01*
X46686D01*
X46733Y-16964D01*
D02*
G37*
G36*
X43746D02*
X43790Y-16967D01*
X43876Y-16986D01*
X43951Y-17011D01*
X43984Y-17025D01*
X44015Y-17039D01*
X44043Y-17053D01*
X44065Y-17067D01*
X44087Y-17081D01*
X44104Y-17092D01*
X44118Y-17103D01*
X44129Y-17111D01*
X44134Y-17114D01*
X44137Y-17117D01*
X44176Y-17153D01*
X44206Y-17195D01*
X44237Y-17239D01*
X44259Y-17283D01*
X44281Y-17331D01*
X44298Y-17381D01*
X44312Y-17428D01*
X44323Y-17472D01*
X44334Y-17517D01*
X44340Y-17555D01*
X44345Y-17594D01*
X44348Y-17625D01*
Y-17653D01*
X44351Y-17672D01*
Y-17683D01*
Y-17689D01*
X44348Y-17753D01*
X44343Y-17814D01*
X44334Y-17869D01*
X44323Y-17922D01*
X44309Y-17969D01*
X44295Y-18014D01*
X44279Y-18055D01*
X44262Y-18091D01*
X44245Y-18125D01*
X44229Y-18152D01*
X44215Y-18175D01*
X44201Y-18194D01*
X44190Y-18211D01*
X44181Y-18222D01*
X44176Y-18227D01*
X44173Y-18230D01*
X44137Y-18263D01*
X44101Y-18291D01*
X44062Y-18316D01*
X44023Y-18338D01*
X43984Y-18355D01*
X43943Y-18372D01*
X43868Y-18394D01*
X43834Y-18399D01*
X43801Y-18405D01*
X43773Y-18411D01*
X43748Y-18413D01*
X43726Y-18416D01*
X43698D01*
X43632Y-18413D01*
X43571Y-18402D01*
X43512Y-18388D01*
X43465Y-18374D01*
X43424Y-18358D01*
X43407Y-18352D01*
X43393Y-18347D01*
X43379Y-18341D01*
X43371Y-18336D01*
X43368Y-18333D01*
X43365D01*
X43310Y-18297D01*
X43263Y-18258D01*
X43221Y-18219D01*
X43188Y-18180D01*
X43163Y-18147D01*
X43143Y-18119D01*
X43138Y-18108D01*
X43132Y-18100D01*
X43129Y-18097D01*
Y-18094D01*
X43102Y-18030D01*
X43082Y-17961D01*
X43065Y-17891D01*
X43057Y-17822D01*
X43052Y-17791D01*
Y-17764D01*
X43049Y-17736D01*
X43046Y-17714D01*
Y-17694D01*
Y-17680D01*
Y-17672D01*
Y-17669D01*
X43049Y-17608D01*
X43054Y-17553D01*
X43063Y-17500D01*
X43074Y-17450D01*
X43088Y-17403D01*
X43104Y-17361D01*
X43121Y-17319D01*
X43138Y-17286D01*
X43154Y-17256D01*
X43171Y-17228D01*
X43188Y-17203D01*
X43201Y-17183D01*
X43213Y-17170D01*
X43221Y-17158D01*
X43226Y-17153D01*
X43229Y-17150D01*
X43265Y-17117D01*
X43301Y-17089D01*
X43340Y-17061D01*
X43379Y-17042D01*
X43418Y-17022D01*
X43457Y-17009D01*
X43532Y-16984D01*
X43568Y-16978D01*
X43598Y-16972D01*
X43626Y-16967D01*
X43651Y-16964D01*
X43671Y-16961D01*
X43698D01*
X43746Y-16964D01*
D02*
G37*
G36*
X37477Y-16964D02*
X37521Y-16967D01*
X37607Y-16986D01*
X37682Y-17011D01*
X37716Y-17025D01*
X37746Y-17039D01*
X37774Y-17053D01*
X37796Y-17067D01*
X37818Y-17081D01*
X37835Y-17092D01*
X37849Y-17103D01*
X37860Y-17111D01*
X37866Y-17114D01*
X37868Y-17117D01*
X37907Y-17153D01*
X37938Y-17195D01*
X37968Y-17239D01*
X37991Y-17283D01*
X38013Y-17331D01*
X38029Y-17381D01*
X38043Y-17428D01*
X38054Y-17472D01*
X38065Y-17517D01*
X38071Y-17555D01*
X38077Y-17594D01*
X38079Y-17625D01*
Y-17653D01*
X38082Y-17672D01*
Y-17683D01*
Y-17689D01*
X38079Y-17753D01*
X38074Y-17814D01*
X38065Y-17869D01*
X38054Y-17922D01*
X38041Y-17969D01*
X38027Y-18014D01*
X38010Y-18055D01*
X37993Y-18091D01*
X37977Y-18125D01*
X37960Y-18152D01*
X37946Y-18175D01*
X37932Y-18194D01*
X37921Y-18211D01*
X37913Y-18222D01*
X37907Y-18227D01*
X37904Y-18230D01*
X37868Y-18263D01*
X37832Y-18291D01*
X37793Y-18316D01*
X37755Y-18338D01*
X37716Y-18355D01*
X37674Y-18372D01*
X37599Y-18394D01*
X37566Y-18399D01*
X37532Y-18405D01*
X37505Y-18411D01*
X37480Y-18413D01*
X37458Y-18416D01*
X37430D01*
X37363Y-18413D01*
X37302Y-18402D01*
X37244Y-18388D01*
X37197Y-18374D01*
X37155Y-18358D01*
X37138Y-18352D01*
X37124Y-18347D01*
X37110Y-18341D01*
X37102Y-18336D01*
X37099Y-18333D01*
X37097D01*
X37041Y-18297D01*
X36994Y-18258D01*
X36952Y-18219D01*
X36919Y-18180D01*
X36894Y-18147D01*
X36874Y-18119D01*
X36869Y-18108D01*
X36863Y-18100D01*
X36861Y-18097D01*
Y-18094D01*
X36833Y-18030D01*
X36813Y-17961D01*
X36797Y-17891D01*
X36788Y-17822D01*
X36783Y-17791D01*
Y-17764D01*
X36780Y-17736D01*
X36777Y-17714D01*
Y-17694D01*
Y-17680D01*
Y-17672D01*
Y-17669D01*
X36780Y-17608D01*
X36786Y-17553D01*
X36794Y-17500D01*
X36805Y-17450D01*
X36819Y-17403D01*
X36836Y-17361D01*
X36852Y-17319D01*
X36869Y-17286D01*
X36886Y-17256D01*
X36902Y-17228D01*
X36919Y-17203D01*
X36933Y-17183D01*
X36944Y-17170D01*
X36952Y-17158D01*
X36958Y-17153D01*
X36961Y-17150D01*
X36997Y-17117D01*
X37033Y-17089D01*
X37072Y-17061D01*
X37110Y-17042D01*
X37149Y-17022D01*
X37188Y-17009D01*
X37263Y-16984D01*
X37299Y-16978D01*
X37330Y-16972D01*
X37358Y-16967D01*
X37383Y-16964D01*
X37402Y-16961D01*
X37430D01*
X37477Y-16964D01*
D02*
G37*
G36*
X35020Y-17153D02*
X35045Y-17122D01*
X35073Y-17097D01*
X35098Y-17072D01*
X35125Y-17053D01*
X35148Y-17039D01*
X35164Y-17025D01*
X35175Y-17020D01*
X35181Y-17017D01*
X35217Y-16997D01*
X35256Y-16984D01*
X35295Y-16975D01*
X35331Y-16967D01*
X35361Y-16964D01*
X35384Y-16961D01*
X35406D01*
X35467Y-16964D01*
X35525Y-16975D01*
X35578Y-16989D01*
X35622Y-17006D01*
X35661Y-17025D01*
X35689Y-17039D01*
X35700Y-17045D01*
X35708Y-17050D01*
X35711Y-17053D01*
X35714D01*
X35764Y-17089D01*
X35806Y-17133D01*
X35842Y-17175D01*
X35869Y-17217D01*
X35892Y-17256D01*
X35908Y-17286D01*
X35914Y-17297D01*
X35919Y-17306D01*
X35922Y-17311D01*
Y-17314D01*
X35944Y-17378D01*
X35961Y-17444D01*
X35975Y-17508D01*
X35983Y-17567D01*
X35989Y-17617D01*
Y-17639D01*
X35992Y-17655D01*
Y-17672D01*
Y-17683D01*
Y-17689D01*
Y-17692D01*
X35989Y-17769D01*
X35981Y-17841D01*
X35967Y-17905D01*
X35953Y-17961D01*
X35947Y-17986D01*
X35942Y-18005D01*
X35933Y-18025D01*
X35928Y-18041D01*
X35922Y-18052D01*
X35919Y-18061D01*
X35917Y-18066D01*
Y-18069D01*
X35886Y-18127D01*
X35850Y-18177D01*
X35814Y-18222D01*
X35778Y-18258D01*
X35747Y-18286D01*
X35722Y-18308D01*
X35706Y-18319D01*
X35703Y-18324D01*
X35700D01*
X35647Y-18355D01*
X35595Y-18377D01*
X35542Y-18394D01*
X35495Y-18405D01*
X35456Y-18411D01*
X35423Y-18413D01*
X35411Y-18416D01*
X35395D01*
X35348Y-18413D01*
X35303Y-18408D01*
X35262Y-18397D01*
X35225Y-18383D01*
X35189Y-18369D01*
X35156Y-18352D01*
X35128Y-18333D01*
X35103Y-18313D01*
X35078Y-18294D01*
X35059Y-18275D01*
X35042Y-18258D01*
X35028Y-18244D01*
X35017Y-18230D01*
X35009Y-18219D01*
X35006Y-18213D01*
X35003Y-18211D01*
Y-18386D01*
X34784D01*
Y-16464D01*
X35020D01*
Y-17153D01*
D02*
G37*
G36*
X39165Y-16434D02*
X39229Y-16442D01*
X39290Y-16453D01*
X39343Y-16464D01*
X39384Y-16476D01*
X39404Y-16481D01*
X39418Y-16487D01*
X39429Y-16492D01*
X39437Y-16495D01*
X39443Y-16498D01*
X39445D01*
X39501Y-16525D01*
X39551Y-16556D01*
X39592Y-16589D01*
X39626Y-16620D01*
X39651Y-16648D01*
X39670Y-16670D01*
X39684Y-16687D01*
X39687Y-16689D01*
Y-16692D01*
X39715Y-16739D01*
X39734Y-16786D01*
X39748Y-16834D01*
X39756Y-16875D01*
X39762Y-16911D01*
X39767Y-16939D01*
Y-16950D01*
Y-16959D01*
Y-16961D01*
Y-16964D01*
X39765Y-17011D01*
X39756Y-17056D01*
X39745Y-17097D01*
X39734Y-17133D01*
X39723Y-17161D01*
X39712Y-17183D01*
X39703Y-17197D01*
X39701Y-17203D01*
X39673Y-17242D01*
X39640Y-17278D01*
X39606Y-17308D01*
X39573Y-17333D01*
X39545Y-17356D01*
X39520Y-17369D01*
X39504Y-17381D01*
X39501Y-17383D01*
X39498D01*
X39476Y-17394D01*
X39451Y-17406D01*
X39395Y-17425D01*
X39331Y-17444D01*
X39270Y-17464D01*
X39215Y-17481D01*
X39190Y-17486D01*
X39168Y-17492D01*
X39151Y-17497D01*
X39137Y-17500D01*
X39129Y-17503D01*
X39126D01*
X39079Y-17514D01*
X39034Y-17525D01*
X38996Y-17536D01*
X38962Y-17544D01*
X38929Y-17553D01*
X38901Y-17561D01*
X38876Y-17567D01*
X38857Y-17575D01*
X38837Y-17580D01*
X38823Y-17583D01*
X38801Y-17592D01*
X38787Y-17594D01*
X38785Y-17597D01*
X38743Y-17614D01*
X38707Y-17633D01*
X38676Y-17653D01*
X38654Y-17669D01*
X38635Y-17686D01*
X38624Y-17697D01*
X38615Y-17705D01*
X38612Y-17708D01*
X38593Y-17733D01*
X38579Y-17761D01*
X38571Y-17789D01*
X38562Y-17811D01*
X38560Y-17833D01*
X38557Y-17850D01*
Y-17864D01*
Y-17866D01*
X38560Y-17900D01*
X38565Y-17930D01*
X38574Y-17958D01*
X38585Y-17980D01*
X38596Y-18002D01*
X38604Y-18016D01*
X38610Y-18027D01*
X38612Y-18030D01*
X38635Y-18058D01*
X38662Y-18080D01*
X38690Y-18100D01*
X38715Y-18119D01*
X38740Y-18130D01*
X38760Y-18141D01*
X38773Y-18147D01*
X38779Y-18150D01*
X38821Y-18163D01*
X38865Y-18175D01*
X38909Y-18180D01*
X38948Y-18186D01*
X38982Y-18188D01*
X39009Y-18191D01*
X39034D01*
X39095Y-18188D01*
X39151Y-18183D01*
X39201Y-18175D01*
X39245Y-18163D01*
X39281Y-18152D01*
X39309Y-18144D01*
X39318Y-18141D01*
X39326Y-18138D01*
X39329Y-18136D01*
X39331D01*
X39376Y-18114D01*
X39418Y-18089D01*
X39448Y-18064D01*
X39476Y-18039D01*
X39498Y-18019D01*
X39512Y-18000D01*
X39520Y-17989D01*
X39523Y-17986D01*
X39542Y-17950D01*
X39562Y-17911D01*
X39573Y-17869D01*
X39584Y-17833D01*
X39592Y-17797D01*
X39598Y-17772D01*
Y-17761D01*
X39601Y-17753D01*
Y-17750D01*
Y-17747D01*
X39840Y-17769D01*
X39834Y-17839D01*
X39823Y-17905D01*
X39806Y-17964D01*
X39787Y-18016D01*
X39767Y-18058D01*
X39759Y-18075D01*
X39753Y-18089D01*
X39745Y-18100D01*
X39742Y-18108D01*
X39737Y-18114D01*
Y-18116D01*
X39695Y-18169D01*
X39651Y-18216D01*
X39604Y-18255D01*
X39559Y-18288D01*
X39520Y-18313D01*
X39487Y-18330D01*
X39476Y-18336D01*
X39467Y-18341D01*
X39462Y-18344D01*
X39459D01*
X39390Y-18369D01*
X39318Y-18388D01*
X39245Y-18399D01*
X39176Y-18411D01*
X39143Y-18413D01*
X39115Y-18416D01*
X39090D01*
X39068Y-18419D01*
X39023D01*
X38948Y-18416D01*
X38879Y-18408D01*
X38815Y-18394D01*
X38762Y-18380D01*
X38718Y-18369D01*
X38698Y-18361D01*
X38682Y-18355D01*
X38671Y-18349D01*
X38662Y-18347D01*
X38657Y-18344D01*
X38654D01*
X38596Y-18313D01*
X38546Y-18280D01*
X38501Y-18244D01*
X38465Y-18211D01*
X38438Y-18183D01*
X38418Y-18158D01*
X38404Y-18141D01*
X38401Y-18138D01*
Y-18136D01*
X38371Y-18083D01*
X38349Y-18033D01*
X38335Y-17986D01*
X38324Y-17941D01*
X38318Y-17903D01*
X38313Y-17872D01*
Y-17861D01*
Y-17853D01*
Y-17850D01*
Y-17847D01*
X38315Y-17791D01*
X38324Y-17739D01*
X38338Y-17692D01*
X38351Y-17653D01*
X38368Y-17619D01*
X38379Y-17594D01*
X38390Y-17580D01*
X38393Y-17575D01*
X38426Y-17533D01*
X38465Y-17494D01*
X38507Y-17461D01*
X38549Y-17431D01*
X38585Y-17408D01*
X38615Y-17392D01*
X38626Y-17386D01*
X38635Y-17381D01*
X38640Y-17378D01*
X38643D01*
X38665Y-17367D01*
X38693Y-17358D01*
X38723Y-17347D01*
X38757Y-17336D01*
X38826Y-17317D01*
X38898Y-17297D01*
X38932Y-17289D01*
X38962Y-17281D01*
X38993Y-17272D01*
X39018Y-17267D01*
X39037Y-17261D01*
X39054Y-17258D01*
X39065Y-17256D01*
X39068D01*
X39123Y-17242D01*
X39173Y-17231D01*
X39218Y-17217D01*
X39256Y-17206D01*
X39293Y-17192D01*
X39323Y-17181D01*
X39351Y-17170D01*
X39376Y-17161D01*
X39395Y-17150D01*
X39412Y-17142D01*
X39423Y-17136D01*
X39434Y-17128D01*
X39448Y-17120D01*
X39451Y-17117D01*
X39476Y-17089D01*
X39492Y-17061D01*
X39506Y-17034D01*
X39515Y-17006D01*
X39520Y-16984D01*
X39523Y-16964D01*
Y-16953D01*
Y-16947D01*
X39517Y-16903D01*
X39506Y-16864D01*
X39490Y-16831D01*
X39470Y-16800D01*
X39454Y-16778D01*
X39437Y-16759D01*
X39426Y-16748D01*
X39420Y-16745D01*
X39398Y-16731D01*
X39376Y-16717D01*
X39323Y-16695D01*
X39268Y-16681D01*
X39212Y-16670D01*
X39162Y-16664D01*
X39140Y-16662D01*
X39123Y-16659D01*
X39084D01*
X39007Y-16662D01*
X38937Y-16673D01*
X38882Y-16689D01*
X38834Y-16706D01*
X38798Y-16723D01*
X38771Y-16739D01*
X38757Y-16750D01*
X38751Y-16753D01*
X38712Y-16792D01*
X38682Y-16834D01*
X38657Y-16878D01*
X38640Y-16923D01*
X38629Y-16964D01*
X38621Y-16995D01*
X38618Y-17009D01*
X38615Y-17017D01*
Y-17022D01*
Y-17025D01*
X38371Y-17006D01*
X38376Y-16945D01*
X38390Y-16889D01*
X38404Y-16836D01*
X38424Y-16792D01*
X38440Y-16756D01*
X38454Y-16728D01*
X38460Y-16720D01*
X38465Y-16712D01*
X38468Y-16709D01*
Y-16706D01*
X38504Y-16659D01*
X38543Y-16617D01*
X38585Y-16581D01*
X38626Y-16553D01*
X38662Y-16528D01*
X38690Y-16514D01*
X38701Y-16509D01*
X38710Y-16503D01*
X38715Y-16501D01*
X38718D01*
X38779Y-16478D01*
X38846Y-16462D01*
X38907Y-16448D01*
X38965Y-16439D01*
X39018Y-16434D01*
X39037D01*
X39057Y-16431D01*
X39093D01*
X39165Y-16434D01*
D02*
G37*
%LPC*%
G36*
X4664Y-16692D02*
X4208D01*
X4147Y-16698D01*
X4100Y-16700D01*
X4058Y-16706D01*
X4028Y-16712D01*
X4009Y-16714D01*
X3995Y-16720D01*
X3992D01*
X3961Y-16731D01*
X3934Y-16748D01*
X3911Y-16764D01*
X3892Y-16781D01*
X3878Y-16795D01*
X3867Y-16809D01*
X3861Y-16817D01*
X3859Y-16820D01*
X3842Y-16848D01*
X3831Y-16875D01*
X3823Y-16903D01*
X3817Y-16931D01*
X3814Y-16953D01*
X3811Y-16970D01*
Y-16981D01*
Y-16986D01*
X3814Y-17022D01*
X3820Y-17056D01*
X3828Y-17084D01*
X3836Y-17106D01*
X3845Y-17125D01*
X3853Y-17142D01*
X3859Y-17150D01*
X3861Y-17153D01*
X3881Y-17175D01*
X3906Y-17197D01*
X3931Y-17214D01*
X3953Y-17225D01*
X3975Y-17236D01*
X3992Y-17245D01*
X4003Y-17247D01*
X4009Y-17250D01*
X4039Y-17256D01*
X4078Y-17261D01*
X4117Y-17264D01*
X4156Y-17267D01*
X4192Y-17270D01*
X4664D01*
Y-16692D01*
D02*
G37*
G36*
Y-17497D02*
X4158D01*
X4100Y-17503D01*
X4053Y-17508D01*
X4014Y-17514D01*
X3984Y-17519D01*
X3959Y-17525D01*
X3947Y-17528D01*
X3942Y-17530D01*
X3906Y-17544D01*
X3875Y-17561D01*
X3848Y-17580D01*
X3825Y-17600D01*
X3809Y-17617D01*
X3798Y-17630D01*
X3789Y-17642D01*
X3786Y-17644D01*
X3767Y-17675D01*
X3753Y-17705D01*
X3742Y-17736D01*
X3736Y-17764D01*
X3731Y-17789D01*
X3728Y-17811D01*
Y-17822D01*
Y-17828D01*
X3731Y-17861D01*
X3734Y-17894D01*
X3739Y-17922D01*
X3748Y-17944D01*
X3756Y-17964D01*
X3761Y-17980D01*
X3764Y-17989D01*
X3767Y-17991D01*
X3784Y-18016D01*
X3798Y-18039D01*
X3817Y-18055D01*
X3831Y-18072D01*
X3845Y-18083D01*
X3856Y-18091D01*
X3864Y-18097D01*
X3867Y-18100D01*
X3914Y-18122D01*
X3961Y-18138D01*
X3981Y-18144D01*
X3997Y-18147D01*
X4009Y-18150D01*
X4011D01*
X4034Y-18152D01*
X4058Y-18155D01*
X4117Y-18158D01*
X4664D01*
Y-17497D01*
D02*
G37*
G36*
X33854Y-17156D02*
X33837D01*
X33804Y-17158D01*
X33773Y-17161D01*
X33715Y-17178D01*
X33665Y-17200D01*
X33624Y-17225D01*
X33590Y-17250D01*
X33565Y-17272D01*
X33551Y-17289D01*
X33546Y-17292D01*
Y-17295D01*
X33521Y-17331D01*
X33499Y-17372D01*
X33485Y-17414D01*
X33471Y-17458D01*
X33463Y-17494D01*
X33457Y-17528D01*
Y-17539D01*
X33454Y-17547D01*
Y-17553D01*
Y-17555D01*
X34234D01*
X34226Y-17492D01*
X34209Y-17433D01*
X34190Y-17383D01*
X34168Y-17344D01*
X34148Y-17311D01*
X34129Y-17286D01*
X34118Y-17272D01*
X34112Y-17267D01*
X34068Y-17231D01*
X34023Y-17203D01*
X33976Y-17183D01*
X33932Y-17170D01*
X33896Y-17161D01*
X33865Y-17158D01*
X33854Y-17156D01*
D02*
G37*
G36*
X48765Y-16692D02*
X48310D01*
X48249Y-16698D01*
X48201Y-16700D01*
X48160Y-16706D01*
X48129Y-16712D01*
X48110Y-16714D01*
X48096Y-16720D01*
X48093D01*
X48063Y-16731D01*
X48035Y-16748D01*
X48013Y-16764D01*
X47993Y-16781D01*
X47979Y-16795D01*
X47968Y-16809D01*
X47963Y-16817D01*
X47960Y-16820D01*
X47943Y-16848D01*
X47932Y-16875D01*
X47924Y-16903D01*
X47918Y-16931D01*
X47916Y-16953D01*
X47913Y-16970D01*
Y-16981D01*
Y-16986D01*
X47916Y-17022D01*
X47921Y-17056D01*
X47929Y-17084D01*
X47938Y-17106D01*
X47946Y-17125D01*
X47954Y-17142D01*
X47960Y-17150D01*
X47963Y-17153D01*
X47982Y-17175D01*
X48007Y-17197D01*
X48032Y-17214D01*
X48054Y-17225D01*
X48077Y-17236D01*
X48093Y-17245D01*
X48104Y-17247D01*
X48110Y-17250D01*
X48140Y-17256D01*
X48179Y-17261D01*
X48218Y-17264D01*
X48257Y-17267D01*
X48293Y-17270D01*
X48765D01*
Y-16692D01*
D02*
G37*
G36*
Y-17497D02*
X48260D01*
X48201Y-17503D01*
X48154Y-17508D01*
X48115Y-17514D01*
X48085Y-17519D01*
X48060Y-17525D01*
X48049Y-17528D01*
X48043Y-17530D01*
X48007Y-17544D01*
X47977Y-17561D01*
X47949Y-17580D01*
X47927Y-17600D01*
X47910Y-17617D01*
X47899Y-17630D01*
X47891Y-17642D01*
X47888Y-17644D01*
X47868Y-17675D01*
X47854Y-17705D01*
X47843Y-17736D01*
X47838Y-17764D01*
X47832Y-17789D01*
X47829Y-17811D01*
Y-17822D01*
Y-17828D01*
X47832Y-17861D01*
X47835Y-17894D01*
X47841Y-17922D01*
X47849Y-17944D01*
X47857Y-17964D01*
X47863Y-17980D01*
X47866Y-17989D01*
X47868Y-17991D01*
X47885Y-18016D01*
X47899Y-18039D01*
X47918Y-18055D01*
X47932Y-18072D01*
X47946Y-18083D01*
X47957Y-18091D01*
X47965Y-18097D01*
X47968Y-18100D01*
X48015Y-18122D01*
X48063Y-18138D01*
X48082Y-18144D01*
X48099Y-18147D01*
X48110Y-18150D01*
X48113D01*
X48135Y-18152D01*
X48160Y-18155D01*
X48218Y-18158D01*
X48765D01*
Y-17497D01*
D02*
G37*
G36*
X46702Y-17156D02*
X46686D01*
X46652Y-17158D01*
X46622Y-17161D01*
X46566Y-17175D01*
X46516Y-17197D01*
X46475Y-17222D01*
X46441Y-17247D01*
X46416Y-17267D01*
X46400Y-17283D01*
X46394Y-17286D01*
Y-17289D01*
X46372Y-17314D01*
X46355Y-17344D01*
X46325Y-17406D01*
X46303Y-17472D01*
X46289Y-17533D01*
X46280Y-17592D01*
X46278Y-17617D01*
Y-17639D01*
X46275Y-17655D01*
Y-17669D01*
Y-17678D01*
Y-17680D01*
Y-17730D01*
X46280Y-17778D01*
X46286Y-17819D01*
X46294Y-17861D01*
X46303Y-17897D01*
X46314Y-17930D01*
X46322Y-17961D01*
X46333Y-17989D01*
X46344Y-18011D01*
X46355Y-18033D01*
X46366Y-18050D01*
X46375Y-18064D01*
X46383Y-18075D01*
X46389Y-18083D01*
X46391Y-18086D01*
X46394Y-18089D01*
X46416Y-18111D01*
X46441Y-18133D01*
X46489Y-18166D01*
X46539Y-18188D01*
X46583Y-18205D01*
X46625Y-18213D01*
X46655Y-18219D01*
X46669Y-18222D01*
X46686D01*
X46719Y-18219D01*
X46750Y-18216D01*
X46808Y-18202D01*
X46858Y-18180D01*
X46899Y-18155D01*
X46933Y-18133D01*
X46958Y-18111D01*
X46974Y-18097D01*
X46977Y-18091D01*
X46980D01*
X46999Y-18064D01*
X47019Y-18036D01*
X47047Y-17972D01*
X47069Y-17905D01*
X47083Y-17839D01*
X47091Y-17780D01*
X47094Y-17755D01*
Y-17733D01*
X47097Y-17714D01*
Y-17700D01*
Y-17692D01*
Y-17689D01*
X47094Y-17642D01*
X47091Y-17594D01*
X47085Y-17553D01*
X47077Y-17514D01*
X47069Y-17478D01*
X47060Y-17444D01*
X47049Y-17417D01*
X47038Y-17389D01*
X47027Y-17367D01*
X47016Y-17344D01*
X47008Y-17328D01*
X46999Y-17314D01*
X46991Y-17303D01*
X46985Y-17295D01*
X46980Y-17292D01*
Y-17289D01*
X46958Y-17267D01*
X46933Y-17245D01*
X46886Y-17211D01*
X46836Y-17189D01*
X46788Y-17172D01*
X46747Y-17161D01*
X46716Y-17158D01*
X46702Y-17156D01*
D02*
G37*
G36*
X43715D02*
X43698D01*
X43665Y-17158D01*
X43635Y-17161D01*
X43579Y-17175D01*
X43529Y-17197D01*
X43487Y-17222D01*
X43454Y-17247D01*
X43429Y-17267D01*
X43412Y-17283D01*
X43407Y-17286D01*
Y-17289D01*
X43385Y-17314D01*
X43368Y-17344D01*
X43338Y-17406D01*
X43315Y-17472D01*
X43301Y-17533D01*
X43293Y-17592D01*
X43290Y-17617D01*
Y-17639D01*
X43288Y-17655D01*
Y-17669D01*
Y-17678D01*
Y-17680D01*
Y-17730D01*
X43293Y-17778D01*
X43299Y-17819D01*
X43307Y-17861D01*
X43315Y-17897D01*
X43326Y-17930D01*
X43335Y-17961D01*
X43346Y-17989D01*
X43357Y-18011D01*
X43368Y-18033D01*
X43379Y-18050D01*
X43388Y-18064D01*
X43396Y-18075D01*
X43401Y-18083D01*
X43404Y-18086D01*
X43407Y-18089D01*
X43429Y-18111D01*
X43454Y-18133D01*
X43501Y-18166D01*
X43551Y-18188D01*
X43596Y-18205D01*
X43637Y-18213D01*
X43668Y-18219D01*
X43682Y-18222D01*
X43698D01*
X43732Y-18219D01*
X43762Y-18216D01*
X43821Y-18202D01*
X43871Y-18180D01*
X43912Y-18155D01*
X43946Y-18133D01*
X43971Y-18111D01*
X43987Y-18097D01*
X43990Y-18091D01*
X43993D01*
X44012Y-18064D01*
X44032Y-18036D01*
X44059Y-17972D01*
X44082Y-17905D01*
X44095Y-17839D01*
X44104Y-17780D01*
X44107Y-17755D01*
Y-17733D01*
X44109Y-17714D01*
Y-17700D01*
Y-17692D01*
Y-17689D01*
X44107Y-17642D01*
X44104Y-17594D01*
X44098Y-17553D01*
X44090Y-17514D01*
X44082Y-17478D01*
X44073Y-17444D01*
X44062Y-17417D01*
X44051Y-17389D01*
X44040Y-17367D01*
X44029Y-17344D01*
X44020Y-17328D01*
X44012Y-17314D01*
X44004Y-17303D01*
X43998Y-17295D01*
X43993Y-17292D01*
Y-17289D01*
X43971Y-17267D01*
X43946Y-17245D01*
X43898Y-17211D01*
X43848Y-17189D01*
X43801Y-17172D01*
X43760Y-17161D01*
X43729Y-17158D01*
X43715Y-17156D01*
D02*
G37*
G36*
X37446Y-17156D02*
X37430D01*
X37396Y-17158D01*
X37366Y-17161D01*
X37310Y-17175D01*
X37260Y-17197D01*
X37219Y-17222D01*
X37185Y-17247D01*
X37160Y-17267D01*
X37144Y-17283D01*
X37138Y-17286D01*
Y-17289D01*
X37116Y-17314D01*
X37099Y-17344D01*
X37069Y-17406D01*
X37047Y-17472D01*
X37033Y-17533D01*
X37024Y-17592D01*
X37022Y-17617D01*
Y-17639D01*
X37019Y-17655D01*
Y-17669D01*
Y-17678D01*
Y-17680D01*
Y-17730D01*
X37024Y-17778D01*
X37030Y-17819D01*
X37038Y-17861D01*
X37047Y-17897D01*
X37058Y-17930D01*
X37066Y-17961D01*
X37077Y-17989D01*
X37088Y-18011D01*
X37099Y-18033D01*
X37110Y-18050D01*
X37119Y-18064D01*
X37127Y-18075D01*
X37133Y-18083D01*
X37135Y-18086D01*
X37138Y-18089D01*
X37160Y-18111D01*
X37185Y-18133D01*
X37233Y-18166D01*
X37283Y-18188D01*
X37327Y-18205D01*
X37369Y-18213D01*
X37399Y-18219D01*
X37413Y-18222D01*
X37430D01*
X37463Y-18219D01*
X37494Y-18216D01*
X37552Y-18202D01*
X37602Y-18180D01*
X37644Y-18155D01*
X37677Y-18133D01*
X37702Y-18111D01*
X37718Y-18097D01*
X37721Y-18091D01*
X37724D01*
X37743Y-18064D01*
X37763Y-18036D01*
X37791Y-17972D01*
X37813Y-17905D01*
X37827Y-17839D01*
X37835Y-17780D01*
X37838Y-17755D01*
Y-17733D01*
X37841Y-17714D01*
Y-17700D01*
Y-17692D01*
Y-17689D01*
X37838Y-17642D01*
X37835Y-17594D01*
X37830Y-17553D01*
X37821Y-17514D01*
X37813Y-17478D01*
X37805Y-17444D01*
X37793Y-17417D01*
X37782Y-17389D01*
X37771Y-17367D01*
X37760Y-17344D01*
X37752Y-17328D01*
X37743Y-17314D01*
X37735Y-17303D01*
X37730Y-17295D01*
X37724Y-17292D01*
Y-17289D01*
X37702Y-17267D01*
X37677Y-17245D01*
X37630Y-17211D01*
X37580Y-17189D01*
X37532Y-17172D01*
X37491Y-17161D01*
X37460Y-17158D01*
X37446Y-17156D01*
D02*
G37*
G36*
X35395D02*
X35381D01*
X35350Y-17158D01*
X35323Y-17161D01*
X35270Y-17178D01*
X35223Y-17197D01*
X35184Y-17222D01*
X35153Y-17247D01*
X35128Y-17270D01*
X35114Y-17286D01*
X35109Y-17289D01*
Y-17292D01*
X35089Y-17319D01*
X35073Y-17347D01*
X35045Y-17414D01*
X35026Y-17483D01*
X35012Y-17550D01*
X35006Y-17583D01*
X35003Y-17614D01*
X35001Y-17642D01*
Y-17664D01*
X34998Y-17683D01*
Y-17697D01*
Y-17708D01*
Y-17711D01*
Y-17758D01*
X35003Y-17803D01*
X35009Y-17841D01*
X35014Y-17880D01*
X35023Y-17914D01*
X35034Y-17947D01*
X35042Y-17975D01*
X35053Y-18000D01*
X35064Y-18022D01*
X35073Y-18044D01*
X35084Y-18058D01*
X35092Y-18072D01*
X35098Y-18083D01*
X35103Y-18091D01*
X35109Y-18094D01*
Y-18097D01*
X35128Y-18119D01*
X35150Y-18138D01*
X35195Y-18169D01*
X35239Y-18191D01*
X35281Y-18205D01*
X35317Y-18216D01*
X35348Y-18219D01*
X35359Y-18222D01*
X35373D01*
X35400Y-18219D01*
X35428Y-18216D01*
X35478Y-18202D01*
X35525Y-18180D01*
X35564Y-18155D01*
X35595Y-18133D01*
X35620Y-18111D01*
X35634Y-18097D01*
X35636Y-18091D01*
X35639D01*
X35659Y-18064D01*
X35675Y-18036D01*
X35703Y-17972D01*
X35722Y-17905D01*
X35736Y-17841D01*
X35745Y-17783D01*
X35747Y-17758D01*
Y-17736D01*
X35750Y-17716D01*
Y-17703D01*
Y-17694D01*
Y-17692D01*
Y-17642D01*
X35745Y-17594D01*
X35739Y-17550D01*
X35733Y-17511D01*
X35725Y-17475D01*
X35717Y-17442D01*
X35708Y-17411D01*
X35697Y-17383D01*
X35686Y-17361D01*
X35678Y-17342D01*
X35670Y-17325D01*
X35661Y-17311D01*
X35653Y-17300D01*
X35650Y-17292D01*
X35645Y-17289D01*
Y-17286D01*
X35625Y-17264D01*
X35603Y-17242D01*
X35559Y-17211D01*
X35514Y-17186D01*
X35472Y-17172D01*
X35436Y-17161D01*
X35406Y-17158D01*
X35395Y-17156D01*
D02*
G37*
%LPD*%
D15*
X0Y0D02*
X18540D01*
Y50290D01*
X0D02*
X18540D01*
X0Y0D02*
Y50290D01*
D17*
X10050Y46800D02*
D03*
X9100D02*
D03*
X8150D02*
D03*
Y49000D02*
D03*
X10050D02*
D03*
D18*
X6800Y48350D02*
D03*
Y47450D02*
D03*
X2700Y44950D02*
D03*
Y45850D02*
D03*
X1200Y44950D02*
D03*
Y45850D02*
D03*
D19*
X9100Y1250D02*
D03*
Y3150D02*
D03*
X11300Y2200D02*
D03*
D31*
X11710Y40510D02*
D03*
Y42650D02*
D03*
X14600Y25030D02*
D03*
Y27170D02*
D03*
X12800Y25030D02*
D03*
Y27170D02*
D03*
D35*
X13100Y46950D02*
D03*
Y46050D02*
D03*
D36*
X7421Y2475D02*
D03*
X6521D02*
D03*
X7421Y1250D02*
D03*
X6521D02*
D03*
X3150Y1800D02*
D03*
X2250D02*
D03*
X6571Y39400D02*
D03*
X7471D02*
D03*
X11100Y4500D02*
D03*
X10200D02*
D03*
D37*
X11750Y44800D02*
D03*
X10850D02*
D03*
X9350Y24600D02*
D03*
X8450D02*
D03*
X10350D02*
D03*
X11250D02*
D03*
X9850Y16600D02*
D03*
X8950D02*
D03*
X7172D02*
D03*
X6272D02*
D03*
D38*
X17374Y44094D02*
D03*
D39*
X14834D02*
D03*
Y46634D02*
D03*
X17374D02*
D03*
Y49174D02*
D03*
D40*
X14525Y6050D02*
D03*
D41*
X13255D02*
D03*
D42*
X5517Y48842D02*
D03*
X12517D02*
D03*
D43*
X6517Y46142D02*
D03*
X11517D02*
D03*
D44*
X1651Y38862D02*
D03*
Y36322D02*
D03*
Y33782D02*
D03*
Y31242D02*
D03*
Y28702D02*
D03*
Y26162D02*
D03*
Y23622D02*
D03*
Y21082D02*
D03*
Y18542D02*
D03*
Y16002D02*
D03*
Y13462D02*
D03*
Y10922D02*
D03*
Y8382D02*
D03*
Y5842D02*
D03*
X16891Y38862D02*
D03*
Y36322D02*
D03*
Y33782D02*
D03*
Y31242D02*
D03*
Y28702D02*
D03*
Y26162D02*
D03*
Y23622D02*
D03*
Y21082D02*
D03*
Y18542D02*
D03*
Y16002D02*
D03*
Y13462D02*
D03*
Y10922D02*
D03*
Y8382D02*
D03*
Y5842D02*
D03*
D45*
X1651Y41402D02*
D03*
X16891D02*
D03*
D46*
X5570Y10230D02*
D03*
X6790Y21050D02*
D03*
X8520Y36928D02*
D03*
X8940Y36150D02*
D03*
X3260Y20040D02*
D03*
X2850Y19700D02*
D03*
X2330Y19760D02*
D03*
X3920Y20960D02*
D03*
X4150Y21580D02*
D03*
X6420Y42340D02*
D03*
X5770Y40700D02*
D03*
X11143Y13229D02*
D03*
X12300Y12950D02*
D03*
X14490Y9610D02*
D03*
X12540Y9700D02*
D03*
X11020Y10410D02*
D03*
X12500Y11030D02*
D03*
X9730Y11210D02*
D03*
X7980Y17400D02*
D03*
X7920Y20090D02*
D03*
X10680Y20160D02*
D03*
X9347Y18669D02*
D03*
X10760Y17910D02*
D03*
X9090Y15700D02*
D03*
X9636Y15680D02*
D03*
X13020Y11900D02*
D03*
X15320Y10890D02*
D03*
X14460Y8480D02*
D03*
X12770Y8500D02*
D03*
X11100Y9430D02*
D03*
X11880Y4480D02*
D03*
X7730Y3400D02*
D03*
X7717Y4130D02*
D03*
X7240Y6220D02*
D03*
X9560Y4570D02*
D03*
X9380Y6010D02*
D03*
X13500Y1570D02*
D03*
X3160Y1110D02*
D03*
X4844Y8204D02*
D03*
X5831Y14410D02*
D03*
X5097Y15287D02*
D03*
X8947Y21847D02*
D03*
X10547Y22024D02*
D03*
X11071Y21929D02*
D03*
X12588Y21242D02*
D03*
X12553Y20287D02*
D03*
X11890Y21520D02*
D03*
X4010Y17469D02*
D03*
X3720Y16930D02*
D03*
X6110Y20250D02*
D03*
X3420Y31260D02*
D03*
X2370Y22550D02*
D03*
X5010Y30280D02*
D03*
X6521Y28450D02*
D03*
X4080Y31850D02*
D03*
X6040Y34380D02*
D03*
X6180Y36050D02*
D03*
X3930Y36060D02*
D03*
X8330Y33400D02*
D03*
X5990Y32910D02*
D03*
X9410Y32830D02*
D03*
X10650Y32950D02*
D03*
X11800Y32700D02*
D03*
X14570Y31480D02*
D03*
X13670Y30230D02*
D03*
X11790Y30500D02*
D03*
X11010Y30440D02*
D03*
X9390Y30630D02*
D03*
X7100Y30680D02*
D03*
X10660Y28390D02*
D03*
X13820Y27450D02*
D03*
X13850Y25220D02*
D03*
X12260Y26180D02*
D03*
X7740Y25860D02*
D03*
X12340Y32860D02*
D03*
X11990Y35670D02*
D03*
X14570Y36030D02*
D03*
X15000Y36540D02*
D03*
X11840Y36750D02*
D03*
X11720Y38960D02*
D03*
X2650Y46480D02*
D03*
X1155Y49485D02*
D03*
X2650Y49470D02*
D03*
X14570Y23650D02*
D03*
X14850Y22990D02*
D03*
X14960Y22470D02*
D03*
X8390Y6580D02*
D03*
X7090Y32930D02*
D03*
X7410Y26720D02*
D03*
X4110Y26530D02*
D03*
X9820Y22090D02*
D03*
X14600Y16760D02*
D03*
X15720Y17150D02*
D03*
X15330Y18110D02*
D03*
X14230Y14950D02*
D03*
X15420Y15370D02*
D03*
X6230Y19470D02*
D03*
X10030Y39250D02*
D03*
X10550Y38830D02*
D03*
X10630Y41410D02*
D03*
X8880Y44990D02*
D03*
X9800D02*
D03*
X6960Y43130D02*
D03*
X7460Y44320D02*
D03*
X13110Y45440D02*
D03*
X8190Y44930D02*
D03*
X3630Y44940D02*
D03*
X7230Y24240D02*
D03*
X7790Y25150D02*
D03*
X7720Y24550D02*
D03*
X15020Y32950D02*
D03*
X15110Y41170D02*
D03*
X4270Y37500D02*
D03*
X14900Y38590D02*
D03*
X4369Y720D02*
D03*
X9580Y13050D02*
D03*
X14150Y42710D02*
D03*
X13280Y42610D02*
D03*
X4620Y6995D02*
D03*
X1730Y2320D02*
D03*
X13650Y28900D02*
D03*
X13004Y39800D02*
D03*
X10600Y3350D02*
D03*
X1200Y46500D02*
D03*
X9530Y40370D02*
D03*
X10490Y43630D02*
D03*
X7870Y28320D02*
D03*
X8300Y30350D02*
D03*
X10720Y47050D02*
D03*
X8000Y729D02*
D03*
X10570Y1090D02*
D03*
X760Y47070D02*
D03*
X1790Y49640D02*
D03*
X4230Y49630D02*
D03*
X4960Y47220D02*
D03*
X700Y43750D02*
D03*
X4530Y43180D02*
D03*
X3550Y40520D02*
D03*
X700Y40000D02*
D03*
Y37490D02*
D03*
Y35030D02*
D03*
X3670Y34710D02*
D03*
X5660Y37080D02*
D03*
X3840Y38690D02*
D03*
X5860Y38490D02*
D03*
X680Y29910D02*
D03*
X660Y32310D02*
D03*
X4360Y28960D02*
D03*
X5590Y28920D02*
D03*
X6580Y30410D02*
D03*
X7110Y33730D02*
D03*
X670Y22260D02*
D03*
X650Y19820D02*
D03*
X590Y17210D02*
D03*
X2420Y17320D02*
D03*
X610Y14760D02*
D03*
X3880Y16050D02*
D03*
Y14610D02*
D03*
X5650Y13510D02*
D03*
X530Y12080D02*
D03*
X2630Y11810D02*
D03*
X740Y9710D02*
D03*
X3920Y12390D02*
D03*
X2550Y7160D02*
D03*
X700Y4860D02*
D03*
X5130Y3920D02*
D03*
X5097Y729D02*
D03*
X730Y680D02*
D03*
X5517Y6340D02*
D03*
X13550Y620D02*
D03*
X15940Y610D02*
D03*
X17830Y650D02*
D03*
X17850Y12060D02*
D03*
X17770Y14780D02*
D03*
X17800Y17270D02*
D03*
X17740Y19970D02*
D03*
X15970Y22040D02*
D03*
X15980Y24870D02*
D03*
X17890Y27650D02*
D03*
X17790Y32400D02*
D03*
X17820Y30000D02*
D03*
X17800Y35090D02*
D03*
X17860Y37540D02*
D03*
X9190Y36930D02*
D03*
X8130Y34310D02*
D03*
X12200Y33670D02*
D03*
X10040Y34200D02*
D03*
X10760Y36130D02*
D03*
X10360Y40010D02*
D03*
X10550Y42300D02*
D03*
X12840Y43140D02*
D03*
X13810Y49560D02*
D03*
X16050Y49610D02*
D03*
X16110Y47670D02*
D03*
X13530Y47660D02*
D03*
D76*
X11250Y16700D02*
D03*
X12950D02*
D03*
X5750Y8204D02*
D03*
X7450D02*
D03*
D92*
X10643D02*
D03*
D93*
X12943Y14554D02*
D03*
X10643D02*
D03*
X8343D02*
D03*
D94*
X13521Y30880D02*
D03*
Y31380D02*
D03*
Y31880D02*
D03*
Y32380D02*
D03*
Y32880D02*
D03*
Y33380D02*
D03*
Y33880D02*
D03*
Y34380D02*
D03*
Y34880D02*
D03*
Y35380D02*
D03*
Y35880D02*
D03*
Y36380D02*
D03*
X5021D02*
D03*
Y35880D02*
D03*
Y35380D02*
D03*
Y34880D02*
D03*
Y34380D02*
D03*
Y33880D02*
D03*
Y33380D02*
D03*
Y32880D02*
D03*
Y32380D02*
D03*
Y31880D02*
D03*
Y31380D02*
D03*
Y30880D02*
D03*
D95*
X12021Y37880D02*
D03*
X11521D02*
D03*
X11021D02*
D03*
X10521D02*
D03*
X10021D02*
D03*
X9521D02*
D03*
X9021D02*
D03*
X8521D02*
D03*
X8021D02*
D03*
X7521D02*
D03*
X7021D02*
D03*
X6521D02*
D03*
Y29380D02*
D03*
X7021D02*
D03*
X7521D02*
D03*
X8021D02*
D03*
X8521D02*
D03*
X9021D02*
D03*
X9521D02*
D03*
X10021D02*
D03*
X10521D02*
D03*
X11021D02*
D03*
X11521D02*
D03*
X12021D02*
D03*
D96*
X8900Y44105D02*
D03*
X9900D02*
D03*
Y42495D02*
D03*
X9400D02*
D03*
X8900D02*
D03*
X9400Y44105D02*
D03*
D97*
X8315Y5400D02*
D03*
X4285D02*
D03*
D98*
X10750Y26700D02*
D03*
X8850D02*
D03*
M02*
