G04*
G04 #@! TF.GenerationSoftware,Altium Limited,Altium Designer,18.1.9 (240)*
G04*
G04 Layer_Physical_Order=4*
G04 Layer_Color=16711680*
%FSLAX43Y43*%
%MOMM*%
G71*
G01*
G75*
%ADD10C,0.120*%
%ADD15C,0.100*%
%ADD26R,0.600X1.300*%
%ADD48C,0.254*%
%ADD49R,0.700X0.510*%
%ADD50R,1.400X1.000*%
%ADD62R,0.540X1.060*%
%ADD66R,0.560X0.510*%
%ADD67R,0.510X0.700*%
%ADD68R,0.510X0.560*%
%ADD69C,0.200*%
%ADD70C,0.300*%
%ADD71C,0.500*%
%ADD72C,0.152*%
%ADD73C,0.250*%
%ADD74R,1.500X1.500*%
%ADD75C,1.500*%
%ADD76R,1.000X1.500*%
%ADD77O,1.000X1.500*%
%ADD78O,1.200X1.900*%
%ADD79C,1.850*%
%ADD80R,1.850X1.850*%
%ADD81C,0.400*%
%ADD82R,3.500X1.650*%
%ADD83R,1.500X1.650*%
%ADD84R,1.200X0.300*%
%ADD85R,0.300X1.200*%
%ADD86R,0.300X0.990*%
%ADD87R,1.400X1.640*%
%ADD88R,1.500X2.700*%
%ADD89R,0.900X1.400*%
%ADD90C,0.400*%
%ADD91C,0.150*%
G36*
X4822Y49764D02*
X4731Y49646D01*
X4640Y49427D01*
X4609Y49192D01*
Y48492D01*
X4640Y48257D01*
X4725Y48053D01*
X5340Y48669D01*
X5694Y48315D01*
X5078Y47700D01*
X5282Y47615D01*
X5489Y47588D01*
X5548Y47478D01*
X5310Y47240D01*
X5270Y47180D01*
X5256Y47110D01*
Y42670D01*
X5270Y42600D01*
X5310Y42540D01*
X7837Y40013D01*
Y39870D01*
X7096D01*
Y38930D01*
X7246D01*
Y38600D01*
X6796D01*
Y38930D01*
X6946D01*
Y39870D01*
X6196D01*
Y38930D01*
X6246D01*
Y37880D01*
X6251Y37853D01*
Y37160D01*
X6797D01*
Y34334D01*
X6491Y34029D01*
X6443Y33956D01*
X6426Y33870D01*
Y32442D01*
X6087Y32104D01*
X5741D01*
Y33110D01*
Y34030D01*
X5821D01*
Y34230D01*
X4221D01*
Y34030D01*
X4301D01*
Y33563D01*
X4116D01*
X2295Y35385D01*
X2302Y35505D01*
X2396Y35577D01*
X2564Y35795D01*
X2669Y36049D01*
X2705Y36322D01*
X2669Y36595D01*
X2564Y36849D01*
X2509Y36920D01*
X2905Y37316D01*
X4008D01*
X4039Y37269D01*
X4145Y37199D01*
X4270Y37174D01*
X4395Y37199D01*
X4501Y37269D01*
X4571Y37375D01*
X4596Y37500D01*
X4571Y37625D01*
X4501Y37731D01*
X4395Y37801D01*
X4270Y37826D01*
X4145Y37801D01*
X4039Y37731D01*
X4008Y37684D01*
X2829D01*
X2759Y37670D01*
X2699Y37630D01*
X2249Y37180D01*
X2178Y37235D01*
X1924Y37340D01*
X1651Y37376D01*
X1378Y37340D01*
X1124Y37235D01*
X906Y37067D01*
X738Y36849D01*
X633Y36595D01*
X597Y36322D01*
X633Y36049D01*
X738Y35795D01*
X906Y35577D01*
X1124Y35409D01*
X1378Y35304D01*
X1651Y35268D01*
X1864Y35296D01*
X2113Y35047D01*
X2050Y34941D01*
X1891Y34989D01*
X1651Y35013D01*
X1411Y34989D01*
X1180Y34919D01*
X976Y34810D01*
X1828Y33959D01*
X2679Y33107D01*
X2788Y33311D01*
X2858Y33542D01*
X2882Y33782D01*
X2858Y34022D01*
X2810Y34181D01*
X2916Y34244D01*
X3781Y33380D01*
X3570Y33169D01*
X3530Y33109D01*
X3516Y33039D01*
Y31689D01*
X3420Y31586D01*
X3295Y31561D01*
X3189Y31491D01*
X3146Y31426D01*
X2681D01*
X2669Y31515D01*
X2564Y31769D01*
X2396Y31987D01*
X2178Y32155D01*
X1924Y32260D01*
X1651Y32296D01*
X1378Y32260D01*
X1124Y32155D01*
X906Y31987D01*
X738Y31769D01*
X633Y31515D01*
X597Y31242D01*
X633Y30969D01*
X738Y30715D01*
X906Y30497D01*
X1124Y30329D01*
X1378Y30224D01*
X1651Y30188D01*
X1924Y30224D01*
X2178Y30329D01*
X2396Y30497D01*
X2564Y30715D01*
X2669Y30969D01*
X2681Y31058D01*
X3170D01*
X3189Y31029D01*
X3295Y30959D01*
X3420Y30934D01*
X3526Y30955D01*
X3646Y30901D01*
Y28270D01*
X3660Y28200D01*
X3700Y28140D01*
X4166Y27674D01*
Y27383D01*
X3600Y26817D01*
X3560Y26758D01*
X3546Y26687D01*
Y26373D01*
X3560Y26302D01*
X3600Y26243D01*
X6779Y23064D01*
X6733Y22954D01*
X4463D01*
X4393Y22940D01*
X4333Y22900D01*
X3637Y22204D01*
X3315D01*
X2934Y22585D01*
Y22707D01*
X2920Y22778D01*
X2880Y22837D01*
X2581Y23136D01*
X2669Y23349D01*
X2705Y23622D01*
X2669Y23895D01*
X2564Y24149D01*
X2396Y24367D01*
X2178Y24535D01*
X1924Y24640D01*
X1651Y24676D01*
X1378Y24640D01*
X1124Y24535D01*
X906Y24367D01*
X850Y24294D01*
X730Y24335D01*
Y25449D01*
X850Y25490D01*
X906Y25417D01*
X1124Y25249D01*
X1378Y25144D01*
X1651Y25108D01*
X1924Y25144D01*
X2178Y25249D01*
X2396Y25417D01*
X2564Y25635D01*
X2669Y25889D01*
X2705Y26162D01*
X2669Y26435D01*
X2564Y26689D01*
X2396Y26907D01*
X2178Y27075D01*
X1924Y27180D01*
X1651Y27216D01*
X1378Y27180D01*
X1124Y27075D01*
X906Y26907D01*
X850Y26834D01*
X730Y26875D01*
Y27521D01*
X1053Y27844D01*
X1124Y27789D01*
X1378Y27684D01*
X1651Y27648D01*
X1924Y27684D01*
X2178Y27789D01*
X2396Y27957D01*
X2564Y28175D01*
X2669Y28429D01*
X2705Y28702D01*
X2669Y28975D01*
X2564Y29229D01*
X2396Y29447D01*
X2178Y29615D01*
X1924Y29720D01*
X1651Y29756D01*
X1378Y29720D01*
X1124Y29615D01*
X906Y29447D01*
X738Y29229D01*
X633Y28975D01*
X597Y28702D01*
X633Y28429D01*
X738Y28175D01*
X793Y28104D01*
X528Y27838D01*
X408Y27888D01*
Y33256D01*
X528Y33285D01*
X623Y33107D01*
X1297Y33782D01*
X623Y34457D01*
X528Y34279D01*
X408Y34308D01*
Y49884D01*
X960D01*
X997Y49764D01*
X924Y49716D01*
X854Y49610D01*
X829Y49485D01*
X854Y49360D01*
X924Y49254D01*
X1030Y49184D01*
X1155Y49159D01*
X1280Y49184D01*
X1386Y49254D01*
X1456Y49360D01*
X1481Y49485D01*
X1456Y49610D01*
X1386Y49716D01*
X1313Y49764D01*
X1350Y49884D01*
X4762D01*
X4822Y49764D01*
D02*
G37*
G36*
X16730D02*
X16614Y49613D01*
X16526Y49402D01*
X16496Y49174D01*
X16526Y48947D01*
X16614Y48736D01*
X16753Y48554D01*
X16935Y48414D01*
X17146Y48327D01*
X17374Y48297D01*
X17601Y48327D01*
X17812Y48414D01*
X17994Y48554D01*
X18014Y48580D01*
X18134Y48539D01*
Y47269D01*
X18014Y47229D01*
X17994Y47255D01*
X17812Y47394D01*
X17601Y47482D01*
X17374Y47512D01*
X17146Y47482D01*
X16935Y47394D01*
X16753Y47255D01*
X16614Y47073D01*
X16526Y46862D01*
X16496Y46634D01*
X16526Y46407D01*
X16614Y46196D01*
X16753Y46014D01*
X16935Y45874D01*
X17146Y45787D01*
X17374Y45757D01*
X17601Y45787D01*
X17812Y45874D01*
X17994Y46014D01*
X18014Y46040D01*
X18134Y45999D01*
Y44964D01*
X16504D01*
Y43506D01*
X14737Y41739D01*
X11500D01*
X11500Y41739D01*
X11424Y41724D01*
X11359Y41681D01*
X11073Y41394D01*
X11038Y41399D01*
X10950Y41441D01*
X10931Y41535D01*
X10861Y41641D01*
X10755Y41711D01*
X10630Y41736D01*
X10505Y41711D01*
X10399Y41641D01*
X10329Y41535D01*
X10304Y41410D01*
X10329Y41285D01*
X10399Y41179D01*
X10505Y41109D01*
X10630Y41084D01*
X10707Y41099D01*
X10732Y41091D01*
X10806Y41033D01*
X10822Y41009D01*
Y39177D01*
X10702Y39113D01*
X10675Y39131D01*
X10550Y39156D01*
X10456Y39138D01*
X10376Y39194D01*
X10352Y39227D01*
X10356Y39250D01*
X10331Y39375D01*
X10261Y39481D01*
X10155Y39551D01*
X10030Y39576D01*
X9905Y39551D01*
X9799Y39481D01*
X9729Y39375D01*
X9704Y39250D01*
X9729Y39125D01*
X9799Y39019D01*
X9830Y38999D01*
Y38600D01*
X9205D01*
Y39428D01*
X9191Y39499D01*
X9151Y39558D01*
X6646Y42063D01*
X6651Y42109D01*
X6721Y42215D01*
X6746Y42340D01*
X6721Y42465D01*
X6651Y42571D01*
X6545Y42641D01*
X6420Y42666D01*
X6295Y42641D01*
X6189Y42571D01*
X6119Y42465D01*
X6111Y42428D01*
X5981Y42389D01*
X5624Y42746D01*
Y45395D01*
X5737Y45433D01*
X5768Y45393D01*
X5987Y45225D01*
X6243Y45119D01*
X6517Y45083D01*
X6791Y45119D01*
X6988Y45201D01*
X7094Y45115D01*
X7083Y45060D01*
X7083Y45060D01*
Y44320D01*
X7111Y44176D01*
X7193Y44053D01*
X7316Y43971D01*
X7460Y43943D01*
X7604Y43971D01*
X7716Y44046D01*
X7768Y44033D01*
X7836Y44000D01*
Y43609D01*
X7607Y43380D01*
X7162D01*
X7085Y43431D01*
X6960Y43456D01*
X6835Y43431D01*
X6729Y43361D01*
X6659Y43255D01*
X6634Y43130D01*
X6659Y43005D01*
X6729Y42899D01*
X6835Y42829D01*
X6960Y42804D01*
X7085Y42829D01*
X7162Y42880D01*
X7710D01*
X7806Y42899D01*
X7887Y42953D01*
X8262Y43329D01*
X8316Y43410D01*
X8335Y43505D01*
Y44642D01*
X8421Y44699D01*
X8452Y44745D01*
X8589Y44755D01*
X8630Y44698D01*
Y43490D01*
X8700D01*
Y43110D01*
X8630D01*
Y41880D01*
X9050D01*
Y41800D01*
X9250D01*
Y42495D01*
X9550D01*
Y41800D01*
X9750D01*
Y41880D01*
X10170D01*
Y43110D01*
X10100D01*
Y43490D01*
X10170D01*
Y44720D01*
X10100D01*
Y44850D01*
X10098Y44860D01*
X10101Y44865D01*
X10126Y44990D01*
X10101Y45115D01*
X10031Y45221D01*
X9925Y45291D01*
X9800Y45316D01*
X9705Y45297D01*
X9586Y45281D01*
X9532Y45362D01*
X9282Y45612D01*
X9201Y45666D01*
X9105Y45685D01*
X8696D01*
X8634Y45673D01*
X8547Y45736D01*
X8527Y45761D01*
Y45860D01*
X8600Y45950D01*
X8950D01*
Y46800D01*
X9250D01*
Y45950D01*
X9586D01*
X9600Y45950D01*
X9698Y45897D01*
X9701Y45881D01*
X9783Y45758D01*
X10473Y45069D01*
Y44330D01*
X10473Y44330D01*
X10501Y44186D01*
X10583Y44063D01*
X11254Y43393D01*
X11320Y43300D01*
Y42000D01*
X12100D01*
Y43300D01*
X12087D01*
Y43470D01*
X12059Y43614D01*
X11977Y43737D01*
X11977Y43737D01*
X11504Y44209D01*
X11550Y44320D01*
X11600D01*
Y44800D01*
X11750D01*
Y44950D01*
X12205D01*
Y45100D01*
X11340Y45965D01*
X11694Y46319D01*
X12419Y45593D01*
X12434Y45612D01*
X12500Y45771D01*
X12620Y45748D01*
Y45595D01*
X12950D01*
Y46050D01*
X13250D01*
Y45595D01*
X13373D01*
Y45129D01*
X13365Y45118D01*
X13336Y44974D01*
X13336Y44974D01*
Y43630D01*
X13336Y43630D01*
X13365Y43486D01*
X13447Y43364D01*
X13773Y43038D01*
Y42710D01*
X13801Y42566D01*
X13883Y42443D01*
X14006Y42361D01*
X14150Y42333D01*
X14294Y42361D01*
X14417Y42443D01*
X14499Y42566D01*
X14527Y42710D01*
Y42962D01*
X14647Y43060D01*
X14834Y43035D01*
X15108Y43071D01*
X15363Y43177D01*
X15382Y43192D01*
X14657Y43918D01*
X14834Y44094D01*
X14657Y44271D01*
X15382Y44997D01*
X15363Y45012D01*
X15108Y45117D01*
X14834Y45153D01*
X14559Y45117D01*
X14304Y45012D01*
X14240Y44963D01*
X14169Y44993D01*
X14127Y45027D01*
Y45941D01*
X14247Y45988D01*
X14395Y45874D01*
X14606Y45787D01*
X14834Y45757D01*
X15061Y45787D01*
X15272Y45874D01*
X15454Y46014D01*
X15594Y46196D01*
X15681Y46407D01*
X15711Y46634D01*
X15681Y46862D01*
X15594Y47073D01*
X15454Y47255D01*
X15272Y47394D01*
X15061Y47482D01*
X14834Y47512D01*
X14606Y47482D01*
X14395Y47394D01*
X14213Y47255D01*
X14074Y47073D01*
X14060Y47041D01*
X13919Y47013D01*
X13751Y47181D01*
X13645Y47251D01*
X13520Y47276D01*
X13500D01*
Y47325D01*
X13111D01*
X13100Y47327D01*
X12606D01*
X12463Y47470D01*
X12515Y47579D01*
X12519Y47584D01*
X12752Y47615D01*
X12956Y47700D01*
X12340Y48315D01*
X12694Y48669D01*
X13309Y48053D01*
X13394Y48257D01*
X13425Y48492D01*
Y49192D01*
X13394Y49427D01*
X13303Y49646D01*
X13212Y49764D01*
X13272Y49884D01*
X16686D01*
X16730Y49764D01*
D02*
G37*
G36*
X18134Y39388D02*
X18014Y39359D01*
X17919Y39537D01*
X17245Y38862D01*
X17919Y38187D01*
X18014Y38365D01*
X18134Y38336D01*
Y25348D01*
X18014Y25298D01*
X17749Y25564D01*
X17804Y25635D01*
X17909Y25889D01*
X17945Y26162D01*
X17909Y26435D01*
X17804Y26689D01*
X17636Y26907D01*
X17418Y27075D01*
X17164Y27180D01*
X16891Y27216D01*
X16618Y27180D01*
X16364Y27075D01*
X16146Y26907D01*
X15978Y26689D01*
X15873Y26435D01*
X15837Y26162D01*
X15873Y25889D01*
X15978Y25635D01*
X16146Y25417D01*
X16364Y25249D01*
X16618Y25144D01*
X16891Y25108D01*
X17164Y25144D01*
X17418Y25249D01*
X17489Y25304D01*
X17812Y24981D01*
Y24335D01*
X17692Y24294D01*
X17636Y24367D01*
X17418Y24535D01*
X17164Y24640D01*
X16891Y24676D01*
X16618Y24640D01*
X16364Y24535D01*
X16146Y24367D01*
X15978Y24149D01*
X15873Y23895D01*
X15837Y23622D01*
X15873Y23349D01*
X15904Y23273D01*
X15838Y23174D01*
X15112D01*
X15081Y23221D01*
X14975Y23291D01*
X14850Y23316D01*
X14725Y23291D01*
X14619Y23221D01*
X14549Y23115D01*
X14524Y22990D01*
X14549Y22865D01*
X14619Y22759D01*
X14722Y22690D01*
X14659Y22595D01*
X14634Y22470D01*
X14659Y22345D01*
X14729Y22239D01*
X14835Y22169D01*
X14960Y22144D01*
X15085Y22169D01*
X15191Y22239D01*
X15254Y22333D01*
X17349D01*
X17419Y22347D01*
X17478Y22387D01*
X18014Y22923D01*
X18134Y22873D01*
Y4404D01*
X18014Y4324D01*
X18000Y4330D01*
X17775D01*
Y5233D01*
X17775Y5233D01*
X17768Y5269D01*
X17804Y5315D01*
X17909Y5569D01*
X17945Y5842D01*
X17909Y6115D01*
X17804Y6369D01*
X17636Y6587D01*
X17418Y6755D01*
X17164Y6860D01*
X16891Y6896D01*
X16618Y6860D01*
X16364Y6755D01*
X16146Y6587D01*
X16044Y6454D01*
X15924Y6495D01*
Y7729D01*
X16044Y7770D01*
X16146Y7637D01*
X16364Y7469D01*
X16618Y7364D01*
X16891Y7328D01*
X17164Y7364D01*
X17418Y7469D01*
X17636Y7637D01*
X17804Y7855D01*
X17909Y8109D01*
X17945Y8382D01*
X17909Y8655D01*
X17804Y8909D01*
X17636Y9127D01*
X17418Y9295D01*
X17164Y9400D01*
X16891Y9436D01*
X16618Y9400D01*
X16364Y9295D01*
X16146Y9127D01*
X16044Y8994D01*
X15924Y9035D01*
Y10269D01*
X16044Y10310D01*
X16146Y10177D01*
X16364Y10009D01*
X16618Y9904D01*
X16891Y9868D01*
X17164Y9904D01*
X17418Y10009D01*
X17636Y10177D01*
X17804Y10395D01*
X17909Y10649D01*
X17945Y10922D01*
X17909Y11195D01*
X17804Y11449D01*
X17636Y11667D01*
X17418Y11835D01*
X17164Y11940D01*
X16891Y11976D01*
X16618Y11940D01*
X16364Y11835D01*
X16146Y11667D01*
X16044Y11534D01*
X15924Y11575D01*
Y11620D01*
X15910Y11690D01*
X15870Y11750D01*
X15214Y12406D01*
Y14990D01*
X15334Y15061D01*
X15420Y15044D01*
X15545Y15069D01*
X15651Y15139D01*
X15721Y15245D01*
X15746Y15370D01*
X15721Y15495D01*
X15651Y15601D01*
X15604Y15632D01*
Y15660D01*
X15590Y15730D01*
X15550Y15790D01*
X15454Y15886D01*
Y16799D01*
X15574Y16863D01*
X15595Y16849D01*
X15720Y16824D01*
X15845Y16849D01*
X15951Y16919D01*
X16021Y17025D01*
X16046Y17150D01*
X16021Y17275D01*
X15951Y17381D01*
X15845Y17451D01*
X15720Y17476D01*
X15644Y17461D01*
X15425Y17680D01*
X15454Y17805D01*
X15462Y17813D01*
X15561Y17879D01*
X15631Y17985D01*
X15656Y18110D01*
X15631Y18235D01*
X15561Y18341D01*
X15455Y18411D01*
X15330Y18436D01*
X15205Y18411D01*
X15122Y18356D01*
X13881Y19598D01*
Y21711D01*
X13867Y21781D01*
X13827Y21841D01*
X12018Y23650D01*
X11958Y23690D01*
X11888Y23704D01*
X7391D01*
X6914Y24181D01*
Y25964D01*
X7056Y26107D01*
X7176Y26057D01*
Y24890D01*
X7190Y24820D01*
X7230Y24760D01*
X7401Y24589D01*
X7394Y24550D01*
X7419Y24425D01*
X7489Y24319D01*
X7595Y24249D01*
X7720Y24224D01*
X7845Y24249D01*
X7951Y24319D01*
X7955Y24326D01*
X8075Y24289D01*
Y24200D01*
X8808Y24200D01*
X8895Y24120D01*
X8912Y24120D01*
X9200D01*
Y24600D01*
X9500D01*
Y24120D01*
X9775D01*
X9805Y24120D01*
X9895D01*
X9925Y24120D01*
X10200D01*
Y24600D01*
X10500D01*
Y24120D01*
X10788D01*
X10805Y24120D01*
X10892Y24200D01*
X10925Y24200D01*
X11625D01*
Y25000D01*
X11474D01*
Y25230D01*
X11620D01*
Y28170D01*
X10414D01*
Y28380D01*
X10397Y28466D01*
X10349Y28539D01*
X10348Y28540D01*
X10397Y28660D01*
X12291D01*
Y29104D01*
X12807D01*
X12913Y29125D01*
X13002Y29185D01*
X13733Y29916D01*
X13795Y29929D01*
X13901Y29999D01*
X13971Y30105D01*
X13996Y30230D01*
X13971Y30355D01*
X13901Y30461D01*
X13857Y30490D01*
X13894Y30610D01*
X14241D01*
Y31030D01*
X14321D01*
Y31230D01*
X12721D01*
Y31030D01*
X12801D01*
Y30610D01*
X13246D01*
Y30379D01*
X13267Y30274D01*
X13285Y30246D01*
X12693Y29655D01*
X12291D01*
Y30100D01*
X11983D01*
X11946Y30220D01*
X12021Y30269D01*
X12091Y30375D01*
X12116Y30500D01*
X12091Y30625D01*
X12021Y30731D01*
X11915Y30801D01*
X11790Y30826D01*
X11665Y30801D01*
X11559Y30731D01*
X11489Y30625D01*
X11372Y30552D01*
X11320Y30563D01*
X11305Y30574D01*
X11241Y30671D01*
X11135Y30741D01*
X11010Y30766D01*
X10885Y30741D01*
X10779Y30671D01*
X10709Y30565D01*
X10684Y30440D01*
X10709Y30315D01*
X10746Y30260D01*
Y30100D01*
X9419D01*
X9369Y30220D01*
X9469Y30319D01*
X9515Y30329D01*
X9621Y30399D01*
X9691Y30505D01*
X9716Y30630D01*
X9691Y30755D01*
X9621Y30861D01*
X9515Y30931D01*
X9390Y30956D01*
X9265Y30931D01*
X9159Y30861D01*
X9089Y30755D01*
X9079Y30709D01*
X8826Y30456D01*
X8767Y30366D01*
X8746Y30261D01*
Y30180D01*
X8671D01*
Y29380D01*
X8371D01*
Y30180D01*
X8171D01*
Y30100D01*
X7796D01*
Y30259D01*
X7775Y30364D01*
X7716Y30454D01*
X7411Y30759D01*
X7401Y30805D01*
X7331Y30911D01*
X7225Y30981D01*
X7100Y31006D01*
X6975Y30981D01*
X6869Y30911D01*
X6799Y30805D01*
X6774Y30680D01*
X6799Y30555D01*
X6869Y30449D01*
X6975Y30379D01*
X7021Y30369D01*
X7171Y30220D01*
X7121Y30100D01*
X6251D01*
X6204Y30200D01*
Y31184D01*
X7651Y32631D01*
X7691Y32691D01*
X7705Y32761D01*
Y37160D01*
X8146D01*
X8210Y37066D01*
X8216Y37040D01*
X8194Y36928D01*
X8219Y36803D01*
X8289Y36697D01*
X8395Y36627D01*
X8520Y36602D01*
X8645Y36627D01*
X8751Y36697D01*
X8821Y36803D01*
X8846Y36928D01*
X8824Y37040D01*
X8830Y37066D01*
X8894Y37160D01*
X11171D01*
Y37080D01*
X11542D01*
X11571Y37037D01*
X11595Y36960D01*
X11539Y36875D01*
X11514Y36750D01*
X11539Y36625D01*
X11609Y36519D01*
X11715Y36449D01*
X11840Y36424D01*
X11965Y36449D01*
X12071Y36519D01*
X12141Y36625D01*
X12151Y36671D01*
X12216Y36736D01*
X12275Y36826D01*
X12296Y36931D01*
X12296Y36931D01*
Y37880D01*
X12291Y37906D01*
Y38600D01*
X11871D01*
Y38680D01*
X11671D01*
Y37880D01*
X11371D01*
Y38680D01*
X11220D01*
Y39812D01*
X11320Y39860D01*
X12100D01*
Y40133D01*
X12394D01*
X12633Y39894D01*
Y39830D01*
X12627Y39800D01*
X12655Y39656D01*
X12737Y39533D01*
X12860Y39451D01*
X13004Y39423D01*
X13010D01*
X13154Y39451D01*
X13277Y39533D01*
X13359Y39656D01*
X13387Y39800D01*
Y40050D01*
X13359Y40194D01*
X13277Y40317D01*
X13277Y40317D01*
X12817Y40777D01*
X12694Y40859D01*
X12550Y40887D01*
X12550Y40887D01*
X12100D01*
Y41160D01*
X11596D01*
X11545Y41275D01*
X11599Y41341D01*
X14591D01*
X14637Y41230D01*
X14053Y40647D01*
X13971Y40524D01*
X13943Y40380D01*
X13943Y40380D01*
Y38139D01*
X13943Y38139D01*
X13971Y37994D01*
X14053Y37872D01*
X14947Y36978D01*
X14908Y36848D01*
X14875Y36841D01*
X14769Y36771D01*
X14765Y36764D01*
X14430D01*
X14344Y36747D01*
X14271Y36699D01*
X14222Y36650D01*
X12801D01*
Y35655D01*
X12394D01*
X12301Y35749D01*
X12291Y35795D01*
X12221Y35901D01*
X12115Y35971D01*
X11990Y35996D01*
X11865Y35971D01*
X11759Y35901D01*
X11689Y35795D01*
X11664Y35670D01*
X11689Y35545D01*
X11759Y35439D01*
X11865Y35369D01*
X11911Y35359D01*
X12086Y35185D01*
X12086Y35185D01*
X12175Y35125D01*
X12280Y35104D01*
X12801D01*
Y34110D01*
Y33155D01*
X12475D01*
X12465Y33161D01*
X12340Y33186D01*
X12215Y33161D01*
X12109Y33091D01*
X12039Y32985D01*
X12014Y32860D01*
X12039Y32735D01*
X12109Y32629D01*
X12215Y32559D01*
X12340Y32534D01*
X12465Y32559D01*
X12533Y32604D01*
X12801D01*
Y31730D01*
X12721D01*
Y31530D01*
X14321D01*
Y31730D01*
X14241D01*
Y32610D01*
Y33610D01*
Y34610D01*
Y35655D01*
X14420D01*
X14505Y35672D01*
X14556Y35706D01*
X14570Y35704D01*
X14695Y35729D01*
X14801Y35799D01*
X14871Y35905D01*
X14896Y36030D01*
X14879Y36115D01*
X14946Y36203D01*
X14972Y36219D01*
X15000Y36214D01*
X15093Y36232D01*
X15213Y36164D01*
Y29586D01*
X14333Y28707D01*
X14251Y28584D01*
X14223Y28440D01*
X14223Y28440D01*
Y27820D01*
X14210D01*
Y26520D01*
X14990D01*
Y27820D01*
X14977D01*
Y28284D01*
X15796Y29102D01*
X15898Y29034D01*
X15873Y28975D01*
X15837Y28702D01*
X15873Y28429D01*
X15978Y28175D01*
X16146Y27957D01*
X16364Y27789D01*
X16618Y27684D01*
X16891Y27648D01*
X17164Y27684D01*
X17418Y27789D01*
X17636Y27957D01*
X17804Y28175D01*
X17909Y28429D01*
X17945Y28702D01*
X17909Y28975D01*
X17804Y29229D01*
X17636Y29447D01*
X17418Y29615D01*
X17164Y29720D01*
X16891Y29756D01*
X16618Y29720D01*
X16364Y29615D01*
X16146Y29447D01*
X16075Y29355D01*
X15962Y29406D01*
X15967Y29430D01*
X15967Y29430D01*
Y30532D01*
X16087Y30573D01*
X16146Y30497D01*
X16364Y30329D01*
X16618Y30224D01*
X16891Y30188D01*
X17164Y30224D01*
X17418Y30329D01*
X17636Y30497D01*
X17804Y30715D01*
X17909Y30969D01*
X17945Y31242D01*
X17909Y31515D01*
X17804Y31769D01*
X17636Y31987D01*
X17418Y32155D01*
X17164Y32260D01*
X16891Y32296D01*
X16618Y32260D01*
X16364Y32155D01*
X16146Y31987D01*
X16087Y31911D01*
X15967Y31952D01*
Y33072D01*
X16087Y33113D01*
X16146Y33037D01*
X16364Y32869D01*
X16618Y32764D01*
X16891Y32728D01*
X17164Y32764D01*
X17418Y32869D01*
X17636Y33037D01*
X17804Y33255D01*
X17909Y33509D01*
X17945Y33782D01*
X17909Y34055D01*
X17804Y34309D01*
X17636Y34527D01*
X17418Y34695D01*
X17164Y34800D01*
X16891Y34836D01*
X16618Y34800D01*
X16364Y34695D01*
X16146Y34527D01*
X16087Y34451D01*
X15967Y34492D01*
Y35612D01*
X16087Y35653D01*
X16146Y35577D01*
X16364Y35409D01*
X16618Y35304D01*
X16891Y35268D01*
X17164Y35304D01*
X17418Y35409D01*
X17636Y35577D01*
X17804Y35795D01*
X17909Y36049D01*
X17945Y36322D01*
X17909Y36595D01*
X17804Y36849D01*
X17636Y37067D01*
X17418Y37235D01*
X17164Y37340D01*
X16891Y37376D01*
X16618Y37340D01*
X16364Y37235D01*
X16293Y37180D01*
X15129Y38343D01*
X15131Y38359D01*
X15201Y38465D01*
X15226Y38590D01*
X15201Y38715D01*
X15131Y38821D01*
X15025Y38891D01*
X14900Y38916D01*
X14817Y38900D01*
X14697Y38973D01*
Y40224D01*
X15377Y40903D01*
X15459Y41026D01*
X15487Y41170D01*
X15459Y41314D01*
X15377Y41437D01*
X15254Y41519D01*
X15250Y41519D01*
X15210Y41650D01*
X15735Y42175D01*
X15846Y42129D01*
Y40357D01*
X17936D01*
Y42447D01*
X16164D01*
X16118Y42558D01*
X16785Y43224D01*
X18134D01*
Y39388D01*
D02*
G37*
G36*
X4264Y31499D02*
X4301Y31468D01*
Y30610D01*
X4712D01*
X4741Y30567D01*
X4765Y30490D01*
X4709Y30405D01*
X4684Y30280D01*
X4709Y30155D01*
X4779Y30049D01*
X4885Y29979D01*
X5010Y29954D01*
X5135Y29979D01*
X5241Y30049D01*
X5311Y30155D01*
X5336Y30280D01*
X5311Y30405D01*
X5255Y30490D01*
X5287Y30610D01*
X5741D01*
X5836Y30550D01*
Y28310D01*
X5850Y28240D01*
X5890Y28180D01*
X6130Y27940D01*
X6190Y27900D01*
X6260Y27886D01*
X7183D01*
X7606Y27463D01*
Y27107D01*
X7486Y27031D01*
X7410Y27046D01*
X7285Y27021D01*
X7179Y26951D01*
X7109Y26845D01*
X7084Y26720D01*
X7095Y26664D01*
X6600Y26170D01*
X6560Y26110D01*
X6546Y26040D01*
Y24350D01*
X6436Y24304D01*
X4381Y26359D01*
X4411Y26405D01*
X4436Y26530D01*
X4411Y26655D01*
X4341Y26761D01*
X4276Y26804D01*
X4245Y26943D01*
X4480Y27178D01*
X4520Y27237D01*
X4534Y27307D01*
Y27750D01*
X4520Y27820D01*
X4480Y27880D01*
X4014Y28346D01*
Y31415D01*
X4080Y31524D01*
X4181Y31544D01*
X4264Y31499D01*
D02*
G37*
G36*
X8369Y20610D02*
X8429Y20570D01*
X8499Y20556D01*
X12024D01*
X12238Y20342D01*
X12227Y20287D01*
X12252Y20162D01*
X12323Y20056D01*
X12428Y19985D01*
X12553Y19961D01*
X12674Y19985D01*
X12679Y19985D01*
X12794Y19918D01*
Y19189D01*
X12808Y19119D01*
X12848Y19060D01*
X14659Y17248D01*
X14600Y17137D01*
X14600Y17137D01*
X13520D01*
Y17520D01*
X12380D01*
Y15880D01*
X12573D01*
Y15499D01*
X12073D01*
Y13694D01*
X11880D01*
X11810Y13680D01*
X11750Y13640D01*
X11526Y13415D01*
X11405Y13418D01*
X11385Y13443D01*
X11373Y13460D01*
X11366Y13464D01*
X11335Y13502D01*
X11370Y13609D01*
X11513D01*
Y15499D01*
X9773D01*
Y13609D01*
X9923D01*
Y11599D01*
X9803Y11522D01*
X9730Y11536D01*
X9605Y11511D01*
X9499Y11441D01*
X9468Y11394D01*
X7386D01*
X6724Y12056D01*
Y15029D01*
X6710Y15100D01*
X6670Y15159D01*
X5984Y15845D01*
Y16120D01*
X6122D01*
Y16600D01*
Y17080D01*
X5984D01*
Y18964D01*
X6174Y19155D01*
X6230Y19144D01*
X6355Y19169D01*
X6461Y19239D01*
X6531Y19345D01*
X6556Y19470D01*
X6531Y19595D01*
X6520Y19613D01*
X6490Y19680D01*
X6550Y19720D01*
X6920Y20090D01*
X6960Y20150D01*
X6974Y20220D01*
Y20788D01*
X7021Y20819D01*
X7091Y20925D01*
X7116Y21050D01*
X7091Y21175D01*
X7030Y21266D01*
X7046Y21328D01*
X7078Y21386D01*
X7593D01*
X8369Y20610D01*
D02*
G37*
G36*
X1170Y22280D02*
X1230Y22240D01*
X1300Y22226D01*
X1419D01*
X1427Y22106D01*
X1378Y22100D01*
X1124Y21995D01*
X906Y21827D01*
X738Y21609D01*
X633Y21355D01*
X597Y21082D01*
X633Y20809D01*
X738Y20555D01*
X906Y20337D01*
X1124Y20169D01*
X1378Y20064D01*
X1651Y20028D01*
X1924Y20064D01*
X2105Y20139D01*
X2162Y20033D01*
X2099Y19991D01*
X2029Y19885D01*
X2004Y19760D01*
X2026Y19648D01*
X1995Y19605D01*
X1938Y19554D01*
X1924Y19560D01*
X1651Y19596D01*
X1378Y19560D01*
X1124Y19455D01*
X906Y19287D01*
X738Y19069D01*
X633Y18815D01*
X597Y18542D01*
X633Y18269D01*
X738Y18015D01*
X906Y17797D01*
X1124Y17629D01*
X1378Y17524D01*
X1651Y17488D01*
X1924Y17524D01*
X2178Y17629D01*
X2396Y17797D01*
X2564Y18015D01*
X2669Y18269D01*
X2686Y18401D01*
X2806Y18393D01*
Y18150D01*
X2820Y18079D01*
X2860Y18020D01*
X3446Y17434D01*
Y17097D01*
X3419Y17055D01*
X3394Y16930D01*
X3419Y16805D01*
X3489Y16699D01*
X3595Y16629D01*
X3720Y16604D01*
X3845Y16629D01*
X3951Y16699D01*
X4021Y16805D01*
X4046Y16930D01*
X4026Y17033D01*
X4022Y17056D01*
X4096Y17160D01*
X4135Y17168D01*
X4241Y17238D01*
X4311Y17344D01*
X4336Y17469D01*
X4311Y17594D01*
X4241Y17700D01*
X4135Y17770D01*
X4010Y17795D01*
X3954Y17784D01*
X3414Y18325D01*
Y18879D01*
X3400Y18950D01*
X3360Y19009D01*
X3042Y19327D01*
X3050Y19449D01*
X3081Y19469D01*
X3151Y19575D01*
X3176Y19700D01*
X3202Y19725D01*
X3260Y19714D01*
X3385Y19739D01*
X3491Y19809D01*
X3516Y19846D01*
X4280D01*
X4350Y19860D01*
X4410Y19900D01*
X4536Y20026D01*
X5820D01*
X5870Y19906D01*
X5430Y19467D01*
X5390Y19408D01*
X5376Y19337D01*
Y15670D01*
X5386Y15624D01*
X5327Y15565D01*
X5288Y15544D01*
X5222Y15589D01*
X5097Y15613D01*
X4972Y15589D01*
X4866Y15518D01*
X4835Y15471D01*
X2692D01*
X2612Y15591D01*
X2669Y15729D01*
X2705Y16002D01*
X2669Y16275D01*
X2564Y16529D01*
X2396Y16747D01*
X2178Y16915D01*
X1924Y17020D01*
X1651Y17056D01*
X1378Y17020D01*
X1124Y16915D01*
X906Y16747D01*
X738Y16529D01*
X633Y16275D01*
X597Y16002D01*
X633Y15729D01*
X738Y15475D01*
X906Y15257D01*
X1124Y15089D01*
X1378Y14984D01*
X1651Y14948D01*
X1924Y14984D01*
X2178Y15089D01*
X2253Y15146D01*
X2296Y15118D01*
X2366Y15104D01*
X4835D01*
X4866Y15057D01*
X4972Y14986D01*
X5097Y14961D01*
X5222Y14986D01*
X5328Y15057D01*
X5399Y15162D01*
X5423Y15287D01*
X5423Y15289D01*
X5517Y15425D01*
X5541Y15429D01*
X6111Y14859D01*
X6101Y14740D01*
X5996Y14684D01*
X5956Y14711D01*
X5831Y14736D01*
X5706Y14711D01*
X5600Y14641D01*
X5569Y14594D01*
X4530D01*
X4460Y14580D01*
X4400Y14540D01*
X1815Y11954D01*
X1651Y11976D01*
X1378Y11940D01*
X1124Y11835D01*
X906Y11667D01*
X738Y11449D01*
X633Y11195D01*
X597Y10922D01*
X633Y10649D01*
X738Y10395D01*
X906Y10177D01*
X1124Y10009D01*
X1378Y9904D01*
X1651Y9868D01*
X1924Y9904D01*
X2178Y10009D01*
X2396Y10177D01*
X2564Y10395D01*
X2669Y10649D01*
X2705Y10922D01*
X2669Y11195D01*
X2564Y11449D01*
X2396Y11667D01*
X2271Y11764D01*
X2263Y11883D01*
X4606Y14226D01*
X5569D01*
X5600Y14179D01*
X5706Y14109D01*
X5831Y14084D01*
X5956Y14109D01*
X5996Y14136D01*
X6116Y14072D01*
Y11036D01*
X5626Y10545D01*
X5570Y10556D01*
X5445Y10531D01*
X5339Y10461D01*
X5269Y10355D01*
X5244Y10230D01*
X5269Y10105D01*
X5339Y9999D01*
X5445Y9929D01*
X5570Y9904D01*
X5695Y9929D01*
X5801Y9999D01*
X5871Y10105D01*
X5896Y10230D01*
X5885Y10286D01*
X6430Y10830D01*
X6470Y10890D01*
X6484Y10960D01*
Y11620D01*
X6594Y11666D01*
X7190Y11070D01*
X7250Y11030D01*
X7320Y11016D01*
X7370Y11026D01*
X9468D01*
X9499Y10979D01*
X9605Y10909D01*
X9730Y10884D01*
X9803Y10898D01*
X9923Y10821D01*
Y9149D01*
X8773D01*
Y8581D01*
X8020D01*
Y9024D01*
X6880D01*
Y7412D01*
X6400D01*
Y8054D01*
X5100D01*
Y7412D01*
X4660D01*
X4660Y7412D01*
X4516Y7384D01*
X4393Y7302D01*
X4353Y7262D01*
X4353Y7262D01*
X4018Y6927D01*
X3936Y6804D01*
X3908Y6660D01*
X3908Y6660D01*
Y6340D01*
X3465D01*
Y4460D01*
X5105D01*
Y6340D01*
X4662D01*
Y6504D01*
X4816Y6658D01*
X7235D01*
X7235Y6658D01*
X7379Y6686D01*
X7502Y6768D01*
X7717Y6983D01*
X7717Y6983D01*
X7799Y7106D01*
X7827Y7250D01*
X7827Y7250D01*
Y7384D01*
X8020D01*
Y7827D01*
X8773D01*
Y7259D01*
X12127D01*
X12173Y7148D01*
X11496Y6472D01*
X11300D01*
X11262Y6456D01*
X11142Y6434D01*
X11050Y6472D01*
X9700D01*
X9608Y6434D01*
X9570Y6342D01*
Y5342D01*
X9608Y5250D01*
X9700Y5212D01*
X9823D01*
Y4947D01*
X9560D01*
X9416Y4919D01*
X9293Y4837D01*
X9255Y4780D01*
X9135Y4816D01*
Y6340D01*
X8819D01*
X8788Y6376D01*
X8743Y6460D01*
X8767Y6580D01*
X8739Y6724D01*
X8657Y6847D01*
X8534Y6929D01*
X8390Y6957D01*
X8246Y6929D01*
X8123Y6847D01*
X8048Y6772D01*
X7966Y6649D01*
X7938Y6505D01*
X7938Y6505D01*
Y6340D01*
X7495D01*
Y4460D01*
X9101Y4460D01*
X9166Y4440D01*
X9230Y4399D01*
X9293Y4303D01*
X9416Y4221D01*
X9560Y4193D01*
X9825D01*
Y4030D01*
X10575D01*
Y4489D01*
X10577Y4500D01*
Y5212D01*
X11050D01*
X11142Y5250D01*
X11262Y5228D01*
X11300Y5212D01*
X12100D01*
X12192Y5250D01*
X12230Y5342D01*
Y6138D01*
X12526Y6435D01*
X12640Y6379D01*
X12630Y6300D01*
Y5800D01*
X12651Y5638D01*
X12713Y5487D01*
X12813Y5358D01*
X12942Y5258D01*
X13093Y5196D01*
X13255Y5175D01*
X13417Y5196D01*
X13568Y5258D01*
X13697Y5358D01*
X13785Y5472D01*
X13839Y5468D01*
X13905Y5439D01*
Y5180D01*
X15145D01*
Y6920D01*
X13905D01*
Y6661D01*
X13839Y6632D01*
X13785Y6628D01*
X13697Y6742D01*
X13568Y6842D01*
X13417Y6904D01*
X13255Y6925D01*
X13176Y6915D01*
X13120Y7029D01*
X13737Y7645D01*
X13819Y7768D01*
X13847Y7912D01*
X13847Y7912D01*
Y10060D01*
X13847Y10060D01*
X13819Y10204D01*
X13737Y10327D01*
X12767Y11297D01*
X12644Y11379D01*
X12500Y11407D01*
X12356Y11379D01*
X12233Y11297D01*
X12151Y11174D01*
X12123Y11030D01*
X12151Y10886D01*
X12233Y10763D01*
X13093Y9904D01*
Y8068D01*
X12623Y7599D01*
X12513Y7645D01*
Y9149D01*
X10677D01*
Y13609D01*
X10919D01*
X10956Y13489D01*
X10912Y13460D01*
X10841Y13354D01*
X10816Y13229D01*
X10841Y13104D01*
X10912Y12998D01*
X11018Y12928D01*
X11143Y12903D01*
X11267Y12928D01*
X11373Y12998D01*
X11405Y13046D01*
X11599D01*
X11669Y13060D01*
X11729Y13099D01*
X11956Y13326D01*
X12071D01*
X12108Y13206D01*
X12069Y13181D01*
X11999Y13075D01*
X11974Y12950D01*
X11999Y12825D01*
X12069Y12719D01*
X12175Y12649D01*
X12300Y12624D01*
X12425Y12649D01*
X12531Y12719D01*
X12601Y12825D01*
X12626Y12950D01*
X12601Y13075D01*
X12531Y13181D01*
X12492Y13206D01*
X12529Y13326D01*
X13790D01*
X13860Y13340D01*
X13920Y13380D01*
X14360Y13820D01*
X14400Y13880D01*
X14414Y13950D01*
Y14688D01*
X14461Y14719D01*
X14531Y14825D01*
X14556Y14950D01*
X14531Y15075D01*
X14461Y15181D01*
X14355Y15251D01*
X14230Y15276D01*
X14105Y15251D01*
X13999Y15181D01*
X13933Y15081D01*
X13924Y15079D01*
X13813Y15127D01*
Y15499D01*
X13327D01*
Y15880D01*
X13520D01*
Y16383D01*
X14600D01*
X14726Y16408D01*
X14846Y16357D01*
Y12330D01*
X14860Y12260D01*
X14900Y12200D01*
X15556Y11544D01*
Y4980D01*
X15570Y4910D01*
X15610Y4850D01*
X15916Y4544D01*
Y4330D01*
X15600D01*
X15508Y4292D01*
X15470Y4200D01*
Y3400D01*
X15486Y3362D01*
X15508Y3242D01*
X15470Y3150D01*
Y1800D01*
X15508Y1708D01*
X15600Y1670D01*
X15711D01*
X15761Y1550D01*
X15586Y1375D01*
X13888D01*
X13811Y1495D01*
X13826Y1570D01*
X13801Y1695D01*
X13731Y1801D01*
X13625Y1871D01*
X13579Y1881D01*
X13065Y2395D01*
X12975Y2454D01*
X12870Y2475D01*
X12120D01*
Y2820D01*
X10480D01*
Y1580D01*
X12120D01*
Y1925D01*
X12756D01*
X13185Y1495D01*
X13185Y1485D01*
X13112Y1375D01*
X10719D01*
X10695Y1391D01*
X10570Y1416D01*
X10445Y1391D01*
X10339Y1321D01*
X10269Y1215D01*
X10244Y1090D01*
X10269Y965D01*
X10339Y859D01*
X10445Y789D01*
X10570Y764D01*
X10695Y789D01*
X10749Y825D01*
X15700D01*
X15805Y846D01*
X15895Y905D01*
X16295Y1305D01*
X16295Y1305D01*
X16354Y1395D01*
X16375Y1500D01*
Y1670D01*
X16600D01*
X16692Y1708D01*
X16730Y1800D01*
Y2125D01*
X16870D01*
Y1800D01*
X16908Y1708D01*
X17000Y1670D01*
X18000D01*
X18014Y1676D01*
X18134Y1596D01*
Y408D01*
X8304D01*
X8287Y428D01*
X8250Y528D01*
X8301Y604D01*
X8307Y630D01*
X9920D01*
Y1870D01*
X8280D01*
Y1525D01*
X7796D01*
Y1720D01*
X7696D01*
Y2005D01*
X7796D01*
Y2945D01*
X7063Y2945D01*
X6976Y3025D01*
X6959Y3025D01*
X6671D01*
Y2475D01*
Y1925D01*
X6959D01*
X6976Y1925D01*
X7026Y1971D01*
X7146Y1920D01*
Y1720D01*
X7046D01*
Y870D01*
X6896D01*
Y1720D01*
X6146D01*
Y780D01*
X6246D01*
Y739D01*
X6267Y634D01*
X6326Y544D01*
X6352Y519D01*
X6306Y408D01*
X408D01*
Y22873D01*
X528Y22923D01*
X1170Y22280D01*
D02*
G37*
G36*
X12100Y5342D02*
X11300D01*
X10800Y5842D01*
X11300Y6342D01*
X12100D01*
Y5342D01*
D02*
G37*
G36*
X10550Y5842D02*
X11050Y5342D01*
X9700D01*
Y6342D01*
X11050D01*
X10550Y5842D01*
D02*
G37*
G36*
X18000Y3400D02*
X17500Y2900D01*
X17000Y3400D01*
Y4200D01*
X18000D01*
Y3400D01*
D02*
G37*
G36*
X16600D02*
X16100Y2900D01*
X15600Y3400D01*
Y4200D01*
X16600D01*
Y3400D01*
D02*
G37*
G36*
X18000Y1800D02*
X17000D01*
Y3150D01*
X17500Y2650D01*
X18000Y3150D01*
Y1800D01*
D02*
G37*
G36*
X16600D02*
X15600D01*
Y3150D01*
X16100Y2650D01*
X16600Y3150D01*
Y1800D01*
D02*
G37*
G36*
X42188Y-16964D02*
X42235Y-16972D01*
X42277Y-16981D01*
X42313Y-16992D01*
X42344Y-17006D01*
X42366Y-17014D01*
X42380Y-17022D01*
X42385Y-17025D01*
X42424Y-17050D01*
X42457Y-17078D01*
X42488Y-17106D01*
X42513Y-17133D01*
X42532Y-17156D01*
X42549Y-17175D01*
X42557Y-17186D01*
X42560Y-17192D01*
Y-16992D01*
X42771D01*
Y-18386D01*
X42535D01*
Y-17664D01*
X42532Y-17597D01*
X42530Y-17539D01*
X42524Y-17489D01*
X42516Y-17447D01*
X42507Y-17417D01*
X42502Y-17394D01*
X42499Y-17381D01*
X42496Y-17375D01*
X42480Y-17339D01*
X42460Y-17308D01*
X42441Y-17281D01*
X42421Y-17258D01*
X42402Y-17242D01*
X42388Y-17231D01*
X42377Y-17222D01*
X42374Y-17220D01*
X42341Y-17203D01*
X42310Y-17189D01*
X42277Y-17181D01*
X42249Y-17172D01*
X42227Y-17170D01*
X42208Y-17167D01*
X42191D01*
X42144Y-17170D01*
X42105Y-17178D01*
X42072Y-17192D01*
X42047Y-17206D01*
X42027Y-17222D01*
X42013Y-17233D01*
X42005Y-17245D01*
X42002Y-17247D01*
X41983Y-17281D01*
X41969Y-17317D01*
X41958Y-17356D01*
X41952Y-17394D01*
X41947Y-17428D01*
X41944Y-17458D01*
Y-17469D01*
Y-17475D01*
Y-17481D01*
Y-17483D01*
Y-18386D01*
X41708Y-18386D01*
Y-17578D01*
X41702Y-17503D01*
X41691Y-17439D01*
X41677Y-17386D01*
X41658Y-17342D01*
X41641Y-17308D01*
X41625Y-17286D01*
X41613Y-17272D01*
X41611Y-17267D01*
X41572Y-17233D01*
X41530Y-17208D01*
X41489Y-17192D01*
X41450Y-17178D01*
X41416Y-17172D01*
X41389Y-17170D01*
X41378Y-17167D01*
X41364D01*
X41333Y-17170D01*
X41308Y-17172D01*
X41283Y-17178D01*
X41264Y-17186D01*
X41244Y-17195D01*
X41233Y-17200D01*
X41225Y-17203D01*
X41222Y-17206D01*
X41200Y-17222D01*
X41183Y-17239D01*
X41169Y-17256D01*
X41158Y-17272D01*
X41150Y-17286D01*
X41144Y-17297D01*
X41139Y-17306D01*
Y-17308D01*
X41130Y-17333D01*
X41125Y-17367D01*
X41122Y-17400D01*
X41119Y-17433D01*
X41117Y-17464D01*
Y-17489D01*
Y-17506D01*
Y-17508D01*
Y-17511D01*
Y-18386D01*
X40881D01*
Y-17431D01*
Y-17386D01*
X40886Y-17347D01*
X40892Y-17308D01*
X40897Y-17275D01*
X40906Y-17242D01*
X40917Y-17214D01*
X40925Y-17189D01*
X40936Y-17164D01*
X40947Y-17145D01*
X40956Y-17125D01*
X40975Y-17100D01*
X40986Y-17084D01*
X40992Y-17078D01*
X41036Y-17039D01*
X41089Y-17011D01*
X41142Y-16989D01*
X41192Y-16975D01*
X41239Y-16967D01*
X41258Y-16964D01*
X41278D01*
X41291Y-16961D01*
X41311D01*
X41361Y-16964D01*
X41405Y-16972D01*
X41450Y-16984D01*
X41491Y-17000D01*
X41530Y-17020D01*
X41566Y-17039D01*
X41597Y-17061D01*
X41627Y-17084D01*
X41655Y-17109D01*
X41677Y-17131D01*
X41697Y-17150D01*
X41713Y-17170D01*
X41727Y-17186D01*
X41736Y-17197D01*
X41741Y-17206D01*
X41744Y-17208D01*
X41761Y-17167D01*
X41783Y-17131D01*
X41808Y-17100D01*
X41830Y-17075D01*
X41852Y-17053D01*
X41869Y-17039D01*
X41880Y-17031D01*
X41886Y-17028D01*
X41924Y-17006D01*
X41966Y-16989D01*
X42008Y-16978D01*
X42049Y-16970D01*
X42083Y-16964D01*
X42113Y-16961D01*
X42138D01*
X42188Y-16964D01*
D02*
G37*
G36*
X37768Y-16964D02*
X37827Y-16970D01*
X37882Y-16978D01*
X37927Y-16986D01*
X37966Y-16995D01*
X37993Y-17003D01*
X38004Y-17006D01*
X38013Y-17009D01*
X38016Y-17011D01*
X38018D01*
X38065Y-17031D01*
X38107Y-17056D01*
X38143Y-17078D01*
X38174Y-17100D01*
X38196Y-17122D01*
X38213Y-17139D01*
X38224Y-17150D01*
X38227Y-17153D01*
X38251Y-17189D01*
X38274Y-17228D01*
X38290Y-17267D01*
X38304Y-17303D01*
X38315Y-17339D01*
X38324Y-17364D01*
X38326Y-17375D01*
Y-17383D01*
X38329Y-17386D01*
Y-17389D01*
X38099Y-17419D01*
X38082Y-17369D01*
X38065Y-17325D01*
X38046Y-17289D01*
X38029Y-17261D01*
X38013Y-17239D01*
X37999Y-17225D01*
X37988Y-17217D01*
X37985Y-17214D01*
X37952Y-17195D01*
X37913Y-17181D01*
X37871Y-17170D01*
X37832Y-17164D01*
X37793Y-17158D01*
X37766Y-17156D01*
X37738D01*
X37674Y-17158D01*
X37619Y-17167D01*
X37574Y-17181D01*
X37535Y-17195D01*
X37507Y-17211D01*
X37485Y-17222D01*
X37471Y-17233D01*
X37469Y-17236D01*
X37446Y-17261D01*
X37430Y-17292D01*
X37416Y-17325D01*
X37408Y-17358D01*
X37402Y-17389D01*
X37399Y-17417D01*
Y-17433D01*
Y-17436D01*
Y-17439D01*
Y-17444D01*
Y-17456D01*
Y-17475D01*
X37402Y-17492D01*
Y-17497D01*
Y-17500D01*
X37430Y-17508D01*
X37460Y-17517D01*
X37524Y-17533D01*
X37596Y-17547D01*
X37663Y-17561D01*
X37696Y-17567D01*
X37727Y-17569D01*
X37755Y-17575D01*
X37777Y-17578D01*
X37796Y-17580D01*
X37810D01*
X37821Y-17583D01*
X37824D01*
X37874Y-17589D01*
X37916Y-17597D01*
X37952Y-17603D01*
X37979Y-17608D01*
X38002Y-17611D01*
X38018Y-17617D01*
X38029Y-17619D01*
X38032D01*
X38068Y-17630D01*
X38099Y-17642D01*
X38129Y-17655D01*
X38154Y-17667D01*
X38177Y-17678D01*
X38190Y-17689D01*
X38202Y-17694D01*
X38204Y-17697D01*
X38232Y-17716D01*
X38254Y-17739D01*
X38276Y-17761D01*
X38293Y-17783D01*
X38307Y-17803D01*
X38318Y-17819D01*
X38324Y-17830D01*
X38326Y-17833D01*
X38340Y-17864D01*
X38351Y-17897D01*
X38360Y-17927D01*
X38365Y-17958D01*
X38368Y-17983D01*
X38371Y-18002D01*
Y-18014D01*
Y-18019D01*
X38368Y-18052D01*
X38365Y-18080D01*
X38351Y-18138D01*
X38332Y-18186D01*
X38310Y-18227D01*
X38288Y-18261D01*
X38268Y-18286D01*
X38254Y-18300D01*
X38249Y-18305D01*
X38199Y-18341D01*
X38143Y-18369D01*
X38082Y-18388D01*
X38027Y-18402D01*
X37977Y-18411D01*
X37954Y-18413D01*
X37935D01*
X37918Y-18416D01*
X37896D01*
X37846Y-18413D01*
X37796Y-18408D01*
X37752Y-18402D01*
X37713Y-18394D01*
X37682Y-18386D01*
X37657Y-18377D01*
X37641Y-18374D01*
X37635Y-18372D01*
X37588Y-18352D01*
X37544Y-18327D01*
X37502Y-18300D01*
X37460Y-18275D01*
X37427Y-18250D01*
X37402Y-18230D01*
X37385Y-18216D01*
X37383Y-18211D01*
X37380D01*
X37374Y-18247D01*
X37369Y-18280D01*
X37363Y-18311D01*
X37355Y-18336D01*
X37346Y-18358D01*
X37341Y-18372D01*
X37338Y-18383D01*
X37335Y-18386D01*
X37088D01*
X37102Y-18355D01*
X37116Y-18324D01*
X37127Y-18297D01*
X37133Y-18272D01*
X37141Y-18250D01*
X37144Y-18233D01*
X37147Y-18222D01*
Y-18219D01*
X37149Y-18200D01*
X37152Y-18175D01*
Y-18147D01*
X37155Y-18116D01*
X37158Y-18047D01*
Y-17977D01*
X37160Y-17911D01*
Y-17880D01*
Y-17855D01*
Y-17833D01*
Y-17816D01*
Y-17805D01*
Y-17803D01*
Y-17486D01*
Y-17433D01*
X37163Y-17386D01*
X37166Y-17350D01*
Y-17319D01*
X37169Y-17297D01*
X37172Y-17281D01*
X37174Y-17272D01*
Y-17270D01*
X37183Y-17233D01*
X37194Y-17203D01*
X37205Y-17178D01*
X37219Y-17153D01*
X37230Y-17136D01*
X37238Y-17122D01*
X37244Y-17114D01*
X37247Y-17111D01*
X37269Y-17089D01*
X37294Y-17067D01*
X37321Y-17050D01*
X37349Y-17034D01*
X37374Y-17022D01*
X37394Y-17014D01*
X37408Y-17009D01*
X37413Y-17006D01*
X37458Y-16992D01*
X37505Y-16981D01*
X37552Y-16972D01*
X37599Y-16967D01*
X37641Y-16964D01*
X37671Y-16961D01*
X37702D01*
X37768Y-16964D01*
D02*
G37*
G36*
X36405Y-18386D02*
X36416Y-18411D01*
X36422Y-18430D01*
X36428Y-18441D01*
Y-18444D01*
X36444Y-18491D01*
X36461Y-18530D01*
X36472Y-18563D01*
X36483Y-18585D01*
X36489Y-18602D01*
X36494Y-18613D01*
X36500Y-18619D01*
Y-18622D01*
X36522Y-18652D01*
X36547Y-18674D01*
X36558Y-18683D01*
X36566Y-18688D01*
X36572Y-18694D01*
X36575D01*
X36594Y-18702D01*
X36614Y-18710D01*
X36655Y-18719D01*
X36672D01*
X36686Y-18721D01*
X36700D01*
X36744Y-18719D01*
X36788Y-18710D01*
X36805Y-18705D01*
X36819Y-18702D01*
X36830Y-18699D01*
X36833D01*
X36808Y-18919D01*
X36777Y-18930D01*
X36750Y-18935D01*
X36725Y-18941D01*
X36702Y-18946D01*
X36683D01*
X36669Y-18949D01*
X36658D01*
X36616Y-18946D01*
X36580Y-18941D01*
X36547Y-18932D01*
X36519Y-18921D01*
X36494Y-18910D01*
X36477Y-18902D01*
X36466Y-18896D01*
X36464Y-18894D01*
X36433Y-18871D01*
X36408Y-18844D01*
X36383Y-18816D01*
X36361Y-18788D01*
X36344Y-18763D01*
X36330Y-18744D01*
X36322Y-18730D01*
X36319Y-18724D01*
X36311Y-18705D01*
X36300Y-18685D01*
X36278Y-18638D01*
X36255Y-18585D01*
X36236Y-18533D01*
X36217Y-18486D01*
X36208Y-18463D01*
X36200Y-18444D01*
X36194Y-18430D01*
X36189Y-18419D01*
X36186Y-18411D01*
Y-18408D01*
X35656Y-16992D01*
X35892D01*
X36192Y-17805D01*
X36214Y-17864D01*
X36230Y-17919D01*
X36250Y-17975D01*
X36264Y-18022D01*
X36275Y-18064D01*
X36280Y-18080D01*
X36283Y-18094D01*
X36286Y-18105D01*
X36289Y-18114D01*
X36291Y-18119D01*
Y-18122D01*
X36308Y-18058D01*
X36325Y-18000D01*
X36341Y-17944D01*
X36358Y-17897D01*
X36372Y-17858D01*
X36378Y-17841D01*
X36383Y-17828D01*
X36386Y-17814D01*
X36389Y-17805D01*
X36391Y-17803D01*
Y-17800D01*
X36683Y-16992D01*
X36933D01*
X36405Y-18386D01*
D02*
G37*
G36*
X45717Y-16648D02*
Y-16992D01*
X45892D01*
Y-17175D01*
X45717D01*
Y-17980D01*
Y-18019D01*
Y-18052D01*
X45714Y-18083D01*
X45711Y-18114D01*
Y-18138D01*
X45708Y-18161D01*
X45703Y-18197D01*
X45697Y-18225D01*
X45695Y-18244D01*
X45689Y-18255D01*
Y-18258D01*
X45678Y-18283D01*
X45661Y-18302D01*
X45645Y-18322D01*
X45631Y-18336D01*
X45614Y-18349D01*
X45603Y-18358D01*
X45595Y-18363D01*
X45592Y-18366D01*
X45561Y-18380D01*
X45531Y-18388D01*
X45497Y-18397D01*
X45464Y-18399D01*
X45436Y-18402D01*
X45414Y-18405D01*
X45392D01*
X45331Y-18402D01*
X45300Y-18399D01*
X45273Y-18394D01*
X45248Y-18391D01*
X45228Y-18388D01*
X45217Y-18386D01*
X45211D01*
X45242Y-18177D01*
X45264Y-18180D01*
X45286Y-18183D01*
X45306D01*
X45320Y-18186D01*
X45348D01*
X45384Y-18183D01*
X45409Y-18177D01*
X45422Y-18172D01*
X45428Y-18169D01*
X45447Y-18155D01*
X45459Y-18141D01*
X45467Y-18130D01*
X45470Y-18125D01*
X45472Y-18111D01*
X45475Y-18091D01*
X45478Y-18047D01*
X45481Y-18027D01*
Y-18011D01*
Y-18000D01*
Y-17994D01*
Y-17175D01*
X45242D01*
Y-16992D01*
X45481D01*
Y-16506D01*
X45717Y-16648D01*
D02*
G37*
G36*
X44970D02*
Y-16992D01*
X45145D01*
Y-17175D01*
X44970D01*
Y-17980D01*
Y-18019D01*
Y-18052D01*
X44967Y-18083D01*
X44964Y-18114D01*
Y-18138D01*
X44962Y-18161D01*
X44956Y-18197D01*
X44951Y-18225D01*
X44948Y-18244D01*
X44942Y-18255D01*
Y-18258D01*
X44931Y-18283D01*
X44914Y-18302D01*
X44898Y-18322D01*
X44884Y-18336D01*
X44867Y-18349D01*
X44856Y-18358D01*
X44848Y-18363D01*
X44845Y-18366D01*
X44814Y-18380D01*
X44784Y-18388D01*
X44751Y-18397D01*
X44717Y-18399D01*
X44690Y-18402D01*
X44667Y-18405D01*
X44645D01*
X44584Y-18402D01*
X44554Y-18399D01*
X44526Y-18394D01*
X44501Y-18391D01*
X44481Y-18388D01*
X44470Y-18386D01*
X44465D01*
X44495Y-18177D01*
X44517Y-18180D01*
X44540Y-18183D01*
X44559D01*
X44573Y-18186D01*
X44601D01*
X44637Y-18183D01*
X44662Y-18177D01*
X44676Y-18172D01*
X44681Y-18169D01*
X44701Y-18155D01*
X44712Y-18141D01*
X44720Y-18130D01*
X44723Y-18125D01*
X44726Y-18111D01*
X44728Y-18091D01*
X44731Y-18047D01*
X44734Y-18027D01*
Y-18011D01*
Y-18000D01*
Y-17994D01*
Y-17175D01*
X44495D01*
Y-16992D01*
X44734D01*
Y-16506D01*
X44970Y-16648D01*
D02*
G37*
G36*
X34937Y-16964D02*
X34987Y-16970D01*
X35034Y-16978D01*
X35078Y-16992D01*
X35120Y-17006D01*
X35159Y-17022D01*
X35195Y-17039D01*
X35225Y-17059D01*
X35256Y-17075D01*
X35281Y-17095D01*
X35303Y-17111D01*
X35320Y-17125D01*
X35334Y-17139D01*
X35345Y-17147D01*
X35350Y-17153D01*
X35353Y-17156D01*
X35384Y-17195D01*
X35411Y-17236D01*
X35436Y-17278D01*
X35459Y-17322D01*
X35475Y-17369D01*
X35489Y-17414D01*
X35511Y-17503D01*
X35520Y-17542D01*
X35525Y-17580D01*
X35528Y-17614D01*
X35531Y-17644D01*
X35534Y-17669D01*
Y-17686D01*
Y-17700D01*
Y-17703D01*
X35531Y-17764D01*
X35525Y-17822D01*
X35517Y-17878D01*
X35506Y-17927D01*
X35492Y-17975D01*
X35478Y-18019D01*
X35461Y-18058D01*
X35445Y-18094D01*
X35428Y-18125D01*
X35411Y-18152D01*
X35398Y-18175D01*
X35384Y-18194D01*
X35373Y-18211D01*
X35364Y-18222D01*
X35359Y-18227D01*
X35356Y-18230D01*
X35320Y-18263D01*
X35284Y-18291D01*
X35245Y-18316D01*
X35203Y-18338D01*
X35164Y-18355D01*
X35123Y-18372D01*
X35045Y-18394D01*
X35009Y-18399D01*
X34976Y-18405D01*
X34945Y-18411D01*
X34920Y-18413D01*
X34901Y-18416D01*
X34870D01*
X34784Y-18411D01*
X34706Y-18397D01*
X34637Y-18380D01*
X34609Y-18369D01*
X34581Y-18358D01*
X34556Y-18347D01*
X34534Y-18336D01*
X34517Y-18327D01*
X34501Y-18319D01*
X34490Y-18311D01*
X34481Y-18305D01*
X34476Y-18300D01*
X34473D01*
X34418Y-18250D01*
X34373Y-18197D01*
X34334Y-18141D01*
X34306Y-18089D01*
X34284Y-18041D01*
X34276Y-18019D01*
X34268Y-18002D01*
X34262Y-17986D01*
X34259Y-17975D01*
X34257Y-17969D01*
Y-17966D01*
X34501Y-17936D01*
X34523Y-17989D01*
X34548Y-18033D01*
X34573Y-18072D01*
X34595Y-18102D01*
X34615Y-18125D01*
X34631Y-18141D01*
X34645Y-18152D01*
X34648Y-18155D01*
X34684Y-18177D01*
X34720Y-18194D01*
X34759Y-18205D01*
X34792Y-18213D01*
X34823Y-18219D01*
X34848Y-18222D01*
X34870D01*
X34903Y-18219D01*
X34934Y-18216D01*
X34989Y-18202D01*
X35039Y-18183D01*
X35084Y-18161D01*
X35117Y-18141D01*
X35142Y-18122D01*
X35159Y-18108D01*
X35162Y-18102D01*
X35164D01*
X35203Y-18052D01*
X35234Y-17997D01*
X35256Y-17936D01*
X35273Y-17880D01*
X35281Y-17830D01*
X35286Y-17808D01*
X35289Y-17789D01*
Y-17772D01*
X35292Y-17761D01*
Y-17753D01*
Y-17750D01*
X34251D01*
X34248Y-17722D01*
Y-17703D01*
Y-17692D01*
Y-17689D01*
X34251Y-17625D01*
X34257Y-17567D01*
X34265Y-17511D01*
X34276Y-17458D01*
X34290Y-17411D01*
X34304Y-17367D01*
X34320Y-17328D01*
X34337Y-17292D01*
X34354Y-17258D01*
X34370Y-17231D01*
X34384Y-17208D01*
X34398Y-17189D01*
X34409Y-17172D01*
X34418Y-17161D01*
X34423Y-17156D01*
X34426Y-17153D01*
X34459Y-17120D01*
X34495Y-17089D01*
X34534Y-17064D01*
X34573Y-17042D01*
X34612Y-17022D01*
X34648Y-17009D01*
X34687Y-16995D01*
X34720Y-16986D01*
X34756Y-16978D01*
X34787Y-16972D01*
X34815Y-16967D01*
X34837Y-16964D01*
X34856Y-16961D01*
X34884D01*
X34937Y-16964D01*
D02*
G37*
G36*
X49020Y-18386D02*
X48288D01*
X48221Y-18383D01*
X48163Y-18380D01*
X48110Y-18374D01*
X48065Y-18369D01*
X48029Y-18363D01*
X48002Y-18361D01*
X47985Y-18355D01*
X47979D01*
X47932Y-18341D01*
X47893Y-18327D01*
X47857Y-18311D01*
X47827Y-18294D01*
X47802Y-18283D01*
X47782Y-18272D01*
X47771Y-18263D01*
X47768Y-18261D01*
X47738Y-18236D01*
X47710Y-18205D01*
X47688Y-18175D01*
X47666Y-18147D01*
X47649Y-18119D01*
X47638Y-18100D01*
X47630Y-18086D01*
X47627Y-18080D01*
X47607Y-18036D01*
X47593Y-17991D01*
X47582Y-17950D01*
X47577Y-17911D01*
X47571Y-17878D01*
X47568Y-17850D01*
Y-17833D01*
Y-17830D01*
Y-17828D01*
X47571Y-17766D01*
X47582Y-17711D01*
X47599Y-17664D01*
X47616Y-17619D01*
X47632Y-17586D01*
X47649Y-17561D01*
X47660Y-17544D01*
X47663Y-17539D01*
X47702Y-17494D01*
X47743Y-17458D01*
X47791Y-17428D01*
X47832Y-17403D01*
X47871Y-17383D01*
X47904Y-17372D01*
X47916Y-17367D01*
X47924Y-17364D01*
X47929Y-17361D01*
X47932D01*
X47885Y-17333D01*
X47843Y-17306D01*
X47810Y-17275D01*
X47782Y-17247D01*
X47760Y-17225D01*
X47743Y-17203D01*
X47735Y-17192D01*
X47732Y-17186D01*
X47710Y-17145D01*
X47693Y-17106D01*
X47680Y-17067D01*
X47671Y-17031D01*
X47666Y-17000D01*
X47663Y-16975D01*
Y-16961D01*
Y-16956D01*
X47666Y-16909D01*
X47674Y-16861D01*
X47688Y-16820D01*
X47702Y-16781D01*
X47716Y-16748D01*
X47730Y-16725D01*
X47738Y-16709D01*
X47741Y-16703D01*
X47771Y-16662D01*
X47804Y-16623D01*
X47841Y-16592D01*
X47874Y-16567D01*
X47902Y-16548D01*
X47927Y-16534D01*
X47943Y-16525D01*
X47946Y-16523D01*
X47949D01*
X48002Y-16503D01*
X48060Y-16489D01*
X48118Y-16478D01*
X48174Y-16473D01*
X48224Y-16467D01*
X48246D01*
X48265Y-16464D01*
X49020D01*
Y-18386D01*
D02*
G37*
G36*
X39765Y-18386D02*
X38562D01*
Y-18158D01*
X39509D01*
Y-16464D01*
X39765D01*
Y-18386D01*
D02*
G37*
G36*
X33479Y-16964D02*
X33507Y-16970D01*
X33535Y-16978D01*
X33557Y-16986D01*
X33574Y-16995D01*
X33590Y-17003D01*
X33599Y-17009D01*
X33601Y-17011D01*
X33626Y-17034D01*
X33651Y-17061D01*
X33676Y-17095D01*
X33699Y-17125D01*
X33721Y-17156D01*
X33735Y-17181D01*
X33746Y-17200D01*
X33748Y-17203D01*
Y-16992D01*
X33962D01*
Y-18386D01*
X33726D01*
Y-17658D01*
X33723Y-17603D01*
X33721Y-17553D01*
X33715Y-17506D01*
X33707Y-17464D01*
X33699Y-17431D01*
X33693Y-17406D01*
X33690Y-17389D01*
X33687Y-17383D01*
X33676Y-17353D01*
X33662Y-17328D01*
X33649Y-17306D01*
X33635Y-17286D01*
X33621Y-17272D01*
X33612Y-17261D01*
X33604Y-17256D01*
X33601Y-17253D01*
X33579Y-17236D01*
X33554Y-17225D01*
X33529Y-17217D01*
X33510Y-17211D01*
X33490Y-17208D01*
X33476Y-17206D01*
X33463D01*
X33432Y-17208D01*
X33401Y-17214D01*
X33371Y-17222D01*
X33346Y-17231D01*
X33324Y-17239D01*
X33307Y-17247D01*
X33296Y-17253D01*
X33293Y-17256D01*
X33207Y-17039D01*
X33254Y-17014D01*
X33299Y-16995D01*
X33338Y-16981D01*
X33374Y-16970D01*
X33404Y-16964D01*
X33429Y-16961D01*
X33449D01*
X33479Y-16964D01*
D02*
G37*
G36*
X46733Y-16964D02*
X46777Y-16967D01*
X46863Y-16986D01*
X46938Y-17011D01*
X46972Y-17025D01*
X47002Y-17039D01*
X47030Y-17053D01*
X47052Y-17067D01*
X47074Y-17081D01*
X47091Y-17092D01*
X47105Y-17103D01*
X47116Y-17111D01*
X47122Y-17114D01*
X47124Y-17117D01*
X47163Y-17153D01*
X47194Y-17195D01*
X47224Y-17239D01*
X47246Y-17283D01*
X47269Y-17331D01*
X47285Y-17381D01*
X47299Y-17428D01*
X47310Y-17472D01*
X47321Y-17517D01*
X47327Y-17555D01*
X47333Y-17594D01*
X47335Y-17625D01*
Y-17653D01*
X47338Y-17672D01*
Y-17683D01*
Y-17689D01*
X47335Y-17753D01*
X47330Y-17814D01*
X47321Y-17869D01*
X47310Y-17922D01*
X47296Y-17969D01*
X47283Y-18014D01*
X47266Y-18055D01*
X47249Y-18091D01*
X47233Y-18125D01*
X47216Y-18152D01*
X47202Y-18175D01*
X47188Y-18194D01*
X47177Y-18211D01*
X47169Y-18222D01*
X47163Y-18227D01*
X47160Y-18230D01*
X47124Y-18263D01*
X47088Y-18291D01*
X47049Y-18316D01*
X47010Y-18338D01*
X46972Y-18355D01*
X46930Y-18372D01*
X46855Y-18394D01*
X46822Y-18399D01*
X46788Y-18405D01*
X46761Y-18411D01*
X46736Y-18413D01*
X46713Y-18416D01*
X46686D01*
X46619Y-18413D01*
X46558Y-18402D01*
X46500Y-18388D01*
X46452Y-18374D01*
X46411Y-18358D01*
X46394Y-18352D01*
X46380Y-18347D01*
X46366Y-18341D01*
X46358Y-18336D01*
X46355Y-18333D01*
X46353D01*
X46297Y-18297D01*
X46250Y-18258D01*
X46208Y-18219D01*
X46175Y-18180D01*
X46150Y-18147D01*
X46130Y-18119D01*
X46125Y-18108D01*
X46119Y-18100D01*
X46117Y-18097D01*
Y-18094D01*
X46089Y-18030D01*
X46069Y-17961D01*
X46053Y-17891D01*
X46044Y-17822D01*
X46039Y-17791D01*
Y-17764D01*
X46036Y-17736D01*
X46033Y-17714D01*
Y-17694D01*
Y-17680D01*
Y-17672D01*
Y-17669D01*
X46036Y-17608D01*
X46042Y-17553D01*
X46050Y-17500D01*
X46061Y-17450D01*
X46075Y-17403D01*
X46092Y-17361D01*
X46108Y-17319D01*
X46125Y-17286D01*
X46142Y-17256D01*
X46158Y-17228D01*
X46175Y-17203D01*
X46189Y-17183D01*
X46200Y-17170D01*
X46208Y-17158D01*
X46214Y-17153D01*
X46216Y-17150D01*
X46253Y-17117D01*
X46289Y-17089D01*
X46328Y-17061D01*
X46366Y-17042D01*
X46405Y-17022D01*
X46444Y-17009D01*
X46519Y-16984D01*
X46555Y-16978D01*
X46586Y-16972D01*
X46613Y-16967D01*
X46638Y-16964D01*
X46658Y-16961D01*
X46686D01*
X46733Y-16964D01*
D02*
G37*
G36*
X43746D02*
X43790Y-16967D01*
X43876Y-16986D01*
X43951Y-17011D01*
X43984Y-17025D01*
X44015Y-17039D01*
X44043Y-17053D01*
X44065Y-17067D01*
X44087Y-17081D01*
X44104Y-17092D01*
X44118Y-17103D01*
X44129Y-17111D01*
X44134Y-17114D01*
X44137Y-17117D01*
X44176Y-17153D01*
X44206Y-17195D01*
X44237Y-17239D01*
X44259Y-17283D01*
X44281Y-17331D01*
X44298Y-17381D01*
X44312Y-17428D01*
X44323Y-17472D01*
X44334Y-17517D01*
X44340Y-17555D01*
X44345Y-17594D01*
X44348Y-17625D01*
Y-17653D01*
X44351Y-17672D01*
Y-17683D01*
Y-17689D01*
X44348Y-17753D01*
X44343Y-17814D01*
X44334Y-17869D01*
X44323Y-17922D01*
X44309Y-17969D01*
X44295Y-18014D01*
X44279Y-18055D01*
X44262Y-18091D01*
X44245Y-18125D01*
X44229Y-18152D01*
X44215Y-18175D01*
X44201Y-18194D01*
X44190Y-18211D01*
X44181Y-18222D01*
X44176Y-18227D01*
X44173Y-18230D01*
X44137Y-18263D01*
X44101Y-18291D01*
X44062Y-18316D01*
X44023Y-18338D01*
X43984Y-18355D01*
X43943Y-18372D01*
X43868Y-18394D01*
X43834Y-18399D01*
X43801Y-18405D01*
X43773Y-18411D01*
X43748Y-18413D01*
X43726Y-18416D01*
X43698D01*
X43632Y-18413D01*
X43571Y-18402D01*
X43512Y-18388D01*
X43465Y-18374D01*
X43424Y-18358D01*
X43407Y-18352D01*
X43393Y-18347D01*
X43379Y-18341D01*
X43371Y-18336D01*
X43368Y-18333D01*
X43365D01*
X43310Y-18297D01*
X43263Y-18258D01*
X43221Y-18219D01*
X43188Y-18180D01*
X43163Y-18147D01*
X43143Y-18119D01*
X43138Y-18108D01*
X43132Y-18100D01*
X43129Y-18097D01*
Y-18094D01*
X43102Y-18030D01*
X43082Y-17961D01*
X43065Y-17891D01*
X43057Y-17822D01*
X43052Y-17791D01*
Y-17764D01*
X43049Y-17736D01*
X43046Y-17714D01*
Y-17694D01*
Y-17680D01*
Y-17672D01*
Y-17669D01*
X43049Y-17608D01*
X43054Y-17553D01*
X43063Y-17500D01*
X43074Y-17450D01*
X43088Y-17403D01*
X43104Y-17361D01*
X43121Y-17319D01*
X43138Y-17286D01*
X43154Y-17256D01*
X43171Y-17228D01*
X43188Y-17203D01*
X43201Y-17183D01*
X43213Y-17170D01*
X43221Y-17158D01*
X43226Y-17153D01*
X43229Y-17150D01*
X43265Y-17117D01*
X43301Y-17089D01*
X43340Y-17061D01*
X43379Y-17042D01*
X43418Y-17022D01*
X43457Y-17009D01*
X43532Y-16984D01*
X43568Y-16978D01*
X43598Y-16972D01*
X43626Y-16967D01*
X43651Y-16964D01*
X43671Y-16961D01*
X43698D01*
X43746Y-16964D01*
D02*
G37*
G36*
X6205Y-16437D02*
X6302Y-16451D01*
X6346Y-16459D01*
X6388Y-16470D01*
X6427Y-16478D01*
X6463Y-16489D01*
X6496Y-16501D01*
X6524Y-16512D01*
X6549Y-16523D01*
X6571Y-16531D01*
X6588Y-16539D01*
X6599Y-16545D01*
X6607Y-16548D01*
X6610Y-16550D01*
X6649Y-16575D01*
X6688Y-16600D01*
X6754Y-16659D01*
X6813Y-16717D01*
X6860Y-16778D01*
X6899Y-16831D01*
X6912Y-16853D01*
X6924Y-16875D01*
X6935Y-16892D01*
X6940Y-16903D01*
X6943Y-16911D01*
X6946Y-16914D01*
X6985Y-17006D01*
X7012Y-17097D01*
X7035Y-17186D01*
X7040Y-17228D01*
X7048Y-17267D01*
X7051Y-17303D01*
X7057Y-17333D01*
X7060Y-17364D01*
Y-17389D01*
X7062Y-17408D01*
Y-17422D01*
Y-17433D01*
Y-17436D01*
X7057Y-17539D01*
X7043Y-17636D01*
X7035Y-17680D01*
X7026Y-17722D01*
X7015Y-17764D01*
X7004Y-17800D01*
X6993Y-17833D01*
X6982Y-17861D01*
X6974Y-17889D01*
X6965Y-17908D01*
X6957Y-17927D01*
X6951Y-17939D01*
X6946Y-17947D01*
Y-17950D01*
X6896Y-18030D01*
X6840Y-18100D01*
X6782Y-18161D01*
X6726Y-18211D01*
X6674Y-18250D01*
X6654Y-18263D01*
X6635Y-18277D01*
X6618Y-18286D01*
X6607Y-18294D01*
X6599Y-18297D01*
X6596Y-18299D01*
X6552Y-18322D01*
X6507Y-18338D01*
X6418Y-18369D01*
X6332Y-18388D01*
X6252Y-18405D01*
X6216Y-18408D01*
X6182Y-18413D01*
X6152Y-18416D01*
X6127D01*
X6107Y-18419D01*
X6080D01*
X6002Y-18416D01*
X5927Y-18408D01*
X5857Y-18394D01*
X5796Y-18380D01*
X5771Y-18374D01*
X5746Y-18369D01*
X5724Y-18361D01*
X5705Y-18355D01*
X5691Y-18349D01*
X5680Y-18347D01*
X5674Y-18344D01*
X5671D01*
X5597Y-18313D01*
X5527Y-18277D01*
X5460Y-18238D01*
X5402Y-18202D01*
X5377Y-18186D01*
X5352Y-18169D01*
X5333Y-18155D01*
X5316Y-18144D01*
X5302Y-18133D01*
X5291Y-18125D01*
X5286Y-18122D01*
X5283Y-18119D01*
Y-17406D01*
X6099D01*
Y-17633D01*
X5533D01*
Y-17994D01*
X5566Y-18022D01*
X5605Y-18047D01*
X5647Y-18069D01*
X5685Y-18089D01*
X5719Y-18105D01*
X5749Y-18119D01*
X5760Y-18125D01*
X5766Y-18127D01*
X5771Y-18130D01*
X5774D01*
X5833Y-18150D01*
X5891Y-18166D01*
X5944Y-18177D01*
X5994Y-18183D01*
X6035Y-18188D01*
X6052D01*
X6068Y-18191D01*
X6096D01*
X6166Y-18188D01*
X6232Y-18177D01*
X6293Y-18163D01*
X6349Y-18150D01*
X6393Y-18133D01*
X6413Y-18127D01*
X6427Y-18122D01*
X6440Y-18116D01*
X6449Y-18111D01*
X6454Y-18108D01*
X6457D01*
X6515Y-18072D01*
X6568Y-18033D01*
X6613Y-17991D01*
X6649Y-17950D01*
X6679Y-17911D01*
X6699Y-17880D01*
X6707Y-17869D01*
X6710Y-17861D01*
X6715Y-17855D01*
Y-17853D01*
X6743Y-17783D01*
X6765Y-17711D01*
X6779Y-17639D01*
X6790Y-17569D01*
X6793Y-17539D01*
X6796Y-17511D01*
X6799Y-17483D01*
Y-17461D01*
X6801Y-17444D01*
Y-17431D01*
Y-17422D01*
Y-17419D01*
X6799Y-17342D01*
X6790Y-17272D01*
X6779Y-17206D01*
X6765Y-17147D01*
X6760Y-17122D01*
X6751Y-17100D01*
X6746Y-17081D01*
X6740Y-17064D01*
X6735Y-17050D01*
X6732Y-17042D01*
X6729Y-17036D01*
Y-17034D01*
X6710Y-16995D01*
X6690Y-16959D01*
X6671Y-16925D01*
X6651Y-16898D01*
X6635Y-16875D01*
X6621Y-16856D01*
X6610Y-16845D01*
X6607Y-16842D01*
X6577Y-16811D01*
X6543Y-16784D01*
X6507Y-16761D01*
X6474Y-16739D01*
X6446Y-16725D01*
X6424Y-16712D01*
X6407Y-16706D01*
X6402Y-16703D01*
X6352Y-16684D01*
X6302Y-16670D01*
X6249Y-16662D01*
X6202Y-16653D01*
X6160Y-16650D01*
X6143D01*
X6130Y-16648D01*
X6099D01*
X6046Y-16650D01*
X5996Y-16656D01*
X5952Y-16664D01*
X5913Y-16673D01*
X5880Y-16684D01*
X5855Y-16692D01*
X5841Y-16698D01*
X5835Y-16700D01*
X5794Y-16720D01*
X5758Y-16742D01*
X5724Y-16764D01*
X5699Y-16786D01*
X5680Y-16806D01*
X5663Y-16820D01*
X5655Y-16831D01*
X5652Y-16834D01*
X5627Y-16867D01*
X5608Y-16906D01*
X5588Y-16942D01*
X5572Y-16981D01*
X5560Y-17014D01*
X5552Y-17039D01*
X5549Y-17050D01*
X5547Y-17059D01*
X5544Y-17061D01*
Y-17064D01*
X5313Y-17003D01*
X5333Y-16934D01*
X5358Y-16873D01*
X5383Y-16817D01*
X5405Y-16773D01*
X5427Y-16736D01*
X5444Y-16712D01*
X5455Y-16695D01*
X5460Y-16689D01*
X5499Y-16645D01*
X5541Y-16609D01*
X5585Y-16575D01*
X5627Y-16548D01*
X5666Y-16528D01*
X5696Y-16512D01*
X5708Y-16506D01*
X5716Y-16503D01*
X5721Y-16501D01*
X5724D01*
X5788Y-16478D01*
X5855Y-16462D01*
X5916Y-16448D01*
X5974Y-16439D01*
X6027Y-16434D01*
X6049D01*
X6066Y-16431D01*
X6155D01*
X6205Y-16437D01*
D02*
G37*
G36*
X7706Y-18386D02*
X7437D01*
Y-18116D01*
X7706D01*
Y-18386D01*
D02*
G37*
G36*
X4919D02*
X4186D01*
X4120Y-18383D01*
X4061Y-18380D01*
X4009Y-18374D01*
X3964Y-18369D01*
X3928Y-18363D01*
X3900Y-18361D01*
X3884Y-18355D01*
X3878D01*
X3831Y-18341D01*
X3792Y-18327D01*
X3756Y-18311D01*
X3725Y-18294D01*
X3700Y-18283D01*
X3681Y-18272D01*
X3670Y-18263D01*
X3667Y-18261D01*
X3637Y-18236D01*
X3609Y-18205D01*
X3587Y-18175D01*
X3564Y-18147D01*
X3548Y-18119D01*
X3537Y-18100D01*
X3528Y-18086D01*
X3525Y-18080D01*
X3506Y-18036D01*
X3492Y-17991D01*
X3481Y-17950D01*
X3475Y-17911D01*
X3470Y-17878D01*
X3467Y-17850D01*
Y-17833D01*
Y-17830D01*
Y-17828D01*
X3470Y-17766D01*
X3481Y-17711D01*
X3498Y-17664D01*
X3514Y-17619D01*
X3531Y-17586D01*
X3548Y-17561D01*
X3559Y-17544D01*
X3562Y-17539D01*
X3600Y-17494D01*
X3642Y-17458D01*
X3689Y-17428D01*
X3731Y-17403D01*
X3770Y-17383D01*
X3803Y-17372D01*
X3814Y-17367D01*
X3823Y-17364D01*
X3828Y-17361D01*
X3831D01*
X3784Y-17333D01*
X3742Y-17306D01*
X3709Y-17275D01*
X3681Y-17247D01*
X3659Y-17225D01*
X3642Y-17203D01*
X3634Y-17192D01*
X3631Y-17186D01*
X3609Y-17145D01*
X3592Y-17106D01*
X3578Y-17067D01*
X3570Y-17031D01*
X3564Y-17000D01*
X3562Y-16975D01*
Y-16961D01*
Y-16956D01*
X3564Y-16909D01*
X3573Y-16861D01*
X3587Y-16820D01*
X3600Y-16781D01*
X3614Y-16748D01*
X3628Y-16725D01*
X3637Y-16709D01*
X3639Y-16703D01*
X3670Y-16662D01*
X3703Y-16623D01*
X3739Y-16592D01*
X3773Y-16567D01*
X3800Y-16548D01*
X3825Y-16534D01*
X3842Y-16525D01*
X3845Y-16523D01*
X3848D01*
X3900Y-16503D01*
X3959Y-16489D01*
X4017Y-16478D01*
X4072Y-16473D01*
X4122Y-16467D01*
X4145D01*
X4164Y-16464D01*
X4919D01*
Y-18386D01*
D02*
G37*
G36*
X3128D02*
X1926D01*
Y-18158D01*
X2873D01*
Y-16464D01*
X3128D01*
Y-18386D01*
D02*
G37*
%LPC*%
G36*
X2650Y46806D02*
X2525Y46781D01*
X2419Y46711D01*
X2349Y46605D01*
X2324Y46480D01*
X2349Y46355D01*
X2355Y46345D01*
X2311Y46225D01*
X2230D01*
Y45475D01*
X3170D01*
Y46225D01*
X2989D01*
X2945Y46345D01*
X2951Y46355D01*
X2976Y46480D01*
X2951Y46605D01*
X2881Y46711D01*
X2775Y46781D01*
X2650Y46806D01*
D02*
G37*
G36*
X1200Y46826D02*
X1075Y46801D01*
X969Y46731D01*
X899Y46625D01*
X874Y46500D01*
X899Y46375D01*
X919Y46345D01*
X891Y46225D01*
X730D01*
Y45475D01*
X1670D01*
Y46225D01*
X1509D01*
X1481Y46345D01*
X1501Y46375D01*
X1526Y46500D01*
X1501Y46625D01*
X1431Y46731D01*
X1325Y46801D01*
X1200Y46826D01*
D02*
G37*
G36*
X3170Y45325D02*
X2230D01*
Y45225D01*
X1670D01*
Y45325D01*
X730D01*
Y44575D01*
X1670D01*
Y44675D01*
X2230D01*
Y44575D01*
X3170D01*
Y44675D01*
X3451D01*
X3505Y44639D01*
X3630Y44614D01*
X3755Y44639D01*
X3861Y44709D01*
X3931Y44815D01*
X3956Y44940D01*
X3931Y45065D01*
X3861Y45171D01*
X3755Y45241D01*
X3630Y45266D01*
X3505Y45241D01*
X3481Y45225D01*
X3170D01*
Y45325D01*
D02*
G37*
G36*
X2696Y42447D02*
X606D01*
Y40357D01*
X2696D01*
Y42447D01*
D02*
G37*
G36*
X1651Y39916D02*
X1378Y39880D01*
X1124Y39775D01*
X906Y39607D01*
X738Y39389D01*
X633Y39135D01*
X597Y38862D01*
X633Y38589D01*
X738Y38335D01*
X906Y38117D01*
X1124Y37949D01*
X1378Y37844D01*
X1651Y37808D01*
X1924Y37844D01*
X2178Y37949D01*
X2396Y38117D01*
X2564Y38335D01*
X2669Y38589D01*
X2705Y38862D01*
X2669Y39135D01*
X2564Y39389D01*
X2396Y39607D01*
X2178Y39775D01*
X1924Y39880D01*
X1651Y39916D01*
D02*
G37*
G36*
X5021Y36655D02*
X4250D01*
X4144Y36634D01*
X4055Y36574D01*
X4055Y36574D01*
X3851Y36371D01*
X3805Y36361D01*
X3699Y36291D01*
X3629Y36185D01*
X3604Y36060D01*
X3629Y35935D01*
X3699Y35829D01*
X3805Y35759D01*
X3930Y35734D01*
X4055Y35759D01*
X4101Y35789D01*
X4221Y35725D01*
Y35530D01*
X4301D01*
Y34730D01*
X4221D01*
Y34530D01*
X5021D01*
X5821D01*
Y34730D01*
X5741D01*
Y35530D01*
X5821D01*
Y35730D01*
X5021D01*
Y36030D01*
X5821D01*
Y36230D01*
X5741D01*
Y36650D01*
X5048D01*
X5021Y36655D01*
D02*
G37*
G36*
X1651Y33428D02*
X976Y32754D01*
X1180Y32645D01*
X1411Y32575D01*
X1651Y32551D01*
X1891Y32575D01*
X2122Y32645D01*
X2326Y32754D01*
X1651Y33428D01*
D02*
G37*
G36*
X12205Y44650D02*
X11900D01*
Y44320D01*
X12205D01*
Y44650D01*
D02*
G37*
G36*
X15736Y44643D02*
X15187Y44094D01*
X15736Y43546D01*
X15751Y43565D01*
X15857Y43820D01*
X15893Y44094D01*
X15857Y44368D01*
X15751Y44624D01*
X15736Y44643D01*
D02*
G37*
G36*
X16891Y40093D02*
X16651Y40069D01*
X16420Y39999D01*
X16216Y39890D01*
X16891Y39216D01*
X17566Y39890D01*
X17362Y39999D01*
X17131Y40069D01*
X16891Y40093D01*
D02*
G37*
G36*
X15863Y39537D02*
X15754Y39333D01*
X15684Y39102D01*
X15660Y38862D01*
X15684Y38622D01*
X15754Y38391D01*
X15863Y38187D01*
X16537Y38862D01*
X15863Y39537D01*
D02*
G37*
G36*
X16891Y38508D02*
X16216Y37834D01*
X16420Y37725D01*
X16651Y37655D01*
X16891Y37631D01*
X17131Y37655D01*
X17362Y37725D01*
X17566Y37834D01*
X16891Y38508D01*
D02*
G37*
G36*
X13650Y29277D02*
X13506Y29249D01*
X13383Y29167D01*
X12533Y28317D01*
X12451Y28194D01*
X12423Y28050D01*
X12423Y28050D01*
Y27820D01*
X12410D01*
Y26520D01*
X13190D01*
Y27820D01*
X13190Y27820D01*
X13190D01*
X13190Y27820D01*
X13214Y27930D01*
X13917Y28633D01*
X13999Y28756D01*
X14027Y28900D01*
X13999Y29044D01*
X13917Y29167D01*
X13794Y29249D01*
X13650Y29277D01*
D02*
G37*
G36*
X14990Y25680D02*
X14210D01*
Y25563D01*
X14175Y25534D01*
X14090Y25505D01*
X13994Y25569D01*
X13850Y25597D01*
X13850Y25597D01*
X13410D01*
X13310Y25577D01*
X13208Y25640D01*
X13190Y25662D01*
Y25680D01*
X12410D01*
Y24380D01*
X13190D01*
Y24539D01*
X13220Y24653D01*
X13364Y24681D01*
X13487Y24763D01*
X13566Y24843D01*
X13694D01*
X13773Y24763D01*
X13773Y24763D01*
X13896Y24681D01*
X14040Y24653D01*
X14210D01*
Y24380D01*
X14990D01*
Y25680D01*
D02*
G37*
G36*
X16891Y22136D02*
X16618Y22100D01*
X16364Y21995D01*
X16146Y21827D01*
X15978Y21609D01*
X15873Y21355D01*
X15837Y21082D01*
X15873Y20809D01*
X15978Y20555D01*
X16146Y20337D01*
X16364Y20169D01*
X16618Y20064D01*
X16891Y20028D01*
X17164Y20064D01*
X17418Y20169D01*
X17636Y20337D01*
X17804Y20555D01*
X17909Y20809D01*
X17945Y21082D01*
X17909Y21355D01*
X17804Y21609D01*
X17636Y21827D01*
X17418Y21995D01*
X17164Y22100D01*
X16891Y22136D01*
D02*
G37*
G36*
Y19596D02*
X16618Y19560D01*
X16364Y19455D01*
X16146Y19287D01*
X15978Y19069D01*
X15873Y18815D01*
X15837Y18542D01*
X15873Y18269D01*
X15978Y18015D01*
X16146Y17797D01*
X16364Y17629D01*
X16618Y17524D01*
X16891Y17488D01*
X17164Y17524D01*
X17418Y17629D01*
X17636Y17797D01*
X17804Y18015D01*
X17909Y18269D01*
X17945Y18542D01*
X17909Y18815D01*
X17804Y19069D01*
X17636Y19287D01*
X17418Y19455D01*
X17164Y19560D01*
X16891Y19596D01*
D02*
G37*
G36*
Y17056D02*
X16618Y17020D01*
X16364Y16915D01*
X16146Y16747D01*
X15978Y16529D01*
X15873Y16275D01*
X15837Y16002D01*
X15873Y15729D01*
X15978Y15475D01*
X16146Y15257D01*
X16364Y15089D01*
X16618Y14984D01*
X16891Y14948D01*
X17164Y14984D01*
X17418Y15089D01*
X17636Y15257D01*
X17804Y15475D01*
X17909Y15729D01*
X17945Y16002D01*
X17909Y16275D01*
X17804Y16529D01*
X17636Y16747D01*
X17418Y16915D01*
X17164Y17020D01*
X16891Y17056D01*
D02*
G37*
G36*
Y14516D02*
X16618Y14480D01*
X16364Y14375D01*
X16146Y14207D01*
X15978Y13989D01*
X15873Y13735D01*
X15837Y13462D01*
X15873Y13189D01*
X15978Y12935D01*
X16146Y12717D01*
X16364Y12549D01*
X16618Y12444D01*
X16891Y12408D01*
X17164Y12444D01*
X17418Y12549D01*
X17636Y12717D01*
X17804Y12935D01*
X17909Y13189D01*
X17945Y13462D01*
X17909Y13735D01*
X17804Y13989D01*
X17636Y14207D01*
X17418Y14375D01*
X17164Y14480D01*
X16891Y14516D01*
D02*
G37*
G36*
X11900Y17600D02*
X11400D01*
Y16850D01*
X11900D01*
Y17600D01*
D02*
G37*
G36*
X11100D02*
X10600D01*
Y16850D01*
X11100D01*
Y17600D01*
D02*
G37*
G36*
X10000Y17080D02*
Y16750D01*
X10305D01*
Y17080D01*
X10000D01*
D02*
G37*
G36*
X10305Y16450D02*
X10000D01*
Y16120D01*
X10305D01*
Y16450D01*
D02*
G37*
G36*
X6727Y17080D02*
X6710Y17080D01*
X6422D01*
Y16600D01*
Y16120D01*
X6710D01*
X6727Y16120D01*
X6814Y16200D01*
X6847Y16200D01*
X7547D01*
Y16325D01*
X8575D01*
Y16200D01*
X8675D01*
Y15790D01*
X8693Y15699D01*
X8683Y15667D01*
X8622Y15579D01*
X8493D01*
Y14704D01*
X9293D01*
Y15450D01*
X9321Y15469D01*
X9391Y15575D01*
X9416Y15700D01*
X9391Y15825D01*
X9321Y15931D01*
X9225Y15994D01*
Y16115D01*
X9345Y16166D01*
X9395Y16120D01*
X9412Y16120D01*
X9700D01*
Y16600D01*
Y17080D01*
X9412D01*
X9395Y17080D01*
X9308Y17000D01*
X9275Y17000D01*
X8575D01*
Y16875D01*
X7547D01*
Y17000D01*
X6814Y17000D01*
X6727Y17080D01*
D02*
G37*
G36*
X11900Y16550D02*
X11400D01*
Y15800D01*
X11900D01*
Y16550D01*
D02*
G37*
G36*
X11100D02*
X10600D01*
Y15800D01*
X11100D01*
Y16550D01*
D02*
G37*
G36*
X8193Y15579D02*
X7393D01*
Y14704D01*
X8193D01*
Y15579D01*
D02*
G37*
G36*
X9293Y14404D02*
X8493D01*
Y13529D01*
X9293D01*
Y14404D01*
D02*
G37*
G36*
X8193D02*
X7393D01*
Y13529D01*
X8193D01*
Y14404D01*
D02*
G37*
G36*
X1651Y14516D02*
X1378Y14480D01*
X1124Y14375D01*
X906Y14207D01*
X738Y13989D01*
X633Y13735D01*
X597Y13462D01*
X633Y13189D01*
X738Y12935D01*
X906Y12717D01*
X1124Y12549D01*
X1378Y12444D01*
X1651Y12408D01*
X1924Y12444D01*
X2178Y12549D01*
X2396Y12717D01*
X2564Y12935D01*
X2669Y13189D01*
X2705Y13462D01*
X2669Y13735D01*
X2564Y13989D01*
X2396Y14207D01*
X2178Y14375D01*
X1924Y14480D01*
X1651Y14516D01*
D02*
G37*
G36*
X6400Y9104D02*
X5900D01*
Y8354D01*
X6400D01*
Y9104D01*
D02*
G37*
G36*
X5600D02*
X5100D01*
Y8354D01*
X5600D01*
Y9104D01*
D02*
G37*
G36*
X1651Y9436D02*
X1378Y9400D01*
X1124Y9295D01*
X906Y9127D01*
X738Y8909D01*
X633Y8655D01*
X597Y8382D01*
X633Y8109D01*
X738Y7855D01*
X906Y7637D01*
X1124Y7469D01*
X1378Y7364D01*
X1651Y7328D01*
X1924Y7364D01*
X2178Y7469D01*
X2396Y7637D01*
X2564Y7855D01*
X2669Y8109D01*
X2705Y8382D01*
X2669Y8655D01*
X2564Y8909D01*
X2396Y9127D01*
X2178Y9295D01*
X1924Y9400D01*
X1651Y9436D01*
D02*
G37*
G36*
Y6896D02*
X1378Y6860D01*
X1124Y6755D01*
X906Y6587D01*
X738Y6369D01*
X633Y6115D01*
X597Y5842D01*
X633Y5569D01*
X738Y5315D01*
X906Y5097D01*
X1124Y4929D01*
X1378Y4824D01*
X1651Y4788D01*
X1924Y4824D01*
X2178Y4929D01*
X2396Y5097D01*
X2564Y5315D01*
X2669Y5569D01*
X2705Y5842D01*
X2669Y6115D01*
X2564Y6369D01*
X2396Y6587D01*
X2178Y6755D01*
X1924Y6860D01*
X1651Y6896D01*
D02*
G37*
G36*
X11475Y4970D02*
X10725D01*
Y4030D01*
X11475D01*
Y4225D01*
X11686D01*
X11755Y4179D01*
X11880Y4154D01*
X12005Y4179D01*
X12111Y4249D01*
X12181Y4355D01*
X12206Y4480D01*
X12181Y4605D01*
X12111Y4711D01*
X12005Y4781D01*
X11880Y4806D01*
X11755Y4781D01*
X11746Y4775D01*
X11475D01*
Y4970D01*
D02*
G37*
G36*
X10000Y3850D02*
X9250D01*
Y3300D01*
X10000D01*
Y3850D01*
D02*
G37*
G36*
X8950D02*
X8200D01*
Y3300D01*
X8950D01*
Y3850D01*
D02*
G37*
G36*
X6371Y3025D02*
X6066D01*
Y2625D01*
X6371D01*
Y3025D01*
D02*
G37*
G36*
X10000Y3000D02*
X9250D01*
Y2450D01*
X10000D01*
Y3000D01*
D02*
G37*
G36*
X8950D02*
X8200D01*
Y2450D01*
X8950D01*
Y3000D01*
D02*
G37*
G36*
X6371Y2325D02*
X6066D01*
Y1925D01*
X6371D01*
Y2325D01*
D02*
G37*
G36*
X1730Y2697D02*
X1586Y2669D01*
X1463Y2587D01*
X1381Y2464D01*
X1353Y2320D01*
X1381Y2176D01*
X1463Y2053D01*
X1875Y1641D01*
Y1330D01*
X2625D01*
Y1789D01*
X2627Y1800D01*
X2625Y1811D01*
Y2270D01*
X2314D01*
X1997Y2587D01*
X1874Y2669D01*
X1730Y2697D01*
D02*
G37*
G36*
X3525Y2270D02*
X2775D01*
Y1330D01*
X2778D01*
X2808Y1294D01*
X2854Y1210D01*
X2834Y1110D01*
X2859Y985D01*
X2929Y879D01*
X3035Y809D01*
X3160Y784D01*
X3285Y809D01*
X3391Y879D01*
X3461Y985D01*
X3486Y1110D01*
X3466Y1210D01*
X3525Y1330D01*
X3525D01*
Y2270D01*
D02*
G37*
G36*
X37402Y-17686D02*
X37399D01*
X37402Y-17775D01*
X37405Y-17830D01*
X37408Y-17878D01*
X37413Y-17916D01*
X37421Y-17950D01*
X37430Y-17975D01*
X37435Y-17994D01*
X37438Y-18005D01*
X37441Y-18008D01*
X37463Y-18044D01*
X37485Y-18077D01*
X37513Y-18105D01*
X37538Y-18127D01*
X37560Y-18147D01*
X37580Y-18161D01*
X37591Y-18169D01*
X37596Y-18172D01*
X37638Y-18191D01*
X37680Y-18205D01*
X37718Y-18216D01*
X37757Y-18222D01*
X37788Y-18227D01*
X37816Y-18230D01*
X37838D01*
X37888Y-18227D01*
X37929Y-18222D01*
X37966Y-18211D01*
X37996Y-18200D01*
X38018Y-18188D01*
X38035Y-18177D01*
X38046Y-18172D01*
X38049Y-18169D01*
X38071Y-18144D01*
X38088Y-18116D01*
X38102Y-18091D01*
X38110Y-18066D01*
X38115Y-18044D01*
X38118Y-18027D01*
Y-18014D01*
Y-18011D01*
X38115Y-17989D01*
X38113Y-17966D01*
X38107Y-17950D01*
X38102Y-17933D01*
X38096Y-17919D01*
X38093Y-17908D01*
X38088Y-17903D01*
Y-17900D01*
X38060Y-17866D01*
X38027Y-17844D01*
X38016Y-17836D01*
X38004Y-17830D01*
X37996Y-17825D01*
X37993D01*
X37966Y-17814D01*
X37935Y-17805D01*
X37902Y-17797D01*
X37868Y-17791D01*
X37838Y-17786D01*
X37810Y-17780D01*
X37793Y-17778D01*
X37788D01*
X37741Y-17769D01*
X37696Y-17764D01*
X37657Y-17755D01*
X37619Y-17747D01*
X37582Y-17739D01*
X37552Y-17730D01*
X37521Y-17725D01*
X37496Y-17716D01*
X37474Y-17711D01*
X37455Y-17705D01*
X37438Y-17700D01*
X37424Y-17694D01*
X37413Y-17692D01*
X37405Y-17689D01*
X37402Y-17686D01*
D02*
G37*
G36*
X34898Y-17156D02*
X34881D01*
X34848Y-17158D01*
X34817Y-17161D01*
X34759Y-17178D01*
X34709Y-17200D01*
X34667Y-17225D01*
X34634Y-17250D01*
X34609Y-17272D01*
X34595Y-17289D01*
X34590Y-17292D01*
Y-17295D01*
X34565Y-17331D01*
X34542Y-17372D01*
X34529Y-17414D01*
X34515Y-17458D01*
X34506Y-17494D01*
X34501Y-17528D01*
Y-17539D01*
X34498Y-17547D01*
Y-17553D01*
Y-17555D01*
X35278D01*
X35270Y-17492D01*
X35253Y-17433D01*
X35234Y-17383D01*
X35212Y-17344D01*
X35192Y-17311D01*
X35173Y-17286D01*
X35162Y-17272D01*
X35156Y-17267D01*
X35112Y-17231D01*
X35067Y-17203D01*
X35020Y-17183D01*
X34976Y-17170D01*
X34939Y-17161D01*
X34909Y-17158D01*
X34898Y-17156D01*
D02*
G37*
G36*
X48765Y-16692D02*
X48310D01*
X48249Y-16698D01*
X48201Y-16700D01*
X48160Y-16706D01*
X48129Y-16712D01*
X48110Y-16714D01*
X48096Y-16720D01*
X48093D01*
X48063Y-16731D01*
X48035Y-16748D01*
X48013Y-16764D01*
X47993Y-16781D01*
X47979Y-16795D01*
X47968Y-16809D01*
X47963Y-16817D01*
X47960Y-16820D01*
X47943Y-16848D01*
X47932Y-16875D01*
X47924Y-16903D01*
X47918Y-16931D01*
X47916Y-16953D01*
X47913Y-16970D01*
Y-16981D01*
Y-16986D01*
X47916Y-17022D01*
X47921Y-17056D01*
X47929Y-17084D01*
X47938Y-17106D01*
X47946Y-17125D01*
X47954Y-17142D01*
X47960Y-17150D01*
X47963Y-17153D01*
X47982Y-17175D01*
X48007Y-17197D01*
X48032Y-17214D01*
X48054Y-17225D01*
X48077Y-17236D01*
X48093Y-17245D01*
X48104Y-17247D01*
X48110Y-17250D01*
X48140Y-17256D01*
X48179Y-17261D01*
X48218Y-17264D01*
X48257Y-17267D01*
X48293Y-17270D01*
X48765D01*
Y-16692D01*
D02*
G37*
G36*
Y-17497D02*
X48260D01*
X48201Y-17503D01*
X48154Y-17508D01*
X48115Y-17514D01*
X48085Y-17519D01*
X48060Y-17525D01*
X48049Y-17528D01*
X48043Y-17530D01*
X48007Y-17544D01*
X47977Y-17561D01*
X47949Y-17580D01*
X47927Y-17600D01*
X47910Y-17617D01*
X47899Y-17630D01*
X47891Y-17642D01*
X47888Y-17644D01*
X47868Y-17675D01*
X47854Y-17705D01*
X47843Y-17736D01*
X47838Y-17764D01*
X47832Y-17789D01*
X47829Y-17811D01*
Y-17822D01*
Y-17828D01*
X47832Y-17861D01*
X47835Y-17894D01*
X47841Y-17922D01*
X47849Y-17944D01*
X47857Y-17964D01*
X47863Y-17980D01*
X47866Y-17989D01*
X47868Y-17991D01*
X47885Y-18016D01*
X47899Y-18039D01*
X47918Y-18055D01*
X47932Y-18072D01*
X47946Y-18083D01*
X47957Y-18091D01*
X47965Y-18097D01*
X47968Y-18100D01*
X48015Y-18122D01*
X48063Y-18138D01*
X48082Y-18144D01*
X48099Y-18147D01*
X48110Y-18150D01*
X48113D01*
X48135Y-18152D01*
X48160Y-18155D01*
X48218Y-18158D01*
X48765D01*
Y-17497D01*
D02*
G37*
G36*
X46702Y-17156D02*
X46686D01*
X46652Y-17158D01*
X46622Y-17161D01*
X46566Y-17175D01*
X46516Y-17197D01*
X46475Y-17222D01*
X46441Y-17247D01*
X46416Y-17267D01*
X46400Y-17283D01*
X46394Y-17286D01*
Y-17289D01*
X46372Y-17314D01*
X46355Y-17344D01*
X46325Y-17406D01*
X46303Y-17472D01*
X46289Y-17533D01*
X46280Y-17592D01*
X46278Y-17617D01*
Y-17639D01*
X46275Y-17655D01*
Y-17669D01*
Y-17678D01*
Y-17680D01*
Y-17730D01*
X46280Y-17778D01*
X46286Y-17819D01*
X46294Y-17861D01*
X46303Y-17897D01*
X46314Y-17930D01*
X46322Y-17961D01*
X46333Y-17989D01*
X46344Y-18011D01*
X46355Y-18033D01*
X46366Y-18050D01*
X46375Y-18064D01*
X46383Y-18075D01*
X46389Y-18083D01*
X46391Y-18086D01*
X46394Y-18089D01*
X46416Y-18111D01*
X46441Y-18133D01*
X46489Y-18166D01*
X46539Y-18188D01*
X46583Y-18205D01*
X46625Y-18213D01*
X46655Y-18219D01*
X46669Y-18222D01*
X46686D01*
X46719Y-18219D01*
X46750Y-18216D01*
X46808Y-18202D01*
X46858Y-18180D01*
X46899Y-18155D01*
X46933Y-18133D01*
X46958Y-18111D01*
X46974Y-18097D01*
X46977Y-18091D01*
X46980D01*
X46999Y-18064D01*
X47019Y-18036D01*
X47047Y-17972D01*
X47069Y-17905D01*
X47083Y-17839D01*
X47091Y-17780D01*
X47094Y-17755D01*
Y-17733D01*
X47097Y-17714D01*
Y-17700D01*
Y-17692D01*
Y-17689D01*
X47094Y-17642D01*
X47091Y-17594D01*
X47085Y-17553D01*
X47077Y-17514D01*
X47069Y-17478D01*
X47060Y-17444D01*
X47049Y-17417D01*
X47038Y-17389D01*
X47027Y-17367D01*
X47016Y-17344D01*
X47008Y-17328D01*
X46999Y-17314D01*
X46991Y-17303D01*
X46985Y-17295D01*
X46980Y-17292D01*
Y-17289D01*
X46958Y-17267D01*
X46933Y-17245D01*
X46886Y-17211D01*
X46836Y-17189D01*
X46788Y-17172D01*
X46747Y-17161D01*
X46716Y-17158D01*
X46702Y-17156D01*
D02*
G37*
G36*
X43715D02*
X43698D01*
X43665Y-17158D01*
X43635Y-17161D01*
X43579Y-17175D01*
X43529Y-17197D01*
X43487Y-17222D01*
X43454Y-17247D01*
X43429Y-17267D01*
X43412Y-17283D01*
X43407Y-17286D01*
Y-17289D01*
X43385Y-17314D01*
X43368Y-17344D01*
X43338Y-17406D01*
X43315Y-17472D01*
X43301Y-17533D01*
X43293Y-17592D01*
X43290Y-17617D01*
Y-17639D01*
X43288Y-17655D01*
Y-17669D01*
Y-17678D01*
Y-17680D01*
Y-17730D01*
X43293Y-17778D01*
X43299Y-17819D01*
X43307Y-17861D01*
X43315Y-17897D01*
X43326Y-17930D01*
X43335Y-17961D01*
X43346Y-17989D01*
X43357Y-18011D01*
X43368Y-18033D01*
X43379Y-18050D01*
X43388Y-18064D01*
X43396Y-18075D01*
X43401Y-18083D01*
X43404Y-18086D01*
X43407Y-18089D01*
X43429Y-18111D01*
X43454Y-18133D01*
X43501Y-18166D01*
X43551Y-18188D01*
X43596Y-18205D01*
X43637Y-18213D01*
X43668Y-18219D01*
X43682Y-18222D01*
X43698D01*
X43732Y-18219D01*
X43762Y-18216D01*
X43821Y-18202D01*
X43871Y-18180D01*
X43912Y-18155D01*
X43946Y-18133D01*
X43971Y-18111D01*
X43987Y-18097D01*
X43990Y-18091D01*
X43993D01*
X44012Y-18064D01*
X44032Y-18036D01*
X44059Y-17972D01*
X44082Y-17905D01*
X44095Y-17839D01*
X44104Y-17780D01*
X44107Y-17755D01*
Y-17733D01*
X44109Y-17714D01*
Y-17700D01*
Y-17692D01*
Y-17689D01*
X44107Y-17642D01*
X44104Y-17594D01*
X44098Y-17553D01*
X44090Y-17514D01*
X44082Y-17478D01*
X44073Y-17444D01*
X44062Y-17417D01*
X44051Y-17389D01*
X44040Y-17367D01*
X44029Y-17344D01*
X44020Y-17328D01*
X44012Y-17314D01*
X44004Y-17303D01*
X43998Y-17295D01*
X43993Y-17292D01*
Y-17289D01*
X43971Y-17267D01*
X43946Y-17245D01*
X43898Y-17211D01*
X43848Y-17189D01*
X43801Y-17172D01*
X43760Y-17161D01*
X43729Y-17158D01*
X43715Y-17156D01*
D02*
G37*
G36*
X4664Y-16692D02*
X4208D01*
X4147Y-16698D01*
X4100Y-16700D01*
X4058Y-16706D01*
X4028Y-16712D01*
X4009Y-16714D01*
X3995Y-16720D01*
X3992D01*
X3961Y-16731D01*
X3934Y-16748D01*
X3911Y-16764D01*
X3892Y-16781D01*
X3878Y-16795D01*
X3867Y-16809D01*
X3861Y-16817D01*
X3859Y-16820D01*
X3842Y-16848D01*
X3831Y-16875D01*
X3823Y-16903D01*
X3817Y-16931D01*
X3814Y-16953D01*
X3811Y-16970D01*
Y-16981D01*
Y-16986D01*
X3814Y-17022D01*
X3820Y-17056D01*
X3828Y-17084D01*
X3836Y-17106D01*
X3845Y-17125D01*
X3853Y-17142D01*
X3859Y-17150D01*
X3861Y-17153D01*
X3881Y-17175D01*
X3906Y-17197D01*
X3931Y-17214D01*
X3953Y-17225D01*
X3975Y-17236D01*
X3992Y-17245D01*
X4003Y-17247D01*
X4009Y-17250D01*
X4039Y-17256D01*
X4078Y-17261D01*
X4117Y-17264D01*
X4156Y-17267D01*
X4192Y-17270D01*
X4664D01*
Y-16692D01*
D02*
G37*
G36*
Y-17497D02*
X4158D01*
X4100Y-17503D01*
X4053Y-17508D01*
X4014Y-17514D01*
X3984Y-17519D01*
X3959Y-17525D01*
X3947Y-17528D01*
X3942Y-17530D01*
X3906Y-17544D01*
X3875Y-17561D01*
X3848Y-17580D01*
X3825Y-17600D01*
X3809Y-17617D01*
X3798Y-17630D01*
X3789Y-17642D01*
X3786Y-17644D01*
X3767Y-17675D01*
X3753Y-17705D01*
X3742Y-17736D01*
X3736Y-17764D01*
X3731Y-17789D01*
X3728Y-17811D01*
Y-17822D01*
Y-17828D01*
X3731Y-17861D01*
X3734Y-17894D01*
X3739Y-17922D01*
X3748Y-17944D01*
X3756Y-17964D01*
X3761Y-17980D01*
X3764Y-17989D01*
X3767Y-17991D01*
X3784Y-18016D01*
X3798Y-18039D01*
X3817Y-18055D01*
X3831Y-18072D01*
X3845Y-18083D01*
X3856Y-18091D01*
X3864Y-18097D01*
X3867Y-18100D01*
X3914Y-18122D01*
X3961Y-18138D01*
X3981Y-18144D01*
X3997Y-18147D01*
X4009Y-18150D01*
X4011D01*
X4034Y-18152D01*
X4058Y-18155D01*
X4117Y-18158D01*
X4664D01*
Y-17497D01*
D02*
G37*
%LPD*%
D10*
X5570Y10230D02*
X6300Y10960D01*
Y14930D01*
X5560Y15670D02*
X6300Y14930D01*
X5560Y15670D02*
Y19337D01*
X6073Y19850D01*
X6420D01*
X6790Y20220D01*
Y21050D01*
X9021Y37880D02*
Y39428D01*
X6420Y42029D02*
Y42340D01*
Y42029D02*
X9021Y39428D01*
X5440Y42670D02*
X8021Y40089D01*
Y37880D02*
Y40089D01*
X3270Y20030D02*
X4280D01*
X3260Y20040D02*
X3270Y20030D01*
X4129Y20280D02*
X5419Y21570D01*
X3557Y20280D02*
X4129D01*
X4280Y20030D02*
X4460Y20210D01*
X1651Y21082D02*
X2313Y20420D01*
X3417D01*
X2940Y21403D02*
X3763Y20580D01*
X1970Y22410D02*
X2940Y21440D01*
Y21403D02*
Y21440D01*
X3763Y20580D02*
X4089D01*
X5319Y21810D01*
X3417Y20420D02*
X3557Y20280D01*
X2850Y19259D02*
Y19700D01*
Y19259D02*
X3230Y18879D01*
Y18249D02*
Y18879D01*
X2990Y18150D02*
Y18780D01*
X2330Y19440D02*
Y19760D01*
Y19440D02*
X2990Y18780D01*
X4130Y20960D02*
X5220Y22050D01*
X3920Y20960D02*
X4130D01*
X4460Y20210D02*
X6070D01*
X4563Y22530D02*
X8264D01*
X3813Y21780D02*
X4563Y22530D01*
X3713Y22020D02*
X4463Y22770D01*
X3239Y22020D02*
X3713D01*
X2750Y22509D02*
X3239Y22020D01*
X4308Y21580D02*
X5018Y22290D01*
X3140Y21780D02*
X3813D01*
X2370Y22550D02*
X3140Y21780D01*
X4150Y21580D02*
X4308D01*
X5018Y22290D02*
X7967D01*
X4463Y22770D02*
X8562D01*
X5419Y21570D02*
X7669D01*
X5319Y21810D02*
X7768D01*
X5220Y22050D02*
X7868D01*
X1835Y23622D02*
X2008D01*
X2750Y22509D02*
Y22707D01*
X1835Y23622D02*
X2750Y22707D01*
X1651Y23622D02*
X1835D01*
X4350Y27307D02*
Y27750D01*
X3830Y28270D02*
X4350Y27750D01*
X3830Y28270D02*
Y31470D01*
X3730Y26687D02*
X4350Y27307D01*
X3730Y26373D02*
Y26687D01*
Y26373D02*
X7063Y23040D01*
X5440Y42670D02*
Y47110D01*
X11143Y13229D02*
X11599D01*
X11880Y13510D01*
X7330Y11210D02*
X9730D01*
X7320Y11200D02*
X7330Y11210D01*
X3700Y33039D02*
X4040Y33380D01*
X3700Y31600D02*
X3830Y31470D01*
X3700Y31600D02*
Y33039D01*
X14230Y13950D02*
Y14950D01*
X13790Y13510D02*
X14230Y13950D01*
X11880Y13510D02*
X13790D01*
X15420Y15370D02*
Y15660D01*
X15270Y15810D02*
X15420Y15660D01*
X15270Y15810D02*
Y17236D01*
X11888Y23520D02*
X13697Y21711D01*
Y19522D02*
Y21711D01*
Y19522D02*
X15109Y18110D01*
X11789Y23280D02*
X13457Y21611D01*
Y19388D02*
Y21611D01*
Y19388D02*
X15696Y17150D01*
X11689Y23040D02*
X13217Y21512D01*
Y19289D02*
Y21512D01*
Y19289D02*
X15270Y17236D01*
X9820Y22020D02*
X10230Y22430D01*
X11960D02*
X12977Y21413D01*
Y19189D02*
Y21413D01*
Y19189D02*
X15030Y17137D01*
Y12330D02*
Y17137D01*
X15696Y17150D02*
X15720D01*
X15109Y18110D02*
X15330D01*
X7315Y23520D02*
X11888D01*
X6730Y24105D02*
X7315Y23520D01*
X7200Y23280D02*
X11789D01*
X4110Y26370D02*
X7200Y23280D01*
X7063Y23040D02*
X11689D01*
X3630Y17020D02*
Y17510D01*
Y17020D02*
X3720Y16930D01*
X7700Y24550D02*
X7720D01*
X7360Y24890D02*
X7700Y24550D01*
X7360Y24890D02*
Y26133D01*
X7259Y28070D02*
X7790Y27539D01*
X6260Y28070D02*
X7259D01*
X6020Y28310D02*
X6260Y28070D01*
X6020Y28310D02*
Y31260D01*
X7790Y26563D02*
Y27539D01*
X7521Y32761D02*
Y37880D01*
X6020Y31260D02*
X7521Y32761D01*
X5440Y47110D02*
X6680Y48350D01*
X6800D01*
X4530Y14410D02*
X5831D01*
X1651Y11531D02*
X4530Y14410D01*
X1651Y10922D02*
Y11531D01*
X2366Y15287D02*
X5097D01*
X1651Y16002D02*
X2366Y15287D01*
X8264Y22530D02*
X8947Y21847D01*
X10602Y21460D02*
X11071Y21929D01*
X11590Y21220D02*
X11890Y21520D01*
X12326Y20980D02*
X12588Y21242D01*
X12100Y20740D02*
X12553Y20287D01*
X1300Y22410D02*
X1970D01*
X546Y23164D02*
X1300Y22410D01*
X546Y23164D02*
Y27597D01*
X1651Y28702D01*
X3230Y18249D02*
X4010Y17469D01*
X2990Y18150D02*
X3630Y17510D01*
X6070Y20210D02*
X6110Y20250D01*
X3402Y31242D02*
X3420Y31260D01*
X1651Y31242D02*
X3402D01*
X14850Y22990D02*
X16259D01*
X16891Y23622D01*
X14960Y22470D02*
Y22500D01*
X14977Y22517D01*
X17349D01*
X17996Y23164D01*
Y25057D01*
X16891Y26162D02*
X17996Y25057D01*
X8698Y21220D02*
X11590D01*
X8797Y21460D02*
X10602D01*
X7868Y22050D02*
X8698Y21220D01*
X7967Y22290D02*
X8797Y21460D01*
X7768Y21810D02*
X8598Y20980D01*
X12326D01*
X7669Y21570D02*
X8499Y20740D01*
X12100D01*
X10220Y21700D02*
X10530Y22010D01*
X8562Y22770D02*
X9632Y21700D01*
X10220D01*
X9820Y22020D02*
Y22090D01*
X10230Y22430D02*
X11960D01*
X4040Y33380D02*
X5021D01*
X1651Y35769D02*
X4040Y33380D01*
X1651Y35769D02*
Y36322D01*
X6200Y19500D02*
X6230Y19470D01*
X5800Y15769D02*
Y19040D01*
Y15769D02*
X6540Y15029D01*
Y11980D02*
Y15029D01*
Y11980D02*
X7320Y11200D01*
X5800Y19040D02*
X6230Y19470D01*
X15030Y12330D02*
X15740Y11620D01*
Y4980D02*
Y11620D01*
Y4980D02*
X16100Y4620D01*
Y3500D02*
Y4620D01*
X4110Y26370D02*
Y26530D01*
X6730Y24105D02*
Y26040D01*
X7410Y26720D01*
X7360Y26133D02*
X7790Y26563D01*
X1651Y36322D02*
X2829Y37500D01*
X4270D01*
X14900Y38313D02*
Y38590D01*
Y38313D02*
X16891Y36322D01*
D15*
X0Y0D02*
X18540D01*
Y50290D01*
X0D02*
X18540D01*
X0Y0D02*
Y50290D01*
D26*
X10050Y46800D02*
D03*
X9100D02*
D03*
X8150D02*
D03*
Y49000D02*
D03*
X10050D02*
D03*
D48*
X10300Y5842D02*
D03*
X11400D02*
D03*
X16100Y3500D02*
D03*
Y2400D02*
D03*
X17500Y3500D02*
D03*
Y2400D02*
D03*
D49*
X6800Y48350D02*
D03*
Y47450D02*
D03*
X2700Y44950D02*
D03*
Y45850D02*
D03*
X1200Y44950D02*
D03*
Y45850D02*
D03*
D50*
X9100Y1250D02*
D03*
Y3150D02*
D03*
X11300Y2200D02*
D03*
D62*
X11710Y40510D02*
D03*
Y42650D02*
D03*
X14600Y25030D02*
D03*
Y27170D02*
D03*
X12800Y25030D02*
D03*
Y27170D02*
D03*
D66*
X13100Y46950D02*
D03*
Y46050D02*
D03*
D67*
X7421Y2475D02*
D03*
X6521D02*
D03*
X7421Y1250D02*
D03*
X6521D02*
D03*
X3150Y1800D02*
D03*
X2250D02*
D03*
X6571Y39400D02*
D03*
X7471D02*
D03*
X11100Y4500D02*
D03*
X10200D02*
D03*
D68*
X11750Y44800D02*
D03*
X10850D02*
D03*
X9350Y24600D02*
D03*
X8450D02*
D03*
X10350D02*
D03*
X11250D02*
D03*
X9850Y16600D02*
D03*
X8950D02*
D03*
X7172D02*
D03*
X6272D02*
D03*
D69*
X8520Y36928D02*
X8521Y36929D01*
Y37880D01*
X7021Y34241D02*
Y37880D01*
X6650Y33870D02*
X7021Y34241D01*
X6650Y32350D02*
Y33870D01*
X6180Y31880D02*
X6650Y32350D01*
X5021Y31880D02*
X6180D01*
X5021Y30291D02*
Y30880D01*
X5010Y30280D02*
X5021Y30291D01*
X6521Y28450D02*
Y29380D01*
X4080Y31850D02*
X4110Y31880D01*
X5021D01*
X8850Y27310D02*
X9240Y27700D01*
Y28289D01*
X9521Y28570D01*
Y29380D01*
X10750Y26700D02*
Y27150D01*
X10190Y27710D02*
X10750Y27150D01*
X10190Y27710D02*
Y28380D01*
X10021Y28549D02*
X10190Y28380D01*
X10021Y28549D02*
Y29380D01*
X10750Y26700D02*
X11250Y26200D01*
Y24600D02*
Y26200D01*
X8450Y24600D02*
Y26610D01*
X8850Y27010D01*
Y27310D01*
X13521Y35880D02*
X14420D01*
X14570Y36030D01*
X13521Y36380D02*
X14270D01*
X14430Y36540D01*
X15000D01*
X9429Y45670D02*
X9740D01*
X10300Y45110D01*
Y43770D02*
Y45110D01*
Y43770D02*
X10440Y43630D01*
X10490D01*
D70*
X9350Y24140D02*
Y24600D01*
X9260Y24050D02*
X9350Y24140D01*
X7420Y24050D02*
X9260D01*
X13658Y30230D02*
X13670D01*
X12807Y29380D02*
X13658Y30230D01*
X12021Y29380D02*
X12807D01*
X6272Y16600D02*
Y17122D01*
X6550Y17400D01*
X7980D01*
X7172Y16600D02*
X8950D01*
Y15790D02*
Y16600D01*
Y15790D02*
X9040Y15700D01*
X9090D01*
X9850Y15894D02*
Y16600D01*
X9636Y15680D02*
X9850Y15894D01*
X11100Y4500D02*
X11860D01*
X11880Y4480D01*
X7421Y1250D02*
X9100D01*
X7421D02*
Y2475D01*
X6521D02*
Y3291D01*
X6630Y3400D01*
X7730D01*
X7980Y3150D02*
X9100D01*
X7730Y3400D02*
X7980Y3150D01*
X6521Y739D02*
Y1250D01*
X11300Y2200D02*
X12870D01*
X13500Y1570D01*
X10580Y1100D02*
X15700D01*
X16100Y1500D01*
Y2400D01*
X17500D01*
Y3500D02*
Y5233D01*
X16891Y5842D02*
X17500Y5233D01*
X3160Y1110D02*
Y1790D01*
X3150Y1800D02*
X3160Y1790D01*
X4844Y8204D02*
X5750D01*
X5021Y34380D02*
X6040D01*
X5021Y35880D02*
X6010D01*
X6180Y36050D01*
X4250Y36380D02*
X5021D01*
X3930Y36060D02*
X4250Y36380D01*
X13521Y31380D02*
X14470D01*
X14570Y31480D01*
X13521Y30379D02*
Y30880D01*
Y30379D02*
X13670Y30230D01*
X11521Y29380D02*
Y30231D01*
X11790Y30500D01*
X11010Y30440D02*
X11021Y30429D01*
Y29380D02*
Y30429D01*
X9021Y29380D02*
Y30261D01*
X9390Y30630D01*
X7521Y29380D02*
Y30259D01*
X7100Y30680D02*
X7521Y30259D01*
X8521Y29380D02*
Y30179D01*
X8300Y30400D02*
X8521Y30179D01*
X9350Y24600D02*
X10350D01*
X12360Y32880D02*
X13521D01*
X12340Y32860D02*
X12360Y32880D01*
X12280Y35380D02*
X13521D01*
X11990Y35670D02*
X12280Y35380D01*
X12021Y36931D02*
Y37880D01*
X11840Y36750D02*
X12021Y36931D01*
X11521Y37880D02*
Y38801D01*
X11700Y38980D02*
X11720Y38960D01*
X11521Y38801D02*
X11700Y38980D01*
X7521Y37880D02*
Y39350D01*
X7471Y39400D02*
X7521Y39350D01*
X6521Y37880D02*
Y39350D01*
X6571Y39400D01*
X1200Y44950D02*
X2700D01*
X2650Y45900D02*
Y46480D01*
Y45900D02*
X2700Y45850D01*
X6800Y48350D02*
Y48820D01*
X6980Y49000D01*
X8150D01*
X9100Y45999D02*
Y46800D01*
Y45999D02*
X9429Y45670D01*
X13100Y45450D02*
Y46050D01*
Y45450D02*
X13110Y45440D01*
X11750Y44800D02*
Y45909D01*
X11517Y46142D02*
X11750Y45909D01*
X2700Y44950D02*
X3620D01*
X3630Y44940D01*
X7230Y24240D02*
X7420Y24050D01*
X8343Y13447D02*
Y14554D01*
Y13447D02*
X8740Y13050D01*
X9580D01*
X11250Y16700D02*
Y17690D01*
X11030Y17910D02*
X11250Y17690D01*
X10760Y17910D02*
X11030D01*
X1200Y45850D02*
Y46500D01*
X8021Y28469D02*
Y29380D01*
X7872Y28320D02*
X8021Y28469D01*
X7870Y28320D02*
X7872D01*
X8300Y30350D02*
Y30400D01*
X6665Y595D02*
X7866D01*
X8000Y729D01*
X6521Y739D02*
X6665Y595D01*
X10570Y1090D02*
X10580Y1100D01*
D71*
X13470Y7912D02*
Y10060D01*
X11400Y5842D02*
X13470Y7912D01*
X12500Y11030D02*
X13470Y10060D01*
X10300Y14554D02*
X10643D01*
X10300Y8547D02*
Y14554D01*
Y8547D02*
X10643Y8204D01*
X6517Y44957D02*
Y46142D01*
X10200Y4500D02*
Y5742D01*
X10300Y5842D01*
X10130Y4570D02*
X10200Y4500D01*
X9560Y4570D02*
X10130D01*
X7235Y7035D02*
X7450Y7250D01*
Y8204D01*
X4285Y5400D02*
Y6660D01*
X4660Y7035D02*
X7235D01*
X7450Y8204D02*
X10643D01*
X12950Y14562D02*
Y16700D01*
X12943Y14554D02*
X12950Y14562D01*
X12800Y25030D02*
X13220D01*
X13410Y25220D01*
X13850D01*
X14040Y25030D02*
X14600D01*
X13850Y25220D02*
X14040Y25030D01*
X8315Y5400D02*
Y6505D01*
X8390Y6580D01*
X12950Y16700D02*
X13010Y16760D01*
X14600D01*
X6800Y47450D02*
X7280D01*
X7760Y47930D01*
X10050Y48100D02*
Y49000D01*
X8150Y45750D02*
Y46800D01*
X7460Y45060D02*
X8150Y45750D01*
X7460Y44320D02*
Y45060D01*
X10932Y47262D02*
X12138D01*
X12450Y46950D01*
X13100D01*
X7760Y47930D02*
X10430D01*
X10050Y46025D02*
Y46800D01*
Y46025D02*
X10850Y45225D01*
X14600Y27170D02*
Y28440D01*
X15590Y29430D01*
X13750Y45010D02*
Y46134D01*
X15590Y29430D02*
Y36869D01*
X14320Y38139D02*
X15590Y36869D01*
X14320Y38139D02*
Y40380D01*
X15110Y41170D01*
X14150Y42710D02*
Y43194D01*
X13714Y44974D02*
X13750Y45010D01*
X13714Y43630D02*
X14150Y43194D01*
X13714Y43630D02*
Y44974D01*
X4620Y6995D02*
X4660Y7035D01*
X4285Y6660D02*
X4620Y6995D01*
X1730Y2320D02*
X2250Y1800D01*
X12800Y27170D02*
Y28050D01*
X13650Y28900D01*
X10850Y44330D02*
Y44800D01*
Y45225D01*
Y44330D02*
X11710Y43470D01*
Y42650D02*
Y43470D01*
Y40510D02*
X12550D01*
X13010Y40050D01*
X13004Y39800D02*
X13010D01*
Y40050D01*
X10430Y47930D02*
X10720Y47640D01*
Y47050D02*
Y47640D01*
Y47050D02*
X10932Y47262D01*
D72*
X10521Y37880D02*
Y38830D01*
X9900Y42495D02*
Y44105D01*
Y44850D01*
X10021Y37880D02*
X10070Y37929D01*
X10030Y37969D02*
Y39250D01*
X8900Y42495D02*
Y44105D01*
Y44980D01*
X10521Y38830D02*
X10550D01*
X10550Y38830D01*
X10030Y37969D02*
X10070Y37929D01*
X8890Y44990D02*
X8900Y44980D01*
X8880Y44990D02*
X8890D01*
D73*
X9105Y45435D02*
X9355Y45185D01*
X8696Y45435D02*
X9105D01*
X9355Y44150D02*
X9400Y44105D01*
X9355Y44150D02*
Y45185D01*
X8085Y43505D02*
Y44825D01*
X7710Y43130D02*
X8085Y43505D01*
X6910Y43130D02*
X6960D01*
X7710D01*
X8085Y44825D02*
X8190Y44930D01*
X8696Y45435D01*
X9400Y40500D02*
Y42495D01*
Y40500D02*
X9530Y40370D01*
D74*
X17374Y44094D02*
D03*
D75*
X14834D02*
D03*
Y46634D02*
D03*
X17374D02*
D03*
Y49174D02*
D03*
X6517Y46142D02*
D03*
X11517D02*
D03*
D76*
X14525Y6050D02*
D03*
D77*
X13255D02*
D03*
D78*
X5517Y48842D02*
D03*
X12517D02*
D03*
D79*
X1651Y38862D02*
D03*
Y36322D02*
D03*
Y33782D02*
D03*
Y31242D02*
D03*
Y28702D02*
D03*
Y26162D02*
D03*
Y23622D02*
D03*
Y21082D02*
D03*
Y18542D02*
D03*
Y16002D02*
D03*
Y13462D02*
D03*
Y10922D02*
D03*
Y8382D02*
D03*
Y5842D02*
D03*
X16891Y38862D02*
D03*
Y36322D02*
D03*
Y33782D02*
D03*
Y31242D02*
D03*
Y28702D02*
D03*
Y26162D02*
D03*
Y23622D02*
D03*
Y21082D02*
D03*
Y18542D02*
D03*
Y16002D02*
D03*
Y13462D02*
D03*
Y10922D02*
D03*
Y8382D02*
D03*
Y5842D02*
D03*
D80*
X1651Y41402D02*
D03*
X16891D02*
D03*
D81*
X5570Y10230D02*
D03*
X6790Y21050D02*
D03*
X8520Y36928D02*
D03*
X8940Y36150D02*
D03*
X3260Y20040D02*
D03*
X2850Y19700D02*
D03*
X2330Y19760D02*
D03*
X3920Y20960D02*
D03*
X4150Y21580D02*
D03*
X6420Y42340D02*
D03*
X5770Y40700D02*
D03*
X11143Y13229D02*
D03*
X12300Y12950D02*
D03*
X14490Y9610D02*
D03*
X12540Y9700D02*
D03*
X11020Y10410D02*
D03*
X12500Y11030D02*
D03*
X9730Y11210D02*
D03*
X7980Y17400D02*
D03*
X7920Y20090D02*
D03*
X10680Y20160D02*
D03*
X9347Y18669D02*
D03*
X10760Y17910D02*
D03*
X9090Y15700D02*
D03*
X9636Y15680D02*
D03*
X13020Y11900D02*
D03*
X15320Y10890D02*
D03*
X14460Y8480D02*
D03*
X12770Y8500D02*
D03*
X11100Y9430D02*
D03*
X11880Y4480D02*
D03*
X7730Y3400D02*
D03*
X7717Y4130D02*
D03*
X7240Y6220D02*
D03*
X9560Y4570D02*
D03*
X9380Y6010D02*
D03*
X13500Y1570D02*
D03*
X3160Y1110D02*
D03*
X4844Y8204D02*
D03*
X5831Y14410D02*
D03*
X5097Y15287D02*
D03*
X8947Y21847D02*
D03*
X10547Y22024D02*
D03*
X11071Y21929D02*
D03*
X12588Y21242D02*
D03*
X12553Y20287D02*
D03*
X11890Y21520D02*
D03*
X4010Y17469D02*
D03*
X3720Y16930D02*
D03*
X6110Y20250D02*
D03*
X3420Y31260D02*
D03*
X2370Y22550D02*
D03*
X5010Y30280D02*
D03*
X6521Y28450D02*
D03*
X4080Y31850D02*
D03*
X6040Y34380D02*
D03*
X6180Y36050D02*
D03*
X3930Y36060D02*
D03*
X8330Y33400D02*
D03*
X5990Y32910D02*
D03*
X9410Y32830D02*
D03*
X10650Y32950D02*
D03*
X11800Y32700D02*
D03*
X14570Y31480D02*
D03*
X13670Y30230D02*
D03*
X11790Y30500D02*
D03*
X11010Y30440D02*
D03*
X9390Y30630D02*
D03*
X7100Y30680D02*
D03*
X10660Y28390D02*
D03*
X13820Y27450D02*
D03*
X13850Y25220D02*
D03*
X12260Y26180D02*
D03*
X7740Y25860D02*
D03*
X12340Y32860D02*
D03*
X11990Y35670D02*
D03*
X14570Y36030D02*
D03*
X15000Y36540D02*
D03*
X11840Y36750D02*
D03*
X11720Y38960D02*
D03*
X2650Y46480D02*
D03*
X1155Y49485D02*
D03*
X2650Y49470D02*
D03*
X14570Y23650D02*
D03*
X14850Y22990D02*
D03*
X14960Y22470D02*
D03*
X8390Y6580D02*
D03*
X7090Y32930D02*
D03*
X7410Y26720D02*
D03*
X4110Y26530D02*
D03*
X9820Y22090D02*
D03*
X14600Y16760D02*
D03*
X15720Y17150D02*
D03*
X15330Y18110D02*
D03*
X14230Y14950D02*
D03*
X15420Y15370D02*
D03*
X6230Y19470D02*
D03*
X10030Y39250D02*
D03*
X10550Y38830D02*
D03*
X10630Y41410D02*
D03*
X8880Y44990D02*
D03*
X9800D02*
D03*
X6960Y43130D02*
D03*
X7460Y44320D02*
D03*
X13110Y45440D02*
D03*
X8190Y44930D02*
D03*
X3630Y44940D02*
D03*
X7230Y24240D02*
D03*
X7790Y25150D02*
D03*
X7720Y24550D02*
D03*
X15020Y32950D02*
D03*
X15110Y41170D02*
D03*
X4270Y37500D02*
D03*
X14900Y38590D02*
D03*
X4369Y720D02*
D03*
X9580Y13050D02*
D03*
X14150Y42710D02*
D03*
X13280Y42610D02*
D03*
X4620Y6995D02*
D03*
X1730Y2320D02*
D03*
X13650Y28900D02*
D03*
X13004Y39800D02*
D03*
X10600Y3350D02*
D03*
X1200Y46500D02*
D03*
X9530Y40370D02*
D03*
X10490Y43630D02*
D03*
X7870Y28320D02*
D03*
X8300Y30350D02*
D03*
X10720Y47050D02*
D03*
X8000Y729D02*
D03*
X10570Y1090D02*
D03*
X760Y47070D02*
D03*
X1790Y49640D02*
D03*
X4230Y49630D02*
D03*
X4960Y47220D02*
D03*
X700Y43750D02*
D03*
X4530Y43180D02*
D03*
X3550Y40520D02*
D03*
X700Y40000D02*
D03*
Y37490D02*
D03*
Y35030D02*
D03*
X3670Y34710D02*
D03*
X5660Y37080D02*
D03*
X3840Y38690D02*
D03*
X5860Y38490D02*
D03*
X680Y29910D02*
D03*
X660Y32310D02*
D03*
X4360Y28960D02*
D03*
X5590Y28920D02*
D03*
X6580Y30410D02*
D03*
X7110Y33730D02*
D03*
X670Y22260D02*
D03*
X650Y19820D02*
D03*
X590Y17210D02*
D03*
X2420Y17320D02*
D03*
X610Y14760D02*
D03*
X3880Y16050D02*
D03*
Y14610D02*
D03*
X5650Y13510D02*
D03*
X530Y12080D02*
D03*
X2630Y11810D02*
D03*
X740Y9710D02*
D03*
X3920Y12390D02*
D03*
X2550Y7160D02*
D03*
X700Y4860D02*
D03*
X5130Y3920D02*
D03*
X5097Y729D02*
D03*
X730Y680D02*
D03*
X5517Y6340D02*
D03*
X13550Y620D02*
D03*
X15940Y610D02*
D03*
X17830Y650D02*
D03*
X17850Y12060D02*
D03*
X17770Y14780D02*
D03*
X17800Y17270D02*
D03*
X17740Y19970D02*
D03*
X15970Y22040D02*
D03*
X15980Y24870D02*
D03*
X17890Y27650D02*
D03*
X17790Y32400D02*
D03*
X17820Y30000D02*
D03*
X17800Y35090D02*
D03*
X17860Y37540D02*
D03*
X9190Y36930D02*
D03*
X8130Y34310D02*
D03*
X12200Y33670D02*
D03*
X10040Y34200D02*
D03*
X10760Y36130D02*
D03*
X10360Y40010D02*
D03*
X10550Y42300D02*
D03*
X12840Y43140D02*
D03*
X13810Y49560D02*
D03*
X16050Y49610D02*
D03*
X16110Y47670D02*
D03*
X13530Y47660D02*
D03*
D82*
X10643Y8204D02*
D03*
D83*
X12943Y14554D02*
D03*
X10643D02*
D03*
X8343D02*
D03*
D84*
X13521Y30880D02*
D03*
Y31380D02*
D03*
Y31880D02*
D03*
Y32380D02*
D03*
Y32880D02*
D03*
Y33380D02*
D03*
Y33880D02*
D03*
Y34380D02*
D03*
Y34880D02*
D03*
Y35380D02*
D03*
Y35880D02*
D03*
Y36380D02*
D03*
X5021D02*
D03*
Y35880D02*
D03*
Y35380D02*
D03*
Y34880D02*
D03*
Y34380D02*
D03*
Y33880D02*
D03*
Y33380D02*
D03*
Y32880D02*
D03*
Y32380D02*
D03*
Y31880D02*
D03*
Y31380D02*
D03*
Y30880D02*
D03*
D85*
X12021Y37880D02*
D03*
X11521D02*
D03*
X11021D02*
D03*
X10521D02*
D03*
X10021D02*
D03*
X9521D02*
D03*
X9021D02*
D03*
X8521D02*
D03*
X8021D02*
D03*
X7521D02*
D03*
X7021D02*
D03*
X6521D02*
D03*
Y29380D02*
D03*
X7021D02*
D03*
X7521D02*
D03*
X8021D02*
D03*
X8521D02*
D03*
X9021D02*
D03*
X9521D02*
D03*
X10021D02*
D03*
X10521D02*
D03*
X11021D02*
D03*
X11521D02*
D03*
X12021D02*
D03*
D86*
X8900Y44105D02*
D03*
X9900D02*
D03*
Y42495D02*
D03*
X9400D02*
D03*
X8900D02*
D03*
X9400Y44105D02*
D03*
D87*
X8315Y5400D02*
D03*
X4285D02*
D03*
D88*
X10750Y26700D02*
D03*
X8850D02*
D03*
D89*
X11250Y16700D02*
D03*
X12950D02*
D03*
X5750Y8204D02*
D03*
X7450D02*
D03*
D90*
X13100Y46950D02*
X13520D01*
X13750Y46134D02*
Y46720D01*
X13520Y46950D02*
X13750Y46720D01*
D91*
X11021Y37880D02*
Y41061D01*
X11500Y41540D01*
X14819D01*
X17374Y44094D01*
M02*
