G04*
G04 #@! TF.GenerationSoftware,Altium Limited,Altium Designer,18.1.9 (240)*
G04*
G04 Layer_Color=8388736*
%FSLAX43Y43*%
%MOMM*%
G71*
G01*
G75*
%ADD15C,0.100*%
%ADD16R,1.800X3.800*%
%ADD17R,0.700X1.400*%
%ADD18R,0.800X0.610*%
%ADD19R,1.500X1.100*%
%ADD20R,1.200X1.600*%
%ADD21R,0.900X0.900*%
%ADD22R,0.900X0.900*%
%ADD23O,0.400X0.850*%
%ADD24O,0.850X0.400*%
%ADD25R,3.800X3.800*%
%ADD26R,0.600X1.300*%
%ADD27R,1.300X0.600*%
%ADD28R,2.600X1.800*%
%ADD29R,0.550X0.600*%
%ADD30R,0.525X0.430*%
%ADD31R,0.640X1.160*%
%ADD32R,1.100X1.900*%
%ADD33R,1.600X2.000*%
%ADD34R,0.500X1.450*%
%ADD35R,0.660X0.610*%
%ADD36R,0.610X0.800*%
%ADD37R,0.610X0.660*%
%ADD38R,1.703X1.703*%
%ADD39C,1.703*%
%ADD40R,1.100X1.600*%
%ADD41O,1.100X1.600*%
%ADD42O,1.300X2.000*%
%ADD43C,1.600*%
%ADD44C,1.950*%
%ADD45R,1.950X1.950*%
%ADD46C,0.300*%
G36*
X12517Y47842D02*
X11267D01*
Y49842D01*
X12517D01*
Y47842D01*
D02*
G37*
G36*
X6767D02*
X5517D01*
Y49842D01*
X6767D01*
Y47842D01*
D02*
G37*
G36*
X13567Y36875D02*
X13017Y36325D01*
X12467Y36875D01*
Y37575D01*
X13567D01*
Y36875D01*
D02*
G37*
G36*
Y35425D02*
X12467D01*
Y36775D01*
X13017Y36225D01*
Y36225D01*
X13567Y36775D01*
Y35425D01*
D02*
G37*
G36*
X8893Y32255D02*
X8343Y31705D01*
X7793Y32255D01*
Y32955D01*
X8893D01*
Y32255D01*
D02*
G37*
G36*
Y30805D02*
X7793D01*
Y32155D01*
X8343Y31605D01*
Y31605D01*
X8893Y32155D01*
Y30805D01*
D02*
G37*
G36*
X7071Y26725D02*
X6521Y27275D01*
Y27275D01*
X5971Y26725D01*
Y28075D01*
X7071D01*
Y26725D01*
D02*
G37*
G36*
X5650D02*
X5100Y27275D01*
Y27275D01*
X4550Y26725D01*
Y28075D01*
X5650D01*
Y26725D01*
D02*
G37*
G36*
X7071Y26625D02*
Y25925D01*
X5971D01*
Y26625D01*
X6521Y27175D01*
X7071Y26625D01*
D02*
G37*
G36*
X5650D02*
Y25925D01*
X4550D01*
Y26625D01*
X5100Y27175D01*
X5650Y26625D01*
D02*
G37*
G36*
X5750Y24475D02*
X5200Y23925D01*
X4650Y24475D01*
Y25175D01*
X5750D01*
Y24475D01*
D02*
G37*
G36*
X4510D02*
X3960Y23925D01*
X3410Y24475D01*
Y25175D01*
X4510D01*
Y24475D01*
D02*
G37*
G36*
X5750Y23025D02*
X4650D01*
Y24375D01*
X5200Y23825D01*
Y23825D01*
X5750Y24375D01*
Y23025D01*
D02*
G37*
G36*
X4510D02*
X3410D01*
Y24375D01*
X3960Y23825D01*
Y23825D01*
X4510Y24375D01*
Y23025D01*
D02*
G37*
G36*
X14975Y12525D02*
X14275D01*
X13725Y13075D01*
X14275Y13625D01*
X14975D01*
Y12525D01*
D02*
G37*
G36*
X13625Y13075D02*
X13625D01*
X14175Y12525D01*
X12825D01*
Y13625D01*
X14175D01*
X13625Y13075D01*
D02*
G37*
G36*
X9050Y11525D02*
X8500Y12075D01*
Y12075D01*
X7950Y11525D01*
Y12875D01*
X9050D01*
Y11525D01*
D02*
G37*
G36*
X7650D02*
X7100Y12075D01*
Y12075D01*
X6550Y11525D01*
Y12875D01*
X7650D01*
Y11525D01*
D02*
G37*
G36*
X6230Y11515D02*
X5680Y12065D01*
Y12065D01*
X5130Y11515D01*
Y12865D01*
X6230D01*
Y11515D01*
D02*
G37*
G36*
X9050Y11425D02*
Y10725D01*
X7950D01*
Y11425D01*
X8500Y11975D01*
X9050Y11425D01*
D02*
G37*
G36*
X7650D02*
Y10725D01*
X6550D01*
Y11425D01*
X7100Y11975D01*
X7650Y11425D01*
D02*
G37*
G36*
X6230Y11415D02*
Y10715D01*
X5130D01*
Y11415D01*
X5680Y11965D01*
X6230Y11415D01*
D02*
G37*
G36*
X-16550Y-16402D02*
X-16530D01*
X-16478Y-16407D01*
X-16419Y-16416D01*
X-16358Y-16430D01*
X-16292Y-16446D01*
X-16230Y-16469D01*
X-16228D01*
X-16222Y-16471D01*
X-16214Y-16477D01*
X-16203Y-16482D01*
X-16175Y-16496D01*
X-16139Y-16521D01*
X-16097Y-16549D01*
X-16056Y-16585D01*
X-16017Y-16627D01*
X-15981Y-16674D01*
Y-16677D01*
X-15978Y-16680D01*
X-15972Y-16688D01*
X-15967Y-16696D01*
X-15953Y-16724D01*
X-15936Y-16760D01*
X-15917Y-16804D01*
X-15903Y-16857D01*
X-15889Y-16913D01*
X-15883Y-16974D01*
X-16128Y-16993D01*
Y-16990D01*
Y-16985D01*
X-16131Y-16977D01*
X-16133Y-16963D01*
X-16142Y-16932D01*
X-16153Y-16890D01*
X-16169Y-16846D01*
X-16194Y-16802D01*
X-16225Y-16760D01*
X-16264Y-16721D01*
X-16269Y-16718D01*
X-16283Y-16707D01*
X-16311Y-16691D01*
X-16347Y-16674D01*
X-16394Y-16657D01*
X-16450Y-16641D01*
X-16519Y-16630D01*
X-16597Y-16627D01*
X-16636D01*
X-16652Y-16630D01*
X-16675Y-16632D01*
X-16725Y-16638D01*
X-16780Y-16649D01*
X-16836Y-16663D01*
X-16888Y-16685D01*
X-16911Y-16699D01*
X-16933Y-16713D01*
X-16938Y-16716D01*
X-16949Y-16727D01*
X-16966Y-16746D01*
X-16983Y-16768D01*
X-17002Y-16799D01*
X-17019Y-16832D01*
X-17030Y-16871D01*
X-17036Y-16915D01*
Y-16921D01*
Y-16932D01*
X-17033Y-16952D01*
X-17027Y-16974D01*
X-17019Y-17002D01*
X-17005Y-17029D01*
X-16988Y-17057D01*
X-16963Y-17085D01*
X-16961Y-17088D01*
X-16947Y-17096D01*
X-16936Y-17104D01*
X-16925Y-17110D01*
X-16908Y-17118D01*
X-16888Y-17129D01*
X-16863Y-17138D01*
X-16836Y-17149D01*
X-16805Y-17160D01*
X-16769Y-17174D01*
X-16730Y-17185D01*
X-16686Y-17199D01*
X-16636Y-17210D01*
X-16580Y-17224D01*
X-16577D01*
X-16566Y-17226D01*
X-16550Y-17229D01*
X-16530Y-17235D01*
X-16505Y-17240D01*
X-16475Y-17249D01*
X-16444Y-17257D01*
X-16411Y-17265D01*
X-16339Y-17285D01*
X-16269Y-17304D01*
X-16236Y-17315D01*
X-16205Y-17326D01*
X-16178Y-17335D01*
X-16155Y-17346D01*
X-16153D01*
X-16147Y-17349D01*
X-16139Y-17354D01*
X-16128Y-17360D01*
X-16097Y-17376D01*
X-16061Y-17399D01*
X-16019Y-17429D01*
X-15978Y-17462D01*
X-15939Y-17501D01*
X-15906Y-17543D01*
X-15903Y-17548D01*
X-15892Y-17562D01*
X-15881Y-17587D01*
X-15864Y-17621D01*
X-15850Y-17660D01*
X-15836Y-17707D01*
X-15828Y-17759D01*
X-15825Y-17815D01*
Y-17818D01*
Y-17821D01*
Y-17829D01*
Y-17840D01*
X-15831Y-17871D01*
X-15836Y-17909D01*
X-15847Y-17954D01*
X-15861Y-18001D01*
X-15883Y-18051D01*
X-15914Y-18104D01*
Y-18106D01*
X-15917Y-18109D01*
X-15931Y-18126D01*
X-15950Y-18151D01*
X-15978Y-18179D01*
X-16014Y-18212D01*
X-16058Y-18248D01*
X-16108Y-18281D01*
X-16167Y-18312D01*
X-16169D01*
X-16175Y-18315D01*
X-16183Y-18317D01*
X-16194Y-18323D01*
X-16211Y-18329D01*
X-16230Y-18337D01*
X-16275Y-18348D01*
X-16328Y-18362D01*
X-16391Y-18376D01*
X-16461Y-18384D01*
X-16536Y-18387D01*
X-16580D01*
X-16602Y-18384D01*
X-16627D01*
X-16655Y-18381D01*
X-16689Y-18379D01*
X-16758Y-18367D01*
X-16830Y-18356D01*
X-16902Y-18337D01*
X-16972Y-18312D01*
X-16974D01*
X-16980Y-18309D01*
X-16988Y-18304D01*
X-16999Y-18298D01*
X-17033Y-18281D01*
X-17072Y-18256D01*
X-17116Y-18223D01*
X-17163Y-18184D01*
X-17208Y-18137D01*
X-17249Y-18084D01*
Y-18081D01*
X-17255Y-18076D01*
X-17258Y-18068D01*
X-17266Y-18057D01*
X-17272Y-18043D01*
X-17280Y-18026D01*
X-17299Y-17984D01*
X-17319Y-17932D01*
X-17335Y-17873D01*
X-17346Y-17807D01*
X-17352Y-17737D01*
X-17113Y-17715D01*
Y-17718D01*
Y-17721D01*
X-17111Y-17729D01*
Y-17740D01*
X-17105Y-17765D01*
X-17097Y-17801D01*
X-17086Y-17837D01*
X-17074Y-17879D01*
X-17055Y-17918D01*
X-17036Y-17954D01*
X-17033Y-17957D01*
X-17024Y-17968D01*
X-17011Y-17987D01*
X-16988Y-18007D01*
X-16961Y-18032D01*
X-16930Y-18057D01*
X-16888Y-18081D01*
X-16844Y-18104D01*
X-16841D01*
X-16838Y-18106D01*
X-16830Y-18109D01*
X-16822Y-18112D01*
X-16794Y-18120D01*
X-16758Y-18131D01*
X-16714Y-18143D01*
X-16664Y-18151D01*
X-16608Y-18156D01*
X-16547Y-18159D01*
X-16522D01*
X-16494Y-18156D01*
X-16461Y-18154D01*
X-16422Y-18148D01*
X-16378Y-18143D01*
X-16333Y-18131D01*
X-16292Y-18118D01*
X-16286Y-18115D01*
X-16272Y-18109D01*
X-16253Y-18098D01*
X-16228Y-18087D01*
X-16203Y-18068D01*
X-16175Y-18048D01*
X-16147Y-18026D01*
X-16125Y-17998D01*
X-16122Y-17995D01*
X-16117Y-17984D01*
X-16108Y-17970D01*
X-16097Y-17948D01*
X-16086Y-17926D01*
X-16078Y-17898D01*
X-16072Y-17868D01*
X-16069Y-17834D01*
Y-17832D01*
Y-17818D01*
X-16072Y-17801D01*
X-16075Y-17779D01*
X-16083Y-17757D01*
X-16092Y-17729D01*
X-16106Y-17701D01*
X-16125Y-17676D01*
X-16128Y-17673D01*
X-16136Y-17665D01*
X-16147Y-17654D01*
X-16167Y-17637D01*
X-16189Y-17621D01*
X-16219Y-17601D01*
X-16255Y-17582D01*
X-16297Y-17565D01*
X-16300Y-17562D01*
X-16314Y-17560D01*
X-16336Y-17551D01*
X-16350Y-17548D01*
X-16369Y-17543D01*
X-16389Y-17535D01*
X-16414Y-17529D01*
X-16441Y-17521D01*
X-16475Y-17512D01*
X-16508Y-17504D01*
X-16547Y-17493D01*
X-16591Y-17482D01*
X-16639Y-17471D01*
X-16641D01*
X-16650Y-17468D01*
X-16664Y-17465D01*
X-16680Y-17460D01*
X-16702Y-17454D01*
X-16727Y-17449D01*
X-16783Y-17432D01*
X-16844Y-17412D01*
X-16908Y-17393D01*
X-16963Y-17374D01*
X-16988Y-17362D01*
X-17011Y-17351D01*
X-17013D01*
X-17016Y-17349D01*
X-17033Y-17337D01*
X-17058Y-17324D01*
X-17086Y-17301D01*
X-17119Y-17276D01*
X-17152Y-17246D01*
X-17185Y-17210D01*
X-17213Y-17171D01*
X-17216Y-17165D01*
X-17224Y-17151D01*
X-17235Y-17129D01*
X-17247Y-17101D01*
X-17258Y-17065D01*
X-17269Y-17024D01*
X-17277Y-16979D01*
X-17280Y-16932D01*
Y-16929D01*
Y-16927D01*
Y-16918D01*
Y-16907D01*
X-17274Y-16879D01*
X-17269Y-16843D01*
X-17260Y-16802D01*
X-17247Y-16754D01*
X-17227Y-16707D01*
X-17199Y-16660D01*
Y-16657D01*
X-17197Y-16655D01*
X-17183Y-16638D01*
X-17163Y-16616D01*
X-17138Y-16588D01*
X-17105Y-16557D01*
X-17063Y-16524D01*
X-17013Y-16493D01*
X-16958Y-16466D01*
X-16955D01*
X-16949Y-16463D01*
X-16941Y-16460D01*
X-16930Y-16455D01*
X-16916Y-16449D01*
X-16897Y-16444D01*
X-16855Y-16432D01*
X-16802Y-16421D01*
X-16741Y-16410D01*
X-16677Y-16402D01*
X-16605Y-16399D01*
X-16569D01*
X-16550Y-16402D01*
D02*
G37*
G36*
X-12297Y-18354D02*
X-12516D01*
Y-18179D01*
X-12519Y-18181D01*
X-12521Y-18187D01*
X-12530Y-18198D01*
X-12541Y-18212D01*
X-12555Y-18226D01*
X-12571Y-18243D01*
X-12591Y-18262D01*
X-12616Y-18281D01*
X-12641Y-18301D01*
X-12669Y-18320D01*
X-12702Y-18337D01*
X-12738Y-18351D01*
X-12774Y-18365D01*
X-12816Y-18376D01*
X-12860Y-18381D01*
X-12907Y-18384D01*
X-12924D01*
X-12935Y-18381D01*
X-12968Y-18379D01*
X-13007Y-18373D01*
X-13054Y-18362D01*
X-13107Y-18345D01*
X-13160Y-18323D01*
X-13213Y-18292D01*
X-13215D01*
X-13218Y-18287D01*
X-13235Y-18276D01*
X-13260Y-18254D01*
X-13290Y-18226D01*
X-13327Y-18190D01*
X-13363Y-18145D01*
X-13399Y-18095D01*
X-13429Y-18037D01*
Y-18034D01*
X-13432Y-18029D01*
X-13435Y-18020D01*
X-13440Y-18009D01*
X-13446Y-17993D01*
X-13454Y-17973D01*
X-13460Y-17954D01*
X-13465Y-17929D01*
X-13479Y-17873D01*
X-13493Y-17809D01*
X-13501Y-17737D01*
X-13504Y-17660D01*
Y-17657D01*
Y-17651D01*
Y-17640D01*
Y-17623D01*
X-13501Y-17607D01*
Y-17585D01*
X-13496Y-17535D01*
X-13488Y-17476D01*
X-13474Y-17412D01*
X-13457Y-17346D01*
X-13435Y-17282D01*
Y-17279D01*
X-13432Y-17274D01*
X-13426Y-17265D01*
X-13421Y-17254D01*
X-13404Y-17224D01*
X-13382Y-17185D01*
X-13354Y-17143D01*
X-13318Y-17101D01*
X-13277Y-17057D01*
X-13227Y-17021D01*
X-13224D01*
X-13221Y-17018D01*
X-13213Y-17013D01*
X-13202Y-17007D01*
X-13174Y-16993D01*
X-13135Y-16974D01*
X-13091Y-16957D01*
X-13038Y-16943D01*
X-12979Y-16932D01*
X-12918Y-16929D01*
X-12896D01*
X-12874Y-16932D01*
X-12843Y-16935D01*
X-12807Y-16943D01*
X-12769Y-16952D01*
X-12730Y-16965D01*
X-12694Y-16985D01*
X-12688Y-16988D01*
X-12677Y-16993D01*
X-12660Y-17007D01*
X-12638Y-17021D01*
X-12610Y-17040D01*
X-12585Y-17065D01*
X-12558Y-17090D01*
X-12533Y-17121D01*
Y-16432D01*
X-12297D01*
Y-18354D01*
D02*
G37*
G36*
X-18876Y-16932D02*
X-18857Y-16935D01*
X-18815Y-16940D01*
X-18765Y-16952D01*
X-18712Y-16968D01*
X-18660Y-16993D01*
X-18607Y-17024D01*
X-18604D01*
X-18601Y-17029D01*
X-18585Y-17040D01*
X-18560Y-17063D01*
X-18529Y-17090D01*
X-18496Y-17126D01*
X-18463Y-17171D01*
X-18429Y-17224D01*
X-18401Y-17282D01*
Y-17285D01*
X-18399Y-17290D01*
X-18396Y-17299D01*
X-18390Y-17310D01*
X-18385Y-17326D01*
X-18379Y-17346D01*
X-18365Y-17390D01*
X-18351Y-17446D01*
X-18340Y-17507D01*
X-18332Y-17576D01*
X-18329Y-17648D01*
Y-17651D01*
Y-17657D01*
Y-17668D01*
Y-17684D01*
X-18332Y-17704D01*
Y-17726D01*
X-18338Y-17776D01*
X-18349Y-17837D01*
X-18363Y-17901D01*
X-18382Y-17968D01*
X-18407Y-18034D01*
Y-18037D01*
X-18410Y-18043D01*
X-18415Y-18051D01*
X-18421Y-18062D01*
X-18440Y-18093D01*
X-18465Y-18131D01*
X-18496Y-18173D01*
X-18535Y-18215D01*
X-18579Y-18256D01*
X-18632Y-18295D01*
X-18635D01*
X-18637Y-18298D01*
X-18646Y-18304D01*
X-18657Y-18309D01*
X-18685Y-18323D01*
X-18723Y-18340D01*
X-18771Y-18356D01*
X-18821Y-18370D01*
X-18879Y-18381D01*
X-18937Y-18384D01*
X-18957D01*
X-18979Y-18381D01*
X-19007Y-18379D01*
X-19040Y-18373D01*
X-19076Y-18365D01*
X-19112Y-18354D01*
X-19148Y-18337D01*
X-19151Y-18334D01*
X-19165Y-18329D01*
X-19182Y-18317D01*
X-19204Y-18301D01*
X-19226Y-18284D01*
X-19254Y-18262D01*
X-19279Y-18237D01*
X-19301Y-18209D01*
Y-18887D01*
X-19537D01*
Y-16960D01*
X-19323D01*
Y-17143D01*
X-19320Y-17138D01*
X-19309Y-17126D01*
X-19295Y-17107D01*
X-19273Y-17085D01*
X-19248Y-17057D01*
X-19220Y-17032D01*
X-19187Y-17007D01*
X-19154Y-16985D01*
X-19148Y-16982D01*
X-19137Y-16977D01*
X-19115Y-16968D01*
X-19087Y-16957D01*
X-19054Y-16946D01*
X-19015Y-16938D01*
X-18971Y-16932D01*
X-18921Y-16929D01*
X-18890D01*
X-18876Y-16932D01*
D02*
G37*
G36*
X-9873D02*
X-9842Y-16938D01*
X-9806Y-16949D01*
X-9767Y-16963D01*
X-9723Y-16982D01*
X-9676Y-17007D01*
X-9762Y-17224D01*
X-9765Y-17221D01*
X-9776Y-17215D01*
X-9792Y-17207D01*
X-9815Y-17199D01*
X-9840Y-17190D01*
X-9870Y-17182D01*
X-9901Y-17176D01*
X-9931Y-17174D01*
X-9945D01*
X-9959Y-17176D01*
X-9978Y-17179D01*
X-9998Y-17185D01*
X-10023Y-17193D01*
X-10048Y-17204D01*
X-10070Y-17221D01*
X-10073Y-17224D01*
X-10081Y-17229D01*
X-10089Y-17240D01*
X-10103Y-17254D01*
X-10117Y-17274D01*
X-10131Y-17296D01*
X-10145Y-17321D01*
X-10156Y-17351D01*
X-10159Y-17357D01*
X-10162Y-17374D01*
X-10167Y-17399D01*
X-10176Y-17432D01*
X-10184Y-17474D01*
X-10189Y-17521D01*
X-10192Y-17571D01*
X-10195Y-17626D01*
Y-18354D01*
X-10431D01*
Y-16960D01*
X-10217D01*
Y-17171D01*
X-10214Y-17168D01*
X-10203Y-17149D01*
X-10189Y-17124D01*
X-10167Y-17093D01*
X-10145Y-17063D01*
X-10120Y-17029D01*
X-10095Y-17002D01*
X-10070Y-16979D01*
X-10067Y-16977D01*
X-10059Y-16971D01*
X-10042Y-16963D01*
X-10026Y-16954D01*
X-10003Y-16946D01*
X-9976Y-16938D01*
X-9948Y-16932D01*
X-9917Y-16929D01*
X-9898D01*
X-9873Y-16932D01*
D02*
G37*
G36*
X-13782Y-18354D02*
X-14018D01*
Y-16432D01*
X-13782D01*
Y-18354D01*
D02*
G37*
G36*
X-21264Y-16660D02*
X-21897D01*
Y-18354D01*
X-22152D01*
Y-16660D01*
X-22785D01*
Y-16432D01*
X-21264D01*
Y-16660D01*
D02*
G37*
G36*
X-11305Y-16932D02*
X-11283Y-16935D01*
X-11255Y-16940D01*
X-11225Y-16946D01*
X-11189Y-16954D01*
X-11156Y-16963D01*
X-11117Y-16977D01*
X-11081Y-16990D01*
X-11042Y-17010D01*
X-11003Y-17032D01*
X-10964Y-17057D01*
X-10928Y-17088D01*
X-10895Y-17121D01*
X-10892Y-17124D01*
X-10886Y-17129D01*
X-10878Y-17140D01*
X-10867Y-17157D01*
X-10853Y-17176D01*
X-10839Y-17199D01*
X-10822Y-17226D01*
X-10806Y-17260D01*
X-10789Y-17296D01*
X-10772Y-17335D01*
X-10759Y-17379D01*
X-10745Y-17426D01*
X-10734Y-17479D01*
X-10725Y-17535D01*
X-10720Y-17593D01*
X-10717Y-17657D01*
Y-17660D01*
Y-17671D01*
Y-17690D01*
X-10720Y-17718D01*
X-11761D01*
Y-17721D01*
Y-17729D01*
X-11758Y-17740D01*
Y-17757D01*
X-11755Y-17776D01*
X-11750Y-17798D01*
X-11741Y-17848D01*
X-11725Y-17904D01*
X-11702Y-17965D01*
X-11672Y-18020D01*
X-11633Y-18070D01*
X-11630D01*
X-11627Y-18076D01*
X-11611Y-18090D01*
X-11586Y-18109D01*
X-11553Y-18129D01*
X-11508Y-18151D01*
X-11458Y-18170D01*
X-11403Y-18184D01*
X-11372Y-18187D01*
X-11339Y-18190D01*
X-11317D01*
X-11292Y-18187D01*
X-11261Y-18181D01*
X-11228Y-18173D01*
X-11189Y-18162D01*
X-11153Y-18145D01*
X-11117Y-18123D01*
X-11114Y-18120D01*
X-11100Y-18109D01*
X-11083Y-18093D01*
X-11064Y-18070D01*
X-11042Y-18040D01*
X-11017Y-18001D01*
X-10992Y-17957D01*
X-10970Y-17904D01*
X-10725Y-17934D01*
Y-17937D01*
X-10728Y-17943D01*
X-10731Y-17954D01*
X-10736Y-17970D01*
X-10745Y-17987D01*
X-10753Y-18009D01*
X-10775Y-18057D01*
X-10803Y-18109D01*
X-10842Y-18165D01*
X-10886Y-18218D01*
X-10942Y-18268D01*
X-10945D01*
X-10950Y-18273D01*
X-10958Y-18279D01*
X-10970Y-18287D01*
X-10986Y-18295D01*
X-11003Y-18304D01*
X-11025Y-18315D01*
X-11050Y-18326D01*
X-11078Y-18337D01*
X-11106Y-18348D01*
X-11175Y-18365D01*
X-11253Y-18379D01*
X-11339Y-18384D01*
X-11369D01*
X-11389Y-18381D01*
X-11414Y-18379D01*
X-11444Y-18373D01*
X-11478Y-18367D01*
X-11514Y-18362D01*
X-11591Y-18340D01*
X-11633Y-18323D01*
X-11672Y-18306D01*
X-11714Y-18284D01*
X-11752Y-18259D01*
X-11788Y-18231D01*
X-11825Y-18198D01*
X-11827Y-18195D01*
X-11833Y-18190D01*
X-11841Y-18179D01*
X-11852Y-18162D01*
X-11866Y-18143D01*
X-11880Y-18120D01*
X-11897Y-18093D01*
X-11913Y-18062D01*
X-11930Y-18026D01*
X-11947Y-17987D01*
X-11961Y-17943D01*
X-11974Y-17895D01*
X-11986Y-17846D01*
X-11994Y-17790D01*
X-11999Y-17732D01*
X-12002Y-17671D01*
Y-17668D01*
Y-17654D01*
Y-17637D01*
X-11999Y-17612D01*
X-11997Y-17582D01*
X-11994Y-17548D01*
X-11988Y-17510D01*
X-11980Y-17471D01*
X-11958Y-17382D01*
X-11944Y-17337D01*
X-11927Y-17290D01*
X-11905Y-17246D01*
X-11880Y-17204D01*
X-11852Y-17163D01*
X-11822Y-17124D01*
X-11819Y-17121D01*
X-11813Y-17115D01*
X-11802Y-17107D01*
X-11788Y-17093D01*
X-11772Y-17079D01*
X-11750Y-17063D01*
X-11725Y-17043D01*
X-11694Y-17027D01*
X-11664Y-17007D01*
X-11627Y-16990D01*
X-11589Y-16974D01*
X-11547Y-16960D01*
X-11503Y-16946D01*
X-11455Y-16938D01*
X-11405Y-16932D01*
X-11353Y-16929D01*
X-11325D01*
X-11305Y-16932D01*
D02*
G37*
G36*
X-14895D02*
X-14870Y-16935D01*
X-14842Y-16940D01*
X-14812Y-16946D01*
X-14776Y-16952D01*
X-14701Y-16977D01*
X-14662Y-16990D01*
X-14623Y-17010D01*
X-14584Y-17029D01*
X-14545Y-17057D01*
X-14509Y-17085D01*
X-14473Y-17118D01*
X-14470Y-17121D01*
X-14465Y-17126D01*
X-14456Y-17138D01*
X-14445Y-17151D01*
X-14431Y-17171D01*
X-14415Y-17196D01*
X-14398Y-17224D01*
X-14381Y-17254D01*
X-14365Y-17288D01*
X-14348Y-17329D01*
X-14332Y-17371D01*
X-14318Y-17418D01*
X-14307Y-17468D01*
X-14298Y-17521D01*
X-14293Y-17576D01*
X-14290Y-17637D01*
Y-17640D01*
Y-17648D01*
Y-17662D01*
Y-17682D01*
X-14293Y-17704D01*
X-14295Y-17732D01*
Y-17759D01*
X-14301Y-17790D01*
X-14309Y-17859D01*
X-14326Y-17929D01*
X-14345Y-17998D01*
X-14373Y-18062D01*
Y-18065D01*
X-14376Y-18068D01*
X-14381Y-18076D01*
X-14387Y-18087D01*
X-14406Y-18115D01*
X-14431Y-18148D01*
X-14465Y-18187D01*
X-14506Y-18226D01*
X-14554Y-18265D01*
X-14609Y-18301D01*
X-14612D01*
X-14615Y-18304D01*
X-14623Y-18309D01*
X-14637Y-18315D01*
X-14651Y-18320D01*
X-14667Y-18326D01*
X-14709Y-18342D01*
X-14756Y-18356D01*
X-14815Y-18370D01*
X-14876Y-18381D01*
X-14942Y-18384D01*
X-14970D01*
X-14992Y-18381D01*
X-15017Y-18379D01*
X-15045Y-18373D01*
X-15078Y-18367D01*
X-15112Y-18362D01*
X-15187Y-18340D01*
X-15228Y-18323D01*
X-15267Y-18306D01*
X-15306Y-18284D01*
X-15345Y-18259D01*
X-15381Y-18231D01*
X-15417Y-18198D01*
X-15420Y-18195D01*
X-15425Y-18190D01*
X-15434Y-18179D01*
X-15445Y-18162D01*
X-15459Y-18143D01*
X-15473Y-18120D01*
X-15489Y-18093D01*
X-15506Y-18059D01*
X-15523Y-18023D01*
X-15539Y-17982D01*
X-15553Y-17937D01*
X-15567Y-17890D01*
X-15578Y-17837D01*
X-15586Y-17782D01*
X-15592Y-17721D01*
X-15595Y-17657D01*
Y-17651D01*
Y-17640D01*
X-15592Y-17621D01*
Y-17593D01*
X-15589Y-17562D01*
X-15584Y-17523D01*
X-15578Y-17485D01*
X-15567Y-17440D01*
X-15556Y-17396D01*
X-15542Y-17349D01*
X-15525Y-17299D01*
X-15503Y-17251D01*
X-15481Y-17207D01*
X-15450Y-17163D01*
X-15420Y-17121D01*
X-15381Y-17085D01*
X-15378Y-17082D01*
X-15373Y-17079D01*
X-15361Y-17071D01*
X-15348Y-17060D01*
X-15331Y-17049D01*
X-15309Y-17035D01*
X-15287Y-17021D01*
X-15259Y-17007D01*
X-15228Y-16993D01*
X-15195Y-16979D01*
X-15120Y-16954D01*
X-15034Y-16935D01*
X-14989Y-16932D01*
X-14942Y-16929D01*
X-14915D01*
X-14895Y-16932D01*
D02*
G37*
G36*
X-20420D02*
X-20395Y-16935D01*
X-20367Y-16940D01*
X-20336Y-16946D01*
X-20300Y-16952D01*
X-20225Y-16977D01*
X-20187Y-16990D01*
X-20148Y-17010D01*
X-20109Y-17029D01*
X-20070Y-17057D01*
X-20034Y-17085D01*
X-19998Y-17118D01*
X-19995Y-17121D01*
X-19989Y-17126D01*
X-19981Y-17138D01*
X-19970Y-17151D01*
X-19956Y-17171D01*
X-19939Y-17196D01*
X-19923Y-17224D01*
X-19906Y-17254D01*
X-19890Y-17288D01*
X-19873Y-17329D01*
X-19856Y-17371D01*
X-19842Y-17418D01*
X-19831Y-17468D01*
X-19823Y-17521D01*
X-19817Y-17576D01*
X-19815Y-17637D01*
Y-17640D01*
Y-17648D01*
Y-17662D01*
Y-17682D01*
X-19817Y-17704D01*
X-19820Y-17732D01*
Y-17759D01*
X-19826Y-17790D01*
X-19834Y-17859D01*
X-19851Y-17929D01*
X-19870Y-17998D01*
X-19898Y-18062D01*
Y-18065D01*
X-19901Y-18068D01*
X-19906Y-18076D01*
X-19912Y-18087D01*
X-19931Y-18115D01*
X-19956Y-18148D01*
X-19989Y-18187D01*
X-20031Y-18226D01*
X-20078Y-18265D01*
X-20134Y-18301D01*
X-20137D01*
X-20139Y-18304D01*
X-20148Y-18309D01*
X-20162Y-18315D01*
X-20175Y-18320D01*
X-20192Y-18326D01*
X-20234Y-18342D01*
X-20281Y-18356D01*
X-20339Y-18370D01*
X-20400Y-18381D01*
X-20467Y-18384D01*
X-20495D01*
X-20517Y-18381D01*
X-20542Y-18379D01*
X-20570Y-18373D01*
X-20603Y-18367D01*
X-20636Y-18362D01*
X-20711Y-18340D01*
X-20753Y-18323D01*
X-20792Y-18306D01*
X-20831Y-18284D01*
X-20870Y-18259D01*
X-20906Y-18231D01*
X-20942Y-18198D01*
X-20944Y-18195D01*
X-20950Y-18190D01*
X-20958Y-18179D01*
X-20969Y-18162D01*
X-20983Y-18143D01*
X-20997Y-18120D01*
X-21014Y-18093D01*
X-21031Y-18059D01*
X-21047Y-18023D01*
X-21064Y-17982D01*
X-21078Y-17937D01*
X-21092Y-17890D01*
X-21103Y-17837D01*
X-21111Y-17782D01*
X-21117Y-17721D01*
X-21119Y-17657D01*
Y-17651D01*
Y-17640D01*
X-21117Y-17621D01*
Y-17593D01*
X-21114Y-17562D01*
X-21108Y-17523D01*
X-21103Y-17485D01*
X-21092Y-17440D01*
X-21081Y-17396D01*
X-21067Y-17349D01*
X-21050Y-17299D01*
X-21028Y-17251D01*
X-21006Y-17207D01*
X-20975Y-17163D01*
X-20944Y-17121D01*
X-20906Y-17085D01*
X-20903Y-17082D01*
X-20897Y-17079D01*
X-20886Y-17071D01*
X-20872Y-17060D01*
X-20856Y-17049D01*
X-20833Y-17035D01*
X-20811Y-17021D01*
X-20783Y-17007D01*
X-20753Y-16993D01*
X-20720Y-16979D01*
X-20645Y-16954D01*
X-20559Y-16935D01*
X-20514Y-16932D01*
X-20467Y-16929D01*
X-20439D01*
X-20420Y-16932D01*
D02*
G37*
G36*
X24065Y-16402D02*
X24085D01*
X24137Y-16407D01*
X24196Y-16416D01*
X24257Y-16430D01*
X24323Y-16446D01*
X24384Y-16469D01*
X24387D01*
X24393Y-16471D01*
X24401Y-16477D01*
X24412Y-16482D01*
X24440Y-16496D01*
X24476Y-16521D01*
X24518Y-16549D01*
X24559Y-16585D01*
X24598Y-16627D01*
X24634Y-16674D01*
Y-16677D01*
X24637Y-16680D01*
X24643Y-16688D01*
X24648Y-16696D01*
X24662Y-16724D01*
X24679Y-16760D01*
X24698Y-16804D01*
X24712Y-16857D01*
X24726Y-16913D01*
X24731Y-16974D01*
X24487Y-16993D01*
Y-16990D01*
Y-16985D01*
X24484Y-16977D01*
X24482Y-16963D01*
X24473Y-16932D01*
X24462Y-16890D01*
X24445Y-16846D01*
X24420Y-16802D01*
X24390Y-16760D01*
X24351Y-16721D01*
X24346Y-16718D01*
X24332Y-16707D01*
X24304Y-16691D01*
X24268Y-16674D01*
X24221Y-16657D01*
X24165Y-16641D01*
X24096Y-16630D01*
X24018Y-16627D01*
X23979D01*
X23962Y-16630D01*
X23940Y-16632D01*
X23890Y-16638D01*
X23835Y-16649D01*
X23779Y-16663D01*
X23726Y-16685D01*
X23704Y-16699D01*
X23682Y-16713D01*
X23676Y-16716D01*
X23665Y-16727D01*
X23649Y-16746D01*
X23632Y-16768D01*
X23613Y-16799D01*
X23596Y-16832D01*
X23585Y-16871D01*
X23579Y-16915D01*
Y-16921D01*
Y-16932D01*
X23582Y-16952D01*
X23588Y-16974D01*
X23596Y-17002D01*
X23610Y-17029D01*
X23626Y-17057D01*
X23651Y-17085D01*
X23654Y-17088D01*
X23668Y-17096D01*
X23679Y-17104D01*
X23690Y-17110D01*
X23707Y-17118D01*
X23726Y-17129D01*
X23751Y-17138D01*
X23779Y-17149D01*
X23810Y-17160D01*
X23846Y-17174D01*
X23885Y-17185D01*
X23929Y-17199D01*
X23979Y-17210D01*
X24035Y-17224D01*
X24037D01*
X24048Y-17226D01*
X24065Y-17229D01*
X24085Y-17235D01*
X24110Y-17240D01*
X24140Y-17249D01*
X24171Y-17257D01*
X24204Y-17265D01*
X24276Y-17285D01*
X24346Y-17304D01*
X24379Y-17315D01*
X24409Y-17326D01*
X24437Y-17335D01*
X24459Y-17346D01*
X24462D01*
X24468Y-17349D01*
X24476Y-17354D01*
X24487Y-17360D01*
X24518Y-17376D01*
X24554Y-17399D01*
X24595Y-17429D01*
X24637Y-17462D01*
X24676Y-17501D01*
X24709Y-17543D01*
X24712Y-17548D01*
X24723Y-17562D01*
X24734Y-17587D01*
X24751Y-17621D01*
X24765Y-17660D01*
X24779Y-17707D01*
X24787Y-17759D01*
X24790Y-17815D01*
Y-17818D01*
Y-17821D01*
Y-17829D01*
Y-17840D01*
X24784Y-17871D01*
X24779Y-17909D01*
X24767Y-17954D01*
X24754Y-18001D01*
X24731Y-18051D01*
X24701Y-18104D01*
Y-18106D01*
X24698Y-18109D01*
X24684Y-18126D01*
X24665Y-18151D01*
X24637Y-18179D01*
X24601Y-18212D01*
X24557Y-18248D01*
X24507Y-18281D01*
X24448Y-18312D01*
X24445D01*
X24440Y-18315D01*
X24432Y-18317D01*
X24420Y-18323D01*
X24404Y-18329D01*
X24384Y-18337D01*
X24340Y-18348D01*
X24287Y-18362D01*
X24223Y-18376D01*
X24154Y-18384D01*
X24079Y-18387D01*
X24035D01*
X24012Y-18384D01*
X23987D01*
X23960Y-18381D01*
X23926Y-18379D01*
X23857Y-18367D01*
X23785Y-18356D01*
X23713Y-18337D01*
X23643Y-18312D01*
X23640D01*
X23635Y-18309D01*
X23626Y-18304D01*
X23615Y-18298D01*
X23582Y-18281D01*
X23543Y-18256D01*
X23499Y-18223D01*
X23452Y-18184D01*
X23407Y-18137D01*
X23366Y-18084D01*
Y-18081D01*
X23360Y-18076D01*
X23357Y-18068D01*
X23349Y-18057D01*
X23343Y-18043D01*
X23335Y-18026D01*
X23316Y-17984D01*
X23296Y-17932D01*
X23279Y-17873D01*
X23268Y-17807D01*
X23263Y-17737D01*
X23502Y-17715D01*
Y-17718D01*
Y-17721D01*
X23504Y-17729D01*
Y-17740D01*
X23510Y-17765D01*
X23518Y-17801D01*
X23529Y-17837D01*
X23540Y-17879D01*
X23560Y-17918D01*
X23579Y-17954D01*
X23582Y-17957D01*
X23590Y-17968D01*
X23604Y-17987D01*
X23626Y-18007D01*
X23654Y-18032D01*
X23685Y-18057D01*
X23726Y-18081D01*
X23771Y-18104D01*
X23774D01*
X23776Y-18106D01*
X23785Y-18109D01*
X23793Y-18112D01*
X23821Y-18120D01*
X23857Y-18131D01*
X23901Y-18143D01*
X23951Y-18151D01*
X24007Y-18156D01*
X24068Y-18159D01*
X24093D01*
X24121Y-18156D01*
X24154Y-18154D01*
X24193Y-18148D01*
X24237Y-18143D01*
X24282Y-18131D01*
X24323Y-18118D01*
X24329Y-18115D01*
X24343Y-18109D01*
X24362Y-18098D01*
X24387Y-18087D01*
X24412Y-18068D01*
X24440Y-18048D01*
X24468Y-18026D01*
X24490Y-17998D01*
X24493Y-17995D01*
X24498Y-17984D01*
X24507Y-17970D01*
X24518Y-17948D01*
X24529Y-17926D01*
X24537Y-17898D01*
X24543Y-17868D01*
X24545Y-17834D01*
Y-17832D01*
Y-17818D01*
X24543Y-17801D01*
X24540Y-17779D01*
X24532Y-17757D01*
X24523Y-17729D01*
X24509Y-17701D01*
X24490Y-17676D01*
X24487Y-17673D01*
X24479Y-17665D01*
X24468Y-17654D01*
X24448Y-17637D01*
X24426Y-17621D01*
X24395Y-17601D01*
X24359Y-17582D01*
X24318Y-17565D01*
X24315Y-17562D01*
X24301Y-17560D01*
X24279Y-17551D01*
X24265Y-17548D01*
X24246Y-17543D01*
X24226Y-17535D01*
X24201Y-17529D01*
X24173Y-17521D01*
X24140Y-17512D01*
X24107Y-17504D01*
X24068Y-17493D01*
X24023Y-17482D01*
X23976Y-17471D01*
X23973D01*
X23965Y-17468D01*
X23951Y-17465D01*
X23935Y-17460D01*
X23912Y-17454D01*
X23887Y-17449D01*
X23832Y-17432D01*
X23771Y-17412D01*
X23707Y-17393D01*
X23651Y-17374D01*
X23626Y-17362D01*
X23604Y-17351D01*
X23601D01*
X23599Y-17349D01*
X23582Y-17337D01*
X23557Y-17324D01*
X23529Y-17301D01*
X23496Y-17276D01*
X23463Y-17246D01*
X23429Y-17210D01*
X23402Y-17171D01*
X23399Y-17165D01*
X23390Y-17151D01*
X23379Y-17129D01*
X23368Y-17101D01*
X23357Y-17065D01*
X23346Y-17024D01*
X23338Y-16979D01*
X23335Y-16932D01*
Y-16929D01*
Y-16927D01*
Y-16918D01*
Y-16907D01*
X23341Y-16879D01*
X23346Y-16843D01*
X23354Y-16802D01*
X23368Y-16754D01*
X23388Y-16707D01*
X23415Y-16660D01*
Y-16657D01*
X23418Y-16655D01*
X23432Y-16638D01*
X23452Y-16616D01*
X23477Y-16588D01*
X23510Y-16557D01*
X23552Y-16524D01*
X23601Y-16493D01*
X23657Y-16466D01*
X23660D01*
X23665Y-16463D01*
X23674Y-16460D01*
X23685Y-16455D01*
X23699Y-16449D01*
X23718Y-16444D01*
X23760Y-16432D01*
X23812Y-16421D01*
X23874Y-16410D01*
X23937Y-16402D01*
X24010Y-16399D01*
X24046D01*
X24065Y-16402D01*
D02*
G37*
G36*
X20567D02*
X20589D01*
X20642Y-16407D01*
X20700Y-16416D01*
X20761Y-16430D01*
X20828Y-16446D01*
X20892Y-16469D01*
X20895D01*
X20900Y-16471D01*
X20909Y-16474D01*
X20920Y-16480D01*
X20950Y-16496D01*
X20989Y-16516D01*
X21031Y-16543D01*
X21075Y-16577D01*
X21117Y-16613D01*
X21156Y-16657D01*
X21161Y-16663D01*
X21172Y-16680D01*
X21189Y-16705D01*
X21211Y-16741D01*
X21233Y-16785D01*
X21258Y-16841D01*
X21283Y-16902D01*
X21303Y-16971D01*
X21072Y-17032D01*
Y-17029D01*
X21070Y-17027D01*
X21067Y-17018D01*
X21064Y-17007D01*
X21056Y-16982D01*
X21045Y-16949D01*
X21028Y-16910D01*
X21008Y-16874D01*
X20989Y-16835D01*
X20964Y-16802D01*
X20961Y-16799D01*
X20953Y-16788D01*
X20936Y-16774D01*
X20917Y-16754D01*
X20892Y-16732D01*
X20859Y-16710D01*
X20822Y-16688D01*
X20781Y-16668D01*
X20775Y-16666D01*
X20761Y-16660D01*
X20736Y-16652D01*
X20703Y-16641D01*
X20664Y-16632D01*
X20620Y-16624D01*
X20570Y-16618D01*
X20517Y-16616D01*
X20487D01*
X20473Y-16618D01*
X20456D01*
X20414Y-16621D01*
X20367Y-16630D01*
X20314Y-16638D01*
X20264Y-16652D01*
X20215Y-16671D01*
X20209Y-16674D01*
X20192Y-16680D01*
X20170Y-16693D01*
X20142Y-16707D01*
X20109Y-16729D01*
X20073Y-16752D01*
X20040Y-16779D01*
X20009Y-16810D01*
X20006Y-16813D01*
X19995Y-16824D01*
X19981Y-16843D01*
X19965Y-16866D01*
X19945Y-16893D01*
X19926Y-16927D01*
X19906Y-16963D01*
X19887Y-17002D01*
Y-17004D01*
X19884Y-17010D01*
X19881Y-17018D01*
X19876Y-17032D01*
X19870Y-17049D01*
X19865Y-17068D01*
X19856Y-17090D01*
X19851Y-17115D01*
X19837Y-17174D01*
X19826Y-17240D01*
X19817Y-17310D01*
X19815Y-17387D01*
Y-17390D01*
Y-17399D01*
Y-17412D01*
X19817Y-17429D01*
Y-17451D01*
X19820Y-17479D01*
X19823Y-17507D01*
X19826Y-17537D01*
X19837Y-17607D01*
X19851Y-17679D01*
X19873Y-17751D01*
X19901Y-17821D01*
Y-17823D01*
X19906Y-17829D01*
X19909Y-17837D01*
X19917Y-17848D01*
X19937Y-17879D01*
X19967Y-17918D01*
X20004Y-17959D01*
X20048Y-18001D01*
X20101Y-18040D01*
X20159Y-18076D01*
X20162D01*
X20167Y-18079D01*
X20176Y-18084D01*
X20190Y-18090D01*
X20203Y-18095D01*
X20223Y-18101D01*
X20267Y-18118D01*
X20323Y-18131D01*
X20384Y-18145D01*
X20450Y-18156D01*
X20520Y-18159D01*
X20548D01*
X20564Y-18156D01*
X20581D01*
X20623Y-18151D01*
X20673Y-18145D01*
X20725Y-18134D01*
X20784Y-18118D01*
X20842Y-18098D01*
X20845D01*
X20850Y-18095D01*
X20856Y-18093D01*
X20867Y-18087D01*
X20897Y-18073D01*
X20931Y-18057D01*
X20970Y-18037D01*
X21011Y-18015D01*
X21050Y-17990D01*
X21083Y-17962D01*
Y-17601D01*
X20517D01*
Y-17374D01*
X21333D01*
Y-18087D01*
X21331Y-18090D01*
X21325Y-18093D01*
X21314Y-18101D01*
X21300Y-18112D01*
X21283Y-18123D01*
X21264Y-18137D01*
X21239Y-18154D01*
X21214Y-18170D01*
X21156Y-18206D01*
X21089Y-18245D01*
X21020Y-18281D01*
X20945Y-18312D01*
X20942D01*
X20936Y-18315D01*
X20925Y-18317D01*
X20911Y-18323D01*
X20892Y-18329D01*
X20870Y-18337D01*
X20845Y-18342D01*
X20820Y-18348D01*
X20759Y-18362D01*
X20689Y-18376D01*
X20614Y-18384D01*
X20537Y-18387D01*
X20509D01*
X20489Y-18384D01*
X20464D01*
X20434Y-18381D01*
X20401Y-18376D01*
X20364Y-18373D01*
X20284Y-18356D01*
X20198Y-18337D01*
X20109Y-18306D01*
X20065Y-18290D01*
X20020Y-18268D01*
X20017Y-18265D01*
X20009Y-18262D01*
X19998Y-18254D01*
X19981Y-18245D01*
X19962Y-18231D01*
X19942Y-18218D01*
X19890Y-18179D01*
X19834Y-18129D01*
X19776Y-18068D01*
X19720Y-17998D01*
X19670Y-17918D01*
Y-17915D01*
X19665Y-17907D01*
X19659Y-17895D01*
X19651Y-17876D01*
X19643Y-17857D01*
X19634Y-17829D01*
X19623Y-17801D01*
X19612Y-17768D01*
X19601Y-17732D01*
X19590Y-17690D01*
X19582Y-17648D01*
X19573Y-17604D01*
X19559Y-17507D01*
X19554Y-17404D01*
Y-17401D01*
Y-17390D01*
Y-17376D01*
X19557Y-17357D01*
Y-17332D01*
X19559Y-17301D01*
X19565Y-17271D01*
X19568Y-17235D01*
X19576Y-17196D01*
X19582Y-17154D01*
X19604Y-17065D01*
X19631Y-16974D01*
X19670Y-16882D01*
X19673Y-16879D01*
X19676Y-16871D01*
X19681Y-16860D01*
X19693Y-16843D01*
X19704Y-16821D01*
X19718Y-16799D01*
X19756Y-16746D01*
X19804Y-16685D01*
X19862Y-16627D01*
X19929Y-16568D01*
X19967Y-16543D01*
X20006Y-16518D01*
X20009Y-16516D01*
X20017Y-16513D01*
X20028Y-16507D01*
X20045Y-16499D01*
X20067Y-16491D01*
X20092Y-16480D01*
X20120Y-16469D01*
X20153Y-16457D01*
X20190Y-16446D01*
X20228Y-16438D01*
X20270Y-16427D01*
X20314Y-16419D01*
X20412Y-16405D01*
X20462Y-16399D01*
X20550D01*
X20567Y-16402D01*
D02*
G37*
G36*
X23085Y-16660D02*
X22452D01*
Y-18354D01*
X22197D01*
Y-16660D01*
X21564D01*
Y-16432D01*
X23085D01*
Y-16660D01*
D02*
G37*
G36*
X19179Y-18354D02*
X18910D01*
Y-18084D01*
X19179D01*
Y-18354D01*
D02*
G37*
%LPC*%
G36*
X-12893Y-17124D02*
X-12907D01*
X-12918Y-17126D01*
X-12949Y-17129D01*
X-12985Y-17140D01*
X-13027Y-17154D01*
X-13071Y-17179D01*
X-13116Y-17210D01*
X-13138Y-17232D01*
X-13157Y-17254D01*
Y-17257D01*
X-13163Y-17260D01*
X-13165Y-17268D01*
X-13174Y-17279D01*
X-13182Y-17293D01*
X-13190Y-17310D01*
X-13199Y-17329D01*
X-13210Y-17351D01*
X-13221Y-17379D01*
X-13229Y-17410D01*
X-13238Y-17443D01*
X-13246Y-17479D01*
X-13252Y-17518D01*
X-13257Y-17562D01*
X-13263Y-17610D01*
Y-17660D01*
Y-17662D01*
Y-17671D01*
Y-17684D01*
X-13260Y-17704D01*
Y-17726D01*
X-13257Y-17751D01*
X-13249Y-17809D01*
X-13235Y-17873D01*
X-13215Y-17940D01*
X-13188Y-18004D01*
X-13171Y-18032D01*
X-13152Y-18059D01*
X-13149D01*
X-13146Y-18065D01*
X-13132Y-18079D01*
X-13107Y-18101D01*
X-13077Y-18123D01*
X-13038Y-18148D01*
X-12991Y-18170D01*
X-12941Y-18184D01*
X-12913Y-18187D01*
X-12885Y-18190D01*
X-12871D01*
X-12860Y-18187D01*
X-12830Y-18184D01*
X-12793Y-18173D01*
X-12752Y-18159D01*
X-12707Y-18137D01*
X-12663Y-18106D01*
X-12641Y-18087D01*
X-12621Y-18065D01*
Y-18062D01*
X-12616Y-18059D01*
X-12610Y-18051D01*
X-12605Y-18040D01*
X-12596Y-18026D01*
X-12585Y-18012D01*
X-12577Y-17990D01*
X-12566Y-17968D01*
X-12555Y-17943D01*
X-12546Y-17915D01*
X-12535Y-17882D01*
X-12527Y-17848D01*
X-12521Y-17809D01*
X-12516Y-17771D01*
X-12510Y-17726D01*
Y-17679D01*
Y-17676D01*
Y-17665D01*
Y-17651D01*
X-12513Y-17632D01*
Y-17610D01*
X-12516Y-17582D01*
X-12519Y-17551D01*
X-12524Y-17518D01*
X-12538Y-17451D01*
X-12558Y-17382D01*
X-12585Y-17315D01*
X-12602Y-17288D01*
X-12621Y-17260D01*
Y-17257D01*
X-12627Y-17254D01*
X-12641Y-17238D01*
X-12666Y-17215D01*
X-12696Y-17190D01*
X-12735Y-17165D01*
X-12782Y-17146D01*
X-12835Y-17129D01*
X-12863Y-17126D01*
X-12893Y-17124D01*
D02*
G37*
G36*
X-18943Y-17115D02*
X-18957D01*
X-18968Y-17118D01*
X-18996Y-17124D01*
X-19032Y-17132D01*
X-19073Y-17149D01*
X-19118Y-17174D01*
X-19143Y-17190D01*
X-19165Y-17210D01*
X-19187Y-17232D01*
X-19209Y-17257D01*
Y-17260D01*
X-19215Y-17263D01*
X-19220Y-17271D01*
X-19226Y-17282D01*
X-19234Y-17299D01*
X-19245Y-17315D01*
X-19257Y-17337D01*
X-19265Y-17360D01*
X-19276Y-17387D01*
X-19287Y-17418D01*
X-19295Y-17451D01*
X-19306Y-17487D01*
X-19312Y-17529D01*
X-19318Y-17571D01*
X-19323Y-17615D01*
Y-17665D01*
Y-17668D01*
Y-17676D01*
Y-17690D01*
X-19320Y-17709D01*
Y-17732D01*
X-19318Y-17757D01*
X-19309Y-17815D01*
X-19295Y-17882D01*
X-19279Y-17945D01*
X-19251Y-18009D01*
X-19234Y-18037D01*
X-19215Y-18062D01*
X-19209Y-18068D01*
X-19195Y-18081D01*
X-19173Y-18104D01*
X-19143Y-18126D01*
X-19104Y-18148D01*
X-19059Y-18170D01*
X-19009Y-18184D01*
X-18982Y-18187D01*
X-18954Y-18190D01*
X-18937D01*
X-18926Y-18187D01*
X-18898Y-18181D01*
X-18860Y-18173D01*
X-18818Y-18156D01*
X-18773Y-18134D01*
X-18729Y-18101D01*
X-18707Y-18081D01*
X-18685Y-18059D01*
Y-18057D01*
X-18679Y-18054D01*
X-18674Y-18045D01*
X-18668Y-18034D01*
X-18657Y-18020D01*
X-18649Y-18001D01*
X-18637Y-17982D01*
X-18626Y-17957D01*
X-18618Y-17932D01*
X-18607Y-17898D01*
X-18596Y-17865D01*
X-18587Y-17829D01*
X-18582Y-17787D01*
X-18576Y-17743D01*
X-18571Y-17696D01*
Y-17646D01*
Y-17643D01*
Y-17635D01*
Y-17621D01*
X-18574Y-17601D01*
Y-17579D01*
X-18576Y-17554D01*
X-18585Y-17496D01*
X-18599Y-17432D01*
X-18618Y-17368D01*
X-18646Y-17304D01*
X-18662Y-17274D01*
X-18682Y-17249D01*
Y-17246D01*
X-18687Y-17243D01*
X-18701Y-17226D01*
X-18723Y-17207D01*
X-18754Y-17182D01*
X-18793Y-17157D01*
X-18837Y-17135D01*
X-18887Y-17121D01*
X-18915Y-17118D01*
X-18943Y-17115D01*
D02*
G37*
G36*
X-11350Y-17124D02*
X-11367D01*
X-11378Y-17126D01*
X-11408Y-17129D01*
X-11444Y-17138D01*
X-11489Y-17151D01*
X-11536Y-17171D01*
X-11580Y-17199D01*
X-11625Y-17235D01*
X-11630Y-17240D01*
X-11641Y-17254D01*
X-11661Y-17279D01*
X-11680Y-17312D01*
X-11702Y-17351D01*
X-11722Y-17401D01*
X-11739Y-17460D01*
X-11747Y-17523D01*
X-10967D01*
Y-17521D01*
Y-17515D01*
X-10970Y-17507D01*
Y-17496D01*
X-10975Y-17462D01*
X-10983Y-17426D01*
X-10997Y-17382D01*
X-11011Y-17340D01*
X-11033Y-17299D01*
X-11058Y-17263D01*
Y-17260D01*
X-11064Y-17257D01*
X-11078Y-17240D01*
X-11103Y-17218D01*
X-11136Y-17193D01*
X-11178Y-17168D01*
X-11228Y-17146D01*
X-11286Y-17129D01*
X-11317Y-17126D01*
X-11350Y-17124D01*
D02*
G37*
G36*
X-14942D02*
X-14959D01*
X-14973Y-17126D01*
X-15003Y-17129D01*
X-15045Y-17140D01*
X-15092Y-17157D01*
X-15142Y-17179D01*
X-15189Y-17213D01*
X-15214Y-17235D01*
X-15237Y-17257D01*
Y-17260D01*
X-15242Y-17263D01*
X-15248Y-17271D01*
X-15256Y-17282D01*
X-15264Y-17296D01*
X-15273Y-17312D01*
X-15284Y-17335D01*
X-15295Y-17357D01*
X-15306Y-17385D01*
X-15317Y-17412D01*
X-15325Y-17446D01*
X-15334Y-17482D01*
X-15342Y-17521D01*
X-15348Y-17562D01*
X-15350Y-17610D01*
X-15353Y-17657D01*
Y-17660D01*
Y-17668D01*
Y-17682D01*
X-15350Y-17701D01*
Y-17723D01*
X-15348Y-17748D01*
X-15339Y-17807D01*
X-15325Y-17873D01*
X-15303Y-17940D01*
X-15275Y-18004D01*
X-15256Y-18032D01*
X-15237Y-18059D01*
X-15234D01*
X-15231Y-18065D01*
X-15214Y-18079D01*
X-15189Y-18101D01*
X-15156Y-18123D01*
X-15114Y-18148D01*
X-15064Y-18170D01*
X-15006Y-18184D01*
X-14976Y-18187D01*
X-14942Y-18190D01*
X-14926D01*
X-14912Y-18187D01*
X-14881Y-18181D01*
X-14840Y-18173D01*
X-14795Y-18156D01*
X-14745Y-18134D01*
X-14698Y-18101D01*
X-14673Y-18079D01*
X-14651Y-18057D01*
X-14648Y-18054D01*
X-14645Y-18051D01*
X-14640Y-18043D01*
X-14631Y-18032D01*
X-14623Y-18018D01*
X-14612Y-18001D01*
X-14601Y-17979D01*
X-14590Y-17957D01*
X-14579Y-17929D01*
X-14570Y-17898D01*
X-14559Y-17865D01*
X-14551Y-17829D01*
X-14543Y-17787D01*
X-14537Y-17746D01*
X-14531Y-17698D01*
Y-17648D01*
Y-17646D01*
Y-17637D01*
Y-17623D01*
X-14534Y-17607D01*
Y-17585D01*
X-14537Y-17560D01*
X-14545Y-17501D01*
X-14559Y-17440D01*
X-14581Y-17374D01*
X-14612Y-17312D01*
X-14629Y-17282D01*
X-14651Y-17257D01*
Y-17254D01*
X-14656Y-17251D01*
X-14673Y-17235D01*
X-14698Y-17215D01*
X-14731Y-17190D01*
X-14773Y-17165D01*
X-14823Y-17143D01*
X-14878Y-17129D01*
X-14909Y-17126D01*
X-14942Y-17124D01*
D02*
G37*
G36*
X-20467D02*
X-20484D01*
X-20497Y-17126D01*
X-20528Y-17129D01*
X-20570Y-17140D01*
X-20617Y-17157D01*
X-20667Y-17179D01*
X-20714Y-17213D01*
X-20739Y-17235D01*
X-20761Y-17257D01*
Y-17260D01*
X-20767Y-17263D01*
X-20772Y-17271D01*
X-20781Y-17282D01*
X-20789Y-17296D01*
X-20797Y-17312D01*
X-20808Y-17335D01*
X-20820Y-17357D01*
X-20831Y-17385D01*
X-20842Y-17412D01*
X-20850Y-17446D01*
X-20858Y-17482D01*
X-20867Y-17521D01*
X-20872Y-17562D01*
X-20875Y-17610D01*
X-20878Y-17657D01*
Y-17660D01*
Y-17668D01*
Y-17682D01*
X-20875Y-17701D01*
Y-17723D01*
X-20872Y-17748D01*
X-20864Y-17807D01*
X-20850Y-17873D01*
X-20828Y-17940D01*
X-20800Y-18004D01*
X-20781Y-18032D01*
X-20761Y-18059D01*
X-20758D01*
X-20756Y-18065D01*
X-20739Y-18079D01*
X-20714Y-18101D01*
X-20681Y-18123D01*
X-20639Y-18148D01*
X-20589Y-18170D01*
X-20531Y-18184D01*
X-20500Y-18187D01*
X-20467Y-18190D01*
X-20450D01*
X-20436Y-18187D01*
X-20406Y-18181D01*
X-20364Y-18173D01*
X-20320Y-18156D01*
X-20270Y-18134D01*
X-20223Y-18101D01*
X-20198Y-18079D01*
X-20175Y-18057D01*
X-20173Y-18054D01*
X-20170Y-18051D01*
X-20164Y-18043D01*
X-20156Y-18032D01*
X-20148Y-18018D01*
X-20137Y-18001D01*
X-20125Y-17979D01*
X-20114Y-17957D01*
X-20103Y-17929D01*
X-20095Y-17898D01*
X-20084Y-17865D01*
X-20076Y-17829D01*
X-20067Y-17787D01*
X-20062Y-17746D01*
X-20056Y-17698D01*
Y-17648D01*
Y-17646D01*
Y-17637D01*
Y-17623D01*
X-20059Y-17607D01*
Y-17585D01*
X-20062Y-17560D01*
X-20070Y-17501D01*
X-20084Y-17440D01*
X-20106Y-17374D01*
X-20137Y-17312D01*
X-20153Y-17282D01*
X-20175Y-17257D01*
Y-17254D01*
X-20181Y-17251D01*
X-20198Y-17235D01*
X-20223Y-17215D01*
X-20256Y-17190D01*
X-20298Y-17165D01*
X-20348Y-17143D01*
X-20403Y-17129D01*
X-20434Y-17126D01*
X-20467Y-17124D01*
D02*
G37*
%LPD*%
D15*
X0Y0D02*
X18540D01*
Y50290D01*
X0D02*
X18540D01*
X0Y0D02*
Y50290D01*
D16*
X12297Y2032D02*
D03*
X6397D02*
D03*
D17*
X10450Y25050D02*
D03*
X11400D02*
D03*
X12350D02*
D03*
Y27250D02*
D03*
X10450D02*
D03*
D18*
X7240Y36170D02*
D03*
Y35270D02*
D03*
X14300Y40250D02*
D03*
Y39350D02*
D03*
X13260Y41940D02*
D03*
Y41040D02*
D03*
X14313Y41060D02*
D03*
Y41960D02*
D03*
X11700Y44750D02*
D03*
Y43850D02*
D03*
X12800D02*
D03*
Y44750D02*
D03*
X6000Y32250D02*
D03*
Y31350D02*
D03*
X7100Y32250D02*
D03*
Y31350D02*
D03*
X10643Y31450D02*
D03*
Y32350D02*
D03*
X11800Y32050D02*
D03*
Y31150D02*
D03*
X13000Y31950D02*
D03*
Y32850D02*
D03*
X14600Y34650D02*
D03*
Y33750D02*
D03*
X13017Y33700D02*
D03*
Y34600D02*
D03*
X6600Y24250D02*
D03*
Y25150D02*
D03*
D19*
X9500Y41402D02*
D03*
X11700Y42352D02*
D03*
Y40452D02*
D03*
D20*
X1155Y48363D02*
D03*
X2655Y45363D02*
D03*
X1155D02*
D03*
X2655Y48363D02*
D03*
D21*
X5100Y44300D02*
D03*
X6600D02*
D03*
D22*
X14326Y3112D02*
D03*
Y1612D02*
D03*
X4369D02*
D03*
Y3112D02*
D03*
D23*
X7597Y16244D02*
D03*
X8097D02*
D03*
X8597D02*
D03*
X9097D02*
D03*
X9597D02*
D03*
X10097D02*
D03*
X10597D02*
D03*
X11097D02*
D03*
Y21094D02*
D03*
X10597D02*
D03*
X10097D02*
D03*
X9597D02*
D03*
X9097D02*
D03*
X8597D02*
D03*
X8097D02*
D03*
X7597D02*
D03*
D24*
X11772Y16919D02*
D03*
Y17419D02*
D03*
Y17919D02*
D03*
Y18419D02*
D03*
Y18919D02*
D03*
Y19419D02*
D03*
Y19919D02*
D03*
Y20419D02*
D03*
X6922D02*
D03*
Y19919D02*
D03*
Y19419D02*
D03*
Y18919D02*
D03*
Y18419D02*
D03*
Y17919D02*
D03*
Y17419D02*
D03*
Y16919D02*
D03*
D25*
X9347Y18669D02*
D03*
D26*
X6547Y14419D02*
D03*
X7347D02*
D03*
X8147D02*
D03*
X8947D02*
D03*
X9747D02*
D03*
X10547D02*
D03*
X11347D02*
D03*
X12147D02*
D03*
Y22919D02*
D03*
X11347D02*
D03*
X10547D02*
D03*
X9747D02*
D03*
X8947D02*
D03*
X8147D02*
D03*
X7347D02*
D03*
X6547D02*
D03*
D27*
X13597Y15869D02*
D03*
Y17469D02*
D03*
Y16669D02*
D03*
Y18269D02*
D03*
Y19069D02*
D03*
Y19869D02*
D03*
Y20669D02*
D03*
Y21469D02*
D03*
X5097D02*
D03*
Y20669D02*
D03*
Y19869D02*
D03*
Y19069D02*
D03*
Y18269D02*
D03*
Y17469D02*
D03*
Y16669D02*
D03*
Y15869D02*
D03*
D28*
X13500Y9090D02*
D03*
D29*
X12550Y10390D02*
D03*
X13500D02*
D03*
X14450D02*
D03*
Y7790D02*
D03*
X13500D02*
D03*
X12550D02*
D03*
D30*
X6387Y4600D02*
D03*
X7012D02*
D03*
D31*
X14400Y32570D02*
D03*
Y30430D02*
D03*
D32*
X6550Y9200D02*
D03*
X9050D02*
D03*
D33*
X8017Y48842D02*
D03*
X10017D02*
D03*
D34*
X7717Y46142D02*
D03*
X8367D02*
D03*
X9017D02*
D03*
X9667D02*
D03*
X10317D02*
D03*
D35*
X8190Y36150D02*
D03*
Y35250D02*
D03*
X11100Y8000D02*
D03*
Y7100D02*
D03*
X8900Y27900D02*
D03*
Y27000D02*
D03*
Y25850D02*
D03*
Y24950D02*
D03*
X13926Y25798D02*
D03*
Y26698D02*
D03*
X13900Y23682D02*
D03*
Y24582D02*
D03*
X9400Y32150D02*
D03*
Y31250D02*
D03*
X13000Y31084D02*
D03*
Y30184D02*
D03*
X8300Y29830D02*
D03*
Y28930D02*
D03*
X11800Y38250D02*
D03*
Y37350D02*
D03*
D36*
X6350Y43100D02*
D03*
X5450D02*
D03*
D37*
X11020Y11190D02*
D03*
X11920D02*
D03*
Y12060D02*
D03*
X11020D02*
D03*
X10850Y6000D02*
D03*
X9950D02*
D03*
X11400Y28600D02*
D03*
X12300D02*
D03*
X5550Y36100D02*
D03*
X4650D02*
D03*
X13750Y11900D02*
D03*
X14650D02*
D03*
X8250Y7600D02*
D03*
X9150D02*
D03*
X7371D02*
D03*
X6471D02*
D03*
X7250Y5500D02*
D03*
X6350D02*
D03*
D38*
X17374Y44094D02*
D03*
D39*
X14834D02*
D03*
Y46634D02*
D03*
X17374D02*
D03*
Y49174D02*
D03*
D40*
X14525Y6050D02*
D03*
D41*
X13255D02*
D03*
D42*
X5517Y48842D02*
D03*
X12517D02*
D03*
D43*
X6517Y46142D02*
D03*
X11517D02*
D03*
D44*
X1651Y38862D02*
D03*
Y36322D02*
D03*
Y33782D02*
D03*
Y31242D02*
D03*
Y28702D02*
D03*
Y26162D02*
D03*
Y23622D02*
D03*
Y21082D02*
D03*
Y18542D02*
D03*
Y16002D02*
D03*
Y13462D02*
D03*
Y10922D02*
D03*
Y8382D02*
D03*
Y5842D02*
D03*
X16891Y38862D02*
D03*
Y36322D02*
D03*
Y33782D02*
D03*
Y31242D02*
D03*
Y28702D02*
D03*
Y26162D02*
D03*
Y23622D02*
D03*
Y21082D02*
D03*
Y18542D02*
D03*
Y16002D02*
D03*
Y13462D02*
D03*
Y10922D02*
D03*
Y8382D02*
D03*
Y5842D02*
D03*
D45*
X1651Y41402D02*
D03*
X16891D02*
D03*
D46*
X5570Y10230D02*
D03*
X6790Y21050D02*
D03*
X8520Y36928D02*
D03*
X8940Y36150D02*
D03*
X3260Y20040D02*
D03*
X2850Y19700D02*
D03*
X2330Y19760D02*
D03*
X3920Y20960D02*
D03*
X4150Y21580D02*
D03*
X6420Y42340D02*
D03*
X5770Y40700D02*
D03*
X11143Y13229D02*
D03*
X12300Y12950D02*
D03*
X14490Y9610D02*
D03*
X12540Y9700D02*
D03*
X11020Y10410D02*
D03*
X12500Y11030D02*
D03*
X9730Y11210D02*
D03*
X7980Y17400D02*
D03*
X7920Y20090D02*
D03*
X10680Y20160D02*
D03*
X9347Y18669D02*
D03*
X10760Y17910D02*
D03*
X9090Y15700D02*
D03*
X9636Y15680D02*
D03*
X13020Y11900D02*
D03*
X15320Y10890D02*
D03*
X14460Y8480D02*
D03*
X12770Y8500D02*
D03*
X11100Y9430D02*
D03*
X11880Y4480D02*
D03*
X7730Y3400D02*
D03*
X7717Y4130D02*
D03*
X7240Y6220D02*
D03*
X9560Y4570D02*
D03*
X9380Y6010D02*
D03*
X13500Y1570D02*
D03*
X3160Y1110D02*
D03*
X4844Y8204D02*
D03*
X5831Y14410D02*
D03*
X5097Y15287D02*
D03*
X8947Y21847D02*
D03*
X10547Y22024D02*
D03*
X11071Y21929D02*
D03*
X12588Y21242D02*
D03*
X12553Y20287D02*
D03*
X11890Y21520D02*
D03*
X4010Y17469D02*
D03*
X3720Y16930D02*
D03*
X6110Y20250D02*
D03*
X3420Y31260D02*
D03*
X2370Y22550D02*
D03*
X5010Y30280D02*
D03*
X6521Y28450D02*
D03*
X4080Y31850D02*
D03*
X6040Y34380D02*
D03*
X6180Y36050D02*
D03*
X3930Y36060D02*
D03*
X8330Y33400D02*
D03*
X5990Y32910D02*
D03*
X9410Y32830D02*
D03*
X10650Y32950D02*
D03*
X11800Y32700D02*
D03*
X14570Y31480D02*
D03*
X13670Y30230D02*
D03*
X11790Y30500D02*
D03*
X11010Y30440D02*
D03*
X9390Y30630D02*
D03*
X7100Y30680D02*
D03*
X10660Y28390D02*
D03*
X13820Y27450D02*
D03*
X13850Y25220D02*
D03*
X12260Y26180D02*
D03*
X7740Y25860D02*
D03*
X12340Y32860D02*
D03*
X11990Y35670D02*
D03*
X14570Y36030D02*
D03*
X15000Y36540D02*
D03*
X11840Y36750D02*
D03*
X11720Y38960D02*
D03*
X2650Y46480D02*
D03*
X1155Y49485D02*
D03*
X2650Y49470D02*
D03*
X14570Y23650D02*
D03*
X14850Y22990D02*
D03*
X14960Y22470D02*
D03*
X8390Y6580D02*
D03*
X7090Y32930D02*
D03*
X7410Y26720D02*
D03*
X4110Y26530D02*
D03*
X9820Y22090D02*
D03*
X14600Y16760D02*
D03*
X15720Y17150D02*
D03*
X15330Y18110D02*
D03*
X14230Y14950D02*
D03*
X15420Y15370D02*
D03*
X6230Y19470D02*
D03*
X10030Y39250D02*
D03*
X10550Y38830D02*
D03*
X10630Y41410D02*
D03*
X8880Y44990D02*
D03*
X9800D02*
D03*
X6960Y43130D02*
D03*
X7460Y44320D02*
D03*
X13110Y45440D02*
D03*
X8190Y44930D02*
D03*
X3630Y44940D02*
D03*
X7230Y24240D02*
D03*
X7790Y25150D02*
D03*
X7720Y24550D02*
D03*
X15020Y32950D02*
D03*
X15110Y41170D02*
D03*
X4270Y37500D02*
D03*
X14900Y38590D02*
D03*
X4369Y720D02*
D03*
X9580Y13050D02*
D03*
X14150Y42710D02*
D03*
X13280Y42610D02*
D03*
X4620Y6995D02*
D03*
X1730Y2320D02*
D03*
X13650Y28900D02*
D03*
X13004Y39800D02*
D03*
X10600Y3350D02*
D03*
X1200Y46500D02*
D03*
X9530Y40370D02*
D03*
X10490Y43630D02*
D03*
X7870Y28320D02*
D03*
X8300Y30350D02*
D03*
X10720Y47050D02*
D03*
X8000Y729D02*
D03*
X10570Y1090D02*
D03*
X760Y47070D02*
D03*
X1790Y49640D02*
D03*
X4230Y49630D02*
D03*
X4960Y47220D02*
D03*
X700Y43750D02*
D03*
X4530Y43180D02*
D03*
X3550Y40520D02*
D03*
X700Y40000D02*
D03*
Y37490D02*
D03*
Y35030D02*
D03*
X3670Y34710D02*
D03*
X5660Y37080D02*
D03*
X3840Y38690D02*
D03*
X5860Y38490D02*
D03*
X680Y29910D02*
D03*
X660Y32310D02*
D03*
X4360Y28960D02*
D03*
X5590Y28920D02*
D03*
X6580Y30410D02*
D03*
X7110Y33730D02*
D03*
X670Y22260D02*
D03*
X650Y19820D02*
D03*
X590Y17210D02*
D03*
X2420Y17320D02*
D03*
X610Y14760D02*
D03*
X3880Y16050D02*
D03*
Y14610D02*
D03*
X5650Y13510D02*
D03*
X530Y12080D02*
D03*
X2630Y11810D02*
D03*
X740Y9710D02*
D03*
X3920Y12390D02*
D03*
X2550Y7160D02*
D03*
X700Y4860D02*
D03*
X5130Y3920D02*
D03*
X5097Y729D02*
D03*
X730Y680D02*
D03*
X5517Y6340D02*
D03*
X13550Y620D02*
D03*
X15940Y610D02*
D03*
X17830Y650D02*
D03*
X17850Y12060D02*
D03*
X17770Y14780D02*
D03*
X17800Y17270D02*
D03*
X17740Y19970D02*
D03*
X15970Y22040D02*
D03*
X15980Y24870D02*
D03*
X17890Y27650D02*
D03*
X17790Y32400D02*
D03*
X17820Y30000D02*
D03*
X17800Y35090D02*
D03*
X17860Y37540D02*
D03*
X9190Y36930D02*
D03*
X8130Y34310D02*
D03*
X12200Y33670D02*
D03*
X10040Y34200D02*
D03*
X10760Y36130D02*
D03*
X10360Y40010D02*
D03*
X10550Y42300D02*
D03*
X12840Y43140D02*
D03*
X13810Y49560D02*
D03*
X16050Y49610D02*
D03*
X16110Y47670D02*
D03*
X13530Y47660D02*
D03*
M02*
