G04*
G04 #@! TF.GenerationSoftware,Altium Limited,Altium Designer,18.1.9 (240)*
G04*
G04 Layer_Physical_Order=2*
G04 Layer_Color=36540*
%FSLAX43Y43*%
%MOMM*%
G71*
G01*
G75*
%ADD15C,0.100*%
%ADD74R,1.500X1.500*%
%ADD75C,1.500*%
%ADD76R,1.000X1.500*%
%ADD77O,1.000X1.500*%
%ADD78O,1.200X1.900*%
%ADD79C,1.850*%
%ADD81C,0.400*%
G36*
X16730Y49764D02*
X16614Y49613D01*
X16526Y49402D01*
X16496Y49174D01*
X16526Y48947D01*
X16614Y48736D01*
X16753Y48554D01*
X16935Y48414D01*
X17146Y48327D01*
X17374Y48297D01*
X17601Y48327D01*
X17812Y48414D01*
X17994Y48554D01*
X18014Y48580D01*
X18134Y48539D01*
Y47269D01*
X18014Y47229D01*
X17994Y47255D01*
X17812Y47394D01*
X17601Y47482D01*
X17374Y47512D01*
X17146Y47482D01*
X16935Y47394D01*
X16753Y47255D01*
X16614Y47073D01*
X16526Y46862D01*
X16496Y46634D01*
X16526Y46407D01*
X16614Y46196D01*
X16753Y46014D01*
X16935Y45874D01*
X17146Y45787D01*
X17374Y45757D01*
X17601Y45787D01*
X17812Y45874D01*
X17994Y46014D01*
X18014Y46040D01*
X18134Y45999D01*
Y44964D01*
X16504D01*
Y43224D01*
X18134D01*
Y39388D01*
X18014Y39359D01*
X17919Y39537D01*
X17245Y38862D01*
X17919Y38187D01*
X18014Y38365D01*
X18134Y38336D01*
Y408D01*
X8304D01*
X8287Y428D01*
X8250Y528D01*
X8301Y604D01*
X8326Y729D01*
X8301Y854D01*
X8231Y960D01*
X8125Y1030D01*
X8000Y1055D01*
X7875Y1030D01*
X7769Y960D01*
X7699Y854D01*
X7674Y729D01*
X7699Y604D01*
X7750Y528D01*
X7713Y428D01*
X7696Y408D01*
X408D01*
Y33256D01*
X528Y33285D01*
X623Y33107D01*
X1297Y33782D01*
X623Y34457D01*
X528Y34279D01*
X408Y34308D01*
Y49884D01*
X960D01*
X997Y49764D01*
X924Y49716D01*
X854Y49610D01*
X829Y49485D01*
X854Y49360D01*
X924Y49254D01*
X1030Y49184D01*
X1155Y49159D01*
X1280Y49184D01*
X1386Y49254D01*
X1456Y49360D01*
X1481Y49485D01*
X1456Y49610D01*
X1386Y49716D01*
X1313Y49764D01*
X1350Y49884D01*
X4762D01*
X4822Y49764D01*
X4731Y49646D01*
X4640Y49427D01*
X4609Y49192D01*
Y48492D01*
X4640Y48257D01*
X4725Y48053D01*
X5340Y48669D01*
X5517Y48492D01*
X5694Y48669D01*
X6309Y48053D01*
X6394Y48257D01*
X6425Y48492D01*
Y49192D01*
X6394Y49427D01*
X6303Y49646D01*
X6212Y49764D01*
X6272Y49884D01*
X11762D01*
X11822Y49764D01*
X11731Y49646D01*
X11640Y49427D01*
X11609Y49192D01*
Y48492D01*
X11640Y48257D01*
X11725Y48053D01*
X12340Y48669D01*
X12517Y48492D01*
X12694Y48669D01*
X13309Y48053D01*
X13394Y48257D01*
X13425Y48492D01*
Y49192D01*
X13394Y49427D01*
X13303Y49646D01*
X13212Y49764D01*
X13272Y49884D01*
X16686D01*
X16730Y49764D01*
D02*
G37*
G36*
X20567Y-16402D02*
X20589D01*
X20642Y-16407D01*
X20700Y-16416D01*
X20761Y-16430D01*
X20828Y-16446D01*
X20892Y-16469D01*
X20895D01*
X20900Y-16471D01*
X20909Y-16474D01*
X20920Y-16480D01*
X20950Y-16496D01*
X20989Y-16516D01*
X21031Y-16543D01*
X21075Y-16577D01*
X21117Y-16613D01*
X21156Y-16657D01*
X21161Y-16663D01*
X21172Y-16680D01*
X21189Y-16705D01*
X21211Y-16741D01*
X21233Y-16785D01*
X21258Y-16841D01*
X21283Y-16902D01*
X21303Y-16971D01*
X21072Y-17032D01*
Y-17029D01*
X21070Y-17027D01*
X21067Y-17018D01*
X21064Y-17007D01*
X21056Y-16982D01*
X21045Y-16949D01*
X21028Y-16910D01*
X21008Y-16874D01*
X20989Y-16835D01*
X20964Y-16802D01*
X20961Y-16799D01*
X20953Y-16788D01*
X20936Y-16774D01*
X20917Y-16754D01*
X20892Y-16732D01*
X20859Y-16710D01*
X20822Y-16688D01*
X20781Y-16668D01*
X20775Y-16666D01*
X20761Y-16660D01*
X20736Y-16652D01*
X20703Y-16641D01*
X20664Y-16632D01*
X20620Y-16624D01*
X20570Y-16618D01*
X20517Y-16616D01*
X20487D01*
X20473Y-16618D01*
X20456D01*
X20414Y-16621D01*
X20367Y-16630D01*
X20314Y-16638D01*
X20264Y-16652D01*
X20215Y-16671D01*
X20209Y-16674D01*
X20192Y-16680D01*
X20170Y-16693D01*
X20142Y-16707D01*
X20109Y-16729D01*
X20073Y-16752D01*
X20040Y-16779D01*
X20009Y-16810D01*
X20006Y-16813D01*
X19995Y-16824D01*
X19981Y-16843D01*
X19965Y-16866D01*
X19945Y-16893D01*
X19926Y-16927D01*
X19906Y-16963D01*
X19887Y-17002D01*
Y-17004D01*
X19884Y-17010D01*
X19881Y-17018D01*
X19876Y-17032D01*
X19870Y-17049D01*
X19865Y-17068D01*
X19856Y-17090D01*
X19851Y-17115D01*
X19837Y-17174D01*
X19826Y-17240D01*
X19817Y-17310D01*
X19815Y-17387D01*
Y-17390D01*
Y-17399D01*
Y-17412D01*
X19817Y-17429D01*
Y-17451D01*
X19820Y-17479D01*
X19823Y-17507D01*
X19826Y-17537D01*
X19837Y-17607D01*
X19851Y-17679D01*
X19873Y-17751D01*
X19901Y-17821D01*
Y-17823D01*
X19906Y-17829D01*
X19909Y-17837D01*
X19917Y-17848D01*
X19937Y-17879D01*
X19967Y-17918D01*
X20004Y-17959D01*
X20048Y-18001D01*
X20101Y-18040D01*
X20159Y-18076D01*
X20162D01*
X20167Y-18079D01*
X20176Y-18084D01*
X20190Y-18090D01*
X20203Y-18095D01*
X20223Y-18101D01*
X20267Y-18118D01*
X20323Y-18131D01*
X20384Y-18145D01*
X20450Y-18156D01*
X20520Y-18159D01*
X20548D01*
X20564Y-18156D01*
X20581D01*
X20623Y-18151D01*
X20673Y-18145D01*
X20725Y-18134D01*
X20784Y-18118D01*
X20842Y-18098D01*
X20845D01*
X20850Y-18095D01*
X20856Y-18093D01*
X20867Y-18087D01*
X20897Y-18073D01*
X20931Y-18057D01*
X20970Y-18037D01*
X21011Y-18015D01*
X21050Y-17990D01*
X21083Y-17962D01*
Y-17601D01*
X20517D01*
Y-17374D01*
X21333D01*
Y-18087D01*
X21331Y-18090D01*
X21325Y-18093D01*
X21314Y-18101D01*
X21300Y-18112D01*
X21283Y-18123D01*
X21264Y-18137D01*
X21239Y-18154D01*
X21214Y-18170D01*
X21156Y-18206D01*
X21089Y-18245D01*
X21020Y-18281D01*
X20945Y-18312D01*
X20942D01*
X20936Y-18315D01*
X20925Y-18317D01*
X20911Y-18323D01*
X20892Y-18329D01*
X20870Y-18337D01*
X20845Y-18342D01*
X20820Y-18348D01*
X20759Y-18362D01*
X20689Y-18376D01*
X20614Y-18384D01*
X20537Y-18387D01*
X20509D01*
X20489Y-18384D01*
X20464D01*
X20434Y-18381D01*
X20401Y-18376D01*
X20364Y-18373D01*
X20284Y-18356D01*
X20198Y-18337D01*
X20109Y-18306D01*
X20065Y-18290D01*
X20020Y-18268D01*
X20017Y-18265D01*
X20009Y-18262D01*
X19998Y-18254D01*
X19981Y-18245D01*
X19962Y-18231D01*
X19942Y-18218D01*
X19890Y-18179D01*
X19834Y-18129D01*
X19776Y-18068D01*
X19720Y-17998D01*
X19670Y-17918D01*
Y-17915D01*
X19665Y-17907D01*
X19659Y-17895D01*
X19651Y-17876D01*
X19643Y-17857D01*
X19634Y-17829D01*
X19623Y-17801D01*
X19612Y-17768D01*
X19601Y-17732D01*
X19590Y-17690D01*
X19582Y-17648D01*
X19573Y-17604D01*
X19559Y-17507D01*
X19554Y-17404D01*
Y-17401D01*
Y-17390D01*
Y-17376D01*
X19557Y-17357D01*
Y-17332D01*
X19559Y-17301D01*
X19565Y-17271D01*
X19568Y-17235D01*
X19576Y-17196D01*
X19582Y-17154D01*
X19604Y-17065D01*
X19631Y-16974D01*
X19670Y-16882D01*
X19673Y-16879D01*
X19676Y-16871D01*
X19681Y-16860D01*
X19693Y-16843D01*
X19704Y-16821D01*
X19718Y-16799D01*
X19756Y-16746D01*
X19804Y-16685D01*
X19862Y-16627D01*
X19929Y-16568D01*
X19967Y-16543D01*
X20006Y-16518D01*
X20009Y-16516D01*
X20017Y-16513D01*
X20028Y-16507D01*
X20045Y-16499D01*
X20067Y-16491D01*
X20092Y-16480D01*
X20120Y-16469D01*
X20153Y-16457D01*
X20190Y-16446D01*
X20228Y-16438D01*
X20270Y-16427D01*
X20314Y-16419D01*
X20412Y-16405D01*
X20462Y-16399D01*
X20550D01*
X20567Y-16402D01*
D02*
G37*
G36*
X22499Y-18354D02*
X22263D01*
Y-16852D01*
X22261Y-16854D01*
X22247Y-16866D01*
X22230Y-16882D01*
X22202Y-16902D01*
X22172Y-16927D01*
X22133Y-16954D01*
X22088Y-16985D01*
X22038Y-17015D01*
X22036D01*
X22033Y-17018D01*
X22016Y-17029D01*
X21989Y-17043D01*
X21955Y-17060D01*
X21916Y-17079D01*
X21875Y-17099D01*
X21833Y-17118D01*
X21791Y-17135D01*
Y-16907D01*
X21794D01*
X21800Y-16902D01*
X21811Y-16899D01*
X21825Y-16890D01*
X21841Y-16882D01*
X21861Y-16871D01*
X21908Y-16843D01*
X21964Y-16813D01*
X22019Y-16774D01*
X22077Y-16729D01*
X22136Y-16682D01*
X22138Y-16680D01*
X22141Y-16677D01*
X22150Y-16668D01*
X22161Y-16660D01*
X22186Y-16632D01*
X22219Y-16599D01*
X22252Y-16560D01*
X22288Y-16516D01*
X22319Y-16471D01*
X22347Y-16424D01*
X22499D01*
Y-18354D01*
D02*
G37*
G36*
X19179D02*
X18910D01*
Y-18084D01*
X19179D01*
Y-18354D01*
D02*
G37*
G36*
X-19920Y-16932D02*
X-19890Y-16935D01*
X-19853Y-16940D01*
X-19815Y-16949D01*
X-19773Y-16960D01*
X-19734Y-16977D01*
X-19728Y-16979D01*
X-19717Y-16985D01*
X-19698Y-16993D01*
X-19676Y-17007D01*
X-19648Y-17024D01*
X-19623Y-17046D01*
X-19598Y-17068D01*
X-19576Y-17096D01*
X-19573Y-17099D01*
X-19567Y-17110D01*
X-19559Y-17124D01*
X-19545Y-17143D01*
X-19534Y-17171D01*
X-19523Y-17199D01*
X-19509Y-17232D01*
X-19501Y-17268D01*
Y-17271D01*
X-19498Y-17282D01*
X-19495Y-17299D01*
X-19493Y-17321D01*
Y-17354D01*
X-19490Y-17393D01*
X-19487Y-17440D01*
Y-17498D01*
Y-18354D01*
X-19723D01*
Y-17510D01*
Y-17507D01*
Y-17504D01*
Y-17485D01*
Y-17460D01*
X-19726Y-17429D01*
X-19728Y-17393D01*
X-19734Y-17357D01*
X-19742Y-17324D01*
X-19751Y-17293D01*
Y-17290D01*
X-19756Y-17282D01*
X-19765Y-17268D01*
X-19773Y-17251D01*
X-19787Y-17235D01*
X-19803Y-17215D01*
X-19826Y-17196D01*
X-19851Y-17179D01*
X-19853Y-17176D01*
X-19862Y-17171D01*
X-19878Y-17165D01*
X-19898Y-17157D01*
X-19920Y-17149D01*
X-19948Y-17140D01*
X-19981Y-17138D01*
X-20014Y-17135D01*
X-20028D01*
X-20039Y-17138D01*
X-20067Y-17140D01*
X-20103Y-17146D01*
X-20142Y-17160D01*
X-20187Y-17176D01*
X-20231Y-17199D01*
X-20273Y-17232D01*
X-20278Y-17238D01*
X-20289Y-17251D01*
X-20298Y-17263D01*
X-20306Y-17276D01*
X-20317Y-17293D01*
X-20325Y-17312D01*
X-20336Y-17335D01*
X-20348Y-17362D01*
X-20356Y-17393D01*
X-20364Y-17426D01*
X-20370Y-17462D01*
X-20375Y-17501D01*
X-20381Y-17548D01*
Y-17596D01*
Y-18354D01*
X-20617D01*
Y-16960D01*
X-20406D01*
Y-17160D01*
X-20403Y-17157D01*
X-20398Y-17149D01*
X-20389Y-17138D01*
X-20378Y-17124D01*
X-20361Y-17107D01*
X-20342Y-17088D01*
X-20320Y-17065D01*
X-20292Y-17043D01*
X-20264Y-17024D01*
X-20231Y-17002D01*
X-20195Y-16982D01*
X-20156Y-16965D01*
X-20112Y-16952D01*
X-20067Y-16940D01*
X-20017Y-16932D01*
X-19964Y-16929D01*
X-19942D01*
X-19920Y-16932D01*
D02*
G37*
G36*
X-21414D02*
X-21383Y-16935D01*
X-21347Y-16940D01*
X-21308Y-16949D01*
X-21267Y-16960D01*
X-21228Y-16977D01*
X-21222Y-16979D01*
X-21211Y-16985D01*
X-21192Y-16993D01*
X-21169Y-17007D01*
X-21142Y-17024D01*
X-21117Y-17046D01*
X-21092Y-17068D01*
X-21069Y-17096D01*
X-21067Y-17099D01*
X-21061Y-17110D01*
X-21053Y-17124D01*
X-21039Y-17143D01*
X-21028Y-17171D01*
X-21017Y-17199D01*
X-21003Y-17232D01*
X-20994Y-17268D01*
Y-17271D01*
X-20992Y-17282D01*
X-20989Y-17299D01*
X-20986Y-17321D01*
Y-17354D01*
X-20983Y-17393D01*
X-20981Y-17440D01*
Y-17498D01*
Y-18354D01*
X-21217D01*
Y-17510D01*
Y-17507D01*
Y-17504D01*
Y-17485D01*
Y-17460D01*
X-21219Y-17429D01*
X-21222Y-17393D01*
X-21228Y-17357D01*
X-21236Y-17324D01*
X-21244Y-17293D01*
Y-17290D01*
X-21250Y-17282D01*
X-21258Y-17268D01*
X-21267Y-17251D01*
X-21280Y-17235D01*
X-21297Y-17215D01*
X-21319Y-17196D01*
X-21344Y-17179D01*
X-21347Y-17176D01*
X-21355Y-17171D01*
X-21372Y-17165D01*
X-21391Y-17157D01*
X-21414Y-17149D01*
X-21441Y-17140D01*
X-21475Y-17138D01*
X-21508Y-17135D01*
X-21522D01*
X-21533Y-17138D01*
X-21561Y-17140D01*
X-21597Y-17146D01*
X-21636Y-17160D01*
X-21680Y-17176D01*
X-21725Y-17199D01*
X-21766Y-17232D01*
X-21772Y-17238D01*
X-21783Y-17251D01*
X-21791Y-17263D01*
X-21800Y-17276D01*
X-21811Y-17293D01*
X-21819Y-17312D01*
X-21830Y-17335D01*
X-21841Y-17362D01*
X-21850Y-17393D01*
X-21858Y-17426D01*
X-21863Y-17462D01*
X-21869Y-17501D01*
X-21875Y-17548D01*
Y-17596D01*
Y-18354D01*
X-22110D01*
Y-16960D01*
X-21899D01*
Y-17160D01*
X-21897Y-17157D01*
X-21891Y-17149D01*
X-21883Y-17138D01*
X-21872Y-17124D01*
X-21855Y-17107D01*
X-21836Y-17088D01*
X-21813Y-17065D01*
X-21786Y-17043D01*
X-21758Y-17024D01*
X-21725Y-17002D01*
X-21688Y-16982D01*
X-21650Y-16965D01*
X-21605Y-16952D01*
X-21561Y-16940D01*
X-21511Y-16932D01*
X-21458Y-16929D01*
X-21436D01*
X-21414Y-16932D01*
D02*
G37*
G36*
X-17074D02*
X-17044Y-16938D01*
X-17008Y-16949D01*
X-16969Y-16963D01*
X-16925Y-16982D01*
X-16877Y-17007D01*
X-16963Y-17224D01*
X-16966Y-17221D01*
X-16977Y-17215D01*
X-16994Y-17207D01*
X-17016Y-17199D01*
X-17041Y-17190D01*
X-17072Y-17182D01*
X-17102Y-17176D01*
X-17133Y-17174D01*
X-17147D01*
X-17160Y-17176D01*
X-17180Y-17179D01*
X-17199Y-17185D01*
X-17224Y-17193D01*
X-17249Y-17204D01*
X-17272Y-17221D01*
X-17274Y-17224D01*
X-17283Y-17229D01*
X-17291Y-17240D01*
X-17305Y-17254D01*
X-17319Y-17274D01*
X-17333Y-17296D01*
X-17346Y-17321D01*
X-17358Y-17351D01*
X-17360Y-17357D01*
X-17363Y-17374D01*
X-17369Y-17399D01*
X-17377Y-17432D01*
X-17385Y-17474D01*
X-17391Y-17521D01*
X-17394Y-17571D01*
X-17396Y-17626D01*
Y-18354D01*
X-17632D01*
Y-16960D01*
X-17419D01*
Y-17171D01*
X-17416Y-17168D01*
X-17405Y-17149D01*
X-17391Y-17124D01*
X-17369Y-17093D01*
X-17346Y-17063D01*
X-17322Y-17029D01*
X-17297Y-17002D01*
X-17272Y-16979D01*
X-17269Y-16977D01*
X-17260Y-16971D01*
X-17244Y-16963D01*
X-17227Y-16954D01*
X-17205Y-16946D01*
X-17177Y-16938D01*
X-17149Y-16932D01*
X-17119Y-16929D01*
X-17099D01*
X-17074Y-16932D01*
D02*
G37*
G36*
X-15167Y-18354D02*
X-15403D01*
Y-16852D01*
X-15406Y-16854D01*
X-15420Y-16866D01*
X-15436Y-16882D01*
X-15464Y-16902D01*
X-15495Y-16927D01*
X-15534Y-16954D01*
X-15578Y-16985D01*
X-15628Y-17015D01*
X-15631D01*
X-15634Y-17018D01*
X-15650Y-17029D01*
X-15678Y-17043D01*
X-15711Y-17060D01*
X-15750Y-17079D01*
X-15792Y-17099D01*
X-15833Y-17118D01*
X-15875Y-17135D01*
Y-16907D01*
X-15872D01*
X-15867Y-16902D01*
X-15856Y-16899D01*
X-15842Y-16890D01*
X-15825Y-16882D01*
X-15806Y-16871D01*
X-15758Y-16843D01*
X-15703Y-16813D01*
X-15647Y-16774D01*
X-15589Y-16729D01*
X-15531Y-16682D01*
X-15528Y-16680D01*
X-15525Y-16677D01*
X-15517Y-16668D01*
X-15506Y-16660D01*
X-15481Y-16632D01*
X-15448Y-16599D01*
X-15414Y-16560D01*
X-15378Y-16516D01*
X-15348Y-16471D01*
X-15320Y-16424D01*
X-15167D01*
Y-18354D01*
D02*
G37*
G36*
X-22530D02*
X-22785D01*
Y-16432D01*
X-22530D01*
Y-18354D01*
D02*
G37*
G36*
X-18507Y-16932D02*
X-18485Y-16935D01*
X-18457Y-16940D01*
X-18426Y-16946D01*
X-18390Y-16954D01*
X-18357Y-16963D01*
X-18318Y-16977D01*
X-18282Y-16990D01*
X-18243Y-17010D01*
X-18204Y-17032D01*
X-18165Y-17057D01*
X-18129Y-17088D01*
X-18096Y-17121D01*
X-18093Y-17124D01*
X-18088Y-17129D01*
X-18079Y-17140D01*
X-18068Y-17157D01*
X-18054Y-17176D01*
X-18041Y-17199D01*
X-18024Y-17226D01*
X-18007Y-17260D01*
X-17991Y-17296D01*
X-17974Y-17335D01*
X-17960Y-17379D01*
X-17946Y-17426D01*
X-17935Y-17479D01*
X-17927Y-17535D01*
X-17921Y-17593D01*
X-17918Y-17657D01*
Y-17660D01*
Y-17671D01*
Y-17690D01*
X-17921Y-17718D01*
X-18962D01*
Y-17721D01*
Y-17729D01*
X-18959Y-17740D01*
Y-17757D01*
X-18957Y-17776D01*
X-18951Y-17798D01*
X-18943Y-17848D01*
X-18926Y-17904D01*
X-18904Y-17965D01*
X-18873Y-18020D01*
X-18835Y-18070D01*
X-18832D01*
X-18829Y-18076D01*
X-18812Y-18090D01*
X-18787Y-18109D01*
X-18754Y-18129D01*
X-18710Y-18151D01*
X-18660Y-18170D01*
X-18604Y-18184D01*
X-18574Y-18187D01*
X-18540Y-18190D01*
X-18518D01*
X-18493Y-18187D01*
X-18463Y-18181D01*
X-18429Y-18173D01*
X-18390Y-18162D01*
X-18354Y-18145D01*
X-18318Y-18123D01*
X-18315Y-18120D01*
X-18302Y-18109D01*
X-18285Y-18093D01*
X-18265Y-18070D01*
X-18243Y-18040D01*
X-18218Y-18001D01*
X-18193Y-17957D01*
X-18171Y-17904D01*
X-17927Y-17934D01*
Y-17937D01*
X-17930Y-17943D01*
X-17932Y-17954D01*
X-17938Y-17970D01*
X-17946Y-17987D01*
X-17954Y-18009D01*
X-17977Y-18057D01*
X-18004Y-18109D01*
X-18043Y-18165D01*
X-18088Y-18218D01*
X-18143Y-18268D01*
X-18146D01*
X-18152Y-18273D01*
X-18160Y-18279D01*
X-18171Y-18287D01*
X-18188Y-18295D01*
X-18204Y-18304D01*
X-18227Y-18315D01*
X-18252Y-18326D01*
X-18279Y-18337D01*
X-18307Y-18348D01*
X-18376Y-18365D01*
X-18454Y-18379D01*
X-18540Y-18384D01*
X-18571D01*
X-18590Y-18381D01*
X-18615Y-18379D01*
X-18646Y-18373D01*
X-18679Y-18367D01*
X-18715Y-18362D01*
X-18793Y-18340D01*
X-18835Y-18323D01*
X-18873Y-18306D01*
X-18915Y-18284D01*
X-18954Y-18259D01*
X-18990Y-18231D01*
X-19026Y-18198D01*
X-19029Y-18195D01*
X-19034Y-18190D01*
X-19043Y-18179D01*
X-19054Y-18162D01*
X-19068Y-18143D01*
X-19082Y-18120D01*
X-19098Y-18093D01*
X-19115Y-18062D01*
X-19132Y-18026D01*
X-19148Y-17987D01*
X-19162Y-17943D01*
X-19176Y-17895D01*
X-19187Y-17846D01*
X-19195Y-17790D01*
X-19201Y-17732D01*
X-19204Y-17671D01*
Y-17668D01*
Y-17654D01*
Y-17637D01*
X-19201Y-17612D01*
X-19198Y-17582D01*
X-19195Y-17548D01*
X-19190Y-17510D01*
X-19182Y-17471D01*
X-19159Y-17382D01*
X-19145Y-17337D01*
X-19129Y-17290D01*
X-19107Y-17246D01*
X-19082Y-17204D01*
X-19054Y-17163D01*
X-19023Y-17124D01*
X-19021Y-17121D01*
X-19015Y-17115D01*
X-19004Y-17107D01*
X-18990Y-17093D01*
X-18973Y-17079D01*
X-18951Y-17063D01*
X-18926Y-17043D01*
X-18896Y-17027D01*
X-18865Y-17007D01*
X-18829Y-16990D01*
X-18790Y-16974D01*
X-18748Y-16960D01*
X-18704Y-16946D01*
X-18657Y-16938D01*
X-18607Y-16932D01*
X-18554Y-16929D01*
X-18526D01*
X-18507Y-16932D01*
D02*
G37*
%LPC*%
G36*
X12517Y48138D02*
X12078Y47700D01*
X12282Y47615D01*
X12517Y47584D01*
X12752Y47615D01*
X12956Y47700D01*
X12517Y48138D01*
D02*
G37*
G36*
X5517Y48138D02*
X5078Y47700D01*
X5282Y47615D01*
X5517Y47584D01*
X5752Y47615D01*
X5956Y47700D01*
X5517Y48138D01*
D02*
G37*
G36*
X6517Y47201D02*
X6243Y47165D01*
X5987Y47059D01*
X5968Y47044D01*
X6517Y46496D01*
X7066Y47044D01*
X7047Y47059D01*
X6791Y47165D01*
X6517Y47201D01*
D02*
G37*
G36*
X1200Y46826D02*
X1075Y46801D01*
X969Y46731D01*
X899Y46625D01*
X874Y46500D01*
X899Y46375D01*
X969Y46269D01*
X1075Y46199D01*
X1200Y46174D01*
X1325Y46199D01*
X1431Y46269D01*
X1501Y46375D01*
X1526Y46500D01*
X1501Y46625D01*
X1431Y46731D01*
X1325Y46801D01*
X1200Y46826D01*
D02*
G37*
G36*
X2650Y46806D02*
X2525Y46781D01*
X2419Y46711D01*
X2349Y46605D01*
X2324Y46480D01*
X2349Y46355D01*
X2419Y46249D01*
X2525Y46179D01*
X2650Y46154D01*
X2775Y46179D01*
X2881Y46249D01*
X2951Y46355D01*
X2976Y46480D01*
X2951Y46605D01*
X2881Y46711D01*
X2775Y46781D01*
X2650Y46806D01*
D02*
G37*
G36*
X14834Y47512D02*
X14606Y47482D01*
X14395Y47394D01*
X14213Y47255D01*
X14074Y47073D01*
X13986Y46862D01*
X13956Y46634D01*
X13986Y46407D01*
X14074Y46196D01*
X14213Y46014D01*
X14395Y45874D01*
X14606Y45787D01*
X14834Y45757D01*
X15061Y45787D01*
X15272Y45874D01*
X15454Y46014D01*
X15594Y46196D01*
X15681Y46407D01*
X15711Y46634D01*
X15681Y46862D01*
X15594Y47073D01*
X15454Y47255D01*
X15272Y47394D01*
X15061Y47482D01*
X14834Y47512D01*
D02*
G37*
G36*
X5615Y46691D02*
X5600Y46672D01*
X5494Y46416D01*
X5458Y46142D01*
X5494Y45868D01*
X5600Y45612D01*
X5615Y45593D01*
X6163Y46142D01*
X5615Y46691D01*
D02*
G37*
G36*
X10720Y47376D02*
X10595Y47351D01*
X10489Y47281D01*
X10419Y47175D01*
X10394Y47050D01*
X10419Y46925D01*
X10489Y46819D01*
X10537Y46787D01*
X10589Y46692D01*
X10582Y46629D01*
X10494Y46416D01*
X10458Y46142D01*
X10494Y45868D01*
X10600Y45612D01*
X10615Y45593D01*
X11340Y46319D01*
X12066Y47044D01*
X12047Y47059D01*
X11791Y47165D01*
X11517Y47201D01*
X11243Y47165D01*
X11127Y47117D01*
X11022Y47174D01*
X11021Y47175D01*
X10951Y47281D01*
X10845Y47351D01*
X10720Y47376D01*
D02*
G37*
G36*
X12419Y46691D02*
X11871Y46142D01*
X12419Y45593D01*
X12434Y45612D01*
X12540Y45868D01*
X12576Y46142D01*
X12540Y46416D01*
X12434Y46672D01*
X12419Y46691D01*
D02*
G37*
G36*
X7419D02*
X6871Y46142D01*
X7419Y45593D01*
X7434Y45612D01*
X7540Y45868D01*
X7576Y46142D01*
X7540Y46416D01*
X7434Y46672D01*
X7419Y46691D01*
D02*
G37*
G36*
X8880Y45316D02*
X8755Y45291D01*
X8649Y45221D01*
X8587Y45128D01*
X8521Y45112D01*
X8455Y45109D01*
X8421Y45160D01*
X8315Y45231D01*
X8190Y45256D01*
X8065Y45231D01*
X7960Y45160D01*
X7889Y45055D01*
X7864Y44930D01*
X7889Y44805D01*
X7960Y44699D01*
X8065Y44628D01*
X8190Y44603D01*
X8315Y44628D01*
X8421Y44699D01*
X8483Y44792D01*
X8549Y44807D01*
X8615Y44810D01*
X8649Y44759D01*
X8755Y44689D01*
X8880Y44664D01*
X9005Y44689D01*
X9111Y44759D01*
X9181Y44865D01*
X9206Y44990D01*
X9181Y45115D01*
X9111Y45221D01*
X9005Y45291D01*
X8880Y45316D01*
D02*
G37*
G36*
X11517Y45788D02*
X10968Y45240D01*
X10987Y45225D01*
X11243Y45119D01*
X11517Y45083D01*
X11791Y45119D01*
X12047Y45225D01*
X12066Y45240D01*
X11517Y45788D01*
D02*
G37*
G36*
X6517D02*
X5968Y45240D01*
X5987Y45225D01*
X6243Y45119D01*
X6517Y45083D01*
X6791Y45119D01*
X7047Y45225D01*
X7066Y45240D01*
X6517Y45788D01*
D02*
G37*
G36*
X9800Y45316D02*
X9675Y45291D01*
X9569Y45221D01*
X9499Y45115D01*
X9474Y44990D01*
X9499Y44865D01*
X9569Y44759D01*
X9675Y44689D01*
X9800Y44664D01*
X9925Y44689D01*
X10031Y44759D01*
X10101Y44865D01*
X10126Y44990D01*
X10101Y45115D01*
X10031Y45221D01*
X9925Y45291D01*
X9800Y45316D01*
D02*
G37*
G36*
X3630Y45266D02*
X3505Y45241D01*
X3399Y45171D01*
X3329Y45065D01*
X3304Y44940D01*
X3329Y44815D01*
X3399Y44709D01*
X3505Y44639D01*
X3630Y44614D01*
X3755Y44639D01*
X3861Y44709D01*
X3931Y44815D01*
X3956Y44940D01*
X3931Y45065D01*
X3861Y45171D01*
X3755Y45241D01*
X3630Y45266D01*
D02*
G37*
G36*
X14834Y45153D02*
X14559Y45117D01*
X14304Y45012D01*
X14285Y44997D01*
X14834Y44448D01*
X15382Y44997D01*
X15363Y45012D01*
X15108Y45117D01*
X14834Y45153D01*
D02*
G37*
G36*
X7460Y44646D02*
X7335Y44621D01*
X7229Y44551D01*
X7159Y44445D01*
X7134Y44320D01*
X7159Y44195D01*
X7229Y44089D01*
X7335Y44019D01*
X7460Y43994D01*
X7585Y44019D01*
X7691Y44089D01*
X7761Y44195D01*
X7786Y44320D01*
X7761Y44445D01*
X7691Y44551D01*
X7585Y44621D01*
X7460Y44646D01*
D02*
G37*
G36*
X15736Y44643D02*
X15187Y44094D01*
X15736Y43546D01*
X15751Y43565D01*
X15857Y43820D01*
X15893Y44094D01*
X15857Y44368D01*
X15751Y44624D01*
X15736Y44643D01*
D02*
G37*
G36*
X13931Y44643D02*
X13916Y44624D01*
X13811Y44368D01*
X13775Y44094D01*
X13811Y43820D01*
X13916Y43565D01*
X13931Y43546D01*
X14480Y44094D01*
X13931Y44643D01*
D02*
G37*
G36*
X14834Y43741D02*
X14285Y43192D01*
X14304Y43177D01*
X14559Y43071D01*
X14834Y43035D01*
X15108Y43071D01*
X15363Y43177D01*
X15382Y43192D01*
X14834Y43741D01*
D02*
G37*
G36*
X6960Y43456D02*
X6835Y43431D01*
X6729Y43361D01*
X6659Y43255D01*
X6634Y43130D01*
X6659Y43005D01*
X6729Y42899D01*
X6835Y42829D01*
X6960Y42804D01*
X7085Y42829D01*
X7191Y42899D01*
X7261Y43005D01*
X7286Y43130D01*
X7261Y43255D01*
X7191Y43361D01*
X7085Y43431D01*
X6960Y43456D01*
D02*
G37*
G36*
X14150Y43036D02*
X14025Y43011D01*
X13919Y42941D01*
X13849Y42835D01*
X13824Y42710D01*
X13849Y42585D01*
X13919Y42479D01*
X14025Y42409D01*
X14150Y42384D01*
X14275Y42409D01*
X14381Y42479D01*
X14451Y42585D01*
X14476Y42710D01*
X14451Y42835D01*
X14381Y42941D01*
X14275Y43011D01*
X14150Y43036D01*
D02*
G37*
G36*
X6420Y42666D02*
X6295Y42641D01*
X6189Y42571D01*
X6119Y42465D01*
X6094Y42340D01*
X6119Y42215D01*
X6189Y42109D01*
X6295Y42039D01*
X6420Y42014D01*
X6545Y42039D01*
X6651Y42109D01*
X6721Y42215D01*
X6746Y42340D01*
X6721Y42465D01*
X6651Y42571D01*
X6545Y42641D01*
X6420Y42666D01*
D02*
G37*
G36*
X10630Y41736D02*
X10505Y41711D01*
X10399Y41641D01*
X10329Y41535D01*
X10304Y41410D01*
X10329Y41285D01*
X10399Y41179D01*
X10505Y41109D01*
X10630Y41084D01*
X10755Y41109D01*
X10861Y41179D01*
X10931Y41285D01*
X10956Y41410D01*
X10931Y41535D01*
X10861Y41641D01*
X10755Y41711D01*
X10630Y41736D01*
D02*
G37*
G36*
X15110Y41496D02*
X14985Y41471D01*
X14879Y41401D01*
X14809Y41295D01*
X14784Y41170D01*
X14809Y41045D01*
X14879Y40939D01*
X14985Y40869D01*
X15110Y40844D01*
X15235Y40869D01*
X15341Y40939D01*
X15411Y41045D01*
X15436Y41170D01*
X15411Y41295D01*
X15341Y41401D01*
X15235Y41471D01*
X15110Y41496D01*
D02*
G37*
G36*
X16891Y42456D02*
X16618Y42420D01*
X16364Y42315D01*
X16146Y42147D01*
X15978Y41929D01*
X15873Y41675D01*
X15837Y41402D01*
X15873Y41129D01*
X15978Y40875D01*
X16146Y40657D01*
X16364Y40489D01*
X16618Y40384D01*
X16891Y40348D01*
X17164Y40384D01*
X17418Y40489D01*
X17636Y40657D01*
X17804Y40875D01*
X17909Y41129D01*
X17945Y41402D01*
X17909Y41675D01*
X17804Y41929D01*
X17636Y42147D01*
X17418Y42315D01*
X17164Y42420D01*
X16891Y42456D01*
D02*
G37*
G36*
X1651D02*
X1378Y42420D01*
X1124Y42315D01*
X906Y42147D01*
X738Y41929D01*
X633Y41675D01*
X597Y41402D01*
X633Y41129D01*
X738Y40875D01*
X906Y40657D01*
X1124Y40489D01*
X1378Y40384D01*
X1651Y40348D01*
X1924Y40384D01*
X2178Y40489D01*
X2396Y40657D01*
X2564Y40875D01*
X2669Y41129D01*
X2705Y41402D01*
X2669Y41675D01*
X2564Y41929D01*
X2396Y42147D01*
X2178Y42315D01*
X1924Y42420D01*
X1651Y42456D01*
D02*
G37*
G36*
X13004Y40126D02*
X12879Y40101D01*
X12773Y40031D01*
X12703Y39925D01*
X12678Y39800D01*
X12703Y39675D01*
X12773Y39569D01*
X12879Y39499D01*
X13004Y39474D01*
X13129Y39499D01*
X13235Y39569D01*
X13305Y39675D01*
X13330Y39800D01*
X13305Y39925D01*
X13235Y40031D01*
X13129Y40101D01*
X13004Y40126D01*
D02*
G37*
G36*
X16891Y40093D02*
X16651Y40069D01*
X16420Y39999D01*
X16216Y39890D01*
X16891Y39216D01*
X17566Y39890D01*
X17362Y39999D01*
X17131Y40069D01*
X16891Y40093D01*
D02*
G37*
G36*
X10030Y39576D02*
X9905Y39551D01*
X9799Y39481D01*
X9729Y39375D01*
X9704Y39250D01*
X9729Y39125D01*
X9799Y39019D01*
X9905Y38949D01*
X10030Y38924D01*
X10124Y38942D01*
X10204Y38886D01*
X10228Y38853D01*
X10224Y38830D01*
X10249Y38705D01*
X10319Y38599D01*
X10425Y38528D01*
X10550Y38504D01*
X10675Y38528D01*
X10781Y38599D01*
X10851Y38705D01*
X10876Y38830D01*
X10851Y38955D01*
X10781Y39061D01*
X10675Y39131D01*
X10550Y39156D01*
X10456Y39138D01*
X10376Y39194D01*
X10352Y39227D01*
X10356Y39250D01*
X10331Y39375D01*
X10261Y39481D01*
X10155Y39551D01*
X10030Y39576D01*
D02*
G37*
G36*
X14900Y38916D02*
X14775Y38891D01*
X14669Y38821D01*
X14599Y38715D01*
X14574Y38590D01*
X14599Y38465D01*
X14669Y38359D01*
X14775Y38289D01*
X14900Y38264D01*
X15025Y38289D01*
X15131Y38359D01*
X15201Y38465D01*
X15226Y38590D01*
X15201Y38715D01*
X15131Y38821D01*
X15025Y38891D01*
X14900Y38916D01*
D02*
G37*
G36*
X15863Y39537D02*
X15754Y39333D01*
X15684Y39102D01*
X15660Y38862D01*
X15684Y38622D01*
X15754Y38391D01*
X15863Y38187D01*
X16537Y38862D01*
X15863Y39537D01*
D02*
G37*
G36*
X1651Y39916D02*
X1378Y39880D01*
X1124Y39775D01*
X906Y39607D01*
X738Y39389D01*
X633Y39135D01*
X597Y38862D01*
X633Y38589D01*
X738Y38335D01*
X906Y38117D01*
X1124Y37949D01*
X1378Y37844D01*
X1651Y37808D01*
X1924Y37844D01*
X2178Y37949D01*
X2396Y38117D01*
X2564Y38335D01*
X2669Y38589D01*
X2705Y38862D01*
X2669Y39135D01*
X2564Y39389D01*
X2396Y39607D01*
X2178Y39775D01*
X1924Y39880D01*
X1651Y39916D01*
D02*
G37*
G36*
X16891Y38508D02*
X16216Y37834D01*
X16420Y37725D01*
X16651Y37655D01*
X16891Y37631D01*
X17131Y37655D01*
X17362Y37725D01*
X17566Y37834D01*
X16891Y38508D01*
D02*
G37*
G36*
X4270Y37826D02*
X4145Y37801D01*
X4039Y37731D01*
X3969Y37625D01*
X3944Y37500D01*
X3969Y37375D01*
X4039Y37269D01*
X4145Y37199D01*
X4270Y37174D01*
X4395Y37199D01*
X4501Y37269D01*
X4571Y37375D01*
X4596Y37500D01*
X4571Y37625D01*
X4501Y37731D01*
X4395Y37801D01*
X4270Y37826D01*
D02*
G37*
G36*
X8520Y37254D02*
X8395Y37229D01*
X8289Y37159D01*
X8219Y37053D01*
X8194Y36928D01*
X8219Y36803D01*
X8289Y36697D01*
X8395Y36627D01*
X8520Y36602D01*
X8645Y36627D01*
X8751Y36697D01*
X8821Y36803D01*
X8846Y36928D01*
X8821Y37053D01*
X8751Y37159D01*
X8645Y37229D01*
X8520Y37254D01*
D02*
G37*
G36*
X11840Y37076D02*
X11715Y37051D01*
X11609Y36981D01*
X11539Y36875D01*
X11514Y36750D01*
X11539Y36625D01*
X11609Y36519D01*
X11715Y36449D01*
X11840Y36424D01*
X11965Y36449D01*
X12071Y36519D01*
X12141Y36625D01*
X12166Y36750D01*
X12141Y36875D01*
X12071Y36981D01*
X11965Y37051D01*
X11840Y37076D01*
D02*
G37*
G36*
X15000Y36866D02*
X14875Y36841D01*
X14769Y36771D01*
X14699Y36665D01*
X14674Y36540D01*
X14691Y36455D01*
X14624Y36367D01*
X14598Y36351D01*
X14570Y36356D01*
X14445Y36331D01*
X14339Y36261D01*
X14269Y36155D01*
X14244Y36030D01*
X14269Y35905D01*
X14339Y35799D01*
X14445Y35729D01*
X14570Y35704D01*
X14695Y35729D01*
X14801Y35799D01*
X14871Y35905D01*
X14896Y36030D01*
X14879Y36115D01*
X14946Y36203D01*
X14972Y36219D01*
X15000Y36214D01*
X15125Y36239D01*
X15231Y36309D01*
X15301Y36415D01*
X15326Y36540D01*
X15301Y36665D01*
X15231Y36771D01*
X15125Y36841D01*
X15000Y36866D01*
D02*
G37*
G36*
X3930Y36386D02*
X3805Y36361D01*
X3699Y36291D01*
X3629Y36185D01*
X3604Y36060D01*
X3629Y35935D01*
X3699Y35829D01*
X3805Y35759D01*
X3930Y35734D01*
X4055Y35759D01*
X4161Y35829D01*
X4231Y35935D01*
X4256Y36060D01*
X4231Y36185D01*
X4161Y36291D01*
X4055Y36361D01*
X3930Y36386D01*
D02*
G37*
G36*
X11990Y35996D02*
X11865Y35971D01*
X11759Y35901D01*
X11689Y35795D01*
X11664Y35670D01*
X11689Y35545D01*
X11759Y35439D01*
X11865Y35369D01*
X11990Y35344D01*
X12115Y35369D01*
X12221Y35439D01*
X12291Y35545D01*
X12316Y35670D01*
X12291Y35795D01*
X12221Y35901D01*
X12115Y35971D01*
X11990Y35996D01*
D02*
G37*
G36*
X16891Y37376D02*
X16618Y37340D01*
X16364Y37235D01*
X16146Y37067D01*
X15978Y36849D01*
X15873Y36595D01*
X15837Y36322D01*
X15873Y36049D01*
X15978Y35795D01*
X16146Y35577D01*
X16364Y35409D01*
X16618Y35304D01*
X16891Y35268D01*
X17164Y35304D01*
X17418Y35409D01*
X17636Y35577D01*
X17804Y35795D01*
X17909Y36049D01*
X17945Y36322D01*
X17909Y36595D01*
X17804Y36849D01*
X17636Y37067D01*
X17418Y37235D01*
X17164Y37340D01*
X16891Y37376D01*
D02*
G37*
G36*
X1651D02*
X1378Y37340D01*
X1124Y37235D01*
X906Y37067D01*
X738Y36849D01*
X633Y36595D01*
X597Y36322D01*
X633Y36049D01*
X738Y35795D01*
X906Y35577D01*
X1124Y35409D01*
X1378Y35304D01*
X1651Y35268D01*
X1924Y35304D01*
X2178Y35409D01*
X2396Y35577D01*
X2564Y35795D01*
X2669Y36049D01*
X2705Y36322D01*
X2669Y36595D01*
X2564Y36849D01*
X2396Y37067D01*
X2178Y37235D01*
X1924Y37340D01*
X1651Y37376D01*
D02*
G37*
G36*
Y35013D02*
X1411Y34989D01*
X1180Y34919D01*
X976Y34810D01*
X1651Y34136D01*
X2326Y34810D01*
X2122Y34919D01*
X1891Y34989D01*
X1651Y35013D01*
D02*
G37*
G36*
X2679Y34457D02*
X2005Y33782D01*
X2679Y33107D01*
X2788Y33311D01*
X2858Y33542D01*
X2882Y33782D01*
X2858Y34022D01*
X2788Y34253D01*
X2679Y34457D01*
D02*
G37*
G36*
X16891Y34836D02*
X16618Y34800D01*
X16364Y34695D01*
X16146Y34527D01*
X15978Y34309D01*
X15873Y34055D01*
X15837Y33782D01*
X15873Y33509D01*
X15978Y33255D01*
X16146Y33037D01*
X16364Y32869D01*
X16618Y32764D01*
X16891Y32728D01*
X17164Y32764D01*
X17418Y32869D01*
X17636Y33037D01*
X17804Y33255D01*
X17909Y33509D01*
X17945Y33782D01*
X17909Y34055D01*
X17804Y34309D01*
X17636Y34527D01*
X17418Y34695D01*
X17164Y34800D01*
X16891Y34836D01*
D02*
G37*
G36*
X7090Y33256D02*
X6965Y33231D01*
X6859Y33161D01*
X6789Y33055D01*
X6764Y32930D01*
X6789Y32805D01*
X6859Y32699D01*
X6965Y32629D01*
X7090Y32604D01*
X7215Y32629D01*
X7321Y32699D01*
X7391Y32805D01*
X7416Y32930D01*
X7391Y33055D01*
X7321Y33161D01*
X7215Y33231D01*
X7090Y33256D01*
D02*
G37*
G36*
X1651Y33428D02*
X976Y32754D01*
X1180Y32645D01*
X1411Y32575D01*
X1651Y32551D01*
X1891Y32575D01*
X2122Y32645D01*
X2326Y32754D01*
X1651Y33428D01*
D02*
G37*
G36*
X12340Y33186D02*
X12215Y33161D01*
X12109Y33091D01*
X12039Y32985D01*
X12014Y32860D01*
X12039Y32735D01*
X12109Y32629D01*
X12215Y32559D01*
X12340Y32534D01*
X12465Y32559D01*
X12571Y32629D01*
X12641Y32735D01*
X12666Y32860D01*
X12641Y32985D01*
X12571Y33091D01*
X12465Y33161D01*
X12340Y33186D01*
D02*
G37*
G36*
X4080Y32176D02*
X3955Y32151D01*
X3849Y32081D01*
X3779Y31975D01*
X3754Y31850D01*
X3779Y31725D01*
X3849Y31619D01*
X3955Y31549D01*
X4080Y31524D01*
X4205Y31549D01*
X4311Y31619D01*
X4381Y31725D01*
X4406Y31850D01*
X4381Y31975D01*
X4311Y32081D01*
X4205Y32151D01*
X4080Y32176D01*
D02*
G37*
G36*
X3420Y31586D02*
X3295Y31561D01*
X3189Y31491D01*
X3119Y31385D01*
X3094Y31260D01*
X3119Y31135D01*
X3189Y31029D01*
X3295Y30959D01*
X3420Y30934D01*
X3545Y30959D01*
X3651Y31029D01*
X3721Y31135D01*
X3746Y31260D01*
X3721Y31385D01*
X3651Y31491D01*
X3545Y31561D01*
X3420Y31586D01*
D02*
G37*
G36*
X7100Y31006D02*
X6975Y30981D01*
X6869Y30911D01*
X6799Y30805D01*
X6774Y30680D01*
X6799Y30555D01*
X6869Y30449D01*
X6975Y30379D01*
X7100Y30354D01*
X7225Y30379D01*
X7331Y30449D01*
X7401Y30555D01*
X7426Y30680D01*
X7401Y30805D01*
X7331Y30911D01*
X7225Y30981D01*
X7100Y31006D01*
D02*
G37*
G36*
X9390Y30956D02*
X9265Y30931D01*
X9159Y30861D01*
X9089Y30755D01*
X9064Y30630D01*
X9089Y30505D01*
X9159Y30399D01*
X9265Y30329D01*
X9390Y30304D01*
X9515Y30329D01*
X9621Y30399D01*
X9691Y30505D01*
X9716Y30630D01*
X9691Y30755D01*
X9621Y30861D01*
X9515Y30931D01*
X9390Y30956D01*
D02*
G37*
G36*
X16891Y32296D02*
X16618Y32260D01*
X16364Y32155D01*
X16146Y31987D01*
X15978Y31769D01*
X15873Y31515D01*
X15837Y31242D01*
X15873Y30969D01*
X15978Y30715D01*
X16146Y30497D01*
X16364Y30329D01*
X16618Y30224D01*
X16891Y30188D01*
X17164Y30224D01*
X17418Y30329D01*
X17636Y30497D01*
X17804Y30715D01*
X17909Y30969D01*
X17945Y31242D01*
X17909Y31515D01*
X17804Y31769D01*
X17636Y31987D01*
X17418Y32155D01*
X17164Y32260D01*
X16891Y32296D01*
D02*
G37*
G36*
X1651D02*
X1378Y32260D01*
X1124Y32155D01*
X906Y31987D01*
X738Y31769D01*
X633Y31515D01*
X597Y31242D01*
X633Y30969D01*
X738Y30715D01*
X906Y30497D01*
X1124Y30329D01*
X1378Y30224D01*
X1651Y30188D01*
X1924Y30224D01*
X2178Y30329D01*
X2396Y30497D01*
X2564Y30715D01*
X2669Y30969D01*
X2705Y31242D01*
X2669Y31515D01*
X2564Y31769D01*
X2396Y31987D01*
X2178Y32155D01*
X1924Y32260D01*
X1651Y32296D01*
D02*
G37*
G36*
X11790Y30826D02*
X11665Y30801D01*
X11559Y30731D01*
X11489Y30625D01*
X11464Y30500D01*
X11489Y30375D01*
X11559Y30269D01*
X11665Y30199D01*
X11790Y30174D01*
X11915Y30199D01*
X12021Y30269D01*
X12091Y30375D01*
X12116Y30500D01*
X12091Y30625D01*
X12021Y30731D01*
X11915Y30801D01*
X11790Y30826D01*
D02*
G37*
G36*
X11010Y30766D02*
X10885Y30741D01*
X10779Y30671D01*
X10709Y30565D01*
X10684Y30440D01*
X10709Y30315D01*
X10779Y30209D01*
X10885Y30139D01*
X11010Y30114D01*
X11135Y30139D01*
X11241Y30209D01*
X11311Y30315D01*
X11336Y30440D01*
X11311Y30565D01*
X11241Y30671D01*
X11135Y30741D01*
X11010Y30766D01*
D02*
G37*
G36*
X5010Y30606D02*
X4885Y30581D01*
X4779Y30511D01*
X4709Y30405D01*
X4684Y30280D01*
X4709Y30155D01*
X4779Y30049D01*
X4885Y29979D01*
X5010Y29954D01*
X5135Y29979D01*
X5241Y30049D01*
X5311Y30155D01*
X5336Y30280D01*
X5311Y30405D01*
X5241Y30511D01*
X5135Y30581D01*
X5010Y30606D01*
D02*
G37*
G36*
X13670Y30556D02*
X13545Y30531D01*
X13439Y30461D01*
X13369Y30355D01*
X13344Y30230D01*
X13369Y30105D01*
X13439Y29999D01*
X13545Y29929D01*
X13670Y29904D01*
X13795Y29929D01*
X13901Y29999D01*
X13971Y30105D01*
X13996Y30230D01*
X13971Y30355D01*
X13901Y30461D01*
X13795Y30531D01*
X13670Y30556D01*
D02*
G37*
G36*
X13650Y29226D02*
X13525Y29201D01*
X13419Y29131D01*
X13349Y29025D01*
X13324Y28900D01*
X13349Y28775D01*
X13419Y28669D01*
X13525Y28599D01*
X13650Y28574D01*
X13775Y28599D01*
X13881Y28669D01*
X13951Y28775D01*
X13976Y28900D01*
X13951Y29025D01*
X13881Y29131D01*
X13775Y29201D01*
X13650Y29226D01*
D02*
G37*
G36*
X6521Y28776D02*
X6396Y28751D01*
X6290Y28681D01*
X6220Y28575D01*
X6195Y28450D01*
X6220Y28325D01*
X6290Y28219D01*
X6396Y28149D01*
X6521Y28124D01*
X6646Y28149D01*
X6752Y28219D01*
X6822Y28325D01*
X6847Y28450D01*
X6822Y28575D01*
X6752Y28681D01*
X6646Y28751D01*
X6521Y28776D01*
D02*
G37*
G36*
X7870Y28646D02*
X7745Y28621D01*
X7639Y28551D01*
X7569Y28445D01*
X7544Y28320D01*
X7569Y28195D01*
X7639Y28089D01*
X7745Y28019D01*
X7870Y27994D01*
X7995Y28019D01*
X8101Y28089D01*
X8171Y28195D01*
X8196Y28320D01*
X8171Y28445D01*
X8101Y28551D01*
X7995Y28621D01*
X7870Y28646D01*
D02*
G37*
G36*
X16891Y29756D02*
X16618Y29720D01*
X16364Y29615D01*
X16146Y29447D01*
X15978Y29229D01*
X15873Y28975D01*
X15837Y28702D01*
X15873Y28429D01*
X15978Y28175D01*
X16146Y27957D01*
X16364Y27789D01*
X16618Y27684D01*
X16891Y27648D01*
X17164Y27684D01*
X17418Y27789D01*
X17636Y27957D01*
X17804Y28175D01*
X17909Y28429D01*
X17945Y28702D01*
X17909Y28975D01*
X17804Y29229D01*
X17636Y29447D01*
X17418Y29615D01*
X17164Y29720D01*
X16891Y29756D01*
D02*
G37*
G36*
X1651D02*
X1378Y29720D01*
X1124Y29615D01*
X906Y29447D01*
X738Y29229D01*
X633Y28975D01*
X597Y28702D01*
X633Y28429D01*
X738Y28175D01*
X906Y27957D01*
X1124Y27789D01*
X1378Y27684D01*
X1651Y27648D01*
X1924Y27684D01*
X2178Y27789D01*
X2396Y27957D01*
X2564Y28175D01*
X2669Y28429D01*
X2705Y28702D01*
X2669Y28975D01*
X2564Y29229D01*
X2396Y29447D01*
X2178Y29615D01*
X1924Y29720D01*
X1651Y29756D01*
D02*
G37*
G36*
X7410Y27046D02*
X7285Y27021D01*
X7179Y26951D01*
X7109Y26845D01*
X7084Y26720D01*
X7109Y26595D01*
X7179Y26489D01*
X7285Y26419D01*
X7410Y26394D01*
X7535Y26419D01*
X7641Y26489D01*
X7711Y26595D01*
X7736Y26720D01*
X7711Y26845D01*
X7641Y26951D01*
X7535Y27021D01*
X7410Y27046D01*
D02*
G37*
G36*
X4110Y26856D02*
X3985Y26831D01*
X3879Y26761D01*
X3809Y26655D01*
X3784Y26530D01*
X3809Y26405D01*
X3879Y26299D01*
X3985Y26229D01*
X4110Y26204D01*
X4235Y26229D01*
X4341Y26299D01*
X4411Y26405D01*
X4436Y26530D01*
X4411Y26655D01*
X4341Y26761D01*
X4235Y26831D01*
X4110Y26856D01*
D02*
G37*
G36*
X7740Y26186D02*
X7615Y26161D01*
X7509Y26091D01*
X7439Y25985D01*
X7414Y25860D01*
X7439Y25735D01*
X7509Y25629D01*
X7615Y25559D01*
X7740Y25534D01*
X7865Y25559D01*
X7971Y25629D01*
X8041Y25735D01*
X8066Y25860D01*
X8041Y25985D01*
X7971Y26091D01*
X7865Y26161D01*
X7740Y26186D01*
D02*
G37*
G36*
X16891Y27216D02*
X16618Y27180D01*
X16364Y27075D01*
X16146Y26907D01*
X15978Y26689D01*
X15873Y26435D01*
X15837Y26162D01*
X15873Y25889D01*
X15978Y25635D01*
X16146Y25417D01*
X16364Y25249D01*
X16618Y25144D01*
X16891Y25108D01*
X17164Y25144D01*
X17418Y25249D01*
X17636Y25417D01*
X17804Y25635D01*
X17909Y25889D01*
X17945Y26162D01*
X17909Y26435D01*
X17804Y26689D01*
X17636Y26907D01*
X17418Y27075D01*
X17164Y27180D01*
X16891Y27216D01*
D02*
G37*
G36*
X1651D02*
X1378Y27180D01*
X1124Y27075D01*
X906Y26907D01*
X738Y26689D01*
X633Y26435D01*
X597Y26162D01*
X633Y25889D01*
X738Y25635D01*
X906Y25417D01*
X1124Y25249D01*
X1378Y25144D01*
X1651Y25108D01*
X1924Y25144D01*
X2178Y25249D01*
X2396Y25417D01*
X2564Y25635D01*
X2669Y25889D01*
X2705Y26162D01*
X2669Y26435D01*
X2564Y26689D01*
X2396Y26907D01*
X2178Y27075D01*
X1924Y27180D01*
X1651Y27216D01*
D02*
G37*
G36*
X13850Y25546D02*
X13725Y25521D01*
X13619Y25451D01*
X13549Y25345D01*
X13524Y25220D01*
X13549Y25095D01*
X13619Y24989D01*
X13725Y24919D01*
X13850Y24894D01*
X13975Y24919D01*
X14081Y24989D01*
X14151Y25095D01*
X14176Y25220D01*
X14151Y25345D01*
X14081Y25451D01*
X13975Y25521D01*
X13850Y25546D01*
D02*
G37*
G36*
X7720Y24876D02*
X7595Y24851D01*
X7489Y24781D01*
X7419Y24675D01*
X7394Y24550D01*
X7419Y24425D01*
X7489Y24319D01*
X7595Y24249D01*
X7720Y24224D01*
X7845Y24249D01*
X7951Y24319D01*
X8021Y24425D01*
X8046Y24550D01*
X8021Y24675D01*
X7951Y24781D01*
X7845Y24851D01*
X7720Y24876D01*
D02*
G37*
G36*
X16891Y24676D02*
X16618Y24640D01*
X16364Y24535D01*
X16146Y24367D01*
X15978Y24149D01*
X15873Y23895D01*
X15837Y23622D01*
X15873Y23349D01*
X15978Y23095D01*
X16146Y22877D01*
X16364Y22709D01*
X16618Y22604D01*
X16891Y22568D01*
X17164Y22604D01*
X17418Y22709D01*
X17636Y22877D01*
X17804Y23095D01*
X17909Y23349D01*
X17945Y23622D01*
X17909Y23895D01*
X17804Y24149D01*
X17636Y24367D01*
X17418Y24535D01*
X17164Y24640D01*
X16891Y24676D01*
D02*
G37*
G36*
X1651D02*
X1378Y24640D01*
X1124Y24535D01*
X906Y24367D01*
X738Y24149D01*
X633Y23895D01*
X597Y23622D01*
X633Y23349D01*
X738Y23095D01*
X906Y22877D01*
X1124Y22709D01*
X1378Y22604D01*
X1651Y22568D01*
X1924Y22604D01*
X1943Y22612D01*
X2049Y22526D01*
X2069Y22425D01*
X2139Y22319D01*
X2245Y22249D01*
X2370Y22224D01*
X2495Y22249D01*
X2601Y22319D01*
X2671Y22425D01*
X2696Y22550D01*
X2671Y22675D01*
X2601Y22781D01*
X2517Y22837D01*
X2485Y22911D01*
X2474Y22978D01*
X2564Y23095D01*
X2669Y23349D01*
X2705Y23622D01*
X2669Y23895D01*
X2564Y24149D01*
X2396Y24367D01*
X2178Y24535D01*
X1924Y24640D01*
X1651Y24676D01*
D02*
G37*
G36*
X14850Y23316D02*
X14725Y23291D01*
X14619Y23221D01*
X14549Y23115D01*
X14524Y22990D01*
X14549Y22865D01*
X14619Y22759D01*
X14722Y22690D01*
X14659Y22595D01*
X14634Y22470D01*
X14659Y22345D01*
X14729Y22239D01*
X14835Y22169D01*
X14960Y22144D01*
X15085Y22169D01*
X15191Y22239D01*
X15261Y22345D01*
X15286Y22470D01*
X15261Y22595D01*
X15191Y22701D01*
X15088Y22770D01*
X15151Y22865D01*
X15176Y22990D01*
X15151Y23115D01*
X15081Y23221D01*
X14975Y23291D01*
X14850Y23316D01*
D02*
G37*
G36*
X9820Y22416D02*
X9695Y22391D01*
X9589Y22321D01*
X9519Y22215D01*
X9494Y22090D01*
X9519Y21965D01*
X9589Y21859D01*
X9695Y21789D01*
X9820Y21764D01*
X9945Y21789D01*
X10051Y21859D01*
X10113Y21952D01*
X10164Y21956D01*
X10238Y21940D01*
X10246Y21899D01*
X10316Y21793D01*
X10422Y21723D01*
X10547Y21698D01*
X10672Y21723D01*
X10777Y21793D01*
X10840Y21698D01*
X10946Y21628D01*
X11071Y21603D01*
X11196Y21628D01*
X11302Y21698D01*
X11372Y21804D01*
X11397Y21929D01*
X11372Y22054D01*
X11302Y22160D01*
X11196Y22230D01*
X11071Y22255D01*
X10946Y22230D01*
X10841Y22160D01*
X10778Y22255D01*
X10672Y22326D01*
X10547Y22350D01*
X10422Y22326D01*
X10316Y22255D01*
X10254Y22162D01*
X10203Y22158D01*
X10129Y22174D01*
X10121Y22215D01*
X10051Y22321D01*
X9945Y22391D01*
X9820Y22416D01*
D02*
G37*
G36*
X8947Y22173D02*
X8822Y22149D01*
X8717Y22078D01*
X8646Y21972D01*
X8621Y21847D01*
X8646Y21722D01*
X8717Y21616D01*
X8822Y21546D01*
X8947Y21521D01*
X9072Y21546D01*
X9178Y21616D01*
X9249Y21722D01*
X9273Y21847D01*
X9249Y21972D01*
X9178Y22078D01*
X9072Y22149D01*
X8947Y22173D01*
D02*
G37*
G36*
X11890Y21846D02*
X11765Y21821D01*
X11659Y21751D01*
X11589Y21645D01*
X11564Y21520D01*
X11589Y21395D01*
X11659Y21289D01*
X11765Y21219D01*
X11890Y21194D01*
X12015Y21219D01*
X12121Y21289D01*
X12160Y21348D01*
X12161Y21350D01*
X12274Y21303D01*
X12274Y21301D01*
X12262Y21242D01*
X12287Y21117D01*
X12358Y21011D01*
X12463Y20940D01*
X12588Y20916D01*
X12713Y20940D01*
X12819Y21011D01*
X12890Y21117D01*
X12914Y21242D01*
X12890Y21367D01*
X12819Y21473D01*
X12713Y21543D01*
X12588Y21568D01*
X12463Y21543D01*
X12358Y21473D01*
X12319Y21414D01*
X12317Y21412D01*
X12204Y21459D01*
X12204Y21461D01*
X12216Y21520D01*
X12191Y21645D01*
X12121Y21751D01*
X12015Y21821D01*
X11890Y21846D01*
D02*
G37*
G36*
X6790Y21376D02*
X6665Y21351D01*
X6559Y21281D01*
X6489Y21175D01*
X6464Y21050D01*
X6489Y20925D01*
X6559Y20819D01*
X6665Y20749D01*
X6790Y20724D01*
X6915Y20749D01*
X7021Y20819D01*
X7091Y20925D01*
X7116Y21050D01*
X7091Y21175D01*
X7021Y21281D01*
X6915Y21351D01*
X6790Y21376D01*
D02*
G37*
G36*
X4150Y21906D02*
X4025Y21881D01*
X3919Y21811D01*
X3849Y21705D01*
X3824Y21580D01*
X3849Y21455D01*
X3884Y21402D01*
X3838Y21270D01*
X3795Y21261D01*
X3689Y21191D01*
X3619Y21085D01*
X3594Y20960D01*
X3619Y20835D01*
X3689Y20729D01*
X3795Y20659D01*
X3920Y20634D01*
X4045Y20659D01*
X4151Y20729D01*
X4221Y20835D01*
X4246Y20960D01*
X4221Y21085D01*
X4186Y21138D01*
X4232Y21270D01*
X4275Y21279D01*
X4381Y21349D01*
X4451Y21455D01*
X4476Y21580D01*
X4451Y21705D01*
X4381Y21811D01*
X4275Y21881D01*
X4150Y21906D01*
D02*
G37*
G36*
X16891Y22136D02*
X16618Y22100D01*
X16364Y21995D01*
X16146Y21827D01*
X15978Y21609D01*
X15873Y21355D01*
X15837Y21082D01*
X15873Y20809D01*
X15978Y20555D01*
X16146Y20337D01*
X16364Y20169D01*
X16618Y20064D01*
X16891Y20028D01*
X17164Y20064D01*
X17418Y20169D01*
X17636Y20337D01*
X17804Y20555D01*
X17909Y20809D01*
X17945Y21082D01*
X17909Y21355D01*
X17804Y21609D01*
X17636Y21827D01*
X17418Y21995D01*
X17164Y22100D01*
X16891Y22136D01*
D02*
G37*
G36*
X12553Y20613D02*
X12428Y20588D01*
X12323Y20518D01*
X12252Y20412D01*
X12227Y20287D01*
X12252Y20162D01*
X12323Y20056D01*
X12428Y19985D01*
X12553Y19961D01*
X12678Y19985D01*
X12784Y20056D01*
X12855Y20162D01*
X12879Y20287D01*
X12855Y20412D01*
X12784Y20518D01*
X12678Y20588D01*
X12553Y20613D01*
D02*
G37*
G36*
X6110Y20576D02*
X5985Y20551D01*
X5879Y20481D01*
X5809Y20375D01*
X5784Y20250D01*
X5809Y20125D01*
X5879Y20019D01*
X5985Y19949D01*
X6110Y19924D01*
X6235Y19949D01*
X6341Y20019D01*
X6411Y20125D01*
X6436Y20250D01*
X6411Y20375D01*
X6341Y20481D01*
X6235Y20551D01*
X6110Y20576D01*
D02*
G37*
G36*
X1651Y22136D02*
X1378Y22100D01*
X1124Y21995D01*
X906Y21827D01*
X738Y21609D01*
X633Y21355D01*
X597Y21082D01*
X633Y20809D01*
X738Y20555D01*
X906Y20337D01*
X1124Y20169D01*
X1378Y20064D01*
X1651Y20028D01*
X1924Y20064D01*
X2071Y20125D01*
X2105Y20139D01*
X2162Y20033D01*
X2099Y19991D01*
X2029Y19885D01*
X2004Y19760D01*
X2026Y19648D01*
X1995Y19605D01*
X1938Y19554D01*
X1924Y19560D01*
X1651Y19596D01*
X1378Y19560D01*
X1124Y19455D01*
X906Y19287D01*
X738Y19069D01*
X633Y18815D01*
X597Y18542D01*
X633Y18269D01*
X738Y18015D01*
X906Y17797D01*
X1124Y17629D01*
X1378Y17524D01*
X1651Y17488D01*
X1924Y17524D01*
X2178Y17629D01*
X2396Y17797D01*
X2564Y18015D01*
X2669Y18269D01*
X2705Y18542D01*
X2669Y18815D01*
X2564Y19069D01*
X2396Y19287D01*
X2358Y19317D01*
X2388Y19445D01*
X2455Y19459D01*
X2474Y19471D01*
X2619Y19469D01*
X2725Y19399D01*
X2850Y19374D01*
X2975Y19399D01*
X3081Y19469D01*
X3151Y19575D01*
X3176Y19700D01*
X3202Y19725D01*
X3260Y19714D01*
X3385Y19739D01*
X3491Y19809D01*
X3561Y19915D01*
X3586Y20040D01*
X3561Y20165D01*
X3491Y20271D01*
X3385Y20341D01*
X3260Y20366D01*
X3135Y20341D01*
X3029Y20271D01*
X2959Y20165D01*
X2934Y20040D01*
X2908Y20015D01*
X2850Y20026D01*
X2725Y20001D01*
X2706Y19989D01*
X2561Y19991D01*
X2455Y20061D01*
X2330Y20086D01*
X2270Y20074D01*
X2232Y20067D01*
X2178Y20169D01*
X2212Y20195D01*
X2396Y20337D01*
X2564Y20555D01*
X2669Y20809D01*
X2705Y21082D01*
X2669Y21355D01*
X2564Y21609D01*
X2396Y21827D01*
X2178Y21995D01*
X1924Y22100D01*
X1651Y22136D01*
D02*
G37*
G36*
X6230Y19796D02*
X6105Y19771D01*
X5999Y19701D01*
X5929Y19595D01*
X5904Y19470D01*
X5929Y19345D01*
X5999Y19239D01*
X6105Y19169D01*
X6230Y19144D01*
X6355Y19169D01*
X6461Y19239D01*
X6531Y19345D01*
X6556Y19470D01*
X6531Y19595D01*
X6461Y19701D01*
X6355Y19771D01*
X6230Y19796D01*
D02*
G37*
G36*
X15330Y18436D02*
X15205Y18411D01*
X15099Y18341D01*
X15029Y18235D01*
X15004Y18110D01*
X15029Y17985D01*
X15099Y17879D01*
X15205Y17809D01*
X15330Y17784D01*
X15455Y17809D01*
X15561Y17879D01*
X15631Y17985D01*
X15656Y18110D01*
X15631Y18235D01*
X15561Y18341D01*
X15455Y18411D01*
X15330Y18436D01*
D02*
G37*
G36*
X16891Y19596D02*
X16618Y19560D01*
X16364Y19455D01*
X16146Y19287D01*
X15978Y19069D01*
X15873Y18815D01*
X15837Y18542D01*
X15873Y18269D01*
X15978Y18015D01*
X16146Y17797D01*
X16364Y17629D01*
X16618Y17524D01*
X16891Y17488D01*
X17164Y17524D01*
X17418Y17629D01*
X17636Y17797D01*
X17804Y18015D01*
X17909Y18269D01*
X17945Y18542D01*
X17909Y18815D01*
X17804Y19069D01*
X17636Y19287D01*
X17418Y19455D01*
X17164Y19560D01*
X16891Y19596D01*
D02*
G37*
G36*
X15720Y17476D02*
X15595Y17451D01*
X15489Y17381D01*
X15419Y17275D01*
X15394Y17150D01*
X15419Y17025D01*
X15489Y16919D01*
X15595Y16849D01*
X15720Y16824D01*
X15845Y16849D01*
X15951Y16919D01*
X16021Y17025D01*
X16046Y17150D01*
X16021Y17275D01*
X15951Y17381D01*
X15845Y17451D01*
X15720Y17476D01*
D02*
G37*
G36*
X4010Y17795D02*
X3885Y17770D01*
X3779Y17700D01*
X3709Y17594D01*
X3684Y17469D01*
X3704Y17366D01*
X3708Y17343D01*
X3634Y17239D01*
X3595Y17231D01*
X3489Y17161D01*
X3419Y17055D01*
X3394Y16930D01*
X3419Y16805D01*
X3489Y16699D01*
X3595Y16629D01*
X3720Y16604D01*
X3845Y16629D01*
X3951Y16699D01*
X4021Y16805D01*
X4046Y16930D01*
X4026Y17033D01*
X4022Y17056D01*
X4096Y17160D01*
X4135Y17168D01*
X4241Y17238D01*
X4311Y17344D01*
X4336Y17469D01*
X4311Y17594D01*
X4241Y17700D01*
X4135Y17770D01*
X4010Y17795D01*
D02*
G37*
G36*
X14600Y17086D02*
X14475Y17061D01*
X14369Y16991D01*
X14299Y16885D01*
X14274Y16760D01*
X14299Y16635D01*
X14369Y16529D01*
X14475Y16459D01*
X14600Y16434D01*
X14725Y16459D01*
X14831Y16529D01*
X14901Y16635D01*
X14926Y16760D01*
X14901Y16885D01*
X14831Y16991D01*
X14725Y17061D01*
X14600Y17086D01*
D02*
G37*
G36*
X9090Y16026D02*
X8965Y16001D01*
X8859Y15931D01*
X8789Y15825D01*
X8764Y15700D01*
X8789Y15575D01*
X8859Y15469D01*
X8965Y15399D01*
X9090Y15374D01*
X9215Y15399D01*
X9321Y15469D01*
X9391Y15575D01*
X9416Y15700D01*
X9391Y15825D01*
X9321Y15931D01*
X9215Y16001D01*
X9090Y16026D01*
D02*
G37*
G36*
X15420Y15696D02*
X15295Y15671D01*
X15189Y15601D01*
X15119Y15495D01*
X15094Y15370D01*
X15119Y15245D01*
X15189Y15139D01*
X15295Y15069D01*
X15420Y15044D01*
X15545Y15069D01*
X15651Y15139D01*
X15721Y15245D01*
X15746Y15370D01*
X15721Y15495D01*
X15651Y15601D01*
X15545Y15671D01*
X15420Y15696D01*
D02*
G37*
G36*
X5097Y15613D02*
X4972Y15589D01*
X4866Y15518D01*
X4796Y15412D01*
X4771Y15287D01*
X4796Y15162D01*
X4866Y15057D01*
X4972Y14986D01*
X5097Y14961D01*
X5222Y14986D01*
X5328Y15057D01*
X5399Y15162D01*
X5423Y15287D01*
X5399Y15412D01*
X5328Y15518D01*
X5222Y15589D01*
X5097Y15613D01*
D02*
G37*
G36*
X16891Y17056D02*
X16618Y17020D01*
X16364Y16915D01*
X16146Y16747D01*
X15978Y16529D01*
X15873Y16275D01*
X15837Y16002D01*
X15873Y15729D01*
X15978Y15475D01*
X16146Y15257D01*
X16364Y15089D01*
X16618Y14984D01*
X16891Y14948D01*
X17164Y14984D01*
X17418Y15089D01*
X17636Y15257D01*
X17804Y15475D01*
X17909Y15729D01*
X17945Y16002D01*
X17909Y16275D01*
X17804Y16529D01*
X17636Y16747D01*
X17418Y16915D01*
X17164Y17020D01*
X16891Y17056D01*
D02*
G37*
G36*
X1651D02*
X1378Y17020D01*
X1124Y16915D01*
X906Y16747D01*
X738Y16529D01*
X633Y16275D01*
X597Y16002D01*
X633Y15729D01*
X738Y15475D01*
X906Y15257D01*
X1124Y15089D01*
X1378Y14984D01*
X1651Y14948D01*
X1924Y14984D01*
X2178Y15089D01*
X2396Y15257D01*
X2564Y15475D01*
X2669Y15729D01*
X2705Y16002D01*
X2669Y16275D01*
X2564Y16529D01*
X2396Y16747D01*
X2178Y16915D01*
X1924Y17020D01*
X1651Y17056D01*
D02*
G37*
G36*
X14230Y15276D02*
X14105Y15251D01*
X13999Y15181D01*
X13929Y15075D01*
X13904Y14950D01*
X13929Y14825D01*
X13999Y14719D01*
X14105Y14649D01*
X14230Y14624D01*
X14355Y14649D01*
X14461Y14719D01*
X14531Y14825D01*
X14556Y14950D01*
X14531Y15075D01*
X14461Y15181D01*
X14355Y15251D01*
X14230Y15276D01*
D02*
G37*
G36*
X5831Y14736D02*
X5706Y14711D01*
X5600Y14641D01*
X5530Y14535D01*
X5505Y14410D01*
X5530Y14285D01*
X5600Y14179D01*
X5706Y14109D01*
X5831Y14084D01*
X5956Y14109D01*
X6062Y14179D01*
X6132Y14285D01*
X6157Y14410D01*
X6132Y14535D01*
X6062Y14641D01*
X5956Y14711D01*
X5831Y14736D01*
D02*
G37*
G36*
X11143Y13555D02*
X11018Y13531D01*
X10912Y13460D01*
X10841Y13354D01*
X10816Y13229D01*
X10841Y13104D01*
X10912Y12998D01*
X11018Y12928D01*
X11143Y12903D01*
X11267Y12928D01*
X11373Y12998D01*
X11444Y13104D01*
X11469Y13229D01*
X11444Y13354D01*
X11373Y13460D01*
X11267Y13531D01*
X11143Y13555D01*
D02*
G37*
G36*
X12300Y13276D02*
X12175Y13251D01*
X12069Y13181D01*
X11999Y13075D01*
X11974Y12950D01*
X11999Y12825D01*
X12069Y12719D01*
X12175Y12649D01*
X12300Y12624D01*
X12425Y12649D01*
X12531Y12719D01*
X12601Y12825D01*
X12626Y12950D01*
X12601Y13075D01*
X12531Y13181D01*
X12425Y13251D01*
X12300Y13276D01*
D02*
G37*
G36*
X16891Y14516D02*
X16618Y14480D01*
X16364Y14375D01*
X16146Y14207D01*
X15978Y13989D01*
X15873Y13735D01*
X15837Y13462D01*
X15873Y13189D01*
X15978Y12935D01*
X16146Y12717D01*
X16364Y12549D01*
X16618Y12444D01*
X16891Y12408D01*
X17164Y12444D01*
X17418Y12549D01*
X17636Y12717D01*
X17804Y12935D01*
X17909Y13189D01*
X17945Y13462D01*
X17909Y13735D01*
X17804Y13989D01*
X17636Y14207D01*
X17418Y14375D01*
X17164Y14480D01*
X16891Y14516D01*
D02*
G37*
G36*
X1651D02*
X1378Y14480D01*
X1124Y14375D01*
X906Y14207D01*
X738Y13989D01*
X633Y13735D01*
X597Y13462D01*
X633Y13189D01*
X738Y12935D01*
X906Y12717D01*
X1124Y12549D01*
X1378Y12444D01*
X1651Y12408D01*
X1924Y12444D01*
X2178Y12549D01*
X2396Y12717D01*
X2564Y12935D01*
X2669Y13189D01*
X2705Y13462D01*
X2669Y13735D01*
X2564Y13989D01*
X2396Y14207D01*
X2178Y14375D01*
X1924Y14480D01*
X1651Y14516D01*
D02*
G37*
G36*
X9730Y11536D02*
X9605Y11511D01*
X9499Y11441D01*
X9429Y11335D01*
X9404Y11210D01*
X9429Y11085D01*
X9499Y10979D01*
X9605Y10909D01*
X9730Y10884D01*
X9855Y10909D01*
X9961Y10979D01*
X10031Y11085D01*
X10056Y11210D01*
X10031Y11335D01*
X9961Y11441D01*
X9855Y11511D01*
X9730Y11536D01*
D02*
G37*
G36*
X12500Y11356D02*
X12375Y11331D01*
X12269Y11261D01*
X12199Y11155D01*
X12174Y11030D01*
X12199Y10905D01*
X12269Y10799D01*
X12375Y10729D01*
X12500Y10704D01*
X12625Y10729D01*
X12731Y10799D01*
X12801Y10905D01*
X12826Y11030D01*
X12801Y11155D01*
X12731Y11261D01*
X12625Y11331D01*
X12500Y11356D01*
D02*
G37*
G36*
X5570Y10556D02*
X5445Y10531D01*
X5339Y10461D01*
X5269Y10355D01*
X5244Y10230D01*
X5269Y10105D01*
X5339Y9999D01*
X5445Y9929D01*
X5570Y9904D01*
X5695Y9929D01*
X5801Y9999D01*
X5871Y10105D01*
X5896Y10230D01*
X5871Y10355D01*
X5801Y10461D01*
X5695Y10531D01*
X5570Y10556D01*
D02*
G37*
G36*
X16891Y11976D02*
X16618Y11940D01*
X16364Y11835D01*
X16146Y11667D01*
X15978Y11449D01*
X15873Y11195D01*
X15837Y10922D01*
X15873Y10649D01*
X15978Y10395D01*
X16146Y10177D01*
X16364Y10009D01*
X16618Y9904D01*
X16891Y9868D01*
X17164Y9904D01*
X17418Y10009D01*
X17636Y10177D01*
X17804Y10395D01*
X17909Y10649D01*
X17945Y10922D01*
X17909Y11195D01*
X17804Y11449D01*
X17636Y11667D01*
X17418Y11835D01*
X17164Y11940D01*
X16891Y11976D01*
D02*
G37*
G36*
X1651D02*
X1378Y11940D01*
X1124Y11835D01*
X906Y11667D01*
X738Y11449D01*
X633Y11195D01*
X597Y10922D01*
X633Y10649D01*
X738Y10395D01*
X906Y10177D01*
X1124Y10009D01*
X1378Y9904D01*
X1651Y9868D01*
X1924Y9904D01*
X2178Y10009D01*
X2396Y10177D01*
X2564Y10395D01*
X2669Y10649D01*
X2705Y10922D01*
X2669Y11195D01*
X2564Y11449D01*
X2396Y11667D01*
X2178Y11835D01*
X1924Y11940D01*
X1651Y11976D01*
D02*
G37*
G36*
X16891Y9436D02*
X16618Y9400D01*
X16364Y9295D01*
X16146Y9127D01*
X15978Y8909D01*
X15873Y8655D01*
X15837Y8382D01*
X15873Y8109D01*
X15978Y7855D01*
X16146Y7637D01*
X16364Y7469D01*
X16618Y7364D01*
X16891Y7328D01*
X17164Y7364D01*
X17418Y7469D01*
X17636Y7637D01*
X17804Y7855D01*
X17909Y8109D01*
X17945Y8382D01*
X17909Y8655D01*
X17804Y8909D01*
X17636Y9127D01*
X17418Y9295D01*
X17164Y9400D01*
X16891Y9436D01*
D02*
G37*
G36*
X1651D02*
X1378Y9400D01*
X1124Y9295D01*
X906Y9127D01*
X738Y8909D01*
X633Y8655D01*
X597Y8382D01*
X633Y8109D01*
X738Y7855D01*
X906Y7637D01*
X1124Y7469D01*
X1378Y7364D01*
X1651Y7328D01*
X1924Y7364D01*
X2178Y7469D01*
X2396Y7637D01*
X2564Y7855D01*
X2669Y8109D01*
X2705Y8382D01*
X2669Y8655D01*
X2564Y8909D01*
X2396Y9127D01*
X2178Y9295D01*
X1924Y9400D01*
X1651Y9436D01*
D02*
G37*
G36*
X4620Y7321D02*
X4495Y7296D01*
X4389Y7226D01*
X4319Y7120D01*
X4294Y6995D01*
X4319Y6870D01*
X4389Y6764D01*
X4495Y6694D01*
X4620Y6669D01*
X4745Y6694D01*
X4851Y6764D01*
X4921Y6870D01*
X4946Y6995D01*
X4921Y7120D01*
X4851Y7226D01*
X4745Y7296D01*
X4620Y7321D01*
D02*
G37*
G36*
X8390Y6906D02*
X8265Y6881D01*
X8159Y6811D01*
X8089Y6705D01*
X8064Y6580D01*
X8089Y6455D01*
X8159Y6349D01*
X8265Y6279D01*
X8390Y6254D01*
X8515Y6279D01*
X8621Y6349D01*
X8691Y6455D01*
X8716Y6580D01*
X8691Y6705D01*
X8621Y6811D01*
X8515Y6881D01*
X8390Y6906D01*
D02*
G37*
G36*
X13255Y6925D02*
X13093Y6904D01*
X12942Y6842D01*
X12813Y6742D01*
X12713Y6613D01*
X12651Y6462D01*
X12630Y6300D01*
Y5800D01*
X12651Y5638D01*
X12713Y5487D01*
X12813Y5358D01*
X12942Y5258D01*
X13093Y5196D01*
X13255Y5175D01*
X13417Y5196D01*
X13568Y5258D01*
X13697Y5358D01*
X13785Y5472D01*
X13839Y5468D01*
X13905Y5439D01*
Y5180D01*
X15145D01*
Y6920D01*
X13905D01*
Y6661D01*
X13839Y6632D01*
X13785Y6628D01*
X13697Y6742D01*
X13568Y6842D01*
X13417Y6904D01*
X13255Y6925D01*
D02*
G37*
G36*
X16891Y6896D02*
X16618Y6860D01*
X16364Y6755D01*
X16146Y6587D01*
X15978Y6369D01*
X15873Y6115D01*
X15837Y5842D01*
X15873Y5569D01*
X15978Y5315D01*
X16146Y5097D01*
X16364Y4929D01*
X16618Y4824D01*
X16891Y4788D01*
X17164Y4824D01*
X17418Y4929D01*
X17636Y5097D01*
X17804Y5315D01*
X17909Y5569D01*
X17945Y5842D01*
X17909Y6115D01*
X17804Y6369D01*
X17636Y6587D01*
X17418Y6755D01*
X17164Y6860D01*
X16891Y6896D01*
D02*
G37*
G36*
X1651D02*
X1378Y6860D01*
X1124Y6755D01*
X906Y6587D01*
X738Y6369D01*
X633Y6115D01*
X597Y5842D01*
X633Y5569D01*
X738Y5315D01*
X906Y5097D01*
X1124Y4929D01*
X1378Y4824D01*
X1651Y4788D01*
X1924Y4824D01*
X2178Y4929D01*
X2396Y5097D01*
X2564Y5315D01*
X2669Y5569D01*
X2705Y5842D01*
X2669Y6115D01*
X2564Y6369D01*
X2396Y6587D01*
X2178Y6755D01*
X1924Y6860D01*
X1651Y6896D01*
D02*
G37*
G36*
X9560Y4896D02*
X9435Y4871D01*
X9329Y4801D01*
X9259Y4695D01*
X9234Y4570D01*
X9259Y4445D01*
X9329Y4339D01*
X9435Y4269D01*
X9560Y4244D01*
X9685Y4269D01*
X9791Y4339D01*
X9861Y4445D01*
X9886Y4570D01*
X9861Y4695D01*
X9791Y4801D01*
X9685Y4871D01*
X9560Y4896D01*
D02*
G37*
G36*
X11880Y4806D02*
X11755Y4781D01*
X11649Y4711D01*
X11579Y4605D01*
X11554Y4480D01*
X11579Y4355D01*
X11649Y4249D01*
X11755Y4179D01*
X11880Y4154D01*
X12005Y4179D01*
X12111Y4249D01*
X12181Y4355D01*
X12206Y4480D01*
X12181Y4605D01*
X12111Y4711D01*
X12005Y4781D01*
X11880Y4806D01*
D02*
G37*
G36*
X1730Y2646D02*
X1605Y2621D01*
X1499Y2551D01*
X1429Y2445D01*
X1404Y2320D01*
X1429Y2195D01*
X1499Y2089D01*
X1605Y2019D01*
X1730Y1994D01*
X1855Y2019D01*
X1961Y2089D01*
X2031Y2195D01*
X2056Y2320D01*
X2031Y2445D01*
X1961Y2551D01*
X1855Y2621D01*
X1730Y2646D01*
D02*
G37*
G36*
X13500Y1896D02*
X13375Y1871D01*
X13269Y1801D01*
X13199Y1695D01*
X13174Y1570D01*
X13199Y1445D01*
X13269Y1339D01*
X13375Y1269D01*
X13500Y1244D01*
X13625Y1269D01*
X13731Y1339D01*
X13801Y1445D01*
X13826Y1570D01*
X13801Y1695D01*
X13731Y1801D01*
X13625Y1871D01*
X13500Y1896D01*
D02*
G37*
G36*
X3160Y1436D02*
X3035Y1411D01*
X2929Y1341D01*
X2859Y1235D01*
X2834Y1110D01*
X2859Y985D01*
X2929Y879D01*
X3035Y809D01*
X3160Y784D01*
X3285Y809D01*
X3391Y879D01*
X3461Y985D01*
X3486Y1110D01*
X3461Y1235D01*
X3391Y1341D01*
X3285Y1411D01*
X3160Y1436D01*
D02*
G37*
G36*
X10570Y1416D02*
X10445Y1391D01*
X10339Y1321D01*
X10269Y1215D01*
X10244Y1090D01*
X10269Y965D01*
X10339Y859D01*
X10445Y789D01*
X10570Y764D01*
X10695Y789D01*
X10801Y859D01*
X10871Y965D01*
X10896Y1090D01*
X10871Y1215D01*
X10801Y1321D01*
X10695Y1391D01*
X10570Y1416D01*
D02*
G37*
G36*
X-18551Y-17124D02*
X-18568D01*
X-18579Y-17126D01*
X-18610Y-17129D01*
X-18646Y-17138D01*
X-18690Y-17151D01*
X-18737Y-17171D01*
X-18782Y-17199D01*
X-18826Y-17235D01*
X-18832Y-17240D01*
X-18843Y-17254D01*
X-18862Y-17279D01*
X-18882Y-17312D01*
X-18904Y-17351D01*
X-18923Y-17401D01*
X-18940Y-17460D01*
X-18948Y-17523D01*
X-18168D01*
Y-17521D01*
Y-17515D01*
X-18171Y-17507D01*
Y-17496D01*
X-18177Y-17462D01*
X-18185Y-17426D01*
X-18199Y-17382D01*
X-18213Y-17340D01*
X-18235Y-17299D01*
X-18260Y-17263D01*
Y-17260D01*
X-18265Y-17257D01*
X-18279Y-17240D01*
X-18304Y-17218D01*
X-18338Y-17193D01*
X-18379Y-17168D01*
X-18429Y-17146D01*
X-18488Y-17129D01*
X-18518Y-17126D01*
X-18551Y-17124D01*
D02*
G37*
%LPD*%
D15*
X0Y0D02*
X18540D01*
Y50290D01*
X0D02*
X18540D01*
X0Y0D02*
Y50290D01*
D74*
X17374Y44094D02*
D03*
D75*
X14834D02*
D03*
Y46634D02*
D03*
X17374D02*
D03*
Y49174D02*
D03*
X6517Y46142D02*
D03*
X11517D02*
D03*
D76*
X14525Y6050D02*
D03*
D77*
X13255D02*
D03*
D78*
X5517Y48842D02*
D03*
X12517D02*
D03*
D79*
X1651Y38862D02*
D03*
Y41402D02*
D03*
Y36322D02*
D03*
Y33782D02*
D03*
Y31242D02*
D03*
Y28702D02*
D03*
Y26162D02*
D03*
Y23622D02*
D03*
Y21082D02*
D03*
Y18542D02*
D03*
Y16002D02*
D03*
Y13462D02*
D03*
Y10922D02*
D03*
Y8382D02*
D03*
Y5842D02*
D03*
X16891Y38862D02*
D03*
Y41402D02*
D03*
Y36322D02*
D03*
Y33782D02*
D03*
Y31242D02*
D03*
Y28702D02*
D03*
Y26162D02*
D03*
Y23622D02*
D03*
Y21082D02*
D03*
Y18542D02*
D03*
Y16002D02*
D03*
Y13462D02*
D03*
Y10922D02*
D03*
Y8382D02*
D03*
Y5842D02*
D03*
D81*
X5570Y10230D02*
D03*
X6790Y21050D02*
D03*
X8520Y36928D02*
D03*
X8940Y36150D02*
D03*
X3260Y20040D02*
D03*
X2850Y19700D02*
D03*
X2330Y19760D02*
D03*
X3920Y20960D02*
D03*
X4150Y21580D02*
D03*
X6420Y42340D02*
D03*
X5770Y40700D02*
D03*
X11143Y13229D02*
D03*
X12300Y12950D02*
D03*
X14490Y9610D02*
D03*
X12540Y9700D02*
D03*
X11020Y10410D02*
D03*
X12500Y11030D02*
D03*
X9730Y11210D02*
D03*
X7980Y17400D02*
D03*
X7920Y20090D02*
D03*
X10680Y20160D02*
D03*
X9347Y18669D02*
D03*
X10760Y17910D02*
D03*
X9090Y15700D02*
D03*
X9636Y15680D02*
D03*
X13020Y11900D02*
D03*
X15320Y10890D02*
D03*
X14460Y8480D02*
D03*
X12770Y8500D02*
D03*
X11100Y9430D02*
D03*
X11880Y4480D02*
D03*
X7730Y3400D02*
D03*
X7717Y4130D02*
D03*
X7240Y6220D02*
D03*
X9560Y4570D02*
D03*
X9380Y6010D02*
D03*
X13500Y1570D02*
D03*
X3160Y1110D02*
D03*
X4844Y8204D02*
D03*
X5831Y14410D02*
D03*
X5097Y15287D02*
D03*
X8947Y21847D02*
D03*
X10547Y22024D02*
D03*
X11071Y21929D02*
D03*
X12588Y21242D02*
D03*
X12553Y20287D02*
D03*
X11890Y21520D02*
D03*
X4010Y17469D02*
D03*
X3720Y16930D02*
D03*
X6110Y20250D02*
D03*
X3420Y31260D02*
D03*
X2370Y22550D02*
D03*
X5010Y30280D02*
D03*
X6521Y28450D02*
D03*
X4080Y31850D02*
D03*
X6040Y34380D02*
D03*
X6180Y36050D02*
D03*
X3930Y36060D02*
D03*
X8330Y33400D02*
D03*
X5990Y32910D02*
D03*
X9410Y32830D02*
D03*
X10650Y32950D02*
D03*
X11800Y32700D02*
D03*
X14570Y31480D02*
D03*
X13670Y30230D02*
D03*
X11790Y30500D02*
D03*
X11010Y30440D02*
D03*
X9390Y30630D02*
D03*
X7100Y30680D02*
D03*
X10660Y28390D02*
D03*
X13820Y27450D02*
D03*
X13850Y25220D02*
D03*
X12260Y26180D02*
D03*
X7740Y25860D02*
D03*
X12340Y32860D02*
D03*
X11990Y35670D02*
D03*
X14570Y36030D02*
D03*
X15000Y36540D02*
D03*
X11840Y36750D02*
D03*
X11720Y38960D02*
D03*
X2650Y46480D02*
D03*
X1155Y49485D02*
D03*
X2650Y49470D02*
D03*
X14570Y23650D02*
D03*
X14850Y22990D02*
D03*
X14960Y22470D02*
D03*
X8390Y6580D02*
D03*
X7090Y32930D02*
D03*
X7410Y26720D02*
D03*
X4110Y26530D02*
D03*
X9820Y22090D02*
D03*
X14600Y16760D02*
D03*
X15720Y17150D02*
D03*
X15330Y18110D02*
D03*
X14230Y14950D02*
D03*
X15420Y15370D02*
D03*
X6230Y19470D02*
D03*
X10030Y39250D02*
D03*
X10550Y38830D02*
D03*
X10630Y41410D02*
D03*
X8880Y44990D02*
D03*
X9800D02*
D03*
X6960Y43130D02*
D03*
X7460Y44320D02*
D03*
X13110Y45440D02*
D03*
X8190Y44930D02*
D03*
X3630Y44940D02*
D03*
X7230Y24240D02*
D03*
X7790Y25150D02*
D03*
X7720Y24550D02*
D03*
X15020Y32950D02*
D03*
X15110Y41170D02*
D03*
X4270Y37500D02*
D03*
X14900Y38590D02*
D03*
X4369Y720D02*
D03*
X9580Y13050D02*
D03*
X14150Y42710D02*
D03*
X13280Y42610D02*
D03*
X4620Y6995D02*
D03*
X1730Y2320D02*
D03*
X13650Y28900D02*
D03*
X13004Y39800D02*
D03*
X10600Y3350D02*
D03*
X1200Y46500D02*
D03*
X9530Y40370D02*
D03*
X10490Y43630D02*
D03*
X7870Y28320D02*
D03*
X8300Y30350D02*
D03*
X10720Y47050D02*
D03*
X8000Y729D02*
D03*
X10570Y1090D02*
D03*
X760Y47070D02*
D03*
X1790Y49640D02*
D03*
X4230Y49630D02*
D03*
X4960Y47220D02*
D03*
X700Y43750D02*
D03*
X4530Y43180D02*
D03*
X3550Y40520D02*
D03*
X700Y40000D02*
D03*
Y37490D02*
D03*
Y35030D02*
D03*
X3670Y34710D02*
D03*
X5660Y37080D02*
D03*
X3840Y38690D02*
D03*
X5860Y38490D02*
D03*
X680Y29910D02*
D03*
X660Y32310D02*
D03*
X4360Y28960D02*
D03*
X5590Y28920D02*
D03*
X6580Y30410D02*
D03*
X7110Y33730D02*
D03*
X670Y22260D02*
D03*
X650Y19820D02*
D03*
X590Y17210D02*
D03*
X2420Y17320D02*
D03*
X610Y14760D02*
D03*
X3880Y16050D02*
D03*
Y14610D02*
D03*
X5650Y13510D02*
D03*
X530Y12080D02*
D03*
X2630Y11810D02*
D03*
X740Y9710D02*
D03*
X3920Y12390D02*
D03*
X2550Y7160D02*
D03*
X700Y4860D02*
D03*
X5130Y3920D02*
D03*
X5097Y729D02*
D03*
X730Y680D02*
D03*
X5517Y6340D02*
D03*
X13550Y620D02*
D03*
X15940Y610D02*
D03*
X17830Y650D02*
D03*
X17850Y12060D02*
D03*
X17770Y14780D02*
D03*
X17800Y17270D02*
D03*
X17740Y19970D02*
D03*
X15970Y22040D02*
D03*
X15980Y24870D02*
D03*
X17890Y27650D02*
D03*
X17790Y32400D02*
D03*
X17820Y30000D02*
D03*
X17800Y35090D02*
D03*
X17860Y37540D02*
D03*
X9190Y36930D02*
D03*
X8130Y34310D02*
D03*
X12200Y33670D02*
D03*
X10040Y34200D02*
D03*
X10760Y36130D02*
D03*
X10360Y40010D02*
D03*
X10550Y42300D02*
D03*
X12840Y43140D02*
D03*
X13810Y49560D02*
D03*
X16050Y49610D02*
D03*
X16110Y47670D02*
D03*
X13530Y47660D02*
D03*
M02*
