G04*
G04 #@! TF.GenerationSoftware,Altium Limited,Altium Designer,18.1.9 (240)*
G04*
G04 Layer_Physical_Order=3*
G04 Layer_Color=16440176*
%FSLAX43Y43*%
%MOMM*%
G71*
G01*
G75*
%ADD15C,0.100*%
%ADD71C,0.500*%
%ADD74R,1.500X1.500*%
%ADD75C,1.500*%
%ADD76R,1.000X1.500*%
%ADD77O,1.000X1.500*%
%ADD78O,1.200X1.900*%
%ADD79C,1.850*%
%ADD81C,0.400*%
G36*
X16707Y49734D02*
X16614Y49613D01*
X16526Y49402D01*
X16496Y49174D01*
X16526Y48947D01*
X16614Y48736D01*
X16753Y48554D01*
X16935Y48414D01*
X17146Y48327D01*
X17374Y48297D01*
X17601Y48327D01*
X17812Y48414D01*
X17984Y48546D01*
X18028Y48538D01*
X18134Y48490D01*
Y47319D01*
X18028Y47270D01*
X17984Y47263D01*
X17812Y47394D01*
X17601Y47482D01*
X17374Y47512D01*
X17146Y47482D01*
X16935Y47394D01*
X16753Y47255D01*
X16614Y47073D01*
X16526Y46862D01*
X16496Y46634D01*
X16526Y46407D01*
X16614Y46196D01*
X16753Y46014D01*
X16935Y45874D01*
X17146Y45787D01*
X17374Y45757D01*
X17601Y45787D01*
X17812Y45874D01*
X17984Y46006D01*
X18028Y45998D01*
X18134Y45950D01*
Y44964D01*
X16504D01*
Y43224D01*
X18134D01*
Y40940D01*
X17966D01*
X17882Y41065D01*
X17909Y41129D01*
X17945Y41402D01*
X17909Y41675D01*
X17804Y41929D01*
X17636Y42147D01*
X17418Y42315D01*
X17164Y42420D01*
X16891Y42456D01*
X16618Y42420D01*
X16364Y42315D01*
X16146Y42147D01*
X15978Y41929D01*
X15873Y41675D01*
X15837Y41402D01*
X15873Y41129D01*
X15874Y41127D01*
X15773Y40977D01*
X15533D01*
X15428Y41127D01*
X15436Y41170D01*
X15411Y41295D01*
X15341Y41401D01*
X15235Y41471D01*
X15110Y41496D01*
X14985Y41471D01*
X14879Y41401D01*
X14809Y41295D01*
X14784Y41170D01*
X14792Y41127D01*
X14687Y40977D01*
X12934D01*
X12934Y40977D01*
X12790Y40949D01*
X12777Y40940D01*
X12760D01*
X12726Y40906D01*
X12667Y40867D01*
X12167Y40367D01*
X12085Y40244D01*
X12057Y40100D01*
X12057Y40100D01*
Y39287D01*
X12046Y39277D01*
X11907Y39220D01*
X11845Y39261D01*
X11720Y39286D01*
X11595Y39261D01*
X11489Y39191D01*
X11419Y39085D01*
X11394Y38960D01*
X11419Y38835D01*
X11489Y38729D01*
X11595Y38659D01*
X11720Y38634D01*
X11845Y38659D01*
X11907Y38700D01*
X12046Y38643D01*
X12057Y38633D01*
Y37126D01*
X12057Y37126D01*
X12085Y36982D01*
X12167Y36859D01*
X13553Y35474D01*
Y31280D01*
X13553Y31280D01*
X13581Y31136D01*
X13663Y31013D01*
X13865Y30812D01*
Y30130D01*
X9135Y25400D01*
X7992Y25400D01*
X7915Y25451D01*
X7790Y25476D01*
X7680Y25454D01*
X7405Y25730D01*
Y26390D01*
X7410Y26394D01*
X7535Y26419D01*
X7641Y26489D01*
X7711Y26595D01*
X7736Y26720D01*
X7711Y26845D01*
X7641Y26951D01*
X7535Y27021D01*
X7410Y27046D01*
X7405Y27050D01*
X7405Y30573D01*
X7426Y30680D01*
X7405Y30787D01*
X7405Y32873D01*
X7416Y32930D01*
X7405Y32987D01*
Y33596D01*
X7411Y33605D01*
X7436Y33730D01*
X7411Y33855D01*
X7405Y33864D01*
Y34020D01*
X6335Y35090D01*
X1014D01*
X1001Y35155D01*
X931Y35261D01*
X825Y35331D01*
X700Y35356D01*
X575Y35331D01*
X558Y35320D01*
X408Y35400D01*
Y37120D01*
X558Y37200D01*
X575Y37189D01*
X700Y37164D01*
X825Y37189D01*
X906Y37067D01*
X738Y36849D01*
X633Y36595D01*
X597Y36322D01*
X633Y36049D01*
X738Y35795D01*
X906Y35577D01*
X1124Y35409D01*
X1378Y35304D01*
X1651Y35268D01*
X1924Y35304D01*
X2178Y35409D01*
X2396Y35577D01*
X2564Y35795D01*
X2669Y36049D01*
X2705Y36322D01*
X2669Y36595D01*
X2564Y36849D01*
X2396Y37067D01*
X2178Y37235D01*
X1924Y37340D01*
X1651Y37376D01*
X1378Y37340D01*
X1124Y37235D01*
X1064Y37189D01*
X953Y37293D01*
X1001Y37365D01*
X1026Y37490D01*
X1001Y37615D01*
X931Y37721D01*
X825Y37791D01*
X700Y37816D01*
X575Y37791D01*
X558Y37780D01*
X408Y37860D01*
Y39630D01*
X558Y39710D01*
X575Y39699D01*
X700Y39674D01*
X780Y39690D01*
X872Y39563D01*
X738Y39389D01*
X633Y39135D01*
X597Y38862D01*
X633Y38589D01*
X738Y38335D01*
X906Y38117D01*
X1124Y37949D01*
X1378Y37844D01*
X1651Y37808D01*
X1924Y37844D01*
X2178Y37949D01*
X2396Y38117D01*
X2564Y38335D01*
X2669Y38589D01*
X2705Y38862D01*
X2669Y39135D01*
X2564Y39389D01*
X2396Y39607D01*
X2178Y39775D01*
X1924Y39880D01*
X1651Y39916D01*
X1378Y39880D01*
X1124Y39775D01*
X1105Y39760D01*
X994Y39864D01*
X1001Y39875D01*
X1026Y40000D01*
X1001Y40125D01*
X931Y40231D01*
X825Y40301D01*
X700Y40326D01*
X575Y40301D01*
X558Y40290D01*
X408Y40370D01*
Y43380D01*
X558Y43460D01*
X575Y43449D01*
X700Y43424D01*
X825Y43449D01*
X931Y43519D01*
X1001Y43625D01*
X1026Y43750D01*
X1001Y43875D01*
X931Y43981D01*
X825Y44051D01*
X700Y44076D01*
X575Y44051D01*
X558Y44040D01*
X408Y44120D01*
Y46754D01*
X455Y46787D01*
X558Y46820D01*
X635Y46769D01*
X760Y46744D01*
X803Y46752D01*
X899Y46625D01*
X874Y46500D01*
X899Y46375D01*
X969Y46269D01*
X1075Y46199D01*
X1200Y46174D01*
X1325Y46199D01*
X1431Y46269D01*
X1501Y46375D01*
X1526Y46500D01*
X1501Y46625D01*
X1431Y46731D01*
X1325Y46801D01*
X1200Y46826D01*
X1157Y46818D01*
X1061Y46945D01*
X1086Y47070D01*
X1061Y47195D01*
X991Y47301D01*
X885Y47371D01*
X760Y47396D01*
X635Y47371D01*
X558Y47320D01*
X455Y47353D01*
X408Y47386D01*
Y49884D01*
X1388D01*
X1426Y49839D01*
X1482Y49734D01*
X1464Y49640D01*
X1489Y49515D01*
X1559Y49409D01*
X1665Y49339D01*
X1790Y49314D01*
X1915Y49339D01*
X2021Y49409D01*
X2091Y49515D01*
X2116Y49640D01*
X2098Y49734D01*
X2154Y49839D01*
X2192Y49884D01*
X2424D01*
X2469Y49734D01*
X2419Y49701D01*
X2349Y49595D01*
X2324Y49470D01*
X2349Y49345D01*
X2419Y49239D01*
X2525Y49169D01*
X2650Y49144D01*
X2775Y49169D01*
X2881Y49239D01*
X2951Y49345D01*
X2976Y49470D01*
X2951Y49595D01*
X2881Y49701D01*
X2831Y49734D01*
X2876Y49884D01*
X3835D01*
X3904Y49788D01*
X3924Y49734D01*
X3904Y49630D01*
X3929Y49505D01*
X3999Y49399D01*
X4105Y49329D01*
X4230Y49304D01*
X4355Y49329D01*
X4461Y49399D01*
X4531Y49505D01*
X4556Y49630D01*
X4536Y49734D01*
X4556Y49788D01*
X4625Y49884D01*
X4990D01*
X5041Y49734D01*
X5003Y49706D01*
X4888Y49555D01*
X4816Y49380D01*
X4791Y49192D01*
Y48492D01*
X4816Y48304D01*
X4888Y48129D01*
X5003Y47978D01*
X5154Y47863D01*
X5329Y47791D01*
X5517Y47766D01*
X5705Y47791D01*
X5880Y47863D01*
X6031Y47978D01*
X6146Y48129D01*
X6218Y48304D01*
X6243Y48492D01*
Y49192D01*
X6218Y49380D01*
X6146Y49555D01*
X6031Y49706D01*
X5993Y49734D01*
X6044Y49884D01*
X11990D01*
X12041Y49734D01*
X12003Y49706D01*
X11888Y49555D01*
X11816Y49380D01*
X11791Y49192D01*
Y48492D01*
X11816Y48304D01*
X11888Y48129D01*
X12003Y47978D01*
X12154Y47863D01*
X12329Y47791D01*
X12517Y47766D01*
X12705Y47791D01*
X12880Y47863D01*
X13031Y47978D01*
X13146Y48129D01*
X13218Y48304D01*
X13243Y48492D01*
Y49192D01*
X13218Y49380D01*
X13146Y49555D01*
X13031Y49706D01*
X12993Y49734D01*
X13044Y49884D01*
X13470D01*
X13542Y49734D01*
X13509Y49685D01*
X13484Y49560D01*
X13509Y49435D01*
X13579Y49329D01*
X13685Y49259D01*
X13810Y49234D01*
X13935Y49259D01*
X14041Y49329D01*
X14111Y49435D01*
X14136Y49560D01*
X14111Y49685D01*
X14078Y49734D01*
X14150Y49884D01*
X15668D01*
X15749Y49735D01*
X15724Y49610D01*
X15749Y49485D01*
X15819Y49379D01*
X15925Y49309D01*
X16050Y49284D01*
X16175Y49309D01*
X16281Y49379D01*
X16351Y49485D01*
X16376Y49610D01*
X16351Y49735D01*
X16432Y49884D01*
X16633D01*
X16707Y49734D01*
D02*
G37*
G36*
X18134Y40210D02*
Y37922D01*
X17985Y37841D01*
X17860Y37866D01*
X17735Y37841D01*
X17629Y37771D01*
X17559Y37665D01*
X17534Y37540D01*
X17559Y37415D01*
X17629Y37309D01*
X17735Y37239D01*
X17860Y37214D01*
X17985Y37239D01*
X18134Y37158D01*
Y35418D01*
X18128Y35413D01*
X17984Y35352D01*
X17925Y35391D01*
X17800Y35416D01*
X17675Y35391D01*
X17569Y35321D01*
X17499Y35215D01*
X17474Y35090D01*
X17487Y35022D01*
X17363Y34919D01*
X17362Y34919D01*
X17131Y34989D01*
X16891Y35013D01*
X16651Y34989D01*
X16420Y34919D01*
X16216Y34810D01*
X17068Y33959D01*
X16891Y33782D01*
X17068Y33605D01*
X16216Y32754D01*
X16420Y32645D01*
X16651Y32575D01*
X16891Y32551D01*
X17131Y32575D01*
X17362Y32645D01*
X17403Y32667D01*
X17507Y32552D01*
X17489Y32525D01*
X17464Y32400D01*
X17487Y32281D01*
X17467Y32255D01*
X17377Y32172D01*
X17164Y32260D01*
X16891Y32296D01*
X16618Y32260D01*
X16364Y32155D01*
X16146Y31987D01*
X15978Y31769D01*
X15873Y31515D01*
X15837Y31242D01*
X15873Y30969D01*
X15978Y30715D01*
X16146Y30497D01*
X16364Y30329D01*
X16618Y30224D01*
X16891Y30188D01*
X17164Y30224D01*
X17418Y30329D01*
X17636Y30497D01*
X17804Y30715D01*
X17909Y30969D01*
X17945Y31242D01*
X17909Y31515D01*
X17804Y31769D01*
X17669Y31945D01*
X17750Y32082D01*
X17790Y32074D01*
X17915Y32099D01*
X17984Y32145D01*
X18108Y32099D01*
X18134Y32078D01*
Y30355D01*
X17984Y30275D01*
X17945Y30301D01*
X17820Y30326D01*
X17695Y30301D01*
X17589Y30231D01*
X17519Y30125D01*
X17494Y30000D01*
X17519Y29875D01*
X17589Y29769D01*
X17695Y29699D01*
X17820Y29674D01*
X17945Y29699D01*
X17984Y29725D01*
X18134Y29645D01*
Y28052D01*
X18089Y28014D01*
X17984Y27958D01*
X17890Y27976D01*
X17831Y27965D01*
X17747Y28101D01*
X17804Y28175D01*
X17909Y28429D01*
X17945Y28702D01*
X17909Y28975D01*
X17804Y29229D01*
X17636Y29447D01*
X17418Y29615D01*
X17164Y29720D01*
X16891Y29756D01*
X16618Y29720D01*
X16364Y29615D01*
X16146Y29447D01*
X15978Y29229D01*
X15873Y28975D01*
X15837Y28702D01*
X15873Y28429D01*
X15978Y28175D01*
X16146Y27957D01*
X16364Y27789D01*
X16618Y27684D01*
X16891Y27648D01*
X17164Y27684D01*
X17418Y27789D01*
X17446Y27810D01*
X17578Y27723D01*
X17564Y27650D01*
X17589Y27525D01*
X17659Y27419D01*
X17765Y27349D01*
X17890Y27324D01*
X17984Y27342D01*
X18089Y27286D01*
X18134Y27248D01*
Y20226D01*
X17984Y20181D01*
X17971Y20201D01*
X17865Y20271D01*
X17787Y20287D01*
X17723Y20406D01*
X17717Y20442D01*
X17804Y20555D01*
X17909Y20809D01*
X17945Y21082D01*
X17909Y21355D01*
X17804Y21609D01*
X17636Y21827D01*
X17418Y21995D01*
X17164Y22100D01*
X16891Y22136D01*
X16618Y22100D01*
X16440Y22026D01*
X16428Y22028D01*
X16288Y22106D01*
X16281Y22116D01*
X16271Y22165D01*
X16201Y22271D01*
X16095Y22341D01*
X15970Y22366D01*
X15845Y22341D01*
X15739Y22271D01*
X15669Y22165D01*
X15644Y22040D01*
X15669Y21915D01*
X15739Y21809D01*
X15845Y21739D01*
X15883Y21731D01*
X15916Y21688D01*
X15962Y21571D01*
X15873Y21355D01*
X15837Y21082D01*
X15873Y20809D01*
X15978Y20555D01*
X16146Y20337D01*
X16364Y20169D01*
X16618Y20064D01*
X16891Y20028D01*
X17164Y20064D01*
X17290Y20116D01*
X17421Y20008D01*
X17414Y19970D01*
X17439Y19845D01*
X17509Y19739D01*
X17615Y19669D01*
X17740Y19644D01*
X17865Y19669D01*
X17971Y19739D01*
X17984Y19759D01*
X18134Y19714D01*
Y17598D01*
X18128Y17593D01*
X17984Y17532D01*
X17925Y17571D01*
X17800Y17596D01*
X17675Y17571D01*
X17569Y17501D01*
X17499Y17395D01*
X17474Y17270D01*
X17499Y17145D01*
X17569Y17039D01*
X17675Y16969D01*
X17800Y16944D01*
X17925Y16969D01*
X17984Y17008D01*
X18128Y16947D01*
X18134Y16942D01*
Y15081D01*
X18058Y15041D01*
X17984Y15022D01*
X17895Y15081D01*
X17770Y15106D01*
X17645Y15081D01*
X17573Y15208D01*
X17636Y15257D01*
X17804Y15475D01*
X17909Y15729D01*
X17945Y16002D01*
X17909Y16275D01*
X17804Y16529D01*
X17636Y16747D01*
X17418Y16915D01*
X17164Y17020D01*
X16891Y17056D01*
X16618Y17020D01*
X16364Y16915D01*
X16146Y16747D01*
X15978Y16529D01*
X15873Y16275D01*
X15837Y16002D01*
X15873Y15729D01*
X15978Y15475D01*
X16146Y15257D01*
X16364Y15089D01*
X16618Y14984D01*
X16891Y14948D01*
X17164Y14984D01*
X17418Y15089D01*
X17515Y14975D01*
X17469Y14905D01*
X17444Y14780D01*
X17469Y14655D01*
X17539Y14549D01*
X17645Y14479D01*
X17770Y14454D01*
X17895Y14479D01*
X17984Y14538D01*
X18058Y14519D01*
X18134Y14479D01*
Y13440D01*
X17964D01*
X17945Y13462D01*
X17909Y13735D01*
X17804Y13989D01*
X17636Y14207D01*
X17418Y14375D01*
X17164Y14480D01*
X16891Y14516D01*
X16618Y14480D01*
X16364Y14375D01*
X16146Y14207D01*
X15978Y13989D01*
X15873Y13735D01*
X15837Y13462D01*
X15818Y13440D01*
X11850Y13440D01*
Y15320D01*
X11812Y15412D01*
X11609Y15615D01*
X10820Y16410D01*
X8690D01*
X8200Y15920D01*
X8200Y10940D01*
X8236Y10904D01*
X8238Y10898D01*
X8780Y10356D01*
X8780Y3440D01*
X7100Y1760D01*
X1970Y1760D01*
X1520Y2210D01*
X1520Y3390D01*
X1810Y3680D01*
X4370D01*
X4661Y3971D01*
X4752Y3939D01*
X4807Y3905D01*
X4829Y3795D01*
X4899Y3689D01*
X5005Y3619D01*
X5130Y3594D01*
X5255Y3619D01*
X5361Y3689D01*
X5431Y3795D01*
X5456Y3920D01*
X5431Y4045D01*
X5361Y4151D01*
X5255Y4221D01*
X5145Y4243D01*
X5111Y4298D01*
X5079Y4389D01*
X5190Y4500D01*
X5190Y6004D01*
X5340Y6073D01*
X5392Y6039D01*
X5517Y6014D01*
X5642Y6039D01*
X5748Y6109D01*
X5818Y6215D01*
X5843Y6340D01*
X5818Y6465D01*
X5748Y6571D01*
X5642Y6641D01*
X5618Y6646D01*
X5569Y6809D01*
X5760Y7000D01*
X5762Y9974D01*
X5801Y9999D01*
X5871Y10105D01*
X5896Y10230D01*
X5871Y10355D01*
X5801Y10461D01*
X5763Y10486D01*
X5765Y13207D01*
X5775Y13209D01*
X5881Y13279D01*
X5951Y13385D01*
X5976Y13510D01*
X5951Y13635D01*
X5881Y13741D01*
X5775Y13811D01*
X5766Y13813D01*
X5766Y14030D01*
X5831Y14084D01*
X5956Y14109D01*
X6062Y14179D01*
X6132Y14285D01*
X6157Y14410D01*
X6132Y14535D01*
X6062Y14641D01*
X5956Y14711D01*
X5831Y14736D01*
X5766Y14789D01*
X5768Y16890D01*
Y16988D01*
X7810Y19030D01*
X9041Y19030D01*
X9081Y18962D01*
X9103Y18880D01*
X9046Y18794D01*
X9021Y18669D01*
X9046Y18544D01*
X9116Y18438D01*
X9222Y18368D01*
X9347Y18343D01*
X9472Y18368D01*
X9578Y18438D01*
X9649Y18544D01*
X9673Y18669D01*
X9649Y18794D01*
X9591Y18880D01*
X9614Y18962D01*
X9653Y19030D01*
X11800Y19030D01*
X14223Y19030D01*
Y16760D01*
X14251Y16616D01*
X14333Y16493D01*
X14456Y16411D01*
X14600Y16383D01*
X14744Y16411D01*
X14867Y16493D01*
X14949Y16616D01*
X14977Y16760D01*
Y17794D01*
X15026Y17828D01*
X15127Y17861D01*
X15205Y17809D01*
X15330Y17784D01*
X15455Y17809D01*
X15561Y17879D01*
X15631Y17985D01*
X15656Y18110D01*
X15631Y18235D01*
X15561Y18341D01*
X15455Y18411D01*
X15330Y18436D01*
X15205Y18411D01*
X15127Y18359D01*
X15026Y18392D01*
X14977Y18426D01*
Y22024D01*
X14977Y22024D01*
X15085Y22169D01*
X15191Y22239D01*
X15261Y22345D01*
X15286Y22470D01*
X15261Y22595D01*
X15191Y22701D01*
X15088Y22770D01*
X15151Y22865D01*
X15176Y22990D01*
X15151Y23115D01*
X15081Y23221D01*
X14975Y23291D01*
X14850Y23316D01*
X14840Y23324D01*
Y23478D01*
X14871Y23525D01*
X14896Y23650D01*
X14871Y23775D01*
X14840Y23822D01*
X14840Y30910D01*
X14710Y31040D01*
X14748Y31214D01*
X14801Y31249D01*
X14871Y31355D01*
X14896Y31480D01*
X14871Y31605D01*
X14801Y31711D01*
X14695Y31781D01*
X14570Y31806D01*
X14457Y31784D01*
X14439Y31786D01*
X14307Y31870D01*
Y35630D01*
X14307Y35630D01*
X14305Y35642D01*
X14440Y35732D01*
X14445Y35729D01*
X14570Y35704D01*
X14695Y35729D01*
X14801Y35799D01*
X14871Y35905D01*
X14896Y36030D01*
X14886Y36084D01*
X14997Y36212D01*
X15000Y36214D01*
X15125Y36239D01*
X15231Y36309D01*
X15301Y36415D01*
X15326Y36540D01*
X15301Y36665D01*
X15231Y36771D01*
X15125Y36841D01*
X15000Y36866D01*
X14875Y36841D01*
X14769Y36771D01*
X14699Y36665D01*
X14674Y36540D01*
X14684Y36486D01*
X14573Y36358D01*
X14570Y36356D01*
X14445Y36331D01*
X14339Y36261D01*
X14269Y36155D01*
X14249Y36057D01*
X14169Y36013D01*
X14098Y35996D01*
X12811Y37282D01*
Y39941D01*
X13080Y40210D01*
X18134Y40210D01*
D02*
G37*
G36*
X7045Y34196D02*
X6995Y34033D01*
X6985Y34031D01*
X6879Y33961D01*
X6809Y33855D01*
X6784Y33730D01*
X6809Y33605D01*
X6879Y33499D01*
X6985Y33429D01*
X7110Y33404D01*
X7125Y33407D01*
X7275Y33289D01*
Y32987D01*
X7280Y32974D01*
X7278Y32961D01*
X7284Y32930D01*
X7278Y32899D01*
X7280Y32886D01*
X7275Y32873D01*
X7275Y31115D01*
X7125Y31001D01*
X7100Y31006D01*
X6975Y30981D01*
X6869Y30911D01*
X6799Y30805D01*
X6705Y30711D01*
X6580Y30736D01*
X6455Y30711D01*
X6349Y30641D01*
X6279Y30535D01*
X6254Y30410D01*
X6279Y30285D01*
X6349Y30179D01*
X6455Y30109D01*
X6580Y30084D01*
X6705Y30109D01*
X6811Y30179D01*
X6881Y30285D01*
X6975Y30379D01*
X7100Y30354D01*
X7125Y30359D01*
X7275Y30245D01*
X7275Y27050D01*
X7278Y27044D01*
X7276Y27038D01*
X7285Y27021D01*
X7179Y26951D01*
X7109Y26845D01*
X7084Y26720D01*
X7109Y26595D01*
X7179Y26489D01*
X7285Y26419D01*
X7276Y26402D01*
X7278Y26396D01*
X7275Y26390D01*
Y25730D01*
X7313Y25638D01*
X7313Y25638D01*
X7313Y25638D01*
X7330Y25621D01*
Y25259D01*
X7136Y25065D01*
X7134Y25065D01*
X7131Y25060D01*
X7125Y25054D01*
X7117Y25051D01*
X5013Y22947D01*
X5010Y22939D01*
X4945Y22875D01*
Y20145D01*
X3790Y18990D01*
Y18954D01*
X3778Y18942D01*
X3778Y18942D01*
X3778Y18942D01*
X3759Y18896D01*
X3740Y18850D01*
X3740Y18850D01*
X3740Y18850D01*
Y17971D01*
X3757Y17932D01*
X3768Y17890D01*
X3790Y17863D01*
Y17707D01*
X3779Y17700D01*
X3709Y17594D01*
X3684Y17469D01*
X3699Y17393D01*
X3707Y17342D01*
X3603Y17233D01*
X3595Y17231D01*
X3489Y17161D01*
X3419Y17055D01*
X3394Y16930D01*
X3419Y16805D01*
X3489Y16699D01*
X3595Y16629D01*
X3720Y16604D01*
X3740Y16587D01*
Y16384D01*
X3743Y16378D01*
X3741Y16372D01*
X3753Y16350D01*
X3649Y16281D01*
X3579Y16175D01*
X3554Y16050D01*
X3579Y15925D01*
X3649Y15819D01*
X3753Y15750D01*
X3741Y15728D01*
X3743Y15722D01*
X3740Y15716D01*
Y14944D01*
X3743Y14938D01*
X3741Y14932D01*
X3753Y14910D01*
X3649Y14841D01*
X3579Y14735D01*
X3554Y14610D01*
X3579Y14485D01*
X3649Y14379D01*
X3753Y14310D01*
X3741Y14288D01*
X3743Y14282D01*
X3740Y14276D01*
Y12757D01*
X3743Y12751D01*
X3741Y12745D01*
X3761Y12706D01*
X3773Y12677D01*
X3689Y12621D01*
X3619Y12515D01*
X3594Y12390D01*
X3619Y12265D01*
X3689Y12159D01*
X3773Y12103D01*
X3761Y12074D01*
X3741Y12035D01*
X3743Y12029D01*
X3740Y12023D01*
Y7040D01*
X3778Y6948D01*
X4198Y6528D01*
X4290Y6490D01*
X5053D01*
X5170Y6410D01*
Y6138D01*
X5135Y6122D01*
X5120Y6105D01*
X5098Y6096D01*
X5087Y6070D01*
X5068Y6049D01*
X5069Y6025D01*
X5060Y6004D01*
X5060Y4554D01*
X4987Y4481D01*
X4979Y4460D01*
X4962Y4445D01*
X4961Y4421D01*
X4629Y4089D01*
X4605Y4088D01*
X4590Y4071D01*
X4569Y4063D01*
X4316Y3810D01*
X1730D01*
X1390Y3470D01*
X1390Y2150D01*
X1910Y1630D01*
X7150Y1630D01*
X7186Y1666D01*
X7192Y1668D01*
X8872Y3348D01*
X8874Y3354D01*
X8900Y3380D01*
Y3416D01*
X8910Y3440D01*
X8910Y5964D01*
X9060Y5979D01*
X9079Y5885D01*
X9149Y5779D01*
X9255Y5709D01*
X9380Y5684D01*
X9505Y5709D01*
X9611Y5779D01*
X9681Y5885D01*
X9706Y6010D01*
X9681Y6135D01*
X9658Y6170D01*
X9738Y6320D01*
X11180D01*
X11204Y6314D01*
X11324Y6194D01*
X11330Y6170D01*
X11330Y4900D01*
X11350Y4852D01*
Y4720D01*
X11560Y4510D01*
X11554Y4480D01*
X11579Y4355D01*
X11649Y4249D01*
X11755Y4179D01*
X11880Y4154D01*
X11910Y4160D01*
X12140Y3930D01*
X13599D01*
X13627Y3958D01*
X13652Y3968D01*
X13892Y4208D01*
X13902Y4233D01*
X14030Y4361D01*
X13930Y4461D01*
Y4981D01*
X13942Y5000D01*
X14971D01*
X14348Y5623D01*
X14702Y5977D01*
X15325Y5354D01*
Y6746D01*
X14702Y6123D01*
X14348Y6477D01*
X14971Y7100D01*
X14072D01*
X13930Y7250D01*
X13930Y8830D01*
X13892Y8922D01*
X13139Y9675D01*
X13136Y9676D01*
X13135Y9678D01*
X13130Y9680D01*
X12520Y10290D01*
X12518Y10295D01*
X12516Y10296D01*
X12515Y10299D01*
X11850Y10964D01*
Y13220D01*
X11940Y13310D01*
X15857D01*
X15873Y13189D01*
X15978Y12935D01*
X16146Y12717D01*
X16364Y12549D01*
X16618Y12444D01*
X16891Y12408D01*
X17164Y12444D01*
X17418Y12549D01*
X17636Y12717D01*
X17804Y12935D01*
X17909Y13189D01*
X17925Y13310D01*
X18134D01*
Y12435D01*
X17984Y12355D01*
X17975Y12361D01*
X17850Y12386D01*
X17725Y12361D01*
X17619Y12291D01*
X17549Y12185D01*
X17524Y12060D01*
X17549Y11935D01*
X17564Y11912D01*
X17453Y11808D01*
X17418Y11835D01*
X17164Y11940D01*
X16891Y11976D01*
X16618Y11940D01*
X16364Y11835D01*
X16146Y11667D01*
X15978Y11449D01*
X15873Y11195D01*
X15837Y10922D01*
X15873Y10649D01*
X15978Y10395D01*
X16146Y10177D01*
X16364Y10009D01*
X16618Y9904D01*
X16891Y9868D01*
X17164Y9904D01*
X17418Y10009D01*
X17636Y10177D01*
X17804Y10395D01*
X17909Y10649D01*
X17945Y10922D01*
X17909Y11195D01*
X17804Y11449D01*
X17666Y11629D01*
X17676Y11651D01*
X17761Y11751D01*
X17850Y11734D01*
X17975Y11759D01*
X17984Y11765D01*
X18134Y11685D01*
Y8973D01*
X17984Y8935D01*
X17919Y9057D01*
X17245Y8382D01*
X17919Y7707D01*
X17984Y7829D01*
X18134Y7791D01*
Y1012D01*
X17984Y932D01*
X17955Y951D01*
X17830Y976D01*
X17705Y951D01*
X17599Y881D01*
X17529Y775D01*
X17504Y650D01*
X17522Y558D01*
X17463Y450D01*
X17427Y408D01*
X16356D01*
X16256Y558D01*
X16266Y610D01*
X16241Y735D01*
X16171Y841D01*
X16065Y911D01*
X15940Y936D01*
X15815Y911D01*
X15709Y841D01*
X15639Y735D01*
X15614Y610D01*
X15624Y558D01*
X15524Y408D01*
X13960D01*
X13864Y558D01*
X13876Y620D01*
X13851Y745D01*
X13781Y851D01*
X13675Y921D01*
X13550Y946D01*
X13425Y921D01*
X13319Y851D01*
X13249Y745D01*
X13224Y620D01*
X13236Y558D01*
X13140Y408D01*
X8345D01*
X8270Y558D01*
X8301Y604D01*
X8326Y729D01*
X8301Y854D01*
X8231Y960D01*
X8125Y1030D01*
X8000Y1055D01*
X7875Y1030D01*
X7769Y960D01*
X7699Y854D01*
X7674Y729D01*
X7699Y604D01*
X7730Y558D01*
X7655Y408D01*
X5442D01*
X5368Y558D01*
X5399Y604D01*
X5423Y729D01*
X5399Y854D01*
X5328Y960D01*
X5222Y1030D01*
X5097Y1055D01*
X4972Y1030D01*
X4866Y960D01*
X4813Y880D01*
X4768Y869D01*
X4716Y867D01*
X4648Y879D01*
X4600Y951D01*
X4494Y1021D01*
X4369Y1046D01*
X4244Y1021D01*
X4138Y951D01*
X4068Y845D01*
X4043Y720D01*
X4068Y595D01*
X4093Y558D01*
X4012Y408D01*
X1113D01*
X1031Y555D01*
X1056Y680D01*
X1031Y805D01*
X961Y911D01*
X855Y981D01*
X730Y1006D01*
X605Y981D01*
X558Y950D01*
X408Y1023D01*
Y4490D01*
X558Y4570D01*
X575Y4559D01*
X700Y4534D01*
X825Y4559D01*
X931Y4629D01*
X1001Y4735D01*
X1019Y4821D01*
X1048Y4852D01*
X1116Y4892D01*
X1169Y4910D01*
X1378Y4824D01*
X1651Y4788D01*
X1924Y4824D01*
X2178Y4929D01*
X2396Y5097D01*
X2564Y5315D01*
X2669Y5569D01*
X2705Y5842D01*
X2669Y6115D01*
X2564Y6369D01*
X2396Y6587D01*
X2178Y6755D01*
X1924Y6860D01*
X1651Y6896D01*
X1378Y6860D01*
X1124Y6755D01*
X906Y6587D01*
X738Y6369D01*
X633Y6115D01*
X597Y5842D01*
X633Y5569D01*
X731Y5333D01*
X721Y5287D01*
X655Y5177D01*
X575Y5161D01*
X558Y5150D01*
X408Y5230D01*
Y9380D01*
X410Y9383D01*
X558Y9447D01*
X615Y9409D01*
X740Y9384D01*
X865Y9409D01*
X971Y9479D01*
X1041Y9585D01*
X1066Y9710D01*
X1041Y9835D01*
X1035Y9845D01*
X1107Y10007D01*
X1124Y10009D01*
X1124D01*
X1151Y9998D01*
X1378Y9904D01*
X1651Y9868D01*
X1924Y9904D01*
X2178Y10009D01*
X2396Y10177D01*
X2564Y10395D01*
X2669Y10649D01*
X2705Y10922D01*
X2669Y11195D01*
X2610Y11338D01*
X2612Y11357D01*
X2706Y11499D01*
X2755Y11509D01*
X2861Y11579D01*
X2931Y11685D01*
X2956Y11810D01*
X2931Y11935D01*
X2861Y12041D01*
X2755Y12111D01*
X2630Y12136D01*
X2505Y12111D01*
X2399Y12041D01*
X2329Y11935D01*
X2324Y11912D01*
X2216Y11855D01*
X2157Y11843D01*
X1924Y11940D01*
X1651Y11976D01*
X1378Y11940D01*
X1124Y11835D01*
X906Y11667D01*
X738Y11449D01*
X633Y11195D01*
X597Y10922D01*
X633Y10649D01*
X738Y10395D01*
X906Y10177D01*
X935Y10154D01*
X876Y10010D01*
X865Y10011D01*
X865Y10011D01*
X846Y10015D01*
X740Y10036D01*
X615Y10011D01*
X558Y9973D01*
X410Y10037D01*
X408Y10040D01*
Y11660D01*
X524Y11755D01*
X530Y11754D01*
X655Y11779D01*
X761Y11849D01*
X831Y11955D01*
X856Y12080D01*
X831Y12205D01*
X761Y12311D01*
X655Y12381D01*
X530Y12406D01*
X524Y12405D01*
X408Y12500D01*
Y14344D01*
X558Y14444D01*
X610Y14434D01*
X735Y14459D01*
X841Y14529D01*
X911Y14635D01*
X936Y14760D01*
X911Y14885D01*
X841Y14991D01*
X735Y15061D01*
X610Y15086D01*
X558Y15076D01*
X408Y15176D01*
Y16780D01*
X558Y16890D01*
X590Y16884D01*
X715Y16909D01*
X821Y16979D01*
X891Y17085D01*
X916Y17210D01*
X891Y17335D01*
X821Y17441D01*
X715Y17511D01*
X590Y17536D01*
X558Y17530D01*
X408Y17640D01*
Y19417D01*
X450Y19453D01*
X558Y19512D01*
X650Y19494D01*
X775Y19519D01*
X881Y19589D01*
X951Y19695D01*
X976Y19820D01*
X951Y19945D01*
X881Y20051D01*
X775Y20121D01*
X650Y20146D01*
X558Y20128D01*
X450Y20187D01*
X408Y20223D01*
Y21870D01*
X538Y21954D01*
X558Y21956D01*
X670Y21934D01*
X795Y21959D01*
X901Y22029D01*
X971Y22135D01*
X996Y22260D01*
X971Y22385D01*
X901Y22491D01*
X795Y22561D01*
X670Y22586D01*
X558Y22564D01*
X538Y22566D01*
X408Y22650D01*
Y29527D01*
X555Y29609D01*
X680Y29584D01*
X805Y29609D01*
X911Y29679D01*
X981Y29785D01*
X1006Y29910D01*
X981Y30035D01*
X911Y30141D01*
X805Y30211D01*
X680Y30236D01*
X555Y30211D01*
X408Y30293D01*
Y31913D01*
X489Y31974D01*
X558Y32004D01*
X660Y31984D01*
X724Y31996D01*
X808Y31860D01*
X738Y31769D01*
X633Y31515D01*
X597Y31242D01*
X633Y30969D01*
X738Y30715D01*
X906Y30497D01*
X1124Y30329D01*
X1378Y30224D01*
X1651Y30188D01*
X1924Y30224D01*
X2178Y30329D01*
X2396Y30497D01*
X2564Y30715D01*
X2669Y30969D01*
X2705Y31242D01*
X2669Y31515D01*
X2564Y31769D01*
X2396Y31987D01*
X2178Y32155D01*
X1924Y32260D01*
X1651Y32296D01*
X1378Y32260D01*
X1124Y32155D01*
X1092Y32130D01*
X1088Y32132D01*
X969Y32225D01*
X986Y32310D01*
X961Y32435D01*
X891Y32541D01*
X785Y32611D01*
X660Y32636D01*
X558Y32616D01*
X489Y32646D01*
X408Y32707D01*
Y34660D01*
X558Y34740D01*
X575Y34729D01*
X700Y34704D01*
X825Y34729D01*
X931Y34799D01*
X1001Y34905D01*
X1010Y34950D01*
X1368D01*
X1378Y34800D01*
X1124Y34695D01*
X906Y34527D01*
X738Y34309D01*
X633Y34055D01*
X597Y33782D01*
X633Y33509D01*
X738Y33255D01*
X906Y33037D01*
X1124Y32869D01*
X1378Y32764D01*
X1651Y32728D01*
X1924Y32764D01*
X2178Y32869D01*
X2396Y33037D01*
X2564Y33255D01*
X2669Y33509D01*
X2705Y33782D01*
X2669Y34055D01*
X2564Y34309D01*
X2396Y34527D01*
X2178Y34695D01*
X1924Y34800D01*
X1934Y34950D01*
X3265D01*
X3301Y34910D01*
X3362Y34800D01*
X3344Y34710D01*
X3369Y34585D01*
X3439Y34479D01*
X3545Y34409D01*
X3670Y34384D01*
X3795Y34409D01*
X3901Y34479D01*
X3971Y34585D01*
X3996Y34710D01*
X3978Y34800D01*
X4039Y34910D01*
X4075Y34950D01*
X6291D01*
X7045Y34196D01*
D02*
G37*
G36*
X13655Y29180D02*
X13860Y28975D01*
X14043Y28792D01*
Y27908D01*
X13843Y27772D01*
X13820Y27776D01*
X13695Y27751D01*
X13589Y27681D01*
X13519Y27575D01*
X13494Y27450D01*
X13519Y27325D01*
X13589Y27219D01*
X13695Y27149D01*
X13820Y27124D01*
X13843Y27128D01*
X14043Y26992D01*
Y25698D01*
X13850Y25546D01*
X13725Y25521D01*
X13619Y25451D01*
X13549Y25345D01*
X13524Y25220D01*
X13549Y25095D01*
X13619Y24989D01*
X13725Y24919D01*
X13850Y24894D01*
X14043Y24742D01*
Y24496D01*
X13733Y24187D01*
X13651Y24064D01*
X13623Y23920D01*
X13623Y23920D01*
Y22624D01*
X13623Y22624D01*
X13651Y22479D01*
X13733Y22357D01*
X14223Y21868D01*
Y19160D01*
X7717D01*
Y19157D01*
X5630Y17070D01*
X5630Y14661D01*
X5600Y14641D01*
X5530Y14535D01*
X5505Y14410D01*
X5530Y14285D01*
X5600Y14179D01*
X5630Y14159D01*
Y13832D01*
X5525Y13811D01*
X5419Y13741D01*
X5349Y13635D01*
X5324Y13510D01*
X5349Y13385D01*
X5419Y13279D01*
X5525Y13209D01*
X5630Y13188D01*
X5630Y10606D01*
X5570Y10556D01*
X5445Y10531D01*
X5339Y10461D01*
X5269Y10355D01*
X5244Y10230D01*
X5269Y10105D01*
X5339Y9999D01*
X5445Y9929D01*
X5570Y9904D01*
X5630Y9854D01*
X5630Y7060D01*
X5190Y6620D01*
X4290D01*
X3870Y7040D01*
Y12023D01*
X3920Y12064D01*
X4045Y12089D01*
X4151Y12159D01*
X4221Y12265D01*
X4246Y12390D01*
X4221Y12515D01*
X4151Y12621D01*
X4045Y12691D01*
X3920Y12716D01*
X3870Y12757D01*
Y14276D01*
X3880Y14284D01*
X4005Y14309D01*
X4111Y14379D01*
X4181Y14485D01*
X4206Y14610D01*
X4181Y14735D01*
X4111Y14841D01*
X4005Y14911D01*
X3880Y14936D01*
X3870Y14944D01*
Y15716D01*
X3880Y15724D01*
X4005Y15749D01*
X4111Y15819D01*
X4181Y15925D01*
X4206Y16050D01*
X4181Y16175D01*
X4111Y16281D01*
X4005Y16351D01*
X3880Y16376D01*
X3870Y16384D01*
Y16645D01*
X3951Y16699D01*
X4021Y16805D01*
X4046Y16930D01*
X4040Y16960D01*
X4024Y17057D01*
X4171Y17191D01*
X4241Y17238D01*
X4311Y17344D01*
X4336Y17469D01*
X4311Y17594D01*
X4241Y17700D01*
X4135Y17770D01*
X4010Y17795D01*
X3870Y17971D01*
Y18850D01*
X5105Y20084D01*
Y22855D01*
X7209Y24959D01*
X7436Y24920D01*
X7492Y24795D01*
X7464Y24743D01*
X7419Y24675D01*
X7361Y24553D01*
X7230Y24566D01*
X7105Y24541D01*
X6999Y24471D01*
X6929Y24365D01*
X6904Y24240D01*
X6929Y24115D01*
X6999Y24009D01*
X7105Y23939D01*
X7230Y23914D01*
X7355Y23939D01*
X7461Y24009D01*
X7531Y24115D01*
X7589Y24237D01*
X7720Y24224D01*
X7845Y24249D01*
X7951Y24319D01*
X8021Y24425D01*
X8046Y24550D01*
X8021Y24675D01*
X8011Y24691D01*
X7953Y24785D01*
X8046Y24957D01*
X8091Y25025D01*
X8116Y25150D01*
X8215Y25270D01*
X9135Y25270D01*
X9227Y25308D01*
X9279Y25360D01*
X9310D01*
X13035Y29085D01*
X13130Y29180D01*
X13655Y29180D01*
D02*
G37*
G36*
X11720Y15320D02*
Y10910D01*
X12423Y10207D01*
X12420Y10139D01*
X12374Y9974D01*
X12309Y9931D01*
X12239Y9825D01*
X12214Y9700D01*
X12239Y9575D01*
X12309Y9469D01*
X12415Y9399D01*
X12540Y9374D01*
X12665Y9399D01*
X12771Y9469D01*
X12814Y9534D01*
X12979Y9580D01*
X13047Y9583D01*
X13800Y8830D01*
X13800Y7119D01*
X13600Y7023D01*
X13464Y7079D01*
X13255Y7107D01*
X13046Y7079D01*
X12893Y7016D01*
X13432Y6477D01*
X13078Y6123D01*
X12539Y6662D01*
X12476Y6509D01*
X12448Y6300D01*
Y5800D01*
X12476Y5591D01*
X12539Y5438D01*
X13078Y5977D01*
X13432Y5623D01*
X12893Y5084D01*
X13046Y5021D01*
X13255Y4993D01*
X13464Y5021D01*
X13600Y5077D01*
X13800Y4981D01*
Y4300D01*
X13560Y4060D01*
X12300Y4060D01*
X12111Y4249D01*
X12181Y4355D01*
X12206Y4480D01*
X12181Y4605D01*
X12111Y4711D01*
X12005Y4781D01*
X11880Y4806D01*
X11755Y4781D01*
X11649Y4711D01*
X11649Y4711D01*
X11460Y4900D01*
X11460Y6279D01*
X11460Y6380D01*
X11390Y6450D01*
X11289Y6450D01*
X9084D01*
X8930Y6604D01*
Y10390D01*
X8330Y10990D01*
Y15850D01*
X8750Y16270D01*
X10770D01*
X11720Y15320D01*
D02*
G37*
G36*
X20567Y-16402D02*
X20589D01*
X20642Y-16407D01*
X20700Y-16416D01*
X20761Y-16430D01*
X20828Y-16446D01*
X20892Y-16469D01*
X20895D01*
X20900Y-16471D01*
X20909Y-16474D01*
X20920Y-16480D01*
X20950Y-16496D01*
X20989Y-16516D01*
X21031Y-16543D01*
X21075Y-16577D01*
X21117Y-16613D01*
X21156Y-16657D01*
X21161Y-16663D01*
X21172Y-16680D01*
X21189Y-16705D01*
X21211Y-16741D01*
X21233Y-16785D01*
X21258Y-16841D01*
X21283Y-16902D01*
X21303Y-16971D01*
X21072Y-17032D01*
Y-17029D01*
X21070Y-17027D01*
X21067Y-17018D01*
X21064Y-17007D01*
X21056Y-16982D01*
X21045Y-16949D01*
X21028Y-16910D01*
X21008Y-16874D01*
X20989Y-16835D01*
X20964Y-16802D01*
X20961Y-16799D01*
X20953Y-16788D01*
X20936Y-16774D01*
X20917Y-16754D01*
X20892Y-16732D01*
X20859Y-16710D01*
X20822Y-16688D01*
X20781Y-16668D01*
X20775Y-16666D01*
X20761Y-16660D01*
X20736Y-16652D01*
X20703Y-16641D01*
X20664Y-16632D01*
X20620Y-16624D01*
X20570Y-16618D01*
X20517Y-16616D01*
X20487D01*
X20473Y-16618D01*
X20456D01*
X20414Y-16621D01*
X20367Y-16630D01*
X20314Y-16638D01*
X20264Y-16652D01*
X20215Y-16671D01*
X20209Y-16674D01*
X20192Y-16680D01*
X20170Y-16693D01*
X20142Y-16707D01*
X20109Y-16729D01*
X20073Y-16752D01*
X20040Y-16779D01*
X20009Y-16810D01*
X20006Y-16813D01*
X19995Y-16824D01*
X19981Y-16843D01*
X19965Y-16866D01*
X19945Y-16893D01*
X19926Y-16927D01*
X19906Y-16963D01*
X19887Y-17002D01*
Y-17004D01*
X19884Y-17010D01*
X19881Y-17018D01*
X19876Y-17032D01*
X19870Y-17049D01*
X19865Y-17068D01*
X19856Y-17090D01*
X19851Y-17115D01*
X19837Y-17174D01*
X19826Y-17240D01*
X19817Y-17310D01*
X19815Y-17387D01*
Y-17390D01*
Y-17399D01*
Y-17412D01*
X19817Y-17429D01*
Y-17451D01*
X19820Y-17479D01*
X19823Y-17507D01*
X19826Y-17537D01*
X19837Y-17607D01*
X19851Y-17679D01*
X19873Y-17751D01*
X19901Y-17821D01*
Y-17823D01*
X19906Y-17829D01*
X19909Y-17837D01*
X19917Y-17848D01*
X19937Y-17879D01*
X19967Y-17918D01*
X20004Y-17959D01*
X20048Y-18001D01*
X20101Y-18040D01*
X20159Y-18076D01*
X20162D01*
X20167Y-18079D01*
X20176Y-18084D01*
X20190Y-18090D01*
X20203Y-18095D01*
X20223Y-18101D01*
X20267Y-18118D01*
X20323Y-18131D01*
X20384Y-18145D01*
X20450Y-18156D01*
X20520Y-18159D01*
X20548D01*
X20564Y-18156D01*
X20581D01*
X20623Y-18151D01*
X20673Y-18145D01*
X20725Y-18134D01*
X20784Y-18118D01*
X20842Y-18098D01*
X20845D01*
X20850Y-18095D01*
X20856Y-18093D01*
X20867Y-18087D01*
X20897Y-18073D01*
X20931Y-18057D01*
X20970Y-18037D01*
X21011Y-18015D01*
X21050Y-17990D01*
X21083Y-17962D01*
Y-17601D01*
X20517D01*
Y-17374D01*
X21333D01*
Y-18087D01*
X21331Y-18090D01*
X21325Y-18093D01*
X21314Y-18101D01*
X21300Y-18112D01*
X21283Y-18123D01*
X21264Y-18137D01*
X21239Y-18154D01*
X21214Y-18170D01*
X21156Y-18206D01*
X21089Y-18245D01*
X21020Y-18281D01*
X20945Y-18312D01*
X20942D01*
X20936Y-18315D01*
X20925Y-18317D01*
X20911Y-18323D01*
X20892Y-18329D01*
X20870Y-18337D01*
X20845Y-18342D01*
X20820Y-18348D01*
X20759Y-18362D01*
X20689Y-18376D01*
X20614Y-18384D01*
X20537Y-18387D01*
X20509D01*
X20489Y-18384D01*
X20464D01*
X20434Y-18381D01*
X20401Y-18376D01*
X20364Y-18373D01*
X20284Y-18356D01*
X20198Y-18337D01*
X20109Y-18306D01*
X20065Y-18290D01*
X20020Y-18268D01*
X20017Y-18265D01*
X20009Y-18262D01*
X19998Y-18254D01*
X19981Y-18245D01*
X19962Y-18231D01*
X19942Y-18218D01*
X19890Y-18179D01*
X19834Y-18129D01*
X19776Y-18068D01*
X19720Y-17998D01*
X19670Y-17918D01*
Y-17915D01*
X19665Y-17907D01*
X19659Y-17895D01*
X19651Y-17876D01*
X19643Y-17857D01*
X19634Y-17829D01*
X19623Y-17801D01*
X19612Y-17768D01*
X19601Y-17732D01*
X19590Y-17690D01*
X19582Y-17648D01*
X19573Y-17604D01*
X19559Y-17507D01*
X19554Y-17404D01*
Y-17401D01*
Y-17390D01*
Y-17376D01*
X19557Y-17357D01*
Y-17332D01*
X19559Y-17301D01*
X19565Y-17271D01*
X19568Y-17235D01*
X19576Y-17196D01*
X19582Y-17154D01*
X19604Y-17065D01*
X19631Y-16974D01*
X19670Y-16882D01*
X19673Y-16879D01*
X19676Y-16871D01*
X19681Y-16860D01*
X19693Y-16843D01*
X19704Y-16821D01*
X19718Y-16799D01*
X19756Y-16746D01*
X19804Y-16685D01*
X19862Y-16627D01*
X19929Y-16568D01*
X19967Y-16543D01*
X20006Y-16518D01*
X20009Y-16516D01*
X20017Y-16513D01*
X20028Y-16507D01*
X20045Y-16499D01*
X20067Y-16491D01*
X20092Y-16480D01*
X20120Y-16469D01*
X20153Y-16457D01*
X20190Y-16446D01*
X20228Y-16438D01*
X20270Y-16427D01*
X20314Y-16419D01*
X20412Y-16405D01*
X20462Y-16399D01*
X20550D01*
X20567Y-16402D01*
D02*
G37*
G36*
X22294Y-16427D02*
X22316Y-16430D01*
X22344Y-16432D01*
X22374Y-16438D01*
X22405Y-16444D01*
X22477Y-16463D01*
X22549Y-16491D01*
X22585Y-16507D01*
X22621Y-16527D01*
X22655Y-16552D01*
X22685Y-16580D01*
X22688Y-16582D01*
X22694Y-16585D01*
X22699Y-16596D01*
X22710Y-16607D01*
X22724Y-16621D01*
X22738Y-16641D01*
X22752Y-16660D01*
X22769Y-16685D01*
X22796Y-16738D01*
X22824Y-16804D01*
X22835Y-16838D01*
X22841Y-16877D01*
X22846Y-16915D01*
X22849Y-16957D01*
Y-16963D01*
Y-16977D01*
X22846Y-16999D01*
X22844Y-17029D01*
X22838Y-17063D01*
X22827Y-17101D01*
X22816Y-17143D01*
X22799Y-17185D01*
X22796Y-17190D01*
X22791Y-17204D01*
X22780Y-17226D01*
X22763Y-17257D01*
X22741Y-17290D01*
X22713Y-17332D01*
X22680Y-17374D01*
X22641Y-17421D01*
X22635Y-17426D01*
X22621Y-17443D01*
X22608Y-17457D01*
X22594Y-17471D01*
X22577Y-17487D01*
X22555Y-17510D01*
X22533Y-17532D01*
X22505Y-17557D01*
X22477Y-17585D01*
X22444Y-17615D01*
X22408Y-17646D01*
X22369Y-17682D01*
X22324Y-17718D01*
X22280Y-17757D01*
X22277Y-17759D01*
X22272Y-17765D01*
X22261Y-17773D01*
X22247Y-17784D01*
X22230Y-17801D01*
X22211Y-17818D01*
X22166Y-17854D01*
X22119Y-17895D01*
X22075Y-17937D01*
X22036Y-17973D01*
X22019Y-17987D01*
X22005Y-18001D01*
X22002Y-18004D01*
X21994Y-18012D01*
X21983Y-18023D01*
X21969Y-18040D01*
X21955Y-18059D01*
X21939Y-18079D01*
X21905Y-18126D01*
X22852D01*
Y-18354D01*
X21578D01*
Y-18351D01*
Y-18340D01*
Y-18323D01*
X21580Y-18301D01*
X21583Y-18276D01*
X21589Y-18248D01*
X21594Y-18220D01*
X21605Y-18190D01*
Y-18187D01*
X21608Y-18184D01*
X21614Y-18168D01*
X21625Y-18143D01*
X21641Y-18109D01*
X21664Y-18070D01*
X21691Y-18026D01*
X21722Y-17982D01*
X21761Y-17934D01*
Y-17932D01*
X21766Y-17929D01*
X21780Y-17912D01*
X21805Y-17887D01*
X21841Y-17851D01*
X21883Y-17809D01*
X21936Y-17759D01*
X22000Y-17704D01*
X22069Y-17646D01*
X22072Y-17643D01*
X22083Y-17635D01*
X22100Y-17621D01*
X22119Y-17604D01*
X22144Y-17582D01*
X22175Y-17557D01*
X22205Y-17529D01*
X22241Y-17498D01*
X22311Y-17432D01*
X22380Y-17365D01*
X22413Y-17332D01*
X22444Y-17299D01*
X22472Y-17268D01*
X22494Y-17238D01*
Y-17235D01*
X22499Y-17232D01*
X22505Y-17224D01*
X22510Y-17213D01*
X22530Y-17182D01*
X22552Y-17146D01*
X22572Y-17101D01*
X22591Y-17054D01*
X22602Y-17002D01*
X22608Y-16952D01*
Y-16949D01*
Y-16946D01*
X22605Y-16929D01*
X22602Y-16902D01*
X22594Y-16871D01*
X22583Y-16832D01*
X22563Y-16793D01*
X22538Y-16754D01*
X22505Y-16716D01*
X22499Y-16710D01*
X22485Y-16699D01*
X22466Y-16685D01*
X22435Y-16666D01*
X22397Y-16649D01*
X22352Y-16632D01*
X22299Y-16621D01*
X22241Y-16618D01*
X22224D01*
X22213Y-16621D01*
X22180Y-16624D01*
X22141Y-16632D01*
X22100Y-16643D01*
X22052Y-16663D01*
X22008Y-16688D01*
X21966Y-16721D01*
X21961Y-16727D01*
X21950Y-16741D01*
X21933Y-16763D01*
X21916Y-16796D01*
X21897Y-16835D01*
X21880Y-16885D01*
X21869Y-16940D01*
X21864Y-17004D01*
X21622Y-16979D01*
Y-16977D01*
X21625Y-16968D01*
Y-16954D01*
X21628Y-16935D01*
X21633Y-16913D01*
X21639Y-16888D01*
X21647Y-16857D01*
X21655Y-16827D01*
X21678Y-16760D01*
X21711Y-16693D01*
X21730Y-16660D01*
X21755Y-16627D01*
X21780Y-16596D01*
X21808Y-16568D01*
X21811Y-16566D01*
X21816Y-16563D01*
X21825Y-16555D01*
X21839Y-16546D01*
X21855Y-16535D01*
X21875Y-16524D01*
X21897Y-16510D01*
X21925Y-16496D01*
X21955Y-16482D01*
X21989Y-16469D01*
X22025Y-16457D01*
X22063Y-16446D01*
X22105Y-16438D01*
X22150Y-16430D01*
X22197Y-16427D01*
X22247Y-16424D01*
X22274D01*
X22294Y-16427D01*
D02*
G37*
G36*
X19179Y-18354D02*
X18910D01*
Y-18084D01*
X19179D01*
Y-18354D01*
D02*
G37*
G36*
X-19920Y-16932D02*
X-19890Y-16935D01*
X-19853Y-16940D01*
X-19815Y-16949D01*
X-19773Y-16960D01*
X-19734Y-16977D01*
X-19728Y-16979D01*
X-19717Y-16985D01*
X-19698Y-16993D01*
X-19676Y-17007D01*
X-19648Y-17024D01*
X-19623Y-17046D01*
X-19598Y-17068D01*
X-19576Y-17096D01*
X-19573Y-17099D01*
X-19567Y-17110D01*
X-19559Y-17124D01*
X-19545Y-17143D01*
X-19534Y-17171D01*
X-19523Y-17199D01*
X-19509Y-17232D01*
X-19501Y-17268D01*
Y-17271D01*
X-19498Y-17282D01*
X-19495Y-17299D01*
X-19493Y-17321D01*
Y-17354D01*
X-19490Y-17393D01*
X-19487Y-17440D01*
Y-17498D01*
Y-18354D01*
X-19723D01*
Y-17510D01*
Y-17507D01*
Y-17504D01*
Y-17485D01*
Y-17460D01*
X-19726Y-17429D01*
X-19728Y-17393D01*
X-19734Y-17357D01*
X-19742Y-17324D01*
X-19751Y-17293D01*
Y-17290D01*
X-19756Y-17282D01*
X-19765Y-17268D01*
X-19773Y-17251D01*
X-19787Y-17235D01*
X-19803Y-17215D01*
X-19826Y-17196D01*
X-19851Y-17179D01*
X-19853Y-17176D01*
X-19862Y-17171D01*
X-19878Y-17165D01*
X-19898Y-17157D01*
X-19920Y-17149D01*
X-19948Y-17140D01*
X-19981Y-17138D01*
X-20014Y-17135D01*
X-20028D01*
X-20039Y-17138D01*
X-20067Y-17140D01*
X-20103Y-17146D01*
X-20142Y-17160D01*
X-20187Y-17176D01*
X-20231Y-17199D01*
X-20273Y-17232D01*
X-20278Y-17238D01*
X-20289Y-17251D01*
X-20298Y-17263D01*
X-20306Y-17276D01*
X-20317Y-17293D01*
X-20325Y-17312D01*
X-20336Y-17335D01*
X-20348Y-17362D01*
X-20356Y-17393D01*
X-20364Y-17426D01*
X-20370Y-17462D01*
X-20375Y-17501D01*
X-20381Y-17548D01*
Y-17596D01*
Y-18354D01*
X-20617D01*
Y-16960D01*
X-20406D01*
Y-17160D01*
X-20403Y-17157D01*
X-20398Y-17149D01*
X-20389Y-17138D01*
X-20378Y-17124D01*
X-20361Y-17107D01*
X-20342Y-17088D01*
X-20320Y-17065D01*
X-20292Y-17043D01*
X-20264Y-17024D01*
X-20231Y-17002D01*
X-20195Y-16982D01*
X-20156Y-16965D01*
X-20112Y-16952D01*
X-20067Y-16940D01*
X-20017Y-16932D01*
X-19964Y-16929D01*
X-19942D01*
X-19920Y-16932D01*
D02*
G37*
G36*
X-21414D02*
X-21383Y-16935D01*
X-21347Y-16940D01*
X-21308Y-16949D01*
X-21267Y-16960D01*
X-21228Y-16977D01*
X-21222Y-16979D01*
X-21211Y-16985D01*
X-21192Y-16993D01*
X-21169Y-17007D01*
X-21142Y-17024D01*
X-21117Y-17046D01*
X-21092Y-17068D01*
X-21069Y-17096D01*
X-21067Y-17099D01*
X-21061Y-17110D01*
X-21053Y-17124D01*
X-21039Y-17143D01*
X-21028Y-17171D01*
X-21017Y-17199D01*
X-21003Y-17232D01*
X-20994Y-17268D01*
Y-17271D01*
X-20992Y-17282D01*
X-20989Y-17299D01*
X-20986Y-17321D01*
Y-17354D01*
X-20983Y-17393D01*
X-20981Y-17440D01*
Y-17498D01*
Y-18354D01*
X-21217D01*
Y-17510D01*
Y-17507D01*
Y-17504D01*
Y-17485D01*
Y-17460D01*
X-21219Y-17429D01*
X-21222Y-17393D01*
X-21228Y-17357D01*
X-21236Y-17324D01*
X-21244Y-17293D01*
Y-17290D01*
X-21250Y-17282D01*
X-21258Y-17268D01*
X-21267Y-17251D01*
X-21280Y-17235D01*
X-21297Y-17215D01*
X-21319Y-17196D01*
X-21344Y-17179D01*
X-21347Y-17176D01*
X-21355Y-17171D01*
X-21372Y-17165D01*
X-21391Y-17157D01*
X-21414Y-17149D01*
X-21441Y-17140D01*
X-21475Y-17138D01*
X-21508Y-17135D01*
X-21522D01*
X-21533Y-17138D01*
X-21561Y-17140D01*
X-21597Y-17146D01*
X-21636Y-17160D01*
X-21680Y-17176D01*
X-21725Y-17199D01*
X-21766Y-17232D01*
X-21772Y-17238D01*
X-21783Y-17251D01*
X-21791Y-17263D01*
X-21800Y-17276D01*
X-21811Y-17293D01*
X-21819Y-17312D01*
X-21830Y-17335D01*
X-21841Y-17362D01*
X-21850Y-17393D01*
X-21858Y-17426D01*
X-21863Y-17462D01*
X-21869Y-17501D01*
X-21875Y-17548D01*
Y-17596D01*
Y-18354D01*
X-22110D01*
Y-16960D01*
X-21899D01*
Y-17160D01*
X-21897Y-17157D01*
X-21891Y-17149D01*
X-21883Y-17138D01*
X-21872Y-17124D01*
X-21855Y-17107D01*
X-21836Y-17088D01*
X-21813Y-17065D01*
X-21786Y-17043D01*
X-21758Y-17024D01*
X-21725Y-17002D01*
X-21688Y-16982D01*
X-21650Y-16965D01*
X-21605Y-16952D01*
X-21561Y-16940D01*
X-21511Y-16932D01*
X-21458Y-16929D01*
X-21436D01*
X-21414Y-16932D01*
D02*
G37*
G36*
X-17074D02*
X-17044Y-16938D01*
X-17008Y-16949D01*
X-16969Y-16963D01*
X-16925Y-16982D01*
X-16877Y-17007D01*
X-16963Y-17224D01*
X-16966Y-17221D01*
X-16977Y-17215D01*
X-16994Y-17207D01*
X-17016Y-17199D01*
X-17041Y-17190D01*
X-17072Y-17182D01*
X-17102Y-17176D01*
X-17133Y-17174D01*
X-17147D01*
X-17160Y-17176D01*
X-17180Y-17179D01*
X-17199Y-17185D01*
X-17224Y-17193D01*
X-17249Y-17204D01*
X-17272Y-17221D01*
X-17274Y-17224D01*
X-17283Y-17229D01*
X-17291Y-17240D01*
X-17305Y-17254D01*
X-17319Y-17274D01*
X-17333Y-17296D01*
X-17346Y-17321D01*
X-17358Y-17351D01*
X-17360Y-17357D01*
X-17363Y-17374D01*
X-17369Y-17399D01*
X-17377Y-17432D01*
X-17385Y-17474D01*
X-17391Y-17521D01*
X-17394Y-17571D01*
X-17396Y-17626D01*
Y-18354D01*
X-17632D01*
Y-16960D01*
X-17419D01*
Y-17171D01*
X-17416Y-17168D01*
X-17405Y-17149D01*
X-17391Y-17124D01*
X-17369Y-17093D01*
X-17346Y-17063D01*
X-17322Y-17029D01*
X-17297Y-17002D01*
X-17272Y-16979D01*
X-17269Y-16977D01*
X-17260Y-16971D01*
X-17244Y-16963D01*
X-17227Y-16954D01*
X-17205Y-16946D01*
X-17177Y-16938D01*
X-17149Y-16932D01*
X-17119Y-16929D01*
X-17099D01*
X-17074Y-16932D01*
D02*
G37*
G36*
X-15373Y-16427D02*
X-15350Y-16430D01*
X-15323Y-16432D01*
X-15292Y-16438D01*
X-15262Y-16444D01*
X-15189Y-16463D01*
X-15117Y-16491D01*
X-15081Y-16507D01*
X-15045Y-16527D01*
X-15012Y-16552D01*
X-14981Y-16580D01*
X-14978Y-16582D01*
X-14973Y-16585D01*
X-14967Y-16596D01*
X-14956Y-16607D01*
X-14942Y-16621D01*
X-14928Y-16641D01*
X-14915Y-16660D01*
X-14898Y-16685D01*
X-14870Y-16738D01*
X-14842Y-16804D01*
X-14831Y-16838D01*
X-14826Y-16877D01*
X-14820Y-16915D01*
X-14817Y-16957D01*
Y-16963D01*
Y-16977D01*
X-14820Y-16999D01*
X-14823Y-17029D01*
X-14828Y-17063D01*
X-14840Y-17101D01*
X-14851Y-17143D01*
X-14867Y-17185D01*
X-14870Y-17190D01*
X-14876Y-17204D01*
X-14887Y-17226D01*
X-14903Y-17257D01*
X-14926Y-17290D01*
X-14953Y-17332D01*
X-14987Y-17374D01*
X-15026Y-17421D01*
X-15031Y-17426D01*
X-15045Y-17443D01*
X-15059Y-17457D01*
X-15073Y-17471D01*
X-15089Y-17487D01*
X-15112Y-17510D01*
X-15134Y-17532D01*
X-15162Y-17557D01*
X-15189Y-17585D01*
X-15223Y-17615D01*
X-15259Y-17646D01*
X-15298Y-17682D01*
X-15342Y-17718D01*
X-15386Y-17757D01*
X-15389Y-17759D01*
X-15395Y-17765D01*
X-15406Y-17773D01*
X-15420Y-17784D01*
X-15436Y-17801D01*
X-15456Y-17818D01*
X-15500Y-17854D01*
X-15547Y-17895D01*
X-15592Y-17937D01*
X-15631Y-17973D01*
X-15647Y-17987D01*
X-15661Y-18001D01*
X-15664Y-18004D01*
X-15672Y-18012D01*
X-15684Y-18023D01*
X-15697Y-18040D01*
X-15711Y-18059D01*
X-15728Y-18079D01*
X-15761Y-18126D01*
X-14815D01*
Y-18354D01*
X-16089D01*
Y-18351D01*
Y-18340D01*
Y-18323D01*
X-16086Y-18301D01*
X-16083Y-18276D01*
X-16078Y-18248D01*
X-16072Y-18220D01*
X-16061Y-18190D01*
Y-18187D01*
X-16058Y-18184D01*
X-16053Y-18168D01*
X-16042Y-18143D01*
X-16025Y-18109D01*
X-16003Y-18070D01*
X-15975Y-18026D01*
X-15944Y-17982D01*
X-15906Y-17934D01*
Y-17932D01*
X-15900Y-17929D01*
X-15886Y-17912D01*
X-15861Y-17887D01*
X-15825Y-17851D01*
X-15783Y-17809D01*
X-15731Y-17759D01*
X-15667Y-17704D01*
X-15597Y-17646D01*
X-15595Y-17643D01*
X-15584Y-17635D01*
X-15567Y-17621D01*
X-15547Y-17604D01*
X-15523Y-17582D01*
X-15492Y-17557D01*
X-15461Y-17529D01*
X-15425Y-17498D01*
X-15356Y-17432D01*
X-15287Y-17365D01*
X-15253Y-17332D01*
X-15223Y-17299D01*
X-15195Y-17268D01*
X-15173Y-17238D01*
Y-17235D01*
X-15167Y-17232D01*
X-15162Y-17224D01*
X-15156Y-17213D01*
X-15137Y-17182D01*
X-15114Y-17146D01*
X-15095Y-17101D01*
X-15076Y-17054D01*
X-15064Y-17002D01*
X-15059Y-16952D01*
Y-16949D01*
Y-16946D01*
X-15062Y-16929D01*
X-15064Y-16902D01*
X-15073Y-16871D01*
X-15084Y-16832D01*
X-15103Y-16793D01*
X-15128Y-16754D01*
X-15162Y-16716D01*
X-15167Y-16710D01*
X-15181Y-16699D01*
X-15200Y-16685D01*
X-15231Y-16666D01*
X-15270Y-16649D01*
X-15314Y-16632D01*
X-15367Y-16621D01*
X-15425Y-16618D01*
X-15442D01*
X-15453Y-16621D01*
X-15486Y-16624D01*
X-15525Y-16632D01*
X-15567Y-16643D01*
X-15614Y-16663D01*
X-15659Y-16688D01*
X-15700Y-16721D01*
X-15706Y-16727D01*
X-15717Y-16741D01*
X-15734Y-16763D01*
X-15750Y-16796D01*
X-15770Y-16835D01*
X-15786Y-16885D01*
X-15797Y-16940D01*
X-15803Y-17004D01*
X-16044Y-16979D01*
Y-16977D01*
X-16042Y-16968D01*
Y-16954D01*
X-16039Y-16935D01*
X-16033Y-16913D01*
X-16028Y-16888D01*
X-16019Y-16857D01*
X-16011Y-16827D01*
X-15989Y-16760D01*
X-15956Y-16693D01*
X-15936Y-16660D01*
X-15911Y-16627D01*
X-15886Y-16596D01*
X-15858Y-16568D01*
X-15856Y-16566D01*
X-15850Y-16563D01*
X-15842Y-16555D01*
X-15828Y-16546D01*
X-15811Y-16535D01*
X-15792Y-16524D01*
X-15770Y-16510D01*
X-15742Y-16496D01*
X-15711Y-16482D01*
X-15678Y-16469D01*
X-15642Y-16457D01*
X-15603Y-16446D01*
X-15561Y-16438D01*
X-15517Y-16430D01*
X-15470Y-16427D01*
X-15420Y-16424D01*
X-15392D01*
X-15373Y-16427D01*
D02*
G37*
G36*
X-22530Y-18354D02*
X-22785D01*
Y-16432D01*
X-22530D01*
Y-18354D01*
D02*
G37*
G36*
X-18507Y-16932D02*
X-18485Y-16935D01*
X-18457Y-16940D01*
X-18426Y-16946D01*
X-18390Y-16954D01*
X-18357Y-16963D01*
X-18318Y-16977D01*
X-18282Y-16990D01*
X-18243Y-17010D01*
X-18204Y-17032D01*
X-18165Y-17057D01*
X-18129Y-17088D01*
X-18096Y-17121D01*
X-18093Y-17124D01*
X-18088Y-17129D01*
X-18079Y-17140D01*
X-18068Y-17157D01*
X-18054Y-17176D01*
X-18041Y-17199D01*
X-18024Y-17226D01*
X-18007Y-17260D01*
X-17991Y-17296D01*
X-17974Y-17335D01*
X-17960Y-17379D01*
X-17946Y-17426D01*
X-17935Y-17479D01*
X-17927Y-17535D01*
X-17921Y-17593D01*
X-17918Y-17657D01*
Y-17660D01*
Y-17671D01*
Y-17690D01*
X-17921Y-17718D01*
X-18962D01*
Y-17721D01*
Y-17729D01*
X-18959Y-17740D01*
Y-17757D01*
X-18957Y-17776D01*
X-18951Y-17798D01*
X-18943Y-17848D01*
X-18926Y-17904D01*
X-18904Y-17965D01*
X-18873Y-18020D01*
X-18835Y-18070D01*
X-18832D01*
X-18829Y-18076D01*
X-18812Y-18090D01*
X-18787Y-18109D01*
X-18754Y-18129D01*
X-18710Y-18151D01*
X-18660Y-18170D01*
X-18604Y-18184D01*
X-18574Y-18187D01*
X-18540Y-18190D01*
X-18518D01*
X-18493Y-18187D01*
X-18463Y-18181D01*
X-18429Y-18173D01*
X-18390Y-18162D01*
X-18354Y-18145D01*
X-18318Y-18123D01*
X-18315Y-18120D01*
X-18302Y-18109D01*
X-18285Y-18093D01*
X-18265Y-18070D01*
X-18243Y-18040D01*
X-18218Y-18001D01*
X-18193Y-17957D01*
X-18171Y-17904D01*
X-17927Y-17934D01*
Y-17937D01*
X-17930Y-17943D01*
X-17932Y-17954D01*
X-17938Y-17970D01*
X-17946Y-17987D01*
X-17954Y-18009D01*
X-17977Y-18057D01*
X-18004Y-18109D01*
X-18043Y-18165D01*
X-18088Y-18218D01*
X-18143Y-18268D01*
X-18146D01*
X-18152Y-18273D01*
X-18160Y-18279D01*
X-18171Y-18287D01*
X-18188Y-18295D01*
X-18204Y-18304D01*
X-18227Y-18315D01*
X-18252Y-18326D01*
X-18279Y-18337D01*
X-18307Y-18348D01*
X-18376Y-18365D01*
X-18454Y-18379D01*
X-18540Y-18384D01*
X-18571D01*
X-18590Y-18381D01*
X-18615Y-18379D01*
X-18646Y-18373D01*
X-18679Y-18367D01*
X-18715Y-18362D01*
X-18793Y-18340D01*
X-18835Y-18323D01*
X-18873Y-18306D01*
X-18915Y-18284D01*
X-18954Y-18259D01*
X-18990Y-18231D01*
X-19026Y-18198D01*
X-19029Y-18195D01*
X-19034Y-18190D01*
X-19043Y-18179D01*
X-19054Y-18162D01*
X-19068Y-18143D01*
X-19082Y-18120D01*
X-19098Y-18093D01*
X-19115Y-18062D01*
X-19132Y-18026D01*
X-19148Y-17987D01*
X-19162Y-17943D01*
X-19176Y-17895D01*
X-19187Y-17846D01*
X-19195Y-17790D01*
X-19201Y-17732D01*
X-19204Y-17671D01*
Y-17668D01*
Y-17654D01*
Y-17637D01*
X-19201Y-17612D01*
X-19198Y-17582D01*
X-19195Y-17548D01*
X-19190Y-17510D01*
X-19182Y-17471D01*
X-19159Y-17382D01*
X-19145Y-17337D01*
X-19129Y-17290D01*
X-19107Y-17246D01*
X-19082Y-17204D01*
X-19054Y-17163D01*
X-19023Y-17124D01*
X-19021Y-17121D01*
X-19015Y-17115D01*
X-19004Y-17107D01*
X-18990Y-17093D01*
X-18973Y-17079D01*
X-18951Y-17063D01*
X-18926Y-17043D01*
X-18896Y-17027D01*
X-18865Y-17007D01*
X-18829Y-16990D01*
X-18790Y-16974D01*
X-18748Y-16960D01*
X-18704Y-16946D01*
X-18657Y-16938D01*
X-18607Y-16932D01*
X-18554Y-16929D01*
X-18526D01*
X-18507Y-16932D01*
D02*
G37*
%LPC*%
G36*
X16110Y47996D02*
X15985Y47971D01*
X15879Y47901D01*
X15809Y47795D01*
X15784Y47670D01*
X15809Y47545D01*
X15879Y47439D01*
X15985Y47369D01*
X16110Y47344D01*
X16235Y47369D01*
X16341Y47439D01*
X16411Y47545D01*
X16436Y47670D01*
X16411Y47795D01*
X16341Y47901D01*
X16235Y47971D01*
X16110Y47996D01*
D02*
G37*
G36*
X13530Y47986D02*
X13405Y47961D01*
X13299Y47891D01*
X13229Y47785D01*
X13204Y47660D01*
X13229Y47535D01*
X13299Y47429D01*
X13405Y47359D01*
X13530Y47334D01*
X13655Y47359D01*
X13761Y47429D01*
X13831Y47535D01*
X13856Y47660D01*
X13831Y47785D01*
X13761Y47891D01*
X13655Y47961D01*
X13530Y47986D01*
D02*
G37*
G36*
X14834Y47693D02*
X14559Y47657D01*
X14304Y47552D01*
X14285Y47537D01*
X14834Y46988D01*
X15382Y47537D01*
X15363Y47552D01*
X15108Y47657D01*
X14834Y47693D01*
D02*
G37*
G36*
X4960Y47546D02*
X4835Y47521D01*
X4729Y47451D01*
X4659Y47345D01*
X4634Y47220D01*
X4659Y47095D01*
X4729Y46989D01*
X4835Y46919D01*
X4960Y46894D01*
X5085Y46919D01*
X5191Y46989D01*
X5261Y47095D01*
X5286Y47220D01*
X5261Y47345D01*
X5191Y47451D01*
X5085Y47521D01*
X4960Y47546D01*
D02*
G37*
G36*
X2650Y46806D02*
X2525Y46781D01*
X2419Y46711D01*
X2349Y46605D01*
X2324Y46480D01*
X2349Y46355D01*
X2419Y46249D01*
X2525Y46179D01*
X2650Y46154D01*
X2775Y46179D01*
X2881Y46249D01*
X2951Y46355D01*
X2976Y46480D01*
X2951Y46605D01*
X2881Y46711D01*
X2775Y46781D01*
X2650Y46806D01*
D02*
G37*
G36*
X15736Y47183D02*
X15187Y46634D01*
X15736Y46086D01*
X15751Y46105D01*
X15857Y46360D01*
X15893Y46634D01*
X15857Y46909D01*
X15751Y47164D01*
X15736Y47183D01*
D02*
G37*
G36*
X13931Y47183D02*
X13916Y47164D01*
X13811Y46909D01*
X13775Y46634D01*
X13811Y46360D01*
X13916Y46105D01*
X13931Y46086D01*
X14480Y46634D01*
X13931Y47183D01*
D02*
G37*
G36*
X14834Y46281D02*
X14285Y45732D01*
X14304Y45717D01*
X14559Y45611D01*
X14834Y45575D01*
X15108Y45611D01*
X15363Y45717D01*
X15382Y45732D01*
X14834Y46281D01*
D02*
G37*
G36*
X10130Y47427D02*
X9986Y47399D01*
X9863Y47317D01*
X9863Y47317D01*
X7924Y45377D01*
X7842Y45255D01*
X7813Y45110D01*
X7813Y45110D01*
Y44930D01*
X7842Y44785D01*
X7924Y44663D01*
X8046Y44581D01*
X8190Y44552D01*
X8335Y44581D01*
X8457Y44663D01*
X8495Y44720D01*
X8552Y44735D01*
X8668Y44744D01*
X8676Y44741D01*
X8755Y44689D01*
X8880Y44664D01*
X9005Y44689D01*
X9111Y44759D01*
X9181Y44865D01*
X9206Y44990D01*
X9181Y45115D01*
X9111Y45221D01*
X9072Y45246D01*
X9039Y45426D01*
X10286Y46673D01*
X10639D01*
X10665Y46652D01*
X10735Y46530D01*
X10735Y46528D01*
X10669Y46369D01*
X10639Y46142D01*
X10669Y45915D01*
X10757Y45703D01*
X10897Y45522D01*
X11078Y45382D01*
X11290Y45294D01*
X11517Y45264D01*
X11744Y45294D01*
X11956Y45382D01*
X12137Y45522D01*
X12277Y45703D01*
X12365Y45915D01*
X12395Y46142D01*
X12365Y46369D01*
X12277Y46581D01*
X12137Y46762D01*
X11956Y46902D01*
X11744Y46990D01*
X11517Y47020D01*
X11290Y46990D01*
X11234Y46966D01*
X11131Y47029D01*
X11093Y47070D01*
X11069Y47194D01*
X10987Y47317D01*
X10864Y47399D01*
X10720Y47427D01*
X10130D01*
X10130Y47427D01*
D02*
G37*
G36*
X6517Y47020D02*
X6290Y46990D01*
X6078Y46902D01*
X5897Y46762D01*
X5757Y46581D01*
X5669Y46369D01*
X5639Y46142D01*
X5669Y45915D01*
X5757Y45703D01*
X5897Y45522D01*
X6078Y45382D01*
X6290Y45294D01*
X6517Y45264D01*
X6744Y45294D01*
X6956Y45382D01*
X7137Y45522D01*
X7277Y45703D01*
X7365Y45915D01*
X7395Y46142D01*
X7365Y46369D01*
X7277Y46581D01*
X7137Y46762D01*
X6956Y46902D01*
X6744Y46990D01*
X6517Y47020D01*
D02*
G37*
G36*
X13110Y45766D02*
X12985Y45741D01*
X12879Y45671D01*
X12809Y45565D01*
X12784Y45440D01*
X12809Y45315D01*
X12879Y45209D01*
X12985Y45138D01*
X13110Y45114D01*
X13235Y45138D01*
X13341Y45209D01*
X13411Y45315D01*
X13436Y45440D01*
X13411Y45565D01*
X13341Y45671D01*
X13235Y45741D01*
X13110Y45766D01*
D02*
G37*
G36*
X9800Y45316D02*
X9675Y45291D01*
X9569Y45221D01*
X9499Y45115D01*
X9474Y44990D01*
X9499Y44865D01*
X9569Y44759D01*
X9675Y44689D01*
X9800Y44664D01*
X9925Y44689D01*
X10031Y44759D01*
X10101Y44865D01*
X10126Y44990D01*
X10101Y45115D01*
X10031Y45221D01*
X9925Y45291D01*
X9800Y45316D01*
D02*
G37*
G36*
X3630Y45266D02*
X3505Y45241D01*
X3399Y45171D01*
X3329Y45065D01*
X3304Y44940D01*
X3329Y44815D01*
X3399Y44709D01*
X3505Y44639D01*
X3630Y44614D01*
X3755Y44639D01*
X3861Y44709D01*
X3931Y44815D01*
X3956Y44940D01*
X3931Y45065D01*
X3861Y45171D01*
X3755Y45241D01*
X3630Y45266D01*
D02*
G37*
G36*
X7460Y44646D02*
X7335Y44621D01*
X7229Y44551D01*
X7159Y44445D01*
X7134Y44320D01*
X7159Y44195D01*
X7229Y44089D01*
X7335Y44019D01*
X7460Y43994D01*
X7585Y44019D01*
X7691Y44089D01*
X7761Y44195D01*
X7786Y44320D01*
X7761Y44445D01*
X7691Y44551D01*
X7585Y44621D01*
X7460Y44646D01*
D02*
G37*
G36*
X10490Y43956D02*
X10365Y43931D01*
X10259Y43861D01*
X10189Y43755D01*
X10164Y43630D01*
X10189Y43505D01*
X10259Y43399D01*
X10365Y43329D01*
X10490Y43304D01*
X10615Y43329D01*
X10721Y43399D01*
X10791Y43505D01*
X10816Y43630D01*
X10791Y43755D01*
X10721Y43861D01*
X10615Y43931D01*
X10490Y43956D01*
D02*
G37*
G36*
X14834Y44972D02*
X14606Y44942D01*
X14395Y44854D01*
X14213Y44715D01*
X14074Y44533D01*
X13986Y44322D01*
X13956Y44094D01*
X13986Y43867D01*
X14074Y43656D01*
X14213Y43474D01*
X14395Y43334D01*
X14606Y43247D01*
X14834Y43217D01*
X15061Y43247D01*
X15272Y43334D01*
X15454Y43474D01*
X15594Y43656D01*
X15681Y43867D01*
X15711Y44094D01*
X15681Y44322D01*
X15594Y44533D01*
X15454Y44715D01*
X15272Y44854D01*
X15061Y44942D01*
X14834Y44972D01*
D02*
G37*
G36*
X4530Y43506D02*
X4405Y43481D01*
X4299Y43411D01*
X4229Y43305D01*
X4204Y43180D01*
X4229Y43055D01*
X4299Y42949D01*
X4405Y42879D01*
X4530Y42854D01*
X4655Y42879D01*
X4761Y42949D01*
X4831Y43055D01*
X4856Y43180D01*
X4831Y43305D01*
X4761Y43411D01*
X4655Y43481D01*
X4530Y43506D01*
D02*
G37*
G36*
X6960Y43456D02*
X6835Y43431D01*
X6729Y43361D01*
X6659Y43255D01*
X6634Y43130D01*
X6659Y43005D01*
X6729Y42899D01*
X6835Y42829D01*
X6960Y42804D01*
X7085Y42829D01*
X7191Y42899D01*
X7261Y43005D01*
X7286Y43130D01*
X7261Y43255D01*
X7191Y43361D01*
X7085Y43431D01*
X6960Y43456D01*
D02*
G37*
G36*
X14150Y43036D02*
X14025Y43011D01*
X13919Y42941D01*
X13849Y42835D01*
X13824Y42710D01*
X13849Y42585D01*
X13919Y42479D01*
X14025Y42409D01*
X14150Y42384D01*
X14275Y42409D01*
X14381Y42479D01*
X14451Y42585D01*
X14476Y42710D01*
X14451Y42835D01*
X14381Y42941D01*
X14275Y43011D01*
X14150Y43036D01*
D02*
G37*
G36*
X12840Y43466D02*
X12715Y43441D01*
X12609Y43371D01*
X12539Y43265D01*
X12514Y43140D01*
X12539Y43015D01*
X12609Y42909D01*
X12715Y42839D01*
X12840Y42814D01*
X12853Y42816D01*
X12887Y42794D01*
X12969Y42686D01*
X12954Y42610D01*
X12979Y42485D01*
X13049Y42379D01*
X13155Y42309D01*
X13280Y42284D01*
X13405Y42309D01*
X13511Y42379D01*
X13581Y42485D01*
X13606Y42610D01*
X13581Y42735D01*
X13511Y42841D01*
X13405Y42911D01*
X13280Y42936D01*
X13267Y42934D01*
X13233Y42956D01*
X13151Y43064D01*
X13166Y43140D01*
X13141Y43265D01*
X13071Y43371D01*
X12965Y43441D01*
X12840Y43466D01*
D02*
G37*
G36*
X6420Y42666D02*
X6295Y42641D01*
X6189Y42571D01*
X6119Y42465D01*
X6094Y42340D01*
X6119Y42215D01*
X6189Y42109D01*
X6295Y42039D01*
X6420Y42014D01*
X6545Y42039D01*
X6651Y42109D01*
X6721Y42215D01*
X6746Y42340D01*
X6721Y42465D01*
X6651Y42571D01*
X6545Y42641D01*
X6420Y42666D01*
D02*
G37*
G36*
X10550Y42626D02*
X10425Y42601D01*
X10319Y42531D01*
X10249Y42425D01*
X10224Y42300D01*
X10249Y42175D01*
X10319Y42069D01*
X10425Y41999D01*
X10550Y41974D01*
X10675Y41999D01*
X10781Y42069D01*
X10851Y42175D01*
X10876Y42300D01*
X10851Y42425D01*
X10781Y42531D01*
X10675Y42601D01*
X10550Y42626D01*
D02*
G37*
G36*
X5770Y41026D02*
X5645Y41001D01*
X5539Y40931D01*
X5469Y40825D01*
X5444Y40700D01*
X5469Y40575D01*
X5539Y40469D01*
X5645Y40399D01*
X5770Y40374D01*
X5895Y40399D01*
X6001Y40469D01*
X6071Y40575D01*
X6096Y40700D01*
X6071Y40825D01*
X6001Y40931D01*
X5895Y41001D01*
X5770Y41026D01*
D02*
G37*
G36*
X1651Y42456D02*
X1378Y42420D01*
X1124Y42315D01*
X906Y42147D01*
X738Y41929D01*
X633Y41675D01*
X597Y41402D01*
X633Y41129D01*
X738Y40875D01*
X906Y40657D01*
X1124Y40489D01*
X1378Y40384D01*
X1651Y40348D01*
X1924Y40384D01*
X2178Y40489D01*
X2396Y40657D01*
X2564Y40875D01*
X2669Y41129D01*
X2705Y41402D01*
X2669Y41675D01*
X2564Y41929D01*
X2396Y42147D01*
X2178Y42315D01*
X1924Y42420D01*
X1651Y42456D01*
D02*
G37*
G36*
X3550Y40846D02*
X3425Y40821D01*
X3319Y40751D01*
X3249Y40645D01*
X3224Y40520D01*
X3249Y40395D01*
X3319Y40289D01*
X3425Y40219D01*
X3550Y40194D01*
X3675Y40219D01*
X3781Y40289D01*
X3851Y40395D01*
X3876Y40520D01*
X3851Y40645D01*
X3781Y40751D01*
X3675Y40821D01*
X3550Y40846D01*
D02*
G37*
G36*
X9530Y40696D02*
X9405Y40671D01*
X9299Y40601D01*
X9229Y40495D01*
X9204Y40370D01*
X9229Y40245D01*
X9299Y40139D01*
X9405Y40069D01*
X9530Y40044D01*
X9655Y40069D01*
X9761Y40139D01*
X9831Y40245D01*
X9856Y40370D01*
X9831Y40495D01*
X9761Y40601D01*
X9655Y40671D01*
X9530Y40696D01*
D02*
G37*
G36*
X10360Y40336D02*
X10235Y40311D01*
X10129Y40241D01*
X10059Y40135D01*
X10034Y40010D01*
X10059Y39885D01*
X10129Y39779D01*
X10235Y39709D01*
X10360Y39684D01*
X10485Y39709D01*
X10591Y39779D01*
X10661Y39885D01*
X10686Y40010D01*
X10661Y40135D01*
X10591Y40241D01*
X10485Y40311D01*
X10360Y40336D01*
D02*
G37*
G36*
X10030Y39576D02*
X9905Y39551D01*
X9799Y39481D01*
X9729Y39375D01*
X9704Y39250D01*
X9729Y39125D01*
X9799Y39019D01*
X9905Y38949D01*
X10030Y38924D01*
X10092Y38936D01*
X10218Y38834D01*
X10225Y38821D01*
X10249Y38705D01*
X10319Y38599D01*
X10425Y38528D01*
X10550Y38504D01*
X10675Y38528D01*
X10781Y38599D01*
X10851Y38705D01*
X10876Y38830D01*
X10851Y38955D01*
X10781Y39061D01*
X10675Y39131D01*
X10550Y39156D01*
X10488Y39144D01*
X10362Y39246D01*
X10355Y39259D01*
X10331Y39375D01*
X10261Y39481D01*
X10155Y39551D01*
X10030Y39576D01*
D02*
G37*
G36*
X3840Y39016D02*
X3715Y38991D01*
X3609Y38921D01*
X3539Y38815D01*
X3514Y38690D01*
X3539Y38565D01*
X3609Y38459D01*
X3715Y38389D01*
X3840Y38364D01*
X3965Y38389D01*
X4071Y38459D01*
X4141Y38565D01*
X4166Y38690D01*
X4141Y38815D01*
X4071Y38921D01*
X3965Y38991D01*
X3840Y39016D01*
D02*
G37*
G36*
X5860Y38816D02*
X5735Y38791D01*
X5629Y38721D01*
X5559Y38615D01*
X5534Y38490D01*
X5559Y38365D01*
X5629Y38259D01*
X5735Y38189D01*
X5860Y38164D01*
X5985Y38189D01*
X6091Y38259D01*
X6161Y38365D01*
X6186Y38490D01*
X6161Y38615D01*
X6091Y38721D01*
X5985Y38791D01*
X5860Y38816D01*
D02*
G37*
G36*
X4270Y37826D02*
X4145Y37801D01*
X4039Y37731D01*
X3969Y37625D01*
X3944Y37500D01*
X3969Y37375D01*
X4039Y37269D01*
X4145Y37199D01*
X4270Y37174D01*
X4395Y37199D01*
X4501Y37269D01*
X4571Y37375D01*
X4596Y37500D01*
X4571Y37625D01*
X4501Y37731D01*
X4395Y37801D01*
X4270Y37826D01*
D02*
G37*
G36*
X9190Y37256D02*
X9065Y37231D01*
X8959Y37161D01*
X8945Y37139D01*
X8764D01*
X8751Y37159D01*
X8645Y37229D01*
X8520Y37254D01*
X8395Y37229D01*
X8289Y37159D01*
X8219Y37053D01*
X8194Y36928D01*
X8219Y36803D01*
X8289Y36697D01*
X8395Y36627D01*
X8520Y36602D01*
X8645Y36627D01*
X8751Y36697D01*
X8765Y36719D01*
X8946D01*
X8959Y36699D01*
X9065Y36629D01*
X9190Y36604D01*
X9315Y36629D01*
X9421Y36699D01*
X9491Y36805D01*
X9516Y36930D01*
X9491Y37055D01*
X9421Y37161D01*
X9315Y37231D01*
X9190Y37256D01*
D02*
G37*
G36*
X5660Y37406D02*
X5535Y37381D01*
X5429Y37311D01*
X5359Y37205D01*
X5334Y37080D01*
X5359Y36955D01*
X5429Y36849D01*
X5535Y36779D01*
X5660Y36754D01*
X5785Y36779D01*
X5891Y36849D01*
X5961Y36955D01*
X5986Y37080D01*
X5961Y37205D01*
X5891Y37311D01*
X5785Y37381D01*
X5660Y37406D01*
D02*
G37*
G36*
X8940Y36476D02*
X8815Y36451D01*
X8709Y36381D01*
X8639Y36275D01*
X8614Y36150D01*
X8639Y36025D01*
X8709Y35919D01*
X8815Y35849D01*
X8940Y35824D01*
X9065Y35849D01*
X9171Y35919D01*
X9241Y36025D01*
X9266Y36150D01*
X9241Y36275D01*
X9171Y36381D01*
X9065Y36451D01*
X8940Y36476D01*
D02*
G37*
G36*
X10760Y36456D02*
X10635Y36431D01*
X10529Y36361D01*
X10459Y36255D01*
X10434Y36130D01*
X10459Y36005D01*
X10529Y35899D01*
X10635Y35829D01*
X10760Y35804D01*
X10885Y35829D01*
X10991Y35899D01*
X11061Y36005D01*
X11086Y36130D01*
X11061Y36255D01*
X10991Y36361D01*
X10885Y36431D01*
X10760Y36456D01*
D02*
G37*
G36*
X6180Y36376D02*
X6055Y36351D01*
X5949Y36281D01*
X5879Y36175D01*
X5854Y36050D01*
X5879Y35925D01*
X5949Y35819D01*
X6055Y35749D01*
X6180Y35724D01*
X6305Y35749D01*
X6411Y35819D01*
X6481Y35925D01*
X6506Y36050D01*
X6481Y36175D01*
X6411Y36281D01*
X6305Y36351D01*
X6180Y36376D01*
D02*
G37*
G36*
X11990Y35996D02*
X11865Y35971D01*
X11759Y35901D01*
X11689Y35795D01*
X11664Y35670D01*
X11689Y35545D01*
X11759Y35439D01*
X11865Y35369D01*
X11990Y35344D01*
X12115Y35369D01*
X12221Y35439D01*
X12291Y35545D01*
X12316Y35670D01*
X12291Y35795D01*
X12221Y35901D01*
X12115Y35971D01*
X11990Y35996D01*
D02*
G37*
G36*
X8130Y34636D02*
X8005Y34611D01*
X7899Y34541D01*
X7829Y34435D01*
X7804Y34310D01*
X7829Y34185D01*
X7899Y34079D01*
X8005Y34009D01*
X8130Y33984D01*
X8255Y34009D01*
X8361Y34079D01*
X8431Y34185D01*
X8456Y34310D01*
X8431Y34435D01*
X8361Y34541D01*
X8255Y34611D01*
X8130Y34636D01*
D02*
G37*
G36*
X10040Y34526D02*
X9915Y34501D01*
X9809Y34431D01*
X9739Y34325D01*
X9714Y34200D01*
X9739Y34075D01*
X9809Y33969D01*
X9915Y33899D01*
X10040Y33874D01*
X10165Y33899D01*
X10271Y33969D01*
X10341Y34075D01*
X10366Y34200D01*
X10341Y34325D01*
X10271Y34431D01*
X10165Y34501D01*
X10040Y34526D01*
D02*
G37*
G36*
X12200Y33996D02*
X12075Y33971D01*
X11969Y33901D01*
X11899Y33795D01*
X11874Y33670D01*
X11899Y33545D01*
X11969Y33439D01*
X12075Y33369D01*
X12200Y33344D01*
X12325Y33369D01*
X12431Y33439D01*
X12501Y33545D01*
X12526Y33670D01*
X12501Y33795D01*
X12431Y33901D01*
X12325Y33971D01*
X12200Y33996D01*
D02*
G37*
G36*
X8330Y33726D02*
X8205Y33701D01*
X8099Y33631D01*
X8029Y33525D01*
X8004Y33400D01*
X8029Y33275D01*
X8099Y33169D01*
X8205Y33099D01*
X8330Y33074D01*
X8455Y33099D01*
X8561Y33169D01*
X8631Y33275D01*
X8656Y33400D01*
X8631Y33525D01*
X8561Y33631D01*
X8455Y33701D01*
X8330Y33726D01*
D02*
G37*
G36*
X12340Y33186D02*
X12215Y33161D01*
X12109Y33091D01*
X12094Y33069D01*
X11925Y33001D01*
X11800Y33026D01*
X11675Y33001D01*
X11569Y32931D01*
X11499Y32825D01*
X11474Y32700D01*
X11499Y32575D01*
X11569Y32469D01*
X11675Y32399D01*
X11800Y32374D01*
X11925Y32399D01*
X12031Y32469D01*
X12046Y32491D01*
X12215Y32559D01*
X12340Y32534D01*
X12465Y32559D01*
X12571Y32629D01*
X12641Y32735D01*
X12666Y32860D01*
X12641Y32985D01*
X12571Y33091D01*
X12465Y33161D01*
X12340Y33186D01*
D02*
G37*
G36*
X10650Y33276D02*
X10525Y33251D01*
X10419Y33181D01*
X10349Y33075D01*
X10324Y32950D01*
X10349Y32825D01*
X10419Y32719D01*
X10525Y32649D01*
X10650Y32624D01*
X10775Y32649D01*
X10881Y32719D01*
X10951Y32825D01*
X10976Y32950D01*
X10951Y33075D01*
X10881Y33181D01*
X10775Y33251D01*
X10650Y33276D01*
D02*
G37*
G36*
X9410Y33156D02*
X9285Y33131D01*
X9179Y33061D01*
X9109Y32955D01*
X9084Y32830D01*
X9109Y32705D01*
X9179Y32599D01*
X9285Y32529D01*
X9410Y32504D01*
X9535Y32529D01*
X9641Y32599D01*
X9711Y32705D01*
X9736Y32830D01*
X9711Y32955D01*
X9641Y33061D01*
X9535Y33131D01*
X9410Y33156D01*
D02*
G37*
G36*
X11790Y30826D02*
X11665Y30801D01*
X11559Y30731D01*
X11489Y30625D01*
X11475Y30556D01*
X11470Y30534D01*
X11318Y30534D01*
X11311Y30565D01*
X11241Y30671D01*
X11135Y30741D01*
X11010Y30766D01*
X10885Y30741D01*
X10779Y30671D01*
X10709Y30565D01*
X10684Y30440D01*
X10709Y30315D01*
X10779Y30209D01*
X10885Y30139D01*
X11010Y30114D01*
X11135Y30139D01*
X11241Y30209D01*
X11311Y30315D01*
X11325Y30384D01*
X11330Y30406D01*
X11482Y30406D01*
X11489Y30375D01*
X11559Y30269D01*
X11665Y30199D01*
X11790Y30174D01*
X11915Y30199D01*
X12021Y30269D01*
X12091Y30375D01*
X12116Y30500D01*
X12091Y30625D01*
X12021Y30731D01*
X11915Y30801D01*
X11790Y30826D01*
D02*
G37*
G36*
X9390Y30956D02*
X9265Y30931D01*
X9159Y30861D01*
X9089Y30755D01*
X9064Y30630D01*
X9089Y30505D01*
X9159Y30399D01*
X9265Y30329D01*
X9390Y30304D01*
X9515Y30329D01*
X9621Y30399D01*
X9691Y30505D01*
X9716Y30630D01*
X9691Y30755D01*
X9621Y30861D01*
X9515Y30931D01*
X9390Y30956D01*
D02*
G37*
G36*
X8300Y30676D02*
X8175Y30651D01*
X8069Y30581D01*
X7999Y30475D01*
X7974Y30350D01*
X7999Y30225D01*
X8069Y30119D01*
X8175Y30049D01*
X8300Y30024D01*
X8425Y30049D01*
X8531Y30119D01*
X8601Y30225D01*
X8626Y30350D01*
X8601Y30475D01*
X8531Y30581D01*
X8425Y30651D01*
X8300Y30676D01*
D02*
G37*
G36*
X10660Y28716D02*
X10535Y28691D01*
X10429Y28621D01*
X10359Y28515D01*
X10334Y28390D01*
X10359Y28265D01*
X10429Y28159D01*
X10535Y28089D01*
X10660Y28064D01*
X10785Y28089D01*
X10891Y28159D01*
X10961Y28265D01*
X10986Y28390D01*
X10961Y28515D01*
X10891Y28621D01*
X10785Y28691D01*
X10660Y28716D01*
D02*
G37*
G36*
X14900Y38916D02*
X14775Y38891D01*
X14669Y38821D01*
X14599Y38715D01*
X14574Y38590D01*
X14599Y38465D01*
X14669Y38359D01*
X14775Y38289D01*
X14900Y38264D01*
X15025Y38289D01*
X15131Y38359D01*
X15201Y38465D01*
X15226Y38590D01*
X15201Y38715D01*
X15131Y38821D01*
X15025Y38891D01*
X14900Y38916D01*
D02*
G37*
G36*
X16891Y39916D02*
X16618Y39880D01*
X16364Y39775D01*
X16146Y39607D01*
X15978Y39389D01*
X15873Y39135D01*
X15837Y38862D01*
X15873Y38589D01*
X15978Y38335D01*
X16146Y38117D01*
X16364Y37949D01*
X16618Y37844D01*
X16891Y37808D01*
X17164Y37844D01*
X17418Y37949D01*
X17636Y38117D01*
X17804Y38335D01*
X17909Y38589D01*
X17945Y38862D01*
X17909Y39135D01*
X17804Y39389D01*
X17636Y39607D01*
X17418Y39775D01*
X17164Y39880D01*
X16891Y39916D01*
D02*
G37*
G36*
Y37376D02*
X16618Y37340D01*
X16364Y37235D01*
X16146Y37067D01*
X15978Y36849D01*
X15873Y36595D01*
X15837Y36322D01*
X15873Y36049D01*
X15978Y35795D01*
X16146Y35577D01*
X16364Y35409D01*
X16618Y35304D01*
X16891Y35268D01*
X17164Y35304D01*
X17418Y35409D01*
X17636Y35577D01*
X17804Y35795D01*
X17909Y36049D01*
X17945Y36322D01*
X17909Y36595D01*
X17804Y36849D01*
X17636Y37067D01*
X17418Y37235D01*
X17164Y37340D01*
X16891Y37376D01*
D02*
G37*
G36*
X15863Y34457D02*
X15754Y34253D01*
X15684Y34022D01*
X15660Y33782D01*
X15684Y33542D01*
X15754Y33311D01*
X15863Y33107D01*
X16537Y33782D01*
X15863Y34457D01*
D02*
G37*
G36*
X15020Y33276D02*
X14895Y33251D01*
X14789Y33181D01*
X14719Y33075D01*
X14694Y32950D01*
X14719Y32825D01*
X14789Y32719D01*
X14895Y32649D01*
X15020Y32624D01*
X15145Y32649D01*
X15251Y32719D01*
X15321Y32825D01*
X15346Y32950D01*
X15321Y33075D01*
X15251Y33181D01*
X15145Y33251D01*
X15020Y33276D01*
D02*
G37*
G36*
X16891Y27216D02*
X16618Y27180D01*
X16364Y27075D01*
X16146Y26907D01*
X15978Y26689D01*
X15873Y26435D01*
X15837Y26162D01*
X15873Y25889D01*
X15978Y25635D01*
X16146Y25417D01*
X16364Y25249D01*
X16618Y25144D01*
X16891Y25108D01*
X17164Y25144D01*
X17418Y25249D01*
X17636Y25417D01*
X17804Y25635D01*
X17909Y25889D01*
X17945Y26162D01*
X17909Y26435D01*
X17804Y26689D01*
X17636Y26907D01*
X17418Y27075D01*
X17164Y27180D01*
X16891Y27216D01*
D02*
G37*
G36*
X15980Y25196D02*
X15855Y25171D01*
X15749Y25101D01*
X15679Y24995D01*
X15654Y24870D01*
X15679Y24745D01*
X15749Y24639D01*
X15855Y24569D01*
X15980Y24544D01*
X16105Y24569D01*
X16211Y24639D01*
X16281Y24745D01*
X16306Y24870D01*
X16281Y24995D01*
X16211Y25101D01*
X16105Y25171D01*
X15980Y25196D01*
D02*
G37*
G36*
X16891Y24676D02*
X16618Y24640D01*
X16364Y24535D01*
X16146Y24367D01*
X15978Y24149D01*
X15873Y23895D01*
X15837Y23622D01*
X15873Y23349D01*
X15978Y23095D01*
X16146Y22877D01*
X16364Y22709D01*
X16618Y22604D01*
X16891Y22568D01*
X17164Y22604D01*
X17418Y22709D01*
X17636Y22877D01*
X17804Y23095D01*
X17909Y23349D01*
X17945Y23622D01*
X17909Y23895D01*
X17804Y24149D01*
X17636Y24367D01*
X17418Y24535D01*
X17164Y24640D01*
X16891Y24676D01*
D02*
G37*
G36*
X10760Y18236D02*
X10635Y18211D01*
X10529Y18141D01*
X10459Y18035D01*
X10434Y17910D01*
X10459Y17785D01*
X10529Y17679D01*
X10635Y17609D01*
X10760Y17584D01*
X10885Y17609D01*
X10991Y17679D01*
X11061Y17785D01*
X11086Y17910D01*
X11061Y18035D01*
X10991Y18141D01*
X10885Y18211D01*
X10760Y18236D01*
D02*
G37*
G36*
X16891Y19596D02*
X16618Y19560D01*
X16364Y19455D01*
X16146Y19287D01*
X15978Y19069D01*
X15873Y18815D01*
X15837Y18542D01*
X15873Y18269D01*
X15978Y18015D01*
X16146Y17797D01*
X16364Y17629D01*
X16618Y17524D01*
X16891Y17488D01*
X17164Y17524D01*
X17418Y17629D01*
X17636Y17797D01*
X17804Y18015D01*
X17909Y18269D01*
X17945Y18542D01*
X17909Y18815D01*
X17804Y19069D01*
X17636Y19287D01*
X17418Y19455D01*
X17164Y19560D01*
X16891Y19596D01*
D02*
G37*
G36*
X7980Y17726D02*
X7855Y17701D01*
X7749Y17631D01*
X7679Y17525D01*
X7654Y17400D01*
X7679Y17275D01*
X7749Y17169D01*
X7855Y17099D01*
X7980Y17074D01*
X8105Y17099D01*
X8211Y17169D01*
X8281Y17275D01*
X8306Y17400D01*
X8281Y17525D01*
X8211Y17631D01*
X8105Y17701D01*
X7980Y17726D01*
D02*
G37*
G36*
X15720Y17476D02*
X15595Y17451D01*
X15489Y17381D01*
X15419Y17275D01*
X15394Y17150D01*
X15419Y17025D01*
X15489Y16919D01*
X15595Y16849D01*
X15720Y16824D01*
X15845Y16849D01*
X15951Y16919D01*
X16021Y17025D01*
X16046Y17150D01*
X16021Y17275D01*
X15951Y17381D01*
X15845Y17451D01*
X15720Y17476D01*
D02*
G37*
G36*
X15420Y15696D02*
X15295Y15671D01*
X15189Y15601D01*
X15119Y15495D01*
X15094Y15370D01*
X15119Y15245D01*
X15189Y15139D01*
X15295Y15069D01*
X15420Y15044D01*
X15545Y15069D01*
X15651Y15139D01*
X15721Y15245D01*
X15746Y15370D01*
X15721Y15495D01*
X15651Y15601D01*
X15545Y15671D01*
X15420Y15696D01*
D02*
G37*
G36*
X14230Y15276D02*
X14105Y15251D01*
X13999Y15181D01*
X13929Y15075D01*
X13904Y14950D01*
X13929Y14825D01*
X13999Y14719D01*
X14105Y14649D01*
X14230Y14624D01*
X14355Y14649D01*
X14461Y14719D01*
X14531Y14825D01*
X14556Y14950D01*
X14531Y15075D01*
X14461Y15181D01*
X14355Y15251D01*
X14230Y15276D01*
D02*
G37*
G36*
X7240Y6546D02*
X7115Y6521D01*
X7009Y6451D01*
X6939Y6345D01*
X6914Y6220D01*
X6939Y6095D01*
X7009Y5989D01*
X7115Y5919D01*
X7240Y5894D01*
X7365Y5919D01*
X7471Y5989D01*
X7541Y6095D01*
X7566Y6220D01*
X7541Y6345D01*
X7471Y6451D01*
X7365Y6521D01*
X7240Y6546D01*
D02*
G37*
G36*
X7717Y4456D02*
X7592Y4431D01*
X7486Y4361D01*
X7416Y4255D01*
X7391Y4130D01*
X7416Y4005D01*
X7486Y3899D01*
X7569Y3844D01*
X7581Y3798D01*
X7583Y3757D01*
X7572Y3680D01*
X7499Y3631D01*
X7429Y3525D01*
X7404Y3400D01*
X7429Y3275D01*
X7499Y3169D01*
X7605Y3099D01*
X7730Y3074D01*
X7855Y3099D01*
X7961Y3169D01*
X8031Y3275D01*
X8056Y3400D01*
X8031Y3525D01*
X7961Y3631D01*
X7878Y3686D01*
X7866Y3732D01*
X7864Y3773D01*
X7875Y3850D01*
X7948Y3899D01*
X8018Y4005D01*
X8043Y4130D01*
X8018Y4255D01*
X7948Y4361D01*
X7842Y4431D01*
X7717Y4456D01*
D02*
G37*
G36*
X6040Y34706D02*
X5915Y34681D01*
X5809Y34610D01*
X5739Y34504D01*
X5714Y34380D01*
X5739Y34255D01*
X5809Y34149D01*
X5915Y34078D01*
X6040Y34053D01*
X6165Y34078D01*
X6271Y34149D01*
X6341Y34255D01*
X6366Y34380D01*
X6341Y34504D01*
X6271Y34610D01*
X6165Y34681D01*
X6040Y34706D01*
D02*
G37*
G36*
X5990Y33236D02*
X5865Y33211D01*
X5759Y33141D01*
X5689Y33035D01*
X5664Y32910D01*
X5689Y32785D01*
X5759Y32679D01*
X5865Y32609D01*
X5990Y32584D01*
X6115Y32609D01*
X6221Y32679D01*
X6291Y32785D01*
X6316Y32910D01*
X6291Y33035D01*
X6221Y33141D01*
X6115Y33211D01*
X5990Y33236D01*
D02*
G37*
G36*
X4080Y32176D02*
X3955Y32151D01*
X3849Y32081D01*
X3779Y31975D01*
X3754Y31850D01*
X3779Y31725D01*
X3849Y31619D01*
X3955Y31549D01*
X4080Y31524D01*
X4205Y31549D01*
X4311Y31619D01*
X4381Y31725D01*
X4406Y31850D01*
X4381Y31975D01*
X4311Y32081D01*
X4205Y32151D01*
X4080Y32176D01*
D02*
G37*
G36*
X3420Y31586D02*
X3295Y31561D01*
X3189Y31491D01*
X3119Y31385D01*
X3094Y31260D01*
X3119Y31135D01*
X3189Y31029D01*
X3295Y30959D01*
X3420Y30934D01*
X3545Y30959D01*
X3651Y31029D01*
X3721Y31135D01*
X3746Y31260D01*
X3721Y31385D01*
X3651Y31491D01*
X3545Y31561D01*
X3420Y31586D01*
D02*
G37*
G36*
X5010Y30606D02*
X4885Y30581D01*
X4779Y30511D01*
X4709Y30405D01*
X4684Y30280D01*
X4709Y30155D01*
X4779Y30049D01*
X4885Y29979D01*
X5010Y29954D01*
X5135Y29979D01*
X5241Y30049D01*
X5311Y30155D01*
X5336Y30280D01*
X5311Y30405D01*
X5241Y30511D01*
X5135Y30581D01*
X5010Y30606D01*
D02*
G37*
G36*
X4360Y29286D02*
X4235Y29261D01*
X4129Y29191D01*
X4059Y29085D01*
X4034Y28960D01*
X4059Y28835D01*
X4129Y28729D01*
X4235Y28659D01*
X4360Y28634D01*
X4485Y28659D01*
X4591Y28729D01*
X4661Y28835D01*
X4686Y28960D01*
X4661Y29085D01*
X4591Y29191D01*
X4485Y29261D01*
X4360Y29286D01*
D02*
G37*
G36*
X5590Y29246D02*
X5465Y29221D01*
X5359Y29151D01*
X5289Y29045D01*
X5264Y28920D01*
X5289Y28795D01*
X5359Y28689D01*
X5465Y28619D01*
X5590Y28594D01*
X5715Y28619D01*
X5821Y28689D01*
X5891Y28795D01*
X5916Y28920D01*
X5891Y29045D01*
X5821Y29151D01*
X5715Y29221D01*
X5590Y29246D01*
D02*
G37*
G36*
X6521Y28776D02*
X6396Y28751D01*
X6290Y28681D01*
X6220Y28575D01*
X6195Y28450D01*
X6220Y28325D01*
X6290Y28219D01*
X6396Y28149D01*
X6521Y28124D01*
X6646Y28149D01*
X6752Y28219D01*
X6822Y28325D01*
X6847Y28450D01*
X6822Y28575D01*
X6752Y28681D01*
X6646Y28751D01*
X6521Y28776D01*
D02*
G37*
G36*
X1651Y29756D02*
X1378Y29720D01*
X1124Y29615D01*
X906Y29447D01*
X738Y29229D01*
X633Y28975D01*
X597Y28702D01*
X633Y28429D01*
X738Y28175D01*
X906Y27957D01*
X1124Y27789D01*
X1378Y27684D01*
X1651Y27648D01*
X1924Y27684D01*
X2178Y27789D01*
X2396Y27957D01*
X2564Y28175D01*
X2669Y28429D01*
X2705Y28702D01*
X2669Y28975D01*
X2564Y29229D01*
X2396Y29447D01*
X2178Y29615D01*
X1924Y29720D01*
X1651Y29756D01*
D02*
G37*
G36*
X4110Y26856D02*
X3985Y26831D01*
X3879Y26761D01*
X3809Y26655D01*
X3784Y26530D01*
X3809Y26405D01*
X3879Y26299D01*
X3985Y26229D01*
X4110Y26204D01*
X4235Y26229D01*
X4341Y26299D01*
X4411Y26405D01*
X4436Y26530D01*
X4411Y26655D01*
X4341Y26761D01*
X4235Y26831D01*
X4110Y26856D01*
D02*
G37*
G36*
X1651Y27216D02*
X1378Y27180D01*
X1124Y27075D01*
X906Y26907D01*
X738Y26689D01*
X633Y26435D01*
X597Y26162D01*
X633Y25889D01*
X738Y25635D01*
X906Y25417D01*
X1124Y25249D01*
X1378Y25144D01*
X1651Y25108D01*
X1924Y25144D01*
X2178Y25249D01*
X2396Y25417D01*
X2564Y25635D01*
X2669Y25889D01*
X2705Y26162D01*
X2669Y26435D01*
X2564Y26689D01*
X2396Y26907D01*
X2178Y27075D01*
X1924Y27180D01*
X1651Y27216D01*
D02*
G37*
G36*
Y24676D02*
X1378Y24640D01*
X1124Y24535D01*
X906Y24367D01*
X738Y24149D01*
X633Y23895D01*
X597Y23622D01*
X633Y23349D01*
X738Y23095D01*
X906Y22877D01*
X1124Y22709D01*
X1378Y22604D01*
X1651Y22568D01*
X1901Y22601D01*
X1948Y22584D01*
X2055Y22496D01*
X2069Y22425D01*
X2139Y22319D01*
X2245Y22249D01*
X2370Y22224D01*
X2495Y22249D01*
X2601Y22319D01*
X2671Y22425D01*
X2696Y22550D01*
X2671Y22675D01*
X2601Y22781D01*
X2542Y22820D01*
X2494Y22970D01*
X2494Y23004D01*
X2564Y23095D01*
X2669Y23349D01*
X2705Y23622D01*
X2669Y23895D01*
X2564Y24149D01*
X2396Y24367D01*
X2178Y24535D01*
X1924Y24640D01*
X1651Y24676D01*
D02*
G37*
G36*
X4150Y21906D02*
X4025Y21881D01*
X3919Y21811D01*
X3849Y21705D01*
X3824Y21580D01*
X3849Y21455D01*
X3866Y21429D01*
X3800Y21262D01*
X3795Y21261D01*
X3689Y21191D01*
X3619Y21085D01*
X3594Y20960D01*
X3619Y20835D01*
X3689Y20729D01*
X3795Y20659D01*
X3920Y20634D01*
X4045Y20659D01*
X4151Y20729D01*
X4221Y20835D01*
X4246Y20960D01*
X4221Y21085D01*
X4204Y21111D01*
X4270Y21278D01*
X4275Y21279D01*
X4381Y21349D01*
X4451Y21455D01*
X4476Y21580D01*
X4451Y21705D01*
X4381Y21811D01*
X4275Y21881D01*
X4150Y21906D01*
D02*
G37*
G36*
X1651Y22136D02*
X1378Y22100D01*
X1124Y21995D01*
X906Y21827D01*
X738Y21609D01*
X633Y21355D01*
X597Y21082D01*
X633Y20809D01*
X738Y20555D01*
X906Y20337D01*
X1124Y20169D01*
X1378Y20064D01*
X1651Y20028D01*
X1924Y20064D01*
X2004Y20097D01*
X2041Y20056D01*
X2084Y19968D01*
X2029Y19885D01*
X2004Y19760D01*
X2019Y19683D01*
X1958Y19604D01*
X1930Y19579D01*
X1902Y19563D01*
X1651Y19596D01*
X1378Y19560D01*
X1124Y19455D01*
X906Y19287D01*
X738Y19069D01*
X633Y18815D01*
X597Y18542D01*
X633Y18269D01*
X738Y18015D01*
X906Y17797D01*
X1124Y17629D01*
X1378Y17524D01*
X1651Y17488D01*
X1924Y17524D01*
X2017Y17562D01*
X2119Y17445D01*
X2094Y17320D01*
X2119Y17195D01*
X2189Y17089D01*
X2295Y17019D01*
X2420Y16994D01*
X2545Y17019D01*
X2651Y17089D01*
X2721Y17195D01*
X2746Y17320D01*
X2721Y17445D01*
X2651Y17551D01*
X2545Y17621D01*
X2441Y17642D01*
X2408Y17706D01*
X2392Y17793D01*
X2396Y17797D01*
X2564Y18015D01*
X2669Y18269D01*
X2705Y18542D01*
X2669Y18815D01*
X2564Y19069D01*
X2396Y19287D01*
X2389Y19293D01*
X2427Y19453D01*
X2455Y19459D01*
X2619Y19469D01*
X2725Y19399D01*
X2850Y19374D01*
X2975Y19399D01*
X3081Y19469D01*
X3151Y19575D01*
X3176Y19700D01*
X3202Y19725D01*
X3260Y19714D01*
X3385Y19739D01*
X3491Y19809D01*
X3561Y19915D01*
X3586Y20040D01*
X3561Y20165D01*
X3491Y20271D01*
X3385Y20341D01*
X3260Y20366D01*
X3135Y20341D01*
X3029Y20271D01*
X2959Y20165D01*
X2934Y20040D01*
X2908Y20015D01*
X2850Y20026D01*
X2725Y20001D01*
X2561Y19991D01*
X2455Y20061D01*
X2330Y20086D01*
X2312Y20083D01*
X2248Y20223D01*
X2396Y20337D01*
X2564Y20555D01*
X2669Y20809D01*
X2705Y21082D01*
X2669Y21355D01*
X2564Y21609D01*
X2396Y21827D01*
X2178Y21995D01*
X1924Y22100D01*
X1651Y22136D01*
D02*
G37*
G36*
Y17056D02*
X1378Y17020D01*
X1124Y16915D01*
X906Y16747D01*
X738Y16529D01*
X633Y16275D01*
X597Y16002D01*
X633Y15729D01*
X738Y15475D01*
X906Y15257D01*
X1124Y15089D01*
X1378Y14984D01*
X1651Y14948D01*
X1924Y14984D01*
X2178Y15089D01*
X2396Y15257D01*
X2564Y15475D01*
X2669Y15729D01*
X2705Y16002D01*
X2669Y16275D01*
X2564Y16529D01*
X2396Y16747D01*
X2178Y16915D01*
X1924Y17020D01*
X1651Y17056D01*
D02*
G37*
G36*
Y14516D02*
X1378Y14480D01*
X1124Y14375D01*
X906Y14207D01*
X738Y13989D01*
X633Y13735D01*
X597Y13462D01*
X633Y13189D01*
X738Y12935D01*
X906Y12717D01*
X1124Y12549D01*
X1378Y12444D01*
X1651Y12408D01*
X1924Y12444D01*
X2178Y12549D01*
X2396Y12717D01*
X2564Y12935D01*
X2669Y13189D01*
X2705Y13462D01*
X2669Y13735D01*
X2564Y13989D01*
X2396Y14207D01*
X2178Y14375D01*
X1924Y14480D01*
X1651Y14516D01*
D02*
G37*
G36*
X13020Y12226D02*
X12895Y12201D01*
X12789Y12131D01*
X12719Y12025D01*
X12694Y11900D01*
X12719Y11775D01*
X12789Y11669D01*
X12895Y11599D01*
X13020Y11574D01*
X13145Y11599D01*
X13251Y11669D01*
X13321Y11775D01*
X13346Y11900D01*
X13321Y12025D01*
X13251Y12131D01*
X13145Y12201D01*
X13020Y12226D01*
D02*
G37*
G36*
X12500Y11356D02*
X12375Y11331D01*
X12269Y11261D01*
X12199Y11155D01*
X12174Y11030D01*
X12199Y10905D01*
X12269Y10799D01*
X12375Y10729D01*
X12500Y10704D01*
X12625Y10729D01*
X12731Y10799D01*
X12801Y10905D01*
X12826Y11030D01*
X12801Y11155D01*
X12731Y11261D01*
X12625Y11331D01*
X12500Y11356D01*
D02*
G37*
G36*
X15320Y11216D02*
X15195Y11191D01*
X15089Y11121D01*
X15019Y11015D01*
X14994Y10890D01*
X15019Y10765D01*
X15089Y10659D01*
X15195Y10589D01*
X15320Y10564D01*
X15445Y10589D01*
X15551Y10659D01*
X15621Y10765D01*
X15646Y10890D01*
X15621Y11015D01*
X15551Y11121D01*
X15445Y11191D01*
X15320Y11216D01*
D02*
G37*
G36*
X14490Y9936D02*
X14365Y9911D01*
X14259Y9841D01*
X14189Y9735D01*
X14164Y9610D01*
X14189Y9485D01*
X14259Y9379D01*
X14365Y9309D01*
X14490Y9284D01*
X14615Y9309D01*
X14721Y9379D01*
X14791Y9485D01*
X14816Y9610D01*
X14791Y9735D01*
X14721Y9841D01*
X14615Y9911D01*
X14490Y9936D01*
D02*
G37*
G36*
X16891Y9613D02*
X16651Y9589D01*
X16420Y9519D01*
X16216Y9410D01*
X16891Y8736D01*
X17566Y9410D01*
X17362Y9519D01*
X17131Y9589D01*
X16891Y9613D01*
D02*
G37*
G36*
X14460Y8806D02*
X14335Y8781D01*
X14229Y8711D01*
X14159Y8605D01*
X14134Y8480D01*
X14159Y8355D01*
X14229Y8249D01*
X14335Y8179D01*
X14460Y8154D01*
X14585Y8179D01*
X14691Y8249D01*
X14761Y8355D01*
X14786Y8480D01*
X14761Y8605D01*
X14691Y8711D01*
X14585Y8781D01*
X14460Y8806D01*
D02*
G37*
G36*
X15863Y9057D02*
X15754Y8853D01*
X15684Y8622D01*
X15660Y8382D01*
X15684Y8142D01*
X15754Y7911D01*
X15863Y7707D01*
X16537Y8382D01*
X15863Y9057D01*
D02*
G37*
G36*
X16891Y8028D02*
X16216Y7354D01*
X16420Y7245D01*
X16651Y7175D01*
X16891Y7151D01*
X17131Y7175D01*
X17362Y7245D01*
X17566Y7354D01*
X16891Y8028D01*
D02*
G37*
G36*
X1651Y9436D02*
X1378Y9400D01*
X1124Y9295D01*
X906Y9127D01*
X738Y8909D01*
X633Y8655D01*
X597Y8382D01*
X633Y8109D01*
X738Y7855D01*
X906Y7637D01*
X1124Y7469D01*
X1378Y7364D01*
X1651Y7328D01*
X1924Y7364D01*
X2130Y7449D01*
X2171Y7466D01*
X2191Y7464D01*
X2261Y7303D01*
X2249Y7285D01*
X2224Y7160D01*
X2249Y7035D01*
X2319Y6929D01*
X2425Y6859D01*
X2550Y6834D01*
X2675Y6859D01*
X2781Y6929D01*
X2851Y7035D01*
X2876Y7160D01*
X2851Y7285D01*
X2781Y7391D01*
X2675Y7461D01*
X2550Y7486D01*
X2444Y7465D01*
X2425Y7461D01*
X2417Y7461D01*
X2412Y7460D01*
X2354Y7604D01*
X2396Y7637D01*
X2564Y7855D01*
X2669Y8109D01*
X2705Y8382D01*
X2669Y8655D01*
X2564Y8909D01*
X2396Y9127D01*
X2178Y9295D01*
X1924Y9400D01*
X1651Y9436D01*
D02*
G37*
G36*
X16891Y6896D02*
X16618Y6860D01*
X16364Y6755D01*
X16146Y6587D01*
X15978Y6369D01*
X15873Y6115D01*
X15837Y5842D01*
X15873Y5569D01*
X15978Y5315D01*
X16146Y5097D01*
X16364Y4929D01*
X16618Y4824D01*
X16891Y4788D01*
X17164Y4824D01*
X17418Y4929D01*
X17636Y5097D01*
X17804Y5315D01*
X17909Y5569D01*
X17945Y5842D01*
X17909Y6115D01*
X17804Y6369D01*
X17636Y6587D01*
X17418Y6755D01*
X17164Y6860D01*
X16891Y6896D01*
D02*
G37*
G36*
X10600Y3676D02*
X10475Y3651D01*
X10369Y3581D01*
X10299Y3475D01*
X10274Y3350D01*
X10299Y3225D01*
X10369Y3119D01*
X10475Y3049D01*
X10600Y3024D01*
X10725Y3049D01*
X10831Y3119D01*
X10901Y3225D01*
X10926Y3350D01*
X10901Y3475D01*
X10831Y3581D01*
X10725Y3651D01*
X10600Y3676D01*
D02*
G37*
G36*
X13500Y1896D02*
X13375Y1871D01*
X13269Y1801D01*
X13199Y1695D01*
X13174Y1570D01*
X13199Y1445D01*
X13269Y1339D01*
X13375Y1269D01*
X13500Y1244D01*
X13625Y1269D01*
X13731Y1339D01*
X13801Y1445D01*
X13826Y1570D01*
X13801Y1695D01*
X13731Y1801D01*
X13625Y1871D01*
X13500Y1896D01*
D02*
G37*
G36*
X3160Y1436D02*
X3035Y1411D01*
X2929Y1341D01*
X2859Y1235D01*
X2834Y1110D01*
X2859Y985D01*
X2929Y879D01*
X3035Y809D01*
X3160Y784D01*
X3285Y809D01*
X3391Y879D01*
X3461Y985D01*
X3486Y1110D01*
X3461Y1235D01*
X3391Y1341D01*
X3285Y1411D01*
X3160Y1436D01*
D02*
G37*
G36*
X10570Y1416D02*
X10445Y1391D01*
X10339Y1321D01*
X10269Y1215D01*
X10244Y1090D01*
X10269Y965D01*
X10339Y859D01*
X10445Y789D01*
X10570Y764D01*
X10695Y789D01*
X10801Y859D01*
X10871Y965D01*
X10896Y1090D01*
X10871Y1215D01*
X10801Y1321D01*
X10695Y1391D01*
X10570Y1416D01*
D02*
G37*
G36*
X12260Y26506D02*
X12135Y26481D01*
X12029Y26411D01*
X11959Y26305D01*
X11934Y26180D01*
X11959Y26055D01*
X12029Y25949D01*
X12135Y25879D01*
X12260Y25854D01*
X12385Y25879D01*
X12491Y25949D01*
X12561Y26055D01*
X12586Y26180D01*
X12561Y26305D01*
X12491Y26411D01*
X12385Y26481D01*
X12260Y26506D01*
D02*
G37*
G36*
X9820Y22416D02*
X9695Y22391D01*
X9589Y22321D01*
X9519Y22215D01*
X9494Y22090D01*
X9519Y21965D01*
X9589Y21859D01*
X9695Y21789D01*
X9820Y21764D01*
X9945Y21789D01*
X10051Y21859D01*
X10104Y21870D01*
X10282Y21845D01*
X10316Y21793D01*
X10422Y21723D01*
X10547Y21698D01*
X10672Y21723D01*
X10777Y21793D01*
X10840Y21698D01*
X10946Y21628D01*
X11071Y21603D01*
X11196Y21628D01*
X11302Y21698D01*
X11372Y21804D01*
X11397Y21929D01*
X11372Y22054D01*
X11302Y22160D01*
X11196Y22230D01*
X11071Y22255D01*
X10946Y22230D01*
X10841Y22160D01*
X10778Y22255D01*
X10672Y22326D01*
X10547Y22350D01*
X10422Y22326D01*
X10316Y22255D01*
X10263Y22244D01*
X10085Y22269D01*
X10051Y22321D01*
X9945Y22391D01*
X9820Y22416D01*
D02*
G37*
G36*
X8947Y22173D02*
X8822Y22149D01*
X8717Y22078D01*
X8646Y21972D01*
X8621Y21847D01*
X8646Y21722D01*
X8717Y21616D01*
X8822Y21546D01*
X8947Y21521D01*
X9072Y21546D01*
X9178Y21616D01*
X9249Y21722D01*
X9273Y21847D01*
X9249Y21972D01*
X9178Y22078D01*
X9072Y22149D01*
X8947Y22173D01*
D02*
G37*
G36*
X11890Y21846D02*
X11765Y21821D01*
X11659Y21751D01*
X11589Y21645D01*
X11564Y21520D01*
X11589Y21395D01*
X11659Y21289D01*
X11765Y21219D01*
X11890Y21194D01*
X12015Y21219D01*
X12071Y21256D01*
X12093Y21254D01*
X12242Y21197D01*
X12276Y21171D01*
X12287Y21117D01*
X12358Y21011D01*
X12463Y20940D01*
X12588Y20916D01*
X12713Y20940D01*
X12819Y21011D01*
X12890Y21117D01*
X12914Y21242D01*
X12890Y21367D01*
X12819Y21473D01*
X12713Y21543D01*
X12588Y21568D01*
X12463Y21543D01*
X12407Y21506D01*
X12386Y21508D01*
X12237Y21565D01*
X12202Y21591D01*
X12191Y21645D01*
X12121Y21751D01*
X12015Y21821D01*
X11890Y21846D01*
D02*
G37*
G36*
X6790Y21376D02*
X6665Y21351D01*
X6559Y21281D01*
X6489Y21175D01*
X6464Y21050D01*
X6489Y20925D01*
X6559Y20819D01*
X6665Y20749D01*
X6790Y20724D01*
X6915Y20749D01*
X7021Y20819D01*
X7091Y20925D01*
X7116Y21050D01*
X7091Y21175D01*
X7021Y21281D01*
X6915Y21351D01*
X6790Y21376D01*
D02*
G37*
G36*
X12553Y20613D02*
X12428Y20588D01*
X12323Y20518D01*
X12252Y20412D01*
X12227Y20287D01*
X12252Y20162D01*
X12323Y20056D01*
X12428Y19985D01*
X12553Y19961D01*
X12678Y19985D01*
X12784Y20056D01*
X12855Y20162D01*
X12879Y20287D01*
X12855Y20412D01*
X12784Y20518D01*
X12678Y20588D01*
X12553Y20613D01*
D02*
G37*
G36*
X10680Y20486D02*
X10555Y20461D01*
X10449Y20391D01*
X10379Y20285D01*
X10354Y20160D01*
X10379Y20035D01*
X10449Y19929D01*
X10555Y19859D01*
X10680Y19834D01*
X10805Y19859D01*
X10911Y19929D01*
X10981Y20035D01*
X11006Y20160D01*
X10981Y20285D01*
X10911Y20391D01*
X10805Y20461D01*
X10680Y20486D01*
D02*
G37*
G36*
X7920Y20416D02*
X7795Y20391D01*
X7689Y20321D01*
X7619Y20215D01*
X7594Y20090D01*
X7619Y19965D01*
X7689Y19859D01*
X7795Y19789D01*
X7920Y19764D01*
X8045Y19789D01*
X8151Y19859D01*
X8221Y19965D01*
X8246Y20090D01*
X8221Y20215D01*
X8151Y20321D01*
X8045Y20391D01*
X7920Y20416D01*
D02*
G37*
G36*
X6110Y20576D02*
X5985Y20551D01*
X5879Y20481D01*
X5809Y20375D01*
X5784Y20250D01*
X5809Y20125D01*
X5879Y20019D01*
X5985Y19949D01*
X6017Y19942D01*
X6047Y19732D01*
X5999Y19701D01*
X5929Y19595D01*
X5904Y19470D01*
X5929Y19345D01*
X5999Y19239D01*
X6105Y19169D01*
X6230Y19144D01*
X6355Y19169D01*
X6461Y19239D01*
X6531Y19345D01*
X6556Y19470D01*
X6531Y19595D01*
X6461Y19701D01*
X6355Y19771D01*
X6323Y19778D01*
X6293Y19988D01*
X6341Y20019D01*
X6411Y20125D01*
X6436Y20250D01*
X6411Y20375D01*
X6341Y20481D01*
X6235Y20551D01*
X6110Y20576D01*
D02*
G37*
G36*
X5097Y15613D02*
X4972Y15589D01*
X4866Y15518D01*
X4796Y15412D01*
X4771Y15287D01*
X4796Y15162D01*
X4866Y15057D01*
X4972Y14986D01*
X5097Y14961D01*
X5222Y14986D01*
X5328Y15057D01*
X5399Y15162D01*
X5423Y15287D01*
X5399Y15412D01*
X5328Y15518D01*
X5222Y15589D01*
X5097Y15613D01*
D02*
G37*
G36*
X4844Y8530D02*
X4719Y8506D01*
X4614Y8435D01*
X4543Y8329D01*
X4518Y8204D01*
X4543Y8079D01*
X4614Y7973D01*
X4719Y7903D01*
X4844Y7878D01*
X4969Y7903D01*
X5075Y7973D01*
X5146Y8079D01*
X5170Y8204D01*
X5146Y8329D01*
X5075Y8435D01*
X4969Y8506D01*
X4844Y8530D01*
D02*
G37*
G36*
X9636Y16006D02*
X9512Y15981D01*
X9406Y15911D01*
X9335Y15805D01*
X9310Y15680D01*
X9335Y15555D01*
X9406Y15449D01*
X9512Y15379D01*
X9636Y15354D01*
X9761Y15379D01*
X9867Y15449D01*
X9938Y15555D01*
X9963Y15680D01*
X9938Y15805D01*
X9867Y15911D01*
X9761Y15981D01*
X9636Y16006D01*
D02*
G37*
G36*
X11143Y13555D02*
X11018Y13531D01*
X10912Y13460D01*
X10841Y13354D01*
X10816Y13229D01*
X10841Y13104D01*
X10912Y12998D01*
X11018Y12928D01*
X11143Y12903D01*
X11267Y12928D01*
X11373Y12998D01*
X11444Y13104D01*
X11469Y13229D01*
X11444Y13354D01*
X11373Y13460D01*
X11267Y13531D01*
X11143Y13555D01*
D02*
G37*
G36*
X9580Y13376D02*
X9455Y13351D01*
X9349Y13281D01*
X9279Y13175D01*
X9254Y13050D01*
X9279Y12925D01*
X9349Y12819D01*
X9455Y12749D01*
X9580Y12724D01*
X9705Y12749D01*
X9811Y12819D01*
X9881Y12925D01*
X9906Y13050D01*
X9881Y13175D01*
X9811Y13281D01*
X9705Y13351D01*
X9580Y13376D01*
D02*
G37*
G36*
X9730Y11536D02*
X9605Y11511D01*
X9499Y11441D01*
X9429Y11335D01*
X9404Y11210D01*
X9429Y11085D01*
X9499Y10979D01*
X9605Y10909D01*
X9730Y10884D01*
X9855Y10909D01*
X9961Y10979D01*
X10031Y11085D01*
X10056Y11210D01*
X10031Y11335D01*
X9961Y11441D01*
X9855Y11511D01*
X9730Y11536D01*
D02*
G37*
G36*
X11020Y10736D02*
X10895Y10711D01*
X10789Y10641D01*
X10719Y10535D01*
X10694Y10410D01*
X10719Y10285D01*
X10789Y10179D01*
X10895Y10109D01*
X11020Y10084D01*
X11145Y10109D01*
X11251Y10179D01*
X11321Y10285D01*
X11346Y10410D01*
X11321Y10535D01*
X11251Y10641D01*
X11145Y10711D01*
X11020Y10736D01*
D02*
G37*
G36*
X11100Y9756D02*
X10975Y9731D01*
X10869Y9661D01*
X10799Y9555D01*
X10774Y9430D01*
X10799Y9305D01*
X10869Y9199D01*
X10975Y9129D01*
X11100Y9104D01*
X11225Y9129D01*
X11331Y9199D01*
X11401Y9305D01*
X11426Y9430D01*
X11401Y9555D01*
X11331Y9661D01*
X11225Y9731D01*
X11100Y9756D01*
D02*
G37*
G36*
X12770Y8826D02*
X12645Y8801D01*
X12539Y8731D01*
X12469Y8625D01*
X12444Y8500D01*
X12469Y8375D01*
X12539Y8269D01*
X12645Y8199D01*
X12770Y8174D01*
X12895Y8199D01*
X13001Y8269D01*
X13071Y8375D01*
X13096Y8500D01*
X13071Y8625D01*
X13001Y8731D01*
X12895Y8801D01*
X12770Y8826D01*
D02*
G37*
G36*
X-18551Y-17124D02*
X-18568D01*
X-18579Y-17126D01*
X-18610Y-17129D01*
X-18646Y-17138D01*
X-18690Y-17151D01*
X-18737Y-17171D01*
X-18782Y-17199D01*
X-18826Y-17235D01*
X-18832Y-17240D01*
X-18843Y-17254D01*
X-18862Y-17279D01*
X-18882Y-17312D01*
X-18904Y-17351D01*
X-18923Y-17401D01*
X-18940Y-17460D01*
X-18948Y-17523D01*
X-18168D01*
Y-17521D01*
Y-17515D01*
X-18171Y-17507D01*
Y-17496D01*
X-18177Y-17462D01*
X-18185Y-17426D01*
X-18199Y-17382D01*
X-18213Y-17340D01*
X-18235Y-17299D01*
X-18260Y-17263D01*
Y-17260D01*
X-18265Y-17257D01*
X-18279Y-17240D01*
X-18304Y-17218D01*
X-18338Y-17193D01*
X-18379Y-17168D01*
X-18429Y-17146D01*
X-18488Y-17129D01*
X-18518Y-17126D01*
X-18551Y-17124D01*
D02*
G37*
%LPD*%
D15*
X0Y0D02*
X18540D01*
Y50290D01*
X0D02*
X18540D01*
X0Y0D02*
Y50290D01*
D71*
X14420Y24340D02*
Y30790D01*
X14000Y23920D02*
X14420Y24340D01*
X14000Y22624D02*
Y23920D01*
X8190Y44930D02*
Y45110D01*
X14600Y16760D02*
Y22024D01*
X14000Y22624D02*
X14600Y22024D01*
X13930Y31280D02*
X14420Y30790D01*
X12434Y37126D02*
X13930Y35630D01*
Y31280D02*
Y35630D01*
X16089Y40600D02*
X16891Y41402D01*
X12434Y40100D02*
X12934Y40600D01*
X12434Y37126D02*
Y40100D01*
X12934Y40600D02*
X16089D01*
X8190Y45110D02*
X10130Y47050D01*
X10720D01*
D74*
X17374Y44094D02*
D03*
D75*
X14834D02*
D03*
Y46634D02*
D03*
X17374D02*
D03*
Y49174D02*
D03*
X6517Y46142D02*
D03*
X11517D02*
D03*
D76*
X14525Y6050D02*
D03*
D77*
X13255D02*
D03*
D78*
X5517Y48842D02*
D03*
X12517D02*
D03*
D79*
X1651Y38862D02*
D03*
Y41402D02*
D03*
Y36322D02*
D03*
Y33782D02*
D03*
Y31242D02*
D03*
Y28702D02*
D03*
Y26162D02*
D03*
Y23622D02*
D03*
Y21082D02*
D03*
Y18542D02*
D03*
Y16002D02*
D03*
Y13462D02*
D03*
Y10922D02*
D03*
Y8382D02*
D03*
Y5842D02*
D03*
X16891Y38862D02*
D03*
Y41402D02*
D03*
Y36322D02*
D03*
Y33782D02*
D03*
Y31242D02*
D03*
Y28702D02*
D03*
Y26162D02*
D03*
Y23622D02*
D03*
Y21082D02*
D03*
Y18542D02*
D03*
Y16002D02*
D03*
Y13462D02*
D03*
Y10922D02*
D03*
Y8382D02*
D03*
Y5842D02*
D03*
D81*
X5570Y10230D02*
D03*
X6790Y21050D02*
D03*
X8520Y36928D02*
D03*
X8940Y36150D02*
D03*
X3260Y20040D02*
D03*
X2850Y19700D02*
D03*
X2330Y19760D02*
D03*
X3920Y20960D02*
D03*
X4150Y21580D02*
D03*
X6420Y42340D02*
D03*
X5770Y40700D02*
D03*
X11143Y13229D02*
D03*
X12300Y12950D02*
D03*
X14490Y9610D02*
D03*
X12540Y9700D02*
D03*
X11020Y10410D02*
D03*
X12500Y11030D02*
D03*
X9730Y11210D02*
D03*
X7980Y17400D02*
D03*
X7920Y20090D02*
D03*
X10680Y20160D02*
D03*
X9347Y18669D02*
D03*
X10760Y17910D02*
D03*
X9090Y15700D02*
D03*
X9636Y15680D02*
D03*
X13020Y11900D02*
D03*
X15320Y10890D02*
D03*
X14460Y8480D02*
D03*
X12770Y8500D02*
D03*
X11100Y9430D02*
D03*
X11880Y4480D02*
D03*
X7730Y3400D02*
D03*
X7717Y4130D02*
D03*
X7240Y6220D02*
D03*
X9560Y4570D02*
D03*
X9380Y6010D02*
D03*
X13500Y1570D02*
D03*
X3160Y1110D02*
D03*
X4844Y8204D02*
D03*
X5831Y14410D02*
D03*
X5097Y15287D02*
D03*
X8947Y21847D02*
D03*
X10547Y22024D02*
D03*
X11071Y21929D02*
D03*
X12588Y21242D02*
D03*
X12553Y20287D02*
D03*
X11890Y21520D02*
D03*
X4010Y17469D02*
D03*
X3720Y16930D02*
D03*
X6110Y20250D02*
D03*
X3420Y31260D02*
D03*
X2370Y22550D02*
D03*
X5010Y30280D02*
D03*
X6521Y28450D02*
D03*
X4080Y31850D02*
D03*
X6040Y34380D02*
D03*
X6180Y36050D02*
D03*
X3930Y36060D02*
D03*
X8330Y33400D02*
D03*
X5990Y32910D02*
D03*
X9410Y32830D02*
D03*
X10650Y32950D02*
D03*
X11800Y32700D02*
D03*
X14570Y31480D02*
D03*
X13670Y30230D02*
D03*
X11790Y30500D02*
D03*
X11010Y30440D02*
D03*
X9390Y30630D02*
D03*
X7100Y30680D02*
D03*
X10660Y28390D02*
D03*
X13820Y27450D02*
D03*
X13850Y25220D02*
D03*
X12260Y26180D02*
D03*
X7740Y25860D02*
D03*
X12340Y32860D02*
D03*
X11990Y35670D02*
D03*
X14570Y36030D02*
D03*
X15000Y36540D02*
D03*
X11840Y36750D02*
D03*
X11720Y38960D02*
D03*
X2650Y46480D02*
D03*
X1155Y49485D02*
D03*
X2650Y49470D02*
D03*
X14570Y23650D02*
D03*
X14850Y22990D02*
D03*
X14960Y22470D02*
D03*
X8390Y6580D02*
D03*
X7090Y32930D02*
D03*
X7410Y26720D02*
D03*
X4110Y26530D02*
D03*
X9820Y22090D02*
D03*
X14600Y16760D02*
D03*
X15720Y17150D02*
D03*
X15330Y18110D02*
D03*
X14230Y14950D02*
D03*
X15420Y15370D02*
D03*
X6230Y19470D02*
D03*
X10030Y39250D02*
D03*
X10550Y38830D02*
D03*
X10630Y41410D02*
D03*
X8880Y44990D02*
D03*
X9800D02*
D03*
X6960Y43130D02*
D03*
X7460Y44320D02*
D03*
X13110Y45440D02*
D03*
X8190Y44930D02*
D03*
X3630Y44940D02*
D03*
X7230Y24240D02*
D03*
X7790Y25150D02*
D03*
X7720Y24550D02*
D03*
X15020Y32950D02*
D03*
X15110Y41170D02*
D03*
X4270Y37500D02*
D03*
X14900Y38590D02*
D03*
X4369Y720D02*
D03*
X9580Y13050D02*
D03*
X14150Y42710D02*
D03*
X13280Y42610D02*
D03*
X4620Y6995D02*
D03*
X1730Y2320D02*
D03*
X13650Y28900D02*
D03*
X13004Y39800D02*
D03*
X10600Y3350D02*
D03*
X1200Y46500D02*
D03*
X9530Y40370D02*
D03*
X10490Y43630D02*
D03*
X7870Y28320D02*
D03*
X8300Y30350D02*
D03*
X10720Y47050D02*
D03*
X8000Y729D02*
D03*
X10570Y1090D02*
D03*
X760Y47070D02*
D03*
X1790Y49640D02*
D03*
X4230Y49630D02*
D03*
X4960Y47220D02*
D03*
X700Y43750D02*
D03*
X4530Y43180D02*
D03*
X3550Y40520D02*
D03*
X700Y40000D02*
D03*
Y37490D02*
D03*
Y35030D02*
D03*
X3670Y34710D02*
D03*
X5660Y37080D02*
D03*
X3840Y38690D02*
D03*
X5860Y38490D02*
D03*
X680Y29910D02*
D03*
X660Y32310D02*
D03*
X4360Y28960D02*
D03*
X5590Y28920D02*
D03*
X6580Y30410D02*
D03*
X7110Y33730D02*
D03*
X670Y22260D02*
D03*
X650Y19820D02*
D03*
X590Y17210D02*
D03*
X2420Y17320D02*
D03*
X610Y14760D02*
D03*
X3880Y16050D02*
D03*
Y14610D02*
D03*
X5650Y13510D02*
D03*
X530Y12080D02*
D03*
X2630Y11810D02*
D03*
X740Y9710D02*
D03*
X3920Y12390D02*
D03*
X2550Y7160D02*
D03*
X700Y4860D02*
D03*
X5130Y3920D02*
D03*
X5097Y729D02*
D03*
X730Y680D02*
D03*
X5517Y6340D02*
D03*
X13550Y620D02*
D03*
X15940Y610D02*
D03*
X17830Y650D02*
D03*
X17850Y12060D02*
D03*
X17770Y14780D02*
D03*
X17800Y17270D02*
D03*
X17740Y19970D02*
D03*
X15970Y22040D02*
D03*
X15980Y24870D02*
D03*
X17890Y27650D02*
D03*
X17790Y32400D02*
D03*
X17820Y30000D02*
D03*
X17800Y35090D02*
D03*
X17860Y37540D02*
D03*
X9190Y36930D02*
D03*
X8130Y34310D02*
D03*
X12200Y33670D02*
D03*
X10040Y34200D02*
D03*
X10760Y36130D02*
D03*
X10360Y40010D02*
D03*
X10550Y42300D02*
D03*
X12840Y43140D02*
D03*
X13810Y49560D02*
D03*
X16050Y49610D02*
D03*
X16110Y47670D02*
D03*
X13530Y47660D02*
D03*
M02*
