M48
;Layer_Color=9474304
;FILE_FORMAT=4:3
METRIC,LZ
;TYPE=PLATED
T1F00S00C0.200
T3F00S00C0.800
T4F00S00C0.900
T5F00S00C1.100
%
T01
X000073Y000068
X000173Y000232
X000316Y000111
X0004369Y000072
X0005097Y0000729
X0008
X001057Y000109
X00106Y000335
X000956Y000457
X000938Y000601
X000839Y000658
X000724Y000622
X0005517Y000634
X000462Y0006995
X0004844Y0008204
X000557Y001023
X000565Y001351
X0005831Y001441
X0005097Y0015287
X000388Y001461
Y001605
X000372Y001693
X000401Y0017469
X000242Y001732
X000059Y001721
X000061Y001476
X000053Y001208
X000263Y001181
X000392Y001239
X000074Y000971
X000255Y000716
X00007Y000486
X000513Y000392
X0007717Y000413
X000773Y00034
X001188Y000448
X00135Y000157
X001355Y000062
X001594Y000061
X001783Y000065
X001446Y000848
X001449Y000961
X001254Y00097
X00125Y001103
X001302Y00119
X00123Y001295
X0011143Y0013229
X000958Y001305
X000973Y001121
X001102Y001041
X00111Y000943
X001277Y00085
X001532Y001089
X001785Y001206
X001777Y001478
X00178Y001727
X001572Y001715
X001533Y001811
X00146Y001676
X001423Y001495
X001542Y001537
X0009636Y001568
X000909Y00157
X000798Y00174
X0009347Y0018669
X001076Y001791
X001068Y002016
X0010547Y0022024
X0011071Y0021929
X001189Y002152
X0012588Y0021242
X0012553Y0020287
X000982Y002209
X0008947Y0021847
X000792Y002009
X000611Y002025
X000623Y001947
X000679Y002105
X000392Y002096
X000415Y002158
X000326Y002004
X000285Y00197
X000233Y001976
X000065Y001982
X000067Y002226
X000237Y002255
X000411Y002653
X000741Y002672
X000774Y002586
X000779Y002515
X000772Y002455
X000723Y002424
X001226Y002618
X001385Y002522
X001382Y002745
X001457Y002365
X001485Y002299
X001496Y002247
X001597Y002204
X001598Y002487
X001774Y001997
X001789Y002765
X001782Y003
X001779Y00324
X00178Y003509
X001786Y003754
X0015Y003654
X001457Y003603
X00149Y003859
X001511Y004117
X001415Y004271
X001328Y004261
X001284Y004314
X001311Y004544
X001353Y004766
X001381Y004956
X001605Y004961
X001611Y004767
X001072Y004705
X00098Y004499
X000888
X000819Y004493
X000746Y004432
X000696Y004313
X000642Y004234
X000577Y00407
X000586Y003849
X000566Y003708
X000618Y003605
X000604Y003438
X000599Y003291
X000709Y003293
X000711Y003373
X000833Y00334
X000813Y003431
X001004Y00342
X001065Y003295
X000941Y003283
X000939Y003063
X00083Y003035
X00071Y003068
X000658Y003041
X000501Y003028
X000559Y002892
X000436Y002896
X0006521Y002845
X000787Y002832
X001066Y002839
X001101Y003044
X001179Y00305
X001367Y003023
X001365Y00289
X001457Y003148
X001502Y003295
X001234Y003286
X00118Y00327
X00122Y003367
X001199Y003567
X001184Y003675
X001076Y003613
X000894Y003615
X000919Y003693
X000852Y0036928
X001003Y003925
X001055Y003883
X001172Y003896
X0013004Y00398
X001036Y004001
X000953Y004037
X001063Y004141
X001055Y00423
X001049Y004363
X000453Y004318
X000363Y004494
X000265Y004648
X00012Y00465
X000076Y004707
X0001155Y0049485
X000179Y004964
X000265Y004947
X000423Y004963
X000496Y004722
X00007Y004375
Y004
Y003749
Y003503
X000066Y003231
X000068Y002991
X000342Y003126
X000408Y003185
X000367Y003471
X000393Y003606
X000427Y00375
X000384Y003869
X000355Y004052
T03
X0013255Y000605
X0014525
T04
X0006517Y0046142
X0011517
X0014834Y0046634
Y0044094
X0017374
Y0046634
Y0049174
T05
X0001651Y0005842
Y0008382
Y0010922
Y0013462
Y0016002
Y0018542
Y0021082
Y0023622
Y0026162
X0016891
Y0023622
Y0021082
Y0018542
Y0016002
Y0013462
Y0010922
Y0008382
Y0005842
Y0028702
Y0031242
Y0033782
Y0036322
Y0038862
Y0041402
X0001651
Y0038862
Y0036322
Y0033782
Y0031242
Y0028702
M30
