G04*
G04 #@! TF.GenerationSoftware,Altium Limited,Altium Designer,18.1.9 (240)*
G04*
G04 Layer_Color=128*
%FSLAX43Y43*%
%MOMM*%
G71*
G01*
G75*
%ADD15C,0.100*%
%ADD101C,0.051*%
D15*
X0Y0D02*
X18540D01*
Y50290D01*
X0D02*
X18540D01*
X0Y0D02*
Y50290D01*
D101*
X16924Y44094D02*
X17824D01*
X17374Y43644D02*
Y44544D01*
X14384Y44094D02*
X15284D01*
X14834Y43644D02*
Y44544D01*
X14384Y46634D02*
X15284D01*
X14834Y46184D02*
Y47084D01*
X16924Y46634D02*
X17824D01*
X17374Y46184D02*
Y47084D01*
X16924Y49174D02*
X17824D01*
X17374Y48724D02*
Y49624D01*
X14125Y6050D02*
X14925D01*
X14525Y5650D02*
Y6450D01*
X12855Y6050D02*
X13655D01*
X13255Y5650D02*
Y6450D01*
X5217Y48842D02*
X5817D01*
X5517Y48542D02*
Y49142D01*
X12217Y48842D02*
X12817D01*
X12517Y48542D02*
Y49142D01*
X6067Y46142D02*
X6967D01*
X6517Y45692D02*
Y46592D01*
X11067Y46142D02*
X11967D01*
X11517Y45692D02*
Y46592D01*
X1101Y38862D02*
X2201D01*
X1651Y38312D02*
Y39412D01*
X1101Y41402D02*
X2201D01*
X1651Y40852D02*
Y41952D01*
X1101Y36322D02*
X2201D01*
X1651Y35772D02*
Y36872D01*
X1101Y33782D02*
X2201D01*
X1651Y33232D02*
Y34332D01*
X1101Y31242D02*
X2201D01*
X1651Y30692D02*
Y31792D01*
X1101Y28702D02*
X2201D01*
X1651Y28152D02*
Y29252D01*
X1101Y26162D02*
X2201D01*
X1651Y25612D02*
Y26712D01*
X1101Y23622D02*
X2201D01*
X1651Y23072D02*
Y24172D01*
X1101Y21082D02*
X2201D01*
X1651Y20532D02*
Y21632D01*
X1101Y18542D02*
X2201D01*
X1651Y17992D02*
Y19092D01*
X1101Y16002D02*
X2201D01*
X1651Y15452D02*
Y16552D01*
X1101Y13462D02*
X2201D01*
X1651Y12912D02*
Y14012D01*
X1101Y10922D02*
X2201D01*
X1651Y10372D02*
Y11472D01*
X1101Y8382D02*
X2201D01*
X1651Y7832D02*
Y8932D01*
X1101Y5842D02*
X2201D01*
X1651Y5292D02*
Y6392D01*
X16341Y38862D02*
X17441D01*
X16891Y38312D02*
Y39412D01*
X16341Y41402D02*
X17441D01*
X16891Y40852D02*
Y41952D01*
X16341Y36322D02*
X17441D01*
X16891Y35772D02*
Y36872D01*
X16341Y33782D02*
X17441D01*
X16891Y33232D02*
Y34332D01*
X16341Y31242D02*
X17441D01*
X16891Y30692D02*
Y31792D01*
X16341Y28702D02*
X17441D01*
X16891Y28152D02*
Y29252D01*
X16341Y26162D02*
X17441D01*
X16891Y25612D02*
Y26712D01*
X16341Y23622D02*
X17441D01*
X16891Y23072D02*
Y24172D01*
X16341Y21082D02*
X17441D01*
X16891Y20532D02*
Y21632D01*
X16341Y18542D02*
X17441D01*
X16891Y17992D02*
Y19092D01*
X16341Y16002D02*
X17441D01*
X16891Y15452D02*
Y16552D01*
X16341Y13462D02*
X17441D01*
X16891Y12912D02*
Y14012D01*
X16341Y10922D02*
X17441D01*
X16891Y10372D02*
Y11472D01*
X16341Y8382D02*
X17441D01*
X16891Y7832D02*
Y8932D01*
X16341Y5842D02*
X17441D01*
X16891Y5292D02*
Y6392D01*
X5470Y10230D02*
X5670D01*
X5570Y10130D02*
Y10330D01*
X6690Y21050D02*
X6890D01*
X6790Y20950D02*
Y21150D01*
X8420Y36928D02*
X8620D01*
X8520Y36828D02*
Y37028D01*
X8840Y36150D02*
X9040D01*
X8940Y36050D02*
Y36250D01*
X3160Y20040D02*
X3360D01*
X3260Y19940D02*
Y20140D01*
X2750Y19700D02*
X2950D01*
X2850Y19600D02*
Y19800D01*
X2230Y19760D02*
X2430D01*
X2330Y19660D02*
Y19860D01*
X3820Y20960D02*
X4020D01*
X3920Y20860D02*
Y21060D01*
X4050Y21580D02*
X4250D01*
X4150Y21480D02*
Y21680D01*
X6320Y42340D02*
X6520D01*
X6420Y42240D02*
Y42440D01*
X5670Y40700D02*
X5870D01*
X5770Y40600D02*
Y40800D01*
X11043Y13229D02*
X11243D01*
X11143Y13129D02*
Y13329D01*
X12200Y12950D02*
X12400D01*
X12300Y12850D02*
Y13050D01*
X14390Y9610D02*
X14590D01*
X14490Y9510D02*
Y9710D01*
X12440Y9700D02*
X12640D01*
X12540Y9600D02*
Y9800D01*
X10920Y10410D02*
X11120D01*
X11020Y10310D02*
Y10510D01*
X12400Y11030D02*
X12600D01*
X12500Y10930D02*
Y11130D01*
X9630Y11210D02*
X9830D01*
X9730Y11110D02*
Y11310D01*
X7880Y17400D02*
X8080D01*
X7980Y17300D02*
Y17500D01*
X7820Y20090D02*
X8020D01*
X7920Y19990D02*
Y20190D01*
X10580Y20160D02*
X10780D01*
X10680Y20060D02*
Y20260D01*
X9247Y18669D02*
X9447D01*
X9347Y18569D02*
Y18769D01*
X10660Y17910D02*
X10860D01*
X10760Y17810D02*
Y18010D01*
X8990Y15700D02*
X9190D01*
X9090Y15600D02*
Y15800D01*
X9536Y15680D02*
X9736D01*
X9636Y15580D02*
Y15780D01*
X12920Y11900D02*
X13120D01*
X13020Y11800D02*
Y12000D01*
X15220Y10890D02*
X15420D01*
X15320Y10790D02*
Y10990D01*
X14360Y8480D02*
X14560D01*
X14460Y8380D02*
Y8580D01*
X12670Y8500D02*
X12870D01*
X12770Y8400D02*
Y8600D01*
X11000Y9430D02*
X11200D01*
X11100Y9330D02*
Y9530D01*
X11780Y4480D02*
X11980D01*
X11880Y4380D02*
Y4580D01*
X7630Y3400D02*
X7830D01*
X7730Y3300D02*
Y3500D01*
X7617Y4130D02*
X7817D01*
X7717Y4030D02*
Y4230D01*
X7140Y6220D02*
X7340D01*
X7240Y6120D02*
Y6320D01*
X9460Y4570D02*
X9660D01*
X9560Y4470D02*
Y4670D01*
X9280Y6010D02*
X9480D01*
X9380Y5910D02*
Y6110D01*
X13400Y1570D02*
X13600D01*
X13500Y1470D02*
Y1670D01*
X3060Y1110D02*
X3260D01*
X3160Y1010D02*
Y1210D01*
X4744Y8204D02*
X4944D01*
X4844Y8104D02*
Y8304D01*
X5731Y14410D02*
X5931D01*
X5831Y14310D02*
Y14510D01*
X4997Y15287D02*
X5197D01*
X5097Y15187D02*
Y15387D01*
X8847Y21847D02*
X9047D01*
X8947Y21747D02*
Y21947D01*
X10447Y22024D02*
X10647D01*
X10547Y21924D02*
Y22124D01*
X10971Y21929D02*
X11171D01*
X11071Y21829D02*
Y22029D01*
X12488Y21242D02*
X12688D01*
X12588Y21142D02*
Y21342D01*
X12453Y20287D02*
X12653D01*
X12553Y20187D02*
Y20387D01*
X11790Y21520D02*
X11990D01*
X11890Y21420D02*
Y21620D01*
X3910Y17469D02*
X4110D01*
X4010Y17369D02*
Y17569D01*
X3620Y16930D02*
X3820D01*
X3720Y16830D02*
Y17030D01*
X6010Y20250D02*
X6210D01*
X6110Y20150D02*
Y20350D01*
X3320Y31260D02*
X3520D01*
X3420Y31160D02*
Y31360D01*
X2270Y22550D02*
X2470D01*
X2370Y22450D02*
Y22650D01*
X4910Y30280D02*
X5110D01*
X5010Y30180D02*
Y30380D01*
X6421Y28450D02*
X6621D01*
X6521Y28350D02*
Y28550D01*
X3980Y31850D02*
X4180D01*
X4080Y31750D02*
Y31950D01*
X5940Y34380D02*
X6140D01*
X6040Y34280D02*
Y34480D01*
X6080Y36050D02*
X6280D01*
X6180Y35950D02*
Y36150D01*
X3830Y36060D02*
X4030D01*
X3930Y35960D02*
Y36160D01*
X8230Y33400D02*
X8430D01*
X8330Y33300D02*
Y33500D01*
X5890Y32910D02*
X6090D01*
X5990Y32810D02*
Y33010D01*
X9310Y32830D02*
X9510D01*
X9410Y32730D02*
Y32930D01*
X10550Y32950D02*
X10750D01*
X10650Y32850D02*
Y33050D01*
X11700Y32700D02*
X11900D01*
X11800Y32600D02*
Y32800D01*
X14470Y31480D02*
X14670D01*
X14570Y31380D02*
Y31580D01*
X13570Y30230D02*
X13770D01*
X13670Y30130D02*
Y30330D01*
X11690Y30500D02*
X11890D01*
X11790Y30400D02*
Y30600D01*
X10910Y30440D02*
X11110D01*
X11010Y30340D02*
Y30540D01*
X9290Y30630D02*
X9490D01*
X9390Y30530D02*
Y30730D01*
X7000Y30680D02*
X7200D01*
X7100Y30580D02*
Y30780D01*
X10560Y28390D02*
X10760D01*
X10660Y28290D02*
Y28490D01*
X13720Y27450D02*
X13920D01*
X13820Y27350D02*
Y27550D01*
X13750Y25220D02*
X13950D01*
X13850Y25120D02*
Y25320D01*
X12160Y26180D02*
X12360D01*
X12260Y26080D02*
Y26280D01*
X7640Y25860D02*
X7840D01*
X7740Y25760D02*
Y25960D01*
X12240Y32860D02*
X12440D01*
X12340Y32760D02*
Y32960D01*
X11890Y35670D02*
X12090D01*
X11990Y35570D02*
Y35770D01*
X14470Y36030D02*
X14670D01*
X14570Y35930D02*
Y36130D01*
X14900Y36540D02*
X15100D01*
X15000Y36440D02*
Y36640D01*
X11740Y36750D02*
X11940D01*
X11840Y36650D02*
Y36850D01*
X11620Y38960D02*
X11820D01*
X11720Y38860D02*
Y39060D01*
X2550Y46480D02*
X2750D01*
X2650Y46380D02*
Y46580D01*
X1055Y49485D02*
X1255D01*
X1155Y49385D02*
Y49585D01*
X2550Y49470D02*
X2750D01*
X2650Y49370D02*
Y49570D01*
X14470Y23650D02*
X14670D01*
X14570Y23550D02*
Y23750D01*
X14750Y22990D02*
X14950D01*
X14850Y22890D02*
Y23090D01*
X14860Y22470D02*
X15060D01*
X14960Y22370D02*
Y22570D01*
X8290Y6580D02*
X8490D01*
X8390Y6480D02*
Y6680D01*
X6990Y32930D02*
X7190D01*
X7090Y32830D02*
Y33030D01*
X7310Y26720D02*
X7510D01*
X7410Y26620D02*
Y26820D01*
X4010Y26530D02*
X4210D01*
X4110Y26430D02*
Y26630D01*
X9720Y22090D02*
X9920D01*
X9820Y21990D02*
Y22190D01*
X14500Y16760D02*
X14700D01*
X14600Y16660D02*
Y16860D01*
X15620Y17150D02*
X15820D01*
X15720Y17050D02*
Y17250D01*
X15230Y18110D02*
X15430D01*
X15330Y18010D02*
Y18210D01*
X14130Y14950D02*
X14330D01*
X14230Y14850D02*
Y15050D01*
X15320Y15370D02*
X15520D01*
X15420Y15270D02*
Y15470D01*
X6130Y19470D02*
X6330D01*
X6230Y19370D02*
Y19570D01*
X9930Y39250D02*
X10130D01*
X10030Y39150D02*
Y39350D01*
X10450Y38830D02*
X10650D01*
X10550Y38730D02*
Y38930D01*
X10530Y41410D02*
X10730D01*
X10630Y41310D02*
Y41510D01*
X8780Y44990D02*
X8980D01*
X8880Y44890D02*
Y45090D01*
X9700Y44990D02*
X9900D01*
X9800Y44890D02*
Y45090D01*
X6860Y43130D02*
X7060D01*
X6960Y43030D02*
Y43230D01*
X7360Y44320D02*
X7560D01*
X7460Y44220D02*
Y44420D01*
X13010Y45440D02*
X13210D01*
X13110Y45340D02*
Y45540D01*
X8090Y44930D02*
X8290D01*
X8190Y44830D02*
Y45030D01*
X3530Y44940D02*
X3730D01*
X3630Y44840D02*
Y45040D01*
X7130Y24240D02*
X7330D01*
X7230Y24140D02*
Y24340D01*
X7690Y25150D02*
X7890D01*
X7790Y25050D02*
Y25250D01*
X7620Y24550D02*
X7820D01*
X7720Y24450D02*
Y24650D01*
X14920Y32950D02*
X15120D01*
X15020Y32850D02*
Y33050D01*
X15010Y41170D02*
X15210D01*
X15110Y41070D02*
Y41270D01*
X4170Y37500D02*
X4370D01*
X4270Y37400D02*
Y37600D01*
X14800Y38590D02*
X15000D01*
X14900Y38490D02*
Y38690D01*
X4269Y720D02*
X4469D01*
X4369Y620D02*
Y820D01*
X9480Y13050D02*
X9680D01*
X9580Y12950D02*
Y13150D01*
X14050Y42710D02*
X14250D01*
X14150Y42610D02*
Y42810D01*
X13180Y42610D02*
X13380D01*
X13280Y42510D02*
Y42710D01*
X4520Y6995D02*
X4720D01*
X4620Y6895D02*
Y7095D01*
X1630Y2320D02*
X1830D01*
X1730Y2220D02*
Y2420D01*
X13550Y28900D02*
X13750D01*
X13650Y28800D02*
Y29000D01*
X12904Y39800D02*
X13104D01*
X13004Y39700D02*
Y39900D01*
X10500Y3350D02*
X10700D01*
X10600Y3250D02*
Y3450D01*
X1100Y46500D02*
X1300D01*
X1200Y46400D02*
Y46600D01*
X9430Y40370D02*
X9630D01*
X9530Y40270D02*
Y40470D01*
X10390Y43630D02*
X10590D01*
X10490Y43530D02*
Y43730D01*
X7770Y28320D02*
X7970D01*
X7870Y28220D02*
Y28420D01*
X8200Y30350D02*
X8400D01*
X8300Y30250D02*
Y30450D01*
X10620Y47050D02*
X10820D01*
X10720Y46950D02*
Y47150D01*
X7900Y729D02*
X8100D01*
X8000Y629D02*
Y829D01*
X10470Y1090D02*
X10670D01*
X10570Y990D02*
Y1190D01*
X660Y47070D02*
X860D01*
X760Y46970D02*
Y47170D01*
X1690Y49640D02*
X1890D01*
X1790Y49540D02*
Y49740D01*
X4130Y49630D02*
X4330D01*
X4230Y49530D02*
Y49730D01*
X4860Y47220D02*
X5060D01*
X4960Y47120D02*
Y47320D01*
X600Y43750D02*
X800D01*
X700Y43650D02*
Y43850D01*
X4430Y43180D02*
X4630D01*
X4530Y43080D02*
Y43280D01*
X3450Y40520D02*
X3650D01*
X3550Y40420D02*
Y40620D01*
X600Y40000D02*
X800D01*
X700Y39900D02*
Y40100D01*
X600Y37490D02*
X800D01*
X700Y37390D02*
Y37590D01*
X600Y35030D02*
X800D01*
X700Y34930D02*
Y35130D01*
X3570Y34710D02*
X3770D01*
X3670Y34610D02*
Y34810D01*
X5560Y37080D02*
X5760D01*
X5660Y36980D02*
Y37180D01*
X3740Y38690D02*
X3940D01*
X3840Y38590D02*
Y38790D01*
X5760Y38490D02*
X5960D01*
X5860Y38390D02*
Y38590D01*
X580Y29910D02*
X780D01*
X680Y29810D02*
Y30010D01*
X560Y32310D02*
X760D01*
X660Y32210D02*
Y32410D01*
X4260Y28960D02*
X4460D01*
X4360Y28860D02*
Y29060D01*
X5490Y28920D02*
X5690D01*
X5590Y28820D02*
Y29020D01*
X6480Y30410D02*
X6680D01*
X6580Y30310D02*
Y30510D01*
X7010Y33730D02*
X7210D01*
X7110Y33630D02*
Y33830D01*
X570Y22260D02*
X770D01*
X670Y22160D02*
Y22360D01*
X550Y19820D02*
X750D01*
X650Y19720D02*
Y19920D01*
X490Y17210D02*
X690D01*
X590Y17110D02*
Y17310D01*
X2320Y17320D02*
X2520D01*
X2420Y17220D02*
Y17420D01*
X510Y14760D02*
X710D01*
X610Y14660D02*
Y14860D01*
X3780Y16050D02*
X3980D01*
X3880Y15950D02*
Y16150D01*
X3780Y14610D02*
X3980D01*
X3880Y14510D02*
Y14710D01*
X5550Y13510D02*
X5750D01*
X5650Y13410D02*
Y13610D01*
X430Y12080D02*
X630D01*
X530Y11980D02*
Y12180D01*
X2530Y11810D02*
X2730D01*
X2630Y11710D02*
Y11910D01*
X640Y9710D02*
X840D01*
X740Y9610D02*
Y9810D01*
X3820Y12390D02*
X4020D01*
X3920Y12290D02*
Y12490D01*
X2450Y7160D02*
X2650D01*
X2550Y7060D02*
Y7260D01*
X600Y4860D02*
X800D01*
X700Y4760D02*
Y4960D01*
X5030Y3920D02*
X5230D01*
X5130Y3820D02*
Y4020D01*
X4997Y729D02*
X5197D01*
X5097Y629D02*
Y829D01*
X630Y680D02*
X830D01*
X730Y580D02*
Y780D01*
X5417Y6340D02*
X5617D01*
X5517Y6240D02*
Y6440D01*
X13450Y620D02*
X13650D01*
X13550Y520D02*
Y720D01*
X15840Y610D02*
X16040D01*
X15940Y510D02*
Y710D01*
X17730Y650D02*
X17930D01*
X17830Y550D02*
Y750D01*
X17750Y12060D02*
X17950D01*
X17850Y11960D02*
Y12160D01*
X17670Y14780D02*
X17870D01*
X17770Y14680D02*
Y14880D01*
X17700Y17270D02*
X17900D01*
X17800Y17170D02*
Y17370D01*
X17640Y19970D02*
X17840D01*
X17740Y19870D02*
Y20070D01*
X15870Y22040D02*
X16070D01*
X15970Y21940D02*
Y22140D01*
X15880Y24870D02*
X16080D01*
X15980Y24770D02*
Y24970D01*
X17790Y27650D02*
X17990D01*
X17890Y27550D02*
Y27750D01*
X17690Y32400D02*
X17890D01*
X17790Y32300D02*
Y32500D01*
X17720Y30000D02*
X17920D01*
X17820Y29900D02*
Y30100D01*
X17700Y35090D02*
X17900D01*
X17800Y34990D02*
Y35190D01*
X17760Y37540D02*
X17960D01*
X17860Y37440D02*
Y37640D01*
X9090Y36930D02*
X9290D01*
X9190Y36830D02*
Y37030D01*
X8030Y34310D02*
X8230D01*
X8130Y34210D02*
Y34410D01*
X12100Y33670D02*
X12300D01*
X12200Y33570D02*
Y33770D01*
X9940Y34200D02*
X10140D01*
X10040Y34100D02*
Y34300D01*
X10660Y36130D02*
X10860D01*
X10760Y36030D02*
Y36230D01*
X10260Y40010D02*
X10460D01*
X10360Y39910D02*
Y40110D01*
X10450Y42300D02*
X10650D01*
X10550Y42200D02*
Y42400D01*
X12740Y43140D02*
X12940D01*
X12840Y43040D02*
Y43240D01*
X13710Y49560D02*
X13910D01*
X13810Y49460D02*
Y49660D01*
X15950Y49610D02*
X16150D01*
X16050Y49510D02*
Y49710D01*
X16010Y47670D02*
X16210D01*
X16110Y47570D02*
Y47770D01*
X13430Y47660D02*
X13630D01*
X13530Y47560D02*
Y47760D01*
M02*
